<?xml version="1.0" encoding="UTF-8" standalone="no"?>
<svg
   width="32.836288mm"
   height="16.75556mm"
   viewBox="0 0 32.836289 16.75556"
   version="1.1"
   id="svg4"
   sodipodi:docname="Sticksy.svg"
   inkscape:version="1.4.2 (f4327f4, 2025-05-13)"
   xmlns:inkscape="http://www.inkscape.org/namespaces/inkscape"
   xmlns:sodipodi="http://sodipodi.sourceforge.net/DTD/sodipodi-0.dtd"
   xmlns="http://www.w3.org/2000/svg"
   xmlns:svg="http://www.w3.org/2000/svg">
  <defs
     id="defs4" />
  <sodipodi:namedview
     id="namedview4"
     pagecolor="#ffffff"
     bordercolor="#cccccc"
     borderopacity="1"
     inkscape:showpageshadow="0"
     inkscape:pageopacity="1"
     inkscape:pagecheckerboard="0"
     inkscape:deskcolor="#d1d1d1"
     inkscape:document-units="mm"
     inkscape:zoom="1.174946"
     inkscape:cx="91.068018"
     inkscape:cy="117.87776"
     inkscape:window-width="1920"
     inkscape:window-height="1009"
     inkscape:window-x="-8"
     inkscape:window-y="-8"
     inkscape:window-maximized="1"
     inkscape:current-layer="svg4" />
  <g
     id="g12"
     transform="translate(-38.16791,-30.432253)">
    <path
       id="path11"
       style="baseline-shift:baseline;display:inline;overflow:visible;opacity:1;vector-effect:none;fill:#b3b3b3;stroke-width:1.00423;enable-background:accumulate;stop-color:#000000;stop-opacity:1"
       d="m 38.619348,34.120915 c -0.0012,0.330605 0.03673,0.657011 0.10542,0.968933 0.145784,0.662008 0.453994,1.158806 0.797884,1.5875 0.01008,-0.005 0.01997,-0.01019 0.02997,-0.0155 -0.355922,-0.433493 -0.677829,-0.935712 -0.827857,-1.611271 -0.06653,-0.299565 -0.104233,-0.612411 -0.10542,-0.929659 z m 22.701974,0.229443 c -0.0072,0.02878 -0.0267,0.06201 -0.02067,0.08733 9.03e-4,-5.7e-5 0.0017,-4.6e-4 0.0026,-5.17e-4 0.0082,-0.02899 0.02629,-0.06033 0.01912,-0.08371 -2.95e-4,-9.61e-4 -7.38e-4,-0.0021 -0.001,-0.0031 z m -7.474996,0.01344 c -8.71e-4,0.259539 0.01912,0.515586 0.02222,0.780831 h 5.16e-4 c -0.0013,-0.265929 -0.02188,-0.521875 -0.02274,-0.780831 z M 52.45933,34.92655 c -0.0032,0.04069 -0.01492,0.07388 -0.01085,0.120406 0.0033,-0.04012 0.01472,-0.07349 0.01085,-0.120406 z m -2.652551,0.596863 c -0.01,0.01355 -0.0072,0.03164 -0.01757,0.04496 0.02791,-0.0032 0.05006,-0.02736 0.07803,-0.02946 -0.03026,-0.01548 -0.03224,-0.0033 -0.06046,-0.0155 z m -11.638566,3.303158 c -0.0012,0.08605 0.0016,0.172343 0.0093,0.257865 0.06601,0.737544 0.33422,1.566194 1.044897,2.393136 8.08e-4,9.39e-4 0.0017,0.0017 0.0026,0.0026 0.0185,-0.01765 0.03748,-0.03482 0.05633,-0.05219 -0.01495,-0.01661 -0.0444,-0.02667 -0.05891,-0.04341 -0.710677,-0.819996 -0.978887,-1.641633 -1.044897,-2.372982 -0.0055,-0.06145 -0.0084,-0.123206 -0.0093,-0.185001 z m 32.835722,3.40651 c -0.0014,0.134787 -0.0089,0.27738 -0.02532,0.430981 -0.0641,0.59845 -0.335271,1.236794 -0.732772,1.855701 -0.40725,0.718615 -0.967934,1.086007 -1.536857,1.357023 -0.582737,0.277597 -1.191631,0.44977 -1.867069,0.45527 -0.0156,2.88e-4 -5.387097,0.09926 -10.761617,0.197404 -4.790689,0.08748 -3.87554,-0.1677 -10.44174,0.185518 -1.001967,0.0539 -1.80092,0.191195 -2.601392,0.275435 -0.800471,0.08424 -1.677122,0.123002 -2.580204,-0.238228 -0.719578,-0.287828 -1.343216,-0.693784 -1.749764,-1.299145 -0.393154,-0.58542 -0.484823,-1.238079 -0.49196,-1.720826 -3.68e-4,0.02106 -5.9e-4,0.0423 -5.16e-4,0.06356 0.0017,0.491063 0.08593,1.173899 0.492476,1.784388 0.406548,0.610489 1.030186,1.019731 1.749764,1.309997 0.903082,0.36429 1.779733,0.32525 2.580204,0.240296 0.800472,-0.08495 1.599425,-0.223149 2.601392,-0.277503 6.5662,-0.35621 5.651051,-0.09937 10.44174,-0.187585 5.37452,-0.09897 10.746012,-0.198148 10.761617,-0.198438 0.675438,-0.0055 1.284332,-0.179454 1.867069,-0.459403 0.568923,-0.273312 1.129607,-0.644207 1.536857,-1.368909 0.397501,-0.62415 0.668671,-1.267685 0.732772,-1.871204 0.02054,-0.193401 0.02704,-0.369315 0.02532,-0.534334 z" />
    <path
       style="baseline-shift:baseline;display:inline;overflow:visible;opacity:1;vector-effect:none;fill:#f2f2f2;enable-background:accumulate;stop-color:#000000;stop-opacity:1"
       d="m 46.951172,30.433594 c -0.07113,-0.0022 -0.152973,-0.0022 -0.240235,0.0039 -0.597456,0.04199 -1.041709,0.269463 -1.423828,0.595703 -0.08758,0.07478 -0.09777,0.269077 -0.18164,0.361328 -0.678013,-0.598744 -1.6073,-0.959308 -2.664063,-0.925781 -1.340618,0.04253 -2.535091,0.615284 -3.189453,1.552734 -0.654362,0.937451 -0.743718,2.054992 -0.527344,3.029297 0.150028,0.675559 0.472203,1.177835 0.828125,1.611328 -0.249185,0.132411 -0.524396,0.162818 -0.736328,0.394532 -0.444032,0.48548 -0.703338,1.238568 -0.638672,1.955078 0.06601,0.731349 0.334245,1.553051 1.044922,2.373047 0.01451,0.01674 0.04364,0.02636 0.05859,0.04297 -0.629796,0.58034 -1.069683,1.314787 -1.066406,2.25586 0.0017,0.486938 0.08564,1.16417 0.492187,1.769531 0.406548,0.605361 1.030422,1.011 1.75,1.298828 0.903082,0.36123 1.779607,0.322522 2.580078,0.238281 0.800472,-0.08424 1.599596,-0.221492 2.601563,-0.27539 6.5662,-0.353218 5.650717,-0.09807 10.441406,-0.185547 5.37452,-0.09814 10.746114,-0.196978 10.761719,-0.197266 0.675438,-0.0055 1.28445,-0.177481 1.867187,-0.455078 0.568923,-0.271016 1.12986,-0.638807 1.53711,-1.357422 0.397501,-0.618907 0.668321,-1.257019 0.732422,-1.855469 0.067,-0.625543 -0.01491,-1.0697 -0.04687,-1.539062 -0.06583,-0.966526 -0.04806,-2.730569 -0.431641,-4.162109 -0.232832,-0.868939 -0.947216,-1.886612 -2.189453,-1.949219 -0.802749,-0.04047 -1.296676,0.266023 -1.722656,0.621094 -0.07872,0.06562 -0.147454,0.168643 -0.226563,0.24414 -0.062,-0.05502 -0.113184,-0.139102 -0.175781,-0.185547 -0.442586,-0.328379 -0.929976,-0.538677 -1.589844,-0.509765 -0.332497,0.01457 -0.503609,0.217305 -0.753906,0.330078 -0.131491,-0.119409 -0.169315,-0.335544 -0.3125,-0.427735 -0.05554,-0.03576 -0.854412,-0.622733 -1.88086,-0.658203 -0.109142,-0.0038 -0.228631,0.0023 -0.347656,0.0098 -0.0083,-0.03485 0.03165,-0.08432 0.02148,-0.117188 -0.1663,-0.537616 -0.435336,-0.862857 -0.775391,-1.132812 l -0.03516,-0.02734 -0.03516,-0.02344 c -0.488555,-0.343139 -1.210291,-0.61709 -1.923828,-0.470703 -0.104717,0.02148 -0.12156,0.102458 -0.214843,0.134765 -0.170017,-0.37062 -0.411505,-0.702815 -0.732422,-0.927734 -0.619213,-0.433984 -1.211445,-0.445651 -1.59375,-0.44336 -0.246404,0.0015 -0.571876,0.02006 -0.951172,0.201172 -0.379296,0.181115 -0.722901,0.554531 -0.884766,0.876953 -0.323729,0.644845 -0.28825,1.05034 -0.322265,1.597657 -0.02171,0.349333 0.01387,0.6852 0.01563,1.039062 -0.256257,-0.04619 -0.487273,-0.181368 -0.757813,-0.179687 -0.210675,0.0013 -0.437261,0.05911 -0.660156,0.103515 -0.01748,-0.0954 0.0339,-0.131715 -0.0078,-0.25 -0.18921,-0.536466 -0.63538,-0.84471 -1.091797,-1.023437 -0.0268,-0.05761 0.0189,-0.01554 -0.109375,-0.185547 -0.233192,-0.309064 -0.879044,-0.573563 -1.330078,-0.615234 -0.09177,-0.126883 -0.08912,-0.346783 -0.199218,-0.455079 -0.19979,-0.196517 -0.564643,-0.237818 -0.859375,-0.359375 -0.06049,-0.312942 -0.05308,-0.630272 -0.275391,-0.921875 -0.363662,-0.477008 -1.019873,-0.805304 -1.626953,-0.824218 z m 2.855469,5.089843 c 0.02822,0.01221 0.03029,1.54e-4 0.06055,0.01563 -0.02797,0.0021 -0.05022,0.02612 -0.07813,0.0293 0.01035,-0.01332 0.0076,-0.03137 0.01758,-0.04492 z"
       id="path4"
       sodipodi:nodetypes="ccscssscssscsssssscscscssscsscsccccccscscssscscccscscscccccsc" />
    <path
       style="fill:#c83771;stroke-width:0"
       d="m 63.54303,40.605026 c -0.138199,0.494525 -0.520773,1.038747 -0.978417,1.189779 -0.584488,0.192885 -1.372541,0.15166 -1.800468,-0.125922 -0.50343,-0.32654 -0.726288,-0.729343 -0.807218,-1.115354 -0.101897,-0.486006 0.107485,-0.963304 0.744316,-1.085063 0.192822,-0.03686 0.495155,0.231249 0.707188,0.764505 0.08586,0.215941 0.469971,0.230651 0.610039,0.179822 0.161425,-0.05858 0.14912,-0.400746 0.08295,-0.527992 -0.172495,-0.331699 -1.607207,-0.836637 -1.938529,-1.638206 -0.316223,-0.765047 -0.227,-1.241548 0.104007,-1.626114 0.222686,-0.258722 0.653426,-0.64646 1.069439,-0.685614 0.731702,-0.06899 1.155058,0.265743 1.381516,0.411546 1.272236,0.819135 -0.206971,1.707519 -0.457388,1.422339 -0.471671,-0.537143 -0.714798,-0.617286 -0.913637,-0.457552 -0.324374,0.260587 -0.01439,0.508269 0.122379,0.662434 0.110784,0.124869 0.357832,0.240701 0.57683,0.309741 0.450909,0.142146 1.020324,0.47597 1.296419,0.930674 0.24313,0.400422 0.326656,0.93981 0.200573,1.390977 z"
       id="path28"
       sodipodi:nodetypes="asssssssssssssssaa" />
    <path
       style="fill:#37abc8;stroke-width:0"
       d="m 56.970024,38.812982 c 0,0.578044 0.0666,1.501885 0.02588,2.07883 -0.04072,0.576942 -0.595174,0.730605 -0.903784,0.714764 -0.308613,-0.01583 -0.668647,-0.202876 -0.717875,-0.921786 -0.04922,-0.71891 0.0675,-1.979524 0.03299,-3.118133 -0.0345,-1.138612 -0.119643,-2.345786 -0.05608,-3.368499 0.06356,-1.02271 0.152861,-1.265887 0.669953,-1.269013 0.517094,-0.0031 1.051784,0.121747 1.089718,1.013949 0.03793,0.892206 0.0519,1.153105 0.0086,1.742421 0.327641,-0.264642 0.784405,-0.775026 1.094835,-1.104704 0.427727,-0.483389 0.810285,-0.631752 1.399727,-0.217755 0.210528,0.167129 0.46698,0.576521 0.169615,0.967509 -0.339717,0.446674 -0.308773,0.339703 -0.757868,0.78253 -0.449092,0.442826 -1.056189,0.708609 -1.607191,1.052351 0.527229,0.619771 0.996667,1.172135 1.404956,1.652309 0.408289,0.480171 0.817919,1.222878 0.923181,1.781283 0.130306,0.691261 -0.316796,0.935955 -0.681369,0.93823 -0.358973,0.0023 -0.679566,-0.225058 -0.887515,-0.767695 -0.402058,-1.049165 -0.811888,-1.266078 -1.207796,-1.956591 z"
       id="path29"
       sodipodi:nodetypes="czzzzzzcczsszczssscc" />
    <path
       style="fill:#37c871;stroke-width:0"
       d="m 53.852796,38.147213 c 0.400672,0.462367 1.504473,0.306379 1.314062,-0.589117 -0.164223,-0.772328 -1.718542,-1.307377 -2.598731,-1.009323 -0.940651,0.31853 -1.723053,1.298241 -1.550474,2.544136 0.162655,1.174247 0.792846,1.686072 1.26586,1.87208 0.589705,0.231899 1.180707,0.241931 1.581859,0.170656 0.708181,-0.125827 1.105686,-0.61434 1.235212,-0.852376 0.667313,-1.226344 -0.947468,-1.527532 -1.162476,-1.132898 -0.210571,0.38649 -0.330759,0.36931 -0.794093,0.327959 -0.463332,-0.04135 -0.682606,-0.399898 -0.700954,-0.738895 -0.01984,-0.366524 0.382297,-0.846006 0.667218,-0.876028 0.28492,-0.03002 0.510487,0.01604 0.742517,0.283806 z"
       id="path30"
       sodipodi:nodetypes="ssassssszazs" />
    <path
       style="fill:#ff9955;stroke-width:0"
       d="m 49.101921,37.859361 c 0,-1.130589 1.692769,-1.299755 1.692769,0.01166 0,1.119167 0.02701,1.476215 0.02701,2.648056 0,0.885087 -1.71978,1.073628 -1.71978,-0.0097 0,-1.182237 0,-1.505347 0,-2.650051 z"
       id="path31"
       sodipodi:nodetypes="sssss" />
    <path
       id="path32"
       style="fill:#ff9955;stroke-width:0"
       inkscape:transform-center-x="0.088795394"
       inkscape:transform-center-y="-0.46186958"
       d="m 51.027809,35.316894 c 0.02995,0.08493 4.89e-4,0.260961 -0.113267,0.386292 -0.107446,0.118395 -0.205581,0.123403 -0.25341,0.250657 -0.02497,0.08717 0.05918,0.244329 0.08507,0.416552 0.0239,0.159003 -0.03685,0.297795 -0.103109,0.349541 -0.07154,0.05587 -0.238554,0.05233 -0.400271,-0.02495 -0.150328,-0.07184 -0.267241,-0.181126 -0.331679,-0.12629 -0.13664,0.116276 -0.610244,0.344824 -0.75571,0.247749 -0.285589,-0.190588 0.01881,-0.640709 -0.04104,-0.805999 -0.02692,-0.07435 -0.140286,-0.160081 -0.250335,-0.267089 -0.134559,-0.130839 -0.186995,-0.267259 -0.160522,-0.36014 0.02655,-0.09317 0.111881,-0.177526 0.291714,-0.215159 0.146081,-0.03057 0.308798,-0.03348 0.370831,-0.08163 0.04923,-0.03821 0.07598,-0.180672 0.131466,-0.285666 0.100492,-0.190161 0.165549,-0.363452 0.348179,-0.371422 0.206253,-0.009 0.220749,0.132078 0.310677,0.290883 0.07591,0.134048 0.116975,0.291771 0.183215,0.33616 0.06822,0.04571 0.235,0.03058 0.39012,0.05629 0.173928,0.02883 0.267284,0.116931 0.298071,0.204221 z"
       sodipodi:nodetypes="sscssssssscssssssss" />
    <path
       style="fill:#ab37c8;stroke-width:0"
       d="m 46.002401,33.254059 c 0,0 -1.011932,-0.07699 -1.057211,0.801421 -0.04842,0.93938 0.91747,0.93446 0.91747,0.93446 0,0 0.04531,3.872302 0.04531,4.576023 0,0.540055 0.12196,1.209465 0.525671,1.495126 0.486784,0.344443 1.059539,0.2492 1.555977,0.2492 1.263453,0 1.168217,-1.507678 0.08384,-1.551937 -0.195617,-0.008 -0.282258,0.06937 -0.429298,-0.04112 -0.270146,-0.202981 -0.223094,-0.9279 -0.215759,-1.272625 0.006,-0.283922 -0.03431,-1.153686 0.02715,-2.009371 0.05378,-0.748752 0.09745,-1.51326 0.09745,-1.51326 0.09982,0 0.16155,-0.0092 0.613099,-0.0092 0.345108,0 0.712947,-0.181836 0.712947,-0.858026 0,-0.289573 -0.335697,-0.675755 -0.74401,-0.675755 -0.22035,0 -0.504665,-0.02016 -0.604689,-0.02016 V 32.69627 c 0.01985,-0.433826 -0.229075,-0.795828 -0.713739,-0.761765 -0.392573,0.02759 -0.814085,0.374754 -0.823683,0.716459 -0.01047,0.372688 0.0095,0.603099 0.0095,0.603099 z"
       id="path33"
       sodipodi:nodetypes="cscssssssscsssccsscc" />
    <path
       style="fill:#3771c8;stroke-width:0"
       d="m 43.146019,34.362567 c 0.199603,0.660408 1.683102,0.502781 1.6206,-0.527703 -0.05391,-0.888752 -0.962716,-1.909173 -2.277548,-1.867459 -1.995614,0.06331 -2.590291,1.452444 -2.30048,2.757428 0.289811,1.304986 1.436481,1.814539 1.941283,2.085975 1.182091,0.635615 1.348614,1.403999 1.313708,1.753298 -0.04258,0.426053 -0.651735,0.663886 -1.035922,0.540213 -0.337638,-0.108689 -0.53554,-0.31413 -0.613276,-0.744317 -0.19075,-1.05561 -2.2467,-0.852588 -2.123173,0.516097 0.06547,0.725385 0.769392,2.528695 2.978396,2.445724 2.169037,-0.08148 2.653704,-1.726909 2.606335,-2.967465 -0.04737,-1.240556 -1.16884,-2.238692 -2.018653,-2.756636 -0.849812,-0.517942 -1.233095,-0.74578 -1.245031,-1.122026 -0.01193,-0.376244 0.31273,-0.731196 0.754385,-0.630025 0.30884,0.07075 0.361542,0.391721 0.399376,0.516896 z"
       id="path34"
       sodipodi:nodetypes="sssssssssssssss" />
    <path
       style="fill:#c87137;stroke-width:0"
       d="m 63.697917,37.591132 c -0.04242,0.690172 -0.121478,2.249531 0.360584,2.869563 0.465357,0.598546 1.205689,0.926824 1.968397,0.926824 1.643411,0 1.882411,-0.855165 1.882411,-0.855165 0.07575,0.655742 0.294385,1.408856 -0.02102,1.980779 -0.203925,0.233486 -0.61464,0.617811 -1.069141,0.617811 -2.546564,0 -6.58572,-0.0028 -10.538548,-0.20207 -4.956262,-0.249807 -9.76384,-0.717639 -11.175689,-0.842704 -2.537857,-0.224814 -2.89812,-0.325343 -3.818896,-0.138006 -0.920776,0.187338 -1.573302,1.032706 -1.570871,1.730984 0.0024,0.698275 0.196641,1.240197 1.298557,1.680959 1.101916,0.440763 2.358485,-0.02592 4.544282,-0.1435 6.597753,-0.354915 5.755113,-0.100526 10.495405,-0.187083 5.382112,-0.09828 10.777308,-0.198026 10.777308,-0.198026 0.76315,-0.0062 1.811859,-0.463381 2.134839,-1.059461 0.691808,-1.038737 0.542117,-1.493992 0.470561,-2.544704 -0.07156,-1.050711 -0.103504,-2.825513 -0.38511,-3.876478 -0.12591,-0.469902 -0.427154,-0.818545 -0.816766,-0.838181 -0.446115,-0.02249 -1.039333,0.46671 -1.026973,0.860836 0.01364,0.435326 0.422833,1.395711 0.08673,1.95461 -0.224786,0.37379 -0.750308,0.624843 -1.181874,0.561609 -0.333964,-0.04893 -0.638258,-0.360733 -0.751458,-0.678714 -0.199267,-0.55974 0.288734,-1.409906 0.270234,-1.761848 -0.02277,-0.432984 -0.558333,-0.784377 -0.970005,-0.76634 -0.440825,0.01932 -0.93588,0.46789 -0.96295,0.908305 z"
       id="path35"
       sodipodi:nodetypes="sssccssszzzsscczsasaaasas" />
  </g>
</svg>
