<?xml version="1.0" encoding="UTF-8" standalone="no"?>
<svg
   width="45.72mm"
   height="128.5mm"
   viewBox="0 0 45.72 128.5"
   version="1.1"
   id="svg1"
   sodipodi:docname="metal.svg"
   inkscape:version="1.4.2 (f4327f4, 2025-05-13)"
   xmlns:inkscape="http://www.inkscape.org/namespaces/inkscape"
   xmlns:sodipodi="http://sodipodi.sourceforge.net/DTD/sodipodi-0.dtd"
   xmlns:xlink="http://www.w3.org/1999/xlink"
   xmlns="http://www.w3.org/2000/svg"
   xmlns:svg="http://www.w3.org/2000/svg">
  <defs
     id="defs1">
    <linearGradient
       inkscape:collect="always"
       xlink:href="#linearGradient238"
       id="linearGradient239-4"
       x1="649.83807"
       y1="-1044.1716"
       x2="649.83807"
       y2="-398.76425"
       gradientUnits="userSpaceOnUse"
       gradientTransform="matrix(0.16525741,0,0,0.07752293,-82.55958,156.37712)" />
    <linearGradient
       id="linearGradient238"
       inkscape:collect="always">
      <stop
         style="stop-color:#e3dedb;stop-opacity:0.32873562;"
         offset="0"
         id="stop238" />
      <stop
         style="stop-color:#917c6f;stop-opacity:0;"
         offset="1"
         id="stop239" />
    </linearGradient>
    <linearGradient
       inkscape:collect="always"
       xlink:href="#linearGradient4"
       id="linearGradient5-2"
       x1="876.5351"
       y1="-323.21573"
       x2="876.5351"
       y2="58.015488"
       gradientUnits="userSpaceOnUse"
       gradientTransform="matrix(0.16506883,0,0,0.19813638,-121.74422,64.040805)" />
    <linearGradient
       id="linearGradient4"
       inkscape:collect="always">
      <stop
         style="stop-color:#333333;stop-opacity:0.48275861;"
         offset="0"
         id="stop4" />
      <stop
         style="stop-color:#333333;stop-opacity:0;"
         offset="1"
         id="stop5" />
    </linearGradient>
    <linearGradient
       inkscape:collect="always"
       xlink:href="#linearGradient238"
       id="linearGradient240-5"
       gradientUnits="userSpaceOnUse"
       gradientTransform="matrix(0.16525742,0,0,0.07752293,-82.559584,5.3055669)"
       x1="649.83807"
       y1="-1044.1716"
       x2="649.83807"
       y2="-398.76425" />
  </defs>
  <sodipodi:namedview
     id="namedview1"
     pagecolor="#ffffff"
     bordercolor="#cccccc"
     borderopacity="1"
     inkscape:showpageshadow="0"
     inkscape:pageopacity="1"
     inkscape:pagecheckerboard="0"
     inkscape:deskcolor="#d1d1d1"
     inkscape:document-units="mm"
     inkscape:zoom="1.174946"
     inkscape:cx="-18.724266"
     inkscape:cy="287.24726"
     inkscape:window-width="1920"
     inkscape:window-height="1009"
     inkscape:window-x="-8"
     inkscape:window-y="-8"
     inkscape:window-maximized="1"
     inkscape:current-layer="svg1" />
  <rect
     style="fill:#535353;fill-opacity:1;stroke-width:0.157855"
     id="rect68-7"
     width="45.888885"
     height="128.49998"
     x="-3.5140576e-05"
     y="5.9605527e-06" />
  <rect
     style="fill:url(#linearGradient239-4);fill-opacity:1;stroke-width:0.0987973"
     id="rect238-5"
     width="45.941311"
     height="50.276958"
     x="-3.5140576e-05"
     y="75.535774" />
  <rect
     style="fill:url(#linearGradient5-2);fill-opacity:1;stroke-width:0.157855"
     id="rect4-2"
     width="45.888885"
     height="128.49998"
     x="-3.5140576e-05"
     y="5.9605527e-06" />
  <rect
     style="fill:url(#linearGradient240-5);fill-opacity:1;stroke-width:0.0987973"
     id="rect240-7"
     width="45.941311"
     height="50.276958"
     x="-3.5140576e-05"
     y="-75.535774"
     transform="scale(1,-1)" />
  <rect
     style="fill:#373737;fill-opacity:1;stroke-width:0.11258"
     id="rect5-6"
     width="0.74700499"
     height="128.49998"
     x="3.7350242"
     y="-1.4798829e-07" />
  <rect
     style="fill:#4a4a4a;fill-opacity:1;stroke-width:0.11258"
     id="rect6-1"
     width="0.74700499"
     height="128.49998"
     x="5.229084"
     y="-1.4798829e-07" />
  <rect
     style="fill:#3e3e3e;fill-opacity:1;stroke-width:0.11258"
     id="rect7-4"
     width="0.74700499"
     height="128.49998"
     x="4.4820676"
     y="-1.4798829e-07" />
  <rect
     style="fill:#5a5a5a;stroke-width:0.11258"
     id="rect8"
     width="0.74700499"
     height="128.49998"
     x="0.74703872"
     y="-1.4798829e-07" />
  <rect
     style="fill:#464646;fill-opacity:0.984314;stroke-width:0.11258"
     id="rect9-2"
     width="0.74700499"
     height="128.49998"
     x="6.7230635"
     y="-1.4798829e-07" />
  <rect
     style="fill:#373737;fill-opacity:1;stroke-width:0.11258"
     id="rect10-3"
     width="0.74700499"
     height="128.49998"
     x="8.9640589"
     y="-1.4798829e-07" />
  <rect
     style="fill:#4a4a4a;fill-opacity:1;stroke-width:0.11258"
     id="rect11"
     width="0.74700499"
     height="128.49998"
     x="-4.7130197e-06"
     y="-1.4798829e-07" />
  <rect
     style="fill:#3e3e3e;fill-opacity:1;stroke-width:0.11258"
     id="rect12-2"
     width="0.74700499"
     height="128.49998"
     x="10.458146"
     y="-1.4798829e-07" />
  <rect
     style="fill:#5a5a5a;stroke-width:0.11258"
     id="rect13-2"
     width="0.74700499"
     height="128.49998"
     x="9.7111034"
     y="-1.4798829e-07" />
  <rect
     style="fill:#464646;fill-opacity:0.984314;stroke-width:0.11258"
     id="rect14-1"
     width="0.74700499"
     height="128.49998"
     x="8.2170153"
     y="-1.4798829e-07" />
  <rect
     style="fill:#373737;fill-opacity:1;stroke-width:0.11258"
     id="rect15-6"
     width="0.74700499"
     height="128.49998"
     x="11.952072"
     y="-1.4798829e-07" />
  <rect
     style="fill:#4a4a4a;fill-opacity:1;stroke-width:0.11258"
     id="rect16-8"
     width="0.74700499"
     height="128.49998"
     x="13.446132"
     y="-1.4798829e-07" />
  <rect
     style="fill:#3e3e3e;fill-opacity:1;stroke-width:0.11258"
     id="rect17-5"
     width="0.74700499"
     height="128.49998"
     x="12.699115"
     y="-1.4798829e-07" />
  <rect
     style="fill:#5a5a5a;stroke-width:0.11258"
     id="rect18-7"
     width="0.74700499"
     height="128.49998"
     x="15.687154"
     y="-1.4798829e-07" />
  <rect
     style="fill:#464646;fill-opacity:0.984314;stroke-width:0.11258"
     id="rect19-6"
     width="0.74700499"
     height="128.49998"
     x="14.94011"
     y="-1.4798829e-07" />
  <rect
     style="fill:#373737;fill-opacity:1;stroke-width:0.11258"
     id="rect20-1"
     width="0.74700499"
     height="128.49998"
     x="17.18108"
     y="-1.4798829e-07" />
  <rect
     style="fill:#4a4a4a;fill-opacity:1;stroke-width:0.11258"
     id="rect21-8"
     width="0.74700499"
     height="128.49998"
     x="19.422209"
     y="-1.4798829e-07" />
  <rect
     style="fill:#3e3e3e;fill-opacity:1;stroke-width:0.11258"
     id="rect22-9"
     width="0.74700499"
     height="128.49998"
     x="18.675167"
     y="-1.4798829e-07" />
  <rect
     style="fill:#5a5a5a;stroke-width:0.11258"
     id="rect23-2"
     width="0.74700499"
     height="128.49998"
     x="17.928122"
     y="-1.4798829e-07" />
  <rect
     style="fill:#464646;fill-opacity:0.984314;stroke-width:0.11258"
     id="rect24"
     width="0.74700499"
     height="128.49998"
     x="2.241045"
     y="-1.4798829e-07" />
  <rect
     style="fill:#373737;fill-opacity:1;stroke-width:0.11258"
     id="rect25-7"
     width="0.74700499"
     height="128.49998"
     x="23.904228"
     y="-1.4798829e-07" />
  <rect
     style="fill:#4a4a4a;fill-opacity:1;stroke-width:0.11258"
     id="rect26-9"
     width="0.74700499"
     height="128.49998"
     x="25.398289"
     y="-1.4798829e-07" />
  <rect
     style="fill:#3e3e3e;fill-opacity:1;stroke-width:0.11258"
     id="rect27-5"
     width="0.74700499"
     height="128.49998"
     x="24.651274"
     y="-1.4798829e-07" />
  <rect
     style="fill:#5a5a5a;stroke-width:0.11258"
     id="rect28-4"
     width="0.74700499"
     height="128.49998"
     x="20.916243"
     y="-1.4798829e-07" />
  <rect
     style="fill:#464646;fill-opacity:0.984314;stroke-width:0.11258"
     id="rect29-3"
     width="0.74700499"
     height="128.49998"
     x="26.892296"
     y="-1.4798829e-07" />
  <rect
     style="fill:#373737;fill-opacity:1;stroke-width:0.11258"
     id="rect30-1"
     width="0.74700499"
     height="128.49998"
     x="29.133291"
     y="-1.4798829e-07" />
  <rect
     style="fill:#4a4a4a;fill-opacity:1;stroke-width:0.11258"
     id="rect31-2"
     width="0.74700499"
     height="128.49998"
     x="20.169201"
     y="-1.4798829e-07" />
  <rect
     style="fill:#3e3e3e;fill-opacity:1;stroke-width:0.11258"
     id="rect32-3"
     width="0.74700499"
     height="128.49998"
     x="30.62735"
     y="-1.4798829e-07" />
  <rect
     style="fill:#5a5a5a;stroke-width:0.11258"
     id="rect33-3"
     width="0.74700499"
     height="128.49998"
     x="29.880308"
     y="-1.4798829e-07" />
  <rect
     style="fill:#464646;fill-opacity:0.984314;stroke-width:0.11258"
     id="rect34-4"
     width="0.74700499"
     height="128.49998"
     x="28.386219"
     y="-1.4798829e-07" />
  <rect
     style="fill:#373737;fill-opacity:1;stroke-width:0.11258"
     id="rect35-1"
     width="0.74700499"
     height="128.49998"
     x="32.121304"
     y="-1.4798829e-07" />
  <rect
     style="fill:#4a4a4a;fill-opacity:1;stroke-width:0.11258"
     id="rect36-1"
     width="0.74700499"
     height="128.49998"
     x="33.615364"
     y="-1.4798829e-07" />
  <rect
     style="fill:#3e3e3e;fill-opacity:1;stroke-width:0.11258"
     id="rect37-3"
     width="0.74700499"
     height="128.49998"
     x="32.86832"
     y="-1.4798829e-07" />
  <rect
     style="fill:#5a5a5a;stroke-width:0.11258"
     id="rect38-8"
     width="0.74700499"
     height="128.49998"
     x="35.856358"
     y="-1.4798829e-07" />
  <rect
     style="fill:#464646;fill-opacity:0.984314;stroke-width:0.11258"
     id="rect39-7"
     width="0.74700499"
     height="128.49998"
     x="35.109341"
     y="-1.4798829e-07" />
  <rect
     style="fill:#373737;fill-opacity:1;stroke-width:0.11258"
     id="rect40-4"
     width="0.74700499"
     height="128.49998"
     x="37.350285"
     y="-1.4798829e-07" />
  <rect
     style="fill:#4a4a4a;fill-opacity:1;stroke-width:0.11258"
     id="rect41"
     width="0.74700499"
     height="128.49998"
     x="39.591415"
     y="-1.4798829e-07" />
  <rect
     style="fill:#3e3e3e;fill-opacity:1;stroke-width:0.11258"
     id="rect42-2"
     width="0.74700499"
     height="128.49998"
     x="38.844395"
     y="-1.4798829e-07" />
  <rect
     style="fill:#5a5a5a;stroke-width:0.11258"
     id="rect43-7"
     width="0.74700499"
     height="128.49998"
     x="38.097328"
     y="-1.4798829e-07" />
  <rect
     style="fill:#464646;fill-opacity:0.984314;stroke-width:0.11258"
     id="rect44-7"
     width="0.74700499"
     height="128.49998"
     x="22.41025"
     y="-1.4798829e-07" />
  <rect
     style="fill:#5a5a5a;stroke-width:0.11258"
     id="rect79"
     width="0.74700499"
     height="128.49998"
     x="-45.567604"
     y="-128.50002"
     transform="scale(-1)" />
  <rect
     style="fill:#373737;fill-opacity:1;stroke-width:0.11258"
     id="rect81"
     width="0.74700499"
     height="128.49998"
     x="-44.073647"
     y="-128.50002"
     transform="scale(-1)" />
  <rect
     style="fill:#4a4a4a;fill-opacity:1;stroke-width:0.11258"
     id="rect82"
     width="0.74700499"
     height="128.49998"
     x="-41.832542"
     y="-128.50002"
     transform="scale(-1)" />
  <rect
     style="fill:#3e3e3e;fill-opacity:1;stroke-width:0.11258"
     id="rect83"
     width="0.74700499"
     height="128.49998"
     x="-42.579563"
     y="-128.50002"
     transform="scale(-1)" />
  <rect
     style="fill:#5a5a5a;stroke-width:0.11258"
     id="rect84"
     width="0.74700499"
     height="128.49998"
     x="-43.326607"
     y="-128.50002"
     transform="scale(-1)" />
  <path
     id="path484-11"
     style="fill:#b3b3b3;fill-opacity:0.360078;stroke-width:0.463387"
     d="m 38.926535,0.30532652 c -9.55e-4,-2.273e-5 -0.0016,4.2833e-4 -0.0026,5.1927e-4 -0.116534,0.0114752 -0.169007,0.38576706 -0.17603,1.24934621 -0.0054,0.687117 -0.02235,2.0981472 -0.03687,3.135828 -0.01419,1.0377201 -0.0092,4.1774342 0.0109,6.977334 h -5.18e-4 c 0.02026,2.799901 0.06948,5.06796 0.110084,5.039965 0.04046,-0.028 0.117356,-3.729972 0.171356,-8.2266805 0.07396,-6.184053 0.05634,-8.17579271 -0.07322,-8.17579271 -9.55e-4,0 -0.0022,-4.9653e-4 -0.0031,-5.1927e-4 z M 6.4134149,0.30584579 c -0.024699,0 -0.00422,0.94437731 -0.023367,0.98608001 0.00492,-0.00854 0.00904,-0.016407 0.015059,-0.025963 C 6.4725512,1.1586162 6.5568555,0.89836226 6.5930798,0.6880232 6.6454618,0.38130742 6.6099516,0.30584679 6.4134149,0.30584579 Z m 4.4178881,0 c -0.19174,0.0201051 -0.218411,0.70128531 -0.226918,5.48133801 -0.0055,3.0149195 -0.03529,5.9179112 -0.06543,6.4508022 -0.08557,1.499264 -0.09965,4.87564 -0.06179,14.88986 0.02727,7.202503 0.05917,8.557454 0.144354,6.16988 0.06006,-1.682746 0.148455,-9.713762 0.195762,-17.847062 0.04764,-8.1332835 0.123108,-14.86853671 0.167722,-14.96671108 0.05342,-0.11689846 0.0038,-0.17810713 -0.144354,-0.17810713 -0.0031,0 -0.0063,-3.1914e-4 -0.0093,0 z m 2.285795,0 c -0.09135,0 -0.134786,2.24979611 -0.120989,6.19532431 h -0.0016 c 0.01145,3.2134507 0.02681,4.6510139 0.05868,4.6920589 l 5.18e-4,5.19e-4 5.2e-4,5.19e-4 h 5.19e-4 l 5.2e-4,-5.19e-4 c 0.01594,-0.02002 0.03648,-0.366615 0.06179,-0.995427 0.162905,-4.0007517 0.161806,-9.89247521 0,-9.89247521 z m 2.962913,0 c -0.06244,0.008228 -0.08543,0.14282872 -0.05089,0.30584577 0.08344,0.39328234 0.179146,0.39328234 0.179146,0 0,-0.16827566 -0.05503,-0.30584577 -0.122027,-0.30584577 -0.0021,0 -0.0042,-2.6544e-4 -0.0062,0 z m 29.102602,0.0124623 C 44.86819,0.51796978 44.732648,8.4881978 44.821726,21.518769 l 0.03427,5.048273 0.09918,-3.161791 C 45.11403,18.334726 45.292294,0.24858059 45.182613,0.31830809 Z M 32.454444,0.35673354 C 32.272263,0.48403405 31.963332,11.748472 32.000089,16.929525 l 0.02648,3.722076 0.108007,-4.334287 c 0.05936,-2.383891 0.148726,-5.022664 0.198878,-5.864034 0.185071,-3.1022253 0.27021,-10.2008664 0.120988,-10.09654646 z m -6.599831,0.0290787 c -3.4e-4,4.321e-5 -7e-4,4.4045e-4 -0.001,5.1927e-4 h -5.19e-4 -5.2e-4 l -5.18e-4,5.1926e-4 c -0.01832,0.007838 -0.03137,0.0695045 -0.03479,0.17395303 h -5.18e-4 c -0.003,0.16851784 0.02795,0.24921635 0.06802,0.18018419 0.04106,-0.0690723 0.04297,-0.20661834 0.0057,-0.30584578 -0.01294,-0.0345374 -0.02524,-0.0506692 -0.03583,-0.04933 z M 1.9903344,0.50835827 c -2.105e-4,1.0651e-4 -0.00135,9.3101e-4 -0.00156,0.001039 l -5.193e-4,5.1927e-4 -5.193e-4,5.1925e-4 c -0.017165,0.0209207 -0.029598,0.16785287 -0.029598,0.40710203 0,0.24209798 0.012095,0.38948708 0.029598,0.40762138 l 5.193e-4,5.192e-4 5.193e-4,5.193e-4 c 2.106e-4,1.055e-4 0.00135,4.498e-4 0.00156,5.192e-4 h 5.193e-4 5.193e-4 5.192e-4 5.193e-4 5.193e-4 L 1.99345,1.3261972 h 5.193e-4 c 2.223e-4,-1.869e-4 0.00134,-0.00136 0.00156,-0.00156 0.00675,-0.00784 0.014632,-0.032558 0.022328,-0.075293 0.032838,-0.182266 0.032838,-0.48077836 0,-0.66309861 -0.00765,-0.0427155 -0.015071,-0.0674956 -0.021809,-0.0752931 L 1.995529,0.51043323 c -2.22e-4,-1.8589e-4 -0.00134,-9.2297e-4 -0.00156,-0.001039 L 1.99345,0.50887754 H 1.9929308 L 1.9924115,0.50835827 H 1.9918922 1.991373 1.9908537 Z m 2.2141366,0.11735339 -5.192e-4,5.1926e-4 -5.193e-4,5.1927e-4 c -0.016562,0.0223073 -0.02804,0.23861125 -0.02804,0.59663291 0,0.3580246 0.010957,0.5743187 0.027521,0.596633 l 5.193e-4,5.192e-4 5.193e-4,5.193e-4 h 5.192e-4 v 5.192e-4 h 5.193e-4 5.193e-4 5.192e-4 5.192e-4 5.192e-4 v -5.192e-4 h 5.193e-4 l 5.193e-4,-5.193e-4 c 0.00664,-0.00884 0.014666,-0.046132 0.022328,-0.1126799 0.030004,-0.2664179 0.030004,-0.7020073 0,-0.96842518 -0.00756,-0.0665502 -0.015722,-0.10391084 -0.022328,-0.11268003 L 4.2075865,0.62623092 4.2070672,0.62571166 H 4.206548 4.2060288 4.2055096 4.2049903 Z M 21.214481,1.1724953 C 21.082843,2.2637147 20.951778,17.15845 21.02495,22.731248 c 0.02833,2.153528 0.08311,3.894335 0.120989,3.867988 0.03802,-0.02632 0.09406,-5.964479 0.124103,-13.196025 0.03031,-7.231556 0.0054,-12.73554468 -0.05556,-12.2307157 z M 6.3895288,1.2929644 c -0.050212,0.085823 -0.052905,0.1232994 -0.00312,0.1163148 0.00231,-0.00342 8.457e-4,-0.1114082 0.00312,-0.1163148 z m -0.00312,0.1163148 c -0.00512,0.00774 -0.00141,0.2476364 -0.00623,0.2580736 0.014641,-0.00392 0.032996,0.011662 0.053484,0.047253 0.042314,0.073624 0.037053,0.1613448 -0.011943,0.1952429 -0.018167,0.01253 -0.034341,0.01236 -0.047253,0.00156 -0.128651,0.3793019 -0.199137,0.5476937 -0.1786263,7.3688582 h 5.193e-4 c 0.015103,4.9360491 0.074006,8.9749381 0.1313734,8.9749381 0.1021957,0 0.3001339,-9.5324962 0.3001339,-14.4536798 0,-1.8735406 -0.042534,-2.469613 -0.1723952,-2.4140527 -0.02908,0.0124 -0.05204,0.019428 -0.069062,0.021809 z m -0.011943,0.5021272 c 0.00422,-0.012633 0.00119,-0.2341848 0.00571,-0.2440536 -0.01882,0.00502 -0.03185,0.0417 -0.035829,0.108526 -0.00412,0.067215 0.00845,0.1167069 0.030117,0.1355276 z M 23.423426,1.4274534 c -0.178228,1.9223976 -0.215773,7.9001394 -0.08049,12.7738646 0.0697,2.510104 0.151222,4.563801 0.180704,4.563801 0.03119,0 0.04331,-4.165032 0.03116,-9.2553403 C 23.54224,4.3686046 23.48369,0.77593856 23.423426,1.4274534 Z M 0.22899506,1.7146057 V 1.715125 H 0.2284758 C 0.2130214,1.738739 0.2025127,2.1168418 0.2025127,2.7531313 c 0,0.6362925 0.0105088,1.0143967 0.0259631,1.0380063 v 5.193e-4 h 5.1926e-4 v 5.193e-4 h 5.1926e-4 5.1927e-4 5.1926e-4 l 5.1926e-4,-5.193e-4 5.1927e-4,-5.193e-4 c 0.00622,-0.00975 0.0129782,-0.073372 0.0202512,-0.1962813 0.0273817,-0.4627445 0.0273817,-1.2201803 0,-1.6829307 C 0.24457767,1.7890031 0.23781331,1.7253529 0.23159138,1.7156442 L 0.23107211,1.715125 v -5.193e-4 h -5.1926e-4 -5.1926e-4 -5.1927e-4 z m 41.85050294,0.3582914 -5.18e-4,5.192e-4 -5.2e-4,5.193e-4 -5.19e-4,5.193e-4 c -0.01644,0.020559 -0.02856,0.1721922 -0.02856,0.4237184 h 0.0016 c -4.07e-4,0.2700645 0.01189,0.4362405 0.03012,0.4548742 l 5.18e-4,5.193e-4 5.2e-4,5.192e-4 5.19e-4,5.193e-4 h 5.2e-4 5.19e-4 v 5.193e-4 h 5.19e-4 5.19e-4 5.2e-4 5.19e-4 l 5.19e-4,-5.193e-4 5.19e-4,-5.193e-4 5.2e-4,-5.192e-4 c 0.0064,-0.00623 0.01396,-0.029602 0.02129,-0.07062 0.03123,-0.1810582 0.03168,-0.5023792 0,-0.7139863 -0.0084,-0.0562 -0.01649,-0.086909 -0.02389,-0.094506 l -5.19e-4,-5.193e-4 -5.19e-4,-5.193e-4 c -2.14e-4,-1.035e-4 -0.0013,-4.559e-4 -0.0016,-5.192e-4 h -5.2e-4 -5.18e-4 -5.2e-4 -5.19e-4 z m -1.04216,0.6584251 c -3.29e-4,-4e-6 -7.12e-4,4.911e-4 -10e-4,5.193e-4 h -5.19e-4 -5.2e-4 c -3.07e-4,5.63e-5 -0.0012,4.329e-4 -0.0016,5.193e-4 -0.01846,0.00703 -0.0316,0.068691 -0.03531,0.173953 h -5.2e-4 c -0.0031,0.1684797 0.02795,0.2492545 0.06802,0.1801842 0.04106,-0.069032 0.04298,-0.2066405 0.0057,-0.3058458 -0.01235,-0.033058 -0.02407,-0.049205 -0.03427,-0.04933 z M 4.1639685,3.3653422 C 3.9838759,2.4997232 3.873073,6.5116345 3.7802333,17.286258 L 3.698709,26.770593 3.890317,20.243979 C 3.9956769,16.654119 4.0940117,11.85834 4.1094459,9.5866296 4.1247295,7.314896 4.169584,5.1117032 4.2091443,4.69102 4.2485741,4.2703379 4.228138,3.6738606 4.1639685,3.3653422 Z m 14.1083705,0.254958 c -0.06094,1.1779016 -0.15839,3.7019624 -0.217053,5.6090766 -0.05863,1.9071132 -0.131355,3.8574802 -0.16149,4.3342862 -0.06725,1.065396 -0.09338,6.221909 -0.07841,15.340581 h 5.2e-4 c 0.0061,3.809559 0.03588,6.907239 0.06647,6.883867 0.03049,-0.02337 0.09774,-2.63566 0.149028,-5.804839 0.05123,-3.169177 0.125006,-6.863345 0.164606,-8.209544 0.03932,-1.346201 0.09761,-6.463343 0.129298,-11.371336 0.03229,-4.9844837 0.009,-7.9783979 -0.05297,-6.7820918 z m 22.772269,0.2092629 -5.2e-4,5.192e-4 h -5.18e-4 -5.2e-4 l -5.19e-4,5.193e-4 h -5.2e-4 c -2.76e-4,1.989e-4 -0.0013,7.935e-4 -0.0016,0.00104 -0.0168,0.018034 -0.02856,0.124533 -0.02856,0.2985761 h 0.0021 c -7.92e-4,0.1898498 0.01232,0.3091321 0.03115,0.3281741 3.08e-4,2.552e-4 7.29e-4,8.357e-4 10e-4,0.00104 l 5.2e-4,5.193e-4 h 5.19e-4 c 1.14e-4,3.22e-5 0.0012,-1.172e-4 0.0016,0 v 5.192e-4 h 5.19e-4 5.2e-4 5.19e-4 5.19e-4 c 2.36e-4,-7.43e-5 0.0013,-4.177e-4 0.0016,-5.192e-4 h 5.19e-4 c 0.0067,-0.00442 0.01463,-0.02034 0.02233,-0.047772 0.03279,-0.1254205 0.03396,-0.3548741 0,-0.5099161 -0.0093,-0.042384 -0.01834,-0.065643 -0.02648,-0.071139 l -5.2e-4,-5.193e-4 c -2.29e-4,-9.85e-5 -0.0014,-4.49e-4 -0.0016,-5.193e-4 h -5.2e-4 -5.18e-4 l -5.2e-4,-5.192e-4 z m 1.18288,0.078928 -5.18e-4,5.192e-4 h -5.2e-4 l -5.19e-4,5.193e-4 c -0.01676,0.017575 -0.02908,0.170177 -0.02908,0.4247569 h 0.0016 c -4.84e-4,0.2700644 0.01188,0.4362426 0.03012,0.4548743 l 5.2e-4,5.192e-4 5.18e-4,5.193e-4 h 5.2e-4 l 5.19e-4,5.192e-4 h 5.2e-4 5.18e-4 5.2e-4 5.19e-4 5.2e-4 l 5.18e-4,-5.192e-4 h 5.2e-4 l 5.19e-4,-5.193e-4 c 0.0064,-0.00623 0.01396,-0.029602 0.02129,-0.07062 0.03123,-0.1810371 0.03168,-0.5023742 0,-0.7139864 -0.0084,-0.05605 -0.01704,-0.087817 -0.02441,-0.095544 h -5.18e-4 l -5.2e-4,-5.193e-4 h -5.19e-4 l -5.2e-4,-5.192e-4 h -5.18e-4 -5.2e-4 -5.19e-4 z M 29.553841,4.3555762 v 5.193e-4 h -5.18e-4 -5.2e-4 l -5.19e-4,5.193e-4 -5.2e-4,5.192e-4 c -0.0163,0.021081 -0.02804,0.1961147 -0.02804,0.4870686 h 10e-4 c -3.18e-4,0.3085617 0.01131,0.4974877 0.02908,0.517705 l 5.2e-4,5.193e-4 5.19e-4,5.192e-4 5.2e-4,5.193e-4 h 5.18e-4 5.2e-4 v 5.193e-4 h 5.19e-4 5.2e-4 l 5.19e-4,-5.193e-4 h 5.19e-4 5.19e-4 l 5.2e-4,-5.193e-4 c 0.0065,-0.00643 0.01437,-0.033607 0.02181,-0.082563 0.03064,-0.2088398 0.03123,-0.5764149 0,-0.8162811 -0.0081,-0.063727 -0.01619,-0.098202 -0.02337,-0.1064489 l -5.19e-4,-5.193e-4 c -1.05e-4,-7.53e-5 -0.0012,-8.151e-4 -0.0016,-0.00104 L 29.5554,4.3555762 h -5.2e-4 -5.19e-4 z M 0.07269696,5.3645039 0.0721777,5.3650232 h -5.1926e-4 l -5.1927e-4,5.192e-4 h -5.1926e-4 -5.1926e-4 v 5.193e-4 H 0.06958138 C 0.05184705,5.3837568 0.03946414,5.508387 0.03946414,5.7108521 c 0,0.2025014 0.01187169,0.3265902 0.02959798,0.3442713 l 5.1926e-4,5.192e-4 5.1927e-4,5.193e-4 5.1926e-4,5.193e-4 h 5.1926e-4 5.1927e-4 l 5.1926e-4,5.192e-4 h 5.1926e-4 c 2.2227e-4,-3e-6 0.0013367,3.32e-5 0.0015578,0 h 5.1926e-4 5.1926e-4 l 5.1927e-4,-5.192e-4 h 5.1926e-4 l 5.1926e-4,-5.193e-4 c 0.0071969,-0.00589 0.01565571,-0.027557 0.02388609,-0.064908 0.0339534,-0.1542703 0.0339534,-0.4065336 0,-0.5608038 C 0.09238697,5.3918847 0.0841743,5.3711059 0.07685106,5.3660617 L 0.0763318,5.3655424 C 0.07610571,5.3654469 0.0749951,5.3650875 0.074774,5.3650232 L 0.07425475,5.3645039 H 0.07373549 0.07321622 Z M 29.564227,5.6599644 29.465048,8.9744188 c -0.05424,1.8229672 -0.09888,4.6683452 -0.09295,6.3230632 0.0055,2.816118 0.01235,2.894483 0.109045,1.223902 0.05705,-0.981592 0.0994,-3.826973 0.09347,-6.323063 z m 11.453899,0.9014402 -5.2e-4,5.192e-4 c -0.01944,0.00372 -0.03225,0.041229 -0.03635,0.1095645 -0.0064,0.1076279 0.02839,0.1673487 0.07737,0.1334506 0.04909,-0.033923 0.05371,-0.1216186 0.01142,-0.1952428 -0.01918,-0.033039 -0.03634,-0.048827 -0.05037,-0.047772 h -5.18e-4 -5.2e-4 z M 40.983335,7.03653 c -0.132732,0.1618166 -0.31594,13.800306 -0.202512,15.076795 0.0337,0.379509 0.08643,0.679253 0.120988,0.70464 2.72e-4,1.67e-4 8.02e-4,3.86e-4 10e-4,5.19e-4 2.85e-4,10e-5 0.0016,8.43e-4 0.0021,10e-4 h 5.18e-4 5.2e-4 5.19e-4 l 5.2e-4,-5.2e-4 5.18e-4,-5.19e-4 h 5.2e-4 5.19e-4 l 5.2e-4,-5.19e-4 c 0.03409,-0.0236 0.09298,-3.618197 0.130853,-7.988339 0.03799,-4.397569 0.01281,-7.8777433 -0.0566,-7.793096 z M 27.227026,7.8014042 c -0.117887,4.2750758 -0.144833,14.6977998 -0.0566,21.8760218 0.0176,1.430341 0.05666,4.803678 0.08724,7.496078 l 0.05556,4.89509 0.105929,-5.813147 c 0.06,-3.197222 0.0823,-6.0426 0.054,-6.323062 C 27.445031,29.651933 27.407896,23.4794 27.390593,16.215538 27.36293,4.446099 27.344893,3.5298614 27.227026,7.8014042 Z m -11.24931,2.7489778 c -6.69e-4,1.5e-5 -0.0014,4.18e-4 -0.0021,5.18e-4 -0.02316,0.0036 -0.03894,0.06093 -0.03894,0.157337 0,0.140244 0.0336,0.197337 0.07425,0.12722 0.04061,-0.07011 0.04061,-0.184841 0,-0.254958 -0.01198,-0.02055 -0.02319,-0.03035 -0.03323,-0.03012 z m -0.03842,0.667771 c -0.355022,0.395515 -0.483828,6.394016 -0.328174,15.297482 0.03028,1.731726 0.05341,2.483633 0.09087,2.518944 l 5.2e-4,5.19e-4 h 5.19e-4 5.2e-4 v 5.2e-4 h 5.18e-4 c 2.26e-4,9e-6 0.0013,4e-5 0.0016,0 h 5.18e-4 c 2.29e-4,-1.4e-4 0.0013,-8.84e-4 0.0016,-0.001 0.01802,-0.01857 0.03986,-0.187486 0.06647,-0.479279 0.172532,-1.892314 0.321201,-17.510991 0.165125,-17.337147 z m -0.845879,0.249766 c -6.68e-4,-9e-6 -0.0014,4.42e-4 -0.0021,5.19e-4 h -5.19e-4 -5.2e-4 c -3.53e-4,9.7e-5 -6.87e-4,4.29e-4 -10e-4,5.2e-4 -0.0223,0.0058 -0.03687,0.06312 -0.03687,0.157336 0,0.140202 0.03361,0.197326 0.07425,0.127219 0.04067,-0.07012 0.04067,-0.184841 0,-0.254958 -0.01179,-0.02022 -0.02322,-0.0305 -0.03323,-0.03064 z m 18.861182,3.880451 -0.0431,3.977553 c -0.0235,2.187571 -0.06458,4.115121 -0.09139,4.283398 -0.09374,0.590535 -0.07423,37.847833 0.02077,38.883436 0.05285,0.575961 0.111477,1.034875 0.131373,1.019833 0.08142,-0.063 0.143583,-42.304531 0.06647,-45.104724 z m -19.034616,0.888459 c -0.03999,0.163072 -0.120307,1.942259 -0.252881,5.383716 -0.05944,1.542522 -0.133409,2.988312 -0.164087,3.212679 -0.05842,0.427909 -0.361944,16.481648 -0.331809,17.541216 0.04642,1.624939 0.100984,0.471751 0.557169,-11.778957 0.07622,-2.047345 0.166908,-6.567978 0.201474,-10.045658 0.02992,-3.022908 0.03011,-4.47607 -0.0099,-4.312996 z m -4.250685,5.021789 c 0.01005,-1.63e-4 0.02131,0.01013 0.03323,0.03064 0.04062,0.07012 0.04062,0.184841 0,0.254958 -0.04094,0.07011 -0.07477,0.01249 -0.07477,-0.127738 0,-0.09639 0.0163,-0.153755 0.03946,-0.157337 6.58e-4,-1.01e-4 0.0014,-5.09e-4 0.0021,-5.2e-4 z m 21.247194,1.131994 v 5.18e-4 h -5.19e-4 l -5.19e-4,5.2e-4 c -0.01498,0.02476 -0.02544,0.429651 -0.02544,1.115896 0,0.702017 0.01094,1.122238 0.02648,1.149128 l 5.2e-4,5.2e-4 v 5.19e-4 h 5.19e-4 5.19e-4 5.19e-4 l 5.2e-4,-5.19e-4 v -5.2e-4 c 0.006,-0.0098 0.01282,-0.07515 0.01973,-0.200955 0.0268,-0.487967 0.0268,-1.31391 0,-1.835594 -0.0073,-0.142648 -0.01397,-0.216671 -0.02025,-0.227956 h -5.19e-4 v -5.19e-4 l -5.19e-4,-5.2e-4 h -5.19e-4 v -5.18e-4 z M 6.1896126,22.844448 C 5.8907777,33.343797 5.803363,41.32729 5.9850231,41.530638 c 0.026487,0.02964 0.034092,0.05014 0.025963,0.05868 -0.010149,0.009 -0.040297,0.004 -0.087755,-0.01662 -0.1163699,-0.04894 -0.1480241,0.640819 -0.1168341,2.406264 0.024196,1.361259 0.065787,4.425203 0.09139,6.809093 l 0.046734,4.334287 0.1022947,-4.793316 c 0.05619,-2.636294 0.1368555,-10.782061 0.1786265,-18.10202 0.042233,-7.391172 0.02631,-11.563096 -0.03583,-9.382558 z m -5.68800457,0.998023 c -3.4086e-4,4.3e-5 -7.0028e-4,4.4e-4 -0.001039,5.18e-4 H 0.50004976 0.4995305 l -5.1926e-4,5.2e-4 c -0.0183694,0.0078 -0.0318804,0.06952 -0.0353099,0.173953 -0.003045,0.16829 0.0279104,0.249226 0.0680234,0.180184 0.0406355,-0.06905 0.0424901,-0.206619 0.005193,-0.305846 -0.0129467,-0.03455 -0.0247433,-0.05068 -0.0353099,-0.04933 z m 7.82061687,0.990753 -0.076332,4.640132 C 8.2037806,32.025524 8.153328,37.919908 8.1332133,42.57176 h 0.00104 c -0.020087,4.651852 -0.00854,8.437921 0.025444,8.413614 0.033793,-0.02432 0.1006288,-2.276923 0.1485091,-5.005693 0.048031,-2.728769 0.1250507,-5.030054 0.171876,-5.114219 0.046725,-0.08421 0.019365,-0.181558 -0.061273,-0.216014 -0.09776,-0.0411 -0.099282,-0.17614 -0.00571,-0.392561 0.091279,-0.210644 0.1004998,-3.060371 0.025963,-7.876698 z m 21.4393221,2.141439 c -0.150486,0.503683 -0.278453,13.304945 -0.157856,15.756511 l 0.08827,1.785225 0.07633,-2.702763 c 0.128142,-4.539193 0.123303,-15.275127 -0.0068,-14.838973 z m 2.030836,1.001139 c -0.0238,-1.111526 -0.04355,-0.230988 -0.04362,1.956583 0,2.187576 0.01909,3.09702 0.0431,2.02097 0.02421,-1.07605 0.02466,-2.866027 5.18e-4,-3.977553 z m -11.452859,2.21154 c -0.06148,-2.434668 -0.103257,-1.182905 -0.192647,5.761221 -0.07771,6.034063 -0.06578,8.883261 0.03687,8.906915 0.08306,0.01919 0.148509,0.180147 0.148509,0.357771 -0.0017,0.235755 -0.03835,0.282952 -0.137085,0.174992 -0.09009,-0.09837 -0.116316,0.004 -0.07893,0.305846 0.03101,0.249631 0.07419,3.184492 0.0971,6.521941 l 0.04154,6.068105 0.07841,-4.232511 c 0.101991,-5.549753 0.105833,-19.917643 0.0062,-23.86428 z m 16.563964,1.03593 c -0.01995,0.02749 -0.04056,0.671788 -0.07114,1.768609 -0.05972,2.192877 -0.06017,23.615426 0,24.15247 0.189482,0.546529 0.332222,-14.05297 0.200436,-20.93356 -0.06622,-3.458674 -0.0971,-4.934355 -0.127219,-4.986481 l -5.2e-4,-5.19e-4 -5.19e-4,-5.19e-4 h -5.2e-4 z m -0.07114,25.921079 c -0.0014,-0.004 -2.68e-4,0.156781 -0.0016,0.162529 h 0.0016 c -4.11e-4,-0.002 4.05e-4,-0.158912 0,-0.162529 z m 5.844822,-25.455301 -5.19e-4,5.19e-4 -5.19e-4,5.2e-4 c -0.01477,0.03077 -0.02544,0.523577 -0.02544,1.352679 0,0.829104 0.01015,1.321391 0.02492,1.35216 l 5.19e-4,5.2e-4 v 5.19e-4 h 5.19e-4 v 5.2e-4 h 5.19e-4 5.2e-4 l 5.19e-4,-5.2e-4 5.19e-4,-5.19e-4 c 0.0059,-0.01265 0.01276,-0.09583 0.01973,-0.255997 0.02615,-0.602987 0.02615,-1.58986 0,-2.192847 -0.007,-0.160167 -0.01378,-0.242826 -0.01973,-0.255477 v -5.19e-4 l -5.19e-4,-5.19e-4 v -5.2e-4 h -5.19e-4 v -5.19e-4 z m 3.093249,3.92355 v 5.19e-4 h -5.2e-4 c -0.01526,0.02504 -0.02596,0.426504 -0.02596,1.101356 0,0.674858 0.01017,1.075275 0.02545,1.100318 l 5.18e-4,5.2e-4 v 5.19e-4 h 5.2e-4 l 5.19e-4,5.19e-4 h 5.2e-4 v -5.19e-4 h 5.19e-4 v -5.19e-4 h 5.19e-4 c 0.0061,-0.0103 0.013,-0.07838 0.02025,-0.208744 0.0268,-0.490806 0.0268,-1.293904 0,-1.784706 -0.0071,-0.13037 -0.01359,-0.197926 -0.01973,-0.208225 h -5.19e-4 v -5.19e-4 l -5.19e-4,-5.19e-4 h -5.19e-4 -5.2e-4 z M 8.3004159,35.62714 c 0.013805,-1.19e-4 0.0303,0.01611 0.048811,0.04829 h 5.193e-4 c 0.042334,0.07361 0.037063,0.161339 -0.011943,0.195242 -0.049066,0.03389 -0.084002,-0.02593 -0.07737,-0.13345 0.00412,-0.06868 0.017702,-0.106243 0.037387,-0.109564 8.974e-4,-1.51e-4 0.00168,-5.12e-4 0.0026,-5.2e-4 z m 32.4637901,2.784287 v 5.2e-4 c -0.01449,0.02522 -0.02492,0.634339 -0.02492,1.667872 0,1.033533 0.0099,1.64261 0.0244,1.667872 h 5.19e-4 v 5.19e-4 h 5.19e-4 5.2e-4 v -5.19e-4 c 0.0058,-0.01085 0.01292,-0.113522 0.01973,-0.31675 0.02498,-0.743216 0.02498,-1.959028 0,-2.702244 -0.0068,-0.203218 -0.01337,-0.305409 -0.01921,-0.316231 l -5.19e-4,-5.19e-4 v -5.2e-4 h -5.2e-4 z m 4.861858,1.217672 -5.2e-4,5.18e-4 c -0.0151,0.02653 -0.02544,0.450775 -0.02544,1.164188 0,0.713423 0.0099,1.136681 0.02492,1.163149 l 5.19e-4,5.19e-4 v 5.2e-4 h 5.2e-4 v 5.18e-4 h 5.19e-4 5.19e-4 l 5.19e-4,-5.18e-4 5.2e-4,-5.2e-4 c 0.0061,-0.01085 0.01314,-0.08239 0.02025,-0.220167 0.0268,-0.518847 0.0268,-1.368145 0,-1.887002 -0.0071,-0.137813 -0.01417,-0.208765 -0.02025,-0.219648 v -5.19e-4 l -5.2e-4,-5.2e-4 v -5.18e-4 h -5.19e-4 -5.19e-4 z m -32.411345,2.235426 -0.193685,2.039664 C 12.7646,46.603616 12.5986,54.874744 12.757249,57.06023 c 0.04432,0.610417 0.07363,0.982601 0.09762,1.005813 h 5.19e-4 v 5.18e-4 h 5.19e-4 v 5.2e-4 h 5.2e-4 c 1.25e-4,10e-6 7.44e-4,0 10e-4,0 h 5.19e-4 l 5.2e-4,-5.2e-4 c 0.03877,-0.03617 0.0656,-1.053119 0.123065,-3.555911 0.0541,-2.355856 0.128345,-6.164748 0.165645,-8.464503 z m 14.114601,0.4367 c -4.97e-4,-6e-6 -7.37e-4,4.79e-4 -10e-4,5.2e-4 -2.98e-4,7.8e-5 -0.0013,4.13e-4 -0.0016,5.18e-4 -0.01816,0.0083 -0.03171,0.06957 -0.03583,0.173953 h -5.19e-4 c -0.003,0.16828 0.02795,0.249746 0.06802,0.180704 0.04112,-0.06903 0.04358,-0.206619 0.0062,-0.305846 -0.01068,-0.02854 -0.02154,-0.04489 -0.03064,-0.04881 -2.41e-4,-8.2e-5 -0.0013,-4.59e-4 -0.0016,-5.18e-4 -5.46e-4,-8.3e-5 -0.0011,3e-5 -0.0016,0 -3.2e-4,-1.5e-5 -0.0011,-5.14e-4 -0.0016,-5.2e-4 z m -7.077552,0.578458 c 0.01005,-4.72e-4 0.02133,0.0099 0.03323,0.03012 0.04072,0.07014 0.04072,0.184841 0,0.254958 -0.04098,0.07014 -0.07426,0.01297 -0.07426,-0.127219 0,-0.09636 0.01578,-0.15376 0.03894,-0.157337 6.58e-4,-1.26e-4 0.0014,-4.87e-4 0.0021,-5.2e-4 z m 25.203977,1.024506 c -0.154953,1.633409 -0.371834,9.657326 -0.451758,16.725454 -0.05081,4.487322 -0.106989,8.342439 -0.126181,8.566798 -0.01873,0.22437 -0.06741,3.712434 -0.107488,7.751036 h 5.2e-4 c -0.04014,4.038602 -0.05263,6.654515 -0.027,5.813147 0.02542,-0.841378 0.15298,-6.256996 0.283517,-12.034434 0.130636,-5.777439 0.267019,-10.756986 0.302731,-11.065491 0.03582,-0.308504 0.08938,-4.094553 0.11943,-8.413614 0.03007,-4.319052 0.03303,-7.623356 0.0062,-7.342896 z m -15.78403,0.799665 c -9.22e-4,9e-6 -0.0017,3.68e-4 -0.0026,5.19e-4 -0.01964,0.003 -0.03275,0.0404 -0.03687,0.109046 -0.0063,0.107507 0.02839,0.167872 0.07737,0.133969 0.04902,-0.03386 0.05378,-0.121619 0.01142,-0.195243 -0.01872,-0.03222 -0.03551,-0.04842 -0.04933,-0.04829 z M 2.4862304,45.99474 C 2.271036,49.435103 2.0880427,56.119866 2.1398822,58.640866 c 0.025995,1.262063 0.064962,5.484192 0.086717,9.382559 l 0.039464,7.087937 0.09866,-5.455893 C 2.5520039,59.288889 2.6322982,43.659926 2.4862304,45.99474 Z m 20.2055536,0 c -0.06224,1.879071 -0.117019,4.265538 -0.122545,5.303231 -0.0058,1.037703 -0.01624,1.95553 -0.02337,2.039665 -0.09028,1.086246 -0.101388,3.09313 -0.02493,3.128038 h 5.2e-4 5.19e-4 5.2e-4 5.19e-4 5.19e-4 v -5.19e-4 h 5.19e-4 l 5.2e-4,-5.2e-4 h 5.19e-4 l 5.19e-4,-5.18e-4 v -5.2e-4 h 5.19e-4 l 5.2e-4,-5.19e-4 5.19e-4,-5.2e-4 c 0.0028,-0.0026 0.0061,-0.0079 0.0088,-0.01454 0.08002,-0.203147 0.117234,0.08792 0.110602,0.86665 l -0.0099,1.173014 -0.09243,-0.867168 c -0.03508,-0.328219 -0.05736,-0.516349 -0.07322,-0.53536 l -5.19e-4,-5.2e-4 -5.19e-4,-5.19e-4 -5.19e-4,-5.19e-4 h -5.2e-4 l -5.19e-4,-5.19e-4 -5.2e-4,5.19e-4 h -5.18e-4 -5.2e-4 l -5.19e-4,5.19e-4 v 5.19e-4 c -0.01949,0.02763 -0.02935,0.369491 -0.04466,1.097203 -0.01651,0.785278 -0.05656,5.259707 -0.08827,9.943363 h 5.19e-4 c -0.04335,6.376863 -0.0271,7.606225 0.06439,4.89509 0.255517,-7.574475 0.291042,-9.621907 0.347906,-19.886726 0.03646,-6.58137 0.01594,-9.26832 -0.05452,-7.138825 z m 19.84882,5.762259 -0.101776,4.487469 c -0.171101,7.557473 -0.219304,14.922174 -0.154221,23.405251 l 0.06179,8.10777 0.106968,-5.150049 c 0.146647,-7.082377 0.200782,-16.544328 0.138643,-24.323307 z m -12.073898,0.663099 c -0.042,0.02803 -0.123773,2.070331 -0.181742,4.538356 -0.05795,2.468035 -0.12651,4.739779 -0.152144,5.048273 -0.02556,0.308505 -0.08213,3.268619 -0.125661,6.578022 -0.04544,3.437369 -0.02536,5.842118 0.04673,5.609076 0.06948,-0.224359 0.162629,-2.932173 0.207706,-6.017217 0.04486,-3.085044 0.126577,-7.903643 0.181742,-10.708237 0.05517,-2.804575 0.06572,-5.076328 0.02337,-5.048273 z m -22.4331913,0.644405 -5.191e-4,5.19e-4 -5.193e-4,5.19e-4 -5.193e-4,5.2e-4 -5.192e-4,5.19e-4 h -5.193e-4 v 5.2e-4 h -5.192e-4 c -0.016449,0.0205 -0.02804,0.172187 -0.02804,0.423718 h 0.00104 c -3.939e-4,0.269958 0.01189,0.436204 0.030117,0.454874 2.091e-4,1.71e-4 0.00136,4.19e-4 0.00156,5.2e-4 l 5.193e-4,5.18e-4 h 5.193e-4 5.192e-4 5.193e-4 5.193e-4 5.192e-4 5.193e-4 c 2.201e-4,-1.4e-4 0.00136,-3.78e-4 0.00156,-5.18e-4 l 5.192e-4,-5.2e-4 c 0.00623,-0.007 0.013697,-0.03093 0.020771,-0.07062 0.03121,-0.181051 0.031783,-0.502388 0,-0.713986 -0.00844,-0.05607 -0.017529,-0.08729 -0.024925,-0.09502 l -5.192e-4,-5.2e-4 -5.193e-4,-5.19e-4 h -5.193e-4 l -5.192e-4,-5.19e-4 H 8.034034 Z m 2.0355103,0.716064 c -9.16e-4,8e-6 -0.0017,3.67e-4 -0.0026,5.18e-4 -0.01958,0.003 -0.03315,0.0404 -0.03739,0.109046 -0.0063,0.107507 0.02836,0.167873 0.07737,0.133969 0.04889,-0.03386 0.05374,-0.121628 0.01142,-0.195242 -0.01867,-0.03222 -0.03507,-0.04842 -0.04881,-0.04829 z m -2.1731148,3.325877 -5.193e-4,5.2e-4 v 5.19e-4 c -0.014178,0.0416 -0.024466,0.807664 -0.024405,2.094706 0,1.272583 0.00945,2.021099 0.023367,2.058358 l 5.193e-4,5.2e-4 v 5.18e-4 l 5.192e-4,5.2e-4 h 5.193e-4 l 5.193e-4,-5.2e-4 c 0.00583,-0.01135 0.01235,-0.143413 0.019213,-0.408659 0.024387,-0.943098 0.024387,-2.457934 0,-3.365862 -0.00653,-0.241171 -0.012567,-0.363658 -0.018174,-0.379062 l -5.193e-4,-5.19e-4 v -5.19e-4 l -5.192e-4,-5.2e-4 z m 3.8196978,1.585829 -0.09035,2.651356 c -0.08904,2.621925 -0.08659,4.113441 0.01038,7.189713 0.01697,0.537807 0.02996,0.849881 0.04673,0.877554 h 5.19e-4 v 5.19e-4 h 5.19e-4 5.19e-4 v 5.19e-4 l 5.2e-4,5.2e-4 h 5.19e-4 5.19e-4 5.19e-4 l 5.2e-4,-5.2e-4 c 0.02707,-0.03045 0.06404,-0.760964 0.137604,-2.408341 0.0805,-1.805145 0.0869,-4.20163 0.01506,-5.710852 z m 3.533583,0.152663 c -0.145951,0.356365 -0.383236,7.973904 -0.436181,14.023211 -0.05552,6.326008 -0.0089,6.265082 0.273132,-0.357252 0.113075,-2.650704 0.246751,-13.870222 0.163049,-13.665959 z m 10.828706,6.690701 c -0.133466,-0.227886 -0.133861,15.062849 0,20.53944 l 0.07789,3.212679 0.07893,-4.997385 C 26.338055,77.732427 26.238217,65.80842 26.0779,65.535637 Z m 8.453078,1.299196 c -0.01948,0.004 -0.03277,0.0412 -0.03687,0.109564 -0.0064,0.107498 0.02838,0.167873 0.07737,0.13397 0.04915,-0.03386 0.0543,-0.122148 0.01194,-0.195762 -0.0192,-0.03306 -0.03633,-0.04888 -0.05037,-0.04777 h -5.19e-4 -5.2e-4 -5.19e-4 z m -0.01506,1.738492 -5.19e-4,5.19e-4 h -5.19e-4 v 5.19e-4 c -0.0091,0.01427 -0.02172,0.134108 -0.03583,0.367119 -0.05941,0.981603 -0.115583,3.065929 -0.125661,4.631824 -0.0099,1.565884 0.0068,2.82791 0.03635,2.804538 0.02978,-0.02341 0.08611,-2.107708 0.125661,-4.631823 0.03089,-1.983494 0.03013,-3.14785 0.0016,-3.172177 h -5.2e-4 z m 4.76164,1.893751 -5.2e-4,5.19e-4 v 5.2e-4 c -0.0162,0.01598 -0.04238,0.160549 -0.08308,0.411256 -0.05905,0.364594 -0.107487,0.983916 -0.107487,1.376565 1.9e-4,0.52782 0.02945,0.634349 0.11268,0.408141 0.06178,-0.16827 0.107488,-0.788131 0.107488,-1.377085 -0.0025,-0.537376 -0.0061,-0.793308 -0.02441,-0.818359 l -5.19e-4,-5.18e-4 -5.2e-4,-5.2e-4 -5.18e-4,-5.19e-4 h -5.2e-4 -5.19e-4 -5.2e-4 -5.18e-4 -5.2e-4 z M 8.4987743,71.389287 C 8.3778233,71.476207 8.2598558,75.904306 8.1591764,84.137189 8.1061814,88.484295 8.0956134,92.018055 8.1363284,91.99 8.1768334,91.96197 8.2532529,90.608048 8.3061273,88.981391 8.437413,84.938699 8.5864548,71.326204 8.4987743,71.389287 Z m 19.8415497,0.748777 c -0.01946,0.004 -0.03225,0.0412 -0.03635,0.109564 -0.0064,0.107507 0.02831,0.167873 0.07737,0.13397 0.04902,-0.03386 0.0543,-0.122148 0.01194,-0.195762 -0.01922,-0.03306 -0.03685,-0.04888 -0.05089,-0.04777 h -5.18e-4 -5.2e-4 -5.19e-4 z m 10.856228,1.188592 c -0.09003,-0.09807 -0.150664,1.838845 -0.170319,5.405526 -0.03363,6.150212 0.03185,20.41939 0.09658,21.059741 0.02275,0.224367 0.05998,2.450427 0.08412,4.946497 l 0.04362,4.53835 0.125143,-7.08793 c 0.06864,-3.898367 0.09058,-9.795741 0.04881,-13.105154 -0.04157,-3.309413 -0.07499,-8.174158 -0.08152,-10.810533 -0.0035,-2.852836 -0.06294,-4.855519 -0.146432,-4.946497 z m -10.825591,0.375427 c -0.01478,-0.302234 -0.03991,0.248152 -0.08516,1.460687 -0.05546,1.486422 -0.09784,5.27248 -0.09191,8.413614 0.0088,5.465096 0.01376,5.559737 0.107487,2.192847 0.0538,-1.935161 0.09732,-5.721729 0.09139,-8.414134 -0.0028,-2.196287 -0.007,-3.350789 -0.02181,-3.653014 z m 1.607119,1.09876 c -6.7e-4,1.5e-5 -0.0014,4.19e-4 -0.0021,5.2e-4 -0.02317,0.004 -0.03894,0.06089 -0.03894,0.157337 0,0.140224 0.03366,0.197346 0.07426,0.127219 0.04066,-0.07014 0.04066,-0.184841 0,-0.254958 -0.012,-0.02054 -0.02319,-0.03034 -0.03323,-0.03012 z m -11.891118,3.421423 c -0.04128,0.02803 -0.12228,2.552078 -0.179666,5.609077 -0.0574,3.056989 -0.06313,5.530162 -0.01298,5.495877 0.04981,-0.03426 0.13014,-2.558288 0.179146,-5.609077 0.04845,-3.050779 0.05477,-5.523932 0.0135,-5.495877 z m -4.168642,1.580636 c -0.208765,0.456828 -0.415501,34.544308 -0.249766,41.176498 0.0319,1.27609 0.102268,2.32014 0.156298,2.32007 0.05401,-5e-5 0.107406,-9.80964 0.118911,-21.79917 0.01176,-11.989521 1.9e-4,-21.753498 -0.02544,-21.697398 z m -9.053866,0.560803 c -0.063073,1.262063 -0.1503498,5.186208 -0.1931658,8.719981 -0.047438,3.872935 -0.0332,5.452433 0.03531,3.977034 0.06251,-1.346208 0.1496966,-5.269823 0.1931658,-8.719462 0.04779,-3.767467 0.033562,-5.355895 -0.03531,-3.977553 z m -4.16396833,2.365762 c -0.00106,3.7e-5 -0.001999,3.87e-4 -0.003116,5.19e-4 -0.0261187,0.003 -0.0675761,0.03158 -0.11423782,0.08152 -0.0785118,0.08411 -0.14279726,0.198869 -0.14279726,0.254959 0,0.05607 0.0642392,0.03322 0.14279726,-0.05089 0.078556,-0.0841 0.14279727,-0.198868 0.14279727,-0.254958 0,-0.02138 -0.009545,-0.03172 -0.0254439,-0.03116 z m -0.29494126,0.509916 c -0.00106,3.8e-5 -0.001998,3.88e-4 -0.003116,5.19e-4 -0.0261317,0.003 -0.0675942,0.03158 -0.11423781,0.08152 -0.0785339,0.0841 -0.14279727,0.198868 -0.14279727,0.254958 0,0.05607 0.0642089,0.03322 0.14279727,-0.05089 0.0785821,-0.0841 0.14279727,-0.198867 0.14279727,-0.254957 0,-0.02138 -0.009539,-0.03172 -0.0254439,-0.03116 z M 34.044426,83.525496 c -0.0592,1.542522 -0.144972,6.705321 -0.190049,11.473112 -0.04914,5.182642 -0.03557,7.386342 0.03323,5.479782 0.0633,-1.753961 0.148342,-6.91676 0.189531,-11.473113 0.04121,-4.556364 0.02655,-7.022303 -0.03271,-5.479781 z M 2.2935839,83.742029 c -0.026005,0.0211 -0.091883,3.388405 -0.1459129,7.483097 -0.05407,4.094692 -0.1293404,9.303684 -0.1672026,11.575404 -0.1227184,7.32222 -0.1896625,22.34037 -0.1059296,23.89129 0.044737,0.82815 0.09719,1.49362 0.1168342,1.47885 0.1854694,-0.1399 0.2373497,-4.25494 0.2892293,-22.90987 0.033672,-11.85641 0.039147,-21.539882 0.012982,-21.518771 z m 34.1425671,0.599229 c -0.09315,-0.06411 0.08516,12.300754 0.182261,12.641454 0.03915,0.137642 0.08558,5.736508 0.103333,12.442048 0.01767,6.70554 0.06857,13.68324 0.1132,15.50623 l 0.08152,3.31446 0.07477,-2.90631 c 0.130558,-5.08109 0.155004,-14.17572 0.03791,-14.17588 -0.06209,-10e-5 -0.123369,-2.53607 -0.135528,-5.63504 -0.01241,-3.09899 -0.06214,-7.332089 -0.110083,-9.407485 -0.0479,-2.075386 -0.128918,-5.56346 -0.180184,-7.751035 -0.05126,-2.187576 -0.126608,-4.000387 -0.167203,-4.028442 z m -6.450801,3.671189 -5.2e-4,5.19e-4 -5.19e-4,5.19e-4 c -0.01573,0.02763 -0.04026,0.406548 -0.07737,1.070201 -0.05666,1.009648 -0.09991,3.396105 -0.09399,5.303231 0.0081,3.222475 0.01583,3.323034 0.109045,1.427453 0.05491,-1.121838 0.09992,-3.508304 0.09399,-5.303231 -0.0033,-1.688785 -0.0078,-2.457333 -0.02856,-2.497135 l -5.2e-4,-5.19e-4 -5.19e-4,-5.19e-4 v -5.19e-4 h -5.2e-4 z m -9.500952,0.918056 c -0.128597,0 -0.119057,-0.800701 -0.195243,16.368717 -0.04645,10.4618 -0.02831,14.35003 0.05193,11.21816 0.150552,-5.87263 0.263215,-27.586877 0.143316,-27.586877 z m 7.729745,0.895729 c -3.29e-4,-5e-6 -7.11e-4,4.9e-4 -0.001,5.18e-4 h -5.19e-4 -5.2e-4 c -3.08e-4,6.1e-5 -0.0012,4.29e-4 -0.0016,5.2e-4 -0.01848,0.007 -0.0316,0.06874 -0.03531,0.173953 h -5.2e-4 c -0.003,0.168289 0.02795,0.249755 0.06802,0.180703 0.04093,-0.06903 0.04297,-0.206608 0.0057,-0.305845 -0.0124,-0.033 -0.02405,-0.04969 -0.03427,-0.04985 z m -21.3910298,0.07321 0.00571,6.679797 c 0.00322,3.701791 0.013082,5.258891 0.049849,5.312571 l 5.192e-4,5.2e-4 5.193e-4,5.2e-4 5.193e-4,5.2e-4 h 5.192e-4 l 5.193e-4,-5.2e-4 c 0.019323,-0.018 0.046131,-0.41153 0.082044,-1.09876 0.075423,-1.436336 0.073325,-4.225077 -0.00519,-6.68031 z m 3.9396468,0.765394 c -0.04515,0.757529 -0.08833,3.671367 -0.09606,6.475726 -0.0067,2.487268 0.0014,3.669098 0.0296,3.729858 l 5.2e-4,5.2e-4 v 5.2e-4 h 5.19e-4 v 5.2e-4 5.1e-4 l 5.2e-4,5.3e-4 h 5.18e-4 5.2e-4 5.19e-4 l 5.2e-4,-5.3e-4 c 0.01409,-0.021 0.03296,-0.28588 0.0566,-0.77421 0.05695,-1.177924 0.101591,-4.091833 0.09606,-6.475723 -0.0043,-2.3839 -0.04469,-3.714955 -0.08983,-2.957721 z m 11.918639,4.639613 c -0.06503,1.290097 -0.161521,6.338691 -0.214456,11.218661 -0.05283,4.87998 -0.06204,8.84938 -0.02077,8.82125 0.149622,-0.10168 0.237037,-3.99984 0.294423,-13.10465 0.03614,-5.742015 0.01391,-8.386554 -0.0592,-6.935261 z M 4.5046049,98.792861 v 5.2e-4 h -5.193e-4 v 5.19e-4 c -0.014632,0.03035 -0.024925,0.503257 -0.024925,1.30387 h 5.193e-4 c 0,0.81898 0.0099,1.30825 0.024925,1.33814 l 5.193e-4,5.2e-4 v 5.2e-4 h 5.192e-4 v 5.1e-4 h 5.193e-4 5.193e-4 l 5.192e-4,-5.1e-4 5.193e-4,-5.2e-4 c 0.0058,-0.0121 0.012469,-0.0893 0.019213,-0.23678 0.026166,-0.57189 0.026166,-1.535419 0,-2.141445 -0.00713,-0.165717 -0.014121,-0.251226 -0.020251,-0.263786 V 98.7939 l -5.193e-4,-5.19e-4 -5.193e-4,-5.2e-4 h -5.192e-4 z m 41.4366521,1.476779 c -0.0085,0.32515 -0.01478,0.55589 -0.01765,0.6605 -0.0049,0.17978 0.0022,0.34004 0.01765,0.45955 z m -17.790983,0.28716 c -0.06117,2.77654 -0.145686,9.40795 -0.186934,14.73667 -0.04129,5.32869 -0.02337,8.79393 0.03998,7.70015 0.06339,-1.09379 0.147448,-7.72575 0.186416,-14.7372 0.04409,-7.83902 0.02883,-10.80388 -0.03946,-7.69962 z m -20.0502935,1.07072 c -0.064802,0.6731 -0.1646676,4.04644 -0.2222446,7.49608 h -5.192e-4 c -0.057517,3.44963 -0.066038,6.24663 -0.019213,6.21608 0.1861647,-0.12175 0.2385002,-1.54469 0.2980568,-8.10308 0.035521,-3.90937 0.011334,-6.30927 -0.05608,-5.60908 z m 37.8412765,0.39567 c -0.0721,0.68218 -0.09758,2.68851 -0.0836,6.40511 h 5.19e-4 c 0.01305,3.42457 0.03942,5.05337 0.08308,5.03322 z m -41.5617945,3.91317 c -0.023242,-1.13586 -0.043099,-0.2066 -0.043099,2.06511 0,2.27172 0.019013,3.20147 0.043099,2.06563 0.024136,-1.13586 0.024136,-2.9949 0,-4.13074 z m 37.8537385,1.27842 v 5.2e-4 h -5.2e-4 v 5.3e-4 c -0.016,0.0237 -0.02752,0.30908 -0.02752,0.78564 0,0.47654 0.011,0.76193 0.027,0.78565 l 5.19e-4,5.1e-4 v 5.2e-4 h 5.2e-4 v 5.2e-4 h 5.18e-4 5.2e-4 5.19e-4 5.2e-4 v -5.2e-4 h 5.18e-4 v -5.2e-4 c 0.0064,-0.009 0.01433,-0.0581 0.02181,-0.14851 0.02895,-0.35057 0.02895,-0.92421 0,-1.27479 -0.0074,-0.0902 -0.01538,-0.13892 -0.02181,-0.1485 v -5.3e-4 h -5.18e-4 v -5.2e-4 h -5.2e-4 -5.19e-4 -5.2e-4 z m -0.03323,2.45352 c -9.21e-4,1e-5 -0.0017,3.7e-4 -0.0026,5.2e-4 -0.01965,0.003 -0.03326,0.0404 -0.03739,0.10904 -0.0064,0.10753 0.02825,0.16784 0.07737,0.13398 0.04902,-0.0339 0.0543,-0.1216 0.01194,-0.19525 -0.01872,-0.0322 -0.0355,-0.0484 -0.04933,-0.0483 z m -25.922637,0.0286 -5.2e-4,5.2e-4 -5.18e-4,5.2e-4 c -0.03057,0.0399 -0.04188,0.71542 -0.06231,2.28112 -0.02019,1.54251 -0.05931,2.98831 -0.08672,3.21268 -0.07246,0.59482 -0.153973,11.05746 -0.09451,12.12322 0.03854,0.69175 0.09125,0.87647 0.223283,0.78513 0.216405,-0.14971 0.327467,-15.58367 0.1267,-17.59989 -0.0479,-0.48184 -0.07905,-0.77246 -0.100737,-0.80123 l -5.19e-4,-5.1e-4 -5.19e-4,-5.2e-4 v -5.2e-4 h -5.19e-4 v -5.2e-4 h -5.2e-4 -5.19e-4 -5.19e-4 -5.19e-4 -5.2e-4 z m 25.919521,0.58365 c -0.01949,0.004 -0.03277,0.0412 -0.03687,0.10957 -0.0064,0.10754 0.02825,0.16731 0.07737,0.13345 0.04902,-0.0339 0.0543,-0.12159 0.01194,-0.19525 -0.01922,-0.0331 -0.03632,-0.0489 -0.05037,-0.0478 h -5.19e-4 -5.19e-4 -5.19e-4 z m 0,0.5094 v 5.2e-4 c -0.01944,0.004 -0.03273,0.0416 -0.03687,0.10956 -0.0062,0.10719 0.02833,0.16726 0.07737,0.13345 0.04902,-0.0339 0.0543,-0.12158 0.01194,-0.19523 -0.01922,-0.0331 -0.03632,-0.0488 -0.05037,-0.0478 h -5.19e-4 l -5.19e-4,-5.2e-4 h -5.19e-4 z m -35.7232026,0.16928 c -0.055145,1.82298 -0.1529401,6.44837 -0.2175711,10.27828 -0.109118,6.46411 -0.1002519,6.9587 0.1267001,6.89841 0.2254829,-0.06 0.2424777,-0.84928 0.2180904,-10.27828 -0.019132,-7.31252 -0.055517,-9.27158 -0.1272194,-6.89841 z m 37.6107226,1.12213 c -0.158344,-1.12158 -0.316028,4.60449 -0.289229,10.50416 0.01478,3.26703 0.06909,5.10831 0.135527,4.58925 0.14333,-1.11962 0.276642,-14.22242 0.153702,-15.09341 z m -13.433328,0.0509 c -0.06188,0.89747 -0.145368,4.8673 -0.184858,8.82176 h 5.2e-4 c -0.04317,4.33275 -0.02647,6.25773 0.04258,4.84421 0.06309,-1.29011 0.145832,-5.25994 0.184338,-8.82176 0.03839,-3.58838 0.01974,-5.74837 -0.04258,-4.84421 z m 15.244517,2.85076 v 5.1e-4 c -0.02317,0.004 -0.03894,0.0609 -0.03894,0.15734 0,0.14023 0.03366,0.19736 0.07426,0.12722 0.0037,-0.006 0.0073,-0.0136 0.01039,-0.0208 v -0.21394 c -0.0031,-0.007 -0.0066,-0.0138 -0.01039,-0.0203 -0.0128,-0.0219 -0.02478,-0.0317 -0.03531,-0.0301 z m -34.904844,0.88014 c -0.03203,0.0234 -0.09889,1.57974 -0.149029,3.45882 -0.05005,1.87907 -0.128271,4.64449 -0.174473,6.14495 -0.07509,2.44348 -0.05962,2.72769 0.149029,2.72769 0.206947,0 0.233334,-0.31965 0.238861,-2.82998 0.003,-1.55655 0.0059,-3.19702 0.01142,-3.64575 0.01834,-2.51371 -0.02567,-5.8924 -0.07581,-5.85573 z m -3.1197315,0.24146 c -6.694e-4,1e-5 -0.00142,4.3e-4 -0.00208,5.3e-4 -0.023171,0.004 -0.038945,0.0609 -0.038945,0.15733 0,0.14024 0.033659,0.19788 0.074255,0.12774 0.040666,-0.0701 0.040666,-0.18482 0,-0.25496 -0.011992,-0.0205 -0.023192,-0.0308 -0.033233,-0.0306 z m 17.8283685,1.24623 c -0.01849,0.23814 -0.02444,1.27784 -0.03531,3.34821 -0.01217,2.29977 0.02728,4.91568 0.08776,5.81315 0.03591,0.53086 0.06083,0.8429 0.07945,0.87392 l 5.19e-4,5.2e-4 h 5.2e-4 v 5.1e-4 5.2e-4 l 5.18e-4,5.3e-4 h 5.2e-4 c 9.6e-5,0 7.31e-4,-1e-5 10e-4,0 h 5.18e-4 5.2e-4 l 5.19e-4,-5.3e-4 c 0.02893,-0.0397 0.04234,-0.86702 0.06179,-2.76248 0.0199,-1.93516 -0.01952,-4.55107 -0.08776,-5.81314 -0.06134,-1.13619 -0.09211,-1.69933 -0.110603,-1.46121 z m 15.212322,0.65376 c -0.137552,0.10161 -0.24642,4.25007 -0.151624,5.76953 h 5.19e-4 c 0.05719,0.91699 0.127409,1.66683 0.156298,1.66683 0.02823,0 0.05245,-1.68253 0.05245,-3.73921 0,-2.0567 -0.02596,-3.72057 -0.05764,-3.69715 z m -2.078088,4.73412 c -0.02818,-0.0561 -0.05672,1.1483 -0.06335,2.67679 -0.0064,1.52851 0.04364,2.7791 0.111122,2.7791 0.113162,0 0.06763,-5.22793 -0.04777,-5.45589 z m -6.32566,2.35381 v 5.2e-4 h -5.19e-4 c -0.0151,0.0264 -0.02545,0.45077 -0.02545,1.16418 0,0.71344 0.01034,1.13668 0.02545,1.16316 v 5.1e-4 l 5.19e-4,5.3e-4 5.19e-4,5.2e-4 h 5.19e-4 l 5.2e-4,-5.2e-4 h 5.19e-4 v -5.3e-4 c 0.0061,-0.0109 0.01314,-0.0829 0.02025,-0.22068 0.0268,-0.51883 0.0268,-1.36764 0,-1.88649 -0.0071,-0.13781 -0.01365,-0.20927 -0.01973,-0.22015 l -5.19e-4,-5.3e-4 -5.19e-4,-5.2e-4 h -5.2e-4 -5.19e-4 z m -11.204133,1.08734 -5.2e-4,5.1e-4 v 5.3e-4 h -5.19e-4 l -5.19e-4,5.2e-4 c -0.0159,0.0193 -0.027,0.28615 -0.027,0.73839 h 5.2e-4 c -3.92e-4,0.46804 0.01126,0.75031 0.02804,0.7711 l 5.19e-4,5.3e-4 5.19e-4,5.1e-4 h 5.19e-4 5.2e-4 5.19e-4 5.19e-4 l 5.19e-4,-5.1e-4 v -5.3e-4 l 5.2e-4,-5.2e-4 5.19e-4,-5.1e-4 v -5.2e-4 c 0.006,-0.0111 0.01296,-0.0537 0.01973,-0.12878 0.02832,-0.32034 0.02899,-0.8706 0,-1.22338 -0.0079,-0.0965 -0.01555,-0.14709 -0.02233,-0.15578 l -5.2e-4,-5.2e-4 v -5.3e-4 h -5.19e-4 l -5.19e-4,-5.1e-4 z m 2.209982,0.0633 -5.19e-4,5.2e-4 h -5.2e-4 v 5.2e-4 h -5.18e-4 c -0.01591,0.0221 -0.027,0.26583 -0.027,0.67556 h 5.19e-4 c 0,0.42416 0.01136,0.68238 0.02804,0.70724 l 5.2e-4,5.2e-4 v 5.1e-4 l 5.18e-4,5.2e-4 h 5.2e-4 l 5.19e-4,5.3e-4 h 5.2e-4 5.18e-4 l 5.2e-4,-5.3e-4 5.19e-4,-5.2e-4 5.2e-4,-5.1e-4 5.18e-4,-5.2e-4 c 0.006,-0.01 0.01335,-0.0483 0.02025,-0.11684 0.02888,-0.29243 0.02953,-0.79755 0,-1.12213 -0.0078,-0.0862 -0.01556,-0.13265 -0.02233,-0.14279 l -5.18e-4,-5.3e-4 -5.2e-4,-5.1e-4 -5.19e-4,-5.2e-4 h -5.2e-4 v -5.2e-4 h -5.18e-4 z m 18.401635,0.0602 c -0.02281,0.004 -0.03843,0.0619 -0.03843,0.15733 0,0.14024 0.03359,0.19788 0.07426,0.12774 0.04067,-0.0701 0.04067,-0.18482 0,-0.25496 -0.01214,-0.0208 -0.0236,-0.0306 -0.03375,-0.0301 -7.51e-4,3e-5 -0.0013,-1.4e-4 -0.0021,0 z m -28.87932,1.2966 c -2.3e-4,6e-5 -0.0014,4.3e-4 -0.0016,5.1e-4 -2.92e-4,1.4e-4 -0.0014,9e-4 -0.0016,0.001 -0.01774,0.0131 -0.03064,0.0971 -0.03064,0.23627 h -0.0026 c -0.0012,0.15794 0.01309,0.25596 0.03427,0.26638 l 5.2e-4,5.1e-4 h 5.19e-4 5.2e-4 5.18e-4 5.2e-4 v 5.3e-4 h 5.19e-4 5.2e-4 5.18e-4 5.2e-4 c 0.0075,-0.002 0.01683,-0.014 0.02544,-0.0369 0.03958,-0.0975 0.04028,-0.28128 0.0052,-0.40814 -0.0098,-0.0353 -0.01992,-0.0546 -0.02856,-0.0592 l -5.2e-4,-5.2e-4 h -5.18e-4 c -1.2e-4,-2e-5 -0.0012,-4e-4 -0.0016,-5.1e-4 -2.35e-4,-10e-6 -0.0014,-2e-5 -0.0016,0 z" />
</svg>
