<?xml version="1.0" encoding="UTF-8" standalone="no"?>
<svg
   width="45.72mm"
   height="128.5mm"
   viewBox="0 0 45.72 128.5"
   version="1.1"
   id="svg1"
   sodipodi:docname="metal.svg"
   inkscape:version="1.4.2 (f4327f4, 2025-05-13)"
   xmlns:inkscape="http://www.inkscape.org/namespaces/inkscape"
   xmlns:sodipodi="http://sodipodi.sourceforge.net/DTD/sodipodi-0.dtd"
   xmlns:xlink="http://www.w3.org/1999/xlink"
   xmlns="http://www.w3.org/2000/svg"
   xmlns:svg="http://www.w3.org/2000/svg">
  <defs
     id="defs1">
    <linearGradient
       inkscape:collect="always"
       xlink:href="#linearGradient238"
       id="linearGradient239-8"
       x1="649.83807"
       y1="-1044.1716"
       x2="649.83807"
       y2="-398.76425"
       gradientUnits="userSpaceOnUse"
       gradientTransform="matrix(0.23920343,0,0,0.07752298,-131.12216,156.37728)" />
    <linearGradient
       id="linearGradient238"
       inkscape:collect="always">
      <stop
         style="stop-color:#e3dedb;stop-opacity:0.32873562;"
         offset="0"
         id="stop238" />
      <stop
         style="stop-color:#917c6f;stop-opacity:0;"
         offset="1"
         id="stop239" />
    </linearGradient>
    <linearGradient
       inkscape:collect="always"
       xlink:href="#linearGradient4"
       id="linearGradient5-2"
       x1="876.5351"
       y1="-323.21573"
       x2="876.5351"
       y2="58.015488"
       gradientUnits="userSpaceOnUse"
       gradientTransform="matrix(0.23920343,0,0,0.19813649,-188.04166,64.040905)" />
    <linearGradient
       id="linearGradient4"
       inkscape:collect="always">
      <stop
         style="stop-color:#333333;stop-opacity:0.48275861;"
         offset="0"
         id="stop4" />
      <stop
         style="stop-color:#333333;stop-opacity:0;"
         offset="1"
         id="stop5" />
    </linearGradient>
    <linearGradient
       inkscape:collect="always"
       xlink:href="#linearGradient238"
       id="linearGradient240-6"
       gradientUnits="userSpaceOnUse"
       gradientTransform="matrix(0.23920343,0,0,0.07752298,-131.12216,5.3055054)"
       x1="649.83807"
       y1="-1044.1716"
       x2="649.83807"
       y2="-398.76425" />
  </defs>
  <sodipodi:namedview
     id="namedview1"
     pagecolor="#ffffff"
     bordercolor="#cccccc"
     borderopacity="1"
     inkscape:showpageshadow="0"
     inkscape:pageopacity="1"
     inkscape:pagecheckerboard="0"
     inkscape:deskcolor="#d1d1d1"
     inkscape:document-units="mm"
     inkscape:zoom="2.3498919"
     inkscape:cx="78.727025"
     inkscape:cy="160.22013"
     inkscape:window-width="1920"
     inkscape:window-height="1009"
     inkscape:window-x="-8"
     inkscape:window-y="-8"
     inkscape:window-maximized="1"
     inkscape:current-layer="svg1" />
  <path
     id="rect68-9"
     style="fill:#535353;fill-opacity:1;stroke-width:0.190025"
     d="M 0 0 L 0 128.50017 L 45.720207 128.50017 L 45.720207 0 L 0 0 z " />
  <path
     id="path484-1"
     style="fill:#f9f9f9;fill-opacity:0.360078;stroke-width:0.560754"
     d="M 15.016138 0.051159668 C 14.92846 0.062788406 14.874338 0.80587534 14.894181 1.7120402 C 14.912488 2.5190015 14.941485 2.9260747 14.976347 2.9419393 C 14.977251 2.942175 14.979052 2.9427438 14.979964 2.9424561 C 15.021135 2.9216589 15.070943 2.3703492 15.121041 1.3027629 C 15.153341 0.61418284 15.107205 0.051079668 15.018205 0.051159668 C 15.01751 0.051160293 15.016828 0.051068103 15.016138 0.051159668 z M 7.5628459 0.051676432 C 7.1720459 0.051676432 7.1071662 1.3558693 7.1411662 8.5333293 C 7.1594537 12.379913 7.1865813 14.125901 7.2378011 14.176912 C 7.2383863 14.177273 7.2397934 14.178022 7.2403849 14.177946 C 7.2629836 14.166796 7.2910289 13.840951 7.3241007 13.233818 C 7.4053007 11.744438 7.5413743 9.422289 7.6253743 8.073409 C 7.7333743 6.343759 7.7112603 5.6662245 7.5509603 5.7743245 C 7.3697603 5.8962045 7.3241007 5.8645955 7.3241007 5.6208455 C 7.3241007 5.3855955 7.3726735 5.3502733 7.5328735 5.4678833 C 7.6709735 5.5689133 7.7447469 4.6721494 7.7447469 2.8365194 C 7.7465469 1.3049894 7.6648459 0.051676432 7.5628459 0.051676432 z M 17.038236 0.051676432 C 16.858636 0.051676432 16.795947 0.27337647 16.828947 0.79271647 C 16.854947 1.2001765 16.823667 4.0398356 16.758667 7.1029256 C 16.708724 9.4600617 16.708764 10.942474 16.750916 10.988477 L 16.751432 10.988993 L 16.751949 10.98951 C 16.75217 10.989521 16.753277 10.989574 16.753499 10.98951 L 16.754016 10.988993 C 16.766051 10.977685 16.781996 10.861005 16.800008 10.628292 C 17.171408 5.8572214 17.301936 0.051676432 17.038236 0.051676432 z M 21.475692 0.051676432 C 21.233592 0.16938643 21.089403 5.7933853 21.004403 18.445386 L 21.00647 18.445386 C 20.95447 25.836116 20.950651 31.814146 20.996651 31.729846 C 21.254551 31.253076 21.728092 -0.071073568 21.475692 0.051676432 z M 31.485417 0.051676432 C 31.174117 0.051676432 31.027673 1.6047448 30.901473 6.2342448 C 30.837073 8.5947848 30.749203 10.723355 30.708203 10.964705 L 30.707686 10.964705 C 30.656686 11.259075 30.712035 11.391098 30.875635 11.365198 C 31.200435 11.314178 31.344768 9.3936968 31.403768 4.3046468 C 31.430068 2.0633368 31.504582 0.1894599 31.567582 0.1405599 C 31.631682 0.091559896 31.594417 0.051676432 31.485417 0.051676432 z M 42.115776 0.051676432 C 41.784676 0.051676432 41.761965 0.72049916 41.797965 9.0444092 C 41.820065 13.99028 41.906719 18.036625 41.990719 18.036625 C 42.140119 18.036625 42.428935 8.485275 42.428935 3.554305 C 42.428935 1.677045 42.367071 1.0796312 42.177271 1.1353312 C 41.997971 1.1878412 41.97649 1.1529616 42.10389 1.0138916 C 42.20239 0.90632158 42.325809 0.64587556 42.378809 0.43511556 C 42.455409 0.12781556 42.403076 0.051676432 42.115776 0.051676432 z M 35.651054 0.25424805 C 35.650129 0.25456608 35.64834 0.25567364 35.647437 0.2563151 C 35.622323 0.27727625 35.605062 0.42483079 35.605062 0.66455892 C 35.605062 0.90428704 35.621807 1.0508132 35.64692 1.0717692 C 35.647824 1.0724105 35.649613 1.0735185 35.650537 1.0738363 C 35.652399 1.0742548 35.655316 1.0742169 35.657255 1.0733195 C 35.667661 1.0673512 35.679878 1.0419941 35.691878 0.99632161 C 35.739878 0.81369161 35.739878 0.51496946 35.691878 0.33227946 C 35.679878 0.28662196 35.668178 0.26176193 35.657772 0.25579834 C 35.655833 0.25490177 35.652916 0.25382893 35.651054 0.25424805 z M 38.888066 0.37155355 L 38.887549 0.37207031 C 38.886975 0.37237974 38.88553 0.37310073 38.884965 0.37362061 C 38.861121 0.40016681 38.844657 0.61643727 38.844657 0.97100016 C 38.844657 1.3381183 38.861774 1.5558051 38.887032 1.5694132 L 38.887549 1.56993 L 38.888066 1.56993 L 38.888582 1.56993 L 38.889099 1.5704468 L 38.889616 1.5704468 L 38.890133 1.5704468 L 38.890649 1.56993 C 38.891244 1.5697075 38.892631 1.5693339 38.893233 1.5688965 C 38.902936 1.5601701 38.914539 1.5229819 38.925789 1.4562419 C 38.969789 1.1892919 38.969789 0.75270846 38.925789 0.48575846 C 38.914539 0.41900846 38.903453 0.38234607 38.89375 0.37362061 C 38.893147 0.37318324 38.891761 0.37229268 38.891166 0.37207031 L 38.890649 0.37155355 L 38.890133 0.37155355 L 38.889616 0.37155355 L 38.889099 0.37155355 L 38.888582 0.37155355 L 38.888066 0.37155355 z M 2.9920654 0.62528483 C 2.8979926 0.64521257 2.8556396 2.0846264 2.8556396 4.9568034 L 2.8659749 9.91309 L 3.0489095 5.6720052 C 3.1499095 3.2495152 3.1467742 1.1243386 3.0385742 0.71571859 C 3.0216937 0.65223156 3.006473 0.62223283 2.9920654 0.62528483 z M 11.530046 1.1498006 C 11.529751 1.1498445 11.529304 1.1502261 11.529012 1.1503174 C 11.528431 1.1505946 11.527001 1.1514022 11.526428 1.1518677 C 11.502288 1.1756324 11.485087 1.3689727 11.485087 1.686202 C 11.485087 2.0183528 11.502943 2.2139628 11.529012 2.2220866 L 11.529529 2.2226034 L 11.530046 2.2226034 C 11.530343 2.2225996 11.531297 2.2226548 11.531596 2.2226034 C 11.542147 2.2191264 11.554674 2.1856055 11.567253 2.120284 C 11.613253 1.881414 11.613253 1.49101 11.567253 1.25212 C 11.556354 1.1942783 11.545795 1.1614422 11.536247 1.1523844 C 11.535328 1.1516532 11.533531 1.1506152 11.532629 1.1503174 C 11.532331 1.150266 11.531376 1.1498043 11.531079 1.1498006 L 11.530562 1.1498006 L 11.530046 1.1498006 z M 42.071851 1.4154175 C 42.092379 1.4143684 42.1172 1.4298504 42.145231 1.4629598 C 42.207231 1.5367398 42.200178 1.6248135 42.128178 1.6588135 C 42.056078 1.6927635 42.005007 1.6327415 42.015007 1.5249715 C 42.021122 1.4543153 42.041847 1.4169507 42.071851 1.4154175 z M 33.077568 1.4629598 L 33.077568 1.4634766 L 33.077051 1.4634766 C 33.054629 1.4871373 33.038293 1.8661631 33.038293 2.5037231 C 33.038293 3.1412694 33.053566 3.5197921 33.076017 3.543453 L 33.076534 3.5439697 L 33.077051 3.5439697 L 33.077051 3.5444865 L 33.077568 3.5444865 L 33.078084 3.5444865 L 33.078601 3.5444865 L 33.079118 3.5444865 L 33.079635 3.5444865 L 33.080151 3.5439697 C 33.089198 3.5342426 33.100015 3.4697201 33.11064 3.3465658 C 33.15064 2.8828958 33.15064 2.1245405 33.11064 1.6608805 C 33.100281 1.5377129 33.090192 1.473722 33.081185 1.4639933 L 33.080668 1.4634766 L 33.080151 1.4629598 L 33.079635 1.4629598 L 33.079118 1.4629598 L 33.078601 1.4629598 L 33.078084 1.4629598 L 33.077568 1.4629598 z M 38.828121 3.1171224 C 38.564821 2.2497824 38.403648 6.2700814 38.267948 17.066142 L 38.148576 26.569438 L 38.428145 20.029268 C 38.582145 16.432268 38.726056 11.627081 38.749056 9.3508504 C 38.771356 7.0746004 38.836267 4.8672435 38.894267 4.4457235 C 38.951767 4.0242035 38.922121 3.4262524 38.828121 3.1171224 z M 32.849158 5.1201009 C 32.820607 5.1253519 32.800065 5.2524246 32.800065 5.4673665 C 32.800065 5.6847868 32.820035 5.8115885 32.849158 5.8141154 C 32.861215 5.8140152 32.875529 5.7926471 32.889982 5.7479696 C 32.939982 5.5933896 32.939982 5.3408267 32.889982 5.1862467 C 32.875435 5.1403617 32.861431 5.1190252 32.849158 5.1201009 z M 13.689087 11.089762 L 13.68857 11.090279 L 13.688053 11.090279 L 13.687537 11.090796 C 13.665029 11.114743 13.649296 11.427711 13.649296 11.956376 L 13.65033 11.956376 C 13.649634 12.503469 13.665869 12.832643 13.689604 12.855546 L 13.69012 12.856063 L 13.690637 12.85658 L 13.691154 12.85658 L 13.691671 12.85658 L 13.692187 12.85658 L 13.692704 12.85658 L 13.693221 12.85658 L 13.693738 12.856063 C 13.702898 12.849112 13.713657 12.799239 13.724227 12.702067 C 13.765227 12.325157 13.765227 11.681087 13.724227 11.271147 C 13.713016 11.159056 13.702316 11.100892 13.692704 11.091313 L 13.692187 11.090796 L 13.691671 11.090279 L 13.691154 11.090279 L 13.690637 11.089762 L 13.69012 11.089762 L 13.689604 11.089762 L 13.689087 11.089762 z M 30.751095 11.701095 C 30.689595 11.560585 30.643608 13.514832 30.643608 16.043982 C 30.645659 18.412882 30.681867 19.652757 30.747994 19.693372 C 30.765423 19.700913 30.78587 19.626384 30.807422 19.467546 C 31.053122 17.659846 31.240266 11.412855 31.039966 11.701095 L 30.862716 11.956376 L 30.751095 11.701095 z M 5.4518636 12.553756 C 5.4217904 12.555285 5.4014738 12.59263 5.3955363 12.66331 C 5.3861363 12.77115 5.4367077 12.831668 5.5087077 12.797668 C 5.5797077 12.763718 5.5877609 12.675615 5.5257609 12.601815 C 5.4976484 12.568685 5.47244 12.552709 5.4518636 12.553756 z M 5.3459269 13.199711 C 4.9520942 13.252679 4.8614543 19.111083 5.1924479 24.41298 C 5.2136813 24.656777 5.3104878 22.404917 5.4120728 19.271692 C 5.5247728 15.924002 5.5229728 13.396013 5.4120728 13.242603 C 5.3892009 13.210981 5.3670824 13.196866 5.3459269 13.199711 z M 5.1924479 24.41298 C 5.192194 24.410064 5.1900958 24.478129 5.1898641 24.474475 L 5.1939982 24.474475 C 5.19263 24.452805 5.1938019 24.434669 5.1924479 24.41298 z M 16.418119 14.135571 C 16.417883 14.135636 16.417324 14.135961 16.417086 14.136088 C 16.416845 14.136278 16.415779 14.136869 16.415535 14.137122 C 16.402525 14.153845 16.385697 14.259521 16.366443 14.460099 C 16.277143 15.387459 16.150323 18.42233 16.085323 21.20439 L 16.086357 21.20439 C 16.033753 23.440801 16.027888 24.651295 16.066203 24.705469 L 16.06672 24.705986 L 16.067236 24.706502 C 16.067456 24.70659 16.068564 24.707519 16.068787 24.707536 L 16.069303 24.707019 C 16.069531 24.706894 16.070623 24.706698 16.070854 24.706502 C 16.086485 24.688633 16.108845 24.510878 16.136483 24.168034 C 16.229483 23.015874 16.355603 19.980993 16.417603 17.423743 C 16.466048 15.388704 16.465027 14.172021 16.420703 14.136088 C 16.420474 14.135966 16.419385 14.135631 16.419153 14.135571 L 16.418636 14.135571 L 16.418119 14.135571 z M 10.356474 14.8177 C 10.279174 16.16658 10.190003 19.247571 10.157003 21.664311 C 10.124503 24.081041 10.060893 26.219249 10.014893 26.415959 C 9.9693924 26.612669 9.8858574 32.176699 9.8288574 38.780579 L 9.8283407 38.780579 C 9.7322407 49.973589 9.7917628 50.647643 10.211263 43.123983 C 10.280263 41.887513 10.372418 34.460947 10.416418 26.620597 C 10.460918 18.780247 10.433474 13.46883 10.356474 14.8177 z M 2.6876912 17.99115 C 2.6597951 17.99483 2.6401489 18.103613 2.6401489 18.292424 L 2.6427327 18.292424 C 2.6407327 18.572844 2.6821665 18.700267 2.7331665 18.574577 C 2.7811665 18.448897 2.7831665 18.218837 2.7331665 18.063497 C 2.7170884 18.012529 2.7013149 17.989353 2.6876912 17.99115 z M 2.6623698 18.983337 C 2.4758698 19.071837 2.327204 29.803465 2.490804 31.372245 L 2.6830404 33.21141 L 2.7982788 31.832166 C 3.0955788 28.284206 2.9955698 18.825297 2.6623698 18.983337 z M 41.795898 22.635311 C 41.359098 33.155541 41.231192 41.154956 41.496692 41.358716 C 41.532611 41.386453 41.545209 41.405742 41.537 41.415043 C 41.524863 41.425802 41.479296 41.422175 41.405741 41.400574 C 41.235641 41.351534 41.189726 42.042846 41.235726 43.811796 C 41.271626 45.175756 41.331534 48.245995 41.368534 50.634635 L 41.437781 54.977523 L 41.587126 50.174715 C 41.669326 47.533165 41.786575 39.370797 41.847575 32.036287 C 41.909475 24.630417 41.886898 20.450441 41.795898 22.635311 z M 26.652637 23.145874 C 26.383237 23.282834 25.940638 33.435935 25.777238 43.225785 L 25.776204 43.225785 C 25.731139 45.910151 25.73178 47.297766 25.776204 47.333545 L 25.776721 47.334062 C 25.776968 47.334096 25.778022 47.334624 25.778271 47.334578 C 25.778523 47.334453 25.779567 47.33375 25.779822 47.333545 C 25.796789 47.314734 25.820295 47.12134 25.848551 46.751668 C 25.940851 45.543298 26.122995 41.151614 26.253695 36.992574 C 26.384295 32.833544 26.549631 28.005296 26.621631 26.262996 C 26.694631 24.520696 26.707637 23.117774 26.652637 23.145874 z M 33.474443 23.635767 C 33.446655 23.640274 33.426589 23.702417 33.420182 23.810433 L 33.418632 23.810433 C 33.413832 23.979003 33.458851 24.0605 33.517851 23.9913 C 33.578851 23.92212 33.581669 23.783742 33.527669 23.684342 C 33.508155 23.64861 33.490031 23.633238 33.474443 23.635767 z M 44.912504 24.627954 L 44.800883 29.277283 C 44.739283 31.834523 44.665518 37.740436 44.635518 42.401546 L 44.639136 42.401546 C 44.610136 47.062646 44.626343 50.856339 44.676343 50.832039 C 44.725743 50.807699 44.823384 48.551042 44.893384 45.816842 C 44.963484 43.082652 45.076048 40.77639 45.145048 40.69209 C 45.213448 40.60776 45.172931 40.510582 45.055131 40.476082 C 44.910231 40.434902 44.908512 40.299158 45.045312 40.082308 C 45.178312 39.871238 45.191936 37.015676 45.083036 32.189766 L 44.912504 24.627954 z M 5.2332723 25.225334 C 5.2031991 25.226863 5.1828825 25.264208 5.176945 25.334888 C 5.167545 25.442618 5.2181164 25.50273 5.2901164 25.46873 C 5.3611164 25.43477 5.3691696 25.346676 5.3071696 25.272876 C 5.2790571 25.239746 5.2538487 25.224287 5.2332723 25.225334 z M 15.819706 27.14873 C 15.790308 27.15012 15.76958 27.235908 15.76958 27.386959 L 15.763379 27.386959 C 15.761379 27.612069 15.80343 27.715652 15.85743 27.617952 C 15.91743 27.520252 15.918249 27.336302 15.867249 27.209192 C 15.850186 27.167481 15.834064 27.148052 15.819706 27.14873 z M 29.567187 28.658716 C 29.548251 28.665736 29.526717 28.822 29.503109 29.123804 C 29.296009 31.771814 29.105903 39.493401 28.945003 51.809241 C 28.871003 57.485771 28.860165 62.106998 28.919165 62.078898 C 28.979065 62.050798 29.093413 58.740254 29.173413 54.721724 C 29.253313 50.703194 29.408395 45.8975 29.518095 44.04279 C 29.627395 42.18808 29.70356 37.636021 29.68656 33.926611 C 29.670092 30.365752 29.631758 28.652329 29.567704 28.658716 L 29.567187 28.658716 z M 10.227283 32.156177 C 10.241893 32.153468 10.258844 32.172944 10.276375 32.216638 L 10.282576 32.216638 C 10.328576 32.343748 10.326241 32.527699 10.272241 32.625399 C 10.218241 32.723099 10.17819 32.618698 10.17819 32.393888 C 10.179503 32.246337 10.19939 32.161348 10.227283 32.156177 z M 44.878914 35.443831 C 44.899429 35.442786 44.924261 35.459003 44.951778 35.49189 C 45.013493 35.565586 45.006622 35.653276 44.934725 35.687227 C 44.862725 35.721177 44.81207 35.661115 44.82207 35.553385 C 44.828186 35.482729 44.848834 35.445365 44.878914 35.443831 z M 16.708541 38.11602 C 16.658533 38.130511 16.5511 39.257093 16.288928 41.846541 C 15.965428 45.040661 15.478237 54.219853 15.543237 55.897363 C 15.546568 55.983423 15.552975 56.029502 15.561324 56.038957 L 15.561841 56.039473 L 15.562358 56.039473 L 15.562874 56.03999 L 15.563391 56.040507 L 15.563908 56.040507 L 15.564425 56.040507 L 15.564941 56.040507 L 15.565458 56.040507 L 15.565975 56.040507 L 15.566492 56.03999 L 15.567008 56.039473 C 15.604511 56.006701 15.676301 55.408285 15.749426 54.466443 C 15.845426 53.229973 16.121742 50.08032 16.363342 47.46687 C 16.605042 44.85342 16.787486 41.54236 16.768486 40.10918 C 16.75173 38.832015 16.749327 38.1042 16.708541 38.11602 z M 21.769731 41.799516 C 21.645331 41.763016 21.576447 43.843273 21.591447 47.234843 L 21.588346 47.234843 C 21.600375 50.070002 21.622837 51.350916 21.671029 51.377743 C 21.671589 51.377885 21.673045 51.377934 21.673612 51.377743 C 21.696167 51.363586 21.72501 51.089116 21.759912 50.583476 C 21.994012 47.238936 21.998031 41.866516 21.769731 41.799516 z M 36.382792 45.831311 C 36.068292 49.278521 35.80088 55.976362 35.87688 58.502372 C 35.91468 59.766952 35.971487 63.997746 36.003487 67.903866 L 36.061365 75.005758 L 36.205542 69.538908 C 36.479042 59.151708 36.596292 43.491851 36.382792 45.831311 z M 5.8998983 46.546513 C 5.8570983 46.799433 5.6706533 52.225632 5.4854533 58.604692 C 5.2457533 66.869922 5.1978719 72.170531 5.3195719 77.049561 L 5.321639 77.049561 C 5.4144015 80.768645 5.4657937 82.356955 5.5149089 82.39187 C 5.5421499 82.400743 5.5697002 81.933021 5.6027588 81.086007 C 5.6632588 79.540417 5.7365731 73.401485 5.7665731 67.443945 C 5.7960731 61.486415 5.8558983 54.24378 5.8998983 51.34932 C 5.9418983 48.45486 5.9428983 46.293603 5.8998983 46.546513 z M 17.949809 47.926274 L 17.92087 49.254358 C 17.90517 49.984998 17.980618 52.353256 18.088818 54.517086 C 18.197018 56.680906 18.364338 60.038086 18.459338 61.977096 C 18.643838 65.730636 18.65099 93.183538 18.47019 104.436 L 18.470707 104.436 C 18.412187 108.07874 18.402535 109.64939 18.454171 109.67754 C 18.479434 109.68248 18.519652 109.32909 18.575094 108.67657 C 18.921994 104.59871 18.905423 63.113687 18.554423 56.356767 C 18.392423 53.237497 18.189838 50.064258 18.104838 49.305518 L 17.949809 47.926274 z M 9.568925 52.520825 C 9.5350503 52.524411 9.5115641 52.581838 9.5115641 52.678438 C 9.5115641 52.818968 9.5616014 52.876279 9.6206014 52.806079 C 9.6796014 52.735829 9.6796014 52.621098 9.6206014 52.550798 C 9.6019451 52.528844 9.5843226 52.519195 9.568925 52.520825 z M 44.488757 52.91615 C 44.48815 52.916339 44.487289 52.916837 44.48669 52.917183 C 44.46205 52.934789 44.444316 53.087372 44.444316 53.34248 L 44.446383 53.34248 C 44.445687 53.616072 44.464633 53.783279 44.491858 53.798783 C 44.493398 53.799463 44.495951 53.800106 44.497542 53.799817 C 44.507792 53.796711 44.519899 53.773339 44.531649 53.727987 C 44.577649 53.546577 44.577649 53.224795 44.531649 53.012785 C 44.519164 52.956467 44.50687 52.925318 44.495992 52.9177 C 44.494402 52.916781 44.491847 52.916072 44.490308 52.91615 C 44.490002 52.916205 44.489061 52.916055 44.488757 52.91615 z M 2.2272542 53.122339 C 2.197181 53.123868 2.1768644 53.161213 2.1709269 53.231893 C 2.1615269 53.339613 2.2120983 53.399735 2.2840983 53.365735 C 2.3550983 53.331785 2.3631515 53.243681 2.3011515 53.169881 C 2.273039 53.136751 2.2478306 53.121292 2.2272542 53.122339 z M 2.256193 53.618949 C 2.129693 53.677299 2.1235745 85.244672 2.2463745 85.684692 C 2.2856745 85.825202 2.3990723 88.767845 2.4990723 92.224345 L 2.5026896 92.224345 C 2.6025896 95.680845 2.7206891 98.347825 2.7646891 98.151115 C 2.8087891 97.954415 2.7817109 92.574316 2.7037109 86.195256 C 2.5259109 71.596616 2.4719067 66.553728 2.4169067 59.328678 C 2.3927067 56.157878 2.320193 53.588549 2.256193 53.618949 z M 24.867733 55.518058 C 24.839945 55.522565 24.819879 55.584715 24.813472 55.692725 L 24.811922 55.692725 C 24.807222 55.861305 24.852141 55.942792 24.911141 55.873592 C 24.972141 55.804402 24.975959 55.666551 24.920959 55.567151 C 24.901445 55.531418 24.883321 55.51553 24.867733 55.518058 z M 24.889437 56.292171 C 24.862939 56.302926 24.844478 56.475725 24.844478 56.765527 C 24.844478 57.052016 24.862417 57.223078 24.888403 57.237333 C 24.889306 57.2377 24.8911 57.238377 24.892021 57.238367 C 24.903139 57.236732 24.91629 57.207726 24.929228 57.14845 C 24.975228 56.93769 24.975228 56.592848 24.929228 56.382088 C 24.916376 56.324459 24.903967 56.295757 24.893054 56.292688 C 24.892125 56.292552 24.890347 56.29193 24.889437 56.292171 z M 11.730033 56.947945 C 11.70118 56.94968 11.680269 57.012478 11.673706 57.123128 L 11.672156 57.123128 C 11.667356 57.291698 11.712375 57.373196 11.771375 57.303996 C 11.832375 57.234816 11.836193 57.096438 11.781193 56.997038 C 11.762527 56.962862 11.745147 56.947036 11.730033 56.947945 z M 44.28877 56.964998 L 44.288253 56.965515 L 44.287736 56.966032 C 44.267068 57.00772 44.252526 57.775009 44.252596 59.064612 C 44.252596 60.339725 44.266437 61.090202 44.286702 61.127535 L 44.287219 61.128052 L 44.287736 61.128052 L 44.287736 61.128569 L 44.288253 61.128569 L 44.28877 61.128569 L 44.289286 61.128569 L 44.289803 61.128052 C 44.298241 61.113499 44.307724 60.980856 44.317708 60.718774 C 44.353708 59.773794 44.353708 58.25611 44.317708 57.34637 C 44.308146 57.104723 44.299007 56.981988 44.290837 56.966549 L 44.290837 56.966032 L 44.29032 56.965515 L 44.289803 56.964998 L 44.289286 56.964998 L 44.28877 56.964998 z M 15.418697 57.317432 L 15.41818 57.317948 L 15.417664 57.317948 L 15.417664 57.318465 C 15.395452 57.344703 15.37994 57.680666 15.37994 58.247091 L 15.380973 58.247091 C 15.380278 58.833253 15.396291 59.185382 15.419731 59.209306 L 15.420247 59.209823 L 15.420764 59.209823 L 15.421281 59.210339 L 15.421798 59.210339 L 15.422314 59.210339 L 15.422831 59.210339 L 15.423348 59.210339 L 15.423348 59.209823 L 15.423865 59.209823 C 15.432926 59.202137 15.443267 59.148332 15.453837 59.043941 C 15.493837 58.639041 15.494837 57.948841 15.453837 57.510701 C 15.442626 57.390895 15.432335 57.328998 15.422831 57.318982 L 15.422314 57.318465 L 15.421798 57.317948 L 15.421281 57.317948 L 15.421281 57.317432 L 15.420764 57.317432 L 15.420247 57.317432 L 15.419731 57.317432 L 15.419214 57.317432 L 15.418697 57.317432 z M 11.742952 57.679167 C 11.716749 57.687878 11.698511 57.818517 11.698511 58.042452 L 11.700578 58.042452 C 11.699882 58.276731 11.718673 58.421224 11.74657 58.43571 C 11.758569 58.440648 11.772847 58.422387 11.787394 58.376799 C 11.834394 58.223249 11.835394 57.947069 11.787394 57.763399 C 11.774269 57.71318 11.76157 57.686167 11.750187 57.6802 C 11.748571 57.67952 11.746066 57.678993 11.744503 57.679167 C 11.744192 57.679235 11.743261 57.679064 11.742952 57.679167 z M 24.728723 57.991809 C 24.446323 57.991819 24.224408 69.819438 24.472408 71.639038 C 24.548944 72.200514 24.636185 72.653802 24.671879 72.681868 C 24.672165 72.682041 24.673151 72.682787 24.673429 72.682902 L 24.673946 72.682902 L 24.674463 72.682902 L 24.67498 72.682902 L 24.675496 72.682902 L 24.676013 72.682902 L 24.67653 72.682902 C 24.81153 72.618652 24.863923 57.991809 24.728723 57.991809 z M 32.440397 59.870247 L 32.43988 59.870764 L 32.439364 59.870764 L 32.439364 59.871281 C 32.418719 59.908205 32.403775 60.54373 32.403707 61.619495 L 32.40474 61.619495 C 32.404045 62.713701 32.418152 63.365003 32.439364 63.401815 L 32.43988 63.402332 L 32.440397 63.402848 L 32.440397 63.403365 L 32.440914 63.403365 L 32.441431 63.403365 L 32.441947 63.403365 L 32.442464 63.402848 C 32.450855 63.390317 32.460541 63.285793 32.470369 63.081421 C 32.506369 62.312031 32.506369 61.024397 32.470369 60.220097 C 32.460526 60.000171 32.451537 59.887844 32.442981 59.872314 L 32.442464 59.871798 L 32.441947 59.871281 L 32.441431 59.870764 L 32.441431 59.870247 L 32.440914 59.870247 L 32.440397 59.870247 z M 11.559501 60.495015 L 11.405505 63.458659 C 11.210005 67.226489 11.013342 72.624561 10.894942 77.458321 C 10.849708 79.30485 10.836293 80.165968 10.86342 80.211125 L 10.863936 80.211641 L 10.864453 80.212158 L 10.86497 80.212675 L 10.865487 80.212675 L 10.866003 80.212675 C 10.886269 80.199451 10.925406 79.826574 10.984859 79.144523 C 11.323659 75.259583 11.629641 67.692877 11.594641 64.081877 L 11.559501 60.495015 z M 28.710909 65.03324 C 28.696426 65.048512 28.676089 65.285459 28.650964 65.757743 C 28.562664 67.415733 28.436945 71.807428 28.372945 75.516838 C 28.321228 78.491679 28.318047 80.157648 28.358993 80.214225 L 28.359509 80.214742 C 28.359733 80.21486 28.360833 80.21575 28.36106 80.215776 L 28.361576 80.215259 C 28.376403 80.205096 28.396963 80.005521 28.422038 79.604443 C 28.513438 78.143153 28.639057 73.751479 28.700057 69.845349 C 28.747926 66.78967 28.751047 65.082699 28.713493 65.034273 L 28.712976 65.033757 L 28.712459 65.03324 C 28.712248 65.033271 28.711123 65.03311 28.710909 65.03324 z M 21.988322 68.721387 C 21.894122 67.523107 21.817019 71.226666 21.794019 78.011776 C 21.773019 84.217546 21.791876 89.275833 21.835876 89.252433 C 22.167276 89.075853 22.289822 72.562547 21.988322 68.721387 z M 20.742403 69.659831 C 20.741842 69.659901 20.740907 69.660109 20.740336 69.660347 C 20.725921 69.668402 20.70753 69.729558 20.686593 69.845349 C 20.590093 70.379279 20.463473 72.218755 20.405473 73.932955 C 20.358387 75.325666 20.365907 76.225787 20.417358 76.265629 C 20.417611 76.265782 20.418653 76.26655 20.418909 76.266663 C 20.419166 76.266734 20.4202 76.266633 20.420459 76.266663 C 20.42072 76.266651 20.421746 76.266715 20.422009 76.266663 C 20.422275 76.266568 20.423292 76.266282 20.42356 76.266146 C 20.434894 76.258687 20.448937 76.213919 20.463867 76.12972 C 20.553567 75.6239 20.68047 73.784931 20.74447 72.042631 C 20.80008 70.546347 20.798918 69.695212 20.746021 69.660864 C 20.745751 69.660732 20.744743 69.660438 20.74447 69.660347 C 20.744195 69.660299 20.743198 69.659837 20.74292 69.659831 L 20.742403 69.659831 z M 45.170369 71.275753 C 44.993669 71.362893 44.821376 75.80039 44.674276 84.04965 L 44.673759 84.04965 C 44.596759 88.4054 44.580686 91.946004 44.640686 91.917904 C 44.699886 91.889814 44.811733 90.532991 44.888733 88.903101 C 45.080533 84.852381 45.298469 71.212553 45.170369 71.275753 z M 14.073043 74.070414 C 14.043179 74.071943 14.02273 74.109282 14.016199 74.179968 C 14.006899 74.287688 14.05737 74.34781 14.12937 74.31381 C 14.20037 74.27985 14.208423 74.191757 14.146423 74.117957 C 14.118351 74.084823 14.093476 74.069368 14.073043 74.070414 z M 13.977958 75.925598 C 13.677558 78.378178 13.30877 88.329009 13.24777 95.647909 C 13.20897 100.26429 13.24719 102.15987 13.35319 100.85948 C 13.81349 95.210892 14.378858 72.652758 13.977958 75.925598 z M 39.91591 79.777043 C 39.901362 79.789221 39.881734 79.95019 39.858549 80.268486 C 39.766349 81.533066 39.639396 85.46462 39.576396 89.00542 C 39.525011 91.870424 39.522934 93.483418 39.565544 93.53641 C 39.565772 93.536603 39.566863 93.537337 39.567094 93.537443 L 39.567611 93.537443 C 39.567846 93.537373 39.568923 93.537084 39.569161 93.536926 L 39.569678 93.53641 C 39.584258 93.516422 39.604094 93.337192 39.627555 92.990706 C 39.718955 91.641826 39.845709 87.710272 39.909709 84.253772 C 39.962284 81.422552 39.963931 79.81946 39.91901 79.777559 C 39.918774 79.777426 39.917699 79.777091 39.91746 79.777043 C 39.917219 79.777079 39.916154 79.776921 39.91591 79.777043 z M 25.50697 81.643595 C 25.473128 81.647181 25.450126 81.704608 25.450126 81.801208 C 25.450126 81.941738 25.499647 81.999049 25.558647 81.928849 C 25.618647 81.858599 25.618647 81.743768 25.558647 81.673568 C 25.540022 81.651615 25.522353 81.641965 25.50697 81.643595 z M 15.075049 82.414608 C 14.827064 82.448376 14.78762 86.777636 15.004769 90.317485 L 15.005286 90.317485 C 15.083386 91.591145 15.179776 92.633105 15.220776 92.633105 C 15.259776 92.633105 15.29364 90.334017 15.29364 87.523857 C 15.29364 84.185727 15.218849 82.414608 15.078149 82.414608 C 15.077171 82.414608 15.076021 82.414475 15.075049 82.414608 z M 33.774683 82.6394 C 33.737045 82.639827 33.673379 82.668361 33.601567 82.721049 C 33.486867 82.805349 33.392794 82.920131 33.392794 82.976331 C 33.392794 83.032521 33.486767 83.009471 33.601567 82.925171 C 33.716467 82.840861 33.810339 82.726089 33.810339 82.669889 C 33.810339 82.648814 33.797265 82.639144 33.774683 82.6394 z M 33.343701 83.149963 C 33.306072 83.15039 33.242335 83.179441 33.170585 83.232129 C 33.055785 83.316429 32.961812 83.43121 32.961812 83.48741 C 32.961812 83.5436 33.055685 83.520551 33.170585 83.436251 C 33.285385 83.351941 33.379358 83.237169 33.379358 83.180969 C 33.379358 83.159894 33.366279 83.149707 33.343701 83.149963 z M 36.101672 83.653292 C 36.063672 83.674392 35.967249 87.048712 35.888249 91.151542 C 35.809249 95.254372 35.698302 100.47358 35.643302 102.7498 C 35.463902 110.08659 35.36639 125.1349 35.48879 126.68891 L 35.488273 126.68891 C 35.553673 127.51871 35.630322 128.18537 35.659322 128.17047 C 35.930322 128.03028 36.006552 123.90681 36.082552 105.21477 C 36.132552 93.334791 36.139672 83.632192 36.101672 83.653292 z M 5.4565145 83.982471 C 5.4264622 83.983999 5.4056079 84.021339 5.3996704 84.092025 C 5.3902704 84.199745 5.4408418 84.260383 5.5128418 84.226383 C 5.5838418 84.192423 5.591895 84.10433 5.529895 84.03053 C 5.5018231 83.997396 5.4770766 83.981425 5.4565145 83.982471 z M 25.501803 84.113212 C 25.501574 84.113182 25.501001 84.113666 25.500769 84.113729 C 25.482738 84.12571 25.456365 84.412378 25.422738 84.968974 C 25.332838 86.458354 25.244884 88.849671 25.226884 90.282861 L 25.193811 92.888904 L 24.347868 94.060925 C 23.897302 94.68544 23.558271 95.214593 23.574788 95.264986 C 23.574867 95.265174 23.575215 95.266365 23.575305 95.266536 L 23.575822 95.266536 L 23.575822 95.267053 L 23.576339 95.26757 L 23.576855 95.268087 L 23.577372 95.268604 C 23.577611 95.268717 23.578154 95.268509 23.578406 95.268604 C 23.645596 95.288052 24.128962 94.718657 24.664644 93.987028 C 24.716044 93.916798 24.861089 93.859387 24.986589 93.859387 C 25.133389 93.859387 25.176478 94.084278 25.106478 94.498108 C 25.046878 94.849378 24.931163 96.378353 24.850163 97.895833 C 24.768863 99.413333 24.684611 100.8849 24.663611 101.16592 C 24.642311 101.44694 24.56883 104.89581 24.50083 108.83005 L 24.501347 108.83005 C 24.377447 115.96598 24.468467 115.49816 24.958167 106.47981 C 25.260067 100.92024 25.395203 96.46324 25.501803 88.5455 C 25.541089 85.626555 25.541826 84.168364 25.503353 84.114762 L 25.502836 84.114246 L 25.502319 84.113729 L 25.501803 84.113212 z M 32.41766 84.175741 C 32.361617 84.178399 32.266567 84.259299 32.191317 84.373661 C 32.105017 84.504351 31.816529 84.841433 31.550529 85.122453 C 31.284529 85.403473 31.003278 85.748304 30.926278 85.888814 L 30.785201 86.144096 L 31.105078 85.879513 C 31.543478 85.516733 32.551364 84.232458 32.439364 84.179358 C 32.433126 84.176394 32.425666 84.175361 32.41766 84.175741 z M 30.739726 86.235563 C 30.65435 86.242026 30.15668 86.771849 29.609045 87.441691 C 29.043945 88.133141 28.406161 88.882919 28.191561 89.107739 C 27.977061 89.332549 27.609473 89.780891 27.375073 90.104061 C 27.157247 90.404499 27.007527 90.65438 27.023674 90.688005 C 27.023992 90.688508 27.024811 90.689691 27.025224 90.690072 L 27.025741 90.690588 C 27.025995 90.690716 27.027012 90.691009 27.027291 90.691105 C 27.027896 90.691233 27.029172 90.691622 27.029875 90.691622 C 27.168275 90.691622 29.079879 88.651839 29.079879 88.504159 C 29.079879 88.467189 29.479797 87.953376 29.968197 87.362626 C 30.456597 86.771876 30.806444 86.265197 30.746444 86.236597 C 30.744559 86.235703 30.74248 86.235355 30.739726 86.235563 z M 21.87205 89.703052 C 21.871133 89.703217 21.869847 89.703566 21.868949 89.704085 C 21.844309 89.721692 21.826575 89.874268 21.826575 90.129382 L 21.828642 90.129382 C 21.827946 90.402967 21.846893 90.570181 21.874117 90.585685 C 21.875349 90.586229 21.877503 90.587311 21.878768 90.587236 C 21.889273 90.585324 21.901791 90.561658 21.913908 90.514889 C 21.959908 90.333489 21.959908 90.011707 21.913908 89.799687 C 21.901056 89.741715 21.888348 89.711036 21.877218 89.704602 C 21.875953 89.704027 21.873798 89.70299 21.872567 89.703052 L 21.87205 89.703052 z M 42.719356 89.822941 L 42.729175 96.516589 C 42.736575 102.20247 42.766579 102.83769 42.926579 100.73907 C 43.034879 99.299886 43.030943 96.506069 42.916243 94.045939 L 42.719356 89.822941 z M 31.092159 92.975203 C 31.062107 92.976732 31.041769 93.014072 31.035832 93.084757 C 31.026532 93.192377 31.076486 93.252499 31.148486 93.218599 C 31.220486 93.184639 31.22754 93.096546 31.16554 93.022746 C 31.137468 92.989612 31.112721 92.974158 31.092159 92.975203 z M 31.004309 94.523429 C 30.780609 96.174189 30.61875 110.5772 30.78055 114.09278 L 30.910258 116.90294 L 31.021362 112.6107 C 31.197562 105.74584 31.186409 93.162129 31.004309 94.523429 z M 23.418209 95.414331 C 23.386893 95.416871 23.335274 95.441889 23.263696 95.49443 C 23.148796 95.57872 23.056809 95.716671 23.066809 95.800871 C 23.074609 95.901931 23.141696 95.884461 23.263696 95.749711 C 23.446618 95.547836 23.498237 95.40784 23.418209 95.414331 z M 39.333 98.734025 L 39.332483 98.734542 L 39.331966 98.735059 C 39.310564 98.76545 39.295276 99.239751 39.295276 100.04196 L 39.296309 100.04196 C 39.296309 100.86261 39.311093 101.35251 39.333 101.38244 L 39.333516 101.38296 L 39.334033 101.38348 L 39.33455 101.38399 L 39.335067 101.38399 L 39.335583 101.38399 L 39.3361 101.38399 L 39.336617 101.38348 L 39.337134 101.38348 L 39.337134 101.38296 C 39.345589 101.37082 39.355759 101.2935 39.365556 101.14576 C 39.403556 100.57273 39.403556 99.607409 39.365556 99.000159 C 39.355165 98.834117 39.345062 98.748159 39.3361 98.735575 L 39.335583 98.735059 L 39.335067 98.735059 L 39.335067 98.734542 L 39.33455 98.734025 L 39.334033 98.734025 L 39.333516 98.734025 L 39.333 98.734025 z M 4.312915 101.01244 C 4.041215 106.44284 3.9941898 109.53005 4.1795898 109.78813 C 4.3008898 109.95592 4.2812111 110.00923 4.1155111 109.96073 C 3.9420111 109.90986 3.8840874 111.66718 3.9020874 116.4115 L 3.9015706 116.4115 C 3.9155706 119.99777 3.9597559 122.86285 3.9997559 122.77855 C 4.1669559 122.4255 4.3038794 117.11061 4.3888794 107.70609 C 4.4451794 101.44727 4.416715 98.936814 4.312915 101.01244 z M 44.587459 101.57468 C 44.492759 102.24912 44.345898 105.62882 44.261898 109.08533 L 44.262931 109.08533 C 44.178931 112.54182 44.165993 115.34511 44.233993 115.31441 C 44.506093 115.19242 44.582625 113.76646 44.669625 107.19501 C 44.721025 103.27788 44.686459 100.8731 44.587459 101.57468 z M 0 102.57668 L 0 126.16129 L 0.10541992 128.2454 L 0.27491862 122.06335 C 0.37691862 118.358 0.35537513 113.26084 0.22117513 109.34113 C 0.13372308 106.78577 0.049149921 104.1887 0 102.57668 z M 39.121643 105.40649 L 39.121126 105.407 C 39.101153 105.44568 39.08702 106.37868 39.08702 107.96137 C 39.08702 109.54406 39.100595 110.47654 39.12061 110.51522 L 39.121126 110.51573 L 39.121126 110.51625 L 39.121643 110.51625 L 39.12216 110.51625 L 39.122677 110.51573 C 39.130859 110.50297 39.140358 110.34614 39.150065 110.03049 C 39.185065 108.89237 39.185065 107.03036 39.150065 105.89224 C 39.140635 105.57659 39.131342 105.41976 39.123193 105.407 L 39.123193 105.40649 L 39.122677 105.40649 L 39.12216 105.40649 L 39.121643 105.40649 z M 27.675313 107.94483 C 27.643626 107.94645 27.622087 108.02718 27.622087 108.16549 C 27.622087 108.36223 27.666272 108.44321 27.720272 108.34481 C 27.775272 108.24645 27.775272 108.08509 27.720272 107.98669 C 27.704241 107.95749 27.688692 107.94415 27.675313 107.94483 z M 27.797786 110.72037 C 27.649986 108.59866 27.652268 108.53344 27.522868 120.17251 C 27.512868 121.07176 27.537678 123.16437 27.578678 124.82236 L 27.653092 127.83664 L 27.797786 125.28228 C 27.985286 121.97931 27.985186 113.4118 27.797786 110.72037 z M 42.21086 110.92501 C 42.13036 112.75161 41.986533 117.38556 41.892533 121.22309 C 41.733033 127.70007 41.746252 128.19563 42.078052 128.13533 C 42.407252 128.07528 42.432379 127.285 42.396379 117.83725 C 42.368379 110.5102 42.31566 108.54712 42.21086 110.92501 z M 18.400427 111.27796 C 18.366553 111.28155 18.343583 111.33897 18.343583 111.43558 C 18.343583 111.57601 18.393104 111.63342 18.452104 111.56322 C 18.511104 111.49298 18.511104 111.37813 18.452104 111.30793 C 18.433447 111.28598 18.415825 111.27633 18.400427 111.27796 z M 10.254671 111.2945 L 10.254154 111.29502 L 10.253638 111.29553 L 10.253121 111.29605 C 10.232328 111.33579 10.217981 111.92443 10.217981 112.91766 L 10.219014 112.91766 C 10.219014 113.93371 10.233395 114.53903 10.254671 114.57389 L 10.255188 114.5744 L 10.255188 114.57492 L 10.255705 114.57492 L 10.256222 114.57544 L 10.256738 114.57544 L 10.257255 114.57544 L 10.257772 114.57492 C 10.266181 114.56355 10.275849 114.46673 10.285677 114.27726 C 10.321677 113.56398 10.321677 112.36859 10.285677 111.62058 C 10.27556 111.41604 10.265964 111.31126 10.257255 111.29657 L 10.256738 111.29605 L 10.256738 111.29553 L 10.256222 111.29502 L 10.255705 111.2945 L 10.255188 111.2945 L 10.254671 111.2945 z M 44.249495 116.08077 C 44.215621 116.08436 44.192651 116.14179 44.192651 116.23838 C 44.192651 116.37882 44.242172 116.43674 44.301172 116.36654 C 44.360172 116.29629 44.360172 116.18094 44.301172 116.11074 C 44.282516 116.08879 44.264893 116.07914 44.249495 116.08077 z M 10.248987 116.4053 L 10.24847 116.40581 L 10.247953 116.40581 L 10.247437 116.40581 L 10.24692 116.40633 C 10.224116 116.42799 10.207646 116.71849 10.207646 117.20938 C 10.207646 117.7174 10.224893 118.02311 10.248987 118.04499 L 10.248987 118.04551 L 10.249504 118.04551 L 10.25002 118.04602 L 10.250537 118.04602 L 10.251054 118.04602 L 10.251571 118.04602 L 10.252087 118.04602 L 10.252604 118.04602 L 10.253121 118.04602 C 10.262397 118.03981 10.27304 117.99336 10.28361 117.9034 C 10.32461 117.55446 10.32461 116.95651 10.28361 116.5748 C 10.272079 116.46744 10.260991 116.41307 10.251054 116.40633 L 10.250537 116.40581 L 10.25002 116.40581 L 10.249504 116.4053 L 10.248987 116.4053 z M 7.6408773 118.40052 C 7.6406494 118.4006 7.6400714 118.40094 7.6398437 118.40104 L 7.639327 118.40104 C 7.5834728 118.43908 7.5359741 119.26197 7.5359741 120.28361 C 7.5340741 121.34679 7.470931 123.53877 7.395931 125.15463 C 7.273731 127.78362 7.2948691 128.09244 7.5974691 128.09244 C 7.9018691 128.09244 7.9259657 127.6027 7.8439657 123.27206 C 7.7934657 120.62083 7.7045282 118.42894 7.6455282 118.40104 C 7.6452987 118.40096 7.6442071 118.40058 7.6439779 118.40052 L 7.6434611 118.40052 C 7.6432324 118.40052 7.6421392 118.4005 7.6419108 118.40052 L 7.641394 118.40052 L 7.6408773 118.40052 z M 12.618868 119.88312 L 12.618351 119.88364 L 12.617834 119.88364 C 12.594143 119.90299 12.578044 120.21312 12.578044 120.73475 C 12.578044 121.25048 12.594085 121.55918 12.617318 121.58483 L 12.617834 121.58534 L 12.618351 121.58586 L 12.618868 121.58586 L 12.619385 121.58638 L 12.619902 121.58638 L 12.620418 121.58638 L 12.620935 121.58638 L 12.621452 121.58638 L 12.621969 121.58638 L 12.621969 121.58586 L 12.622485 121.58586 C 12.631986 121.5779 12.643117 121.5254 12.654008 121.42463 C 12.695008 121.04525 12.695008 120.42424 12.654008 120.04487 C 12.642852 119.9441 12.632025 119.89212 12.622485 119.88416 L 12.621969 119.88364 L 12.621452 119.88364 L 12.620935 119.88312 L 12.620418 119.88312 L 12.619902 119.88312 L 12.619385 119.88312 L 12.618868 119.88312 z M 12.403377 122.60285 L 12.402861 122.60337 L 12.402344 122.60337 L 12.401827 122.60337 L 12.401827 122.60389 C 12.401554 122.60409 12.400548 122.60465 12.400277 122.60492 C 12.377163 122.63434 12.361003 122.91942 12.361003 123.39143 C 12.361003 123.86341 12.37717 124.14851 12.400277 124.17795 C 12.400547 124.17822 12.401554 124.1793 12.401827 124.1795 L 12.402344 124.18002 L 12.402861 124.18002 L 12.403377 124.18002 L 12.403894 124.18002 L 12.404411 124.18002 L 12.404928 124.18002 L 12.405444 124.18002 L 12.405961 124.18002 L 12.406478 124.1795 C 12.416122 124.17214 12.426844 124.12346 12.438 124.03016 C 12.48 123.67889 12.48 123.10451 12.438 122.75323 C 12.426579 122.65992 12.416161 122.61126 12.406478 122.60389 L 12.405961 122.60389 L 12.405444 122.60337 L 12.404928 122.60337 L 12.404411 122.60337 L 12.403894 122.60337 L 12.403894 122.60285 L 12.403377 122.60285 z M 15.176851 122.67623 C 15.136751 122.76054 15.065722 124.01203 15.018722 125.45694 L 15.018205 125.45694 C 14.971405 126.90183 15.00837 128.06208 15.10037 128.03508 C 15.19197 128.00811 15.269017 126.75661 15.259017 125.25437 C 15.254017 123.75214 15.216851 122.59193 15.176851 122.67623 z M 3.7351725 123.83585 C 3.7050993 123.83738 3.6847827 123.87473 3.6788452 123.94541 C 3.6695452 124.05313 3.7200166 124.11325 3.7920166 124.07925 C 3.8640166 124.04529 3.8710698 123.95719 3.8090698 123.88339 C 3.7809573 123.85026 3.7557489 123.8348 3.7351725 123.83585 z M 31.576367 124.15831 L 31.459578 126.0998 C 31.394578 127.16766 31.372419 128.07556 31.408419 128.11776 L 31.409452 128.11776 C 31.621452 128.36173 31.661326 127.99364 31.621326 126.17628 L 31.576367 124.15831 z M 3.7904663 124.92054 L 3.7899495 124.92106 L 3.7894328 124.92106 L 3.7894328 124.92157 C 3.7676315 124.94953 3.751709 125.39748 3.751709 126.15096 C 3.751709 126.90441 3.7665684 127.35185 3.7883993 127.37982 L 3.788916 127.37982 L 3.788916 127.38034 L 3.7894328 127.38086 L 3.7899495 127.38086 L 3.7904663 127.38086 L 3.7909831 127.38086 L 3.7914998 127.38086 L 3.7920166 127.38034 L 3.7925334 127.37982 C 3.8013328 127.36833 3.8116296 127.29284 3.8219889 127.14728 C 3.8609889 126.59929 3.8609889 125.7026 3.8219889 125.15463 C 3.8118952 125.00907 3.8023267 124.93359 3.7935669 124.92209 L 3.7930501 124.92157 L 3.7925334 124.92106 L 3.7920166 124.92106 L 3.7920166 124.92054 L 3.7914998 124.92054 L 3.7909831 124.92054 L 3.7904663 124.92054 z M 12.184786 126.02642 L 12.184269 126.02693 C 12.183389 126.02723 12.18203 126.02774 12.181169 126.02848 C 12.156384 126.05434 12.139311 126.26654 12.139311 126.61036 L 12.138277 126.61036 C 12.138933 126.94235 12.154614 127.1405 12.178068 127.16123 C 12.178631 127.16162 12.18008 127.16207 12.180652 127.16226 L 12.181169 127.16278 L 12.181685 127.16278 L 12.182202 127.16278 L 12.182719 127.16278 L 12.183236 127.16278 C 12.194111 127.15879 12.206918 127.11952 12.219926 127.04186 C 12.265926 126.77321 12.264926 126.35919 12.219926 126.12202 C 12.208324 126.06087 12.197312 126.03026 12.18737 126.02693 L 12.186853 126.02642 L 12.186336 126.02642 L 12.185819 126.02642 L 12.185303 126.02642 L 12.184786 126.02642 z M 17.344678 127.23461 C 17.316643 127.2425 17.297135 127.36885 17.297135 127.58136 C 17.297135 127.79637 17.316602 127.92288 17.345194 127.92811 C 17.357491 127.92918 17.372209 127.90837 17.387052 127.86248 C 17.437052 127.70791 17.437052 127.4548 17.387052 127.30024 C 17.372123 127.25315 17.357705 127.23231 17.345194 127.23461 L 17.344678 127.23461 z M 21.420915 127.62787 C 21.384509 127.62648 21.35942 127.685 21.35942 127.786 C 21.35942 127.92642 21.40894 127.98384 21.46794 127.91364 C 21.52694 127.84338 21.52694 127.72804 21.46794 127.65784 C 21.45115 127.63808 21.43516 127.62841 21.420915 127.62787 z M 11.943457 127.76429 C 11.91567 127.7688 11.895603 127.83095 11.889197 127.93896 L 11.887646 127.93896 C 11.882946 128.10764 11.928348 128.18893 11.986348 128.11983 C 12.047348 128.05064 12.051684 127.91279 11.996684 127.81339 C 11.97717 127.77765 11.959045 127.76176 11.943457 127.76429 z " />
  <path
     id="rect238-0"
     style="fill:url(#linearGradient239-8);fill-opacity:1;stroke-width:0.118862"
     d="M 0 75.535958 L 0 125.81299 L 45.720207 125.81299 L 45.720207 75.535958 L 0 75.535958 z " />
  <path
     id="rect4-0"
     style="fill:url(#linearGradient5-2);fill-opacity:1;stroke-width:0.190025"
     d="M 0,0 V 128.50017 H 45.720207 V 0 Z"
     sodipodi:nodetypes="ccccc" />
  <path
     id="rect240-6"
     style="fill:url(#linearGradient240-6);fill-opacity:1;stroke-width:0.118862"
     d="M 0 -25.258923 L 0 -75.535958 L 45.720207 -75.535958 L 45.720207 -25.258923 L 0 -25.258923 z "
     transform="scale(1,-1)" />
  <rect
     style="fill:#464646;fill-opacity:0.984314;stroke-width:0.144545"
     id="rect9-4"
     width="1.2314427"
     height="128.50006"
     x="-0.53750777"
     y="-1.6215161e-05" />
  <rect
     style="fill:#373737;fill-opacity:1;stroke-width:0.144545"
     id="rect10-6"
     width="1.2314427"
     height="128.50006"
     x="3.1567752"
     y="-1.6215161e-05" />
  <rect
     style="fill:#3e3e3e;fill-opacity:1;stroke-width:0.144545"
     id="rect12-6"
     width="1.2314427"
     height="128.50006"
     x="5.6197863"
     y="-1.6215161e-05" />
  <rect
     style="fill:#5a5a5a;stroke-width:0.144545"
     id="rect13-6"
     width="1.2314427"
     height="128.50006"
     x="4.3882809"
     y="-1.6215161e-05" />
  <rect
     style="fill:#464646;fill-opacity:0.984314;stroke-width:0.144545"
     id="rect14-1"
     width="1.2314427"
     height="128.50006"
     x="1.9252771"
     y="-1.6215161e-05" />
  <rect
     style="fill:#373737;fill-opacity:1;stroke-width:0.144545"
     id="rect15-8"
     width="1.2314427"
     height="128.50006"
     x="8.0825205"
     y="-1.6215161e-05" />
  <rect
     style="fill:#4a4a4a;fill-opacity:1;stroke-width:0.144545"
     id="rect16-4"
     width="1.2314427"
     height="128.50006"
     x="10.545524"
     y="-1.6215161e-05" />
  <rect
     style="fill:#3e3e3e;fill-opacity:1;stroke-width:0.144545"
     id="rect17-9"
     width="1.2314427"
     height="128.50006"
     x="9.3140259"
     y="-1.6215161e-05" />
  <rect
     style="fill:#5a5a5a;stroke-width:0.144545"
     id="rect18-6"
     width="1.2314427"
     height="128.50006"
     x="14.239829"
     y="-1.6215161e-05" />
  <rect
     style="fill:#464646;fill-opacity:0.984314;stroke-width:0.144545"
     id="rect19-3"
     width="1.2314427"
     height="128.50006"
     x="13.008316"
     y="-1.6215161e-05" />
  <rect
     style="fill:#373737;fill-opacity:1;stroke-width:0.144545"
     id="rect20-7"
     width="1.2314427"
     height="128.50006"
     x="16.702585"
     y="-1.6215161e-05" />
  <rect
     style="fill:#4a4a4a;fill-opacity:1;stroke-width:0.144545"
     id="rect21-8"
     width="1.2314427"
     height="128.50006"
     x="20.3971"
     y="-1.6215161e-05" />
  <rect
     style="fill:#3e3e3e;fill-opacity:1;stroke-width:0.144545"
     id="rect22-8"
     width="1.2314427"
     height="128.50006"
     x="19.165596"
     y="-1.6215161e-05" />
  <rect
     style="fill:#5a5a5a;stroke-width:0.144545"
     id="rect23-2"
     width="1.2314427"
     height="128.50006"
     x="17.93409"
     y="-1.6215161e-05" />
  <rect
     style="fill:#373737;fill-opacity:1;stroke-width:0.144545"
     id="rect25-3"
     width="1.2314427"
     height="128.50006"
     x="27.785753"
     y="-1.6215161e-05" />
  <rect
     style="fill:#4a4a4a;fill-opacity:1;stroke-width:0.144545"
     id="rect26-5"
     width="1.2314427"
     height="128.50006"
     x="30.248764"
     y="-1.6215161e-05" />
  <rect
     style="fill:#3e3e3e;fill-opacity:1;stroke-width:0.144545"
     id="rect27-9"
     width="1.2314427"
     height="128.50006"
     x="29.01725"
     y="-1.6215161e-05" />
  <rect
     style="fill:#5a5a5a;stroke-width:0.144545"
     id="rect28-8"
     width="1.2314427"
     height="128.50006"
     x="22.860073"
     y="-1.6215161e-05" />
  <rect
     style="fill:#464646;fill-opacity:0.984314;stroke-width:0.144545"
     id="rect29-4"
     width="1.2314427"
     height="128.50006"
     x="32.711594"
     y="-1.6215161e-05" />
  <rect
     style="fill:#373737;fill-opacity:1;stroke-width:0.144545"
     id="rect30-0"
     width="1.2314427"
     height="128.50006"
     x="36.405876"
     y="-1.6215161e-05" />
  <rect
     style="fill:#4a4a4a;fill-opacity:1;stroke-width:0.144545"
     id="rect31-7"
     width="1.2314427"
     height="128.50006"
     x="21.628561"
     y="-1.6215161e-05" />
  <rect
     style="fill:#3e3e3e;fill-opacity:1;stroke-width:0.144545"
     id="rect32-6"
     width="1.2314427"
     height="128.50006"
     x="38.868885"
     y="-1.6215161e-05" />
  <rect
     style="fill:#5a5a5a;stroke-width:0.144545"
     id="rect33-3"
     width="1.2314427"
     height="128.50006"
     x="37.637383"
     y="-1.6215161e-05" />
  <rect
     style="fill:#464646;fill-opacity:0.984314;stroke-width:0.144545"
     id="rect34-6"
     width="1.2314427"
     height="128.50006"
     x="35.174377"
     y="-1.6215161e-05" />
  <rect
     style="fill:#373737;fill-opacity:1;stroke-width:0.144545"
     id="rect35-1"
     width="1.2314427"
     height="128.50006"
     x="41.331619"
     y="-1.6215161e-05" />
  <rect
     style="fill:#4a4a4a;fill-opacity:1;stroke-width:0.144545"
     id="rect36-5"
     width="1.2314427"
     height="128.50006"
     x="43.794624"
     y="-1.6215161e-05" />
  <rect
     style="fill:#3e3e3e;fill-opacity:1;stroke-width:0.144545"
     id="rect37-4"
     width="1.2314427"
     height="128.50006"
     x="42.563126"
     y="-1.6215161e-05" />
  <rect
     style="fill:#464646;fill-opacity:0.984314;stroke-width:0.144545"
     id="rect44-2"
     width="1.2314427"
     height="128.50006"
     x="25.322924"
     y="-1.6215161e-05" />
</svg>
