<?xml version="1.0" encoding="UTF-8" standalone="no"?>
<svg
   width="45.72mm"
   height="128.5mm"
   viewBox="0 0 45.72 128.5"
   version="1.1"
   id="svg1"
   sodipodi:docname="wood.svg"
   inkscape:version="1.4.2 (f4327f4, 2025-05-13)"
   xmlns:inkscape="http://www.inkscape.org/namespaces/inkscape"
   xmlns:sodipodi="http://sodipodi.sourceforge.net/DTD/sodipodi-0.dtd"
   xmlns="http://www.w3.org/2000/svg"
   xmlns:svg="http://www.w3.org/2000/svg">
  <defs
     id="defs1" />
  <sodipodi:namedview
     id="namedview1"
     pagecolor="#ffffff"
     bordercolor="#cccccc"
     borderopacity="1"
     inkscape:showpageshadow="0"
     inkscape:pageopacity="1"
     inkscape:pagecheckerboard="0"
     inkscape:deskcolor="#d1d1d1"
     inkscape:document-units="mm"
     inkscape:zoom="1.2069767"
     inkscape:cx="149.54721"
     inkscape:cy="254.76879"
     inkscape:window-width="1920"
     inkscape:window-height="1009"
     inkscape:window-x="-8"
     inkscape:window-y="-8"
     inkscape:window-maximized="1"
     inkscape:current-layer="svg1" />
  <path
     id="rect3"
     style="fill:#915e2a;fill-opacity:1;stroke-width:0.21187"
     d="M 0 0 L 0 128.50017 L 45.720207 128.50017 L 45.720207 0 L 0 0 z " />
  <path
     id="path4"
     style="fill:#7e5824;fill-opacity:1;stroke-width:0.55108"
     d="M 10.210746 0 C 10.236233 1.2250528 10.258296 2.4312755 10.276892 3.6158 C 10.393841 11.06108 10.614649 22.157184 10.784871 29.132072 C 10.864121 32.379955 10.996799 38.121373 11.079944 41.890466 C 11.2443 49.341176 11.439714 54.693896 11.668022 58.002144 C 11.936641 61.894619 13.045657 74.264771 13.556795 79.071143 C 14.238109 85.477854 14.435372 87.759734 14.592908 91.051807 C 14.773462 94.826776 14.716602 103.76481 14.42961 116.68952 C 14.341155 120.67338 14.304672 124.5935 14.320573 128.50017 L 14.617712 128.50017 C 14.601901 124.59644 14.638875 120.67916 14.727266 116.6983 C 15.014213 103.77363 15.071171 94.835561 14.890564 91.060592 C 14.733126 87.768516 14.535757 85.486617 13.854451 79.079928 C 13.343314 74.273533 12.23427 61.903492 11.965678 58.010929 C 11.737405 54.702713 11.541965 49.349957 11.3776 41.899251 C 11.294428 38.1301 11.161787 32.388739 11.082528 29.140857 C 10.912325 22.165973 10.691497 11.069865 10.574548 3.624585 C 10.555913 2.4372278 10.533965 1.228061 10.508403 0 L 10.210746 0 z M 12.300024 0 C 12.599452 19.699552 12.831201 29.175735 13.199194 38.60953 C 13.313406 41.536596 13.473998 45.89978 13.556278 48.305579 C 13.638558 50.711409 13.773686 54.123259 13.856519 55.887545 C 13.983631 58.593982 14.15898 63.38211 14.269413 66.864136 C 14.390132 68.161416 14.485671 69.253317 14.51746 69.721842 C 14.57086 70.50924 14.637317 71.13058 14.664738 71.103153 C 14.724018 71.043823 14.369023 60.482011 14.153658 55.89633 C 14.070838 54.13205 13.935699 50.720163 13.853418 48.314364 C 13.77114 45.908506 13.610501 41.545412 13.496334 38.618315 C 13.128237 29.183132 12.896677 19.70557 12.597164 0 L 12.300024 0 z M 16.230017 0 C 16.246829 2.7118349 16.261317 5.6196172 16.272909 8.7193644 C 16.342619 27.360602 16.379009 29.841979 16.625859 32.850708 C 17.011534 37.550846 17.169141 41.839127 17.382918 53.40966 C 17.615158 65.983461 17.616078 72.740776 17.388603 94.454183 C 17.169397 115.17339 16.992517 120.84329 16.327686 128.50017 L 16.625859 128.50017 C 17.29006 120.84778 17.466629 115.17421 17.685742 94.462968 C 17.912914 72.749544 17.912547 65.991765 17.680575 53.417928 C 17.466842 41.847425 17.308628 37.559548 16.922998 32.859493 C 16.676085 29.850708 16.63975 27.369444 16.570048 8.7281494 C 16.558442 5.6250947 16.544512 2.7143017 16.527673 0 L 16.230017 0 z M 26.377718 0 C 26.486737 8.3044104 26.649277 13.465792 26.905334 17.102832 C 27.370214 23.706281 27.44108 26.00328 27.352336 31.59187 C 27.133415 45.378019 27.110752 49.399511 27.221594 54.939799 C 27.448298 66.273531 27.255296 68.497258 25.166423 78.607605 C 23.033728 88.930117 22.683736 93.486976 22.31285 115.74126 C 22.227157 120.88333 22.156666 125.06912 22.097876 128.50017 L 22.395015 128.50017 C 22.453778 125.07074 22.523845 120.88777 22.609473 115.75004 C 22.98035 93.495749 23.330947 88.938835 25.463562 78.61639 C 27.552468 68.50598 27.745474 66.282341 27.518734 54.948584 C 27.407919 49.408353 27.430619 45.387378 27.649475 31.601172 C 27.738175 26.012639 27.666675 23.715065 27.201957 17.111617 C 26.945804 13.473304 26.783838 8.3095625 26.674858 0 L 26.377718 0 z M 30.698901 0 C 30.808256 8.0981482 31.056537 12.712525 31.642513 18.269169 C 31.879263 20.51459 32.148314 23.336184 32.240409 24.539071 C 32.451673 27.299015 32.330462 34.968304 32.010966 39.046712 C 31.860321 40.968884 31.774282 43.857387 31.769637 47.139242 C 31.762537 51.785147 31.849277 54.022971 32.373218 62.740873 C 32.819021 70.160317 32.420481 74.396391 30.258101 85.1948 C 28.401665 94.466239 28.362027 94.800634 28.383797 101.08789 C 28.423664 112.62264 29.262519 121.45457 31.028597 128.50017 L 31.323153 128.50017 C 29.558641 121.45602 28.720751 112.62654 28.680937 101.09667 C 28.659097 94.809411 28.698768 94.475515 30.555241 85.204102 C 32.717603 74.405754 33.116721 70.169077 32.670874 62.749658 C 32.146971 54.031756 32.060065 51.793959 32.066777 47.148027 C 32.071277 43.866231 32.157487 40.978211 32.308105 39.056014 C 32.627626 34.977578 32.748857 27.308316 32.537549 24.548372 C 32.445479 23.345457 32.176404 20.523919 31.939653 18.278471 C 31.353464 12.719796 31.105408 8.1036933 30.996041 0 L 30.698901 0 z M 38.121187 0 C 38.195092 2.2623874 38.139499 5.0876959 37.995097 9.156547 C 37.740937 16.318064 37.479567 20.933702 37.016345 26.434562 C 36.793056 29.086625 36.691823 32.034539 36.5988 38.60953 C 36.53132 43.381056 36.436169 47.875804 36.387443 48.59755 C 36.339033 49.3193 36.23276 52.402991 36.151799 55.450362 C 36.070859 58.497737 35.940109 63.12353 35.861377 65.729838 C 35.562511 75.622531 35.779879 93.416736 36.299593 101.59845 C 36.784815 109.23683 37.108529 112.57813 37.909314 118.22017 C 38.455893 122.07105 38.860564 125.29106 39.182621 128.50017 L 39.479244 128.50017 C 39.157329 125.29405 38.752538 122.07679 38.206453 118.22948 C 37.405703 112.58742 37.081956 109.24555 36.596733 101.60723 C 36.077002 93.425459 35.859677 75.63129 36.158516 65.738623 C 36.237316 63.132285 36.367923 58.506547 36.448938 55.459147 C 36.529878 52.411803 36.636042 49.328086 36.685099 48.606335 C 36.733769 47.884586 36.828947 43.389898 36.896456 38.618315 C 36.989446 32.043297 37.090107 29.095929 37.313485 26.443864 C 37.77668 20.942922 38.038602 16.326878 38.292753 9.165332 C 38.437342 5.0911119 38.492666 2.263908 38.418327 0 L 38.121187 0 z M 41.489457 0 C 41.040048 7.5051902 40.958086 8.7364147 40.826965 10.177157 C 39.577024 23.909325 39.588123 23.566526 39.6012 47.066378 C 39.61404 70.098018 39.670492 72.117672 40.54998 81.039498 C 40.812618 83.703775 41.188736 86.706616 43.070756 101.16075 C 43.939844 107.83607 44.19279 111.08896 44.486174 119.38651 C 44.57051 121.77138 44.598317 124.97303 44.580741 128.50017 L 44.878398 128.50017 C 44.895879 124.97659 44.868093 121.77867 44.78383 119.39581 C 44.490446 111.09827 44.237616 107.84486 43.368412 101.16954 C 41.486428 86.715384 41.110264 83.712554 40.847636 81.048283 C 39.968135 72.126548 39.912236 70.106833 39.899373 47.075163 C 39.886273 23.575365 39.874848 23.918081 41.124622 10.185942 C 41.255827 8.7445847 41.337757 7.5130365 41.78763 0 L 41.489457 0 z M 45.620471 0 C 45.330053 1.5227495 44.94775 3.2634747 44.392639 5.657019 C 43.259514 10.543087 42.698506 13.757859 42.331266 17.467151 C 42.085592 19.948817 42.064099 21.914632 42.064099 42.036194 C 42.064099 67.287206 42.13971 69.590638 43.3033 79.873161 C 43.822416 84.460465 44.509529 90.707464 44.90682 94.453666 C 45.161643 96.856512 45.444751 100.10752 45.720207 103.76059 L 45.720207 100.00682 C 45.543117 97.888972 45.368228 96.001575 45.204993 94.462451 C 44.807729 90.716222 44.120625 84.469272 43.601473 79.881946 C 42.437852 69.599454 42.362789 67.295965 42.362789 42.044979 C 42.362789 21.923362 42.383806 19.958062 42.629439 17.476453 C 42.996626 13.767134 43.558123 10.551872 44.691329 5.665804 C 45.128356 3.7814105 45.457998 2.30175 45.720207 1.0144084 L 45.720207 0 L 45.620471 0 z M 0 2.4742676 L 0 5.6203288 C 1.1334687 17.3733 2.9073729 32.984529 4.4374552 44.296004 C 6.2592752 57.764364 6.1406145 55.276396 6.0352905 77.831942 C 5.9762805 90.476313 6.0026484 99.537813 6.1122884 104.44169 C 6.2035984 108.53159 6.3371409 119.25921 6.4094279 128.28106 C 6.4100146 128.35431 6.410393 128.42732 6.4109782 128.50017 L 6.7086344 128.50017 C 6.7080727 128.43023 6.7076473 128.36016 6.7070841 128.28984 C 6.6347841 119.268 6.5007379 108.54038 6.4094279 104.45047 C 6.2998189 99.546619 6.2739418 90.485069 6.3329468 77.840727 C 6.4382268 55.285177 6.5564697 57.773231 4.7345947 44.304789 C 3.0629829 31.947414 1.1006071 14.458237 0 2.4742676 z M 1.6464111 65.156746 C 1.4348531 65.169916 1.2301031 65.281358 1.0960571 65.485925 C 0.87887783 65.817453 0.38956966 66.963636 0 67.993783 L 0 68.825256 C 0.38955253 67.683762 1.1148082 65.919629 1.3931966 65.49471 C 1.5090036 65.317988 1.6775977 65.210805 1.8577677 65.176383 C 1.7881477 65.158763 1.7169061 65.152286 1.6464111 65.156746 z M 34.783923 68.54672 C 34.736226 68.548297 34.701758 68.614591 34.701758 68.715186 C 34.701758 68.842934 34.598018 71.061102 34.471281 73.6446 C 34.15061 80.178792 34.096131 101.68227 34.395833 103.48671 C 34.569763 104.5339 34.621427 104.6653 34.739998 104.36159 C 34.757648 104.31649 34.776055 104.2159 34.794775 104.0722 C 34.765625 103.92326 34.732466 103.73314 34.692973 103.49549 C 34.534893 102.54352 34.706554 94.578521 34.732764 87.75175 C 34.746764 86.075137 34.626517 84.717669 34.701758 83.080717 C 34.735718 82.341005 34.725741 81.045908 34.752401 80.015271 C 34.795721 77.597409 34.70013 75.046429 34.76842 73.653385 C 34.81852 72.632507 34.864854 71.668928 34.902779 70.868542 C 34.895679 69.495182 34.870478 68.587417 34.824748 68.559123 C 34.812178 68.551323 34.800344 68.547497 34.788574 68.547237 L 34.788574 68.54672 C 34.787009 68.546636 34.785462 68.54667 34.783923 68.54672 z M 1.6805176 74.049227 C 1.6072376 74.049227 1.5372755 74.063409 1.4701945 74.093669 C 1.7107415 74.360495 2.0618199 75.59888 2.2432739 76.883679 C 2.5866769 79.314945 2.7259355 80.824637 3.2726685 88.038037 C 4.2122785 100.43636 4.3718133 105.73363 4.3780273 124.85439 C 4.3785761 126.09473 4.3800295 127.31043 4.383195 128.50017 L 4.6803345 128.50017 C 4.677179 127.31323 4.6757165 126.10046 4.6751668 124.86318 C 4.6689668 105.74241 4.5099257 100.4457 3.5703247 88.047339 C 3.0236627 80.833952 2.8843242 79.324247 2.5409302 76.892981 C 2.3359962 75.44207 1.9146106 74.049744 1.6805176 74.049744 L 1.6805176 74.049227 z M 1.5823324 99.007393 C 1.5390791 99.010175 1.4947087 99.024628 1.4490072 99.052869 C 1.0080434 99.325367 0.40272489 101.39249 0 103.96368 L 0 106.06794 C 0.075440409 105.50275 0.15401176 104.93949 0.23564453 104.37761 C 0.63539553 101.62603 1.2793871 99.356275 1.7430461 99.063204 C 1.6919462 99.023478 1.6384925 99.004767 1.5828491 99.007393 L 1.5823324 99.007393 z M 38.176998 128.11311 L 38.176481 128.11363 L 38.175964 128.11414 L 38.175448 128.11414 C 38.155982 128.12919 38.142445 128.27058 38.134623 128.50017 L 38.271049 128.50017 C 38.248093 128.36664 38.225521 128.25374 38.203353 128.16582 C 38.196198 128.13745 38.188782 128.12023 38.182682 128.11466 L 38.182166 128.11414 C 38.181934 128.11399 38.180845 128.11374 38.180615 128.11363 L 38.180098 128.11311 C 38.179872 128.11306 38.178774 128.11313 38.178548 128.11311 L 38.178031 128.11311 C 38.177809 128.11315 38.177219 128.11304 38.176998 128.11311 z " />
  <path
     id="path3"
     style="fill:#96642c;fill-opacity:1;stroke-width:0.55108"
     d="M 8.821167 0 C 8.9468383 2.8222514 8.9707563 7.0604659 9.0392415 16.301331 C 9.1877305 36.346748 9.4776039 49.510979 9.9921549 59.605664 C 11.359615 86.435645 11.588164 96.997819 11.083044 109.98243 C 11.005025 111.98725 10.87528 117.95806 10.79469 123.25087 C 10.766458 125.10535 10.739847 126.85312 10.714591 128.50017 L 14.320573 128.50017 C 14.304661 124.59352 14.341156 120.67334 14.42961 116.68952 C 14.716602 103.76481 14.77347 94.826785 14.592908 91.051807 C 14.43539 87.759743 14.2381 85.477858 13.556795 79.071143 C 13.045649 74.26477 11.93665 61.894619 11.668022 58.002144 C 11.439731 54.693896 11.244308 49.341175 11.079944 41.890466 C 10.996807 38.121372 10.864121 32.379955 10.784871 29.132072 C 10.614641 22.157183 10.393841 11.06108 10.276892 3.6158 C 10.258295 2.4312484 10.236235 1.2250752 10.210746 0 L 8.821167 0 z M 11.734167 0 C 11.819287 3.2914511 11.902334 6.9282709 11.954309 9.739974 C 12.041037 14.431353 12.20504 21.02797 12.318628 24.399544 C 12.432216 27.771145 12.564208 34.13567 12.611633 38.542867 C 12.760068 52.287317 12.931503 56.302403 13.702523 64.052938 C 13.933934 66.378537 14.166834 68.925682 14.220321 69.713057 C 14.273658 70.500401 14.339712 71.121758 14.367082 71.094368 C 14.42647 71.035068 14.071883 60.473713 13.856519 55.888062 C 13.773686 54.123777 13.638558 50.711405 13.556278 48.305579 C 13.474016 45.899776 13.313397 41.536597 13.199194 38.60953 C 12.831199 29.17571 12.599461 19.699658 12.300024 0 L 11.734167 0 z M 13.901994 0 C 13.934866 2.1177686 13.96692 4.1167013 13.996562 5.8761271 C 14.361136 27.513583 14.529086 33.369582 15.236279 49.107597 C 15.432602 53.478164 15.709785 59.646085 15.852262 62.813737 C 16.065899 67.558763 16.110645 71.52654 16.110645 85.341044 C 16.110199 95.311222 16.036528 104.59138 15.928743 108.23267 C 15.654174 117.49968 15.51783 123.32574 15.52205 128.50017 L 16.327686 128.50017 C 16.992517 120.84328 17.169397 115.17338 17.388603 94.454183 C 17.616023 72.74077 17.615166 65.982948 17.382918 53.409143 C 17.169149 41.83861 17.011543 37.550849 16.625859 32.850708 C 16.379009 29.841983 16.342619 27.360603 16.272909 8.7193644 C 16.261317 5.6196599 16.247345 2.7117991 16.230534 0 L 13.901994 0 z M 23.88123 0 C 23.734382 9.9234663 23.56778 16.362436 23.322091 21.695833 C 23.111149 26.275303 22.617153 34.168498 22.432222 35.91202 C 22.341526 36.767197 22.232426 43.85123 22.168156 53.044307 C 22.048907 70.109119 22.126548 68.306934 20.999752 80.164616 C 20.364 86.855076 20.052934 90.759072 19.815328 95.037093 C 19.676493 97.561476 19.567969 114.09868 19.556946 128.50017 L 22.097876 128.50017 C 22.156665 125.06915 22.227157 120.88378 22.31285 115.74177 C 22.683727 93.487474 23.03372 88.930121 25.166423 78.607605 C 27.255297 68.497252 27.448297 66.274042 27.221594 54.940316 C 27.110751 49.400027 27.133415 45.378538 27.352336 31.592387 C 27.441079 26.003798 27.370214 23.706282 26.905334 17.102832 C 26.64927 13.465782 26.486726 8.3044711 26.377718 0 L 23.88123 0 z M 29.074194 0 C 29.239517 3.7610774 29.53532 7.8183433 29.965096 12.583211 C 31.276671 27.123907 31.429107 32.214302 30.908708 44.077413 C 30.790269 46.781922 30.794745 50.281078 30.926278 57.637309 C 31.177889 71.70549 31.065848 73.150791 28.932084 83.339616 C 26.836796 93.346713 26.579411 95.772556 26.825753 103.25313 C 27.147067 113.01132 27.464597 116.8166 29.055591 128.50017 L 31.028597 128.50017 C 29.262552 121.45458 28.423597 112.62254 28.383797 101.08789 C 28.362027 94.800635 28.401657 94.466239 30.258101 85.1948 C 32.420409 74.396388 32.819538 70.160323 32.373735 62.740873 C 31.849768 54.022969 31.762537 51.785147 31.769637 47.139242 C 31.77429 43.857387 31.86032 40.969402 32.010966 39.047229 C 32.330462 34.968821 32.451664 27.299015 32.240409 24.539071 C 32.148314 23.336184 31.879254 20.515107 31.642513 18.269686 C 31.056536 12.713023 30.808267 8.0982057 30.698901 0 L 29.074194 0 z M 35.563204 0 C 35.613471 0.83839542 35.666111 1.7029014 35.720817 2.5951904 C 36.390213 13.51374 36.426042 28.96261 35.800399 36.932629 C 34.897053 48.439216 34.314511 58.095826 33.900256 68.427348 C 33.778021 71.47472 33.577994 76.297116 33.455839 79.144006 C 33.138818 86.533487 33.023288 98.945062 33.228463 103.53993 C 33.527089 110.22816 34.325126 117.05905 35.652087 124.28285 C 35.812663 125.15718 36.128489 126.87276 36.428784 128.50017 L 38.134623 128.50017 C 38.14236 128.2732 38.155819 128.1328 38.174931 128.11518 L 38.175448 128.11466 L 38.175964 128.11414 C 38.176184 128.11404 38.177294 128.1137 38.177515 128.11363 L 38.178031 128.11311 C 38.178255 128.1131 38.179356 128.11309 38.179582 128.11311 L 38.180098 128.11311 L 38.180615 128.11363 C 38.180845 128.11374 38.181934 128.11399 38.182166 128.11414 C 38.188458 128.11905 38.195924 128.13637 38.203353 128.16582 C 38.225512 128.2537 38.248109 128.3667 38.271049 128.50017 L 39.182621 128.50017 C 38.860552 125.2911 38.455888 122.07101 37.909314 118.22017 C 37.108528 112.57812 36.784824 109.23682 36.299593 101.59845 C 35.779888 93.416724 35.562493 75.622531 35.861377 65.729838 C 35.940091 63.12353 36.070769 58.497733 36.151799 55.450362 C 36.232751 52.402988 36.338943 49.3193 36.387443 48.59755 C 36.43616 47.8758 36.53132 43.381056 36.5988 38.60953 C 36.691823 32.034543 36.793056 29.086626 37.016345 26.434562 C 37.479576 20.933704 37.740937 16.318065 37.995097 9.156547 C 38.139502 5.087627 38.195098 2.2624124 38.121187 0 L 35.563204 0 z M 39.637891 0 C 39.582584 3.7285206 39.393833 7.8481142 38.937675 15.790767 C 38.6618 20.594056 38.554771 22.854945 38.201803 31.282845 C 38.122046 33.187472 38.02012 35.303236 37.97546 35.984884 C 37.628919 41.286184 37.434178 51.431169 37.367228 67.62533 C 37.248042 96.467375 37.712044 105.15516 40.534477 126.89613 C 40.601573 127.41306 40.667767 127.94864 40.732397 128.50017 L 44.580741 128.50017 C 44.598315 124.9731 44.570507 121.77187 44.486174 119.38703 C 44.192791 111.08948 43.939835 107.83606 43.070756 101.16075 C 41.188736 86.70661 40.812618 83.703756 40.54998 81.039498 C 39.670475 72.117672 39.61404 70.09802 39.6012 47.066378 C 39.58814 23.566522 39.577042 23.909325 40.826965 10.177157 C 40.958087 8.7364063 41.04003 7.5053013 41.489457 0 L 39.637891 0 z M 43.564266 0 C 43.442888 1.106245 43.325468 2.1038251 43.222168 2.8866455 C 42.146131 11.040101 41.803059 14.42001 41.557153 19.290295 C 40.963183 31.068163 40.962818 61.485146 41.557153 70.760022 C 41.988987 77.497777 42.67088 84.224276 43.877942 93.651648 C 44.380316 97.575587 45.160867 105.20518 45.488696 109.39901 C 45.572448 110.47057 45.649852 111.69105 45.720207 113.01481 L 45.720207 103.76111 C 45.444719 100.10797 45.161125 96.856553 44.906303 94.453666 C 44.509004 90.707454 43.822407 84.460468 43.3033 79.873161 C 42.139727 69.590647 42.064099 67.28721 42.064099 42.036194 C 42.064099 21.914632 42.085601 19.949334 42.331266 17.467668 C 42.698515 13.758376 43.259513 10.543087 44.392639 5.657019 C 44.94777 3.2633845 45.330048 1.5227971 45.620471 0 L 43.564266 0 z M 0 5.6208455 L 0 25.279594 C 0.30963054 27.565508 0.55391528 30.119336 0.74930827 33.068783 C 0.99318227 36.747513 1.0028369 50.388 0.7632609 52.627795 C 0.55158905 54.60666 0.29982913 56.1165 0 57.181006 L 0 67.994299 C 0.38954166 66.964073 0.87885452 65.81748 1.0960571 65.485925 C 1.3607091 65.08211 1.9010396 65.041671 2.2241536 65.401693 C 3.0800926 66.355435 4.0437001 74.499833 4.7294271 86.580245 C 5.4056421 98.493392 5.5389648 103.64344 5.5391968 117.85586 C 5.5392392 121.15137 5.5523411 124.8074 5.5753703 128.50017 L 6.411495 128.50017 C 6.41091 128.42735 6.4100144 128.35428 6.4094279 128.28106 C 6.3371489 119.25921 6.2036084 108.5316 6.1122884 104.44169 C 6.0026484 99.537823 5.9762805 90.476318 6.0352905 77.831942 C 6.1406145 55.276391 6.2592762 57.764364 4.4374552 44.296004 C 2.9073959 32.984694 1.1335096 17.373744 0 5.6208455 z M 34.78289 68.547237 C 34.796102 68.546255 34.809908 68.549957 34.824748 68.559123 C 34.980403 68.655251 34.893624 78.904723 34.701758 83.080717 C 34.489771 87.693827 34.524251 92.90012 34.789091 96.244771 C 34.938164 98.129279 34.996568 100.06045 34.950838 101.59845 L 34.951355 101.59845 C 34.912069 102.92164 34.816748 104.16503 34.739998 104.36159 C 34.621426 104.6653 34.569754 104.53389 34.395833 103.48671 C 34.09604 101.68226 34.150093 80.178784 34.470764 73.6446 C 34.597501 71.061094 34.701758 68.842933 34.701758 68.715186 C 34.701758 68.615343 34.735702 68.550743 34.78289 68.547237 z M 1.3833781 74.040959 C 0.85349868 74.040959 0.51103079 74.763758 0 77.13431 L 0 103.96368 C 0.402727 101.39232 1.0080238 99.325387 1.4490072 99.052869 C 1.7544522 98.864051 2.0083989 99.261406 2.1709269 100.18148 C 2.529474 102.21103 2.7981439 109.49154 3.1817179 128.50017 L 4.383195 128.50017 C 4.3800284 127.31045 4.3780593 126.0947 4.3775106 124.85439 C 4.3713066 105.73361 4.2122795 100.43687 3.2726685 88.038554 C 2.7259365 80.825145 2.5866759 79.315463 2.2432739 76.884196 C 2.0383749 75.433308 1.6174981 74.040959 1.3833781 74.040959 z " />
  <path
     id="path653"
     style="fill:#554400;fill-opacity:1;stroke-width:0.54428"
     d="M 4.0529826 0 L 3.9909709 10.672217 L 4.1759725 1.3446208 C 4.1846303 0.90785199 4.1932963 0.45846297 4.2018107 0 L 4.0529826 0 z M 10.515637 0 C 10.516317 2.8810221 10.522877 6.5307962 10.534757 11.18278 C 10.561028 21.476042 10.591577 23.412482 10.673767 20.00033 C 10.722491 17.97845 10.790522 9.5432291 10.838098 0 L 10.515637 0 z M 14.668355 0 C 14.641979 0.94902686 14.612758 2.0529493 14.579989 3.3124593 C 14.522625 5.5168832 14.451459 7.5827478 14.421859 7.9033936 C 14.365439 8.514912 14.072405 31.457907 14.101465 32.972148 C 14.146296 35.294415 14.198998 33.645814 14.639417 16.138033 C 14.712988 13.212139 14.799863 6.7518521 14.833203 1.7818034 C 14.837508 1.1379412 14.84156 0.54397301 14.844572 0 L 14.668355 0 z M 15.428516 0 C 15.425211 2.9841965 15.445567 6.4557551 15.491044 10.307898 C 15.520275 12.782769 15.542721 13.857211 15.578894 13.907678 L 15.579411 13.908195 L 15.579928 13.908712 C 15.580145 13.908796 15.58126 13.909215 15.581478 13.909229 L 15.581995 13.909229 C 15.599809 13.898808 15.621486 13.656011 15.64814 13.222965 C 15.730127 11.891671 15.806535 5.806428 15.845028 0 L 15.428516 0 z M 17.62218 0 C 17.613583 3.5034728 17.612792 8.0821143 17.61908 13.721126 C 17.62505 19.165429 17.654075 23.592665 17.683675 23.559285 C 17.713093 23.525871 17.777339 19.792849 17.826819 15.263668 C 17.876348 10.734542 17.947832 5.4549294 17.985982 3.5310506 C 17.998673 2.8869654 18.01368 1.6386831 18.028874 0 L 17.62218 0 z M 20.697445 0 C 20.699234 1.8983146 20.705913 3.5817432 20.717598 4.8999593 C 20.74488 7.9776398 20.79723 10.464881 20.83387 10.427271 C 20.859814 10.400664 20.894374 6.1459273 20.922754 0 L 20.697445 0 z M 26.599927 0 C 26.597061 5.085503 26.613195 10.38967 26.650053 14.826485 C 26.667083 16.870614 26.705202 21.691251 26.734802 25.53901 L 26.788029 32.534965 L 26.890348 24.226945 C 26.948698 19.657718 26.969912 15.591598 26.942542 15.190804 C 26.919309 14.84832 26.88992 8.3579654 26.871228 0 L 26.599927 0 z M 31.328837 0 L 31.338139 1.9275309 L 31.370695 0 L 31.328837 0 z M 33.157666 0 L 33.157666 0.032556152 C 33.135116 3.1588456 33.095059 5.9136744 33.069299 6.1541463 C 32.978874 6.9981029 32.997713 60.243348 33.089453 61.723364 C 33.140482 62.546473 33.19707 63.202716 33.21606 63.181156 C 33.290111 63.096487 33.347992 9.6586127 33.292542 0 L 33.157666 0 z M 39.755196 0 C 39.752394 2.0434946 39.761808 3.5666171 39.788786 4.0162923 C 39.82218 4.5718287 39.87437 5.0069973 39.907642 5.0244995 L 39.907642 5.0250163 L 39.908158 5.0250163 L 39.908675 5.0250163 L 39.909192 5.0250163 L 39.909709 5.0250163 L 39.910225 5.0250163 L 39.910742 5.0250163 L 39.911259 5.0250163 L 39.911259 5.0244995 L 39.911776 5.0244995 L 39.912292 5.0239827 L 39.912809 5.023466 C 39.933312 5.0024949 39.963028 3.0076762 39.991357 0 L 39.755196 0 z M 43.676921 0 C 43.680456 1.0306257 43.684856 2.0861809 43.68984 3.166215 L 43.722913 10.380762 L 43.818514 5.8626912 C 43.84775 4.4814428 43.877841 2.4243822 43.906364 0 L 43.676921 0 z M 10.719759 2.795695 C 10.729537 2.7949937 10.740155 2.8088442 10.751799 2.8385864 C 10.791019 2.9387983 10.791019 3.1027202 10.751799 3.2029053 C 10.712309 3.3031172 10.680485 3.220913 10.680485 3.0204875 C 10.680485 2.8796055 10.6966 2.7973559 10.719759 2.795695 z M 31.231169 4.4131673 L 31.231169 4.4136841 L 31.230652 4.4142008 C 31.216212 4.4495817 31.205944 5.0276915 31.205847 6.0084188 C 31.205847 7.0229664 31.216399 7.6256687 31.231685 7.6517293 L 31.232202 7.6522461 L 31.232719 7.6527629 L 31.233236 7.6527629 L 31.233236 7.6522461 L 31.233752 7.6522461 C 31.239678 7.6426021 31.246547 7.5491317 31.253389 7.3638916 C 31.279149 6.6665467 31.279149 5.4858424 31.253389 4.7402791 C 31.246144 4.5305972 31.238901 4.425029 31.232719 4.4136841 L 31.232202 4.4131673 L 31.231685 4.4131673 L 31.231169 4.4131673 z M 6.395992 5.0611898 C 6.107471 20.066037 6.0231781 31.475945 6.1985881 31.766536 C 6.2531671 31.857006 6.2275234 31.882254 6.1386434 31.825964 C 6.0262854 31.756004 5.9963755 32.742002 6.0265055 35.265031 C 6.0499555 37.21043 6.0897555 41.589326 6.1143555 44.99622 L 6.159314 51.190674 L 6.258016 44.340446 C 6.312269 40.572861 6.3902352 28.931306 6.4306152 18.47019 C 6.4713552 7.9072977 6.455902 1.9449467 6.395992 5.0611898 z M 0.9038208 6.4879761 L 0.90330404 6.4884928 C 0.8855887 6.4986624 0.87203906 6.5867621 0.86816406 6.7370565 L 0.86713053 6.7370565 C 0.86499444 6.9117961 0.88052074 7.020829 0.9038208 7.0295451 L 0.90433757 7.0300618 C 0.90459181 7.030109 0.90563179 7.0300381 0.90588786 7.0300618 C 0.90614573 7.0300621 0.90717851 7.0300852 0.90743815 7.0300618 C 0.9150186 7.0286994 0.9239939 7.0172711 0.9327596 6.9949219 C 0.9729196 6.8962486 0.97506077 6.6995371 0.93896077 6.5577393 C 0.92804382 6.5145352 0.91763652 6.4921556 0.90847168 6.4884928 L 0.90795492 6.4879761 C 0.90772283 6.4879317 0.90663523 6.4879958 0.90640462 6.4879761 L 0.90588786 6.4879761 C 0.90566024 6.4880056 0.90456366 6.4879221 0.90433757 6.4879761 L 0.9038208 6.4879761 z M 8.4552979 7.9033936 L 8.3814006 14.53503 C 8.3406936 18.182421 8.2919733 26.605728 8.2723633 33.253784 L 8.2744303 33.253784 C 8.2549103 39.90184 8.2659183 45.313053 8.2987183 45.278373 C 8.3313453 45.243645 8.3961087 42.024557 8.4423787 38.124805 C 8.4887517 34.225077 8.5630601 30.935479 8.6082601 30.815173 C 8.6533211 30.694895 8.6265622 30.556432 8.5488322 30.507182 C 8.4535822 30.44847 8.452261 30.255259 8.542631 29.945976 C 8.630621 29.644918 8.6398925 25.571881 8.5679525 18.688782 L 8.4552979 7.9033936 z M 29.151709 10.964189 C 29.006603 11.684006 28.88285 29.978591 28.999264 33.482194 L 29.085046 36.032943 L 29.158944 32.170646 C 29.281888 25.683584 29.277215 10.340861 29.151709 10.964189 z M 31.111796 12.394592 C 31.088796 10.806081 31.069475 12.064458 31.069421 15.190804 C 31.069421 18.317094 31.088009 19.616805 31.111279 18.079 C 31.134611 16.541195 31.135066 13.983078 31.111796 12.394592 z M 20.05614 15.555123 C 19.996815 12.075668 19.956395 13.864721 19.870105 23.788729 C 19.795082 32.412127 19.806125 36.483301 19.905245 36.517151 C 19.985486 36.544548 20.048905 36.774903 20.048905 37.028748 C 20.047309 37.365691 20.011904 37.433166 19.916614 37.278861 C 19.829874 37.13824 19.804123 37.284467 19.840133 37.716044 C 19.870033 38.07276 19.912074 42.267298 19.934184 47.036922 L 19.973458 55.708744 L 20.048905 49.660018 C 20.148155 41.72876 20.15232 21.195373 20.05614 15.555123 z M 36.061882 17.216003 C 36.036419 16.611898 36.014882 17.556741 35.977132 19.563147 C 35.919502 22.696371 35.919088 53.293127 35.977132 54.072668 C 36.160084 54.843303 36.298091 33.994279 36.170919 24.163383 C 36.116719 19.973416 36.087344 17.820109 36.061882 17.216003 z M 35.977132 54.072668 C 35.975669 54.066504 35.977051 54.320913 35.975582 54.31193 L 35.977132 54.31193 C 35.976724 54.309433 35.977535 54.078073 35.977132 54.072668 z M 41.619165 17.701762 L 41.618648 17.702279 C 41.604124 17.731571 41.593844 18.437672 41.593844 19.636011 C 41.593844 20.834369 41.604128 21.540449 41.618648 21.569743 L 41.618648 21.57026 L 41.619165 21.57026 L 41.619165 21.570776 L 41.619682 21.570776 L 41.620199 21.57026 C 41.626068 21.557712 41.632937 21.438469 41.639836 21.20284 C 41.665066 20.341086 41.665066 18.930936 41.639836 18.069181 C 41.632912 17.833553 41.626071 17.715343 41.620199 17.702795 L 41.620199 17.702279 L 41.619682 17.701762 L 41.619165 17.701762 z M 44.606063 23.308655 L 44.605546 23.309172 L 44.605546 23.309688 C 44.590774 23.34548 44.580225 23.918786 44.580225 24.883236 C 44.580225 25.847685 44.590241 26.419966 44.605029 26.45575 L 44.605029 26.456266 L 44.605546 26.456783 L 44.605546 26.4573 L 44.606063 26.4573 L 44.606063 26.457817 L 44.60658 26.457817 L 44.607096 26.4573 C 44.61319 26.447082 44.620551 26.350408 44.627767 26.15861 C 44.653527 25.457206 44.653527 24.309293 44.627767 23.607861 C 44.620699 23.416071 44.613688 23.319386 44.607613 23.309172 L 44.607096 23.308655 L 44.60658 23.308655 L 44.606063 23.308655 z M 8.4341105 23.329842 C 8.4473782 23.330167 8.463515 23.352635 8.4811361 23.398055 C 8.5221461 23.503248 8.5171073 23.629215 8.4697673 23.677625 C 8.4224373 23.726067 8.3882532 23.640085 8.3953532 23.486422 C 8.3995335 23.382956 8.4134129 23.329335 8.4341105 23.329842 z M 39.79292 27.761613 C 39.76894 26.699489 39.748995 27.568483 39.748995 29.692761 C 39.748995 31.817064 39.76885 32.686038 39.79292 31.62391 C 39.81699 30.56173 39.81699 28.823765 39.79292 27.761613 z M 44.467053 29.048356 L 44.466536 29.048873 L 44.466536 29.04939 L 44.46602 29.049906 C 44.451431 29.087746 44.441215 29.693302 44.441215 30.712854 C 44.441215 31.732403 44.451434 32.337962 44.46602 32.375802 L 44.46602 32.376318 L 44.466536 32.376835 L 44.466536 32.377352 L 44.467053 32.377352 L 44.467053 32.377869 L 44.46757 32.377869 L 44.46757 32.377352 L 44.468087 32.377352 C 44.474091 32.366554 44.481197 32.263848 44.488241 32.061092 C 44.514001 31.319588 44.514001 30.106147 44.488241 29.364616 C 44.481172 29.161868 44.474611 29.060187 44.468604 29.04939 L 44.468087 29.048873 L 44.46757 29.048356 L 44.467053 29.048356 z M 13.178007 32.24351 L 12.990938 35.158061 C 12.743432 39.015866 12.583015 50.836662 12.736174 53.960014 C 12.779405 54.841648 12.80796 55.375386 12.831258 55.398169 C 12.831502 55.398295 12.832565 55.398673 12.832808 55.398686 L 12.833325 55.398686 C 12.871145 55.364739 12.896846 53.916012 12.952698 50.316309 C 13.00491 46.949491 13.076885 41.505469 13.112895 38.218856 L 13.178007 32.24351 z M 26.804565 32.868278 C 26.804336 32.868283 26.80376 32.868765 26.803532 32.868795 L 26.803015 32.868795 C 26.80279 32.868873 26.801688 32.869209 26.801465 32.869312 C 26.783724 32.879477 26.770717 32.967565 26.766842 33.117875 L 26.766325 33.117875 C 26.764254 33.292584 26.77971 33.401649 26.803015 33.410364 C 26.803268 33.410434 26.804311 33.410833 26.804565 33.410881 C 26.804822 33.410904 26.805858 33.41088 26.806116 33.410881 C 26.806375 33.410857 26.807405 33.410928 26.807666 33.410881 C 26.815034 33.408899 26.824007 33.397325 26.832471 33.375741 C 26.871731 33.277042 26.873648 33.080356 26.837638 32.938558 C 26.826998 32.896453 26.816662 32.873828 26.807666 32.869312 L 26.807149 32.868795 C 26.806915 32.868726 26.805831 32.868839 26.805599 32.868795 L 26.805082 32.868278 L 26.804565 32.868278 z M 19.969324 33.694584 C 19.979486 33.692257 19.991174 33.705642 20.00343 33.736959 C 20.04265 33.837172 20.04265 34.001638 20.00343 34.101794 C 19.96394 34.202007 19.9316 34.119798 19.9316 33.919377 C 19.9316 33.781622 19.946966 33.699703 19.969324 33.694584 z M 44.301689 35.158061 C 44.152113 37.492388 43.943256 48.959784 43.866056 59.060994 C 43.817081 65.473948 43.76264 70.982988 43.7441 71.303658 C 43.726047 71.624304 43.679437 76.60887 43.640747 82.380501 L 43.64023 82.380501 C 43.60163 88.152176 43.589792 91.89093 43.614392 90.688521 C 43.638933 89.486086 43.762209 81.746748 43.888277 73.490088 C 44.014381 65.233396 44.145839 58.117453 44.180249 57.676583 C 44.214806 57.235661 44.266427 51.82445 44.295487 45.651994 C 44.324957 39.479532 44.327449 34.757241 44.301689 35.158061 z M 29.064376 36.30166 C 29.044601 36.303844 29.030868 36.356915 29.026652 36.457723 C 29.020592 36.611352 29.054243 36.697853 29.101583 36.649443 C 29.149093 36.601001 29.153782 36.475067 29.112952 36.369873 C 29.094374 36.322623 29.077906 36.300166 29.064376 36.30166 z M 2.8210164 38.145992 C 2.6132834 43.062676 2.4366599 52.615955 2.4866699 56.218791 C 2.5117199 58.022422 2.5494357 64.056548 2.5703857 69.627791 L 2.6086263 79.757406 L 2.7037109 71.959949 C 2.8845219 57.14484 2.9620074 34.809259 2.8210164 38.145992 z M 22.326286 38.145992 C 22.266241 40.831416 22.213247 44.241846 22.207947 45.724858 C 22.202597 47.207843 22.192826 48.519701 22.185726 48.639925 C 22.093316 50.28891 22.086714 53.421673 22.176424 53.085132 C 22.191496 53.02842 22.204772 52.998606 22.216732 52.995732 C 22.21697 52.995696 22.218045 52.995746 22.218282 52.995732 C 22.218517 52.995739 22.219598 52.995703 22.219832 52.995732 L 22.220349 52.995732 C 22.220581 52.995803 22.221669 52.996155 22.221899 52.996248 C 22.267269 53.018922 22.288369 53.463539 22.282878 54.324333 L 22.273576 56.000199 L 22.184176 54.761515 C 22.150339 54.292454 22.128714 54.022843 22.113379 53.995671 C 22.113233 53.995454 22.113007 53.994292 22.112862 53.99412 L 22.112345 53.99412 L 22.111829 53.993604 L 22.111312 53.993604 L 22.110795 53.993604 L 22.110278 53.993604 L 22.109762 53.99412 L 22.109245 53.994637 C 22.090111 54.027946 22.080614 54.51562 22.065837 55.563017 C 22.049877 56.685311 22.011757 63.080013 21.981087 69.773519 C 21.93922 78.886871 21.954759 80.643983 22.043099 76.769474 C 22.289752 65.944615 22.324086 63.018147 22.378996 48.34847 C 22.414206 38.942207 22.394396 35.101447 22.326286 38.145992 z M 41.487907 46.380632 L 41.389722 52.793677 C 41.224399 63.594215 41.178044 74.119996 41.240894 86.243315 L 41.300321 97.830204 L 41.403674 90.46993 C 41.544928 80.348352 41.597416 66.825868 41.537516 55.708744 L 41.487907 46.380632 z M 29.832288 47.328377 C 29.791745 47.368479 29.712478 50.286635 29.656588 53.81377 C 29.600674 57.340885 29.534943 60.587419 29.510343 61.028316 C 29.48566 61.469212 29.430377 65.699719 29.388387 70.429293 L 29.388904 70.429293 C 29.345044 75.3417 29.364242 78.778411 29.433862 78.445341 C 29.500944 78.124694 29.590867 74.255283 29.634367 69.846383 C 29.677691 65.437477 29.75624 58.551007 29.80955 54.542924 C 29.86286 50.534815 29.873118 47.288327 29.832288 47.328377 z M 8.1757284 48.250285 L 8.1757284 48.250802 L 8.1752116 48.250802 L 8.1746948 48.251318 C 8.1578715 48.267539 8.1462728 48.4859 8.1462728 48.858516 L 8.1473063 48.858516 C 8.1468683 49.24877 8.1588285 49.487534 8.1767619 49.509639 L 8.1772786 49.510156 L 8.1777954 49.510673 L 8.1783122 49.510673 L 8.1788289 49.51119 L 8.1793457 49.51119 L 8.1798625 49.51119 L 8.1803792 49.51119 L 8.180896 49.510673 L 8.1814128 49.510673 L 8.1819295 49.510156 C 8.1883452 49.502635 8.1958044 49.468996 8.2031169 49.408354 C 8.2332469 49.149637 8.2337869 48.69066 8.2031169 48.388261 C 8.194925 48.307943 8.1870059 48.263732 8.1798625 48.252869 C 8.1796536 48.252606 8.1790365 48.251523 8.1788289 48.251318 L 8.1783122 48.250802 L 8.1777954 48.250802 L 8.1772786 48.250802 L 8.1772786 48.250285 L 8.1767619 48.250285 L 8.1762451 48.250285 L 8.1757284 48.250285 z M 10.138399 49.273478 C 10.11948 49.278221 10.106847 49.331386 10.102743 49.429541 C 10.096503 49.583144 10.129727 49.669144 10.177157 49.620744 C 10.224397 49.572328 10.229355 49.446884 10.188525 49.341691 C 10.169305 49.292626 10.152205 49.270017 10.138399 49.273478 z M 8.062557 54.569796 C 8.039107 53.272267 8.0190958 54.374945 8.0191488 57.020292 L 8.0196655 57.020292 C 8.0196655 59.66564 8.039027 60.727629 8.062557 59.379838 C 8.085891 58.032021 8.086007 55.867358 8.062557 54.569796 z M 11.731067 56.291654 L 11.643734 60.081087 C 11.557584 63.828158 11.559892 65.960064 11.653552 70.356429 C 11.6701 71.132939 11.683119 71.579642 11.699544 71.611133 C 11.699713 71.611368 11.700409 71.612535 11.700578 71.612683 L 11.701095 71.612683 L 11.701611 71.612683 L 11.702128 71.612683 C 11.7023 71.612483 11.702989 71.611421 11.703162 71.611133 C 11.729246 71.554747 11.765414 70.508729 11.83597 68.169999 C 11.91379 65.590245 11.919789 62.165071 11.850439 60.008223 L 11.731067 56.291654 z M 15.141711 56.510246 C 15.000747 57.019535 14.772145 67.905708 14.721065 76.550883 C 14.667453 85.591564 14.711823 85.504956 14.984098 76.040837 C 15.093188 72.252657 15.222471 56.218337 15.141711 56.510246 z M 0.23667806 58.66877 C 0.21278806 57.5216 0.19277909 58.419468 0.19275309 60.663997 C 0.19221309 62.908519 0.21260806 63.84756 0.23667806 62.750175 C 0.26091806 61.652816 0.26074806 59.815913 0.23667806 58.66877 z M 25.595854 66.071936 C 25.467067 65.746279 25.466622 87.598477 25.595854 95.425183 L 25.670785 100.01663 L 25.746749 92.874434 C 25.84652 83.502342 25.750699 66.461757 25.595854 66.071936 z M 33.756079 67.929187 C 33.737145 67.933931 33.724527 67.987077 33.720422 68.08525 C 33.714182 68.238863 33.748013 68.324863 33.795353 68.276453 C 33.842503 68.228041 33.847035 68.102593 33.806205 67.9974 C 33.786951 67.948347 33.769896 67.925726 33.756079 67.929187 z M 33.705953 70.939339 C 33.648593 72.34218 33.594013 75.321257 33.584513 77.55909 L 33.583997 77.55909 C 33.574457 79.79696 33.590697 81.600474 33.619137 81.567114 C 33.64788 81.533702 33.702426 78.554646 33.740576 74.947363 C 33.780426 71.167862 33.766033 69.469507 33.705953 70.939339 z M 38.338745 73.119568 L 38.338228 73.120085 L 38.337712 73.120085 C 38.322103 73.139643 38.296767 73.346951 38.257096 73.708679 C 38.200079 74.229726 38.153627 75.115393 38.153743 75.676518 C 38.153838 76.177436 38.166231 76.412742 38.198185 76.419625 L 38.198702 76.419625 L 38.199219 76.419625 L 38.199736 76.419625 C 38.215591 76.41777 38.236508 76.362986 38.262264 76.259428 C 38.321845 76.018958 38.366134 75.133276 38.366134 74.291589 C 38.363652 73.512475 38.360214 73.147757 38.341846 73.121118 L 38.341329 73.120601 L 38.340812 73.120085 L 38.340812 73.119568 L 38.340295 73.119568 L 38.339779 73.119568 L 38.339262 73.119568 L 38.338745 73.119568 z M 8.6253133 74.437317 C 8.5085703 74.561601 8.3949247 80.890029 8.2976847 92.655843 C 8.2466047 98.868409 8.2362439 103.91903 8.2754639 103.87893 C 8.3145629 103.83886 8.3881982 101.90365 8.4392782 99.578935 C 8.5661142 93.801448 8.7100033 74.347157 8.6253133 74.437317 z M 27.780216 75.508053 C 27.761305 75.512799 27.748664 75.565961 27.74456 75.664115 C 27.73832 75.817761 27.772151 75.903778 27.819491 75.855318 C 27.866641 75.806909 27.871173 75.681485 27.830343 75.576265 C 27.811084 75.527227 27.794016 75.504589 27.780216 75.508053 z M 38.25968 77.206657 C 38.172725 77.066455 38.114339 79.834044 38.095349 84.93125 C 38.062887 93.720694 38.126303 114.11352 38.188883 115.02864 C 38.210813 115.34926 38.246745 118.53025 38.270015 122.09746 L 38.311357 128.50017 L 38.312907 128.50017 L 38.432279 118.45375 C 38.498599 112.8825 38.520202 104.45422 38.479822 99.724662 C 38.439712 94.99514 38.406957 88.043184 38.400757 84.275476 C 38.397431 80.198419 38.34036 77.336639 38.25968 77.206657 z M 27.809155 77.743058 C 27.794899 77.311131 27.77067 78.0974 27.72699 79.830269 C 27.6735 81.954571 27.632806 87.365272 27.638106 91.854342 C 27.646676 99.664628 27.651009 99.799685 27.741459 94.988 C 27.793429 92.222432 27.835643 86.811695 27.830343 82.963928 C 27.827639 79.825174 27.823411 78.174986 27.809155 77.743058 z M 29.359965 79.313505 C 29.336734 79.315158 29.320691 79.397893 29.320691 79.538814 C 29.320691 79.739178 29.353301 79.82093 29.392521 79.720715 C 29.431741 79.620507 29.431741 79.456603 29.392521 79.356396 C 29.380771 79.326645 29.369774 79.312807 29.359965 79.313505 z M 17.881596 84.202612 C 17.841722 84.242718 17.763413 87.849836 17.707963 92.21866 C 17.652603 96.587467 17.647151 100.12186 17.695561 100.07296 C 17.743663 100.02396 17.821337 96.416867 17.868677 92.056913 C 17.915397 87.696986 17.921446 84.162492 17.881596 84.202612 z M 13.857035 86.461906 C 13.715995 86.918552 13.575944 110.88952 13.559379 128.50017 L 13.867887 128.50017 C 13.874114 125.06728 13.879237 121.34845 13.88184 117.46983 C 13.89325 100.3353 13.881635 86.381766 13.857035 86.461906 z M 5.1170003 87.263407 C 5.0561413 89.067033 4.9718984 94.674461 4.9304484 99.724662 C 4.8847184 105.25954 4.8983249 107.51762 4.9645549 105.40907 C 5.0248259 103.48519 5.1091168 97.877279 5.1511068 92.947298 C 5.1971968 87.563136 5.1835003 85.29357 5.1170003 87.263407 z M 1.0981242 90.644596 C 1.0732711 90.645194 1.0313318 90.686248 0.98391927 90.761385 C 0.90814327 90.881632 0.8459432 91.045564 0.8459432 91.125704 C 0.8459432 91.205809 0.90805927 91.173069 0.98391927 91.05284 C 1.0598033 90.932602 1.1218953 90.768661 1.1218953 90.688521 C 1.1218953 90.658452 1.1130361 90.644238 1.0981242 90.644596 z M 0.81338704 91.373234 C 0.78853158 91.37385 0.74659463 91.414868 0.69918213 91.490023 C 0.6233554 91.610236 0.56121305 91.774197 0.56120605 91.854342 C 0.56121302 91.934421 0.62332638 91.901701 0.69918213 91.781478 C 0.77508413 91.661258 0.8371582 91.497299 0.8371582 91.417159 C 0.8371582 91.38711 0.82830033 91.372864 0.81338704 91.373234 z M 45.177087 91.648153 C 45.128157 91.699001 45.032655 102.56591 45.078385 102.89501 C 45.086675 102.95512 45.125465 103.00405 45.164685 103.00405 C 45.203555 103.00405 45.235482 100.4355 45.235482 97.29587 C 45.235482 94.156198 45.209357 91.614813 45.177087 91.648153 z M 33.28634 91.781478 C 33.229172 93.985934 33.146389 101.36464 33.102889 108.17841 C 33.055459 115.58505 33.068002 118.73415 33.134412 116.00946 C 33.195476 113.50283 33.278103 106.1241 33.317863 99.612524 C 33.357703 93.100914 33.34357 89.577004 33.28634 91.781478 z M 2.6349813 92.09102 C 2.6098783 92.121107 2.5465714 96.933636 2.4944214 102.78546 C 2.4421744 108.63726 2.3692242 116.08159 2.3326742 119.32812 C 2.3037177 121.87822 2.2778518 125.08144 2.2567098 128.50017 L 2.6117269 128.50017 C 2.6155362 126.72755 2.618827 124.84434 2.6225789 122.84418 C 2.6550289 105.89993 2.6602113 92.06089 2.6349813 92.09102 z M 0.20205485 92.835677 C 0.16509497 92.839485 0.10211195 92.955755 0.052193197 93.118864 C 0.040195923 93.158053 0.022410622 93.210112 0 93.271826 L 0 93.640279 C 0.14630402 93.21903 0.24537311 92.878292 0.21652425 92.841878 L 0.21600749 92.841361 C 0.21188786 92.837136 0.20733483 92.835133 0.20205485 92.835677 z M 35.595243 92.947298 C 35.505323 92.855729 35.677203 110.527 35.770943 111.0139 C 35.808335 111.20858 35.852409 119.04837 35.870162 128.50017 L 36.077384 128.50017 C 36.056879 127.08472 36.042026 125.23873 36.03656 123.22659 C 36.024559 118.79775 35.976803 112.7474 35.930623 109.78141 C 35.884366 106.81541 35.805954 101.83089 35.756474 98.704569 C 35.706999 95.57825 35.634463 92.987418 35.595243 92.947298 z M 29.376501 98.26532 C 29.362121 97.986632 29.337229 98.534453 29.292269 99.724662 C 29.237559 101.16757 29.195118 104.57851 29.201318 107.30404 C 29.209205 111.90935 29.216738 112.05322 29.306738 109.34423 C 29.359788 107.741 29.402472 104.33052 29.397172 101.76536 C 29.394401 99.649435 29.390882 98.544008 29.376501 98.26532 z M 20.196183 99.506071 C 20.071965 99.506071 20.081104 98.361764 20.007564 122.89896 C 20.001441 124.942 19.996385 126.80958 19.992578 128.50017 L 20.162077 128.50017 C 20.24509 116.28156 20.281322 99.506071 20.196183 99.506071 z M 27.657227 100.78713 C 27.657 100.78718 27.655901 100.78757 27.655676 100.78765 L 27.65516 100.78765 C 27.637396 100.79781 27.623895 100.88643 27.62002 101.03673 C 27.617883 101.21142 27.63341 101.32049 27.65671 101.32922 C 27.656962 101.32929 27.658006 101.32969 27.65826 101.32973 L 27.658777 101.32973 C 27.659035 101.32973 27.660068 101.32976 27.660327 101.32973 C 27.667908 101.32837 27.676883 101.31695 27.685649 101.29459 C 27.724739 101.19593 27.726916 100.9992 27.690816 100.85741 C 27.68015 100.81531 27.67037 100.79268 27.661361 100.78816 C 27.661125 100.78807 27.660045 100.78772 27.65981 100.78765 L 27.659294 100.78713 C 27.659062 100.78711 27.657973 100.78712 27.657743 100.78713 L 27.657227 100.78713 z M 7.007841 100.891 L 7.0130086 110.43719 L 7.0140422 110.43719 C 7.0172201 115.79086 7.0270864 118.00535 7.0636515 118.03104 L 7.0641683 118.03156 L 7.0646851 118.03104 C 7.0833381 118.00533 7.109602 117.44274 7.1442668 116.46059 C 7.2162468 114.40789 7.2138356 110.42276 7.1380656 106.91389 L 7.007841 100.891 z M 10.81071 101.98396 C 10.76717 103.06614 10.725309 107.23113 10.718209 111.2392 C 10.711577 114.85692 10.719753 116.54217 10.748181 116.57273 L 10.748698 116.57273 L 10.749215 116.57273 L 10.749731 116.57273 C 10.763396 116.55122 10.781903 116.17255 10.805025 115.46582 C 10.859895 113.78247 10.902826 109.61746 10.897526 106.21057 C 10.893336 102.80371 10.85421 100.90179 10.81071 101.98396 z M 45.123344 103.22264 C 45.044264 103.30709 44.941988 105.94256 44.879948 109.48996 C 44.821073 112.85672 44.764467 116.0813 44.753857 116.65541 C 44.743302 117.22951 44.78982 117.66394 44.85721 117.62124 C 44.924554 117.57854 44.909134 117.67871 44.823104 117.84345 C 44.713611 118.0536 44.673535 120.89605 44.690295 127.37104 C 44.691309 127.76389 44.692732 128.14027 44.693913 128.50017 L 44.92594 128.50017 C 44.955001 126.65293 44.982747 124.56255 45.003971 122.53464 C 45.054034 117.765 45.132404 111.43583 45.177604 108.46986 C 45.230235 105.02525 45.210524 103.12954 45.123344 103.22264 z M 22.316467 108.61559 C 22.253692 110.45929 22.160842 117.67361 22.109762 124.64769 C 22.099944 125.99052 22.091624 127.2853 22.084957 128.50017 L 22.313367 128.50017 C 22.336906 125.84371 22.356757 122.53901 22.373828 118.52662 C 22.408808 110.32055 22.387067 106.54152 22.316467 108.61559 z M 4.7697347 113.60082 L 4.7692179 113.60133 C 4.7548278 113.63046 4.7450098 114.30852 4.74493 115.46582 C 4.74493 116.64949 4.75549 117.35119 4.7702515 117.3794 L 4.7702515 117.37992 L 4.7707682 117.37992 L 4.771285 117.37992 L 4.7718018 117.3794 C 4.7775311 117.3673 4.7842203 117.25751 4.790922 117.0404 C 4.816384 116.22311 4.816152 114.84571 4.790922 113.97961 C 4.7838008 113.73602 4.7773354 113.6142 4.771285 113.60185 L 4.7707682 113.60133 L 4.7707682 113.60082 L 4.7702515 113.60082 L 4.7697347 113.60082 z M 27.596248 116.12159 C 27.55867 118.64828 27.511947 123.4089 27.472742 128.50017 L 27.628805 128.50017 C 27.630708 128.04361 27.632764 127.58513 27.634489 127.12557 C 27.677099 115.92264 27.662218 111.68521 27.596248 116.12159 z M 8.2403239 117.65173 C 8.1778249 118.61368 8.0809799 123.43431 8.0253499 128.36426 C 8.0248387 128.40956 8.0243029 128.45502 8.0237996 128.50017 L 8.2754639 128.50017 C 8.2817911 127.63998 8.2877568 126.69857 8.2940674 125.6683 C 8.3282974 120.08132 8.3054039 116.65109 8.2403239 117.65173 z M 4.6482951 123.81001 C 4.6259251 122.18674 4.6069539 123.51467 4.6069539 126.76125 C 4.6069539 127.42368 4.6081412 128.00625 4.6095378 128.50017 L 4.6606974 128.50017 C 4.6707528 126.95988 4.6663942 125.07258 4.6482951 123.81001 z M 41.192318 125.63626 L 41.191801 125.63678 L 41.191284 125.63678 L 41.191284 125.63729 L 41.190767 125.63729 C 41.175039 125.66287 41.164412 126.07237 41.164412 126.76125 C 41.164412 127.45014 41.175034 127.85914 41.190767 127.8847 L 41.190767 127.88522 L 41.191284 127.88522 L 41.191284 127.88573 L 41.191801 127.88573 L 41.192318 127.88573 L 41.192834 127.88573 L 41.193351 127.88522 L 41.193868 127.88522 C 41.200206 127.8747 41.207104 127.80539 41.214539 127.67231 C 41.242529 127.1713 41.242529 126.35123 41.214539 125.8502 C 41.207149 125.71712 41.200199 125.64832 41.193868 125.63781 L 41.193868 125.63729 L 41.193351 125.63729 L 41.193351 125.63678 L 41.192834 125.63678 L 41.192318 125.63626 z " />
</svg>
