<?xml version="1.0" encoding="UTF-8" standalone="no"?>
<svg
   width="15.24mm"
   height="128.5mm"
   viewBox="0 0 15.24 128.5"
   version="1.1"
   id="svg1"
   sodipodi:docname="metal.svg"
   inkscape:version="1.4.2 (f4327f4, 2025-05-13)"
   xmlns:inkscape="http://www.inkscape.org/namespaces/inkscape"
   xmlns:sodipodi="http://sodipodi.sourceforge.net/DTD/sodipodi-0.dtd"
   xmlns:xlink="http://www.w3.org/1999/xlink"
   xmlns="http://www.w3.org/2000/svg"
   xmlns:svg="http://www.w3.org/2000/svg">
  <defs
     id="defs1">
    <linearGradient
       inkscape:collect="always"
       xlink:href="#linearGradient238"
       id="linearGradient239-4"
       x1="649.83807"
       y1="-1044.1716"
       x2="649.83807"
       y2="-398.76425"
       gradientUnits="userSpaceOnUse"
       gradientTransform="matrix(0.05484534,0,0,0.07752293,-27.399713,156.37714)" />
    <linearGradient
       id="linearGradient238"
       inkscape:collect="always">
      <stop
         style="stop-color:#e3dedb;stop-opacity:0.32873562;"
         offset="0"
         id="stop238" />
      <stop
         style="stop-color:#917c6f;stop-opacity:0;"
         offset="1"
         id="stop239" />
    </linearGradient>
    <linearGradient
       inkscape:collect="always"
       xlink:href="#linearGradient4"
       id="linearGradient5-2"
       x1="876.5351"
       y1="-323.21573"
       x2="876.5351"
       y2="58.015488"
       gradientUnits="userSpaceOnUse"
       gradientTransform="matrix(0.05484534,0,0,0.19813638,-40.450403,64.040818)" />
    <linearGradient
       id="linearGradient4"
       inkscape:collect="always">
      <stop
         style="stop-color:#333333;stop-opacity:0.48275861;"
         offset="0"
         id="stop4" />
      <stop
         style="stop-color:#333333;stop-opacity:0;"
         offset="1"
         id="stop5" />
    </linearGradient>
    <linearGradient
       inkscape:collect="always"
       xlink:href="#linearGradient238"
       id="linearGradient240-5"
       gradientUnits="userSpaceOnUse"
       gradientTransform="matrix(0.05484534,0,0,0.07752293,-27.399713,5.3055539)"
       x1="649.83807"
       y1="-1044.1716"
       x2="649.83807"
       y2="-398.76425" />
  </defs>
  <sodipodi:namedview
     id="namedview1"
     pagecolor="#ffffff"
     bordercolor="#cccccc"
     borderopacity="1"
     inkscape:showpageshadow="0"
     inkscape:pageopacity="1"
     inkscape:pagecheckerboard="0"
     inkscape:deskcolor="#d1d1d1"
     inkscape:document-units="mm"
     inkscape:zoom="0.58747298"
     inkscape:cx="-175.32721"
     inkscape:cy="80.854782"
     inkscape:window-width="1920"
     inkscape:window-height="1009"
     inkscape:window-x="-8"
     inkscape:window-y="-8"
     inkscape:window-maximized="1"
     inkscape:current-layer="svg1" />
  <rect
     style="fill:#535353;fill-opacity:1;stroke-width:0.0909901"
     id="rect68-7"
     width="15.24692"
     height="128.49998"
     x="0"
     y="1.5258789e-05" />
  <rect
     style="fill:url(#linearGradient239-4);fill-opacity:1;stroke-width:0.0569159"
     id="rect238-5"
     width="15.24692"
     height="50.276958"
     x="0"
     y="75.535782" />
  <rect
     style="fill:url(#linearGradient5-2);fill-opacity:1;stroke-width:0.0909901"
     id="rect4-2"
     width="15.24692"
     height="128.49998"
     x="0"
     y="1.5258789e-05" />
  <rect
     style="fill:url(#linearGradient240-5);fill-opacity:1;stroke-width:0.0569159"
     id="rect240-7"
     width="15.24692"
     height="50.276958"
     x="0"
     y="-75.535782"
     transform="scale(1,-1)" />
  <rect
     style="fill:#373737;fill-opacity:1;stroke-width:0.112308"
     id="rect5-6"
     width="0.74341071"
     height="128.49998"
     x="3.7170928"
     y="1.0559438e-05" />
  <rect
     style="fill:#4a4a4a;fill-opacity:1;stroke-width:0.112308"
     id="rect6-1"
     width="0.74341071"
     height="128.49998"
     x="5.2039638"
     y="1.0559438e-05" />
  <rect
     style="fill:#3e3e3e;fill-opacity:1;stroke-width:0.112308"
     id="rect7-4"
     width="0.74341071"
     height="128.49998"
     x="4.4605417"
     y="1.0559438e-05" />
  <rect
     style="fill:#5a5a5a;stroke-width:0.112308"
     id="rect8"
     width="0.74341071"
     height="128.49998"
     x="0.74348414"
     y="1.0559438e-05" />
  <rect
     style="fill:#464646;fill-opacity:0.984314;stroke-width:0.112308"
     id="rect9-2"
     width="0.74341071"
     height="128.49998"
     x="6.6907549"
     y="1.0559438e-05" />
  <rect
     style="fill:#373737;fill-opacity:1;stroke-width:0.112308"
     id="rect10-3"
     width="0.74341071"
     height="128.49998"
     x="8.9209681"
     y="1.0559438e-05" />
  <rect
     style="fill:#4a4a4a;fill-opacity:1;stroke-width:0.112308"
     id="rect11"
     width="0.74341071"
     height="128.49998"
     x="3.5140576e-05"
     y="1.0559438e-05" />
  <rect
     style="fill:#3e3e3e;fill-opacity:1;stroke-width:0.112308"
     id="rect12-2"
     width="0.74341071"
     height="128.49998"
     x="10.407866"
     y="1.0559438e-05" />
  <rect
     style="fill:#5a5a5a;stroke-width:0.112308"
     id="rect13-2"
     width="0.74341071"
     height="128.49998"
     x="9.6644173"
     y="1.0559438e-05" />
  <rect
     style="fill:#464646;fill-opacity:0.984314;stroke-width:0.112308"
     id="rect14-1"
     width="0.74341071"
     height="128.49998"
     x="8.1775188"
     y="1.0559438e-05" />
  <rect
     style="fill:#373737;fill-opacity:1;stroke-width:0.112308"
     id="rect15-6"
     width="0.74341071"
     height="128.49998"
     x="11.894604"
     y="1.0559438e-05" />
  <rect
     style="fill:#4a4a4a;fill-opacity:1;stroke-width:0.112308"
     id="rect16-8"
     width="0.74341071"
     height="128.49998"
     x="13.381474"
     y="1.0559438e-05" />
  <rect
     style="fill:#3e3e3e;fill-opacity:1;stroke-width:0.112308"
     id="rect17-5"
     width="0.74341071"
     height="128.49998"
     x="12.638052"
     y="1.0559438e-05" />
  <rect
     style="fill:#464646;fill-opacity:0.984314;stroke-width:0.112308"
     id="rect24"
     width="0.74341071"
     height="128.49998"
     x="2.2303019"
     y="1.0559438e-05" />
  <path
     id="path484-11"
     style="fill:#b3b3b3;fill-opacity:0.360078;stroke-width:0.46227"
     d="M 6.3825562 0.30540771 C 6.3579562 0.30540771 6.3786018 1.2502088 6.3593018 1.2919108 C 6.3643018 1.2834108 6.3682879 1.2751058 6.3742879 1.2655558 C 6.4413879 1.1582088 6.5253066 0.89815131 6.5613566 0.68781331 C 6.6134566 0.38109631 6.5781662 0.30540771 6.3825562 0.30540771 z M 10.788489 0.30540771 C 10.589309 0.30540771 10.561961 0.93080089 10.553361 5.7867269 C 10.548361 8.8016459 10.518249 11.705122 10.488249 12.238013 C 10.403049 13.737277 10.389054 17.113324 10.426754 27.127543 C 10.453854 34.330045 10.485654 35.685283 10.570414 33.297709 C 10.630214 31.614962 10.718154 23.583519 10.765234 15.45022 C 10.812634 7.3169368 10.887749 0.58186541 10.932149 0.48369141 C 10.985349 0.36679241 10.936149 0.30540771 10.788489 0.30540771 z M 13.053984 0.30540771 C 12.963227 0.30887212 12.919858 2.5584066 12.933577 6.5008952 L 12.93151 6.5008952 C 12.94291 9.7143452 12.958205 11.152071 12.989905 11.193115 L 12.990422 11.193632 L 12.990938 11.194149 L 12.991455 11.194149 L 12.991972 11.193632 C 13.007872 11.173622 13.028267 10.827157 13.053467 10.198344 C 13.21551 6.1994967 13.214775 0.31101307 13.053984 0.30540771 z M 1.9807576 0.50797933 L 1.9802409 0.50849609 L 1.9797241 0.50901286 L 1.9792074 0.50901286 L 1.9786906 0.50901286 L 1.9781738 0.50952962 L 1.9776571 0.51004639 C 1.9605571 0.53096639 1.9482015 0.67800767 1.9482015 0.91725667 C 1.9482015 1.1593547 1.9601571 1.3068487 1.9776571 1.3249837 L 1.9781738 1.3255005 L 1.9786906 1.3260173 L 1.9792074 1.3260173 L 1.9797241 1.3260173 L 1.9802409 1.326534 L 1.9807576 1.326534 L 1.9812744 1.326534 L 1.9817912 1.326534 L 1.9823079 1.326534 L 1.9828247 1.326534 L 1.9833415 1.326534 L 1.9838582 1.3260173 L 1.984375 1.3260173 C 1.984485 1.3259243 1.985061 1.325323 1.9854085 1.3249837 L 1.9859253 1.324467 L 1.9864421 1.324467 C 1.9934421 1.316667 2.0010629 1.2917494 2.0086629 1.2490194 C 2.0413629 1.0667534 2.0413629 0.76833174 2.0086629 0.58601074 C 2.0006629 0.54329074 1.9936588 0.51836315 1.9869588 0.51056315 L 1.9864421 0.51004639 L 1.9859253 0.51004639 L 1.9859253 0.50952962 L 1.9854085 0.50952962 L 1.9848918 0.50952962 L 1.9848918 0.50901286 L 1.984375 0.50901286 L 1.9838582 0.50849609 L 1.9833415 0.50849609 L 1.9828247 0.50797933 L 1.9823079 0.50797933 L 1.9817912 0.50797933 L 1.9812744 0.50797933 L 1.9807576 0.50797933 z M 4.1842407 0.62528483 L 4.183724 0.6258016 L 4.1832072 0.62631836 C 4.1667072 0.64862836 4.1553019 0.86516015 4.1553019 1.2231812 C 4.1553019 1.5812062 4.1661904 1.7977289 4.1826904 1.8200439 L 4.1832072 1.8205607 L 4.183724 1.8210775 L 4.1842407 1.8210775 L 4.1842407 1.8215942 L 4.1847575 1.8215942 L 4.1852743 1.8215942 L 4.185791 1.8215942 L 4.1863078 1.8215942 L 4.1868245 1.8215942 L 4.1868245 1.8210775 L 4.1873413 1.8210775 L 4.1878581 1.8205607 C 4.1948581 1.8117607 4.2024789 1.7739293 4.2100789 1.7073893 C 4.2399789 1.4409723 4.2399789 1.005391 4.2100789 0.73897298 C 4.2030789 0.67242298 4.1944581 0.63508836 4.1878581 0.62631836 L 4.1873413 0.6258016 L 4.1868245 0.62528483 L 4.1863078 0.62528483 L 4.185791 0.62528483 L 4.1852743 0.62528483 L 4.1847575 0.62528483 L 4.1842407 0.62528483 z M 6.358785 1.2929443 C 6.308785 1.3787643 6.3060844 1.4162003 6.3556844 1.4092163 C 6.3576844 1.4057163 6.356625 1.2978503 6.358785 1.2929443 z M 6.3556844 1.4092163 C 6.3506844 1.4170163 6.355 1.6566437 6.35 1.6670817 C 6.3646 1.6631817 6.3828267 1.6785173 6.4032267 1.7141073 C 6.4453267 1.7877273 6.4401411 1.8755452 6.3913411 1.9094442 C 6.3732411 1.9219742 6.3571156 1.9218045 6.3443156 1.9109945 C 6.2162756 2.2902925 6.1461387 2.4588897 6.1665487 9.2800537 L 6.1670654 9.2800537 C 6.1820654 14.216103 6.2407568 18.255216 6.2978068 18.255216 C 6.3995068 18.255216 6.5964966 8.7225014 6.5964966 3.8013184 C 6.5964966 1.9277784 6.5542008 1.3319522 6.4249308 1.3875122 C 6.3960308 1.3999122 6.3731012 1.4068263 6.3562012 1.4092163 L 6.3556844 1.4092163 z M 6.35 1.6670817 C 6.3313 1.6720817 6.3183433 1.7087762 6.3143433 1.7756022 C 6.3103578 1.8425776 6.3219515 1.8920246 6.3437988 1.9109945 C 6.3477085 1.8964039 6.3450253 1.6769018 6.35 1.6670817 z M 0.22789307 1.714624 L 0.22789307 1.7151408 L 0.2273763 1.7151408 C 0.2119763 1.7387608 0.20153809 2.1165145 0.20153809 2.7528035 C 0.20153809 3.3890965 0.2120763 3.7673731 0.2273763 3.7909831 L 0.2273763 3.7914998 L 0.22789307 3.7914998 L 0.22789307 3.7920166 L 0.22840983 3.7920166 L 0.2289266 3.7920166 L 0.22944336 3.7920166 L 0.22996012 3.7914998 L 0.23047689 3.7909831 C 0.23647689 3.7812831 0.2433307 3.7175246 0.2506307 3.5946126 C 0.2778307 3.1318676 0.2778307 2.3742612 0.2506307 1.9115112 C 0.2436307 1.7885882 0.23667689 1.7253666 0.23047689 1.7156576 L 0.22996012 1.7151408 L 0.22996012 1.714624 L 0.22944336 1.714624 L 0.2289266 1.714624 L 0.22840983 1.714624 L 0.22789307 1.714624 z M 4.1439331 3.3651693 C 3.9647031 2.4995513 3.8544343 6.5111427 3.7620443 17.285767 L 3.6809123 26.770459 L 3.8715983 20.243726 C 3.9764483 16.653866 4.0743129 11.858205 4.0896729 9.586495 C 4.1048729 7.314761 4.1494916 5.1113518 4.1888916 4.6906698 C 4.2280916 4.2699868 4.2078331 3.6736883 4.1439331 3.3651693 z M 0.072347005 5.3640137 L 0.071830241 5.3645304 L 0.071313477 5.3645304 L 0.070796712 5.3650472 L 0.070279948 5.3650472 L 0.069763184 5.3650472 L 0.069763184 5.3660807 L 0.069246419 5.3660807 L 0.068729655 5.3665975 C 0.051566346 5.3872939 0.039274089 5.511461 0.039274089 5.7107625 C 0.039274089 5.9132635 0.051029655 6.0372466 0.068729655 6.0549276 L 0.069246419 6.0554443 L 0.069763184 6.0559611 L 0.070279948 6.0564779 L 0.070796712 6.0564779 L 0.071313477 6.0564779 L 0.071830241 6.0569946 L 0.072347005 6.0569946 C 0.072567005 6.0569926 0.073414063 6.0570286 0.074414062 6.0569946 L 0.074930827 6.0569946 L 0.075447591 6.0569946 L 0.075964355 6.0564779 L 0.07648112 6.0564779 C 0.08348112 6.0514779 0.092269043 6.0294088 0.10076904 5.9908488 C 0.13456904 5.8365788 0.13456904 5.5844295 0.10076904 5.4301595 C 0.092769043 5.3915995 0.084297884 5.3711207 0.076997884 5.3660807 L 0.07648112 5.365564 L 0.075964355 5.3650472 C 0.07579123 5.3649923 0.074630469 5.3650914 0.074414062 5.3650472 L 0.073897298 5.3645304 L 0.073380534 5.3645304 L 0.07286377 5.3645304 L 0.072347005 5.3640137 z M 15.018205 11.468034 L 15.017688 11.468551 C 15.017508 11.468601 15.016904 11.468506 15.016654 11.468551 C 14.994454 11.474451 14.979964 11.531948 14.979964 11.626164 C 14.979964 11.766366 15.013461 11.823395 15.053861 11.753288 C 15.094361 11.683178 15.094361 11.568641 15.053861 11.498523 C 15.041361 11.476953 15.029122 11.466794 15.018722 11.468034 L 15.018205 11.468034 z M 14.848189 16.236735 C 14.808389 16.399808 14.728455 18.17893 14.596525 21.620386 C 14.537325 23.162908 14.463758 24.608743 14.433228 24.83311 C 14.375128 25.261019 14.073025 41.314589 14.103015 42.374158 C 14.149215 43.999095 14.203513 42.84574 14.657503 30.595032 C 14.733403 28.547687 14.823608 24.02733 14.858008 20.54965 C 14.887808 17.526743 14.888189 16.073662 14.848189 16.236735 z M 10.615889 21.258651 C 10.626389 21.257051 10.638429 21.26722 10.651029 21.28914 C 10.691429 21.35926 10.691429 21.473788 10.651029 21.543905 C 10.610329 21.614015 10.576615 21.556493 10.576615 21.416264 C 10.576615 21.319864 10.592789 21.262233 10.615889 21.258651 z M 6.1598307 22.844084 C 5.8624307 33.343432 5.7754456 41.326933 5.9562256 41.530282 C 5.9801506 41.557161 5.9882777 41.577373 5.9836141 41.587126 C 5.9832305 41.587752 5.9825701 41.588658 5.9820638 41.589193 C 5.9719638 41.597793 5.9419306 41.592976 5.8947306 41.572656 C 5.7789206 41.523706 5.7474187 42.213266 5.7784587 43.978711 C 5.8025587 45.339964 5.8439092 48.403701 5.8694092 50.787598 L 5.915918 55.122217 L 6.0177205 50.328711 C 6.0736205 47.692408 6.1539175 39.546931 6.1954875 32.226973 C 6.2374875 24.835801 6.2217307 20.663546 6.1598307 22.844084 z M 0.49919434 23.842472 C 0.4988543 23.842515 0.49849831 23.84291 0.49816081 23.842989 L 0.49764404 23.842989 L 0.49712728 23.842989 L 0.49661051 23.843506 C 0.47831051 23.851306 0.46487054 23.912706 0.46147054 24.017139 C 0.45847054 24.18543 0.48926667 24.266531 0.52916667 24.197489 C 0.56956667 24.128439 0.57163431 23.990793 0.53433431 23.891565 C 0.52144993 23.857019 0.50973545 23.841134 0.49919434 23.842472 z M 8.2821818 24.83311 L 8.2062174 29.473136 C 8.1643174 32.025304 8.1141196 37.919711 8.0940796 42.571562 L 8.0951131 42.571562 C 8.0751131 47.223411 8.0871346 51.009309 8.1204346 50.985002 C 8.1540346 50.960712 8.2205792 48.708389 8.2682292 45.979622 C 8.3160292 43.250854 8.3926782 40.949371 8.4392782 40.865206 C 8.4857782 40.781046 8.4586 40.683653 8.3783 40.649198 C 8.281 40.608098 8.2792988 40.472876 8.3720988 40.256458 C 8.4628988 40.045805 8.472157 37.196263 8.397937 32.379936 L 8.2821818 24.83311 z M 8.2578939 35.627283 C 8.2721939 35.624883 8.2893535 35.641012 8.3090535 35.675342 L 8.3095703 35.675342 C 8.3516703 35.748962 8.3464847 35.836775 8.2976847 35.870679 C 8.2488847 35.904569 8.2140868 35.844349 8.2206868 35.736837 C 8.2246868 35.668157 8.2382939 35.630604 8.2578939 35.627283 z M 13.151135 41.864111 L 12.958382 43.90378 C 12.703182 46.603207 12.537976 54.874583 12.695866 57.060083 C 12.739966 57.670503 12.769218 58.042486 12.793018 58.065706 L 12.793534 58.066223 L 12.793534 58.06674 L 12.794051 58.06674 L 12.794568 58.06674 C 12.794698 58.06674 12.795311 58.06673 12.795601 58.06674 L 12.796118 58.06674 L 12.796635 58.066223 C 12.835235 58.030023 12.861938 57.013158 12.919108 54.510368 C 12.972908 52.154508 13.046836 48.345524 13.083956 46.045768 L 13.151135 41.864111 z M 2.4742676 45.994609 C 2.2601076 49.434978 2.0779958 56.119865 2.1295858 58.640865 C 2.1554858 59.902935 2.1942854 64.124868 2.2158854 68.023238 L 2.2551595 75.111178 L 2.3533447 69.65518 C 2.5397147 59.2886 2.6196276 43.659795 2.4742676 45.994609 z M 7.9943441 53.064978 L 7.9938273 53.065495 L 7.9933105 53.066012 L 7.9927938 53.066528 L 7.992277 53.066528 L 7.992277 53.067045 L 7.9917603 53.067045 C 7.9753603 53.087645 7.963855 53.239262 7.963855 53.490792 L 7.9648885 53.490792 C 7.9644985 53.760752 7.9766608 53.926874 7.9948608 53.945544 L 7.9953776 53.945544 L 7.9958944 53.946061 L 7.9964111 53.946061 L 7.9964111 53.946578 L 7.9969279 53.946578 L 7.9974447 53.947095 L 7.9979614 53.947095 L 7.9984782 53.947095 L 7.998995 53.947095 L 7.9995117 53.947095 L 8.0000285 53.947095 L 8.0005452 53.947095 L 8.001062 53.946578 L 8.0015788 53.946061 L 8.0020955 53.946061 L 8.0026123 53.946061 L 8.0031291 53.945544 C 8.0091291 53.938544 8.0166996 53.914864 8.0237996 53.875264 C 8.0548996 53.694214 8.0553996 53.372696 8.0237996 53.161096 C 8.0157996 53.105096 8.006395 53.074228 7.998995 53.066528 L 7.9984782 53.066012 L 7.9979614 53.065495 L 7.9974447 53.065495 L 7.9969279 53.064978 L 7.9964111 53.064978 L 7.9958944 53.064978 L 7.9943441 53.064978 z M 10.017993 53.780697 C 9.9984932 53.783697 9.9849861 53.821084 9.9807861 53.889734 C 9.9747861 53.997234 10.008984 54.057993 10.057784 54.024093 C 10.106484 53.990193 10.111253 53.902376 10.069153 53.828756 C 10.049353 53.794456 10.032293 53.778297 10.017993 53.780697 z M 7.8579183 57.106075 L 7.8574015 57.106592 L 7.8574015 57.107109 C 7.8433015 57.148709 7.8331136 57.915031 7.8331136 59.202071 C 7.8331136 60.474651 7.842168 61.223083 7.856368 61.260343 L 7.8568848 61.26086 L 7.8568848 61.261377 L 7.8574015 61.261894 L 7.8579183 61.261894 L 7.8584351 61.261377 C 7.8644351 61.249977 7.8707553 61.117866 7.8775553 60.852616 C 7.9018553 59.909516 7.9018553 58.39486 7.8775553 57.48693 C 7.8705553 57.24576 7.8650686 57.123035 7.8594686 57.107625 L 7.8589518 57.107109 L 7.8589518 57.106592 L 7.8584351 57.106075 L 7.8579183 57.106075 z M 11.659237 58.692025 L 11.56932 61.343542 C 11.48072 63.965472 11.483155 65.457005 11.579655 68.533285 C 11.596555 69.071075 11.609464 69.38308 11.626164 69.41075 L 11.626681 69.41075 L 11.626681 69.411267 L 11.627197 69.411267 L 11.627714 69.411784 L 11.628231 69.412301 L 11.628748 69.412301 L 11.629264 69.412301 L 11.629781 69.412301 L 11.630298 69.411784 C 11.657198 69.381284 11.694 68.650515 11.76724 67.003145 C 11.84734 65.197995 11.853727 62.801593 11.782227 61.292383 L 11.659237 58.692025 z M 15.175818 58.84447 C 15.030568 59.20084 14.794426 66.818604 14.741736 72.867904 C 14.686536 79.193914 14.732734 79.133149 15.013554 72.510819 C 15.126084 69.860109 15.259118 58.64021 15.175818 58.84447 z M 8.4578817 71.388924 C 8.3375117 71.475924 8.2201078 75.904103 8.1199178 84.136983 C 8.0672178 88.484083 8.0565802 92.017794 8.0971802 91.989734 C 8.1374802 91.961634 8.2135421 90.607792 8.2661621 88.981132 C 8.3968121 84.938452 8.5451417 71.325844 8.4578817 71.388924 z M 13.851351 79.802881 C 13.643591 80.259711 13.437847 114.34699 13.602787 120.97918 C 13.634587 122.25527 13.704563 123.29952 13.758333 123.29945 C 13.812033 123.2994 13.865222 113.4898 13.876672 101.50026 C 13.888372 89.510742 13.876841 79.746781 13.851351 79.802881 z M 4.8410482 80.36357 C 4.7782482 81.62563 4.6914218 85.549671 4.6488118 89.083451 C 4.6016118 92.956381 4.6158518 94.53588 4.6839518 93.06047 C 4.7461518 91.71427 4.8329282 87.790745 4.8761882 84.341105 C 4.9237882 80.573635 4.9095482 78.98523 4.8410482 80.36357 z M 0.69711507 82.729317 C 0.69605965 82.729355 0.69512699 82.729703 0.69401449 82.729834 C 0.66801449 82.732834 0.62670633 82.761583 0.58032633 82.811483 C 0.50222633 82.895583 0.43821615 83.010158 0.43821615 83.066248 C 0.43821615 83.122348 0.50211633 83.099188 0.58032633 83.015088 C 0.65852633 82.930988 0.72243652 82.816413 0.72243652 82.760323 C 0.72243652 82.738948 0.71294637 82.728758 0.69711507 82.729317 z M 0.40359294 83.239364 C 0.40253752 83.239401 0.40160485 83.239749 0.40049235 83.23988 C 0.37449235 83.24288 0.3331942 83.271112 0.2868042 83.321012 C 0.2086042 83.405112 0.14469401 83.520204 0.14469401 83.576294 C 0.14469401 83.632394 0.2085942 83.609334 0.2868042 83.525134 C 0.3650042 83.441034 0.42891439 83.326459 0.42891439 83.270369 C 0.42891439 83.248994 0.41942424 83.238804 0.40359294 83.239364 z M 2.282548 83.741659 C 2.256648 83.762759 2.1911472 87.130233 2.1373372 91.224923 C 2.0835372 95.319613 2.0086191 100.52872 1.9709391 102.80044 C 1.8488091 110.12266 1.7821892 125.14058 1.8655192 126.69149 C 1.9100192 127.51964 1.9622212 128.18525 1.9817912 128.17047 C 2.1663712 128.03057 2.2179989 123.91569 2.2696289 105.26076 C 2.3031289 93.404356 2.308648 83.720549 2.282548 83.741659 z M 6.7902832 89.899422 L 6.7964844 96.579118 C 6.7994844 100.28091 6.8094937 101.83779 6.8460937 101.89146 L 6.8466105 101.89197 L 6.8471273 101.89249 L 6.847644 101.89301 L 6.8481608 101.89301 L 6.8486776 101.89249 C 6.8678776 101.87449 6.8946263 101.48109 6.9303263 100.79385 C 7.0054263 99.357506 7.0030587 96.568865 6.9251587 94.113635 L 6.7902832 89.899422 z M 10.710974 90.66475 C 10.666078 91.422264 10.623072 94.335968 10.615373 97.140324 C 10.608373 99.627594 10.616328 100.80957 10.644828 100.87033 L 10.645345 100.87085 L 10.645862 100.87136 L 10.645862 100.87188 L 10.645862 100.8724 L 10.646379 100.87291 L 10.646895 100.87291 L 10.647412 100.87291 L 10.647929 100.87291 L 10.648446 100.8724 C 10.662446 100.8514 10.681273 100.5861 10.704773 100.09777 C 10.761473 98.919854 10.805874 96.006082 10.800374 93.622192 C 10.796374 91.238292 10.755874 89.90751 10.710974 90.66475 z M 4.4829305 98.792419 L 4.4829305 98.792936 L 4.4824137 98.792936 L 4.4824137 98.793453 C 4.4678137 98.823753 4.457609 99.297154 4.457609 100.09777 L 4.4581258 100.09777 C 4.4581258 100.91675 4.4681305 101.40579 4.4829305 101.43567 L 4.4834473 101.43619 L 4.4834473 101.4367 L 4.483964 101.4367 L 4.483964 101.43722 L 4.4844808 101.43722 L 4.4849976 101.43722 L 4.4855143 101.4367 L 4.4860311 101.43619 C 4.4920311 101.42409 4.4984514 101.34699 4.5051514 101.19951 C 4.5311514 100.62762 4.5311514 99.664066 4.5051514 99.058036 C 4.4981514 98.892326 4.4911976 98.80653 4.4849976 98.79397 L 4.4849976 98.793453 L 4.4844808 98.792936 L 4.483964 98.792419 L 4.4834473 98.792419 L 4.4829305 98.792419 z M 8.0610067 101.62739 C 7.9965067 102.30049 7.8971315 105.67393 7.8398315 109.12357 L 7.8393148 109.12357 C 7.7821148 112.57321 7.7735945 115.37027 7.8201945 115.33973 C 8.0054545 115.21797 8.0575472 113.79476 8.1168172 107.23635 C 8.1521172 103.32699 8.1281067 100.92721 8.0610067 101.62739 z M 4.3583903 105.93617 C 4.3352903 104.80032 4.3154989 105.72944 4.3154989 108.00116 C 4.3154989 110.27287 4.3343903 111.20252 4.3583903 110.06667 C 4.3823903 108.93081 4.3823903 107.07203 4.3583903 105.93617 z M 6.4425008 110.95912 C 6.3876008 112.7821 6.2902966 117.40713 6.2259766 121.23704 C 6.1173866 127.70115 6.1261771 128.19614 6.3520671 128.13585 C 6.5764671 128.07595 6.5933781 127.28641 6.5691081 117.85741 C 6.5501081 110.5449 6.5138108 108.58595 6.4425008 110.95912 z M 10.937834 115.8627 C 10.905934 115.8861 10.839432 117.44285 10.789522 119.32192 C 10.739722 121.20099 10.661869 123.96631 10.615889 125.46676 C 10.541189 127.91024 10.556591 128.19424 10.764201 128.19424 C 10.970151 128.19424 10.996412 127.87477 11.001912 125.36444 C 11.004912 123.80789 11.007881 122.1674 11.013281 121.71867 C 11.031581 119.20497 10.987734 115.82602 10.937834 115.8627 z M 7.8331136 116.10454 C 7.8324513 116.10456 7.8316965 116.10495 7.8310465 116.10506 C 7.8079465 116.10906 7.7922892 116.16571 7.7922892 116.26215 C 7.7922892 116.40238 7.8257865 116.45993 7.8661865 116.38979 C 7.9066865 116.31969 7.9066865 116.20516 7.8661865 116.13503 C 7.8542803 116.1145 7.8430478 116.10431 7.8331136 116.10454 z M 12.973368 127.59945 L 12.973368 127.59996 L 12.972852 127.59996 L 12.972335 127.59996 C 12.972118 127.60001 12.971551 127.59995 12.971301 127.59996 L 12.971301 127.60048 L 12.970785 127.60048 L 12.970785 127.601 L 12.970268 127.601 C 12.952568 127.6141 12.939779 127.69842 12.939779 127.83767 L 12.937195 127.83767 C 12.936195 127.99561 12.950201 128.09339 12.971301 128.10381 L 12.971301 128.10433 L 12.972335 128.10433 L 12.972852 128.10433 L 12.973885 128.10433 L 12.973885 128.10484 L 12.974402 128.10484 L 12.974919 128.10484 L 12.975952 128.10484 C 12.983952 128.10284 12.992257 128.09105 13.000757 128.06815 C 13.040157 127.97065 13.041024 127.78677 13.005924 127.65991 C 12.995924 127.62461 12.986102 127.60508 12.977502 127.60048 L 12.976986 127.60048 L 12.976469 127.59996 L 12.975952 127.59996 L 12.975435 127.59996 C 12.97521 127.59991 12.974652 127.59947 12.974402 127.59945 C 12.974162 127.59944 12.973368 127.59943 12.973368 127.59945 z " />
</svg>
