<?xml version="1.0" encoding="UTF-8" standalone="no"?>
<svg
   width="15.24mm"
   height="128.5mm"
   viewBox="0 0 15.24 128.5"
   version="1.1"
   id="svg1"
   sodipodi:docname="metal.svg"
   inkscape:version="1.4.2 (f4327f4, 2025-05-13)"
   xmlns:inkscape="http://www.inkscape.org/namespaces/inkscape"
   xmlns:sodipodi="http://sodipodi.sourceforge.net/DTD/sodipodi-0.dtd"
   xmlns:xlink="http://www.w3.org/1999/xlink"
   xmlns="http://www.w3.org/2000/svg"
   xmlns:svg="http://www.w3.org/2000/svg">
  <defs
     id="defs1">
    <linearGradient
       inkscape:collect="always"
       xlink:href="#linearGradient238"
       id="linearGradient239-8"
       x1="649.83807"
       y1="-1044.1716"
       x2="649.83807"
       y2="-398.76425"
       gradientUnits="userSpaceOnUse"
       gradientTransform="matrix(0.23920343,0,0,0.07752298,-152.75072,156.37731)" />
    <linearGradient
       id="linearGradient238"
       inkscape:collect="always">
      <stop
         style="stop-color:#e3dedb;stop-opacity:0.32873562;"
         offset="0"
         id="stop238" />
      <stop
         style="stop-color:#917c6f;stop-opacity:0;"
         offset="1"
         id="stop239" />
    </linearGradient>
    <linearGradient
       inkscape:collect="always"
       xlink:href="#linearGradient4"
       id="linearGradient5-2"
       x1="876.5351"
       y1="-323.21573"
       x2="876.5351"
       y2="58.015488"
       gradientUnits="userSpaceOnUse"
       gradientTransform="matrix(0.23920343,0,0,0.19813649,-209.67022,64.04093)" />
    <linearGradient
       id="linearGradient4"
       inkscape:collect="always">
      <stop
         style="stop-color:#333333;stop-opacity:0.48275861;"
         offset="0"
         id="stop4" />
      <stop
         style="stop-color:#333333;stop-opacity:0;"
         offset="1"
         id="stop5" />
    </linearGradient>
    <linearGradient
       inkscape:collect="always"
       xlink:href="#linearGradient238"
       id="linearGradient240-6"
       gradientUnits="userSpaceOnUse"
       gradientTransform="matrix(0.23920343,0,0,0.07752298,-152.75072,5.3054804)"
       x1="649.83807"
       y1="-1044.1716"
       x2="649.83807"
       y2="-398.76425" />
  </defs>
  <sodipodi:namedview
     id="namedview1"
     pagecolor="#ffffff"
     bordercolor="#cccccc"
     borderopacity="1"
     inkscape:showpageshadow="0"
     inkscape:pageopacity="1"
     inkscape:pagecheckerboard="0"
     inkscape:deskcolor="#d1d1d1"
     inkscape:document-units="mm"
     inkscape:zoom="0.83081226"
     inkscape:cx="-62.589351"
     inkscape:cy="128.18781"
     inkscape:window-width="1920"
     inkscape:window-height="1009"
     inkscape:window-x="-8"
     inkscape:window-y="-8"
     inkscape:window-maximized="1"
     inkscape:current-layer="svg1" />
  <g
     id="g7">
    <path
       id="rect68-9"
       style="fill:#535353;fill-opacity:1;stroke-width:0.190025"
       d="M 0 0 L 0 128.50017 L 15.239897 128.50017 L 15.239897 0 L 0 0 z " />
    <path
       id="path484-1"
       style="fill:#f9f9f9;fill-opacity:0.360078;stroke-width:0.560754"
       d="M 4.4069661 1.2386841 C 4.0758661 1.2386841 4.0526393 1.9075064 4.0886393 10.231417 L 4.0891561 10.231417 C 4.1112561 15.177287 4.1973924 19.22415 4.2813924 19.22415 C 4.4307924 19.22415 4.7201253 9.6722827 4.7201253 4.7413127 C 4.7201253 2.8640527 4.6577443 2.2671556 4.4679443 2.3228556 C 4.2886443 2.3753656 4.2676806 2.3399693 4.3950806 2.2008993 C 4.4935806 2.0933292 4.6164824 1.8328832 4.6694824 1.6221232 C 4.7460824 1.3148232 4.6942661 1.2386841 4.4069661 1.2386841 z M 10.877372 1.2386841 C 10.584872 1.2386841 10.545174 1.865792 10.532174 6.7313721 C 10.523174 9.7522821 10.480056 12.66111 10.436056 13.19506 C 10.311056 14.6973 10.291139 18.079906 10.346139 28.114046 L 10.346655 28.114046 C 10.386455 35.330866 10.432478 36.688935 10.556978 34.296615 C 10.644778 32.610525 10.774266 24.563465 10.843266 16.413985 C 10.912866 8.2645249 11.023729 1.5158845 11.088729 1.4174845 C 11.166829 1.3003645 11.093872 1.2386841 10.877372 1.2386841 z M 14.204301 1.2386841 C 14.070701 1.2386841 14.006568 3.4937107 14.027568 7.4470907 L 14.024984 7.4470907 C 14.041752 10.66693 14.064196 12.106971 14.110767 12.148096 C 14.111321 12.148387 14.112789 12.149229 14.11335 12.149129 C 14.136787 12.136904 14.166854 11.789005 14.204301 11.151257 C 14.442401 7.142547 14.440701 1.2386841 14.204301 1.2386841 z M 1.1797729 1.5585612 L 1.1797729 1.559078 L 1.1792562 1.559078 C 1.1789671 1.5591798 1.1779929 1.55944 1.1777059 1.5595947 C 1.1529216 1.5776391 1.1353312 1.7951023 1.1353312 2.1580078 C 1.1353312 2.5209542 1.1524049 2.7383834 1.1771891 2.7564209 C 1.1774761 2.7565755 1.1784503 2.7568359 1.1787394 2.7569377 L 1.1792562 2.7574544 L 1.1797729 2.7574544 L 1.1802897 2.7574544 L 1.1808065 2.7574544 L 1.1813232 2.7574544 L 1.18184 2.7574544 L 1.1823568 2.7569377 C 1.1925339 2.7513312 1.2045101 2.7141608 1.2164632 2.6432495 C 1.2604632 2.3762995 1.2604632 1.9397161 1.2164632 1.6727661 C 1.2045101 1.6018442 1.1930506 1.5651997 1.1828735 1.5595947 L 1.1823568 1.559078 L 1.18184 1.559078 L 1.1813232 1.559078 L 1.1808065 1.5585612 L 1.1802897 1.5585612 L 1.1797729 1.5585612 z M 4.3625244 2.6024251 C 4.3830531 2.6013761 4.4083905 2.6173748 4.4364217 2.6504842 C 4.4984217 2.7242642 4.4913685 2.8123379 4.4193685 2.8463379 C 4.3472685 2.8802879 4.2961971 2.8197492 4.3061971 2.7119792 C 4.3123127 2.6413229 4.332521 2.6039584 4.3625244 2.6024251 z M 1.1193115 4.3046468 C 0.85601148 3.4373068 0.69432223 7.4570891 0.55862223 18.253149 L 0.43924967 27.756445 L 0.71933594 21.216793 C 0.87333594 17.619793 1.0167298 12.814088 1.0397298 10.537858 C 1.0620298 8.2616078 1.1274574 6.0547679 1.1854574 5.6332479 C 1.2429574 5.2117279 1.2133115 4.6137768 1.1193115 4.3046468 z M 10.623641 22.234302 C 10.639029 22.232674 10.656363 22.242337 10.674801 22.264274 C 10.733801 22.334524 10.733801 22.449256 10.674801 22.519556 C 10.615101 22.589816 10.56628 22.532425 10.56628 22.391915 C 10.56628 22.295301 10.589787 22.237882 10.623641 22.234302 z M 4.0865723 23.822319 C 3.6497723 34.342549 3.5223825 42.34248 3.7878825 42.54624 C 3.8699825 42.60964 3.8309152 42.627081 3.6964152 42.587581 C 3.5263152 42.538541 3.4803997 43.229854 3.5263997 44.998804 C 3.5622997 46.362764 3.6222082 49.433003 3.6592082 51.821643 L 3.7284546 56.16453 L 3.8777995 51.361723 C 3.9599995 48.720173 4.0777655 40.558322 4.1387655 33.223812 C 4.2006655 25.817942 4.1775723 21.637449 4.0865723 23.822319 z M 7.2031779 25.814962 L 7.0915568 30.464807 C 7.0299568 33.022047 6.956709 38.927961 6.926709 43.589071 L 6.9303263 43.589071 C 6.9013263 48.250171 6.9170166 52.043864 6.9670166 52.019564 C 7.0164166 51.995224 7.1145744 49.738049 7.1845744 47.003849 C 7.2546744 44.269659 7.3672386 41.963397 7.4362386 41.879097 C 7.5046386 41.794767 7.4641216 41.69759 7.3463216 41.66309 C 7.2014216 41.62191 7.1991863 41.486166 7.3359863 41.269316 C 7.4689863 41.058246 7.4831269 38.202684 7.3742269 33.376774 L 7.2031779 25.814962 z M 7.1695882 36.631356 C 7.1901697 36.630307 7.2153437 36.645789 7.2429687 36.678898 C 7.3049687 36.752658 7.2979155 36.840752 7.2259155 36.874752 C 7.1539155 36.908702 7.1027441 36.848123 7.1127441 36.740393 C 7.1188598 36.669737 7.1395076 36.632889 7.1695882 36.631356 z M 14.353129 42.88007 L 14.069942 44.923873 C 13.695442 47.628673 13.452636 55.916174 13.684436 58.106014 C 13.860936 59.771734 13.874265 59.666451 14.012065 55.551131 C 14.091165 53.190591 14.200427 49.373808 14.254427 47.069478 L 14.353129 42.88007 z M 6.7804647 54.103158 C 6.780159 54.103213 6.7797347 54.10358 6.7794312 54.103674 C 6.7538165 54.115048 6.7355062 54.268749 6.7355062 54.530005 L 6.7375732 54.530005 C 6.7368545 54.812819 6.7569048 54.981938 6.7856323 54.987341 C 6.7875182 54.987461 6.7903941 54.986566 6.7923503 54.985274 C 6.8015309 54.978138 6.8120413 54.954678 6.8223226 54.914994 C 6.8683226 54.733584 6.8683226 54.411802 6.8223226 54.199792 C 6.8087367 54.138505 6.7957011 54.107514 6.784082 54.103674 C 6.783146 54.103483 6.7813818 54.102992 6.7804647 54.103158 z M 9.7544434 54.820426 C 9.7246005 54.821956 9.7041305 54.8593 9.6975993 54.92998 C 9.6882993 55.0377 9.7387707 55.098339 9.8107707 55.064339 C 9.8827707 55.030379 9.8898239 54.942286 9.8278239 54.868486 C 9.7997926 54.835356 9.7748622 54.81938 9.7544434 54.820426 z M 6.5799601 58.152006 L 6.5794434 58.152523 L 6.5789266 58.152523 L 6.5789266 58.15304 C 6.5582584 58.194728 6.5437171 58.962016 6.5437866 60.251619 C 6.5437866 61.526733 6.5576279 62.277209 6.5778931 62.314543 L 6.5778931 62.315059 L 6.5784098 62.315576 L 6.5789266 62.315576 L 6.5789266 62.316093 L 6.5794434 62.316093 L 6.5799601 62.315576 L 6.5804769 62.315059 L 6.5809937 62.314543 C 6.5893409 62.296927 6.5990552 62.164172 6.6088989 61.905782 C 6.6448989 60.960802 6.6448989 59.443118 6.6088989 58.533378 C 6.5993364 58.291731 6.5901981 58.168995 6.5820272 58.153556 L 6.5815104 58.15304 L 6.5809937 58.152523 L 6.5809937 58.152006 L 6.5804769 58.152006 L 6.5799601 58.152006 z M 12.162048 59.741056 L 12.030273 62.397742 C 11.900373 65.024882 11.90346 66.519563 12.04526 69.601953 C 12.07004 70.140822 12.089484 70.453247 12.113989 70.480969 C 12.114243 70.481194 12.115285 70.481838 12.11554 70.482003 C 12.115796 70.482107 12.116833 70.482477 12.11709 70.48252 C 12.117348 70.482501 12.118381 70.482599 12.11864 70.48252 C 12.158271 70.461146 12.212971 69.730816 12.321212 68.06923 C 12.439212 66.26049 12.447916 63.858802 12.342916 62.346582 L 12.162048 59.741056 z M 7.4610433 72.463277 C 7.2843433 72.550417 7.1120495 76.987398 6.9649495 85.236658 L 6.9644328 85.236658 C 6.8874328 89.592408 6.8713599 93.133011 6.9313599 93.104911 C 6.9905599 93.076821 7.1024067 91.720515 7.1794067 90.090625 C 7.3712067 86.039905 7.5891433 72.400077 7.4610433 72.463277 z M 2.2076172 80.96405 L 2.2071004 80.964567 C 2.192553 80.976746 2.1729247 81.137197 2.1497396 81.455493 C 2.0575396 82.720073 1.9305863 86.652144 1.8675863 90.192944 C 1.81593 93.073107 1.8139381 94.687262 1.857251 94.723934 L 1.8577677 94.724451 C 1.8580007 94.724469 1.8590825 94.72452 1.859318 94.724451 C 1.874074 94.714693 1.8939862 94.536266 1.9182292 94.178231 C 2.0096292 92.829351 2.1368993 88.89728 2.2008993 85.44078 C 2.2534743 82.60956 2.2546046 81.006984 2.2096842 80.965084 L 2.2091675 80.964567 C 2.2089285 80.964518 2.2078587 80.964014 2.2076172 80.96405 z M 15.239897 83.364421 C 14.994581 91.398292 14.81248 116.54967 15.016654 122.15172 L 15.016138 122.15172 C 15.061845 123.40584 15.161545 124.43663 15.239897 124.47561 L 15.239897 83.364421 z M 5.0105469 91.010465 L 5.0203654 97.703597 C 5.0252795 101.47939 5.0401808 103.02795 5.0963298 103.02782 C 5.1246488 103.01866 5.1641276 102.6234 5.2172526 101.9266 C 5.3255526 100.48741 5.3221341 97.693077 5.2074341 95.232947 L 5.0105469 91.010465 z M 10.805025 91.56392 L 10.804508 91.564437 C 10.793578 91.574144 10.781487 91.643455 10.769885 91.776827 C 10.703885 92.535567 10.640842 95.45516 10.629842 98.26532 C 10.619823 100.78703 10.631846 101.9699 10.674284 102.00463 C 10.674534 102.00475 10.675582 102.0051 10.675834 102.00514 C 10.676089 102.00511 10.677128 102.00525 10.677384 102.00514 C 10.698075 101.99006 10.7261 101.72446 10.7611 101.22896 C 10.8442 100.0487 10.911143 97.128584 10.901143 94.739954 C 10.896251 92.855167 10.858385 91.62737 10.810193 91.565987 C 10.809954 91.565741 10.808882 91.564626 10.808643 91.564437 L 10.808126 91.56392 C 10.807885 91.563846 10.806817 91.563937 10.806576 91.56392 C 10.806334 91.563961 10.805267 91.563821 10.805025 91.56392 z M 1.6236735 99.921549 L 1.6231567 99.922066 L 1.62264 99.922583 C 1.6012375 99.952974 1.5864665 100.42676 1.5864665 101.22896 L 1.5875 101.22896 C 1.5875 102.04962 1.6022835 102.54004 1.6241903 102.56997 L 1.624707 102.57048 L 1.6252238 102.571 L 1.6257406 102.571 L 1.6262573 102.57152 L 1.6267741 102.571 L 1.6272909 102.571 L 1.6278076 102.57048 L 1.6283244 102.56997 C 1.6367794 102.55783 1.6464328 102.48103 1.6562297 102.33329 C 1.6942297 101.76026 1.6942297 100.79442 1.6562297 100.18717 C 1.645839 100.02112 1.6357359 99.935683 1.6267741 99.9231 L 1.6267741 99.922583 L 1.6262573 99.922066 L 1.6257406 99.921549 L 1.6252238 99.921549 L 1.624707 99.921549 L 1.6241903 99.921549 L 1.6236735 99.921549 z M 6.8786499 102.76169 C 6.7839499 103.43613 6.6370884 106.81635 6.5530884 110.27286 L 6.5536051 110.27286 C 6.4696051 113.72935 6.4566663 116.53212 6.5246663 116.50142 C 6.7967663 116.37943 6.8732987 114.95346 6.9602987 108.38201 C 7.0116987 104.46488 6.9776499 102.06011 6.8786499 102.76169 z M 1.4128337 106.59349 L 1.4128337 106.59401 L 1.4123169 106.59401 C 1.392344 106.63269 1.3782104 107.56569 1.3782104 109.14838 C 1.3782104 110.73107 1.3912689 111.66355 1.4112834 111.70223 L 1.4118001 111.70274 L 1.4123169 111.70326 L 1.4123169 111.70378 L 1.4128337 111.70378 L 1.4133504 111.70326 L 1.4138672 111.70274 C 1.4219614 111.68617 1.4311686 111.52922 1.4407389 111.21802 C 1.4757389 110.0799 1.4757389 108.21737 1.4407389 107.07925 C 1.4314421 106.76805 1.4229592 106.61162 1.4149007 106.59504 L 1.414384 106.59453 L 1.4138672 106.59401 L 1.4138672 106.59349 L 1.4133504 106.59349 L 1.4128337 106.59349 z M 4.501534 112.11202 C 4.421034 113.93862 4.2772072 118.57309 4.1832072 122.41062 C 4.0978929 125.87506 4.0620813 127.62803 4.0979411 128.50017 L 4.6260742 128.50017 C 4.7084138 127.4076 4.7093543 124.87712 4.6870524 119.02426 C 4.6590524 111.69721 4.606334 109.73413 4.501534 112.11202 z M 11.103198 117.02542 C 11.056398 117.04884 10.958124 118.60854 10.885124 120.49135 C 10.812024 122.37415 10.697842 125.14466 10.629842 126.64808 C 10.591583 127.50197 10.569589 128.09284 10.569897 128.50017 L 11.164176 128.50017 C 11.185892 128.07604 11.193123 127.4538 11.196733 126.54576 C 11.201733 124.98614 11.203786 123.34239 11.213786 122.89276 C 11.240586 120.37407 11.176198 116.98862 11.103198 117.02542 z M 6.540686 117.26829 C 6.5068114 117.27188 6.4833252 117.32931 6.4833252 117.42591 C 6.4833252 117.56635 6.5333625 117.62375 6.5923625 117.55355 C 6.6513625 117.4833 6.6513625 117.36847 6.5923625 117.29827 C 6.5737062 117.27631 6.5560836 117.26666 6.540686 117.26829 z " />
    <path
       id="rect238-0"
       style="fill:url(#linearGradient239-8);fill-opacity:1;stroke-width:0.118862"
       d="M 0 75.535958 L 0 125.81299 L 15.239897 125.81299 L 15.239897 75.535958 L 0 75.535958 z " />
    <path
       id="rect4-0"
       style="fill:url(#linearGradient5-2);fill-opacity:1;stroke-width:0.190025"
       d="M 0 0 L 0 128.50017 L 15.239897 128.50017 L 15.239897 0 L 0 0 z " />
    <path
       id="rect240-6"
       style="fill:url(#linearGradient240-6);fill-opacity:1;stroke-width:0.118862"
       d="M 0 -25.258923 L 0 -75.535958 L 15.239897 -75.535958 L 15.239897 -25.258923 L 0 -25.258923 z "
       transform="scale(1,-1)" />
    <rect
       style="fill:#373737;fill-opacity:1;stroke-width:0.144545"
       id="rect25-3"
       width="1.2314427"
       height="128.50006"
       x="6.1571918"
       y="8.3784842e-05" />
    <rect
       style="fill:#4a4a4a;fill-opacity:1;stroke-width:0.144545"
       id="rect26-5"
       width="1.2314427"
       height="128.50006"
       x="8.620203"
       y="8.3784842e-05" />
    <rect
       style="fill:#3e3e3e;fill-opacity:1;stroke-width:0.144545"
       id="rect27-9"
       width="1.2314427"
       height="128.50006"
       x="7.38869"
       y="8.3784842e-05" />
    <rect
       style="fill:#5a5a5a;stroke-width:0.144545"
       id="rect28-8"
       width="1.2314427"
       height="128.50006"
       x="1.2315124"
       y="8.3784842e-05" />
    <rect
       style="fill:#464646;fill-opacity:0.984314;stroke-width:0.144545"
       id="rect29-4"
       width="1.2314427"
       height="128.50006"
       x="11.083032"
       y="8.3784842e-05" />
    <rect
       style="fill:#4a4a4a;fill-opacity:1;stroke-width:0.144545"
       id="rect31-7"
       width="1.2314427"
       height="128.50006"
       x="-4.1667175e-07"
       y="8.3784842e-05" />
    <rect
       style="fill:#464646;fill-opacity:0.984314;stroke-width:0.144545"
       id="rect34-6"
       width="1.2314427"
       height="128.50006"
       x="13.545816"
       y="8.3784842e-05" />
    <rect
       style="fill:#464646;fill-opacity:0.984314;stroke-width:0.144545"
       id="rect44-2"
       width="1.2314427"
       height="128.50006"
       x="3.6943629"
       y="8.3784842e-05" />
  </g>
</svg>
