<?xml version="1.0" encoding="UTF-8" standalone="no"?>
<svg
   width="15.24mm"
   height="128.5mm"
   viewBox="0 0 15.24 128.5"
   version="1.1"
   id="svg1"
   sodipodi:docname="wood.svg"
   inkscape:version="1.4.2 (f4327f4, 2025-05-13)"
   xmlns:inkscape="http://www.inkscape.org/namespaces/inkscape"
   xmlns:sodipodi="http://sodipodi.sourceforge.net/DTD/sodipodi-0.dtd"
   xmlns="http://www.w3.org/2000/svg"
   xmlns:svg="http://www.w3.org/2000/svg">
  <defs
     id="defs1" />
  <sodipodi:namedview
     id="namedview1"
     pagecolor="#ffffff"
     bordercolor="#cccccc"
     borderopacity="1"
     inkscape:showpageshadow="0"
     inkscape:pageopacity="1"
     inkscape:pagecheckerboard="0"
     inkscape:deskcolor="#d1d1d1"
     inkscape:document-units="mm"
     inkscape:zoom="1.2069767"
     inkscape:cx="30.240849"
     inkscape:cy="210.85742"
     inkscape:window-width="1920"
     inkscape:window-height="1009"
     inkscape:window-x="-8"
     inkscape:window-y="-8"
     inkscape:window-maximized="1"
     inkscape:current-layer="svg1" />
  <path
     id="rect3"
     style="fill:#915e2a;fill-opacity:1;stroke-width:0.162352"
     d="M 0 0 L 0 128.50017 L 15.239897 128.50017 L 15.239897 0 L 0 0 z " />
  <path
     id="path4"
     style="fill:#7e5824;fill-opacity:1;stroke-width:0.422285"
     d="M 2.4422282 0 C 2.4726086 5.6262062 2.2617988 10.372344 1.679484 17.680575 C 1.490964 20.046304 0.96351966 27.218414 0.45681966 34.309017 C 0.083479661 39.532766 -0.10417949 52.271442 0.10852051 57.940133 C 0.37816051 65.12406 0.8074836 69.788638 1.9590535 78.05105 C 3.7767333 91.092247 4.2662133 95.835853 4.7092733 104.69852 C 4.8740433 107.99461 4.7779243 116.09379 4.5382243 119.11211 C 4.2551316 122.67664 3.9070894 125.99426 3.5584391 128.50017 L 3.7873657 128.50017 C 4.135699 125.99504 4.4833067 122.68009 4.7661174 119.11883 C 5.0058274 116.10056 5.1019263 108.00189 4.9371663 104.70575 C 4.4940963 95.843098 4.0046264 91.099461 2.1869466 78.058285 C 1.0353766 69.795873 0.60603357 65.1308 0.33641357 57.946851 C 0.12370357 52.278182 0.31140273 39.539505 0.68471273 34.315735 C 1.1914527 27.225196 1.7189271 20.053042 1.9073771 17.687292 C 2.4899082 10.376141 2.7007051 5.6291808 2.6701213 0 L 2.4422282 0 z M 7.4191854 0 C 7.3875286 3.30547 7.2985634 6.939758 7.1659709 9.5048462 C 6.8332409 15.941685 6.6890277 17.78635 5.9319377 25.314734 C 5.6909477 27.71132 5.428324 30.350941 5.347994 31.180526 C 5.168064 33.03936 5.1799004 54.070393 5.3645304 60.230432 C 5.5586604 66.71153 5.7548062 68.970809 6.6652262 75.202128 C 7.4888362 80.839274 7.817807 82.573009 8.397937 84.332837 C 8.739517 85.369013 9.2379509 86.108671 9.5296509 86.012838 C 9.5459509 86.007538 9.5623435 86.00067 9.5787435 85.99165 C 9.2886035 85.834657 8.9048601 85.185973 8.6258301 84.339555 C 8.0456901 82.579707 7.7167393 80.845992 6.8931193 75.208846 C 5.9826693 68.977549 5.7865535 66.71827 5.5924235 60.23715 C 5.4078935 54.077133 5.396077 33.046101 5.575887 31.187244 C 5.656187 30.357661 5.9188307 27.718038 6.1598307 25.321452 C 6.9169007 17.793069 7.0606472 15.948403 7.3933472 9.5115641 C 7.5260434 6.9447749 7.6155066 3.3072355 7.6470785 0 L 7.4191854 0 z M 12.720154 16.570048 L 12.720154 16.571082 C 12.718154 16.571125 12.716986 16.571082 12.714986 16.571082 C 12.374026 16.684718 11.80935 18.950474 11.41274 21.794535 C 11.02317 24.587772 10.837622 26.978284 10.454142 34.140552 C 10.299472 37.028766 10.123205 39.869574 10.062435 40.453345 C 10.001735 41.037095 9.7775809 43.148954 9.5647909 45.146082 C 8.5931809 54.266233 8.6624783 52.82222 8.6868083 63.469511 C 8.6958083 67.548361 8.6847359 70.431919 8.6568359 71.799235 C 8.7354359 72.253034 8.8017726 72.593269 8.8330526 72.694271 C 8.8985526 72.90528 8.9286013 69.490255 8.9147013 63.476229 C 8.8904013 52.82896 8.8210639 54.272909 9.7926839 45.152799 C 10.005424 43.155629 10.229558 41.043877 10.290328 40.460063 C 10.351128 39.876312 10.527395 37.03544 10.682035 34.14727 C 11.065515 26.98498 11.251093 24.594512 11.640633 21.801253 C 11.979243 19.373143 12.440745 17.366399 12.780615 16.760734 C 12.763715 16.626345 12.743654 16.569576 12.720154 16.570048 z M 13.559379 17.442863 C 13.525179 17.444963 13.506682 17.508725 13.485482 17.613395 C 13.273152 18.659886 13.194431 19.700726 13.126331 22.354191 C 13.119331 22.619775 13.112777 22.87189 13.106177 23.110734 C 13.133477 27.619366 13.225244 27.382719 13.354224 22.360909 C 13.422324 19.708238 13.501205 18.667317 13.713375 17.621147 C 13.637675 17.494885 13.591479 17.441277 13.559379 17.442863 z M 15.239897 19.014343 C 15.161193 19.167698 15.084481 19.269192 15.004252 19.316134 C 15.088894 19.364798 15.166017 19.364734 15.239897 19.318201 L 15.239897 19.014343 z M 11.526428 64.861157 C 11.489228 64.863357 11.4523 64.924377 11.41429 65.042025 C 11.53994 65.454973 11.674049 66.562863 11.845789 68.498145 C 12.428469 75.064077 12.44921 81.409146 11.9078 87.380713 C 11.70055 89.666777 11.131026 92.009798 10.597286 92.771598 C 10.470716 92.952286 10.285327 93.055962 10.089307 93.080623 C 10.362247 93.131053 10.649999 93.02835 10.825179 92.778316 C 11.358939 92.016473 11.928433 89.673516 12.135693 87.387431 C 12.677113 81.415842 12.656392 75.070814 12.073682 68.504862 C 11.848622 65.968931 11.687648 64.853673 11.526428 64.861157 z M 0 81.258089 L 0 82.76394 C 2.6401294 100.09739 3.1430329 108.02876 2.2908162 118.72092 C 2.0754123 121.42363 1.6032422 125.67729 1.2262817 128.50017 L 1.4546916 128.50017 C 1.8315162 125.67722 2.3034906 121.42816 2.5187093 118.72764 C 3.3748893 107.98551 2.863256 100.03023 0.19068604 82.527262 C 0.12357405 82.087735 0.06010714 81.665564 0 81.258089 z M 12.004952 91.297786 C 11.943252 91.297786 11.903519 91.314188 11.880929 91.378918 C 11.948329 91.564409 11.956541 92.117077 11.949141 93.67852 C 11.965741 94.34097 11.978048 95.127502 11.983248 95.878902 C 11.992985 97.284517 12.005237 97.922113 12.02924 97.963013 L 12.029757 97.963529 L 12.030273 97.964046 L 12.03079 97.964563 L 12.031307 97.964563 L 12.031824 97.964563 L 12.03234 97.964046 L 12.032857 97.964046 L 12.033374 97.963529 C 12.03353 97.963339 12.034251 97.962213 12.034408 97.961979 C 12.047028 97.939822 12.06289 97.77883 12.082983 97.498958 C 12.126983 96.884458 12.168701 95.23775 12.176001 93.83975 C 12.187801 91.547918 12.170932 91.297786 12.004952 91.297786 z M 12.147062 99.119014 C 12.110662 99.119014 12.079244 99.135276 12.050944 99.182576 C 12.410654 99.603866 12.597957 102.039 12.912907 109.67083 C 13.310387 119.30306 13.530606 124.07276 13.649296 125.63678 C 13.721372 126.58604 13.741715 127.59615 13.714925 128.50017 L 13.943852 128.50017 C 13.970329 127.5979 13.949566 126.59086 13.877706 125.64401 C 13.758946 124.08004 13.538827 119.30982 13.141317 109.67754 C 12.790157 101.16752 12.597786 99.119014 12.148096 99.119014 L 12.147062 99.119014 z M 9.9988729 103.67791 C 9.9644729 103.68391 10.010679 104.55479 10.135299 106.20644 C 10.367219 107.78643 10.645937 109.34126 10.744047 109.52458 C 10.847297 109.71748 10.882131 109.73216 11.013281 109.60468 C 11.000381 109.58388 10.986623 109.5597 10.971423 109.5313 C 10.841643 109.28884 10.39629 106.64645 10.16062 104.72074 C 10.07432 104.0151 10.020613 103.67433 9.9988729 103.67791 z M 0 106.42399 L 0 108.68381 C 0.087644149 109.84687 0.14068282 111.09166 0.17880046 112.57556 C 0.23715614 114.84726 0.18260529 117.32936 0 120.29912 L 0 123.47308 C 0.36119751 119.02699 0.48462886 115.61725 0.40669352 112.58279 C 0.34311608 110.10812 0.2382387 108.29713 0 106.42399 z " />
  <path
     id="path3"
     style="fill:#96642c;fill-opacity:1;stroke-width:0.422285"
     d="M 1.4386719 0 C 1.4792854 9.6852485 1.1156943 18.109688 0.17466634 29.728418 C 0.10986287 30.52856 0.051790609 31.260031 0 31.952055 L 0 73.431694 C 0.32415699 77.006423 0.70387532 79.903859 1.6262573 85.994234 C 2.1811973 89.658185 2.9183682 95.313912 3.1832682 97.939242 C 3.5171282 101.24806 3.5870657 102.45739 3.6979655 106.81415 C 3.8718155 113.64597 3.5900876 118.20642 2.4039876 127.75138 C 2.3722009 128.00712 2.3410895 128.25789 2.3114868 128.50017 L 3.5589559 128.50017 C 3.9076028 125.99425 4.2551292 122.67656 4.5382243 119.11211 C 4.7779343 116.09379 4.8740533 107.99513 4.7092733 104.69904 C 4.2662233 95.836365 3.7767333 91.092765 1.9590535 78.051567 C 0.8074836 69.789154 0.37816051 65.12406 0.10852051 57.940133 C -0.10418949 52.271443 0.083489661 39.533282 0.45681966 34.309534 C 0.96351966 27.218932 1.490984 20.046305 1.679484 17.680575 C 2.2618661 10.372286 2.4731455 5.6262605 2.442745 0 L 1.4386719 0 z M 6.4760905 0 C 6.4471354 1.7365153 6.4151697 4.0358773 6.387207 6.4884928 C 6.262127 17.446059 6.1618644 18.97197 5.1387044 25.482682 C 4.4239944 30.030772 4.1615397 31.915898 4.0199097 33.524052 C 3.8610497 35.327838 3.9390066 39.980274 4.1976766 44.141492 C 4.3230266 46.158562 4.4062137 50.416396 4.4824137 58.721997 C 4.5416637 65.174382 4.6153113 70.704931 4.6457113 71.012203 C 4.6763313 71.319453 4.7534603 72.224638 4.8167603 73.02345 C 5.2266203 78.195369 6.5709599 85.053036 8.1131999 89.838961 C 8.6640899 91.548566 9.0428074 92.412745 9.4231974 92.827409 L 9.4237142 92.827409 C 9.7602742 93.194363 10.319776 93.167798 10.597286 92.771598 C 11.131036 92.009798 11.70055 89.666777 11.9078 87.380713 C 12.44921 81.409146 12.428469 75.064592 11.845789 68.498661 C 11.545379 65.113552 11.359534 64.259457 11.134204 65.228577 C 11.094674 65.398478 11.013237 68.780787 10.953337 72.744397 C 10.842367 80.082465 10.706381 82.602376 10.323401 84.403117 C 10.141651 85.257663 9.8152909 85.919584 9.5296509 86.013354 C 9.2379509 86.109187 8.739527 85.36953 8.397937 84.333354 C 7.817827 82.573527 7.4888362 80.839274 6.6652262 75.202128 C 5.7547962 68.97081 5.5586604 66.71153 5.3645304 60.230432 C 5.1799004 54.070394 5.168064 33.039877 5.347994 31.181042 C 5.428324 30.351457 5.6909477 27.711837 5.9319377 25.315251 C 6.6890177 17.786868 6.8327341 15.942201 7.1654541 9.505363 C 7.2980855 6.940208 7.3875487 3.3055381 7.4191854 0 L 6.4760905 0 z M 9.2686849 0 C 8.9706235 1.614509 8.7237132 4.0156546 8.5596842 7.0181763 C 8.2393342 12.882738 8.1481534 14.385076 7.6558634 21.851379 C 6.8830334 33.571665 6.898301 33.056351 6.972701 44.476872 C 7.073301 59.924905 7.2849504 64.336852 8.2217204 70.509908 C 8.3756104 71.523847 8.5480595 72.50421 8.6051595 72.688586 C 8.6704595 72.899596 8.701225 69.484549 8.687325 63.470544 C 8.663015 52.823254 8.5936976 54.267268 9.5653076 45.147115 C 9.7780976 43.149988 10.001735 41.038128 10.062435 40.454378 C 10.123205 39.870606 10.299472 37.029797 10.454142 34.141585 C 10.837622 26.979316 11.023687 24.588806 11.413257 21.795569 C 11.809867 18.951509 12.374543 16.685751 12.715503 16.572115 C 12.825723 16.53538 12.858716 17.673666 12.873116 21.981604 C 12.891766 27.620701 12.987441 27.761501 13.126331 22.354191 C 13.194441 19.700726 13.273689 18.659886 13.485999 17.613395 C 13.548219 17.306809 13.584675 17.349601 14.069425 18.284155 C 14.660373 19.423579 14.933546 19.611669 15.239897 19.01486 L 15.239897 0 L 9.2686849 0 z M 15.239897 23.207886 C 15.159362 23.481951 15.076984 23.871315 14.97738 24.421248 C 14.13311 29.082648 13.751279 39.101859 13.751099 56.599129 C 13.751019 67.507072 13.859453 70.839724 14.427543 77.437134 C 14.702323 80.627966 14.833534 85.291205 14.978414 96.989429 C 15.041934 102.1206 15.149459 108.53121 15.217159 111.23507 C 15.225446 111.56617 15.232997 111.89601 15.239897 112.22416 L 15.239897 23.207886 z M 0 82.76394 L 0 87.637028 C 0.065917531 88.088476 0.12730126 88.512067 0.18190104 88.889148 C 1.872121 100.5617 1.9634697 101.53737 1.9564697 107.99496 C 1.9517997 112.54824 1.9391583 112.81059 1.5430583 116.82181 C 1.3185283 119.09551 1.082309 121.63422 1.017509 122.46384 C 0.78110485 125.49394 0.63476879 127.25658 0.5141805 128.50017 L 1.2262817 128.50017 C 1.6032369 125.67726 2.0754158 121.42358 2.2908162 118.72092 C 3.1430362 108.02874 2.6401462 100.09753 0 82.76394 z M 11.777059 91.291069 C 11.615159 91.291069 11.601921 91.402284 11.664921 92.212976 C 11.704321 92.719977 11.745472 94.366664 11.755872 95.872184 C 11.765668 97.286402 11.777074 97.922956 11.801347 97.956812 L 11.801864 97.957328 L 11.80238 97.957328 L 11.802897 97.957845 L 11.803414 97.957845 L 11.803931 97.957845 L 11.804447 97.957845 L 11.804964 97.957328 L 11.805481 97.956812 C 11.818166 97.937902 11.834745 97.775604 11.85509 97.49224 C 11.89909 96.87772 11.941108 95.231062 11.948108 93.833032 C 11.959938 91.541203 11.943099 91.291069 11.777059 91.291069 z M 11.919169 99.112297 C 11.699849 99.112297 11.651088 99.705122 11.508858 104.0846 C 11.375298 108.19732 11.276135 109.34286 11.031885 109.58711 C 10.885535 109.73341 10.851937 109.72612 10.744047 109.52458 C 10.614267 109.28209 10.168964 106.63971 9.9332438 104.71402 C 9.8495188 104.02998 9.7960204 103.6892 9.7730469 103.67222 C 9.7727849 103.67211 9.7717502 103.67173 9.7714966 103.67171 C 9.7710061 103.67185 9.7698867 103.67225 9.7694295 103.67274 C 9.7330897 103.72836 9.8096533 105.0001 9.9968058 107.34539 C 10.483776 113.44731 10.555079 115.0145 10.560079 119.61492 C 10.564287 123.76271 10.532035 124.91985 10.131165 128.50017 L 13.714925 128.50017 C 13.741701 127.5962 13.72137 126.58646 13.649296 125.63729 C 13.530606 124.07327 13.310387 119.30307 12.912907 109.67083 C 12.561717 101.16081 12.368879 99.112297 11.919169 99.112297 z M 0 108.68432 L 0 120.2986 C 0.18255723 117.32922 0.23715574 114.84703 0.17880046 112.57556 C 0.14069407 111.09198 0.087604877 109.84717 0 108.68432 z M 15.239897 121.45615 C 15.189672 123.42733 15.103555 125.14431 14.983582 126.48634 C 14.924811 127.14388 14.870759 127.86097 14.830103 128.50017 L 15.239897 128.50017 L 15.239897 121.45615 z " />
  <path
     id="path653"
     style="fill:#554400;fill-opacity:1;stroke-width:0.417071"
     d="M 0.28370361 0 C 0.29793958 3.157156 0.32887451 6.2591213 0.37000326 7.1246297 C 0.40569326 7.8771017 0.46034287 8.4925049 0.49144287 8.4925049 C 0.53485644 8.4925049 0.51201581 4.1889779 0.46715495 0 L 0.28370361 0 z M 2.5595337 0 L 2.5455811 0.39584147 C 2.4674011 2.6071739 2.36964 5.5221213 2.32854 6.8734823 C 2.23654 9.9057993 2.180456 35.770956 2.236556 49.620744 C 2.259356 55.256626 2.3033244 59.867664 2.3342244 59.867664 C 2.3644244 59.867664 2.3780465 50.30627 2.3626465 38.619865 C 2.3378065 19.783694 2.3773558 14.385215 2.5528158 12.792501 C 2.5799158 12.546796 2.6212998 8.7524564 2.6447998 4.3604574 L 2.6680542 0 L 2.5595337 0 z M 3.8142375 0 C 3.8223023 1.0632252 3.8391852 1.7843983 3.861263 1.8432983 C 3.8975911 1.9399975 3.940093 2.0056988 3.9578979 1.99316 C 3.9581721 1.9929167 3.9591873 1.9924113 3.9594482 1.9921265 C 3.969931 1.9808064 3.9646516 1.1884126 3.9485962 0 L 3.8142375 0 z M 5.2684123 0 C 5.1922311 3.0374849 5.1406294 8.3654872 5.187797 10.559045 L 5.1883138 10.559045 C 5.2301104 12.501118 5.2514993 13.345399 5.275647 13.402283 C 5.275804 13.402586 5.2765233 13.403596 5.2766805 13.403833 L 5.2771973 13.40435 L 5.277714 13.404867 L 5.2782308 13.404867 L 5.2787476 13.404867 L 5.2792643 13.404867 L 5.2797811 13.40435 L 5.2797811 13.403833 C 5.294452 13.37752 5.3112793 13.076852 5.3335246 12.569259 C 5.3844386 11.40516 5.4123268 3.8153183 5.3970866 0 L 5.2684123 0 z M 6.8791667 0 L 6.8802002 1.9590535 L 6.9194743 0 L 6.8791667 0 z M 9.0454427 0 C 9.0457428 0.14808575 9.046137 0.29872406 9.0464762 0.45165202 C 9.0599762 6.5666575 9.0825771 7.8239622 9.1389771 5.5888062 C 9.1796355 3.9796942 9.2470828 1.4811909 9.2898722 0 L 9.0454427 0 z M 13.904578 0 C 13.8841 2.6025402 13.895977 3.8249477 13.935067 2.740918 C 13.967258 1.8478916 13.996188 0.92178905 14.02085 0 L 13.904578 0 z M 3.9615153 2.4298258 L 3.9609985 2.4303426 C 3.9484272 2.4456916 3.9392944 2.6378315 3.9392944 2.9641602 L 3.940328 2.9641602 C 3.9399842 3.3021092 3.9488785 3.5094393 3.9620321 3.5315674 L 3.9625488 3.5320841 L 3.9630656 3.5326009 L 3.9630656 3.5331177 L 3.9635824 3.5331177 L 3.9635824 3.5336344 L 3.9640991 3.5336344 L 3.9646159 3.5336344 L 3.9651326 3.5336344 L 3.9651326 3.5331177 L 3.9656494 3.5331177 L 3.9661662 3.5326009 C 3.9709643 3.5255724 3.9767015 3.4957741 3.9821859 3.4421672 C 4.0048859 3.2134236 4.0052859 2.8113713 3.9821859 2.5486816 C 3.9758421 2.4768584 3.9695666 2.4383976 3.9640991 2.4308594 L 3.9635824 2.4303426 L 3.9635824 2.4298258 L 3.9630656 2.4298258 L 3.9625488 2.4298258 L 3.9620321 2.4298258 L 3.9615153 2.4298258 z M 12.360486 3.2457967 L 12.360486 3.2463135 C 12.348931 3.2653511 12.340427 3.6084999 12.340332 4.1930257 L 12.340849 4.1930257 C 12.340501 4.790991 12.34848 5.150374 12.360486 5.1753947 L 12.361003 5.1759115 L 12.361519 5.1764282 L 12.362036 5.1764282 L 12.362553 5.1764282 L 12.36307 5.1759115 C 12.367711 5.1683099 12.373159 5.1136552 12.378573 5.0074463 C 12.399473 4.5955063 12.399473 3.8917484 12.378573 3.4437174 C 12.372807 3.3177027 12.36698 3.2539541 12.362036 3.2463135 L 12.361519 3.2457967 L 12.361003 3.2457967 L 12.360486 3.2457967 z M 8.1901978 4.8456991 C 8.175618 4.849335 8.1656999 4.8903743 8.1628092 4.9655884 L 8.1622925 4.9655884 C 8.1574925 5.0834594 8.1834533 5.1489727 8.2196533 5.1118327 C 8.2562533 5.0747347 8.2599383 4.9785223 8.2284383 4.8978923 C 8.2137993 4.8602973 8.200837 4.8430458 8.1901978 4.8456991 z M 8.1710775 5.5986247 C 7.9430975 4.9180337 7.8814399 11.750092 8.0604899 17.874361 C 8.0704499 18.21219 8.1212445 15.653289 8.1731445 12.187887 C 8.2282445 8.5290821 8.2272775 5.7662747 8.1710775 5.5986247 z M 13.715959 6.9292928 C 13.670759 7.9428458 13.606332 11.259803 13.573332 14.300419 C 13.535932 17.757501 13.54567 18.970671 13.59917 17.538981 C 13.64618 16.279722 13.70988 12.962766 13.74128 10.167855 C 13.77378 7.2479253 13.763159 5.8704088 13.715959 6.9292928 z M 4.0633179 7.1716553 L 4.0628011 7.172172 L 4.0622843 7.172172 L 4.0622843 7.1726888 C 4.0494377 7.1859543 4.0397632 7.2780077 4.0385132 7.4315877 C 4.0376882 7.6007052 4.0476858 7.7072156 4.0628011 7.722526 L 4.0633179 7.7230428 L 4.0638346 7.7235596 L 4.0643514 7.7240763 L 4.0648682 7.7240763 L 4.0653849 7.7245931 L 4.0659017 7.7245931 L 4.0664185 7.7245931 L 4.0669352 7.7245931 L 4.067452 7.7245931 L 4.0679687 7.7240763 C 4.0681546 7.7239864 4.069332 7.723674 4.069519 7.7235596 L 4.0700358 7.7235596 C 4.0749606 7.7193031 4.0804899 7.7059768 4.0860555 7.6842855 C 4.1131555 7.5774725 4.1142226 7.3767151 4.0881226 7.2378011 C 4.0807819 7.1987254 4.0737334 7.1774772 4.067452 7.1726888 L 4.0669352 7.172172 L 4.0664185 7.172172 L 4.0659017 7.1716553 L 4.0653849 7.1716553 L 4.0648682 7.1716553 L 4.0643514 7.1716553 L 4.0638346 7.1716553 L 4.0633179 7.1716553 z M 10.670667 7.3199666 C 10.631507 8.7942036 10.585981 12.161881 10.569381 14.803231 C 10.552981 17.44458 10.52065 19.781176 10.49755 19.996195 C 10.47445 20.211172 10.432399 26.292462 10.403499 33.510099 C 10.354869 45.743348 10.384946 46.479987 10.597286 38.257096 C 10.632116 36.905714 10.678856 28.788974 10.701156 20.219954 C 10.723656 11.650956 10.709867 5.8457316 10.670667 7.3199666 z M 3.9847697 8.8278849 C 3.9358697 9.3500249 3.92108 13.923367 3.95118 18.991089 C 3.98148 24.058767 4.0181455 31.648006 4.0333455 35.855693 C 4.0506455 40.679542 4.0822117 42.494928 4.1186117 40.769604 C 4.1503117 39.264661 4.1899616 33.108063 4.2064616 27.088269 C 4.2388316 15.274057 4.1403197 7.1643199 3.9847697 8.8278849 z M 6.7918335 10.788489 L 6.7913167 10.789006 L 6.7908 10.789522 C 6.7777377 10.803455 6.7680623 10.920401 6.7680623 11.117151 L 6.7675456 11.117151 C 6.7669198 11.330309 6.7766331 11.463153 6.7913167 11.477852 L 6.7918335 11.477852 L 6.7923503 11.478369 L 6.792867 11.478886 L 6.7933838 11.478886 L 6.7939006 11.478886 L 6.7944173 11.478886 L 6.7949341 11.478886 L 6.7954508 11.478886 L 6.7959676 11.478369 L 6.7964844 11.477852 C 6.8014598 11.473148 6.8073771 11.456226 6.8130208 11.426176 C 6.8393208 11.288806 6.8400879 11.037326 6.8150879 10.867554 C 6.8084473 10.822458 6.8018288 10.797471 6.7959676 10.790556 L 6.7954508 10.790039 L 6.7949341 10.789522 L 6.7944173 10.789006 L 6.7939006 10.788489 L 6.7933838 10.788489 L 6.792867 10.788489 L 6.7923503 10.788489 L 6.7918335 10.788489 z M 6.7794312 11.87266 C 6.6856312 11.969393 6.6097147 23.698317 6.6926147 25.412919 L 6.7897664 27.423132 L 6.8481608 25.915731 C 6.9986208 22.038026 6.9480112 11.699949 6.7794312 11.87266 z M 8.0806437 18.694466 C 8.0654143 18.69615 8.0551904 18.737108 8.0522217 18.814355 L 8.0527384 18.814355 C 8.0480384 18.932057 8.0738993 18.998217 8.1100993 18.961117 C 8.1457993 18.923998 8.1493507 18.827289 8.1178507 18.746659 C 8.1037539 18.71046 8.0910638 18.693314 8.0806437 18.694466 z M 13.437939 20.79718 L 13.437423 20.797697 L 13.436906 20.797697 L 13.436389 20.798214 C 13.423132 20.811489 13.413652 20.903546 13.413652 21.057113 L 13.410551 21.057113 C 13.409726 21.226093 13.419762 21.332695 13.434839 21.348051 L 13.435356 21.348568 L 13.435872 21.349084 L 13.436389 21.349601 L 13.436906 21.349601 L 13.437423 21.350118 L 13.437939 21.350118 L 13.438456 21.350118 L 13.438973 21.350118 L 13.43949 21.350118 L 13.440007 21.349601 L 13.440523 21.349601 C 13.440709 21.349487 13.441886 21.349223 13.442074 21.349084 C 13.446973 21.344839 13.452589 21.331502 13.458093 21.30981 C 13.488193 21.203039 13.489261 21.002262 13.463261 20.863326 C 13.45592 20.824256 13.448538 20.802997 13.442074 20.798214 L 13.441557 20.797697 L 13.44104 20.797697 L 13.440523 20.79718 L 13.440007 20.79718 L 13.43949 20.79718 L 13.438973 20.79718 L 13.438456 20.79718 L 13.437939 20.79718 z M 10.605554 26.269714 L 10.606071 26.269714 L 10.606588 26.269714 L 10.607104 26.269714 L 10.607621 26.269714 L 10.608138 26.270231 L 10.608655 26.270231 C 10.615006 26.275016 10.62253 26.29679 10.629842 26.33586 L 10.632943 26.33586 C 10.656443 26.474774 10.654975 26.67558 10.627775 26.782345 C 10.622291 26.804036 10.617096 26.81686 10.612272 26.821102 L 10.611755 26.821619 L 10.611239 26.822135 L 10.610722 26.822135 L 10.610205 26.822652 L 10.609688 26.822652 L 10.609172 26.822652 L 10.608655 26.822652 L 10.608138 26.822652 L 10.607621 26.822652 L 10.607104 26.822135 L 10.606588 26.822135 L 10.606071 26.821619 L 10.605554 26.821102 C 10.590754 26.805733 10.580233 26.699086 10.580233 26.530164 C 10.580983 26.376586 10.590472 26.284536 10.603487 26.271265 L 10.604004 26.270748 L 10.604521 26.270231 L 10.605037 26.270231 L 10.605554 26.269714 z M 13.878223 32.819185 C 13.849974 33.039963 13.794064 34.291631 13.673584 36.860799 C 13.509986 40.348962 13.264341 50.359911 13.296863 52.205082 C 13.306202 52.673801 13.352518 51.994408 13.400732 50.653756 C 13.449322 49.302352 13.588968 45.859925 13.711308 43.003577 C 13.833528 40.14723 13.925463 36.528587 13.916463 34.962207 C 13.907018 33.408564 13.906471 32.598408 13.878223 32.819185 z M 13.296863 52.205082 C 13.296788 52.201331 13.295899 52.221386 13.295829 52.217485 L 13.296346 52.217485 C 13.296319 52.216003 13.296889 52.206574 13.296863 52.205082 z M 0.62735189 41.048657 C 0.49957189 47.878801 0.46423138 53.219432 0.51883138 57.522587 L 0.56947428 61.487203 L 0.62683512 58.974178 C 0.65853512 57.592066 0.69011507 52.013239 0.69711507 46.577002 C 0.70681507 38.739202 0.69205189 37.594709 0.62735189 41.048657 z M 8.4149902 41.997953 C 8.3932902 42.274367 8.2987839 48.205085 8.2051839 55.176994 C 8.0838839 64.210364 8.0597681 70.00348 8.1214681 75.33597 L 8.1225016 75.33597 C 8.169224 79.375905 8.1949409 81.115846 8.2196533 81.174373 L 8.2196533 81.17489 L 8.2201701 81.175407 L 8.2206868 81.175924 L 8.2212036 81.175407 C 8.2345217 81.151639 8.2483868 80.642806 8.2646118 79.747587 C 8.2952118 78.058375 8.3321941 71.349131 8.3472941 64.837903 C 8.3622941 58.326676 8.3927902 50.410693 8.4149902 47.247245 C 8.4359902 44.083755 8.4365902 41.721539 8.4149902 41.997953 z M 4.852417 42.380876 C 4.823017 42.262655 4.7875688 43.070438 4.7738688 44.176115 C 4.7602688 45.281812 4.7373091 46.362004 4.7227091 46.577002 C 4.7080791 46.792 4.6628569 50.637061 4.6224569 55.121183 C 4.5820269 59.605326 4.5295681 63.525136 4.5056681 63.832279 C 4.4863509 64.080637 4.4840893 64.208799 4.501534 64.229154 C 4.5017641 64.22938 4.5028478 64.229998 4.5030843 64.230188 C 4.5033273 64.230343 4.5043851 64.231101 4.5046346 64.231222 C 4.5048905 64.231307 4.5059225 64.231688 4.5061849 64.231738 C 4.5064538 64.231753 4.5074598 64.231758 4.5077352 64.231738 C 4.5082991 64.231629 4.509729 64.23147 4.510319 64.231222 C 4.5217785 64.225186 4.5387315 64.193789 4.5599284 64.139237 C 4.6619784 63.876268 4.945917 42.756297 4.852417 42.380876 z M 14.513326 43.505872 L 14.498857 44.957979 C 14.490857 45.756512 14.529423 48.344652 14.584123 50.709566 C 14.638933 53.074501 14.723408 56.743307 14.771708 58.862557 C 14.865708 62.964932 14.868993 92.969249 14.777393 105.26748 L 14.776876 105.26748 C 14.732676 111.19312 14.742986 112.10202 14.829586 109.90234 C 15.005366 105.4455 14.99691 60.10468 14.81925 52.719779 C 14.73725 49.310605 14.634974 45.843053 14.591874 45.01379 L 14.513326 43.505872 z M 10.271724 48.527271 C 10.254614 48.531195 10.243302 48.59378 10.243302 48.699353 C 10.243302 48.852914 10.267979 48.915649 10.298079 48.838879 C 10.328179 48.762088 10.328179 48.636627 10.298079 48.559827 C 10.288642 48.535836 10.279502 48.525487 10.271724 48.527271 z M 6.556189 49.184595 C 6.5409596 49.186278 6.5302189 49.227236 6.5272502 49.304484 L 6.5277669 49.304484 C 6.5230669 49.422186 6.5488278 49.487828 6.5851278 49.450728 C 6.6207278 49.41363 6.624896 49.317418 6.593396 49.236788 C 6.5792991 49.200589 6.5666091 49.183443 6.556189 49.184595 z M 6.5685913 49.727714 C 6.5065913 49.791489 6.5032907 84.292733 6.5654907 84.773637 C 6.5852707 84.927219 6.6431483 88.14327 6.6936483 91.921004 L 6.6931315 91.921004 C 6.7437515 95.698758 6.8037399 98.614142 6.8259399 98.399162 C 6.8483399 98.184162 6.8342341 92.303651 6.7949341 85.331742 C 6.7050241 69.37632 6.6776233 63.864674 6.6497233 55.96816 C 6.6374233 52.502674 6.6010913 49.694454 6.5685913 49.727714 z M 11.366231 53.366252 L 11.365715 53.366768 L 11.365198 53.366768 L 11.364681 53.366768 L 11.364164 53.366768 C 11.350624 53.374558 11.340417 53.442273 11.337292 53.557454 L 11.336259 53.557454 C 11.334678 53.689917 11.346119 53.772975 11.363647 53.781213 L 11.364164 53.78173 C 11.364358 53.781784 11.36552 53.782211 11.365715 53.782247 L 11.366231 53.782247 L 11.366748 53.782247 L 11.367265 53.782247 L 11.367782 53.782247 C 11.373429 53.780729 11.380405 53.77191 11.386902 53.755375 C 11.417902 53.679741 11.419153 53.528649 11.391553 53.419995 C 11.383174 53.386882 11.375305 53.369578 11.368298 53.366768 L 11.367782 53.366768 L 11.367265 53.366768 L 11.366748 53.366768 L 11.366231 53.366252 z M 13.233301 53.769845 L 13.233301 53.770361 L 13.232784 53.770361 C 13.221312 53.791413 13.213235 54.16005 13.213147 54.78632 L 13.213664 54.78632 C 13.213312 55.434186 13.221697 55.820182 13.233818 55.838452 L 13.233818 55.838969 L 13.234334 55.838969 L 13.234851 55.838969 L 13.235368 55.838452 C 13.239962 55.830049 13.24556 55.770644 13.250871 55.656551 C 13.271281 55.21401 13.271571 54.460606 13.250871 53.981718 C 13.245211 53.850783 13.239664 53.78234 13.234851 53.771395 L 13.234851 53.770878 L 13.234334 53.770361 L 13.233818 53.769845 L 13.233301 53.769845 z M 11.373466 54.165169 L 11.372949 54.165686 L 11.372432 54.165686 L 11.371916 54.166203 L 11.371399 54.16672 C 11.358816 54.18494 11.349695 54.32644 11.349695 54.562561 L 11.351245 54.562561 C 11.350901 54.815875 11.360082 54.97273 11.373983 54.991475 L 11.3745 54.991992 L 11.375016 54.992509 L 11.375533 54.993026 L 11.37605 54.993542 L 11.376567 54.993542 L 11.377083 54.993542 L 11.3776 54.993542 L 11.378117 54.993026 L 11.378634 54.992509 L 11.37915 54.991992 C 11.383938 54.985727 11.389767 54.964629 11.39517 54.927913 C 11.41907 54.760092 11.41937 54.458429 11.39517 54.25767 C 11.388715 54.204349 11.382741 54.174856 11.377083 54.167236 L 11.376567 54.16672 L 11.37605 54.166203 L 11.375533 54.165686 L 11.375016 54.165686 L 11.375016 54.165169 L 11.3745 54.165169 L 11.373983 54.165169 L 11.373466 54.165169 z M 11.279415 57.243018 L 11.2019 60.482096 C 11.10294 64.600104 11.002901 70.499973 10.943001 75.782971 C 10.904101 79.227249 10.911893 79.534081 10.988993 77.625753 C 11.160453 73.37979 11.315302 65.109776 11.297502 61.163192 L 11.279415 57.243018 z M 2.3202718 60.45109 L 2.319755 60.451607 L 2.3192383 60.452124 L 2.3187215 60.452124 C 2.3050681 60.467984 2.2954671 60.579752 2.2954671 60.761149 C 2.2954671 60.942531 2.30455 61.053799 2.3182048 61.069657 L 2.3187215 61.070174 L 2.3192383 61.070691 L 2.319755 61.070691 L 2.3202718 61.071208 L 2.3207886 61.071208 L 2.3213053 61.071208 L 2.3213053 61.071724 L 2.3218221 61.071724 L 2.3223389 61.071208 L 2.3228556 61.071208 L 2.3233724 61.071208 L 2.3238892 61.070691 L 2.3244059 61.070174 C 2.3299156 61.064932 2.3361958 61.045769 2.3424927 61.012297 C 2.3684927 60.874069 2.3684927 60.64821 2.3424927 60.510002 C 2.3359677 60.47545 2.3300637 60.456638 2.3244059 60.452124 L 2.3238892 60.451607 L 2.3233724 60.45109 L 2.3228556 60.45109 L 2.3223389 60.45109 L 2.3218221 60.45109 L 2.3213053 60.45109 L 2.3207886 60.45109 L 2.3202718 60.45109 z M 0.56895752 61.854622 L 0.56844076 61.855139 C 0.55429036 61.862928 0.54333577 61.930644 0.54208577 62.045825 L 0.54156901 62.045825 C 0.53998776 62.178273 0.55089645 62.261349 0.56844076 62.269584 L 0.56895752 62.269584 C 0.56915117 62.269638 0.57031271 62.270065 0.57050781 62.270101 L 0.57102458 62.270101 L 0.57154134 62.270101 L 0.57205811 62.270101 L 0.57257487 62.270101 C 0.57823368 62.268582 0.58515452 62.259769 0.59169515 62.243229 C 0.62249515 62.167638 0.62456279 62.016503 0.59686279 61.907849 C 0.58866904 61.875592 0.58025614 61.8586 0.57309163 61.855139 L 0.57257487 61.855139 L 0.57205811 61.854622 L 0.57154134 61.854622 L 0.57102458 61.854622 L 0.57050781 61.854622 L 0.56999105 61.854622 L 0.56947428 61.854622 L 0.56895752 61.854622 z M 0.68212891 65.992354 L 0.68161214 65.992871 L 0.68109538 65.992871 L 0.68057861 65.993388 L 0.68006185 65.993388 C 0.66568574 66.005722 0.65525716 66.092591 0.65525716 66.233683 C 0.65525716 66.374745 0.66517033 66.461123 0.67954508 66.473462 L 0.68006185 66.473979 L 0.68057861 66.474495 L 0.68109538 66.474495 L 0.68161214 66.475012 L 0.68212891 66.475012 L 0.68264567 66.475012 L 0.68316243 66.475012 L 0.6836792 66.475012 L 0.68419596 66.475012 L 0.68471273 66.475012 L 0.68522949 66.474495 C 0.6911873 66.470985 0.6985083 66.4559 0.7053833 66.42902 C 0.7328833 66.321521 0.7328833 66.14584 0.7053833 66.038346 C 0.6985333 66.011477 0.69169938 65.996898 0.68574626 65.993388 L 0.68522949 65.992871 L 0.68471273 65.992871 L 0.68419596 65.992354 L 0.6836792 65.992354 L 0.68316243 65.992354 L 0.68264567 65.992354 L 0.68212891 65.992354 z M 0.71210124 69.947152 C 0.69540124 68.119712 0.68109538 69.615065 0.68109538 73.269946 C 0.68109538 76.924827 0.69520124 78.420181 0.71210124 76.592741 C 0.72880124 74.765301 0.72880124 71.774594 0.71210124 69.947152 z M 12.551689 72.079838 C 12.536642 72.08152 12.526312 72.12248 12.52275 72.199727 L 12.523783 72.199727 C 12.518983 72.317429 12.544844 72.383062 12.581144 72.345972 C 12.616744 72.308851 12.620196 72.212661 12.588896 72.132031 C 12.574677 72.095842 12.561984 72.078687 12.551689 72.079838 z M 12.50363 74.107621 C 12.35154 76.788126 12.165043 87.663769 12.134143 95.662895 C 12.114443 100.70831 12.13367 102.77991 12.18737 101.35867 C 12.42036 95.18512 12.70651 70.530604 12.50363 74.107621 z M 1.7900716 75.67135 L 1.7161743 78.295479 C 1.6752743 79.739007 1.6438944 82.025957 1.6458944 83.37734 L 1.6464111 83.37734 C 1.6509111 85.808987 1.6521431 85.817678 1.7275431 84.215015 C 1.7695431 83.324315 1.8003063 81.037385 1.7973063 79.133154 L 1.7900716 75.67135 z M 3.8597127 78.420536 L 3.859196 78.421053 C 3.8590369 78.421208 3.8588381 78.421876 3.8586792 78.422087 C 3.8340709 78.463555 3.8102241 79.185182 3.7656616 80.854496 C 3.6622716 84.723538 3.6626884 89.044804 3.7661784 96.612191 L 3.8478271 102.58702 L 3.9144897 97.449866 C 3.9998897 90.808173 4.0002897 80.847991 3.9144897 79.133154 C 3.8928087 78.699419 3.8770595 78.4438 3.8622965 78.422087 L 3.8617798 78.42157 L 3.861263 78.421053 L 3.8607463 78.420536 L 3.8602295 78.420536 L 3.8597127 78.420536 z M 13.060701 81.199695 C 12.933701 81.199695 12.913174 85.952885 13.023494 89.836894 C 13.063044 91.228913 13.111932 92.368005 13.132532 92.368005 C 13.152732 92.368005 13.169739 89.855174 13.169739 86.78385 C 13.169739 83.135467 13.132001 81.199695 13.060701 81.199695 z M 8.1901978 82.913285 C 8.1749761 82.914965 8.1647445 82.955927 8.1617757 83.033175 L 8.1622925 83.033175 C 8.1574925 83.150897 8.1833533 83.216539 8.2196533 83.179419 C 8.2552533 83.142299 8.2589048 83.046109 8.2274048 82.965479 C 8.2132673 82.929284 8.2006126 82.912136 8.1901978 82.913285 z M 1.5663127 86.743026 L 1.5657959 86.743542 C 1.5542531 86.767213 1.545763 87.084997 1.5456421 87.621525 L 1.5461589 87.621525 C 1.5459503 88.176752 1.5541088 88.510735 1.5663127 88.534648 L 1.5668294 88.535164 L 1.5673462 88.535681 L 1.5673462 88.536198 L 1.567863 88.536198 L 1.5683797 88.536198 L 1.5683797 88.535681 L 1.5688965 88.535681 L 1.5688965 88.535164 C 1.5734949 88.526014 1.5790994 88.475475 1.5843994 88.380135 C 1.6053994 87.998774 1.6053994 87.34522 1.5843994 86.928027 C 1.5784932 86.810697 1.5728989 86.750911 1.567863 86.743542 L 1.5673462 86.743026 L 1.5668294 86.743026 L 1.5663127 86.743026 z M 2.4303426 88.849874 L 2.3486938 91.743754 C 2.3038938 93.335459 2.2771995 97.557479 2.2902995 101.12561 C 2.3032995 104.69376 2.3265591 106.9595 2.3414591 106.16096 C 2.3564291 105.3624 2.4129329 102.37222 2.4670329 99.515889 C 2.5211329 96.659539 2.534622 93.091085 2.497522 91.586141 L 2.4303426 88.849874 z M 1.1337809 100.91167 L 1.0614339 107.38931 C 1.0216339 110.95203 0.98960368 117.5358 0.98960368 122.01994 L 0.98908691 122.01994 C 0.98934332 124.89501 1.0052422 127.28018 1.028361 128.50017 L 1.1063924 128.50017 C 1.1689026 125.86987 1.1911871 117.79466 1.1575521 107.89212 L 1.1337809 100.91167 z M 7.6114217 101.5261 C 7.4740217 107.46117 7.4503424 110.83518 7.5442424 111.11725 C 7.6054424 111.30111 7.5955862 111.35897 7.5116862 111.30587 C 7.4238762 111.25026 7.3946825 113.17083 7.4036825 118.35608 C 7.4106825 122.27566 7.4330918 125.40693 7.4532918 125.31483 C 7.5379718 124.92895 7.607279 119.11998 7.650179 108.84142 C 7.678679 102.00094 7.6640217 99.257562 7.6114217 101.5261 z M 5.4084554 101.69353 C 5.3980054 100.71067 5.350769 102.64577 5.304069 105.99353 C 5.215179 112.36204 5.2554301 121.64097 5.3981201 127.71624 L 5.4167236 128.50017 L 5.5180094 128.50017 L 5.5681356 124.53297 C 5.6195356 120.48328 5.6086471 114.91238 5.5407471 110.62839 C 5.4784171 106.69707 5.4188554 102.67632 5.4084554 101.69353 z M 3.8292236 102.79321 C 3.8146439 102.79683 3.8047257 102.83788 3.8018351 102.9131 L 3.8023519 102.9131 C 3.7975519 103.03079 3.8234127 103.09644 3.8597127 103.05934 C 3.8953127 103.02221 3.8989642 102.9261 3.8674642 102.8454 C 3.8528251 102.80778 3.8398629 102.79057 3.8292236 102.79321 z M 14.742253 112.74557 C 14.72511 112.74949 14.713314 112.81261 14.713314 112.91817 C 14.713314 113.07168 14.738091 113.1345 14.768091 113.0577 C 14.798191 112.98093 14.798191 112.85493 14.768091 112.77813 C 14.758622 112.75414 14.750045 112.74379 14.742253 112.74557 z M 10.61899 112.76366 L 10.61899 112.76418 L 10.618473 112.76418 C 10.607833 112.79417 10.600442 113.4392 10.600387 114.53719 L 10.600903 114.53719 C 10.600903 116.13426 10.616093 116.80351 10.634493 116.02393 C 10.653023 115.24437 10.652893 113.93775 10.634493 113.12023 C 10.629206 112.89029 10.624499 112.77542 10.620024 112.76469 L 10.619507 112.76418 L 10.619507 112.76366 L 10.61899 112.76366 z M 10.615889 118.34988 L 10.615373 118.3504 C 10.603794 118.37407 10.59532 118.69136 10.595219 119.22786 L 10.595736 119.22786 C 10.595736 119.78309 10.604225 120.11759 10.616406 120.1415 L 10.616923 120.14202 L 10.616923 120.14254 L 10.61744 120.14254 L 10.61744 120.14305 L 10.617957 120.14305 L 10.617957 120.14254 L 10.618473 120.14254 L 10.61899 120.14202 C 10.62357 120.13287 10.628751 120.08182 10.633976 119.98647 C 10.654976 119.6051 10.654976 118.95207 10.633976 118.53488 C 10.628261 118.42082 10.622894 118.36091 10.617957 118.35092 L 10.61744 118.3504 L 10.61744 118.34988 L 10.616923 118.34988 L 10.616406 118.34988 L 10.615889 118.34988 z M 9.2986572 120.53063 C 9.2690572 120.50028 9.2428467 121.42588 9.2428467 122.58787 C 9.2419467 123.74986 9.20995 126.14556 9.17205 127.91157 C 9.1675467 128.12095 9.1633537 128.31687 9.1596476 128.50017 L 9.4180298 128.50017 C 9.4152316 127.81081 9.4085091 126.94393 9.3989095 125.85433 C 9.3732595 122.9567 9.3283572 120.56103 9.2986572 120.53063 z M 11.815816 122.15068 L 11.815299 122.1512 L 11.815299 122.15172 C 11.803556 122.17976 11.795146 122.51774 11.795146 123.08138 C 11.795146 123.65149 11.803335 123.98988 11.815299 124.01104 L 11.815299 124.01155 L 11.815816 124.01155 L 11.815816 124.01207 L 11.816333 124.01207 L 11.81685 124.01207 L 11.81685 124.01155 L 11.817367 124.01155 L 11.817367 124.01104 C 11.822178 124.00233 11.827808 123.94547 11.833386 123.83534 C 11.854386 123.42071 11.854386 122.74205 11.833386 122.32742 C 11.827972 122.22052 11.822582 122.16343 11.817883 122.15223 L 11.817883 122.15172 L 11.817367 122.1512 L 11.81685 122.15068 L 11.816333 122.15068 L 11.815816 122.15068 z M 11.706262 125.12311 L 11.706262 125.12363 L 11.705745 125.12363 L 11.705745 125.12415 C 11.693908 125.15011 11.685075 125.46319 11.685075 125.98507 C 11.685075 126.51296 11.693681 126.82641 11.705745 126.846 L 11.705745 126.84652 L 11.706262 126.84652 L 11.706779 126.84704 L 11.707296 126.84652 L 11.707812 126.84652 L 11.707812 126.846 C 11.712671 126.83795 11.718148 126.7852 11.723832 126.68322 C 11.745232 126.2993 11.745232 125.67083 11.723832 125.28693 C 11.718174 125.18495 11.713184 125.1322 11.708329 125.12415 L 11.707812 125.12363 L 11.707296 125.12363 L 11.707296 125.12311 L 11.706779 125.12311 L 11.706262 125.12311 z M 13.110828 125.20321 C 13.090428 125.29534 13.054112 126.66259 13.030212 128.24178 C 13.028901 128.32883 13.027652 128.41518 13.026595 128.50017 L 13.152169 128.50017 C 13.152499 128.34379 13.152665 128.18393 13.152169 128.02113 C 13.149969 126.3793 13.131028 125.11111 13.110828 125.20321 z M 7.3178996 126.47032 C 7.3033287 126.47394 7.2934017 126.51499 7.2905111 126.59021 L 7.2910278 126.59021 C 7.2862278 126.70788 7.3120887 126.77355 7.3483887 126.73645 C 7.3839887 126.69935 7.3881569 126.60321 7.3566569 126.52251 C 7.3419757 126.48489 7.3285324 126.46768 7.3178996 126.47032 z M 7.3473551 127.65577 L 7.3473551 127.65629 L 7.3468384 127.65629 L 7.3468384 127.65681 C 7.3381826 127.67886 7.3312397 127.97982 7.3287516 128.50017 L 7.3752604 128.50017 C 7.3728722 128.28473 7.3689434 128.0826 7.3633748 127.91157 C 7.3580879 127.74919 7.3529227 127.66669 7.3483887 127.65681 L 7.3478719 127.65629 L 7.3478719 127.65577 L 7.3473551 127.65577 z " />
</svg>
