<?xml version="1.0" encoding="UTF-8" standalone="no"?>
<svg
   width="25.40mm"
   height="128.5mm"
   viewBox="0 0 25.40 128.5"
   version="1.1"
   id="svg1"
   sodipodi:docname="metal.svg"
   inkscape:version="1.4.2 (f4327f4, 2025-05-13)"
   xmlns:inkscape="http://www.inkscape.org/namespaces/inkscape"
   xmlns:sodipodi="http://sodipodi.sourceforge.net/DTD/sodipodi-0.dtd"
   xmlns:xlink="http://www.w3.org/1999/xlink"
   xmlns="http://www.w3.org/2000/svg"
   xmlns:svg="http://www.w3.org/2000/svg">
  <defs
     id="defs1">
    <linearGradient
       inkscape:collect="always"
       xlink:href="#linearGradient238"
       id="linearGradient239-4"
       x1="649.83807"
       y1="-1044.1716"
       x2="649.83807"
       y2="-398.76425"
       gradientUnits="userSpaceOnUse"
       gradientTransform="matrix(0.09605965,0,0,0.07752293,-49.294052,156.35173)" />
    <linearGradient
       id="linearGradient238"
       inkscape:collect="always">
      <stop
         style="stop-color:#e3dedb;stop-opacity:0.32873562;"
         offset="0"
         id="stop238" />
      <stop
         style="stop-color:#917c6f;stop-opacity:0;"
         offset="1"
         id="stop239" />
    </linearGradient>
    <linearGradient
       inkscape:collect="always"
       xlink:href="#linearGradient4"
       id="linearGradient5-2"
       x1="876.5351"
       y1="-323.21573"
       x2="876.5351"
       y2="58.015488"
       gradientUnits="userSpaceOnUse"
       gradientTransform="matrix(0.0969935,0,0,0.19813638,-72.840614,64.015413)" />
    <linearGradient
       id="linearGradient4"
       inkscape:collect="always">
      <stop
         style="stop-color:#333333;stop-opacity:0.48275861;"
         offset="0"
         id="stop4" />
      <stop
         style="stop-color:#333333;stop-opacity:0;"
         offset="1"
         id="stop5" />
    </linearGradient>
    <linearGradient
       inkscape:collect="always"
       xlink:href="#linearGradient238"
       id="linearGradient240-5"
       gradientUnits="userSpaceOnUse"
       gradientTransform="matrix(0.09605965,0,0,0.07752293,-49.294053,5.3309601)"
       x1="649.83807"
       y1="-1044.1716"
       x2="649.83807"
       y2="-398.76425" />
  </defs>
  <sodipodi:namedview
     id="namedview1"
     pagecolor="#ffffff"
     bordercolor="#cccccc"
     borderopacity="1"
     inkscape:showpageshadow="0"
     inkscape:pageopacity="1"
     inkscape:pagecheckerboard="0"
     inkscape:deskcolor="#d1d1d1"
     inkscape:document-units="mm"
     inkscape:zoom="0.83081228"
     inkscape:cx="75.829404"
     inkscape:cy="283.45753"
     inkscape:window-width="1920"
     inkscape:window-height="1009"
     inkscape:window-x="-8"
     inkscape:window-y="-8"
     inkscape:window-maximized="1"
     inkscape:current-layer="svg1" />
  <rect
     style="fill:#535353;fill-opacity:1;stroke-width:0.121003"
     id="rect68-7"
     width="26.964043"
     height="128.49998"
     x="-1.3044349"
     y="-0.025386829" />
  <rect
     style="fill:url(#linearGradient239-4);fill-opacity:1;stroke-width:0.0753242"
     id="rect238-5"
     width="26.704435"
     height="50.276958"
     x="-1.3044349"
     y="75.510368" />
  <rect
     style="fill:url(#linearGradient5-2);fill-opacity:1;stroke-width:0.121003"
     id="rect4-2"
     width="26.964043"
     height="128.49998"
     x="-1.3044349"
     y="-0.025386829" />
  <rect
     style="fill:url(#linearGradient240-5);fill-opacity:1;stroke-width:0.0753242"
     id="rect240-7"
     width="26.704435"
     height="50.276958"
     x="-1.3044349"
     y="-75.510368"
     transform="scale(1,-1)" />
  <rect
     style="fill:#373737;fill-opacity:1;stroke-width:0.112308"
     id="rect5-6"
     width="0.74341071"
     height="128.49998"
     x="2.4126627"
     y="-0.02539444" />
  <rect
     style="fill:#4a4a4a;fill-opacity:1;stroke-width:0.112308"
     id="rect6-1"
     width="0.74341071"
     height="128.49998"
     x="3.899534"
     y="-0.02539444" />
  <rect
     style="fill:#3e3e3e;fill-opacity:1;stroke-width:0.112308"
     id="rect7-4"
     width="0.74341071"
     height="128.49998"
     x="3.1561117"
     y="-0.02539444" />
  <rect
     style="fill:#5a5a5a;stroke-width:0.112308"
     id="rect8"
     width="0.74341071"
     height="128.49998"
     x="-0.56094587"
     y="-0.02539444" />
  <rect
     style="fill:#464646;fill-opacity:0.984314;stroke-width:0.112308"
     id="rect9-2"
     width="0.74341071"
     height="128.49998"
     x="5.3863249"
     y="-0.02539444" />
  <rect
     style="fill:#373737;fill-opacity:1;stroke-width:0.112308"
     id="rect10-3"
     width="0.74341071"
     height="128.49998"
     x="7.616538"
     y="-0.02539444" />
  <rect
     style="fill:#4a4a4a;fill-opacity:1;stroke-width:0.112308"
     id="rect11"
     width="0.74341071"
     height="128.49998"
     x="-1.3043948"
     y="-0.02539444" />
  <rect
     style="fill:#3e3e3e;fill-opacity:1;stroke-width:0.112308"
     id="rect12-2"
     width="0.74341071"
     height="128.49998"
     x="9.1034355"
     y="-0.02539444" />
  <rect
     style="fill:#5a5a5a;stroke-width:0.112308"
     id="rect13-2"
     width="0.74341071"
     height="128.49998"
     x="8.3599873"
     y="-0.02539444" />
  <rect
     style="fill:#464646;fill-opacity:0.984314;stroke-width:0.112308"
     id="rect14-1"
     width="0.74341071"
     height="128.49998"
     x="6.8730888"
     y="-0.02539444" />
  <rect
     style="fill:#373737;fill-opacity:1;stroke-width:0.112308"
     id="rect15-6"
     width="0.74341071"
     height="128.49998"
     x="10.590174"
     y="-0.02539444" />
  <rect
     style="fill:#4a4a4a;fill-opacity:1;stroke-width:0.112308"
     id="rect16-8"
     width="0.74341071"
     height="128.49998"
     x="12.077044"
     y="-0.02539444" />
  <rect
     style="fill:#3e3e3e;fill-opacity:1;stroke-width:0.112308"
     id="rect17-5"
     width="0.74341071"
     height="128.49998"
     x="11.333622"
     y="-0.02539444" />
  <rect
     style="fill:#5a5a5a;stroke-width:0.112308"
     id="rect18-7"
     width="0.74341071"
     height="128.49998"
     x="14.307284"
     y="-0.02539444" />
  <rect
     style="fill:#464646;fill-opacity:0.984314;stroke-width:0.112308"
     id="rect19-6"
     width="0.74341071"
     height="128.49998"
     x="13.563835"
     y="-0.02539444" />
  <rect
     style="fill:#373737;fill-opacity:1;stroke-width:0.112308"
     id="rect20-1"
     width="0.74341071"
     height="128.49998"
     x="15.794022"
     y="-0.02539444" />
  <rect
     style="fill:#4a4a4a;fill-opacity:1;stroke-width:0.112308"
     id="rect21-8"
     width="0.74341071"
     height="128.49998"
     x="18.024368"
     y="-0.02539444" />
  <rect
     style="fill:#3e3e3e;fill-opacity:1;stroke-width:0.112308"
     id="rect22-9"
     width="0.74341071"
     height="128.49998"
     x="17.28092"
     y="-0.02539444" />
  <rect
     style="fill:#5a5a5a;stroke-width:0.112308"
     id="rect23-2"
     width="0.74341071"
     height="128.49998"
     x="16.53747"
     y="-0.02539444" />
  <rect
     style="fill:#464646;fill-opacity:0.984314;stroke-width:0.112308"
     id="rect24"
     width="0.74341071"
     height="128.49998"
     x="0.92587179"
     y="-0.02539444" />
  <rect
     style="fill:#373737;fill-opacity:1;stroke-width:0.112308"
     id="rect25-7"
     width="0.74341071"
     height="128.49998"
     x="22.484821"
     y="-0.02539444" />
  <rect
     style="fill:#4a4a4a;fill-opacity:1;stroke-width:0.112308"
     id="rect26-9"
     width="0.74341071"
     height="128.49998"
     x="23.971693"
     y="-0.02539444" />
  <rect
     style="fill:#3e3e3e;fill-opacity:1;stroke-width:0.112308"
     id="rect27-5"
     width="0.74341071"
     height="128.49998"
     x="23.228271"
     y="-0.02539444" />
  <rect
     style="fill:#5a5a5a;stroke-width:0.112308"
     id="rect28-4"
     width="0.74341071"
     height="128.49998"
     x="19.511213"
     y="-0.02539444" />
  <rect
     style="fill:#4a4a4a;fill-opacity:1;stroke-width:0.112308"
     id="rect31-2"
     width="0.74341071"
     height="128.49998"
     x="18.767765"
     y="-0.02539444" />
  <rect
     style="fill:#464646;fill-opacity:0.984314;stroke-width:0.112308"
     id="rect44-7"
     width="0.74341071"
     height="128.49998"
     x="20.998032"
     y="-0.02539444" />
  <path
     id="path484-11"
     style="fill:#b3b3b3;fill-opacity:0.360078;stroke-width:0.46227"
     d="M 5.078243 0.28008626 C 5.053663 0.28008626 5.0740386 1.2243706 5.0549886 1.2660726 C 5.0598886 1.2575726 5.0639848 1.2497844 5.0699748 1.2402344 C 5.1370948 1.1328874 5.2209935 0.87282986 5.2570435 0.66249186 C 5.3091735 0.35577486 5.273834 0.28008626 5.078243 0.28008626 z M 9.4841756 0.28008626 C 9.2849976 0.28008626 9.2576479 0.90547848 9.2490479 5.7614054 C 9.2435479 8.7763234 9.2139255 11.679283 9.1839355 12.212174 C 9.0987755 13.711438 9.0847606 17.088002 9.1224406 27.102222 C 9.1495806 34.304722 9.1813311 35.659451 9.2661011 33.271871 C 9.3258711 31.589131 9.4138412 23.558195 9.4609212 15.424898 C 9.5083312 7.2916152 9.5834361 0.55654395 9.6278361 0.45836995 C 9.6809961 0.34147095 9.6316356 0.28008626 9.4841756 0.28008626 z M 11.74967 0.28008626 C 11.65876 0.28008626 11.615534 2.5300447 11.629264 6.4755737 L 11.627714 6.4755737 C 11.639104 9.6890237 11.654398 11.12675 11.686108 11.167794 L 11.686625 11.168311 L 11.687142 11.168827 L 11.687659 11.168827 L 11.688175 11.168311 C 11.704035 11.148301 11.72448 10.801319 11.74967 10.172506 C 11.911791 6.1717536 11.910698 0.28008626 11.74967 0.28008626 z M 14.704529 0.28008626 C 14.637789 0.28008626 14.612195 0.41773374 14.647685 0.58601074 C 14.730725 0.97929274 14.825968 0.97929274 14.825968 0.58601074 C 14.825968 0.41773374 14.771199 0.28008626 14.704529 0.28008626 z M 24.423832 0.3607015 L 24.423315 0.36121826 C 24.405085 0.36901826 24.392102 0.43092484 24.388692 0.53536784 L 24.388175 0.53536784 C 24.385175 0.70388584 24.415992 0.78423382 24.455872 0.71520182 C 24.496732 0.64613182 24.498636 0.50850534 24.461556 0.40927734 C 24.448266 0.37362734 24.435626 0.3581815 24.424866 0.3607015 L 24.424349 0.3607015 L 24.423832 0.3607015 z M 0.6764445 0.48265788 C 0.6763395 0.48271088 0.67523046 0.48346753 0.67489421 0.48369141 L 0.67437744 0.48420817 L 0.67386068 0.48472493 C 0.65678068 0.50564493 0.64440511 0.65268622 0.64440511 0.89193522 C 0.64440511 1.1340322 0.65644068 1.2815283 0.67386068 1.2996623 L 0.67437744 1.300179 L 0.67489421 1.3006958 C 0.67510321 1.3008008 0.6761445 1.3011426 0.6764445 1.3012126 L 0.67696126 1.3012126 L 0.67747803 1.3012126 L 0.67799479 1.3012126 L 0.67851156 1.3012126 L 0.67902832 1.3012126 L 0.67954508 1.3006958 L 0.68006185 1.3006958 C 0.68028285 1.3005098 0.68131214 1.2994455 0.68161214 1.2991455 C 0.68831214 1.2913455 0.69617301 1.2664279 0.70383301 1.2236979 C 0.73651301 1.0414319 0.73651301 0.74301029 0.70383301 0.56068929 C 0.69623301 0.51796929 0.68882891 0.4930417 0.68212891 0.4852417 L 0.68161214 0.48472493 C 0.68150164 0.48463193 0.68039672 0.48390441 0.68006185 0.48369141 L 0.67954508 0.48317464 L 0.67902832 0.48317464 L 0.67851156 0.48265788 L 0.67799479 0.48265788 L 0.67747803 0.48265788 L 0.67696126 0.48265788 L 0.6764445 0.48265788 z M 2.8799276 0.59996338 L 2.8794108 0.60048014 L 2.878894 0.60099691 C 2.862414 0.62330691 2.8509888 0.83983874 2.8509888 1.1978597 C 2.8509888 1.5558847 2.8618873 1.7718907 2.8783773 1.7942057 L 2.878894 1.7947225 L 2.8794108 1.7952393 L 2.8799276 1.7952393 L 2.8799276 1.795756 L 2.8804443 1.795756 L 2.8809611 1.795756 L 2.8814779 1.795756 L 2.8819946 1.795756 L 2.8825114 1.795756 L 2.8825114 1.7952393 L 2.8830282 1.7952393 L 2.8835449 1.7947225 C 2.8901449 1.7859225 2.8981458 1.7486079 2.9057658 1.6820679 C 2.9356258 1.4156509 2.9356258 0.98006953 2.9057658 0.71365153 C 2.8982658 0.64710153 2.8901149 0.60976691 2.8835449 0.60099691 L 2.8830282 0.60048014 L 2.8825114 0.59996338 L 2.8819946 0.59996338 L 2.8814779 0.59996338 L 2.8809611 0.59996338 L 2.8804443 0.59996338 L 2.8799276 0.59996338 z M 19.808093 1.1467 C 19.677088 2.237919 19.546654 17.132801 19.619474 22.705591 C 19.647664 24.859121 19.702183 26.599922 19.73988 26.573572 C 19.77772 26.547272 19.833491 20.609028 19.863387 13.377478 C 19.893547 6.1459219 19.868783 0.64187107 19.808093 1.1467 z M 5.0544718 1.2671061 C 5.0045018 1.3529261 5.0018213 1.3903621 5.0513713 1.3833781 C 5.0536713 1.3798781 5.0522128 1.2720121 5.0544718 1.2671061 z M 5.1319865 1.3585734 C 5.1281162 1.3590178 5.1241395 1.3599377 5.1201009 1.361674 C 5.0911609 1.374074 5.0683113 1.3815049 5.0513713 1.3838949 C 5.0463165 1.3925042 5.0499605 1.6313431 5.0451701 1.6417603 C 5.0597401 1.6378603 5.0780068 1.6531958 5.0983968 1.6887858 C 5.1405068 1.7624058 5.1352712 1.8502237 5.0865112 1.8841227 C 5.0684312 1.8966527 5.0523357 1.896483 5.0394857 1.885673 C 4.9114537 2.264971 4.8413057 2.4335683 4.8617187 9.2547323 L 4.8622355 9.2547323 C 4.8772655 14.190781 4.9358859 18.229378 4.9929769 18.229378 C 5.0946809 18.229378 5.2916667 8.6971799 5.2916667 3.7759969 C 5.2916667 1.961005 5.2519642 1.3447961 5.1319865 1.3585734 z M 5.0394857 1.885673 C 5.0436824 1.8730406 5.0406709 1.6516285 5.0451701 1.6417603 C 5.0264401 1.6467603 5.0134733 1.6834548 5.0095133 1.7502808 C 5.0054138 1.8174927 5.0179204 1.8668519 5.0394857 1.885673 z M 22.006409 1.4019816 C 21.829039 3.3243796 21.791675 9.3021528 21.92631 14.175879 C 21.99567 16.685983 22.076804 18.739425 22.106144 18.739425 C 22.137184 18.739425 22.14925 14.574484 22.13715 9.4841756 C 22.12465 4.3430016 22.06638 0.75046665 22.006409 1.4019816 z M -1.0764201 1.6887858 L -1.0764201 1.6893026 L -1.0769368 1.6893026 C -1.0923168 1.7129226 -1.1027751 2.0911931 -1.1027751 2.7274821 C -1.1027751 3.3637751 -1.0923168 3.7420516 -1.0769368 3.7656616 L -1.0769368 3.7661784 L -1.0764201 3.7661784 L -1.0764201 3.7666951 L -1.0759033 3.7666951 L -1.0753866 3.7666951 L -1.0748698 3.7666951 L -1.074353 3.7661784 L -1.0738363 3.7656616 C -1.0676363 3.7559616 -1.0609225 3.6922032 -1.0536825 3.5692912 C -1.0264325 3.1065462 -1.0264325 2.3489398 -1.0536825 1.8861898 C -1.0608825 1.7632668 -1.0676463 1.6995283 -1.0738363 1.6898193 L -1.074353 1.6893026 L -1.074353 1.6887858 L -1.0748698 1.6887858 L -1.0753866 1.6887858 L -1.0759033 1.6887858 L -1.0764201 1.6887858 z M 2.83962 3.3398478 C 2.660394 2.4742298 2.5501241 6.485817 2.4577311 17.260445 L 2.3765991 26.745138 L 2.5672852 20.218404 C 2.6721382 16.628541 2.7699997 11.832884 2.7853597 9.5611735 C 2.8005697 7.2894395 2.8452085 5.0860303 2.8845785 4.6653483 C 2.9238185 4.2446653 2.90348 3.6483668 2.83962 3.3398478 z M 16.880107 3.5946126 C 16.819457 4.7725136 16.722479 7.2964586 16.664099 9.2035726 C 16.605749 11.110686 16.533375 13.061385 16.503385 13.538192 C 16.436455 14.603587 16.410454 19.760187 16.425354 28.878857 L 16.425871 28.878857 C 16.431971 32.688417 16.461577 35.786045 16.492017 35.762675 C 16.522357 35.739275 16.589287 33.127041 16.640328 29.957861 C 16.691308 26.788681 16.764732 23.094217 16.804142 21.748027 C 16.843272 20.401817 16.901282 15.284621 16.932817 10.376628 C 16.964947 5.3921445 16.941817 2.3983066 16.880107 3.5946126 z M -1.2319661 5.3386922 L -1.2324829 5.339209 L -1.2329997 5.339209 L -1.2335164 5.3397257 L -1.2340332 5.3397257 L -1.23455 5.3397257 L -1.23455 5.3402425 L -1.2350667 5.3402425 C -1.2527167 5.3579325 -1.2650391 5.4829761 -1.2650391 5.6854411 C -1.2650391 5.8879421 -1.2532335 6.0119251 -1.2355835 6.0296061 L -1.2350667 6.0301229 L -1.23455 6.0306396 L -1.2340332 6.0311564 L -1.2335164 6.0311564 L -1.2329997 6.0311564 L -1.2324829 6.0316732 L -1.2319661 6.0316732 C -1.2317451 6.0316712 -1.2307159 6.0317072 -1.2304159 6.0316732 L -1.2298991 6.0316732 L -1.2293823 6.0316732 L -1.2288656 6.0311564 L -1.2283488 6.0311564 L -1.227832 6.0306396 C -1.2206869 6.0247746 -1.2122565 6.0028823 -1.2040609 5.9655273 C -1.1702709 5.8112573 -1.1702709 5.5591081 -1.2040609 5.4048381 C -1.2123609 5.3662781 -1.220542 5.3452825 -1.227832 5.3402425 L -1.2283488 5.3397257 C -1.2285738 5.3396307 -1.2296991 5.339273 -1.2298991 5.339209 L -1.2304159 5.3386922 L -1.2309326 5.3386922 L -1.2314494 5.3386922 L -1.2319661 5.3386922 z M 14.596525 10.524939 C 14.595859 10.524954 14.595113 10.525354 14.594458 10.525456 C 14.571408 10.529056 14.555701 10.586145 14.555701 10.682552 C 14.555701 10.822795 14.589138 10.879793 14.629598 10.809676 C 14.670018 10.739566 14.670018 10.625028 14.629598 10.554911 C 14.617673 10.534371 14.606519 10.524707 14.596525 10.524939 z M 14.558285 11.192598 C 14.204971 11.588113 14.076784 17.586396 14.231689 26.489856 C 14.261819 28.221586 14.284843 28.973762 14.322123 29.009082 L 14.32264 29.009599 L 14.323157 29.009599 L 14.323674 29.010116 L 14.32419 29.010116 C 14.324415 29.010126 14.325441 29.010156 14.325741 29.010116 L 14.326257 29.010116 C 14.326485 29.009976 14.327508 29.009232 14.327808 29.009082 C 14.345738 28.990482 14.367473 28.821315 14.393953 28.529525 C 14.565655 26.637205 14.71361 11.018755 14.558285 11.192598 z M 13.713892 11.442712 L 13.713375 11.443229 C 13.713024 11.443326 13.712691 11.443139 13.712341 11.443229 C 13.690151 11.449129 13.675651 11.506626 13.675651 11.600842 C 13.675651 11.741044 13.709098 11.798073 13.749548 11.727966 C 13.790018 11.657856 13.790018 11.542803 13.749548 11.472685 C 13.737028 11.451115 13.724818 11.441472 13.714408 11.442712 L 13.713892 11.442712 z M 13.543876 16.211414 C 13.504076 16.374487 13.424148 18.153614 13.292212 21.595064 C 13.233062 23.137584 13.159444 24.583418 13.128914 24.807788 C 13.070774 25.235698 12.768712 41.289266 12.798702 42.348836 C 12.844902 43.973766 12.8992 42.82042 13.35319 30.56971 C 13.42904 28.52237 13.519295 24.002009 13.553695 20.524329 C 13.583475 17.501429 13.583656 16.048341 13.543876 16.211414 z M 9.3115763 21.233329 C 9.3220563 21.231329 9.3340563 21.241718 9.3467163 21.263818 C 9.3871363 21.333918 9.3871363 21.448473 9.3467163 21.518583 C 9.3059763 21.588683 9.2723022 21.531182 9.2723022 21.390942 C 9.2723022 21.294542 9.2885263 21.236909 9.3115763 21.233329 z M 4.8555176 22.818762 C 4.5581206 33.318112 4.4711264 41.30162 4.6519124 41.50496 C 4.6782724 41.53466 4.6858407 41.555271 4.6777507 41.563871 C 4.6676507 41.572871 4.6376475 41.567935 4.5904175 41.547335 C 4.4746075 41.498435 4.4431055 42.187939 4.4741455 43.953389 C 4.4982255 45.314639 4.539616 48.378376 4.565096 50.762276 L 4.6116048 55.096895 L 4.7134074 50.303389 C 4.7693274 47.667089 4.8496043 39.521612 4.8911743 32.201652 C 4.9332043 24.810482 4.9173576 20.638232 4.8555176 22.818762 z M -0.80718587 23.817151 L -0.80770264 23.817668 C -0.82598264 23.825668 -0.83943261 23.887367 -0.84284261 23.991817 C -0.84584261 24.160107 -0.81506648 24.241218 -0.77514648 24.172168 C -0.73470648 24.103168 -0.73288884 23.965463 -0.76997884 23.866243 C -0.78327884 23.830543 -0.79538234 23.814651 -0.80615234 23.817151 L -0.80666911 23.817151 L -0.80718587 23.817151 z M 6.9778687 24.807788 L 6.9019043 29.447815 C 6.8599943 31.999985 6.8097844 37.89438 6.7897664 42.54624 L 6.7908 42.54624 C 6.77081 47.19808 6.7823014 50.98399 6.8161214 50.95968 C 6.8497514 50.93538 6.916266 48.683061 6.963916 45.954301 C 7.011716 43.225531 7.088365 40.924044 7.134965 40.839884 C 7.181465 40.755684 7.1542368 40.658327 7.0739868 40.623877 C 6.9766968 40.582777 6.9751824 40.447556 7.0683024 40.231136 C 7.1591424 40.020486 7.1683186 37.170934 7.0941406 32.354614 L 6.9778687 24.807788 z M 18.937345 30.161983 C 18.876165 27.727313 18.834586 28.978742 18.745626 35.922872 C 18.668286 41.956932 18.680166 44.806172 18.782316 44.829822 C 18.864976 44.849022 18.930111 45.009803 18.930111 45.187423 C 18.928411 45.423183 18.891941 45.470566 18.793685 45.362606 C 18.704025 45.264206 18.677929 45.36669 18.715137 45.66853 C 18.745997 45.91816 18.788972 48.853163 18.811772 52.190613 L 18.853113 58.258459 L 18.931144 54.02616 C 19.032644 48.47641 19.036467 34.108623 18.937345 30.161983 z M 6.9535807 35.601961 C 6.9678707 35.599961 6.9850904 35.61562 7.0047404 35.65002 L 7.0052572 35.65002 C 7.0473872 35.72362 7.0421416 35.811457 6.9933716 35.845357 C 6.9445416 35.879257 6.9097737 35.819065 6.9163737 35.711515 C 6.9204737 35.642815 6.9339907 35.605291 6.9535807 35.601961 z M 11.846822 41.83879 L 11.654069 43.878459 C 11.398869 46.577889 11.233668 54.849272 11.391553 57.034762 C 11.435663 57.645182 11.464824 58.017165 11.488704 58.040385 L 11.489221 58.040902 L 11.489221 58.041418 L 11.489738 58.041418 L 11.490255 58.041418 C 11.49038 58.041418 11.490996 58.041408 11.491288 58.041418 L 11.491805 58.041418 L 11.492322 58.040902 C 11.530902 58.004702 11.557602 56.987836 11.614795 54.485046 C 11.668635 52.129186 11.742523 48.320207 11.779643 46.020447 L 11.846822 41.83879 z M 18.850012 42.854232 C 18.860014 42.853762 18.871235 42.863954 18.883085 42.884204 C 18.923605 42.954304 18.923605 43.068849 18.883085 43.138969 C 18.842305 43.209069 18.809188 43.152065 18.809188 43.011845 C 18.809188 42.915445 18.824895 42.858329 18.847945 42.854749 C 18.8486 42.854624 18.849345 42.854263 18.850012 42.854232 z M 1.1699544 45.969287 C 0.95579543 49.409647 0.77368262 56.094027 0.82527262 58.615027 C 0.85114262 59.877087 0.88992227 64.099547 0.91157227 67.997917 L 0.95084635 75.085856 L 1.0490316 69.629858 C 1.2354086 59.263278 1.3153194 43.634467 1.1699544 45.969287 z M 21.278288 45.969287 C 21.216348 47.848347 21.161831 50.234623 21.156331 51.272323 C 21.150531 52.310013 21.140167 53.227861 21.133077 53.311991 C 21.043227 54.398231 21.032177 56.405056 21.108272 56.439966 L 21.108789 56.439966 L 21.109306 56.439966 L 21.109823 56.439966 L 21.110339 56.439966 L 21.110856 56.439966 L 21.111373 56.439966 L 21.11189 56.439449 L 21.112406 56.438932 L 21.112923 56.438932 L 21.112923 56.438416 L 21.11344 56.437899 L 21.113957 56.437899 L 21.114473 56.437382 C 21.117282 56.43479 21.120546 56.429046 21.123258 56.422396 C 21.202898 56.219246 21.239929 56.51026 21.233329 57.28901 L 21.223511 58.462065 L 21.131527 57.594934 C 21.096617 57.266724 21.074443 57.078586 21.058663 57.059566 L 21.058146 57.059049 L 21.057629 57.058533 L 21.057113 57.058016 L 21.056596 57.058016 L 21.056079 57.057499 L 21.055562 57.058016 L 21.055046 57.058016 L 21.054529 57.058016 L 21.054012 57.058533 L 21.054012 57.059049 C 21.034612 57.086649 21.0248 57.42843 21.00957 58.15614 C 20.99314 58.94142 20.95328 63.416069 20.92172 68.099719 L 20.922237 68.099719 C 20.879097 74.476589 20.895266 75.705641 20.986316 72.994511 C 21.240604 65.420031 21.275958 63.372689 21.332548 53.107869 C 21.368835 46.526496 21.348415 43.839789 21.278288 45.969287 z M 6.6905477 53.03914 L 6.6900309 53.039657 L 6.6895142 53.040173 L 6.6889974 53.04069 L 6.6884806 53.04069 L 6.6879639 53.041207 L 6.6874471 53.041207 C 6.6710771 53.061807 6.6595418 53.213424 6.6595418 53.464954 L 6.6605754 53.464954 C 6.6601834 53.734914 6.6724077 53.901553 6.6905477 53.920223 C 6.6907547 53.920393 6.691898 53.921157 6.692098 53.921257 L 6.6926147 53.921773 L 6.6931315 53.921773 L 6.6936483 53.921773 L 6.694165 53.921773 L 6.6946818 53.921773 L 6.6951986 53.921773 L 6.6957153 53.921773 C 6.6959343 53.921633 6.6970656 53.92087 6.6972656 53.92074 L 6.6977824 53.920223 C 6.7039824 53.913223 6.711413 53.889543 6.718453 53.849943 C 6.749513 53.668893 6.750083 53.347375 6.718453 53.135775 C 6.710053 53.079775 6.7010183 53.048907 6.6936483 53.041207 L 6.6931315 53.04069 L 6.6926147 53.040173 L 6.692098 53.040173 L 6.6915812 53.03914 L 6.6910645 53.03914 L 6.6905477 53.03914 z M 8.71368 53.755375 C 8.69419 53.758375 8.680693 53.795762 8.676473 53.864412 C 8.670173 53.971912 8.7047009 54.032154 8.7534709 53.998254 C 8.8021309 53.964354 8.8069497 53.877054 8.7648397 53.803434 C 8.7450197 53.769134 8.72791 53.752975 8.71368 53.755375 z M 6.5536051 57.080754 L 6.5530884 57.08127 L 6.5530884 57.081787 C 6.5389784 57.123387 6.5287405 57.88971 6.5288005 59.17675 C 6.5288005 60.44933 6.5382049 61.197762 6.5520549 61.235022 L 6.5525716 61.235539 L 6.5525716 61.236056 L 6.5530884 61.236572 L 6.5536051 61.236572 L 6.5541219 61.236056 C 6.5599219 61.224656 6.5664122 61.092545 6.5732422 60.827295 C 6.5975122 59.884195 6.5975122 58.369539 6.5732422 57.461609 C 6.5667422 57.220439 6.5607354 57.097714 6.5551554 57.082304 L 6.5546387 57.081787 L 6.5546387 57.08127 L 6.5541219 57.080754 L 6.5536051 57.080754 z M 10.354924 58.666703 L 10.265007 61.318221 C 10.176397 63.940151 10.178832 65.431683 10.275342 68.507963 C 10.292232 69.045753 10.305161 69.357759 10.321851 69.385429 L 10.322367 69.385429 L 10.322367 69.385946 L 10.322884 69.385946 L 10.322884 69.386462 L 10.323401 69.386462 L 10.323918 69.386979 L 10.324434 69.386979 L 10.324951 69.386979 L 10.325468 69.386979 L 10.325985 69.386462 C 10.352925 69.355962 10.389715 68.625194 10.462927 66.977824 C 10.543037 65.172674 10.549413 62.776271 10.477913 61.267061 L 10.354924 58.666703 z M 13.871505 58.819149 C 13.726257 59.175519 13.490113 66.793272 13.437423 72.842582 C 13.382173 79.168592 13.428523 79.107828 13.709241 72.485498 C 13.821772 69.834788 13.954805 58.614889 13.871505 58.819149 z M 24.648108 65.510213 C 24.515285 65.282333 24.514891 80.572938 24.648108 86.049528 L 24.725623 89.262252 L 24.804171 84.264624 C 24.907012 77.706694 24.807671 65.783003 24.648108 65.510213 z M 7.1535685 71.363603 C 7.0331995 71.450603 6.9157997 75.878782 6.8156047 84.111662 C 6.7628647 88.458762 6.752347 91.992472 6.792867 91.964412 C 6.833177 91.936312 6.909229 90.582471 6.961849 88.955811 C 7.092503 84.913131 7.2408275 71.300523 7.1535685 71.363603 z M 16.695622 78.196777 C 16.654542 78.224877 16.573931 80.748737 16.516821 83.805737 C 16.459701 86.862727 16.453992 89.335816 16.503902 89.301526 C 16.553472 89.267226 16.633416 86.743346 16.682186 83.692566 C 16.730406 80.641776 16.736692 78.168717 16.695622 78.196777 z M 12.547038 79.777043 C 12.339277 80.233873 12.133536 114.32167 12.298474 120.95386 C 12.330224 122.22995 12.40025 123.27368 12.45402 123.27361 C 12.50777 123.27356 12.560909 113.46397 12.572359 101.47443 C 12.584059 89.484909 12.572548 79.720943 12.547038 79.777043 z M 3.536735 80.338249 C 3.473965 81.600309 3.3871087 85.52435 3.3444987 89.05813 C 3.2972887 92.93106 3.3114587 94.510558 3.3796387 93.035148 C 3.4418487 91.688948 3.528615 87.765424 3.571875 84.315784 C 3.619435 80.548314 3.605275 78.959909 3.536735 80.338249 z M -0.60719808 82.703996 C -0.60825269 82.704033 -0.60918742 82.704381 -0.61029867 82.704513 C -0.63628867 82.707513 -0.67754882 82.735745 -0.72398682 82.785645 C -0.80211682 82.869745 -0.86609701 82.984836 -0.86609701 83.040926 C -0.86609701 83.097026 -0.80216682 83.073966 -0.72398682 82.989766 C -0.64580682 82.905666 -0.58187663 82.791092 -0.58187663 82.735002 C -0.58187663 82.713627 -0.59137887 82.703437 -0.60719808 82.703996 z M -0.9038208 83.214042 C -0.9298208 83.217042 -0.97109095 83.245791 -1.017509 83.295691 C -1.095669 83.379791 -1.1596191 83.494882 -1.1596191 83.550972 C -1.1596191 83.607072 -1.095719 83.584013 -1.017509 83.499813 C -0.93930895 83.415713 -0.87539876 83.301138 -0.87539876 83.245048 C -0.87539876 83.222248 -0.8860308 83.211942 -0.9038208 83.214042 z M 0.97823486 83.716337 C 0.95235486 83.737437 0.88679509 87.104911 0.83302409 91.199601 C 0.77921409 95.294291 0.70430598 100.5034 0.66662598 102.77512 C 0.54449798 110.09734 0.47787605 125.11526 0.56120605 126.66617 C 0.60572605 127.49432 0.65792603 128.15993 0.67747803 128.14515 C 0.86205503 128.00525 0.91368576 123.89037 0.96531576 105.23544 C 0.99882576 93.37904 1.0042759 83.695227 0.97823486 83.716337 z M 19.081523 88.905168 C 18.953545 88.905168 18.963039 88.104261 18.887219 105.27368 C 18.840989 115.73548 18.859046 119.62347 18.938896 116.4916 C 19.088724 110.61898 19.200845 88.905168 19.081523 88.905168 z M 5.4859701 89.874101 L 5.4916545 96.553796 C 5.4948545 100.25558 5.5046738 101.81246 5.5412638 101.86613 L 5.5417806 101.86665 L 5.5422974 101.86717 L 5.5428141 101.86768 L 5.5433309 101.86768 L 5.5438477 101.86717 C 5.5630677 101.84917 5.5897564 101.45577 5.6254964 100.76853 C 5.7005564 99.332189 5.6984688 96.543544 5.6203288 94.088314 L 5.4859701 89.874101 z M 9.406661 90.639429 C 9.3617249 91.396942 9.318759 94.310646 9.3110596 97.115002 C 9.3043596 99.602272 9.3124551 100.78425 9.3405151 100.84501 L 9.3410319 100.84552 L 9.3410319 100.84604 L 9.3415487 100.84656 L 9.3415487 100.84707 L 9.3420654 100.84759 L 9.3425822 100.84759 L 9.343099 100.84759 L 9.3436157 100.84759 L 9.3441325 100.84707 C 9.3581525 100.82607 9.3769398 100.56077 9.4004598 100.07244 C 9.4571398 98.894538 9.5015622 95.980761 9.4960612 93.596871 C 9.4917612 91.212971 9.451581 89.882189 9.406661 90.639429 z M 21.267952 95.278939 C 21.203232 96.569039 21.107209 101.61741 21.054529 106.49738 C 21.001949 111.37736 20.992788 115.34668 21.033858 115.31854 C 21.18276 115.21686 21.269754 111.31873 21.326864 102.21392 C 21.362834 96.471899 21.340702 93.827649 21.267952 95.278939 z M 3.1786174 98.767098 L 3.1786174 98.767615 L 3.1781006 98.767615 L 3.1781006 98.768132 C 3.1635406 98.798432 3.1532959 99.271321 3.1532959 100.07193 L 3.1538127 100.07193 C 3.1538127 100.89091 3.1637074 101.38047 3.1786174 101.41035 L 3.1791341 101.41086 L 3.1791341 101.41138 L 3.1796509 101.41138 L 3.1796509 101.4119 L 3.1801676 101.4119 L 3.1806844 101.4119 L 3.1812012 101.41138 L 3.1817179 101.41086 C 3.1875179 101.39876 3.1941282 101.32167 3.2008382 101.17419 C 3.2268782 100.6023 3.2268782 99.638745 3.2008382 99.032715 C 3.1937382 98.867005 3.1867844 98.781208 3.1806844 98.768648 L 3.1806844 98.768132 L 3.1801676 98.767615 L 3.1796509 98.767098 L 3.1791341 98.767098 L 3.1786174 98.767098 z M 6.7566935 101.60207 C 6.6922035 102.27517 6.5928184 105.64861 6.5355184 109.09825 L 6.5350016 109.09825 C 6.4777616 112.54789 6.4692813 115.34444 6.5158813 115.31389 C 6.7011503 115.19213 6.7532341 113.76943 6.8125041 107.21103 C 6.8478541 103.30166 6.8237835 100.90188 6.7566935 101.60207 z M 3.0540771 105.91085 C 3.0309471 104.775 3.0111857 105.70413 3.0111857 107.97584 C 3.0111857 110.24756 3.0301071 111.17719 3.0540771 110.04135 C 3.0780971 108.90549 3.0780971 107.0467 3.0540771 105.91085 z M 14.894698 109.67134 L 14.894181 109.67186 L 14.893665 109.67238 C 14.863245 109.71228 14.851983 110.38766 14.831653 111.95337 C 14.811563 113.49587 14.772633 114.94173 14.745353 115.1661 C 14.673243 115.76092 14.592121 126.22362 14.651302 127.28939 C 14.689662 127.98114 14.742112 128.16569 14.873511 128.07435 C 15.088875 127.92464 15.199402 112.49061 14.999601 110.47439 C 14.951931 109.99255 14.920931 109.70218 14.899349 109.67341 L 14.898832 109.67289 L 14.898315 109.67238 L 14.897799 109.67186 L 14.897282 109.67134 L 14.896765 109.67134 L 14.896248 109.67134 L 14.895732 109.67134 L 14.895215 109.67134 L 14.894698 109.67134 z M 5.1381877 110.9338 C 5.0833077 112.75678 4.9859834 117.38181 4.9216634 121.21172 C 4.8130704 127.67583 4.8218939 128.1703 5.0477539 128.11001 C 5.2721519 128.05011 5.2890649 127.26108 5.2647949 117.83208 C 5.2457549 110.51957 5.2095447 108.56063 5.1381877 110.9338 z M 9.6335205 115.83737 C 9.6016405 115.86077 9.5351111 117.41701 9.4852091 119.29608 C 9.4353991 121.17515 9.3575563 123.94099 9.3115763 125.44144 C 9.2368463 127.88492 9.2522457 128.16892 9.4598877 128.16892 C 9.6658387 128.16892 9.6920993 127.84945 9.6975993 125.33912 C 9.7005993 123.78257 9.7034981 122.14208 9.7089681 121.69335 C 9.7272181 119.17965 9.6834205 115.80069 9.6335205 115.83737 z M 6.5267334 116.07922 C 6.5036734 116.08322 6.4879761 116.14039 6.4879761 116.23683 C 6.4879761 116.37706 6.5214734 116.43461 6.5618734 116.36447 C 6.6023434 116.29437 6.6023434 116.17984 6.5618734 116.10971 C 6.5491434 116.08781 6.5372134 116.07752 6.5267334 116.07922 z M 24.271387 117.32514 C 24.252987 117.56328 24.247067 118.60288 24.236247 120.67325 C 24.224137 122.97302 24.2634 125.58888 24.32358 126.48634 C 24.35932 127.0172 24.384115 127.32916 24.402645 127.36018 L 24.403162 127.3607 L 24.403162 127.36122 L 24.403678 127.36122 L 24.403678 127.36174 L 24.404195 127.36225 L 24.404712 127.36225 C 24.404808 127.36225 24.405439 127.36224 24.405745 127.36225 L 24.406262 127.36225 L 24.406779 127.36225 L 24.407296 127.36174 C 24.436086 127.32214 24.449431 126.49509 24.468791 124.59963 C 24.488591 122.66446 24.449368 120.04862 24.381458 118.78655 C 24.320408 117.65036 24.289788 117.08702 24.271387 117.32514 z M 19.896977 126.15406 L 19.89646 126.15457 L 19.89646 126.15509 L 19.895943 126.15509 L 19.895426 126.15561 C 19.879606 126.17491 19.868555 126.44181 19.868555 126.89406 L 19.869071 126.89406 C 19.868681 127.3621 19.880277 127.64429 19.896977 127.66508 L 19.897493 127.66559 L 19.89801 127.66611 L 19.898527 127.66611 L 19.899044 127.66611 L 19.899561 127.66611 L 19.900077 127.66611 L 19.900594 127.66559 L 19.901111 127.66508 L 19.901111 127.66456 L 19.901628 127.66404 L 19.901628 127.66353 C 19.907628 127.65243 19.914525 127.60993 19.921265 127.53485 C 19.949445 127.21452 19.950115 126.66445 19.921265 126.31167 C 19.913365 126.21517 19.905794 126.1643 19.899044 126.15561 L 19.898527 126.15509 L 19.898527 126.15457 L 19.89801 126.15457 L 19.897493 126.15406 L 19.896977 126.15406 z M 22.096326 126.21762 L 22.095809 126.21814 L 22.095292 126.21814 L 22.095292 126.21865 L 22.094775 126.21865 C 22.078945 126.24075 22.067904 126.48432 22.067904 126.89406 L 22.06842 126.89406 C 22.06842 127.31822 22.079726 127.57665 22.096326 127.60151 L 22.096842 127.60203 L 22.096842 127.60255 L 22.097359 127.60306 L 22.097876 127.60306 L 22.098393 127.60358 L 22.09891 127.60358 L 22.099426 127.60358 L 22.099943 127.60306 L 22.10046 127.60255 L 22.100977 127.60203 L 22.101493 127.60151 C 22.107493 127.59151 22.114777 127.55325 22.121647 127.48472 C 22.150387 127.19228 22.151037 126.68688 22.121647 126.36231 C 22.113847 126.27611 22.106166 126.22983 22.099426 126.21969 L 22.09891 126.21917 L 22.098393 126.21865 L 22.097876 126.21814 L 22.097359 126.21814 L 22.097359 126.21762 L 22.096842 126.21762 L 22.096326 126.21762 z M 11.669055 127.57413 C 11.668826 127.57419 11.667705 127.57456 11.667505 127.57464 C 11.667215 127.57478 11.666155 127.57555 11.665955 127.57568 C 11.648305 127.58878 11.635465 127.67258 11.635465 127.81184 L 11.632882 127.81184 C 11.631682 127.96978 11.645908 128.06807 11.666988 128.07849 L 11.667505 128.079 L 11.668022 128.079 L 11.668538 128.079 L 11.669055 128.079 L 11.669572 128.079 L 11.669572 128.07952 L 11.670089 128.07952 L 11.670605 128.07952 L 11.671122 128.07952 L 11.671639 128.07952 C 11.679139 128.07752 11.68839 128.06573 11.69696 128.04283 C 11.73635 127.94533 11.737048 127.76145 11.702128 127.63459 C 11.692328 127.59929 11.682306 127.57976 11.673706 127.57516 L 11.673189 127.57516 L 11.673189 127.57464 L 11.672673 127.57464 C 11.672554 127.57462 11.671522 127.57424 11.671122 127.57413 C 11.670888 127.57412 11.669772 127.57411 11.669572 127.57413 L 11.669055 127.57413 z " />
</svg>
