<?xml version="1.0" encoding="UTF-8" standalone="no"?>
<svg
   width="25.40mm"
   height="128.5mm"
   viewBox="0 0 25.40 128.5"
   version="1.1"
   id="svg1"
   sodipodi:docname="metal.svg"
   inkscape:version="1.4.2 (f4327f4, 2025-05-13)"
   xmlns:inkscape="http://www.inkscape.org/namespaces/inkscape"
   xmlns:sodipodi="http://sodipodi.sourceforge.net/DTD/sodipodi-0.dtd"
   xmlns:xlink="http://www.w3.org/1999/xlink"
   xmlns="http://www.w3.org/2000/svg"
   xmlns:svg="http://www.w3.org/2000/svg">
  <defs
     id="defs1">
    <linearGradient
       inkscape:collect="always"
       xlink:href="#linearGradient238"
       id="linearGradient239-8"
       x1="649.83807"
       y1="-1044.1716"
       x2="649.83807"
       y2="-398.76425"
       gradientUnits="userSpaceOnUse"
       gradientTransform="matrix(0.23920343,0,0,0.07752298,-138.76039,156.3772)" />
    <linearGradient
       id="linearGradient238"
       inkscape:collect="always">
      <stop
         style="stop-color:#e3dedb;stop-opacity:0.32873562;"
         offset="0"
         id="stop238" />
      <stop
         style="stop-color:#917c6f;stop-opacity:0;"
         offset="1"
         id="stop239" />
    </linearGradient>
    <linearGradient
       inkscape:collect="always"
       xlink:href="#linearGradient4"
       id="linearGradient5-2"
       x1="876.5351"
       y1="-323.21573"
       x2="876.5351"
       y2="58.015488"
       gradientUnits="userSpaceOnUse"
       gradientTransform="matrix(0.23920343,0,0,0.19813649,-195.67989,64.040825)" />
    <linearGradient
       id="linearGradient4"
       inkscape:collect="always">
      <stop
         style="stop-color:#333333;stop-opacity:0.48275861;"
         offset="0"
         id="stop4" />
      <stop
         style="stop-color:#333333;stop-opacity:0;"
         offset="1"
         id="stop5" />
    </linearGradient>
    <linearGradient
       inkscape:collect="always"
       xlink:href="#linearGradient238"
       id="linearGradient240-6"
       gradientUnits="userSpaceOnUse"
       gradientTransform="matrix(0.23920343,0,0,0.07752298,-138.76039,5.3055854)"
       x1="649.83807"
       y1="-1044.1716"
       x2="649.83807"
       y2="-398.76425" />
  </defs>
  <sodipodi:namedview
     id="namedview1"
     pagecolor="#ffffff"
     bordercolor="#cccccc"
     borderopacity="1"
     inkscape:showpageshadow="0"
     inkscape:pageopacity="1"
     inkscape:pagecheckerboard="0"
     inkscape:deskcolor="#d1d1d1"
     inkscape:document-units="mm"
     inkscape:zoom="1.174946"
     inkscape:cx="59.577208"
     inkscape:cy="263.41637"
     inkscape:window-width="1920"
     inkscape:window-height="1009"
     inkscape:window-x="-8"
     inkscape:window-y="-8"
     inkscape:window-maximized="1"
     inkscape:current-layer="svg1" />
  <g
     id="g8">
    <path
       id="rect68-9"
       style="fill:#535353;fill-opacity:1;stroke-width:0.190025"
       d="M 0 0 L 0 128.50017 L 25.4 128.50017 L 25.4 0 L 0 0 z " />
    <path
       id="path484-1"
       style="fill:#f9f9f9;fill-opacity:0.360078;stroke-width:0.560754"
       d="M 3.229777 0.051676432 C 2.9184772 0.051676432 2.7715162 1.6047448 2.6453166 6.2342448 C 2.5809165 8.5947848 2.4930467 10.723355 2.4520467 10.964705 C 2.4010467 11.259075 2.456395 11.391098 2.6199951 11.365198 C 2.9447948 11.314178 3.0891283 9.3936968 3.1481283 4.3046468 C 3.1744283 2.0633368 3.2484258 0.1894599 3.3114258 0.1405599 C 3.3755257 0.091559896 3.3387769 0.051676432 3.229777 0.051676432 z M 13.860136 0.051676432 C 13.529036 0.051676432 13.505809 0.72049916 13.541809 9.0444092 C 13.563909 13.99028 13.650562 18.036625 13.734562 18.036625 C 13.883962 18.036625 14.173295 8.485275 14.173295 3.554305 C 14.173295 1.677045 14.110914 1.0796312 13.921114 1.1353312 C 13.741814 1.1878412 13.72085 1.1529616 13.84825 1.0138916 C 13.94675 0.90632158 14.069652 0.6453588 14.122652 0.4345988 C 14.199252 0.1272988 14.147436 0.051676432 13.860136 0.051676432 z M 20.330542 0.051676432 C 20.038042 0.051676432 19.998343 0.6787844 19.985343 5.5443644 C 19.976343 8.5652744 19.933225 11.473586 19.889225 12.007536 C 19.764225 13.509776 19.744308 16.892899 19.799308 26.927039 L 19.799825 26.927039 C 19.839625 34.143859 19.885648 35.50141 20.010148 33.10909 C 20.097948 31.423 20.227436 23.375941 20.296436 15.226461 C 20.366036 7.0770004 20.476899 0.32887689 20.541899 0.23047689 C 20.619999 0.11335689 20.547042 0.051676432 20.330542 0.051676432 z M 23.657471 0.051676432 C 23.523871 0.051676432 23.459737 2.3061862 23.480737 6.2595662 L 23.478153 6.2595662 C 23.49512 9.5175106 23.517786 10.953446 23.565487 10.961605 C 23.566048 10.961505 23.567502 10.96106 23.56807 10.960571 C 23.591222 10.932897 23.620926 10.586114 23.657471 9.9637329 C 23.895571 5.9550229 23.893871 0.051676432 23.657471 0.051676432 z M 7.3954142 0.25424805 C 7.367789 0.2604649 7.3489054 0.4100445 7.3489054 0.66404215 C 7.3489054 0.90662419 7.3661856 1.0541168 7.3917969 1.072286 C 7.3930114 1.0729977 7.3951974 1.0742191 7.3964478 1.074353 C 7.4080941 1.0742455 7.4218468 1.0491304 7.4357218 0.99632161 C 7.4837218 0.81369161 7.4837218 0.51496946 7.4357218 0.33227946 C 7.4218468 0.27948798 7.4086109 0.25435156 7.3969645 0.25424805 C 7.3966519 0.25428163 7.3957246 0.25417819 7.3954142 0.25424805 z M 10.631909 0.37155355 C 10.606176 0.38061888 10.588501 0.59975196 10.588501 0.97100016 C 10.588501 1.3297747 10.605012 1.5460322 10.629325 1.5683797 C 10.629895 1.5687944 10.631331 1.5697264 10.631909 1.56993 L 10.632426 1.56993 L 10.632943 1.56993 L 10.633459 1.56993 L 10.633976 1.56993 L 10.634493 1.56993 L 10.63501 1.56993 L 10.635527 1.56993 C 10.645704 1.5643236 10.65768 1.5271531 10.669633 1.4562419 C 10.713633 1.1892919 10.713633 0.7521917 10.669633 0.4852417 C 10.65768 0.41431982 10.64622 0.37767529 10.636043 0.37207031 L 10.635527 0.37207031 L 10.63501 0.37155355 L 10.634493 0.37155355 L 10.633976 0.37155355 L 10.633459 0.37155355 L 10.632943 0.37155355 L 10.632426 0.37155355 L 10.631909 0.37155355 z M 13.815694 1.4154175 C 13.836223 1.4143684 13.861043 1.4298504 13.889075 1.4629598 C 13.951075 1.5367398 13.944021 1.6248135 13.872021 1.6588135 C 13.799921 1.6927635 13.749367 1.6327415 13.759367 1.5249715 C 13.765482 1.4543153 13.785691 1.4169507 13.815694 1.4154175 z M 4.8214111 1.4629598 L 4.8208944 1.4634766 C 4.7984727 1.4871373 4.7826538 1.8661631 4.7826538 2.5037231 C 4.7826538 3.1412694 4.7974097 3.5197921 4.8198608 3.543453 L 4.8203776 3.5439697 L 4.8208944 3.5439697 L 4.8214111 3.5444865 L 4.8219279 3.5444865 L 4.8224447 3.5444865 L 4.8229614 3.5444865 L 4.8234782 3.5444865 L 4.823995 3.5439697 L 4.8245117 3.543453 C 4.833558 3.5337259 4.843859 3.4697201 4.854484 3.3465658 C 4.894484 2.8828958 4.894484 2.1240238 4.854484 1.6603638 C 4.8441247 1.5371961 4.8340352 1.473722 4.8250285 1.4639933 L 4.8250285 1.4634766 L 4.8245117 1.4634766 L 4.823995 1.4629598 L 4.8234782 1.4629598 L 4.8229614 1.4629598 L 4.8224447 1.4629598 L 4.8219279 1.4629598 L 4.8214111 1.4629598 z M 10.572481 3.1171224 C 10.309181 2.2497824 10.147492 6.2700814 10.011792 17.066142 L 9.8924194 26.569438 L 10.171989 20.029268 C 10.325989 16.432268 10.4699 11.627081 10.4929 9.3508504 C 10.5152 7.0746004 10.58011 4.8672435 10.63811 4.4457235 C 10.69561 4.0242035 10.666481 3.4262524 10.572481 3.1171224 z M 4.5924845 5.1201009 C 4.563934 5.1253519 4.5439087 5.2524246 4.5439087 5.4673665 C 4.5439087 5.6920342 4.5653769 5.8201194 4.5961019 5.8141154 C 4.6074098 5.8108641 4.6205444 5.7890246 4.6338257 5.7479696 C 4.6838257 5.5933896 4.6838257 5.3408267 4.6338257 5.1862467 C 4.6200444 5.1427767 4.6068498 5.1213018 4.5950684 5.1201009 C 4.5944181 5.120096 4.5931261 5.1199829 4.5924845 5.1201009 z M 2.4954549 11.701095 C 2.4339549 11.560585 2.3879679 13.514832 2.3879679 16.043982 C 2.39005 18.448063 2.4269133 19.688827 2.4949382 19.693888 C 2.5116039 19.692181 2.5309334 19.617393 2.5512655 19.467546 C 2.7969652 17.659846 2.9841094 11.412855 2.7838094 11.701095 L 2.6065592 11.956376 L 2.4954549 11.701095 z M 20.076811 21.046777 C 20.092199 21.04515 20.109533 21.054812 20.12797 21.07675 C 20.18697 21.147 20.18697 21.261731 20.12797 21.332031 C 20.06827 21.402291 20.01945 21.3449 20.01945 21.20439 C 20.01945 21.107776 20.042957 21.050357 20.076811 21.046777 z M 13.539742 22.635311 C 13.102942 33.155541 12.975035 41.154956 13.240535 41.358716 C 13.322635 41.422116 13.284085 41.440074 13.149585 41.400574 C 12.979485 41.351534 12.933569 42.042846 12.979569 43.811796 C 13.015469 45.175756 13.075378 48.245995 13.112378 50.634635 L 13.181624 54.977523 L 13.330969 50.174715 C 13.413169 47.533165 13.530935 39.370797 13.591935 32.036287 C 13.653835 24.630417 13.630742 20.450441 13.539742 22.635311 z M 5.2203532 23.63525 C 5.1914998 23.636985 5.1711051 23.699783 5.1645426 23.810433 L 5.1624756 23.810433 C 5.1576755 23.979003 5.2026943 24.0605 5.2616943 23.9913 C 5.3226943 23.92212 5.3255129 23.783742 5.2715129 23.684342 C 5.2528472 23.650163 5.2354669 23.634341 5.2203532 23.63525 z M 16.656348 24.627954 L 16.544727 29.277283 C 16.483127 31.834523 16.409879 37.740436 16.379879 42.401546 L 16.382979 42.401546 C 16.353979 47.062646 16.370186 50.856339 16.420186 50.832039 C 16.469586 50.807699 16.567744 48.550525 16.637744 45.816325 C 16.707844 43.082135 16.819892 40.77639 16.888892 40.69209 C 16.957292 40.60776 16.916775 40.510066 16.798975 40.475566 C 16.654075 40.434386 16.652356 40.299158 16.789156 40.082308 C 16.922156 39.871238 16.93578 37.015676 16.82688 32.189766 L 16.656348 24.627954 z M 1.3120646 28.658199 C 1.292881 28.660112 1.2714839 28.81628 1.2474691 29.123287 C 1.0403695 31.771297 0.85026361 39.493401 0.68936361 51.809241 C 0.61536361 57.485771 0.60400863 62.106998 0.66300863 62.078898 C 0.72290863 62.050798 0.83725667 58.740254 0.91725667 54.721724 C 0.99715667 50.703194 1.1522385 45.8975 1.2619385 44.04279 C 1.3712385 42.18808 1.4474036 37.635505 1.4304036 33.926095 C 1.4141865 30.419461 1.3769417 28.704555 1.3146484 28.659233 C 1.3140035 28.658943 1.3127149 28.658134 1.3120646 28.658199 z M 25.4 32.96698 C 25.281443 37.24157 25.177643 41.664398 25.200012 42.204142 C 25.214057 42.54141 25.228928 42.759166 25.249105 42.783435 L 25.249622 42.783952 L 25.250138 42.784469 L 25.250655 42.784985 L 25.251172 42.785502 C 25.251377 42.785551 25.252516 42.785492 25.252722 42.785502 L 25.253239 42.785502 L 25.253756 42.785502 C 25.253966 42.785395 25.255095 42.785132 25.255306 42.784985 C 25.255518 42.7848 25.256126 42.78366 25.25634 42.783435 C 25.286861 42.745783 25.330445 42.306397 25.4 41.260014 L 25.4 32.96698 z M 16.622758 35.443831 C 16.643339 35.442782 16.668514 35.458264 16.696139 35.491374 L 16.695622 35.491374 C 16.757622 35.565134 16.751085 35.653227 16.679085 35.687227 C 16.607085 35.721177 16.555914 35.661115 16.565914 35.553385 C 16.57203 35.482729 16.592677 35.445365 16.622758 35.443831 z M 23.806299 41.692546 L 23.523112 43.736348 C 23.148612 46.441148 22.905806 54.72865 23.137606 56.91849 L 23.137089 56.91849 C 23.313589 58.58421 23.327434 58.478927 23.465234 54.363607 C 23.544334 52.003067 23.653597 48.186801 23.707597 45.882471 L 23.806299 41.692546 z M 8.1271525 45.831311 C 7.8126528 49.278521 7.5447235 55.976362 7.6207235 58.502372 C 7.6585235 59.766952 7.7158475 63.997746 7.7478475 67.903866 L 7.8052083 75.005758 L 7.9493856 69.538908 C 8.2228852 59.151708 8.3406525 43.491851 8.1271525 45.831311 z M 16.232601 52.91615 C 16.232297 52.916244 16.231869 52.916533 16.231567 52.916667 C 16.206441 52.9312 16.188676 53.084299 16.188676 53.34248 L 16.190743 53.34248 C 16.190032 53.62222 16.209544 53.790958 16.237769 53.799817 C 16.23933 53.800111 16.241842 53.799982 16.243453 53.7993 C 16.253178 53.794029 16.264477 53.770505 16.275492 53.727987 C 16.321492 53.546577 16.321492 53.224795 16.275492 53.012785 C 16.261539 52.949841 16.248074 52.918578 16.236218 52.91615 C 16.235288 52.916077 16.233512 52.915866 16.232601 52.91615 z M 19.207613 53.633419 C 19.17777 53.634948 19.1573 53.671776 19.150769 53.742456 L 19.150769 53.742973 C 19.141469 53.850693 19.19194 53.910815 19.26394 53.876815 C 19.33594 53.842855 19.342477 53.754761 19.280477 53.680961 C 19.252446 53.647831 19.228032 53.632372 19.207613 53.633419 z M 16.03313 56.964482 L 16.03313 56.964998 L 16.032613 56.964998 L 16.032096 56.965515 L 16.03158 56.966032 C 16.010911 57.00772 15.996887 57.775009 15.996956 59.064612 C 15.996956 60.339725 16.010281 61.089685 16.030546 61.127018 L 16.031063 61.127535 L 16.03158 61.128052 L 16.032096 61.128569 L 16.032613 61.128569 L 16.03313 61.128569 L 16.03313 61.128052 L 16.033647 61.128052 C 16.042085 61.113499 16.052084 60.980856 16.062069 60.718774 C 16.098069 59.773794 16.098069 58.25611 16.062069 57.34637 C 16.052366 57.10117 16.042944 56.977976 16.03468 56.965515 L 16.034163 56.965515 L 16.034163 56.964998 L 16.033647 56.964482 L 16.03313 56.964482 z M 21.615218 58.553532 L 21.483443 61.210217 C 21.353543 63.837357 21.356629 65.332039 21.498429 68.414429 C 21.523721 68.964409 21.543481 69.2787 21.568709 69.294995 C 21.568965 69.295099 21.570002 69.295469 21.57026 69.295512 C 21.570518 69.295494 21.57155 69.295591 21.57181 69.295512 C 21.572071 69.295371 21.573098 69.29468 21.57336 69.294478 C 21.612848 69.25494 21.667565 68.521428 21.774382 66.881706 C 21.892382 65.072966 21.901086 62.671794 21.796086 61.159574 L 21.615218 58.553532 z M 4.1842407 59.870247 L 4.183724 59.870764 L 4.1832072 59.871281 C 4.1625628 59.908205 4.1476188 60.543213 4.1475505 61.618978 L 4.148584 61.618978 C 4.1478887 62.713184 4.1619957 63.365003 4.1832072 63.401815 L 4.183724 63.402332 L 4.1842407 63.402848 L 4.1847575 63.402848 L 4.1847575 63.403365 L 4.1852743 63.403365 L 4.185791 63.403365 L 4.1863078 63.402848 L 4.1868245 63.402332 C 4.1952151 63.389801 4.2049017 63.285793 4.2147298 63.081421 C 4.2507298 62.312031 4.2507298 61.024397 4.2147298 60.220097 C 4.2047454 59.997029 4.1949593 59.884218 4.1863078 59.871281 L 4.185791 59.870764 L 4.1852743 59.870247 L 4.1847575 59.870247 L 4.1842407 59.870247 z M 0.45526937 65.03324 C 0.44073409 65.042047 0.42030794 65.27841 0.39480794 65.757743 C 0.30650794 67.415733 0.1813055 71.807428 0.1173055 75.516838 C 0.065035432 78.523495 0.062041957 80.192902 0.10438639 80.215259 L 0.10490316 80.215259 C 0.11979633 80.210947 0.14041455 80.011788 0.16588135 79.604443 C 0.25728135 78.143153 0.38290055 73.751479 0.44390055 69.845349 C 0.4917693 66.78967 0.49489097 65.082699 0.45733643 65.034273 L 0.45681966 65.033757 L 0.4563029 65.03324 L 0.45578613 65.03324 L 0.45526937 65.03324 z M 16.914213 71.275753 C 16.737513 71.362893 16.565219 75.799873 16.418119 84.049133 L 16.417603 84.049133 C 16.340603 88.404883 16.32453 91.946004 16.38453 91.917904 C 16.44373 91.889814 16.555576 90.532991 16.632576 88.903101 C 16.824376 84.852381 17.042313 71.212553 16.914213 71.275753 z M 24.83466 79.706246 C 24.52896 80.163986 24.227624 114.31933 24.469824 120.96471 L 24.469307 120.96471 C 24.515907 122.24334 24.618717 123.28918 24.697717 123.28912 C 24.776717 123.28906 24.85435 113.4599 24.87135 101.44652 C 24.88935 89.433146 24.87166 79.650046 24.83466 79.706246 z M 11.66027 79.777043 C 11.660026 79.777164 11.659483 79.777353 11.659237 79.777559 C 11.64479 79.794474 11.625702 79.955585 11.602909 80.268486 C 11.510709 81.533066 11.383756 85.46462 11.320756 89.00542 C 11.269644 91.855265 11.266958 93.466256 11.30887 93.535376 C 11.309321 93.535937 11.310477 93.537232 11.310937 93.537443 C 11.31117 93.537461 11.312252 93.537513 11.312488 93.537443 L 11.313005 93.536926 C 11.327675 93.521968 11.347547 93.342967 11.371399 92.990706 C 11.462799 91.641826 11.589552 87.710272 11.653552 84.253772 C 11.706127 81.422552 11.707774 79.81946 11.662854 79.777559 L 11.662337 79.777043 C 11.662098 79.776994 11.661028 79.777006 11.660787 79.777043 L 11.66027 79.777043 z M 5.5185262 82.638883 C 5.4808885 82.63931 5.4172224 82.668361 5.3454102 82.721049 C 5.2307101 82.805349 5.1366374 82.920131 5.1366374 82.976331 C 5.1366374 83.032521 5.2306101 83.009471 5.3454102 82.925171 C 5.4603098 82.840861 5.5541829 82.726089 5.5541829 82.669889 C 5.5541829 82.648814 5.5411088 82.638627 5.5185262 82.638883 z M 5.0875448 83.149963 C 5.0499159 83.15039 4.9861787 83.178925 4.9144287 83.231612 C 4.7996291 83.315912 4.7056559 83.43121 4.7056559 83.48741 C 4.7056559 83.5436 4.7995291 83.520551 4.9144287 83.436251 C 5.0292287 83.351941 5.1232015 83.237169 5.1232015 83.180969 C 5.1232015 83.159894 5.1101221 83.149707 5.0875448 83.149963 z M 7.845516 83.653292 C 7.807516 83.674392 7.711609 87.048712 7.632609 91.151542 C 7.553609 95.254372 7.4426628 100.47358 7.3876628 102.7498 C 7.2082627 110.08659 7.1107502 125.13438 7.2331502 126.68839 L 7.2326335 126.68839 C 7.2980335 127.51819 7.3746825 128.18537 7.4036825 128.17047 C 7.6746821 128.03028 7.7503957 123.90681 7.8263957 105.21477 C 7.8763957 93.334791 7.883516 83.632192 7.845516 83.653292 z M 4.1615031 84.175224 C 4.1054606 84.177883 4.0104103 84.259299 3.9351603 84.373661 C 3.8488603 84.504351 3.5608893 84.841433 3.2948893 85.122453 C 3.0288896 85.403473 2.7471213 85.748304 2.6701213 85.888814 L 2.5295614 86.144096 L 2.8494385 85.879513 C 3.2878382 85.516733 4.2952068 84.232458 4.1832072 84.179358 C 4.1769697 84.176394 4.1695092 84.174844 4.1615031 84.175224 z M 2.4835693 86.235563 C 2.3981933 86.242026 1.9005231 86.771849 1.352889 87.441691 C 0.83653209 88.0735 0.25947047 88.75378 0 89.037976 L 0 89.492729 C 0.43776331 89.018844 0.82372233 88.570537 0.82372233 88.504159 C 0.82372233 88.467189 1.2236405 87.953376 1.7120402 87.362626 C 2.2004399 86.771876 2.5502873 86.265197 2.4902873 86.236597 C 2.4884029 86.235703 2.4863234 86.235355 2.4835693 86.235563 z M 14.4632 89.822941 L 14.473535 96.516073 C 14.478391 100.24743 14.492904 101.8038 14.547432 101.83978 C 14.575918 101.84905 14.616047 101.45227 14.670422 100.73907 C 14.778722 99.299886 14.774787 96.506069 14.660087 94.045939 L 14.4632 89.822941 z M 20.258195 90.376396 C 20.25771 90.376711 20.256615 90.377915 20.256128 90.378463 C 20.245645 90.392761 20.234141 90.461858 20.223055 90.589303 C 20.157055 91.348043 20.094012 94.268152 20.083012 97.078312 C 20.072992 99.600018 20.085015 100.78238 20.127454 100.8171 C 20.127704 100.81723 20.128752 100.81809 20.129004 100.81814 C 20.129258 100.8181 20.130298 100.81773 20.130554 100.81762 C 20.151245 100.80254 20.17927 100.53745 20.21427 100.04196 C 20.29737 98.861701 20.364313 95.941576 20.354313 93.552946 C 20.349373 91.649498 20.310686 90.416042 20.261812 90.377429 C 20.261572 90.377297 20.260503 90.37647 20.260262 90.376396 L 20.259745 90.376396 C 20.259504 90.376437 20.258437 90.376296 20.258195 90.376396 z M 2.8360026 92.975203 C 2.8059503 92.976732 2.7856128 93.013555 2.7796753 93.084241 C 2.7703753 93.191861 2.8208467 93.252499 2.8928467 93.218599 C 2.9648467 93.184639 2.9718999 93.096546 2.9098999 93.022746 C 2.881828 92.989612 2.8565647 92.974158 2.8360026 92.975203 z M 2.7481527 94.523429 C 2.524453 96.174189 2.3625937 110.5772 2.5243937 114.09278 L 2.6541016 116.90294 L 2.7652059 112.6107 C 2.9414059 105.74584 2.9302527 93.162129 2.7481527 94.523429 z M 11.076843 98.734025 L 11.076843 98.734542 L 11.076326 98.734542 L 11.07581 98.735059 C 11.054407 98.76545 11.039119 99.239751 11.039119 100.04196 L 11.040153 100.04196 C 11.040153 100.86261 11.055453 101.35251 11.07736 101.38244 L 11.07736 101.38296 L 11.077877 101.38348 L 11.078394 101.38348 L 11.07891 101.38399 L 11.079427 101.38399 L 11.079944 101.38399 L 11.080461 101.38399 L 11.080461 101.38348 L 11.080977 101.38296 L 11.081494 101.38296 C 11.089949 101.37082 11.099603 101.2935 11.109399 101.14576 C 11.147399 100.57273 11.147399 99.606892 11.109399 98.999642 C 11.099009 98.8336 11.088906 98.748159 11.079944 98.735575 L 11.079427 98.735059 L 11.079427 98.734542 L 11.07891 98.734542 L 11.078394 98.734025 L 11.077877 98.734025 L 11.07736 98.734025 L 11.076843 98.734025 z M 16.331303 101.57468 C 16.236603 102.24912 16.090258 105.62882 16.006258 109.08533 L 16.006775 109.08533 C 15.922775 112.54182 15.909836 115.34459 15.977836 115.31389 C 16.249936 115.1919 16.326468 113.76646 16.413468 107.19501 C 16.464868 103.27788 16.430303 100.8731 16.331303 101.57468 z M 10.865487 105.40649 L 10.865487 105.407 C 10.845514 105.44568 10.830863 106.37868 10.830863 107.96137 C 10.830863 109.54406 10.844439 110.47654 10.864453 110.51522 L 10.86497 110.51573 L 10.865487 110.51625 L 10.866003 110.51625 L 10.86652 110.51625 L 10.86652 110.51573 L 10.867037 110.51522 C 10.875131 110.49864 10.884338 110.3417 10.893909 110.03049 C 10.928909 108.89237 10.928909 107.02985 10.893909 105.89173 C 10.884612 105.58052 10.875612 105.42409 10.867554 105.40752 L 10.867554 105.407 L 10.867037 105.40649 L 10.86652 105.40649 L 10.866003 105.40649 L 10.865487 105.40649 z M 13.954704 110.9245 C 13.874204 112.7511 13.730377 117.38556 13.636377 121.22309 C 13.476877 127.70007 13.490095 128.19563 13.821895 128.13533 C 14.151095 128.07528 14.176222 127.28449 14.140222 117.83674 C 14.112222 110.50969 14.059504 108.54661 13.954704 110.9245 z M 20.556368 115.83841 C 20.509568 115.86183 20.411293 117.42154 20.338293 119.30435 C 20.265193 121.18715 20.151012 123.95766 20.083012 125.46108 C 19.973312 127.90942 19.996086 128.19424 20.301086 128.19424 C 20.603886 128.19424 20.639902 127.87409 20.649902 125.35876 C 20.654902 123.79914 20.656956 122.15538 20.666956 121.70575 C 20.693756 119.18706 20.629368 115.80161 20.556368 115.83841 z M 15.993339 116.08077 C 15.959464 116.08436 15.936495 116.14179 15.936495 116.23838 C 15.936495 116.37882 15.986015 116.43622 16.045015 116.36602 C 16.104015 116.29577 16.104015 116.18094 16.045015 116.11074 C 16.026359 116.08879 16.008737 116.07914 15.993339 116.08077 z M 3.3202108 124.1578 L 3.203422 126.0998 C 3.138422 127.16766 3.1162624 128.07556 3.1522624 128.11776 L 3.1532959 128.11776 C 3.3652955 128.36173 3.4051693 127.99364 3.3651693 126.17628 L 3.3202108 124.1578 z M 23.544299 127.59893 C 23.515983 127.6041 23.49624 127.6891 23.49624 127.83664 L 23.490039 127.83664 C 23.488039 128.06175 23.53009 128.16534 23.58409 128.06764 C 23.64409 127.96994 23.645425 127.78649 23.594425 127.65939 C 23.57655 127.61569 23.559132 127.59622 23.544299 127.59893 z " />
    <path
       id="rect238-0"
       style="fill:url(#linearGradient239-8);fill-opacity:1;stroke-width:0.118862"
       d="M 0 75.535958 L 0 125.81299 L 25.4 125.81299 L 25.4 75.535958 L 0 75.535958 z " />
    <path
       id="rect4-0"
       style="fill:url(#linearGradient5-2);fill-opacity:1;stroke-width:0.190025"
       d="M 0 0 L 0 128.50017 L 25.4 128.50017 L 25.4 0 L 0 0 z " />
    <path
       id="rect240-6"
       style="fill:url(#linearGradient240-6);fill-opacity:1;stroke-width:0.118862"
       d="M 0 -25.258923 L 0 -75.535958 L 25.4 -75.535958 L 25.4 -25.258923 L 0 -25.258923 z "
       transform="scale(1,-1)" />
    <rect
       style="fill:#373737;fill-opacity:1;stroke-width:0.144545"
       id="rect15-8"
       width="1.2314427"
       height="128.50006"
       x="0.4442901"
       y="-1.6215161e-05" />
    <rect
       style="fill:#4a4a4a;fill-opacity:1;stroke-width:0.144545"
       id="rect16-4"
       width="1.2314427"
       height="128.50006"
       x="2.907294"
       y="-1.6215161e-05" />
    <rect
       style="fill:#3e3e3e;fill-opacity:1;stroke-width:0.144545"
       id="rect17-9"
       width="1.2314427"
       height="128.50006"
       x="1.6757957"
       y="-1.6215161e-05" />
    <rect
       style="fill:#5a5a5a;stroke-width:0.144545"
       id="rect18-6"
       width="1.2314427"
       height="128.50006"
       x="6.6015987"
       y="-1.6215161e-05" />
    <rect
       style="fill:#464646;fill-opacity:0.984314;stroke-width:0.144545"
       id="rect19-3"
       width="1.2314427"
       height="128.50006"
       x="5.3700862"
       y="-1.6215161e-05" />
    <rect
       style="fill:#373737;fill-opacity:1;stroke-width:0.144545"
       id="rect20-7"
       width="1.2314427"
       height="128.50006"
       x="9.0643549"
       y="-1.6215161e-05" />
    <rect
       style="fill:#4a4a4a;fill-opacity:1;stroke-width:0.144545"
       id="rect21-8"
       width="1.2314427"
       height="128.50006"
       x="12.758871"
       y="-1.6215161e-05" />
    <rect
       style="fill:#3e3e3e;fill-opacity:1;stroke-width:0.144545"
       id="rect22-8"
       width="1.2314427"
       height="128.50006"
       x="11.527366"
       y="-1.6215161e-05" />
    <rect
       style="fill:#5a5a5a;stroke-width:0.144545"
       id="rect23-2"
       width="1.2314427"
       height="128.50006"
       x="10.29586"
       y="-1.6215161e-05" />
    <rect
       style="fill:#373737;fill-opacity:1;stroke-width:0.144545"
       id="rect25-3"
       width="1.2314427"
       height="128.50006"
       x="20.147522"
       y="-1.6215161e-05" />
    <rect
       style="fill:#4a4a4a;fill-opacity:1;stroke-width:0.144545"
       id="rect26-5"
       width="1.2314427"
       height="128.50006"
       x="22.610533"
       y="-1.6215161e-05" />
    <rect
       style="fill:#3e3e3e;fill-opacity:1;stroke-width:0.144545"
       id="rect27-9"
       width="1.2314427"
       height="128.50006"
       x="21.379021"
       y="-1.6215161e-05" />
    <rect
       style="fill:#5a5a5a;stroke-width:0.144545"
       id="rect28-8"
       width="1.2314427"
       height="128.50006"
       x="15.221844"
       y="-1.6215161e-05" />
    <rect
       style="fill:#4a4a4a;fill-opacity:1;stroke-width:0.144545"
       id="rect31-7"
       width="1.2314427"
       height="128.50006"
       x="13.990331"
       y="-1.6215161e-05" />
    <rect
       style="fill:#464646;fill-opacity:0.984314;stroke-width:0.144545"
       id="rect44-2"
       width="1.2314427"
       height="128.50006"
       x="17.684694"
       y="-1.6215161e-05" />
  </g>
</svg>
