<?xml version="1.0" encoding="UTF-8" standalone="no"?>
<svg
   width="25.40mm"
   height="128.5mm"
   viewBox="0 0 25.40 128.5"
   version="1.1"
   id="svg1"
   sodipodi:docname="wood.svg"
   inkscape:version="1.4.2 (f4327f4, 2025-05-13)"
   xmlns:inkscape="http://www.inkscape.org/namespaces/inkscape"
   xmlns:sodipodi="http://sodipodi.sourceforge.net/DTD/sodipodi-0.dtd"
   xmlns="http://www.w3.org/2000/svg"
   xmlns:svg="http://www.w3.org/2000/svg">
  <defs
     id="defs1" />
  <sodipodi:namedview
     id="namedview1"
     pagecolor="#ffffff"
     bordercolor="#cccccc"
     borderopacity="1"
     inkscape:showpageshadow="0"
     inkscape:pageopacity="1"
     inkscape:pagecheckerboard="0"
     inkscape:deskcolor="#d1d1d1"
     inkscape:document-units="mm"
     inkscape:zoom="1.2069767"
     inkscape:cx="-32.726398"
     inkscape:cy="224.9422"
     inkscape:window-width="1920"
     inkscape:window-height="1009"
     inkscape:window-x="-8"
     inkscape:window-y="-8"
     inkscape:window-maximized="1"
     inkscape:current-layer="svg1" />
  <path
     id="rect3"
     style="fill:#915e2a;fill-opacity:1;stroke-width:0.162352"
     d="M 0 0 L 0 128.50017 L 25.4 128.50017 L 25.4 0 L 0 0 z " />
  <path
     id="path4"
     style="fill:#7e5824;fill-opacity:1;stroke-width:0.422285"
     d="M 0.0098185221 0 C 0.35939588 25.96377 0.54913778 35.308996 0.91157227 44.600378 C 0.99907227 46.843338 1.1219006 50.186896 1.1849406 52.030416 C 1.2479406 53.873956 1.3519375 56.48794 1.4154175 57.83988 C 1.5128175 59.91378 1.6470572 63.583033 1.7316772 66.251253 C 1.8241772 67.245333 1.8974865 68.081774 1.9218465 68.440784 C 1.9627465 69.044164 2.0134511 69.520654 2.0345011 69.499634 C 2.0799011 69.454234 1.8078238 61.360528 1.6427938 57.846598 C 1.5792938 56.494658 1.4758737 53.880664 1.4128337 52.037134 C 1.3498337 50.193574 1.2269553 46.850086 1.1394653 44.607096 C 0.77694987 35.314938 0.58731949 25.96893 0.23771159 0 L 0.0098185221 0 z M 3.0561442 0 C 3.1587054 4.5579867 3.2302385 11.869499 3.266984 21.695833 C 3.320384 35.980293 3.3480618 37.881681 3.5372518 40.187211 C 3.8327918 43.788851 3.9537581 47.074988 4.1175781 55.941288 C 4.2955381 65.576368 4.2961158 70.754505 4.1227458 87.393115 C 3.9547858 103.26989 3.8193155 107.61464 3.3098755 113.48196 C 3.1754655 115.03037 3.1750955 118.74928 3.3098755 123.14649 C 3.3714017 125.16609 3.4196994 126.96593 3.4540527 128.50017 L 3.681429 128.50017 C 3.6470921 126.96737 3.5992208 125.16988 3.5377686 123.15321 C 3.4030786 118.75601 3.4033786 115.03705 3.5377686 113.48868 C 4.0472086 107.62137 4.1826688 103.27661 4.3506388 87.399833 C 4.5246788 70.761223 4.5241312 65.582599 4.3454712 55.947489 C 4.1816912 47.081219 4.0606549 43.795499 3.7651449 40.193929 C 3.5759549 37.888349 3.5482871 35.987051 3.4948771 21.702551 C 3.4580731 11.87137 3.3866719 4.5574828 3.2840373 0 L 3.0561442 0 z M 10.963155 0 C 10.915783 1.7726326 10.913147 4.8498644 10.953337 9.6288696 C 11.034437 19.274819 11.16781 24.619287 11.41429 28.120247 C 11.77052 33.180347 11.824905 34.940489 11.756905 39.222929 C 11.589145 49.787019 11.571663 52.868396 11.656653 57.113826 C 11.830373 65.798666 11.682682 67.50228 10.082072 75.24967 C 8.4478219 83.15963 8.1793153 86.652214 7.8951253 103.7053 C 7.5910553 121.95166 7.540866 124.48016 7.439856 126.66565 C 7.4142478 127.21979 7.3789125 127.84811 7.3375366 128.50017 L 7.5654297 128.50017 C 7.6066291 127.85047 7.6417054 127.22464 7.6672323 126.67237 C 7.7682823 124.48688 7.8184116 121.9579 8.1225016 103.7115 C 8.4067016 86.658405 8.6752482 83.166298 10.309448 75.256388 C 11.910138 67.508948 12.057779 65.805404 11.884029 57.120544 C 11.799129 52.875164 11.816461 49.793777 11.984281 39.229647 C 12.052281 34.947247 11.997917 33.187075 11.641667 28.126965 C 11.395187 24.626015 11.261853 19.281547 11.180713 9.6355876 C 11.1404 4.8505347 11.143484 1.7715311 11.191048 0 L 10.963155 0 z M 14.482837 0 C 14.283227 3.4194445 14.245098 6.4716194 14.292151 12.254549 C 14.357151 20.248049 14.53294 24.162223 15.04456 29.013733 C 15.22597 30.734353 15.431843 32.896341 15.502413 33.818091 C 15.664293 35.932991 15.571483 41.810032 15.326713 44.935242 C 15.211293 46.408172 15.145261 48.621584 15.141711 51.136414 C 15.136711 54.696484 15.202755 56.410859 15.604215 63.091239 C 15.945815 68.776629 15.640543 72.023301 13.983643 80.297941 C 12.561093 87.402481 12.530358 87.658716 12.547038 92.476526 C 12.587938 104.33584 13.731097 112.46615 16.213997 118.56486 C 17.34227 121.33618 18.086495 124.41078 18.582845 128.50017 L 18.809705 128.50017 C 18.313334 124.41427 17.569542 121.34188 16.44189 118.57209 C 13.95897 112.47341 12.815891 104.34259 12.774931 92.483244 C 12.758231 87.665434 12.788569 87.409179 14.211019 80.304659 C 15.867989 72.030069 16.173759 68.783854 15.832109 63.098474 C 15.430659 56.418094 15.364464 54.703232 15.369604 51.143132 C 15.372604 48.628352 15.439136 46.415426 15.554606 44.942476 C 15.799446 41.817236 15.892236 35.940226 15.730306 33.825326 C 15.659706 32.903556 15.453863 30.741618 15.272453 29.020968 C 14.760843 24.169468 14.585144 20.254797 14.520044 12.261267 C 14.47304 6.4744706 14.510777 3.4222511 14.71073 0 L 14.482837 0 z M 17.923454 0 C 17.973309 0.97568372 18.024003 1.847145 18.064014 2.3641968 C 18.242574 4.6721968 18.588896 6.8089057 19.132166 8.9555257 C 20.053836 12.597025 20.17524 14.627227 19.91248 22.030697 C 19.71773 27.518447 19.517108 31.055495 19.162138 35.270715 C 18.991038 37.302945 18.913541 39.562078 18.842261 44.600378 C 18.790561 48.256718 18.717854 51.700588 18.680514 52.253658 C 18.643414 52.806718 18.561676 55.169867 18.499646 57.505017 C 18.437546 59.840167 18.337767 63.384886 18.277437 65.382056 C 18.048417 72.962656 18.215154 86.59769 18.613334 92.8672 C 18.985154 98.720351 19.232714 101.28101 19.846334 105.60441 C 20.773914 112.1396 21.169214 116.30318 21.521684 123.25759 C 21.581051 124.42884 21.617697 126.50593 21.628137 128.50017 L 21.85603 128.50017 C 21.845543 126.50803 21.808865 124.43472 21.749577 123.26483 C 21.397137 116.31042 21.001827 112.14683 20.074227 105.61164 C 19.460617 101.28822 19.21253 98.727545 18.84071 92.874434 C 18.44245 86.604884 18.275814 72.969354 18.504814 65.388774 C 18.565214 63.391584 18.665459 59.846905 18.727539 57.511735 C 18.789639 55.176605 18.870827 52.813953 18.908407 52.260893 C 18.945707 51.707833 19.018454 48.263486 19.070154 44.607096 C 19.141454 39.568776 19.218871 37.31018 19.390031 35.27795 C 19.744981 31.06267 19.945613 27.525701 20.140373 22.037931 C 20.403093 14.634461 20.281769 12.603783 19.360059 8.9622437 C 18.816789 6.8156537 18.470497 4.6788947 18.291907 2.3709147 C 18.251811 1.8526295 18.201331 0.978458 18.151347 0 L 17.923454 0 z M 23.524146 0 C 23.4628 0.82088812 23.390251 1.7028574 23.307104 2.6267131 C 23.186174 3.9683131 23.035028 6.3063816 22.971208 7.8222616 C 22.907508 9.3381416 22.779801 11.835524 22.688021 13.371794 C 22.256271 20.599834 22.191743 21.611398 22.082373 22.813078 C 21.124573 33.335798 21.132886 33.073063 21.142896 51.080603 C 21.153296 68.729353 21.196123 70.276999 21.869983 77.113639 C 22.071233 79.155219 22.359488 81.456376 23.801648 92.532336 C 24.467618 97.647517 24.661526 100.14014 24.886336 106.49841 C 25.069034 111.66466 24.90598 121.8317 24.58713 128.50017 L 24.81554 128.50017 C 25.134179 121.83163 25.296856 111.66961 25.114229 106.50513 C 24.889419 100.14686 24.696118 97.654235 24.030058 92.539054 C 22.587938 81.463164 22.299653 79.161937 22.098393 77.120357 C 21.424453 70.283777 21.381165 68.736091 21.371305 51.087321 C 21.360905 33.079831 21.352536 33.342496 22.310266 22.819796 C 22.419666 21.618076 22.484681 20.606542 22.916431 13.378512 C 23.008231 11.842232 23.135331 9.3453763 23.199101 7.8294963 C 23.263001 6.3136163 23.414098 3.9755578 23.534998 2.6339478 C 23.618547 1.7074585 23.691574 0.82287857 23.753072 0 L 23.524146 0 z M 25.4 16.751432 C 25.237299 17.505486 25.045387 18.35369 24.814506 19.349207 C 23.946216 23.093317 23.516167 25.55693 23.234757 28.3993 C 23.046497 30.30096 23.030119 31.807258 23.030119 47.226058 C 23.030119 66.575478 23.088262 68.340317 23.979932 76.219637 C 24.377722 79.734807 24.90384 84.521948 25.20828 87.392598 C 25.270259 87.976996 25.334514 88.626558 25.4 89.330981 L 25.4 87.052051 C 25.091299 84.154192 24.590493 79.60319 24.208341 76.226355 C 23.316681 68.347065 23.259045 66.582176 23.259045 47.232776 C 23.259045 31.813936 23.275434 30.308155 23.463684 28.406535 C 23.745054 25.564155 24.175083 23.100551 25.043433 19.356441 C 25.174262 18.792334 25.292455 18.275493 25.4 17.79633 L 25.4 16.751432 z M 0 59.936393 L 0 62.769295 C 0.34440083 66.865232 0.89279697 72.853264 1.1854574 75.605204 C 1.7075274 80.514564 1.8584874 82.263389 1.9792074 84.786039 C 2.1175574 87.678739 2.0740804 94.527368 1.8541504 104.43135 C 1.6802204 112.26457 1.7681717 119.7774 2.1254517 127.61547 C 2.1391004 127.91497 2.1525951 128.21021 2.1657593 128.50017 L 2.3936523 128.50017 C 2.3805794 128.21242 2.3668861 127.91932 2.3533447 127.62218 C 1.9961047 119.78411 1.9086302 112.27131 2.0825602 104.43807 C 2.3024402 94.534116 2.3460172 87.685447 2.2076172 84.792757 C 2.0869772 82.270157 1.9354404 80.521252 1.4133504 75.611922 C 1.0403355 72.104285 0.2520451 63.339925 0 59.936393 z M 17.451131 67.54058 C 17.414487 67.541846 17.388603 67.592171 17.388603 67.669255 C 17.388603 67.767155 17.309009 69.467112 17.211869 71.446802 C 16.966149 76.453842 16.924292 92.931425 17.153992 94.31414 C 17.287272 95.11657 17.327198 95.21764 17.418058 94.9849 C 17.431658 94.9503 17.445516 94.873318 17.459916 94.763208 C 17.437616 94.649078 17.412185 94.502968 17.381885 94.320858 C 17.260755 93.591373 17.392374 87.488225 17.412374 82.256995 C 17.422774 80.972235 17.331003 79.932255 17.388603 78.677885 C 17.414703 78.111055 17.40686 77.118434 17.42736 76.328674 C 17.46046 74.475904 17.387462 72.52098 17.439762 71.45352 C 17.478162 70.67124 17.513658 69.932603 17.542598 69.319283 C 17.536598 68.266893 17.518171 67.571562 17.483171 67.549882 C 17.474171 67.543882 17.463649 67.541097 17.454749 67.541097 L 17.454749 67.54058 C 17.453545 67.540518 17.452313 67.540539 17.451131 67.54058 z M 20.071643 113.22565 C 19.961903 112.79054 20.016573 115.99544 20.140373 117.25227 C 20.217773 118.03833 20.34651 118.05705 20.38997 117.45278 C 20.38197 117.39438 20.375366 117.32968 20.368266 117.25899 C 20.301166 116.57796 20.254529 115.32486 20.243209 114.38888 C 20.188909 113.87895 20.127663 113.44763 20.071643 113.22565 z " />
  <path
     id="path3"
     style="fill:#96642c;fill-opacity:1;stroke-width:0.422285"
     d="M 0 0 L 0 24.603666 C 0.069258472 27.862881 0.16581329 31.606706 0.23667806 33.711121 C 0.32371806 36.294721 0.42455378 41.172059 0.46095378 44.549219 C 0.57469378 55.081359 0.70624845 58.157763 1.2970785 64.096863 C 1.4744085 65.878923 1.6530535 67.830726 1.6939535 68.434066 C 1.7347935 69.037396 1.7856081 69.513916 1.8066081 69.492916 C 1.8520981 69.447476 1.5804475 61.354307 1.4154175 57.840397 C 1.3519475 56.488457 1.2479406 53.873956 1.1849406 52.030416 C 1.1219006 50.186896 0.99907227 46.843338 0.91157227 44.600378 C 0.54912749 35.308996 0.35940649 25.96383 0.0098185221 0 L 0 0 z M 1.2361003 0 C 1.303968 5.3369281 1.4290357 13.976009 1.5223877 19.517155 C 1.8017577 36.097565 1.9308073 40.585089 2.4727173 52.644849 C 2.6231473 55.993939 2.8353531 60.720247 2.9445231 63.147567 C 3.1081831 66.783597 3.1424438 69.823752 3.1424438 80.409562 C 3.1421038 88.049542 3.0855175 95.160867 3.0029175 97.951127 C 2.5824075 112.14368 2.5851916 115.80408 3.0246216 125.99541 C 3.0591556 126.79647 3.0952854 127.66304 3.129008 128.50017 L 3.4540527 128.50017 C 3.4197093 126.9659 3.3714025 125.16612 3.3098755 123.14649 C 3.1750855 118.74928 3.1754555 115.03037 3.3098755 113.48196 C 3.8193155 107.61464 3.9547758 103.26989 4.1227458 87.393115 C 4.2960758 70.754505 4.2955381 65.575851 4.1175781 55.940771 C 3.9537681 47.074471 3.8327918 43.788841 3.5372518 40.187211 C 3.3480918 37.881671 3.320384 35.980293 3.266984 21.695833 C 3.2302386 11.869522 3.158705 4.5579701 3.0561442 0 L 1.2361003 0 z M 9.362736 0 C 9.2839427 2.2486593 9.2277222 5.7194808 9.1167562 13.651363 C 8.9993462 22.038153 8.8680015 27.313292 8.6687215 31.639412 C 8.5070715 35.148582 8.1282926 41.197291 7.9865926 42.533321 C 7.9170826 43.188631 7.833321 48.617219 7.784021 55.661719 C 7.692641 68.738189 7.7524352 67.357066 6.8889852 76.443396 C 6.4018152 81.570176 6.163617 84.56143 5.981547 87.8396 C 5.825597 90.67508 5.7196842 116.58234 5.8254842 126.58762 L 5.845638 128.50017 L 7.3375366 128.50017 C 7.3789138 127.84813 7.4142508 127.21978 7.439856 126.66565 C 7.540886 124.48016 7.5910453 121.95166 7.8951253 103.7053 C 8.1793253 86.652213 8.4472952 83.160147 10.081555 75.250187 C 11.682155 67.502797 11.830383 65.798666 11.656653 57.113826 C 11.571783 52.868396 11.589135 49.787019 11.756905 39.222929 C 11.824895 34.940489 11.77051 33.180357 11.41429 28.120247 C 11.1678 24.619287 11.034437 19.274809 10.953337 9.6288696 C 10.913138 4.8497509 10.915778 1.7725916 10.963155 0 L 9.362736 0 z M 13.328902 0 C 12.723465 8.5467272 12.84328 14.50559 13.75885 24.656376 C 14.76388 35.798656 14.880573 39.699804 14.481803 48.790304 C 14.391223 50.862724 14.394419 53.543934 14.495239 59.180884 C 14.688039 69.961094 14.602247 71.068802 12.967167 78.876322 C 11.361467 86.544582 11.164542 88.403109 11.353312 94.135339 C 11.614912 102.08001 11.8731 104.87517 13.30203 115.23276 C 14.298214 122.45861 14.315628 122.574 14.315922 128.50017 L 18.582845 128.50017 C 18.086485 124.41083 17.34226 121.33669 16.213997 118.56537 C 13.731097 112.46666 12.587938 104.33584 12.547038 92.476526 C 12.530348 87.658716 12.560576 87.402491 13.983126 80.297941 C 15.640116 72.023311 15.945815 68.776629 15.604215 63.091239 C 15.202755 56.410859 15.136711 54.696494 15.141711 51.136414 C 15.145281 48.621584 15.211293 46.408172 15.326713 44.935242 C 15.571473 41.810032 15.664303 35.932991 15.502413 33.818091 C 15.431853 32.896341 15.22597 30.734353 15.04456 29.013733 C 14.53295 24.162233 14.357151 20.248049 14.292151 12.254549 C 14.245098 6.4715881 14.283219 3.4194563 14.482837 0 L 13.328902 0 z M 17.330725 0 C 17.431449 4.0419501 17.685273 9.1061788 18.169434 17.003097 C 18.682354 25.369797 18.709842 37.207896 18.230412 43.315186 C 17.538202 52.132486 17.09161 59.532253 16.77417 67.449113 C 16.6805 69.784263 16.527739 73.479485 16.434139 75.661015 C 16.191209 81.323445 16.102243 90.83452 16.259473 94.355481 C 16.488303 99.480571 17.099894 104.71465 18.116724 110.25012 C 18.273834 111.10562 18.625135 113.01223 18.897555 114.48707 C 19.8845 119.83073 20.385058 124.24426 20.468518 128.50017 L 21.628137 128.50017 C 21.617699 126.50594 21.581055 124.42883 21.521684 123.25759 C 21.169224 116.30319 20.773924 112.1396 19.846334 105.60441 C 19.232714 101.28102 18.985144 98.720351 18.613334 92.8672 C 18.215154 86.59768 18.048407 72.962656 18.277437 65.382056 C 18.337757 63.384886 18.437546 59.840167 18.499646 57.505017 C 18.561676 55.169867 18.643314 52.806718 18.680514 52.253658 C 18.717854 51.700598 18.790561 48.256718 18.842261 44.600378 C 18.913541 39.562078 18.991028 37.302945 19.162138 35.270715 C 19.517098 31.055505 19.71773 27.518437 19.91248 22.030697 C 20.17524 14.627227 20.053826 12.597025 19.132166 8.9555257 C 18.588896 6.8089157 18.242574 4.6721968 18.064014 2.3641968 C 18.024003 1.8471419 17.973313 0.97568081 17.923454 0 L 17.330725 0 z M 19.362126 0 C 19.528163 0.93011505 19.73206 1.8864334 19.970357 2.8473714 C 21.053907 7.2165514 21.19027 8.3480677 21.18527 13.091707 C 21.18339 16.593537 21.063496 19.652094 20.634916 27.114624 C 20.423526 30.795304 20.34109 32.527584 20.07061 38.985734 C 20.00945 40.445224 19.931693 42.066802 19.897493 42.589132 C 19.631953 46.651432 19.482155 54.424853 19.430855 66.834163 C 19.339525 88.935313 19.695307 95.592856 21.858097 112.25258 C 22.118517 114.25893 22.35807 116.63676 22.54436 119.06818 C 22.654075 120.50094 22.705397 124.93314 22.680786 128.50017 L 24.58713 128.50017 C 24.905983 121.83171 25.069033 111.66465 24.886336 106.49841 C 24.661516 100.14013 24.467618 97.647517 23.801648 92.532336 C 22.359488 81.456376 22.071233 79.155219 21.869983 77.113639 C 21.196133 70.276989 21.153296 68.729353 21.142896 51.080603 C 21.132876 33.073073 21.124573 33.335798 22.082373 22.813078 C 22.191733 21.611398 22.256261 20.599834 22.688021 13.371794 C 22.779801 11.835524 22.907508 9.3381416 22.971208 7.8222616 C 23.035028 6.3063816 23.186174 3.9688298 23.307104 2.6272298 C 23.390247 1.7033263 23.462804 0.82092577 23.524146 0 L 19.362126 0 z M 25.055835 0 L 25.055318 0.048059082 C 25.012628 3.2589221 24.927166 6.6400623 24.865666 7.5618123 C 24.697476 10.080762 24.224883 14.896179 23.917403 17.226339 C 23.092853 23.474189 22.830459 26.064104 22.642029 29.796114 C 22.186869 38.821294 22.186589 62.129421 22.642029 69.236601 C 22.972929 74.399621 23.495275 79.554136 24.420215 86.778166 C 24.705785 89.008635 25.108517 92.801598 25.4 95.923344 L 25.4 89.330981 C 25.334518 88.626659 25.27025 87.976929 25.20828 87.392598 C 24.90384 84.521948 24.377722 79.734807 23.979932 76.219637 C 23.088262 68.340327 23.030119 66.575478 23.030119 47.226058 C 23.030119 31.807258 23.046497 30.30095 23.234757 28.3993 C 23.516167 25.55693 23.946216 23.093317 24.814506 19.349207 C 25.045368 18.353762 25.237307 17.505963 25.4 16.751949 L 25.4 0 L 25.055835 0 z M 0 62.769295 L 0 128.50017 L 2.1657593 128.50017 C 2.1525972 128.21023 2.1390991 127.91495 2.1254517 127.61547 C 1.7681217 119.7774 1.6802204 112.26456 1.8541504 104.43135 C 2.0741104 94.527368 2.1175574 87.678739 1.9792074 84.786039 C 1.8584874 82.263389 1.7075374 80.514564 1.1854574 75.605204 C 0.89280732 72.853299 0.34440098 66.865236 0 62.769295 z M 17.454749 67.54058 C 17.463619 67.54084 17.473421 67.543863 17.483171 67.549882 C 17.602391 67.623542 17.535633 75.477895 17.388603 78.677885 C 17.226153 82.212825 17.252842 86.202175 17.455782 88.765125 C 17.569462 90.209185 17.614806 91.68866 17.579806 92.8672 C 17.549706 93.88114 17.476858 94.83428 17.418058 94.9849 C 17.327208 95.21763 17.287272 95.117087 17.153992 94.314657 C 16.924352 92.931936 16.966139 76.453832 17.211869 71.446802 C 17.309029 69.467112 17.388603 67.767671 17.388603 67.669771 C 17.388603 67.590219 17.416311 67.539453 17.454749 67.54058 z M 20.071643 113.22565 C 20.220463 113.81587 20.404896 115.88864 20.404956 116.97322 C 20.405096 118.02904 20.234473 118.20882 20.140373 117.25227 C 20.016573 115.99543 19.961893 112.79054 20.071643 113.22565 z " />
  <path
     id="path653"
     style="fill:#554400;fill-opacity:1;stroke-width:0.417071"
     d="M 0.73173828 0 C 0.73203025 0.31974592 0.73246173 0.65176419 0.73328857 0.99528809 L 0.73225505 0.99528809 C 0.74495505 6.3259761 0.7642888 7.1934498 0.8226888 5.0436198 C 0.86527092 3.4956283 0.8929766 1.6891046 0.90537109 0 L 0.73173828 0 z M 4.5712972 0 C 4.5368995 1.2659992 4.5009341 2.7433165 4.475179 3.9827026 C 4.431839 6.0712026 4.3786232 8.2070029 4.3563232 8.7291829 C 4.3063232 9.8959129 4.2868456 15.542704 4.2984456 25.528674 C 4.3030456 29.700554 4.325355 33.092832 4.348055 33.067232 C 4.370625 33.041632 4.419709 30.181144 4.457609 26.710514 C 4.495539 23.239924 4.5503654 19.194079 4.5795654 17.719849 C 4.6086654 16.245609 4.6522836 10.641662 4.6756836 5.266862 C 4.6850083 3.1282407 4.6880188 1.3245019 4.6855021 0 L 4.5712972 0 z M 6.7256877 0 C 6.6694939 5.6209699 6.6354089 14.589175 6.6724609 18.76888 C 6.6933609 21.12725 6.7338612 23.033081 6.7618612 23.004281 C 6.7900612 22.975461 6.8315452 16.472316 6.8538452 8.5529663 C 6.8631912 5.2634435 6.8653668 2.300598 6.8615967 0 L 6.7256877 0 z M 8.3379924 0 C 8.3143588 2.8103861 8.3289218 6.3233108 8.387085 9.4273315 L 8.3876017 9.4273315 C 8.4391917 12.176181 8.4991269 14.424959 8.5209269 14.424959 C 8.5440269 14.424959 8.5531813 9.8641206 8.5441813 4.2896606 C 8.5415605 2.7030504 8.5359561 1.251199 8.5286784 0 L 8.3379924 0 z M 11.316622 0 C 11.302323 0.31664504 11.284203 1.1632344 11.260811 2.4194906 C 11.173711 7.1011706 11.153753 18.514691 11.218953 26.375651 C 11.231953 27.942031 11.261366 31.635982 11.284066 34.584452 L 11.32489 39.945365 L 11.402922 33.579346 C 11.447922 30.078026 11.463712 26.962341 11.442712 26.655221 C 11.421812 26.348081 11.394834 19.588128 11.381734 11.633398 C 11.369876 4.188471 11.360415 0.70932447 11.337809 0 L 11.316622 0 z M 14.923637 0 C 14.840624 4.0340485 14.776204 9.2564467 14.791345 12.414746 L 14.810982 16.4915 L 14.890564 11.744503 C 14.934514 9.1338831 15.001259 6.2440625 15.038359 5.3226725 C 15.092475 3.979745 15.134956 1.9531021 15.159798 0 L 14.923637 0 z M 19.750732 0 C 19.74696 1.5673437 19.751701 4.2272483 19.763652 6.6538574 L 19.763135 6.6538574 C 19.778235 9.7200574 19.814684 12.2035 19.844784 12.1729 C 19.874664 12.14224 19.931391 8.0880212 19.971391 3.1636312 C 19.981032 1.9710858 19.988784 0.920984 19.994128 0 L 19.750732 0 z M 24.30446 0 C 24.252656 4.007145 24.241558 9.9631847 24.276038 17.440796 L 24.301359 22.969141 L 24.37474 19.50682 C 24.451075 15.89997 24.533159 6.2791789 24.559224 0 L 24.30446 0 z M 12.989905 0.073897298 L 12.916524 3.7036499 C 12.876424 5.6999899 12.842278 8.8156854 12.847278 10.627775 L 12.846761 10.627775 C 12.850861 13.711745 12.855876 13.797732 12.927376 11.968262 C 12.969676 10.893312 13.001623 7.7771198 12.996623 5.0436198 L 12.989905 0.073897298 z M 21.462773 1.0614339 C 21.44839 1.0650697 21.438336 1.106108 21.434867 1.1813232 L 21.435384 1.1813232 C 21.430584 1.2992252 21.456445 1.3647275 21.492745 1.3275675 C 21.528345 1.2904265 21.532313 1.1942571 21.501013 1.1136271 C 21.48629 1.0760448 21.473268 1.0587808 21.462773 1.0614339 z M 21.436418 1.5812988 C 21.338248 1.7585118 21.202656 16.694019 21.286556 18.091919 L 21.287073 18.091919 C 21.312174 18.510576 21.350966 18.840415 21.376473 18.863965 L 21.37699 18.864482 L 21.377507 18.864482 L 21.378023 18.864998 L 21.37854 18.864998 L 21.379057 18.864998 L 21.379574 18.864998 L 21.38009 18.864998 L 21.380607 18.864998 L 21.380607 18.864482 L 21.381124 18.864482 L 21.381641 18.863965 C 21.406941 18.838125 21.450692 14.900945 21.478792 10.115145 C 21.506892 5.2993052 21.487718 1.4885888 21.436418 1.5812988 z M 2.9372884 5.4296427 C 2.9201783 5.4335565 2.9083496 5.4966558 2.9083496 5.602242 C 2.9083496 5.755772 2.9330266 5.8185684 2.9631266 5.7417684 C 2.9932266 5.6649984 2.9932266 5.5389989 2.9631266 5.4621989 C 2.9536891 5.4382114 2.9450658 5.4278638 2.9372884 5.4296427 z M 2.9104167 6.1603475 C 2.6479067 6.5934575 2.5524674 13.16307 2.6675374 22.91333 C 2.689804 24.798559 2.7072835 25.623103 2.7347168 25.670785 L 2.7352336 25.671301 L 2.7352336 25.671818 L 2.7357503 25.672335 L 2.7362671 25.672852 L 2.7367839 25.672852 L 2.7373006 25.672852 L 2.7378174 25.672335 L 2.7383341 25.672335 C 2.7517698 25.656001 2.768556 25.470426 2.7884603 25.146785 C 2.9166403 23.074495 3.0258367 5.9699675 2.9104167 6.1603475 z M 2.2840983 6.4347493 C 2.2663499 6.4360182 2.254126 6.4993557 2.254126 6.6073486 C 2.254126 6.7608186 2.2793198 6.823675 2.3094198 6.746875 C 2.3395198 6.670085 2.3395198 6.5446223 2.3094198 6.4678223 C 2.3004541 6.4450312 2.2915921 6.4342136 2.2840983 6.4347493 z M 16.237252 10.683586 L 16.205729 15.039392 C 16.188329 17.435012 16.157733 19.545792 16.138033 19.730062 C 16.068733 20.376772 16.082719 61.177849 16.153019 62.311959 L 16.153536 62.311959 C 16.192536 62.942689 16.236088 63.445187 16.250688 63.428687 C 16.311388 63.359717 16.35678 17.100785 16.29978 14.034285 L 16.237252 10.683586 z M 2.1569743 11.65717 C 2.127388 11.835756 2.0679606 13.784154 1.9699056 17.552934 C 1.9259456 19.242144 1.8716827 20.824849 1.8489827 21.070549 C 1.8057627 21.539149 1.5807029 39.120405 1.6030029 40.280745 C 1.6373629 42.060255 1.6779009 40.796668 2.0153809 27.380758 C 2.0716909 25.138698 2.138609 20.188339 2.164209 16.379879 C 2.186339 13.069464 2.1865605 11.478583 2.1569743 11.65717 z M 14.729333 18.395776 L 14.729333 18.396293 L 14.728817 18.396293 L 14.728817 18.39681 C 14.717741 18.423922 14.709764 18.866924 14.709696 19.618441 C 14.709696 20.39583 14.718129 20.857815 14.72985 20.877795 L 14.730367 20.878312 L 14.730884 20.878312 C 14.735426 20.870926 14.740637 20.799084 14.74587 20.657137 C 14.76557 20.122777 14.76557 19.218234 14.74587 18.646924 C 14.740483 18.490712 14.735522 18.409684 14.730884 18.397327 L 14.730367 18.39681 L 14.730367 18.396293 L 14.72985 18.395776 L 14.729333 18.395776 z M 13.136149 23.416142 C 13.025529 23.967732 12.93016 37.986669 13.01936 40.671419 L 13.084473 42.625822 L 13.1408 39.666313 C 13.2355 34.695393 13.232349 22.938502 13.136149 23.416142 z M 14.637349 24.512199 C 14.619849 23.294949 14.60536 24.259044 14.60531 26.654704 C 14.60531 29.050324 14.619449 30.046395 14.637349 28.868005 C 14.655279 27.689605 14.655249 25.729429 14.637349 24.512199 z M 6.1655151 26.933757 C 6.1200651 24.267517 6.0896049 25.638342 6.0234049 33.242932 C 5.9659049 39.850902 5.9743767 42.970959 6.0502767 42.996859 C 6.1117667 43.017849 6.1603475 43.194046 6.1603475 43.388566 C 6.1591875 43.646776 6.1320617 43.698526 6.0590617 43.580286 C 6.0414242 43.551662 6.0266794 43.538633 6.0156535 43.541012 C 5.9860269 43.550011 5.9806142 43.675384 6.0006673 43.915666 C 6.0236673 44.189016 6.0555976 47.402985 6.0724976 51.057865 L 6.1029867 57.702938 L 6.1608643 53.068079 C 6.2364643 46.990489 6.2392151 31.255787 6.1655151 26.933757 z M 18.430916 28.207064 C 18.41139 27.74415 18.394704 28.467929 18.365804 30.005404 C 18.32157 32.408533 18.321226 55.918351 18.365804 56.474072 C 18.505957 57.100667 18.612255 41.071449 18.514632 33.530253 C 18.473127 30.319553 18.450443 28.669978 18.430916 28.207064 z M 18.365804 56.474072 C 18.364832 56.469726 18.365746 56.639211 18.364771 56.633236 L 18.365804 56.633236 C 18.365533 56.631575 18.366072 56.477414 18.365804 56.474072 z M 22.689054 28.578617 L 22.689054 28.579134 L 22.688538 28.579651 C 22.677625 28.613347 22.669934 29.15326 22.669934 30.061214 C 22.669934 30.979493 22.677429 31.520332 22.688538 31.542778 L 22.689054 31.543294 L 22.689571 31.543294 L 22.690088 31.543294 C 22.694576 31.533679 22.699824 31.442217 22.705074 31.261658 C 22.724474 30.601318 22.724474 29.520594 22.705074 28.860254 C 22.699769 28.679695 22.694583 28.589267 22.690088 28.579651 L 22.690088 28.579134 L 22.689571 28.579134 L 22.689571 28.578617 L 22.689054 28.578617 z M 24.977804 32.875513 L 24.977804 32.876029 L 24.977287 32.876546 C 24.965976 32.903973 24.958167 33.343116 24.958167 34.082157 C 24.958167 34.821165 24.965967 35.259823 24.977287 35.287252 L 24.977287 35.287769 L 24.977287 35.288285 L 24.977804 35.288285 L 24.977804 35.288802 L 24.97832 35.288802 L 24.978837 35.288285 L 24.978837 35.287769 C 24.983399 35.276492 24.988974 35.202132 24.99434 35.059359 C 25.01404 34.521889 25.01404 33.642446 24.99434 33.104956 C 24.988899 32.957992 24.984008 32.883856 24.979354 32.876029 L 24.978837 32.876029 L 24.978837 32.875513 L 24.97832 32.875513 L 24.977804 32.875513 z M 21.290173 36.287708 C 21.271773 35.473828 21.256584 36.139931 21.256584 37.767721 C 21.256584 39.395541 21.271773 40.061624 21.290173 39.247734 C 21.308573 38.433804 21.308573 37.101618 21.290173 36.287708 z M 24.871867 37.273694 L 24.871867 37.274211 L 24.87135 37.274211 L 24.87135 37.274727 C 24.860192 37.303725 24.85223 37.768324 24.85223 38.549585 C 24.85223 39.330853 24.859676 39.794414 24.870833 39.823409 L 24.87135 39.823926 L 24.87135 39.824443 L 24.87135 39.824959 L 24.871867 39.824959 L 24.872384 39.824959 L 24.8729 39.824443 C 24.877493 39.816168 24.8825 39.737964 24.887887 39.582597 C 24.907587 39.014397 24.907587 38.084803 24.887887 37.516573 C 24.882654 37.36565 24.877908 37.287164 24.873417 37.275244 L 24.8729 37.274727 L 24.8729 37.274211 L 24.872384 37.274211 L 24.872384 37.273694 L 24.871867 37.273694 z M 0.89503581 39.721606 L 0.75189209 41.955579 C 0.56280209 44.911749 0.43918518 53.969598 0.55655518 56.362968 C 0.58934135 57.031436 0.61115699 57.438775 0.62890218 57.464193 L 0.62941895 57.464709 L 0.62993571 57.465226 L 0.63045247 57.465743 C 0.63082321 57.465587 0.63215199 57.4647 0.63251953 57.464193 C 0.6608836 57.411156 0.6801748 56.294137 0.72243652 53.57089 C 0.76248652 50.99095 0.81782643 46.819135 0.84542643 44.300655 L 0.89503581 39.721606 z M 11.336259 40.201164 L 11.335742 40.201681 L 11.335225 40.201681 C 11.321685 40.209471 11.311479 40.277185 11.308354 40.392367 L 11.30732 40.392367 C 11.305739 40.524803 11.31718 40.607887 11.334709 40.616125 L 11.335225 40.616125 L 11.335742 40.616642 L 11.336259 40.616642 C 11.336455 40.61666 11.337612 40.616642 11.337809 40.616642 L 11.338326 40.616642 L 11.338843 40.616642 C 11.34449 40.615124 11.351466 40.606308 11.357963 40.589771 C 11.388963 40.514141 11.390214 40.363557 11.362614 40.254907 C 11.35445 40.222643 11.346745 40.205141 11.339876 40.201681 L 11.33936 40.201681 L 11.338843 40.201164 L 11.338326 40.201164 L 11.337809 40.201164 L 11.337292 40.201164 L 11.336776 40.201164 L 11.336259 40.201164 z M 6.1004028 40.833683 C 6.1079067 40.833143 6.1167883 40.843956 6.1257243 40.866756 C 6.1558243 40.943556 6.1558243 41.069109 6.1257243 41.145809 C 6.0955243 41.222599 6.0704305 41.159873 6.0704305 41.006283 C 6.0704305 40.898353 6.0826305 40.834963 6.1004028 40.833683 z M 24.74526 41.955579 C 24.63064 43.744329 24.470113 52.531393 24.410913 60.271773 C 24.373313 65.185913 24.331996 69.407383 24.317896 69.653113 C 24.303996 69.898813 24.268014 73.718784 24.238314 78.141484 L 24.237797 78.141484 C 24.207697 82.564214 24.19926 85.428893 24.21816 84.507503 C 24.23696 83.586103 24.331366 77.655403 24.427966 71.328463 C 24.524596 65.001503 24.625325 59.548686 24.651725 59.210856 C 24.678225 58.872976 24.717792 54.726798 24.740092 49.996948 C 24.762992 45.267098 24.76496 41.648439 24.74526 41.955579 z M 13.069486 42.832011 C 13.05444 42.833676 13.04411 42.874653 13.040548 42.9519 L 13.040031 42.9519 C 13.035431 43.06961 13.061609 43.135245 13.097909 43.098145 C 13.134509 43.061025 13.137994 42.964804 13.106694 42.884204 C 13.092475 42.847983 13.079781 42.830872 13.069486 42.832011 z M 7.9049438 44.244845 C 7.8589438 46.302635 7.8189933 48.916359 7.8139933 50.052759 C 7.8099933 51.189149 7.8029401 52.194114 7.7969401 52.286214 C 7.7264401 53.549804 7.7215222 55.950605 7.7902222 55.692725 C 7.8017847 55.649266 7.8120839 55.626198 7.821228 55.623995 L 7.8217448 55.623995 L 7.8222616 55.623995 L 7.8227783 55.623995 L 7.8232951 55.623995 L 7.8238118 55.623995 L 7.8243286 55.624512 L 7.8248454 55.624512 C 7.8595185 55.641884 7.8757381 55.98241 7.8718709 56.642021 L 7.8646362 57.92618 L 7.7964233 56.976884 C 7.7705046 56.61745 7.7538967 56.411179 7.7421631 56.390356 L 7.7421631 56.38984 L 7.7416463 56.389323 L 7.7416463 56.388806 L 7.7411296 56.388806 L 7.7406128 56.388289 L 7.740096 56.388806 L 7.7395793 56.388806 L 7.7390625 56.389323 L 7.7390625 56.38984 C 7.7246342 56.420083 7.7172552 56.794405 7.7059896 57.591317 C 7.6937896 58.451307 7.6642773 63.351455 7.6408773 68.480575 L 7.6403605 68.480575 C 7.6082605 75.463975 7.6202028 76.810458 7.6879028 73.841488 C 7.8768828 65.546588 7.9031515 63.304092 7.9452515 52.062972 C 7.9721515 44.855112 7.9571438 41.911855 7.9049438 44.244845 z M 22.588802 50.555054 L 22.513354 55.469482 C 22.386684 63.745742 22.35095 71.811113 22.39915 81.100993 L 22.445142 89.980037 L 22.524207 84.339555 C 22.632997 76.583565 22.672943 66.221798 22.627043 57.702938 L 22.588802 50.555054 z M 13.657048 51.281108 C 13.625958 51.311838 13.565489 53.54805 13.522689 56.25083 C 13.479779 58.9536 13.429451 61.441842 13.410551 61.779692 C 13.391651 62.117552 13.349117 65.358679 13.317017 68.982869 C 13.283517 72.747159 13.29834 75.380877 13.35164 75.125647 C 13.40306 74.879937 13.472236 71.914855 13.505636 68.536385 C 13.538846 65.157915 13.599194 59.880772 13.639994 56.809452 C 13.680894 53.738102 13.688348 51.250408 13.657048 51.281108 z M 2.4003703 58.317371 C 2.2923603 58.707631 2.1171093 67.049406 2.0779093 73.674056 C 2.0368193 80.601766 2.0708174 80.535055 2.2794474 73.282865 C 2.3630374 70.380055 2.4622703 58.093681 2.4003703 58.317371 z M 10.410734 65.644055 C 10.312034 65.394515 10.311734 82.139786 10.410734 88.137256 L 10.468612 91.654871 L 10.526489 86.182336 C 10.602939 79.000656 10.529384 65.942775 10.410734 65.644055 z M 16.664099 67.067224 C 16.649697 67.070862 16.640179 67.111888 16.636711 67.187113 L 16.637227 67.186597 C 16.632427 67.304267 16.658288 67.370458 16.694588 67.333358 C 16.730188 67.296258 16.73364 67.200017 16.70234 67.119417 C 16.687574 67.081837 16.674609 67.064569 16.664099 67.067224 z M 16.625342 69.37406 C 16.581442 70.44902 16.539324 72.731799 16.532324 74.446619 C 16.524924 76.161459 16.537396 77.543349 16.559196 77.517749 C 16.581396 77.492149 16.623014 75.20939 16.652214 72.44519 C 16.682814 69.54902 16.671342 68.24775 16.625342 69.37406 z M 20.176029 71.044242 L 20.175513 71.044759 L 20.174996 71.044759 L 20.174996 71.045276 L 20.174479 71.045793 C 20.16252 71.063339 20.143128 71.221347 20.112984 71.495894 C 20.069184 71.895164 20.033323 72.573843 20.033403 73.003813 C 20.033466 73.369597 20.042412 73.550434 20.064408 73.57122 C 20.06496 73.571636 20.066425 73.572549 20.066992 73.57277 L 20.067509 73.573287 L 20.068026 73.573287 L 20.068542 73.573287 L 20.069059 73.573287 L 20.069576 73.573287 C 20.081593 73.569973 20.097837 73.527716 20.117118 73.450297 C 20.162818 73.266027 20.1967 72.587876 20.1967 71.942896 C 20.194786 71.345878 20.192143 71.066206 20.178097 71.045793 L 20.17758 71.045276 L 20.17758 71.044759 L 20.177063 71.044759 L 20.176546 71.044242 L 20.176029 71.044242 z M 12.086084 72.874622 C 12.071066 72.876306 12.060708 72.917258 12.057145 72.994511 L 12.057662 72.994511 C 12.052962 73.112201 12.078723 73.178372 12.115023 73.141272 C 12.150623 73.104172 12.154591 73.007415 12.123291 72.926815 C 12.109072 72.89063 12.096359 72.873469 12.086084 72.874622 z M 20.115051 74.176351 C 20.048461 74.068921 20.003561 76.189976 19.988961 80.095886 C 19.964161 86.831076 20.012274 102.45731 20.060274 103.15856 C 20.077174 103.40424 20.104903 105.84179 20.122803 108.57528 L 20.154842 113.54552 L 20.247343 105.78321 C 20.298243 101.51406 20.314416 95.055799 20.283516 91.431628 C 20.252816 87.807478 20.228055 82.480195 20.223055 79.593075 C 20.220515 76.468885 20.176951 74.275951 20.115051 74.176351 z M 12.107271 74.587695 C 12.096346 74.256717 12.077209 74.858694 12.043709 76.186564 C 12.002609 77.814384 11.971013 81.961089 11.976013 85.400989 C 11.982613 91.385869 11.986295 91.488986 12.055595 87.801876 C 12.095395 85.682666 12.128291 81.536438 12.123291 78.587968 C 12.121191 76.182793 12.118196 74.918674 12.107271 74.587695 z M 13.294279 75.791239 C 13.277136 75.795159 13.26534 75.857729 13.26534 75.963322 C 13.26534 76.116822 13.290017 76.179648 13.320117 76.102848 C 13.350217 76.026058 13.350217 75.900596 13.320117 75.823796 C 13.310648 75.799799 13.302071 75.789458 13.294279 75.791239 z M 4.499467 79.537264 C 4.468947 79.567994 4.4090585 82.332282 4.3666585 85.680042 C 4.3236585 89.027782 4.3192232 91.736296 4.3563232 91.698796 C 4.3931932 91.661246 4.4528317 88.896978 4.4891317 85.556018 C 4.5255317 82.215078 4.529967 79.506564 4.499467 79.537264 z M 1.4154175 81.268424 C 1.2609475 81.768694 1.1082526 119.0983 1.2309326 126.36128 C 1.2460898 127.25651 1.272883 128.0473 1.3006958 128.50017 L 1.3601237 128.50017 C 1.3950778 126.43651 1.4265576 116.6713 1.4345378 105.02925 C 1.4432378 91.899353 1.4343175 81.207024 1.4154175 81.268424 z M 16.303914 85.345178 C 16.260054 87.034408 16.196754 92.687988 16.163354 97.909269 C 16.126954 103.58485 16.136742 105.99833 16.187642 103.91045 C 16.234482 101.98966 16.297702 96.335557 16.328202 91.345846 C 16.358702 86.356116 16.347714 83.655928 16.303914 85.345178 z M 25.4 85.625781 C 25.361403 87.268754 25.309506 93.640818 25.340055 93.860937 C 25.346028 93.903959 25.372055 93.93956 25.4 93.944137 L 25.4 85.625781 z M 18.072799 86.238147 C 18.003899 86.167977 18.135774 99.709149 18.207674 100.08226 C 18.236674 100.23299 18.270855 106.36446 18.284155 113.70779 C 18.294255 119.36917 18.319217 125.20776 18.345133 128.50017 L 18.520317 128.50017 C 18.583114 122.90842 18.585656 115.61169 18.511532 115.61155 C 18.465592 115.61144 18.420279 112.83459 18.411279 109.44087 C 18.402179 106.04713 18.365647 101.41092 18.330147 99.138135 C 18.294637 96.865345 18.234722 93.045414 18.196822 90.649764 C 18.158892 88.254124 18.102899 86.268947 18.072799 86.238147 z M 13.307715 90.31335 C 13.296715 90.099797 13.277619 90.519588 13.243119 91.431628 C 13.201219 92.537298 13.168873 95.151013 13.173873 97.239543 C 13.179873 100.76853 13.185488 100.87861 13.254488 98.802755 C 13.295088 97.574225 13.328735 94.961008 13.323735 92.995357 C 13.321635 91.373962 13.318715 90.526904 13.307715 90.31335 z M 6.2730021 91.264197 C 6.1778821 91.264197 6.1852249 90.387293 6.1288249 109.18972 L 6.1283081 109.18972 C 6.0940081 120.64656 6.1077654 124.90452 6.1670654 121.47476 C 6.2792154 115.04358 6.3618021 91.264197 6.2730021 91.264197 z M 11.989449 92.246049 L 11.988932 92.246566 C 11.975392 92.254359 11.965186 92.321566 11.962061 92.436735 L 11.961027 92.436735 C 11.959446 92.569186 11.970887 92.652771 11.988416 92.661011 L 11.988932 92.661011 L 11.989449 92.661011 L 11.989966 92.661528 L 11.990483 92.661528 C 11.99068 92.661528 11.991834 92.661545 11.992033 92.661528 L 11.99255 92.661528 C 11.998197 92.66001 12.004656 92.651193 12.011153 92.634656 C 12.042153 92.559046 12.043921 92.407926 12.016321 92.299276 C 12.008157 92.267017 12.000452 92.250024 11.993583 92.246566 L 11.993066 92.246049 L 11.99255 92.246049 L 11.992033 92.246049 L 11.991516 92.246049 L 11.990999 92.246049 L 11.990483 92.246049 L 11.989966 92.246049 L 11.989449 92.246049 z M 25.378813 94.109501 L 25.378296 94.110018 L 25.377779 94.110018 C 25.377489 94.110154 25.376521 94.110338 25.376229 94.110535 C 25.375934 94.110791 25.374975 94.111768 25.374679 94.112085 C 25.314069 94.176806 25.235627 96.196056 25.188127 98.914376 C 25.143027 101.49427 25.099492 103.96508 25.091492 104.405 C 25.083292 104.84493 25.118857 105.17822 25.170557 105.14552 C 25.222157 105.11279 25.210102 105.18931 25.144202 105.31554 C 25.060252 105.47657 25.029499 107.65469 25.042399 112.61638 L 25.042916 112.61638 C 25.055516 117.49625 25.084984 119.04761 25.137484 117.62176 C 25.179364 116.48538 25.244811 112.56503 25.283211 108.91015 C 25.316078 105.77534 25.364941 101.76164 25.4 99.248722 L 25.4 94.173063 C 25.394458 94.135144 25.388121 94.114445 25.381396 94.110535 L 25.381396 94.110018 L 25.38088 94.110018 L 25.380363 94.110018 L 25.379846 94.109501 L 25.379329 94.109501 L 25.378813 94.109501 z M 7.8977091 98.244649 C 7.8495891 99.657449 7.7787793 105.18557 7.7395793 110.52969 C 7.7005793 115.87382 7.6935763 120.2214 7.7240763 120.1906 C 7.8347563 120.07925 7.8997509 115.80981 7.9421509 105.83902 C 7.9690509 99.550844 7.9518091 96.655329 7.8977091 98.244649 z M 11.943457 103.99624 C 11.898177 107.03684 11.835981 114.29924 11.805481 120.13479 L 11.804964 120.13479 C 11.782651 124.38993 11.784041 127.55971 11.804447 128.50017 L 11.83752 128.50017 C 11.884084 127.12082 11.944506 119.97546 11.972913 112.42828 C 12.005513 103.84367 11.993957 100.59672 11.943457 103.99624 z M 22.361943 111.28726 L 22.361426 111.28778 C 22.349364 111.30738 22.340755 111.62134 22.340755 112.14923 C 22.340755 112.6771 22.348844 112.99057 22.360909 113.01016 L 22.360909 113.01067 L 22.361426 113.01067 L 22.361943 113.01119 L 22.362459 113.01119 L 22.362976 113.01067 L 22.363493 113.01016 C 22.368351 113.0021 22.373828 112.94936 22.379513 112.84738 C 22.400913 112.46348 22.400913 111.835 22.379513 111.45108 C 22.373855 111.3491 22.368347 111.29635 22.363493 111.2883 L 22.362976 111.28778 L 22.362459 111.28726 L 22.361943 111.28726 z M 22.335071 113.97496 C 22.32066 113.97857 22.310634 114.01911 22.307166 114.09433 L 22.307682 114.09433 C 22.302982 114.212 22.328743 114.27819 22.365043 114.24109 C 22.400643 114.20398 22.404711 114.10785 22.373311 114.02715 C 22.358588 113.98953 22.345587 113.97231 22.335071 113.97496 z M 3.1615641 114.00544 L 3.1610474 114.00596 L 3.1605306 114.00648 L 3.1600138 114.00699 C 3.1374116 114.05068 3.1291546 114.79043 3.1140218 116.50503 C 3.0990218 118.19427 3.070143 119.77745 3.049943 120.02316 C 3.0172767 120.4209 2.9818259 124.8473 2.9693278 128.50017 L 3.284554 128.50017 C 3.3339448 123.32058 3.3309701 116.25919 3.238562 114.88549 C 3.2024154 114.34695 3.1797207 114.02653 3.1636312 114.00648 L 3.1631144 114.00596 L 3.1625977 114.00596 L 3.1620809 114.00544 L 3.1615641 114.00544 z M 22.336104 114.64468 C 22.32105 114.64635 22.310728 114.68732 22.307166 114.76457 L 22.307682 114.76457 C 22.302982 114.88224 22.328743 114.94843 22.365043 114.91133 C 22.400643 114.87424 22.404711 114.77757 22.373311 114.69687 C 22.359133 114.66065 22.346405 114.64354 22.336104 114.64468 z M 22.335071 115.2033 C 22.32066 115.20693 22.310634 115.24798 22.307166 115.32319 L 22.307682 115.32319 C 22.302982 115.44088 22.328743 115.50654 22.365043 115.46944 C 22.400643 115.43231 22.404711 115.3362 22.373311 115.2555 C 22.358588 115.21788 22.345587 115.20066 22.335071 115.2033 z M 23.730851 116.61665 C 23.613731 115.38837 23.497211 121.65903 23.516911 128.11983 L 23.516394 128.11983 C 23.516792 128.24856 23.517472 128.37552 23.517944 128.50017 L 23.713798 128.50017 C 23.767516 123.8163 23.7914 117.2513 23.730851 116.61665 z M 13.793473 116.67247 C 13.747703 117.6553 13.686248 122.00279 13.657048 126.33337 C 13.651695 127.13203 13.647515 127.85578 13.644645 128.50017 L 13.752649 128.50017 C 13.781689 126.6057 13.808684 124.21799 13.824996 121.97757 C 13.853396 118.04791 13.839573 115.68232 13.793473 116.67247 z M 25.070304 119.79476 C 25.053162 119.79867 25.041882 119.86177 25.041882 119.96735 C 25.041882 120.12086 25.066559 120.18368 25.096659 120.10688 C 25.126659 120.03009 25.126659 119.90401 25.096659 119.82731 C 25.087191 119.80332 25.078096 119.79297 25.070304 119.79476 z M 10.130648 122.38736 C 10.11697 122.64814 10.112343 123.7865 10.104293 126.0538 C 10.101419 126.85809 10.102685 127.69784 10.106877 128.50017 L 10.279993 128.50017 C 10.274501 126.78329 10.249034 124.99323 10.212297 123.98778 C 10.166937 122.74354 10.144325 122.12658 10.130648 122.38736 z M 21.383708 123.1036 C 21.297235 123.19813 21.22631 126.49128 21.249866 128.50017 L 21.424015 128.50017 C 21.425442 128.07756 21.426599 127.62362 21.426599 127.15193 C 21.426599 124.89962 21.407208 123.078 21.383708 123.1036 z M 19.844267 128.28571 L 19.844267 128.28623 C 19.839722 128.29687 19.834646 128.37225 19.830314 128.50017 L 19.869588 128.50017 C 19.862416 128.38571 19.85451 128.31168 19.846334 128.28778 C 19.846165 128.28728 19.845985 128.28706 19.845817 128.28674 L 19.845817 128.28623 L 19.8453 128.28571 L 19.844784 128.28571 L 19.844267 128.28571 z " />
</svg>
