<?xml version="1.0" encoding="UTF-8"?>
<!-- Created with Inkscape (http://www.inkscape.org/) -->
<svg id="svg5" width="30mm" height="37.997627mm" version="1.1" viewBox="0 0 30 37.997627" xmlns="http://www.w3.org/2000/svg" xmlns:xlink="http://www.w3.org/1999/xlink">
 <defs id="defs2">
  <linearGradient id="linearGradient6175" x1="106.5518" x2="107.49603" y1="246.50208" y2="202.31587" gradientTransform="matrix(.59099747 0 0 .59150839 35.169323 74.218852)" gradientUnits="userSpaceOnUse">
   <stop id="stop6169" stop-color="#b3b3b3" offset="0"/>
   <stop id="stop6171" stop-color="#808080" stop-opacity="0" offset="1"/>
  </linearGradient>
 </defs>
 <g id="layer1" transform="translate(-85.988032,-181.69002)" stroke-linecap="round">
  <path id="path5592" d="m88.763261 181.69013-0.710071 0.32014-1.131224 1.36632 0.07971 1.22052 1.508708 1.40339 1.508708 1.4034 1.508402 1.40433 1.509928 1.4034 0.549427 0.0867-0.216839 0.0592-1.600024 0.3949-1.343482 0.31829-0.562254 0.13081-0.441923 0.25244-0.269062 0.28368-0.0623 0.0162-0.03482 9e-3 -0.07146 0.022-0.03573 0.0129-0.513694 0.18411-0.08765 0.0359-0.169805 0.0833-0.08307 0.0454-0.372901 0.23252-0.123384 0.094-0.229666 0.20588-0.106282 0.11366-0.255014 0.32871-0.03696 0.0499-0.06933 0.10293-0.03238 0.0521-0.267841 0.4632-0.02993 0.0567-0.05314 0.11121-0.02535 0.0554-0.229666 0.56981-0.02412 0.0671-0.04276 0.13786-0.01863 0.0705-0.146596 0.65069-0.01833 0.11121-0.02077 0.22334-0.0037 0.11242 0.01404 0.44238 0.122163 0.42368 0.433982 0.7377 0.310598 0.31248 0.145374 0.087 0.419018 0.12377 0.846281 0.0325 0.425736-0.0916 0.168585-0.0833 0.0959-0.0554 0.182328-0.1204 0.08673-0.065 0.08063-0.0695 0.200957-0.24661 0.07147-0.12959 0.144456-0.0162 0.539959-0.26867 0.051-0.052 0.0012-2e-3 0.120026-0.12622 0.142013-0.14797 0.04153-0.0429 0.316094 0.12253 0.60715 0.0105 1.064341-0.36793 1.064341-0.36824 1.064033-0.36823 0.643189-0.22119-0.206761 0.33117-0.402829 0.63108-0.361301 0.56369-0.02535 0.0408 0.0079-0.0151-0.05408 0.0867-0.452613 0.43778-1.283622 1.19814-1.283624 1.19049-0.581494 0.53826-0.276086 0.52448-0.124607 0.84645-0.149038 0.27909-0.0079 0.0162-0.313957 0.59279-0.0079 0.0151-0.0082 0.0163-0.198515 0.39366-0.04856 0.11825-0.08185 0.24417-0.03115 0.12375-0.112999 0.62313-0.0049 0.0313-0.0079 0.0567-0.0034 0.0267-0.129492 1.13228-0.0012 0.0141-0.0012 0.0159-9.46e-4 1e-3 -0.109641 1.14055v4e-3l-0.0024 0.0254-0.05528 0.6657 0.02749 0.30452 0.156063 0.58114 0.127965 0.27817 0.952257 1.37185 0.01496 0.022 0.03237 0.0442 0.01741 0.022 2.114633 2.68151 0.01282 0.015 0.0046 6e-3 2.116771 2.61472 7e-3 8e-3 0.0012 1e-3 0.961423 1.17517 0.441002 0.2316-0.03114 0.0812-0.01832 0.0542-0.07636 0.24203-0.03327 0.16113-0.03818 0.32749-0.0035 0.16666 0.01619 0.24202 0.01158 0.0892 0.03115 0.1783 0.01956 0.0882 0.05195 0.18626 0.01377 0.0462 0.03239 0.0937 0.01862 0.0486 0.0299 0.0741 0.539043 0.50703 1.275379 0.4298 0.737553-0.0799 0.113306-0.0671 8e-3 -6e-3 0.0266-0.0162 0.01862-0.0113 0.262952-0.17034 0.02323-0.0151 0.05071-0.0359 0.0266-0.0199 0.297768-0.22332 0.05774-0.0462 0.108419-0.0974 0.05224-0.0496 0.216837-0.22823 0.05195-0.0601 0.09926-0.12499 0.0473-0.0637 0.18721-0.2849 0.0125-0.0196 5e-3 -7e-3 0.2309-0.36123 0.0138-0.022 0.0229-0.0392 9e-3 -0.0162 0.80444-1.02811 0.22264-0.18994 0.22295-0.19117 0.26998-0.4099 0.28158-0.90189 0.0128-0.48986-0.0241-0.0937-5e-3 -0.0162-7e-3 -0.0254-2e-3 -0.0105-0.0669-0.22578-6e-3 -0.0208-0.015-0.0454-8e-3 -0.0254-0.0971-0.27326-0.0174-0.0474-0.0403-0.0937-0.0207-0.0474-0.11422-0.23497-0.0394-0.072-0.0843-0.13877-0.0449-0.0659-0.17775-0.24202-0.0104-0.0129-0.10506-0.86851-0.16614-0.30788 0.93943 0.23283 0.0138 4e-3 0.0266 6e-3 0.0128 2e-3 2.34216 0.50488 0.0183 4e-3 9e-3 1e-3 0.65113 0.12959 7e-3 0.0591 0.0834 0.35997 0.0599 0.17614 0.0867 0.1829 0.0898 0.15164 0.2089 0.28368 0.11666 0.12959 0.0531 0.0475 0.65113 0.22946 1.26377-0.0787 0.61661-0.30697 0.31671-0.36732 0.31518-0.36701 0.31609-0.36701 0.3164-0.36731 0.0913-0.12622 0.15698-0.26377 0.0669-0.13908 0.11758-0.31034 0.11911-0.31033v-0.00126l0.0254-0.0646 0.22631-0.0787 0.52163-0.48159 0.14781-0.33607 0.14782-0.33576 0.1466-0.33576h1e-3l0.1466-0.33576 0.0577-0.53153-0.19852-1.00146-0.25623-0.46994-0.0843-0.08-0.0183-0.0174-0.0369-0.0334-0.0196-0.0175-0.21257-0.18073-0.0358-0.0288-0.0739-0.0567-0.0391-0.0291-0.28403-0.19453-0.0821-0.0496-0.1695-0.0904-0.0877-0.0417-0.29807-0.12039-0.10262-0.0337-0.2089-0.0554-0.10506-0.022-0.33716-0.0462-0.0254-4e-3 -0.0437-5e-3 -0.0174-2e-3 0.076 7e-3 -0.0266-0.0405-0.57477-0.38447-0.26418-0.0511-0.0116-1e-3 -0.0196-5e-3 -9e-3 -1e-3 -0.65448-0.10875-0.0104-1e-3 -0.0348-6e-3 -0.0241-4e-3 -0.83926-0.10539-0.0333-4e-3 -0.0672-6e-3 -0.0345-2e-3 -0.81726-0.0393-0.0345-1e-3h-0.0925l-0.84384 0.0196-0.0149 1e-3 -0.96936 0.0254-0.90156 0.0211h-0.0104l0.26082-1.16966 0.0207-0.22915-0.0253-0.65897-0.0254-0.65742-0.0256-0.65897-0.015-0.39826 0.029-0.0683 0.24463-0.41817 0.39245-0.5833 0.36343-0.53153 0.25868-0.37068 0.0254-0.0359 0.29441-0.0867 0.64746-0.10539 0.60135-0.0787 0.40771-0.0429 0.0495-5e-3 0.0764 2e-3h9e-3l0.45352 0.73985 7e-3 0.0128 0.0183 0.0275 0.0104 0.0175 0.92812 1.38961 0.0138 0.0208 2e-3 2e-3 0.85422 1.24715 9e-3 0.0138 0.37413 0.5398 0.5088 0.35414 0.3222 0.0812h1e-3l0.13377 0.27082 0.19729 0.39488 0.0141 0.0254 0.0287 0.0546 0.015 0.0266 0.23334 0.39826 0.11666 0.1979 1e-3 1e-3 0.11666 0.19912 0.20769 0.24079 0.48834 0.39367 0.27822 0.15165 0.0727 0.0245 0.0843 0.0229 0.17072 0.0383 0.088 0.0151 0.14079 0.0163 0.33687-0.0242 0.64074-0.17492 0.22172-0.10876 0.0104 4e-3 0.1524 0.0429 0.16033 0.0291 0.67404-0.1495 1.03655-0.74107 0.36251-0.59034 0.0266-0.17156 7e-3 -0.21291-0.0382-0.4191-0.044-0.20862-0.10505-0.30911-0.0149-0.0429-0.0358-0.0892-0.0196-0.0462-0.12827-0.27663-0.0138-0.0278-0.0266-0.052-0.0128-0.0233-0.1072-0.1979-0.0104-0.0184-0.0186-0.0312-9e-3 -0.0163-0.0461-0.0754-0.0599-0.0879-0.13407-0.17156-0.0727-0.0821-0.4294-0.42827-0.4294-0.42859-0.0706-0.0705 0.0406-0.30911-0.13865-0.60566-1.22102-1.85833-1.22132-1.85834-1.22132-1.85864-0.51828-0.78824 0.0602-0.0766 0.2205-0.28246 0.11423-0.18993 0.0947-0.21537 4e-3 -1e-3 0.52194-0.87863-0.0348-0.45156v-0.00125l-0.0345-0.45157-0.0336-0.45156v-0.00125l-0.0345-0.45157-0.0116-0.0916-0.0333-0.18167-0.0211-0.0892-0.0241-0.0824-0.0324-0.0925-0.0748-0.18075-0.0416-0.0867-0.10873-0.1979-0.0739-0.11243-0.16156-0.21107-0.0901-0.1008-0.24829-0.23834-0.11179-0.0916-0.23913-0.16453-0.12582-0.0717-0.44315-0.20709-0.0889-0.0359-0.1802-0.0616-0.091-0.0267-0.42605-0.0959-0.10842-0.0174-0.21714-0.0221-0.10964-4e-3 -0.21012 5e-3 -0.2318 0.0371 0.29991-0.0904-0.25502-0.1158-0.29533-0.13418-0.69052-0.0174-3.17653 1.40217-0.0751 0.11243-1.48886-1.7845-1.53864-1.84423-1.539862-1.84333-1.022803-0.24907-1.56154 0.65866-0.354581 0.59525-0.46177-0.45157-1.235068-1.20764-1.006314-0.16328-1.500766 0.7331-0.02871 0.0521-0.882013-0.65651-1.177342-0.87555-0.499645-0.17432zm6.259609 8.2078 0.03788 0.03-0.124605 0.0184-0.03115 6e-3z" color="#000000" fill="url(#linearGradient6175)" stroke-linejoin="round" stroke-width="1.77574" style="-inkscape-stroke:none"/>
  <path id="path4780" d="m88.763261 181.69013-0.71007 0.31915-1.131225 1.36211 0.07971 1.21674 1.508708 1.39907 1.508708 1.39906 1.508402 1.39999 1.509929 1.39906 0.549426 0.0864-0.216839 0.059-1.600024 0.39367-1.343481 0.31731-0.562255 0.13041-0.441922 0.25166-0.269063 0.2828-0.0623 0.0162-0.03482 9e-3 -0.07147 0.022-0.03573 0.0128-0.513694 0.18355-0.08765 0.0357-0.169805 0.0831-0.08307 0.0452-0.372902 0.2318-0.123384 0.0938-0.229666 0.20523-0.106281 0.11331-0.255015 0.3277-0.03695 0.0498-0.06933 0.10262-0.03237 0.0519-0.267841 0.46177-0.02993 0.0565-0.05314 0.11086-0.02535 0.0553-0.229666 0.56806-0.02413 0.0669-0.04276 0.13743-0.01863 0.0702-0.146595 0.64868-0.01832 0.11086-0.02077 0.22265-0.0037 0.11208 0.01404 0.44101 0.122162 0.42237 0.433983 0.73542 0.310598 0.31152 0.145374 0.0867 0.419018 0.12339 0.846281 0.0324 0.425736-0.0913 0.168585-0.0831 0.0959-0.0553 0.182328-0.12002 0.08673-0.0648 0.08063-0.0693 0.200957-0.24585 0.07147-0.12918 0.144456-0.0162 0.539959-0.26784 0.051-0.0519 0.0013-2e-3 0.120025-0.12583 0.142013-0.14751 0.04154-0.0428 0.316095 0.12216 0.607149 0.0104 1.064342-0.36679 1.064341-0.3671 1.064035-0.3671 0.643187-0.2205-0.206761 0.33014-0.402831 0.62914-0.361296 0.56195-0.02535 0.0406 0.0079-0.015-0.05406 0.0864-0.452612 0.43643-1.283622 1.19444-1.283624 1.18681-0.581494 0.5366-0.276087 0.52286-0.124606 0.84383-0.149038 0.27823-0.0079 0.0162-0.313958 0.59097-0.0079 0.015-0.0082 0.0162-0.198514 0.39244-0.04856 0.11789-0.08185 0.24341-0.03115 0.12338-0.112999 0.6212-0.0049 0.0311-0.0079 0.0565-0.0034 0.0266-0.129492 1.12879-0.0013 0.014-0.0013 0.0159-9.38e-4 1e-3 -0.109641 1.13703v4e-3l-0.0024 0.0254-0.05528 0.66364 0.02749 0.30358 0.156063 0.57935 0.127965 0.27731 0.952257 1.36761 0.01496 0.022 0.03237 0.044 0.01741 0.022 2.114634 2.67322 0.01282 0.015 0.0046 6e-3 2.116772 2.60664 7e-3 8e-3 0.0013 1e-3 0.961419 1.17153 0.441007 0.23089-0.03115 0.0809-0.01833 0.0541-0.07635 0.24127-0.03329 0.16065-0.03818 0.32648-0.0037 0.16614 0.01619 0.24127 0.0116 0.0889 0.03115 0.17775 0.01955 0.088 0.05192 0.18568 0.01375 0.0461 0.03237 0.0934 0.01863 0.0486 0.02993 0.0739 0.539041 0.50545 1.275377 0.42848 0.737557-0.0797 0.113306-0.0669 0.0079-6e-3 0.02657-0.0162 0.01863-0.0113 0.262955-0.1698 0.02321-0.015 0.0507-0.0357 0.02657-0.0198 0.297772-0.22264 0.05772-0.0461 0.10842-0.0971 0.05222-0.0495 0.216838-0.22752 0.05192-0.0599 0.09926-0.12461 0.0473-0.0635 0.18721-0.28403 0.0125-0.0195 5e-3 -7e-3 0.2309-0.36011 0.0137-0.022 0.0229-0.0391 9e-3 -0.0162 0.80444-1.02494 0.22264-0.18935 0.22295-0.19058 0.26998-0.40863 0.28159-0.89912 0.0128-0.48834-0.0241-0.0935-5e-3 -0.0162-7e-3 -0.0254-2e-3 -0.0104-0.0669-0.22508-6e-3 -0.0208-0.015-0.0452-8e-3 -0.0254-0.0971-0.27242-0.0174-0.0473-0.0403-0.0934-0.0208-0.0473-0.11422-0.23425-0.0394-0.0718-0.0843-0.13834-0.0449-0.0657-0.17775-0.24127-0.0104-0.0128-0.10506-0.86583-0.16614-0.30693 0.93943 0.23211 0.0137 3e-3 0.0266 6e-3 0.0128 2e-3 2.34217 0.50331 0.0183 4e-3 9e-3 1e-3 0.65113 0.12918 7e-3 0.059 0.0834 0.35885 0.0599 0.17561 0.0867 0.18233 0.0898 0.15117 0.2089 0.28281 0.11667 0.12918 0.0531 0.0473 0.65112 0.22875 1.26377-0.0785 0.61662-0.30601 0.31671-0.36619 0.31517-0.36587 0.3161-0.36588 0.3164-0.36618 0.0913-0.12583 0.15698-0.26296 0.0669-0.13865 0.11758-0.30938 0.11911-0.30937v-0.00125l0.0253-0.0644 0.22631-0.0785 0.52163-0.4801 0.14782-0.33504 0.14781-0.33472 0.1466-0.33472h9.4e-4l0.14659-0.33473 0.0577-0.52988-0.19851-0.99837-0.25624-0.4685-0.0843-0.0797-0.0183-0.0174-0.037-0.0333-0.0195-0.0174-0.21257-0.18019-0.0357-0.0287-0.0739-0.0565-0.0391-0.029-0.28403-0.19393-0.0822-0.0495-0.1695-0.0901-0.0876-0.0415-0.29808-0.12003-0.10262-0.0336-0.20889-0.0553-0.10506-0.022-0.33717-0.0461-0.0254-4e-3 -0.0437-5e-3 -0.0174-2e-3 0.076 7e-3 -0.0266-0.0403-0.57477-0.38329-0.26418-0.051-0.0116-9.4e-4 -0.0195-5e-3 -9e-3 -1e-3 -0.65449-0.10842-0.0104-1e-3 -0.0348-6e-3 -0.0241-4e-3 -0.83926-0.10506-0.0333-3e-3 -0.0672-6e-3 -0.0345-2e-3 -0.81727-0.0391-0.0345-1e-3h-0.0925l-0.84384 0.0196-0.015 1e-3 -0.96936 0.0254-0.90156 0.0211h-0.0104l0.26082-1.16604 0.0208-0.22844-0.0254-0.65693-0.0254-0.6554-0.0257-0.65693-0.015-0.39703 0.029-0.0681 0.24463-0.41688 0.39245-0.58149 0.36343-0.52988 0.25868-0.36954 0.0254-0.0357 0.29441-0.0864 0.64747-0.10507 0.60134-0.0785 0.40772-0.0428 0.0495-5e-3 0.0763 2e-3h9e-3l0.45353 0.73756 7e-3 0.0128 0.0183 0.0275 0.0104 0.0174 0.92813 1.38533 0.0137 0.0208 2e-3 2e-3 0.85422 1.2433 9e-3 0.0138 0.37413 0.53812 0.5088 0.35306 0.32221 0.0809h1e-3l0.13377 0.26998 0.19729 0.39367 0.014 0.0253 0.0287 0.0544 0.015 0.0266 0.11666 0.19851 0.11667 0.19851 0.11666 0.1973 9.4e-4 1e-3 0.11666 0.19851 0.20768 0.24005 0.48835 0.39245 0.27822 0.15117 0.0727 0.0244 0.0843 0.0229 0.17072 0.0382 0.088 0.015 0.14079 0.0162 0.33686-0.0241 0.64075-0.17438 0.22172-0.10842 0.0104 3e-3 0.15239 0.0428 0.16034 0.029 0.67403-0.14904 1.03655-0.73878 0.36252-0.58852 0.0266-0.17102 7e-3 -0.21226-0.0382-0.4178-0.044-0.20798-0.10506-0.30815-0.015-0.0428-0.0357-0.0889-0.0195-0.0461-0.12828-0.27578-0.0137-0.0278-0.0266-0.0519-0.0128-0.0232-0.1072-0.1973-0.0104-0.0183-0.0186-0.0311-9e-3 -0.0162-0.0461-0.0751-0.0599-0.0877-0.13408-0.17103-0.0727-0.0819-0.4294-0.42695-0.42941-0.42727-0.0705-0.0702 0.0406-0.30816-0.13865-0.60378-1.22101-1.8526-1.22132-1.8526-1.22133-1.8529-0.51827-0.78581 0.0602-0.0763 0.22051-0.28158 0.11422-0.18936 0.0947-0.2147 3e-3 -1e-3 0.52194-0.8759-0.0348-0.45017v-0.00125l-0.0345-0.45017-0.0336-0.45017v-0.00125l-0.0345-0.45017-0.0116-0.0913-0.0333-0.1811-0.0211-0.0889-0.0241-0.0821-0.0324-0.0922-0.0748-0.18019-0.0415-0.0864-0.10872-0.1973-0.0739-0.11208-0.16156-0.21043-0.0901-0.10047-0.24829-0.23761-0.11178-0.0913-0.23913-0.164-0.12583-0.0715-0.44315-0.20646-0.0889-0.0357-0.18019-0.0614-0.091-0.0266-0.42604-0.0956-0.10842-0.0174-0.21715-0.022-0.10964-3e-3 -0.21012 5e-3 -0.2318 0.037 0.29991-0.0901-0.25501-0.11544-0.29533-0.13377-0.69053-0.0174-3.17653 1.39785-0.0751 0.11208-1.48886-1.77899-1.53863-1.83855-1.539862-1.83763-1.022805-0.24829-1.561543 0.65662-0.354578 0.5934-0.461773-0.45016-1.235064-1.20392-1.006315-0.16278-1.500766 0.73084-0.02871 0.0519-0.882013-0.65449-1.177342-0.87285-0.499645-0.17378zm6.25961 8.18245 0.03787 0.0299-0.124605 0.0183-0.03115 6e-3z" color="#000000" fill="#f9f9f9" stroke-linejoin="round" stroke-width="1.773" style="-inkscape-stroke:none"/>
  <path id="path2289" d="m88.207116 183.28802 3.018026 2.79874 1.508708 1.39937 1.509013 1.39937-0.02199-0.50117-0.02229-0.50117-0.04398-1.00234 1.103128 0.89698 1.103128 0.89697 1.103129 0.89698 1.103126 0.89698-0.03512-0.71221-0.03543-0.7122-0.07024-1.42442 1.216129 1.0735 1.216127 1.07381 1.21612 1.07351 1.21644 1.0735-1.53895-1.83824-1.53894-1.83855-1.538936-1.83824-1.538943-1.83824 0.106282 1.0735 0.106587 1.0732 0.106586 1.0735 0.106587 1.07351-1.235062-1.20361-2.470128-2.4066-1.234757-1.20361 0.07421 0.68442 0.07421 0.68441 0.07421 0.68472 0.07421 0.68442-1.177952-0.87285-1.177647-0.87255-1.177952-0.87285zm15.084024 8.6262-0.19821 0.0119-0.19821 0.0122-0.19821 0.0119-0.19821 0.0122-0.6331-0.10108-0.63311-0.1014-0.63311-0.10109-0.633106-0.10109-0.541792-0.0418-1.300726-0.0602-1.572231 0.0201-1.356922 0.19943-1.381659 0.37229-1.627205 0.4007-1.355394 0.32006-0.566528 0.13102-0.0171 0.0935-0.0171 0.0932-0.0168 0.0934-0.0171 0.0934-0.195765 0.0434-0.454444 0.12003-0.51339 0.18324-0.37229 0.2318-0.256236 0.32709-0.266618 0.46117-0.229972 0.56805-0.146291 0.64838 0.01406 0.44101 0.145984 0.0864 0.167973-0.0831 0.08063-0.0687 0.01099-0.076 0.03512-0.18233 0.06108-0.21959 0.08979-0.18813 0.106893-0.1582 0.106892-0.1527 0.102005-0.11148 0.09162-0.0354 0.05925 0.0852 0.02016 0.16828-6.26e-4 0.16492-0.0043 0.0742 0.03665 0.0241 0.0733 0.0488 0.03665 0.0241 0.05101-0.0538 0.123383-0.12888 0.150566-0.15637 0.132545-0.13529 0.163699-0.15393 0.222946-0.20431 0.205233-0.19485 0.111473-0.12522 0.103838-0.0519 0.177442-0.0229 0.167667-5e-3 0.07452 1e-3 0.07482 0.13529 0.07483 0.1353 0.07452 0.13529 0.07483 0.1353 1.064341-0.3668 1.064341-0.36679 1.064036-0.36679 1.064342-0.3668 0.07482-0.0226 0.199431-0.0461 0.286777-0.0379 0.336557 3e-3 0.542097 0.058 0.738472 0.084 0.651432 0.0757 0.280057 0.033 0.04734 0.0144 0.09498 0.0492 0.07269 0.0932-0.01893 0.14537-0.247379 0.36191-0.452307 0.60745-0.487429 0.65785-0.351829 0.514-0.318539 0.51003-0.40955 0.63952-0.363127 0.56378-0.180189 0.2828-0.614785 0.59219-1.29706 1.20788-1.286677 1.18895-0.582716 0.53751 0.05864 0.0987 0.05864 0.0986 0.05833 0.0986 0.05864 0.099-0.129492 0.23913-0.294106 0.54729-0.317013 0.59799-0.198514 0.39245-0.112084 0.6218-0.129187 1.1294-0.110251 1.14313-0.05558 0.66335 0.951952 1.36791 2.115549 2.67383 2.119216 2.60879 0.964167 1.17428 0.126744-0.11055 0.126744-0.11026 0.126743-0.11025 0.126744-0.11025 0.124912-0.0153 0.124911-0.015 0.124605-0.0153 0.124912-0.015 0.04612 0.0776 0.09681 0.19821 0.08582 0.26723 0.01192 0.28433-0.08246 0.37779-0.136822 0.49507-0.160643 0.48162-0.153926 0.33808-0.07513 0.24158 0.0168 0.24158 0.05253 0.18569 0.02993 0.0742 0.113306-0.0675 0.26326-0.17012 0.297771-0.22325 0.217449-0.22722 0.187215-0.28311 0.233024-0.36466 0.204012-0.35824 0.09987-0.26357 0.02657-0.17713 0.03451-0.15362 0.04398-0.12338 0.05436-0.0867 0.07818-0.0296 0.09468 0.0202 0.0794 0.0367 0.03329 0.0196 0.222642-0.18997 0.22264-0.18996 0.22265-0.18996 0.22264-0.18996-0.0244-0.0938-0.066-0.22478-0.0962-0.27212-0.11483-0.23516-0.17775-0.24036-0.234858-0.28341-0.204317-0.2367-0.08765-0.099 0.09681-0.13193 0.09682-0.13194 0.09651-0.13224 0.09682-0.13193-0.641665-0.53752-1.419224-1.18803-1.438464-1.20055-0.699686-0.57539-0.265092-0.24707-0.45353-0.59127-0.360074-0.86033 0.01435-1.05396 0.459024-1.04449 0.625168-0.83437 0.551258-0.55278 0.237301-0.20035 0.126438 0.69816 0.362518 1.58689 0.573553 1.71547 0.760462 1.08267 1.660493 0.58973 2.55412 0.63067 2.34307 0.5027 1.02648 0.20492 0.51796-0.45444 0.25899-0.22722 0.25898-0.22722 0.0861 0.076 0.15759 0.24402 0.0797 0.43673-0.14874 0.65449-0.18171 0.62639 7e-3 0.37534 0.0855 0.18263 0.0531 0.0476 0.3161-0.36588 0.31609-0.36588 0.3164-0.36587 0.3161-0.36618 0.11819-0.30969 0.11789-0.30968 0.11819-0.30968 0.11819-0.30999 0.0119-0.0229 0.0376-0.0534 0.065-0.0602 0.0947-0.0428 0.1185-3.1e-4 0.11789 0.033 0.0901 0.0397 0.036 0.0192 0.14751-0.33472 0.14751-0.33442 0.14721-0.33473 0.14751-0.33442-0.0834-0.0797-0.21195-0.18049-0.28403-0.19394-0.29868-0.12002-0.33656-0.047-0.3671-0.0327-0.29502-0.0192-0.12125-6e-3 0.0214-0.0956 0.0214-0.0959 0.0428-0.1912-0.26387-0.0501-0.65448-0.10872-0.83895-0.10506-0.81697-0.0391-0.85422 0.0202-0.9715 0.026-0.91469 0.0217-0.68319 9e-3 -0.45109-0.0785-0.3393-0.26204-0.23547-0.48834-0.13927-0.75802-0.0605-0.75222-0.0116-0.4749 0.0119-0.2483 9e-3 -0.0718 0.0919 7e-3 0.0916 6e-3 0.0919 7e-3 0.0916 7e-3 -0.0253-0.65632-0.025-0.65662-0.0508-1.31264 5e-3 -0.0708 0.055-0.22111 0.16339-0.38512 0.33167-0.56226 0.42635-0.63371 0.37259-0.54179 0.26388-0.3781 0.10017-0.14201 0.0449-0.08 0.18172-0.19149 0.38787-0.22905 0.66395-0.19363 0.78337-0.12797 0.65113-0.0849 0.44528-0.0467 0.16492-0.0144 0.17561 4e-3 0.1756 4e-3 0.17561 4e-3 0.17592 4e-3 0.0742-7e-3 0.1918 0.0397 0.26203 0.17683 0.28464 0.40467 0.5873 0.95409 0.92813 1.38593 0.85789 1.2485 0.37748 0.54271 0.12674-0.0638 0.12705-0.0638 0.12675-0.0641 0.12704-0.0638 0.19638 0.39305 0.19638 0.39306 0.19637 0.39306 0.19669 0.39306 0.11666 0.19851 0.11697 0.19852 0.11697 0.1982 0.11697 0.19852 0.0721 0.0238 0.14079 0.0168 0.0944-0.0718-0.0666-0.24127-0.13926-0.33259-0.0363-0.26601 0.0819-0.16187 0.21531-0.0208 0.32679 0.14109 0.34602 0.22967 0.27456 0.21409 0.11178 0.0944 0.0852 0.0629 0.17958 0.1072 0.16003 0.0296 0.026-0.17042-0.10506-0.30907-0.12827-0.27548-0.10842-0.19729-0.0458-0.0757-0.4294-0.42727-0.4294-0.42757-0.8588-0.85452 0.11513-0.10231 0.11484-0.10201 0.11514-0.10231 0.11483-0.10201-1.22102-1.85259-1.22101-1.8529-1.22102-1.8526-1.22132-1.85259 0.28312-0.36038 0.2828-0.36008 0.28281-0.36038 0.2828-0.36007 6e-3 -0.0898 3e-3 -0.0446 3e-3 -0.0449 0.0196-3e-3 0.0198-3e-3 0.0196-3e-3 0.0195-3e-3 0.1044 0.1088 0.0519 0.0544 0.0522 0.0547-0.0345-0.45078-0.0342-0.45047-0.0342-0.45048-0.0345-0.45047-0.0238-0.0819-0.10842-0.19638-0.24829-0.23821-0.44315-0.20676-0.42573-0.0962-0.21012 5e-3 -0.0703 0.047-7e-3 0.029-0.29563-0.13407-0.29564-0.13408-0.59126-0.26814-0.0382 0.0919-0.077 0.1838-0.0382 0.0919-0.12094-3e-3 -0.12063-3e-3 -0.12094-3e-3 -0.12064-3e-3 -9e-3 0.11178-9e-3 0.11177-0.018 0.22356-0.0727-0.0919-0.0724-0.0922-0.0724-0.0919-0.0724-0.0922-0.0324 0.0308-0.077 0.0715-0.0935 0.0812-0.0803 0.0605-0.11575 0.0232-0.17072-3.1e-4 -0.15454-0.0101-0.0672-6e-3 -0.0269 0.11514-0.0617 0.26906-0.0702 0.31029-0.0507 0.2373 0.0147 0.15882 0.0742 0.16583 0.0825 0.19699 0.0391 0.25135-0.0244 0.29655-0.0534 0.28006-0.0535 0.20828-0.0241 0.0819-0.95776-0.0464-0.0287-0.0745-0.0284-0.0742-0.0287-0.0745z" color="#000000" stroke-linejoin="bevel" stroke-width="1.773" style="-inkscape-stroke:none"/>
 </g>
</svg>
