<?xml version="1.0" encoding="UTF-8" standalone="no"?>
<!-- Created with Inkscape (http://www.inkscape.org/) -->

<svg
   width="46.028847mm"
   height="30mm"
   viewBox="0 0 46.028847 30"
   version="1.1"
   id="svg2277"
   inkscape:version="1.1.1 (1:1.1+202109281949+c3084ef5ed)"
   sodipodi:docname="guy_00.svg"
   xmlns:inkscape="http://www.inkscape.org/namespaces/inkscape"
   xmlns:sodipodi="http://sodipodi.sourceforge.net/DTD/sodipodi-0.dtd"
   xmlns="http://www.w3.org/2000/svg"
   xmlns:svg="http://www.w3.org/2000/svg">
  <sodipodi:namedview
     id="namedview2279"
     pagecolor="#ffffff"
     bordercolor="#666666"
     borderopacity="1.0"
     inkscape:pageshadow="2"
     inkscape:pageopacity="0.0"
     inkscape:pagecheckerboard="0"
     inkscape:document-units="mm"
     showgrid="false"
     width="3mm"
     fit-margin-top="0"
     fit-margin-left="0"
     fit-margin-right="0"
     fit-margin-bottom="0"
     inkscape:zoom="1.2810466"
     inkscape:cx="84.696374"
     inkscape:cy="152.9999"
     inkscape:window-width="1920"
     inkscape:window-height="1151"
     inkscape:window-x="0"
     inkscape:window-y="25"
     inkscape:window-maximized="1"
     inkscape:current-layer="layer1" />
  <defs
     id="defs2274" />
  <g
     inkscape:label="Layer 1"
     inkscape:groupmode="layer"
     id="layer1"
     transform="translate(8.0144246)">
    <g
       id="g1405"
       transform="matrix(0.29226304,0,0,0.29226304,-144.97387,105.31379)"
       style="display:inline">
      <path
         style="color:#000000;fill:#f2f2f2;-inkscape-stroke:none"
         d="m 2061.6875,-1361.8652 c -62.0227,-1.6238 -119.4111,39.8344 -151.7539,74.9238 l -0.07,0.074 -0.066,0.076 c -9.8933,10.9663 -18.8965,22.7863 -26.7578,35.2578 -5.5021,-1.0303 -11.2303,-1.6219 -17.2032,-1.5254 -18.3389,0.2963 -34.93,7.1058 -50,16.4297 -14.1179,8.3473 -23.6679,20.3762 -30.8183,32.3848 -7.2851,12.2346 -13.8672,27.6244 -13.8672,45.7851 0,29.4969 12.2235,57.9658 34.8555,76.9277 21.1452,17.7164 46.5554,25.26 66.8593,27.8301 7.0664,0.8943 13.1491,1.1784 18.4922,1.3008 10.0086,11.2885 21.2187,21.5087 33.2676,30.4629 37.0716,27.5499 81.9224,45.31841 125.793,47.66797 49.3876,2.64505 104.1038,-11.39349 150.7168,-37.91017 19.2154,-10.9312 37.1638,-24.4878 52.4179,-40.541 3.389,-0.2135 6.9357,-0.4502 11.125,-0.9805 20.304,-2.5701 45.7142,-10.1137 66.8594,-27.8301 l 0.3496,-0.2929 0.334,-0.3106 c 7.44,-6.871 11.3254,-13.7048 17.2949,-23.6367 5.9696,-9.9319 11.8209,-20.5358 14.7442,-32.0957 l 0.1445,-0.5723 0.1094,-0.58 c 1.1587,-6.1839 1.8789,-12.6845 1.8789,-19.4395 0,-18.1606 -6.5821,-33.5504 -13.8672,-45.7851 -7.1504,-12.0083 -16.7002,-24.0374 -30.8184,-32.3848 -15.0701,-9.324 -31.6613,-16.1333 -50,-16.4297 -4.6064,-0.074 -9.0322,0.2903 -13.2988,0.9219 -11.0169,-15.1116 -23.7902,-29.0825 -37.8008,-41.584 -44.3284,-39.5541 -101.4288,-67.4208 -158.9199,-68.1445 z m -0.9121,37.7793 h 0.1445 0.1465 c 45.2821,0.5245 95.6153,23.9717 134.377,58.5586 15.0698,13.4468 28.4262,28.6425 38.7968,44.7324 l 7.5957,11.7813 13.4786,-3.8477 c 5.7872,-1.6525 10.856,-2.4936 15.7832,-2.414 9.4262,0.1523 19.2725,3.6626 30.8769,10.8652 l 0.1992,0.123 0.2032,0.1192 c 7.0132,4.115 12.3191,10.258 17.6757,19.2539 5.3201,8.9346 8.543,17.3521 8.543,26.4492 0,3.804 -0.4108,7.697 -1.1113,11.6602 -1.0201,3.7407 -5.4992,13.4639 -10.3633,21.5566 -4.8373,8.048 -11.8293,16.3742 -10.4141,15.1563 -13.3068,10.8897 -32.4292,17.0727 -46.7754,18.8886 -4.0384,0.5112 -7.7012,0.7923 -10.8691,0.9551 l -13.0195,0.668 -5.2715,6.0762 c -12.8619,14.8226 -29.7417,27.8956 -48.3242,38.4667 -40.3708,22.9657 -89.5039,35.1889 -130.0098,33.0196 -34.854,-1.8667 -73.8052,-16.8789 -105.2695,-40.2617 -12.1803,-9.0519 -23.2548,-19.4552 -32.3828,-30.7774 l -5.7422,-7.123 -9.1485,0.088 c -5.2988,0.05 -13.5531,-0.01 -22.2832,-1.1114 -14.5382,-1.8402 -34.0074,-8.1427 -47.332,-19.3066 -13.4208,-11.2445 -21.332,-28.9095 -21.332,-47.9551 0,-9.097 3.2228,-17.5145 8.5429,-26.4492 5.3564,-8.9957 10.6645,-15.1388 17.6778,-19.2539 l 0.2011,-0.1192 0.2012,-0.123 c 11.6044,-7.2027 21.4487,-10.713 30.875,-10.8652 6.1976,-0.1002 12.4101,1.1132 19.6309,3.5312 l 14.9804,5.0156 7.5918,-13.8535 c 7.9142,-14.441 17.8305,-28.2626 29.1289,-40.8008 26.5492,-28.7759 80.0365,-63.8682 122.9981,-62.7089 z"
         id="path10094"
         transform="scale(0.26458333)" />
      <path
         style="fill:#917c6f;stroke:#cccccc;stroke-width:0.265;stroke-linecap:butt;stroke-linejoin:miter;stroke-miterlimit:4;stroke-dasharray:none;stroke-opacity:1"
         d="m 502.38746,-320.18571 -6.92076,-1.73019 -5.60252,0.16479 -7.08554,4.11948 -3.37799,4.94339 -2.05975,5.52014 1.15346,7.41511 2.38931,4.03711 5.68491,4.77862 6.83837,2.38932 6.50881,0.57671 4.36667,-0.0824 4.9434,5.35535 10.21636,7.82706 13.59435,6.42641 7.99183,1.6478 14.83021,-0.32956 12.85283,-2.88364 12.52328,-5.68492 9.06291,-7.66225 4.2019,-4.69625 7.90943,-0.82389 10.79309,-6.09687 3.13082,-6.09685 1.07106,-5.27296 -0.98867,-4.94339 -3.2956,-5.35536 -5.19057,-4.36668 -9.47486,-1.89497 -3.9547,1.56541 -1.15348,0.57673 -7.00315,-9.47486 -11.78176,-10.29874 -13.18242,-7.25033 -14.99497,-3.54277 -10.29874,1.40065 -8.73335,3.78992 -8.98051,6.09687 -9.22768,9.55726 z"
         id="path1013"
         inkscape:connector-curvature="0" />
      <path
         id="path989"
         d="m 544.32385,-351.34169 v 0.0346 c -0.44709,0.008 -0.89646,0.004 -1.33943,0.0294 v 0 c -11.13706,0.63161 -22.54609,7.47017 -31.0012,16.84237 -3.85865,4.27717 -7.09571,9.09682 -9.39995,14.12782 l -0.95291,-0.39325 c -2.9019,-1.19747 -5.36081,-1.87933 -7.81554,-1.83967 -2.81152,0.0454 -5.52657,1.05286 -8.74521,3.06078 -1.86578,1.08897 -3.65163,3.11163 -5.05033,5.46065 -1.40056,2.35212 -2.40141,5.02529 -2.40141,7.50962 0,4.81065 2.66304,10.65723 6.0017,13.45449 3.35076,2.80741 9.51465,4.88775 13.04003,5.33402 2.77587,0.35129 5.87437,0.32478 6.95048,0.30541 l 1.12862,-0.0206 c 2.65862,3.65443 6.0267,6.98069 9.85366,9.82472 8.44763,6.2779 18.97735,10.34352 28.39516,10.84792 10.90758,0.58417 24.12921,-2.71211 34.94619,-8.86561 8.46093,-4.81316 15.4786,-11.42626 18.57664,-19.39004 -0.56693,2.16115 -1.32684,4.20452 -2.32852,6.08957 l -0.82839,1.55856 1.76268,-0.0904 c 0.85823,-0.0441 1.85248,-0.12046 2.95021,-0.25942 3.52539,-0.44627 9.68928,-2.52661 13.04002,-5.33403 3.33867,-2.79725 6.0017,-8.64383 6.0017,-13.45448 0,-2.48436 -1.00086,-5.1575 -2.40138,-7.50962 -1.39872,-2.34902 -3.18458,-4.37168 -5.05034,-5.46066 -3.21863,-2.00792 -5.93373,-3.01535 -8.74522,-3.06077 -2.32892,-0.0376 -4.66566,0.57986 -7.37164,1.66243 l -0.0315,0.0124 c -2.95696,-5.34429 -7.08869,-10.36608 -11.96414,-14.71641 -10.37524,-9.2578 -23.96625,-15.60614 -36.20812,-15.74787 z m 0.98859,2.01229 h 0.0164 c 11.55679,0.13946 24.82372,6.26385 34.88262,15.23936 10.06366,8.97975 16.8575,20.74336 15.94114,31.95516 -0.83179,10.17767 -8.73627,18.81034 -19.20811,24.76749 -10.47189,5.95714 -23.43539,9.16503 -33.85066,8.60721 -0.76216,-0.0408 -1.54496,-0.1411 -2.3244,-0.23151 5.68371,0.0962 11.48475,-0.4763 18.44745,-3.27369 7.05268,-2.83348 9.88986,-7.95115 10.63397,-12.41579 0.3792,-2.27512 0.31882,-5.60784 -1.16118,-8.94466 -1.48002,-3.33684 -4.42341,-6.63151 -9.60043,-8.63875 -3.66789,-1.42216 -6.96986,-1.91349 -10.10377,-1.93117 -1.42455,-0.008 -2.81464,0.0801 -4.19201,0.2186 -4.75326,0.47789 -9.6891,1.41441 -15.93648,5.10461 -3.17012,1.87253 -5.87935,3.78936 -7.91632,5.66684 -2.03698,1.87746 -3.44386,3.69652 -3.85454,5.58467 -0.0355,0.16309 -0.34838,0.9584 -0.56276,1.93786 -0.21437,0.97946 -0.33072,2.23779 -0.003,3.64681 0.45458,1.94947 1.78607,4.10831 4.58783,6.27403 -1.83998,-1.06071 -3.63498,-2.19956 -5.32371,-3.45455 -8.13808,-6.04785 -14.12161,-14.16783 -14.86472,-22.9211 -0.87869,-10.35042 4.37043,-21.89374 12.54755,-30.95781 8.17698,-9.06391 19.23731,-15.59552 29.6287,-16.18504 0.73028,-0.0413 1.46989,-0.0572 2.21589,-0.0486 z m -13.84464,13.19297 c -1.02683,0.009 -1.90537,0.5675 -2.77761,1.37512 -1.3233,1.22528 -3.25819,3.93361 -3.25819,3.93361 l -2.01539,2.75643 3.18379,-1.23404 c 0,0 3.26279,-1.2478 4.98367,-2.19882 0.94152,-0.52031 1.55921,-1.20058 1.78129,-1.98231 0.22208,-0.78174 -0.0156,-1.60047 -0.52813,-2.11307 -0.37198,-0.37198 -0.90209,-0.54065 -1.36891,-0.53692 z m 34.00465,0 c -0.46604,-0.004 -0.9964,0.16547 -1.36787,0.53692 -0.51247,0.51247 -0.75002,1.33125 -0.52814,2.11307 0.22188,0.78181 0.83918,1.46198 1.78075,1.98231 1.72088,0.95102 4.9837,2.19879 4.9837,2.19882 l 3.18378,1.23404 -2.01538,-2.75643 c 0,0 -1.93496,-2.70833 -3.25822,-3.93361 -0.87212,-0.80751 -1.75027,-1.36687 -2.77812,-1.37512 z m -34.04082,2.02004 c 0.008,0.0191 0.0295,0.0156 0.0103,0.0837 -0.0354,0.12462 -0.20086,0.43297 -0.82475,0.77775 -0.24221,0.13385 -0.66695,0.30273 -0.99581,0.45836 0.1322,-0.14314 0.32351,-0.4 0.4284,-0.49713 0.62276,-0.5766 1.21028,-0.79827 1.38183,-0.82269 z m 34.07905,0 c 0.17079,0.0243 0.75851,0.24604 1.38131,0.82269 0.10491,0.0971 0.2962,0.35399 0.42841,0.49713 -0.32887,-0.15563 -0.75361,-0.32451 -0.99581,-0.45836 -0.62386,-0.34476 -0.78891,-0.65323 -0.82423,-0.77775 -0.0193,-0.0682 0.003,-0.0646 0.0103,-0.0837 z m -16.55712,9.26817 -0.99013,0.0103 v 0.0594 c -5.93045,0.36079 -9.71435,3.29504 -11.64425,6.83318 -0.58883,1.07953 -0.91504,2.38096 -1.13946,3.51036 -0.22442,1.12943 -0.34176,2.15167 -0.37052,2.32805 -0.0764,0.46828 0.0836,0.98554 0.36794,1.30585 0.28432,0.3203 0.63296,0.47693 0.97978,0.53848 0.34681,0.0615 0.72248,0.0467 1.11208,-0.19069 0.3896,-0.23741 0.68912,-0.83182 0.63355,-1.31828 l 0.005,0.17208 c 0,0 0.13715,-2.26335 1.68052,-4.55631 1.49535,-2.22163 4.21815,-4.45971 9.78596,-4.59507 5.11077,-0.1242 8.24336,1.18404 10.13375,2.55955 0.9452,0.68773 1.58137,1.39885 1.98388,1.96887 0.40253,0.56999 0.57494,1.12088 0.55242,1.00251 0.008,0.044 0.0417,0.4617 0.0455,0.92604 0.004,0.46437 -0.006,1.02052 -0.0212,1.55133 -0.0304,1.06161 -0.0811,2.02004 -0.0811,2.02004 l -0.0119,0.21601 0.0791,0.20153 c 0,0 0.0782,0.33279 0.44289,0.71107 0.18232,0.18912 0.58147,0.4936 1.1322,0.39584 0.55079,-0.0978 0.83162,-0.49681 0.99219,-0.81804 0.20066,-0.40124 0.27596,-0.77237 0.38706,-1.29037 0.11115,-0.51795 0.21579,-1.12779 0.30025,-1.75181 0.0845,-0.62402 0.1488,-1.25944 0.17468,-1.83195 0.0259,-0.5725 0.0359,-1.04772 -0.0853,-1.53892 -0.1365,-0.55329 -0.44881,-1.16517 -1.05524,-2.02726 -0.60645,-0.86209 -1.4982,-1.87791 -2.74142,-2.84634 -2.48642,-1.93685 -6.38816,-3.65924 -12.04889,-3.54189 -0.20132,-0.004 -0.40113,-0.005 -0.59894,-0.003 z m -22.71231,0.52038 c -2.14296,-0.022 -5.17959,0.31819 -8.80877,1.72704 -6.14458,2.3853 -12.7217,7.95092 -12.7217,7.95092 l -0.50798,0.42582 0.1943,0.63354 c 0,0 0.24124,0.78798 0.52038,1.56115 0.13959,0.38655 0.2844,0.7647 0.43977,1.08521 0.0777,0.16026 0.14142,0.29814 0.29301,0.48422 0.0758,0.0931 0.1596,0.21944 0.43976,0.34311 0.28016,0.12372 0.90865,0.0396 1.16479,-0.21651 -0.0755,0.0755 0.26797,-0.23574 0.62425,-0.53848 0.35628,-0.30276 0.81068,-0.68559 1.25781,-1.0609 0.32036,-0.26892 0.35565,-0.29771 0.62993,-0.5271 0.24758,0.63801 0.58244,1.38554 1.08469,2.14871 1.1794,1.7921 3.36102,3.63114 6.53293,3.22873 5.82437,-0.73887 8.8587,-3.9312 10.43244,-6.33552 0.93595,-1.42992 1.48171,-3.67583 1.91255,-5.67717 0.43084,-2.00136 0.67179,-3.71142 0.67179,-3.71142 l 0.11886,-0.84026 -0.80977,-0.25373 c 0,0 -1.32623,-0.40527 -3.46904,-0.42736 z m 44.45878,0 c -2.14283,0.022 -3.46903,0.42736 -3.46903,0.42736 l -0.80978,0.25373 0.11885,0.84026 c 0,0 0.24095,1.71006 0.6718,3.71142 0.43085,2.00134 0.97663,4.24725 1.91254,5.67717 1.5738,2.40432 4.60809,5.59665 10.43244,6.33552 3.17193,0.40241 5.35355,-1.43663 6.53294,-3.22873 0.50225,-0.76317 0.83711,-1.5107 1.08468,-2.14871 0.27429,0.22939 0.30959,0.25818 0.62995,0.5271 0.44712,0.37531 0.90151,0.75814 1.2578,1.0609 0.35629,0.30274 0.69969,0.61391 0.62426,0.53848 0.25611,0.25614 0.88461,0.34023 1.16477,0.21651 0.28017,-0.12367 0.36399,-0.25006 0.43977,-0.34311 0.15158,-0.18608 0.21534,-0.32396 0.293,-0.48422 0.15536,-0.32049 0.30019,-0.69866 0.43979,-1.08521 0.27913,-0.77317 0.52035,-1.56115 0.52035,-1.56115 l 0.19431,-0.63354 -0.50797,-0.42582 c 0,0 -6.57715,-5.56562 -12.7217,-7.95092 -3.62915,-1.40885 -6.66583,-1.74908 -8.80877,-1.72704 z m -21.69274,1.4795 c 0.17936,0 0.36097,0 0.54624,0.003 h 0.0201 0.0201 c 2.48433,-0.0515 4.54036,0.27821 6.2575,0.80979 -1.80514,-0.4875 -3.95441,-0.77822 -6.52621,-0.71573 -4.23063,0.10285 -7.18079,1.4169 -9.20719,3.09801 1.92213,-1.85555 4.72724,-3.15301 8.8558,-3.19463 z m -22.78671,0.52038 c 0.89908,0.009 1.55132,0.0887 2.03295,0.16536 -0.0104,0.0674 -0.0436,0.22956 -0.0574,0.31626 l -0.55553,0.0455 c 0,0 -4.15202,0.33002 -8.35452,1.95956 -4.10894,1.59327 -6.93911,3.24064 -6.93911,3.24064 l -0.95344,0.55499 0.64596,0.89453 c 0,0 0.61891,0.85863 1.48053,1.75752 0.86163,0.89893 1.88864,1.93625 3.30212,2.14715 3.18099,0.47461 6.0405,-1.61491 8.13026,-3.40082 0.8693,-0.7429 1.62689,-1.7099 2.24947,-2.69441 -0.34584,1.20324 -0.71573,2.30481 -1.05833,2.82826 -1.39231,2.12712 -3.79544,4.78499 -9.01134,5.44669 -2.34821,0.29792 -3.66789,-0.91189 -4.61005,-2.34352 -0.94217,-1.43161 -1.28984,-2.9745 -1.28984,-2.9745 l -0.35141,-1.61076 -1.26607,1.05574 c 0,0 -0.86613,0.72147 -1.76371,1.47484 -0.35876,0.30112 -0.69644,0.5869 -1.01286,0.85474 -0.0144,-0.0389 -0.0256,-0.0594 -0.0398,-0.0987 -0.14457,-0.40042 -0.18391,-0.54107 -0.27595,-0.82735 1.27678,-1.02923 6.69576,-5.28331 11.63339,-7.20008 3.38026,-1.31223 6.15144,-1.61131 8.06463,-1.59163 z m 44.50012,0 c 1.91317,-0.0196 4.68439,0.2794 8.06463,1.59163 4.93762,1.91677 10.35658,6.17085 11.63338,7.20008 -0.0921,0.28628 -0.13139,0.42693 -0.27593,0.82735 -0.0143,0.0393 -0.0254,0.0598 -0.0398,0.0987 -0.31645,-0.26784 -0.65411,-0.55362 -1.01286,-0.85474 -0.8976,-0.75337 -1.76374,-1.47484 -1.76374,-1.47484 l -1.26605,-1.05574 -0.3514,1.61076 c 0,0 -0.34771,1.54289 -1.28984,2.9745 -0.94218,1.43163 -2.26184,2.64144 -4.61007,2.34352 -5.21589,-0.6617 -7.61897,-3.31952 -9.01134,-5.44669 -0.34261,-0.52345 -0.71247,-1.62502 -1.05833,-2.82826 0.62256,0.98451 1.38017,1.95151 2.24948,2.69441 2.08976,1.78591 4.9493,3.87543 8.13025,3.40082 1.41356,-0.21093 2.44105,-1.24865 3.30264,-2.14768 0.86167,-0.89905 1.48002,-1.75752 1.48002,-1.75752 l 0.64596,-0.8945 -0.95396,-0.55502 c 0,0 -2.82972,-1.64687 -6.93859,-3.24011 -4.20248,-1.62954 -8.35454,-1.95956 -8.35454,-1.95956 l -0.55552,-0.0455 c -0.0137,-0.0867 -0.047,-0.24889 -0.0574,-0.31626 0.48165,-0.0767 1.13387,-0.15607 2.03296,-0.16536 z m -76.87437,1.7875 h 5.3e-4 c 1.81876,-0.0293 3.75413,0.44167 6.08748,1.33427 -1.28127,3.03135 -2.19048,6.13007 -2.65875,9.24337 -0.84353,-0.19886 -1.82735,-0.38637 -2.8913,-0.36639 h -0.001 c -0.14696,0.003 -0.29453,0.01 -0.44183,0.0222 -1.14684,0.0956 -2.37718,0.45546 -3.42822,1.10329 -0.96113,0.5924 -1.79009,1.50421 -2.02055,2.69338 l -0.49816,0.34158 h 0.42065 c -0.18907,2.24387 0.94404,4.00304 2.35903,5.10407 0.88471,0.68837 1.78722,1.0486 2.48667,1.24645 l -0.0873,0.2408 h 1.42833 c 0,0 -0.005,-0.0267 -0.005,-0.0274 l 0.94465,-0.63045 0.48627,-1.33533 -0.86093,-0.37568 c 0,0 -0.71527,-0.31279 -1.50688,-0.69866 -0.79161,-0.38587 -1.75124,-0.97099 -1.79317,-1.01028 h -5.3e-4 c -0.23907,-0.22413 -0.31567,-0.34883 -0.40204,-0.58807 -0.0864,-0.23923 -0.15748,-0.62224 -0.23823,-1.20769 0.007,0.051 0.038,-0.0894 0.0491,-0.13488 0.72266,0.0907 1.94846,0.24088 2.26601,0.30438 0.0288,0.006 0.80154,0.27598 1.45056,0.61237 0.6493,0.33655 1.3097,0.82413 1.42472,0.9679 0.25808,0.32261 0.40681,0.49988 0.56327,0.68781 0.38249,4.80881 2.15812,9.3766 4.81108,13.58832 -1.40647,-0.0122 -3.13822,-0.0597 -4.87981,-0.28009 -2.98342,-0.37767 -9.2604,-2.58157 -12.0065,-4.88239 -2.62326,-2.19784 -5.2865,-7.91667 -5.2865,-11.92175 0,-1.92352 0.85325,-4.35851 2.12029,-6.48642 1.26704,-2.12788 2.95951,-3.95396 4.34547,-4.76096 l 0.0134,-0.008 0.0129,-0.008 c 3.05708,-1.90979 5.36876,-2.72944 7.73648,-2.76778 z m 107.03221,0 c 2.36794,0.0383 4.67974,0.85786 7.737,2.76778 l 0.013,0.008 0.0135,0.008 c 1.38595,0.80701 3.07846,2.63308 4.3455,4.76097 1.26701,2.12791 2.12026,4.5629 2.12026,6.48642 0,4.00508 -2.66322,9.72388 -5.28648,11.92175 -2.74611,2.30082 -9.02309,4.50472 -12.0065,4.88238 -0.42315,0.0536 -0.7515,0.0643 -1.14102,0.10026 1.89222,-4.12719 2.95603,-8.79661 2.83239,-14.06425 0.0109,-0.0135 0.014,-0.0169 0.0265,-0.032 0.11499,-0.14377 0.77542,-0.63135 1.4247,-0.9679 0.64903,-0.33639 1.42169,-0.6065 1.45056,-0.61238 0.31797,-0.0636 1.54344,-0.21407 2.26602,-0.30488 0.0111,0.0453 0.0418,0.18415 0.0491,0.13539 -0.0808,0.58544 -0.15184,0.96846 -0.2382,1.20769 -0.0864,0.23926 -0.16349,0.36394 -0.40257,0.58806 -0.0418,0.0392 -1.00158,0.62402 -1.79318,1.00976 -0.79159,0.38574 -1.50689,0.69866 -1.50689,0.69866 l -0.86092,0.37571 0.73691,2.0257 0.7333,-0.0331 c 0,0 1.97778,-0.0824 3.78269,-1.48672 1.41489,-1.10091 2.54812,-2.85973 2.35903,-5.10358 h 0.42066 l -0.49816,-0.34157 c -0.23048,-1.18917 -1.05942,-2.10098 -2.02054,-2.69338 -1.05109,-0.64784 -2.2814,-1.0077 -3.42824,-1.10329 -0.14729,-0.0127 -0.29485,-0.0198 -0.44182,-0.0222 v 0 c -1.04381,-0.0196 -2.01441,0.16298 -2.85047,0.35761 -0.70837,-3.16857 -1.87322,-6.32833 -3.41841,-9.42113 2.11008,-0.76832 3.89876,-1.17499 5.58363,-1.14773 z m -98.48597,0.65833 c -0.097,0.21725 -0.19488,0.43421 -0.28835,0.65218 0.0201,-0.045 0.0356,-0.0905 0.0558,-0.13539 z m 23.69933,0.32145 c -0.61779,1.18282 -1.54413,2.62866 -2.43861,3.39307 -1.95933,1.67444 -4.44855,3.25437 -6.53552,2.94296 -0.36897,-0.0551 -1.40129,-0.76822 -2.15387,-1.55337 -0.31912,-0.33295 -0.33261,-0.38706 -0.55242,-0.65477 1.01859,-0.54774 2.77211,-1.44825 5.59811,-2.54402 2.51692,-0.97597 4.61416,-1.36694 6.08231,-1.58387 z m 44.75749,0 c 1.46812,0.21693 3.56539,0.6079 6.08229,1.58387 2.82633,1.09591 4.58015,1.99599 5.59864,2.54352 -0.21987,0.26787 -0.2336,0.32208 -0.55293,0.65527 -0.75263,0.78526 -1.78498,1.49836 -2.15389,1.55337 -2.08693,0.31141 -4.57618,-1.26852 -6.5355,-2.94296 -0.89453,-0.76441 -1.82086,-2.21025 -2.43861,-3.39307 z m -69.10535,1.21129 c -1.42768,3.52745 -2.3872,7.13367 -2.74609,10.71925 0.006,-0.0747 0.002,-0.14854 0.009,-0.22326 l 0.0403,-0.44802 0.0372,-0.32041 c 0.3757,-3.24384 1.30867,-6.51391 2.65927,-9.72756 z m 43.14774,2.08203 c -0.18741,-0.004 -0.37603,0.007 -0.56637,0.0383 -0.72125,0.11922 -1.33998,0.48482 -1.84846,0.99581 -0.5086,0.51107 -0.96221,1.261 -0.78187,2.16419 0.17598,0.88114 0.8867,1.37416 1.5162,1.62057 0.62947,0.24643 1.27767,0.32102 1.89135,0.24701 0.62849,-0.0758 1.26301,-0.3072 1.8371,-0.70691 0.57407,-0.39976 1.18031,-1.08461 1.09916,-2.01954 -0.0745,-0.85868 -0.66265,-1.44695 -1.24955,-1.79575 -0.58674,-0.34872 -1.24052,-0.52912 -1.89703,-0.54364 z m 9.10333,0.0827 c -0.65651,0.0145 -1.30979,0.19489 -1.89653,0.54361 -0.5869,0.3488 -1.17554,0.93708 -1.25005,1.79575 -0.0811,0.93494 0.52509,1.61978 1.09916,2.01954 0.57409,0.39971 1.20912,0.63111 1.83761,0.70692 0.61367,0.074 1.26135,0 1.89084,-0.24702 0.6295,-0.24641 1.34022,-0.73943 1.5162,-1.62057 0.18034,-0.90318 -0.27326,-1.65312 -0.78187,-2.16419 -0.50848,-0.51099 -1.12723,-0.87659 -1.84846,-0.99581 -0.19034,-0.0312 -0.37846,-0.0423 -0.56587,-0.0382 z m -9.14725,1.91717 v 0 c 0.27567,0.006 0.67143,0.11573 0.91932,0.26305 0.22402,0.13316 0.26347,0.22656 0.26974,0.23667 -0.0135,0.0148 -0.058,0.0914 -0.24029,0.21807 -0.2566,0.17867 -0.68985,0.33327 -0.9343,0.36277 -0.22807,0.0275 -0.65042,-0.0175 -0.92244,-0.12401 -0.19897,-0.0779 -0.26239,-0.1473 -0.27906,-0.16021 0.006,0.004 0.0251,-0.14242 0.23307,-0.35139 0.22104,-0.22209 0.59632,-0.40704 0.75706,-0.43357 v 0 c 0.049,-0.008 0.11705,-0.013 0.19584,-0.0114 z m 9.19117,0.0827 v 0 c 0.0788,-0.003 0.14685,0.003 0.19585,0.0114 v 0 c 0.16073,0.0265 0.53604,0.21148 0.75708,0.43357 0.20788,0.20894 0.22693,0.35515 0.23304,0.35139 -0.0172,0.0135 -0.0812,0.0828 -0.27905,0.16021 -0.272,0.10644 -0.69438,0.15153 -0.92242,0.12401 -0.24445,-0.0295 -0.6777,-0.1841 -0.9343,-0.36277 -0.1823,-0.12671 -0.22638,-0.20373 -0.23979,-0.21857 0.007,-0.0109 0.0461,-0.10354 0.26924,-0.23617 0.24789,-0.14732 0.64365,-0.25704 0.91932,-0.26305 z m -58.99949,6.45025 h 5.3e-4 c 0.79577,-0.0209 1.4333,0.19807 1.94716,0.42841 -0.0115,0.17296 -0.0111,0.34544 -0.0196,0.51832 -0.56669,-0.35621 -1.20638,-0.69257 -1.88257,-0.88831 -0.0507,-0.0148 -0.10291,-0.0198 -0.154,-0.0336 0.0297,-0.003 0.0813,-0.0238 0.10852,-0.0249 z m 105.86898,0 c 0.0271,0 0.0788,0.0222 0.10853,0.0249 -0.0511,0.0138 -0.10335,0.0188 -0.15399,0.0336 -0.57639,0.16682 -1.12416,0.43641 -1.62317,0.73277 -0.0196,-0.15232 -0.0335,-0.30446 -0.0553,-0.45683 0.4826,-0.18918 1.04222,-0.35227 1.72392,-0.33436 z m -52.61695,6.45906 c 0.29998,0.003 0.59581,0.009 0.88678,0.0206 5.82004,0.23426 10.25226,1.29492 14.05599,5.43428 3.01548,3.28149 4.71865,9.05033 3.18172,13.06486 -1.90995,4.98887 -8.42862,7.82375 -14.03946,9.53791 -6.36566,1.94477 -13.70946,1.88563 -20.01428,-0.22479 -4.92789,-1.64952 -10.39639,-4.45614 -12.20907,-8.86923 -0.70008,-1.70437 -0.39341,-4.07824 0.58136,-5.76038 2.47629,-4.27334 7.69929,-7.30742 12.44782,-9.62318 5.23348,-2.55231 10.61051,-3.61104 15.10914,-3.58013 z m -22.80687,14.56862 -0.0548,0.004 c -1.4761,0.10003 -2.63484,0.79965 -2.98432,1.98694 -0.17473,0.59364 0.0584,1.43578 0.63201,1.83348 0.57363,0.39772 1.24981,0.45167 2.04742,0.35348 1.09297,-0.13454 4.55205,-0.0547 7.97987,0.15502 3.14063,0.1922 6.38294,0.22977 8.52868,0.34468 2.63311,0.1411 7.112,0.314 10.97452,0.4527 2.94955,0.10591 5.53665,0.19195 6.65748,0.22841 0.76549,0.0249 1.41015,-0.0947 1.94095,-0.40928 0.53078,-0.31457 0.93216,-0.9003 0.94777,-1.52292 0.0156,-0.62261 -0.30994,-1.17168 -0.75655,-1.53479 -0.44662,-0.36309 -1.02555,-0.57484 -1.68672,-0.62992 -0.89858,-0.0749 -3.92991,-0.23773 -7.41349,-0.41394 -4.84368,-0.24498 -10.45284,-0.50792 -11.97654,-0.55706 h -0.002 c -1.55199,-0.0532 -4.98399,-0.0826 -8.41912,-0.13538 -2.33293,-0.0358 -4.6614,-0.0821 -6.36085,-0.15246 z m 0.0656,2.00245 c 1.72986,0.0701 4.0138,0.11705 6.31848,0.15245 3.44486,0.053 6.91023,0.0838 8.38398,0.13436 h 0.001 10e-4 c 1.4489,0.0467 7.10265,0.31133 11.94141,0.55604 3.47937,0.17601 6.59267,0.34581 7.34838,0.40876 0.1271,0.0106 0.14239,0.0471 0.22944,0.0734 -0.12671,0.018 -0.25408,0.0383 -0.44339,0.032 -1.11839,-0.0364 -3.70477,-0.12258 -6.65128,-0.22842 -3.85836,-0.13853 -8.33929,-0.31138 -10.93835,-0.45061 -2.228,-0.11938 -5.44193,-0.15615 -8.5142,-0.34417 -3.46203,-0.21185 -6.73676,-0.33935 -8.33541,-0.14417 0.17859,-0.09 0.38763,-0.1688 0.65887,-0.18965 z"
         style="color:#000000;font-style:normal;font-variant:normal;font-weight:normal;font-stretch:normal;font-size:medium;line-height:normal;font-family:sans-serif;font-variant-ligatures:normal;font-variant-position:normal;font-variant-caps:normal;font-variant-numeric:normal;font-variant-alternates:normal;font-feature-settings:normal;text-indent:0;text-align:start;text-decoration:none;text-decoration-line:none;text-decoration-style:solid;text-decoration-color:#000000;letter-spacing:normal;word-spacing:normal;text-transform:none;writing-mode:lr-tb;direction:ltr;text-orientation:mixed;dominant-baseline:auto;baseline-shift:baseline;text-anchor:start;white-space:normal;shape-padding:0;clip-rule:nonzero;display:inline;overflow:visible;visibility:visible;isolation:auto;mix-blend-mode:normal;color-interpolation:sRGB;color-interpolation-filters:linearRGB;solid-color:#000000;solid-opacity:1;vector-effect:none;fill:#ac9d93;fill-opacity:1;fill-rule:nonzero;stroke:none;stroke-width:2;stroke-linecap:butt;stroke-linejoin:miter;stroke-miterlimit:4;stroke-dasharray:none;stroke-dashoffset:0;stroke-opacity:1;color-rendering:auto;image-rendering:auto;shape-rendering:auto;text-rendering:auto;enable-background:accumulate"
         inkscape:connector-curvature="0" />
      <path
         inkscape:connector-curvature="0"
         id="path1020"
         d="m 521.86083,-321.43642 -10.07845,5.65134 5.1847,4.95163 5.94278,-1.80557 4.83537,-5.41827 0.75706,-3.37913 z m 46.78165,0.11679 3.78685,7.74835 4.07829,2.15543 5.82602,0.34933 3.49538,-5.35935 -6.23372,-2.33061 -7.28225,-2.44689 z"
         style="fill:#e3dedb;stroke:#000000;stroke-width:0.264583px;stroke-linecap:butt;stroke-linejoin:miter;stroke-opacity:1" />
      <path
         inkscape:connector-curvature="0"
         id="path1026"
         d="m 519.68936,-290.44292 6.83837,-5.60252 8.81572,-4.03712 7.08555,-2.14215 5.27296,-0.49432 6.83836,0.57672 6.01449,2.05975 3.46038,2.30693 3.29559,4.44905 0.74152,3.13084 0.49433,4.861 -1.48302,4.53144 -4.61383,4.77861 -5.27296,2.80128 -5.68492,1.81258 -5.93209,1.15345 -6.75598,-0.32956 -4.53144,-0.65911 -4.20189,-1.23586 -6.83837,-3.37799 -3.46038,-3.2956 -1.97736,-6.01446 z"
         style="fill:#6c5d53;stroke:none;stroke-width:0.264583px;stroke-linecap:butt;stroke-linejoin:miter;stroke-opacity:1" />
      <path
         inkscape:connector-curvature="0"
         id="path908"
         d="m 545.94308,-351.85318 c -0.37502,0.002 -0.74916,0.0109 -1.12188,0.0258 -16.60867,0.66759 -35.15636,14.62696 -43.04493,30.92161 l 0.19896,-0.55705 c 0,0 -2.84162,-1.91799 -7.37062,-1.86605 -2.71739,0.0312 -6.04233,0.77131 -9.7255,3.06027 -7.29152,4.53144 -8.08671,11.31644 -7.78557,16.02489 0.20318,3.17672 2.67773,9.35196 8.60981,13.01832 5.93208,3.66636 13.14126,3.91308 16.76642,3.66591 0.82011,-0.0559 1.32424,-0.0756 1.67587,-0.0837 9.406,12.78004 27.69123,21.75595 42.63924,21.84829 16.4746,0.10176 38.77665,-6.21104 47.75679,-21.72375 3.6277,0.16185 8.92405,-0.27321 14.48025,-3.70726 5.93209,-3.66633 8.40663,-9.84105 8.60981,-13.01779 0.30114,-4.70845 -0.49406,-11.49345 -7.78558,-16.02489 -3.68316,-2.28893 -7.0081,-3.02905 -9.7255,-3.06027 -3.79675,-0.0435 -6.3822,1.28561 -7.12722,1.72032 -9.46274,-16.38046 -29.44865,-30.3434 -47.05035,-30.24468 z m -0.61907,1.52344 c 23.8025,0.27562 53.73232,24.94915 51.82576,48.27664 -1.73939,21.28237 -32.78602,35.43343 -54.10885,34.29143 -18.33728,-0.98208 -41.56335,-15.99369 -43.11673,-34.29143 -1.82405,-21.48599 21.58812,-47.00508 43.11673,-48.226 0.75383,-0.0427 1.51527,-0.059 2.28309,-0.0501 z m -13.84723,15.19338 c -0.57727,0.005 -1.34216,0.40095 -2.10684,1.10898 -1.11227,1.02989 -3.13056,3.78994 -3.13056,3.78994 0,0 3.29579,-1.27688 4.8612,-2.14199 1.56541,-0.86508 1.56544,-1.97747 1.02991,-2.51301 -0.16736,-0.16737 -0.39131,-0.24603 -0.65371,-0.24392 z m 33.98811,0 c -0.26239,-0.002 -0.48583,0.0765 -0.65318,0.24392 -0.53554,0.53554 -0.53602,1.64793 1.02939,2.51301 1.56541,0.86511 4.86119,2.14199 4.86119,2.14199 0,0 -2.0183,-2.76005 -3.13055,-3.78994 -0.76467,-0.70803 -1.52958,-1.10435 -2.10685,-1.10898 z m -16.50132,11.28871 c -6.21919,0.0627 -9.8774,2.91823 -11.76621,6.38101 -0.98867,1.81258 -1.30813,4.95089 -1.40094,5.52008 -0.1324,0.81206 1.18882,0.95555 1.1126,0.28835 0,0 0.14859,-2.52952 1.84949,-5.05653 1.64796,-2.44835 4.75281,-4.89448 10.59108,-5.0364 10.58688,-0.25731 13.5119,5.4787 13.67669,6.34381 0.16478,0.86511 -0.0408,4.73768 -0.0408,4.73768 0,0 0.37081,0.94768 0.74155,0.20619 0.37076,-0.74152 0.97139,-4.62719 0.70022,-5.72624 -0.27117,-1.09908 -3.95153,-7.88136 -14.85387,-7.65535 -0.20598,-0.004 -0.40915,-0.005 -0.60978,-0.003 z m -22.73246,0.51986 c -2.02807,-0.0209 -4.93198,0.29879 -8.4367,1.65933 -5.87278,2.27981 -12.4411,7.78508 -12.4411,7.78508 0,0 0.94759,3.09038 1.19476,2.84323 0.24717,-0.24717 3.70727,-3.1316 3.70727,-3.1316 0,0 1.48306,6.79759 7.00319,6.09729 5.52013,-0.70032 8.23887,-3.62537 9.72189,-5.8911 1.48302,-2.26574 2.43086,-8.98033 2.43086,-8.98033 0,0 -1.1521,-0.361 -3.18017,-0.3819 z m 44.47946,0 c -2.02808,0.0209 -3.18019,0.3819 -3.18019,0.3819 0,0 0.94785,6.71459 2.43086,8.98033 1.48305,2.26573 4.20177,5.1908 9.72191,5.8911 5.52013,0.7003 7.00317,-6.09729 7.00317,-6.09729 0,0 3.46009,2.8844 3.70729,3.1316 0.24715,0.24715 1.19475,-2.84323 1.19475,-2.84323 0,0 -6.56833,-5.50527 -12.4411,-7.78508 -3.5047,-1.36056 -6.40863,-1.68021 -8.43669,-1.65933 z m -76.88007,1.7875 c 2.25825,-0.0365 4.57715,0.59187 7.41815,1.76424 -1.63069,3.6178 -2.72854,7.33607 -3.15743,11.0391 -0.79612,-0.23116 -2.33382,-0.61775 -3.68866,-0.59219 -0.12793,0.002 -0.25416,0.008 -0.37775,0.0186 -1.97736,0.16478 -4.44941,1.31879 -4.61419,3.21374 -0.16478,1.89497 0.73963,3.27985 1.97765,4.24317 1.54552,1.20256 3.21325,1.27641 3.21324,1.27641 l 0.16485,-0.45271 c 0,0 -2.92514,-1.27751 -3.58427,-1.89547 -0.65912,-0.61791 -0.78245,-1.19433 -0.94723,-2.389 -0.0732,-0.53049 0.4532,-1.35909 0.4532,-1.35909 0,0 2.43047,0.28774 3.04839,0.41132 0.61793,0.12359 2.80114,1.11239 3.46026,1.93633 0.34863,0.43579 0.59182,0.72848 0.75602,0.92295 0.005,0.0686 0.006,0.13758 0.0114,0.20618 0.39421,5.23793 2.44903,10.23787 5.62756,14.78153 -1.05502,0.019 -4.131,0.041 -6.80682,-0.29765 -3.2544,-0.41196 -9.47483,-2.55413 -12.52326,-5.10823 -2.98096,-2.49756 -5.6441,-8.28022 -5.6441,-12.6881 0,-4.40785 3.70796,-10.21643 6.96236,-12.1114 3.14231,-1.96303 5.65807,-2.87785 8.25066,-2.91973 z m 107.06427,0 c 2.59259,0.0419 5.10836,0.9567 8.25066,2.91973 3.2544,1.89497 6.96237,7.70355 6.96237,12.1114 0,4.40788 -2.66316,10.19054 -5.64411,12.6881 -3.04843,2.5541 -9.26886,4.69627 -12.52326,5.10823 -1.06831,0.13523 -2.037,0.20957 -2.87581,0.2527 2.36093,-4.44278 3.64442,-9.61265 3.44114,-15.56496 0.0912,-0.1121 0.13663,-0.16407 0.24599,-0.30075 0.65913,-0.82394 2.84231,-1.81271 3.46024,-1.93633 0.61794,-0.12356 3.0484,-0.41185 3.0484,-0.41185 0,0 0.52642,0.82913 0.45321,1.35962 -0.16479,1.19467 -0.28814,1.77109 -0.94724,2.389 -0.6591,0.61796 -3.58428,1.89497 -3.58428,1.89497 l 0.16486,0.45321 c 0,0 1.66772,-0.0744 3.21323,-1.27694 1.23804,-0.96332 2.14244,-2.34767 1.97766,-4.24264 -0.16479,-1.89498 -2.63682,-3.04896 -4.61418,-3.21374 -0.12359,-0.0106 -0.24982,-0.0166 -0.37777,-0.0186 -1.29299,-0.0244 -2.75061,0.32637 -3.57444,0.55965 -0.71895,-3.74177 -2.12045,-7.51033 -4.06075,-11.17968 2.64303,-1.05735 4.84312,-1.6257 6.98408,-1.59112 z m -73.1728,0.73638 c -0.3309,1.30451 -1.80003,4.01307 -3.41891,5.39658 -2.02454,1.73016 -4.69891,3.56491 -7.33289,3.1719 -1.78245,-0.26593 -4.11964,-3.50107 -4.11964,-3.50107 0,0 2.76041,-1.60703 6.79752,-3.17243 4.03711,-1.56541 8.07392,-1.89498 8.07392,-1.89498 z m 41.49773,0 c 0,0 4.03682,0.32957 8.07392,1.89498 4.03711,1.5654 6.79751,3.1719 6.79751,3.1719 0,0 -2.33717,3.23564 -4.11964,3.5016 -2.63395,0.39301 -5.30834,-1.44174 -7.33287,-3.1719 -1.61888,-1.38351 -3.08801,-4.09207 -3.41892,-5.39658 z m -24.34942,5.53662 c -0.13319,-0.003 -0.26162,0.005 -0.38137,0.0248 -0.8822,0.14566 -1.9879,1.10083 -1.81282,1.97768 0.16602,0.83138 1.46513,1.17224 2.30685,1.07072 0.87294,-0.10528 2.13582,-0.77147 2.0598,-1.64743 -0.0734,-0.84643 -1.2401,-1.40528 -2.17246,-1.42576 z m 9.27333,0 c -0.93237,0.0205 -2.09953,0.57933 -2.173,1.42576 -0.076,0.87596 1.18689,1.54215 2.05983,1.64743 0.84172,0.10152 2.14083,-0.23934 2.30685,-1.07072 0.17508,-0.87685 -0.93011,-1.83202 -1.81231,-1.97768 -0.11975,-0.0198 -0.24816,-0.0277 -0.38137,-0.0248 z m -59.13023,6.53346 c 1.32236,-0.0348 2.3915,0.44001 2.99775,0.79116 -0.092,1.02383 -0.13203,2.04581 -0.11731,3.06337 -0.65039,-0.52781 -1.95944,-1.50976 -3.08663,-1.83605 -1.56541,-0.45315 -3.58376,-0.4532 -3.58376,-0.4532 0,0 2.22454,-1.52408 3.78995,-1.56528 z m 105.92171,0 c 1.56541,0.0412 3.78994,1.56528 3.78994,1.56528 0,0 -2.01834,5e-5 -3.58378,0.4532 -0.93181,0.26975 -1.98691,0.98865 -2.69491,1.52911 -0.0682,-0.94454 -0.18418,-1.89354 -0.34417,-2.8448 0.6255,-0.33729 1.61869,-0.73475 2.83292,-0.70279 z m -51.95499,5.53816 c -1.37948,-0.008 -2.7333,0.0774 -4.08604,0.21341 -4.69561,0.4721 -9.41308,1.35863 -15.52826,4.97075 -6.25415,3.69422 -10.63782,7.5487 -11.30215,10.60299 -0.33728,1.55067 -3.89811,7.62516 8.15609,13.63224 2.2391,1.11582 8.80375,3.68202 14.44874,3.78685 5.64497,0.10482 11.29856,-0.44077 18.17614,-3.20395 6.76015,-2.71597 9.32095,-7.45739 10.02006,-11.65198 0.69911,-4.19463 -0.22384,-12.64338 -10.13685,-16.48685 -3.55285,-1.37753 -6.71288,-1.84634 -9.74773,-1.86346 z m -0.68162,0.92035 c 0.31068,0.002 0.61759,0.009 0.92038,0.0212 5.92741,0.23858 10.73817,1.38925 14.75206,5.75728 3.26988,3.55836 5.10699,9.5857 3.37912,14.09888 -2.12624,5.55382 -8.99382,8.39928 -14.68127,10.13685 -6.57495,2.00869 -14.10415,1.94919 -20.62355,-0.23307 -5.03123,-1.6841 -10.80092,-4.52993 -12.81678,-9.43766 -0.85156,-2.07317 -0.48242,-4.70228 0.6413,-6.64147 2.6732,-4.61314 8.08245,-7.6835 12.87466,-10.02056 5.37747,-2.6225 10.894,-3.71343 15.55408,-3.68144 z m -22.80066,16.57006 c -2.28786,0.15505 -3.12841,2.50756 -0.49454,2.18332 1.34449,-0.1655 4.7153,-0.0616 8.1628,0.14935 3.10646,0.19011 6.33456,0.22752 8.52145,0.34468 2.61606,0.14014 7.09599,0.31302 10.95644,0.45164 2.94802,0.10586 5.53477,0.19201 6.65438,0.22841 2.53349,0.0824 2.30703,-1.93638 0.3297,-2.10116 -0.82714,-0.0689 -3.89946,-0.23524 -7.38095,-0.41135 -4.84159,-0.24489 -10.47427,-0.50866 -11.96001,-0.55655 -1.51263,-0.0519 -4.96216,-0.082 -8.40258,-0.13488 -2.33596,-0.0359 -4.66786,-0.0823 -6.38669,-0.15346 z"
         style="fill:#333333;stroke:#000000;stroke-width:0.264583px;stroke-linecap:butt;stroke-linejoin:miter;stroke-opacity:1" />
    </g>
  </g>
</svg>
