<?xml version="1.0" encoding="UTF-8" standalone="no"?>
<!-- Created with Inkscape (http://www.inkscape.org/) -->

<svg
   width="30mm"
   height="30mm"
   viewBox="0 0 30 30"
   version="1.1"
   id="svg2624"
   inkscape:version="1.1.1 (1:1.1+202109281949+c3084ef5ed)"
   sodipodi:docname="trooper.svg"
   xmlns:inkscape="http://www.inkscape.org/namespaces/inkscape"
   xmlns:sodipodi="http://sodipodi.sourceforge.net/DTD/sodipodi-0.dtd"
   xmlns="http://www.w3.org/2000/svg"
   xmlns:svg="http://www.w3.org/2000/svg">
  <sodipodi:namedview
     id="namedview2626"
     pagecolor="#ffffff"
     bordercolor="#666666"
     borderopacity="1.0"
     inkscape:pageshadow="2"
     inkscape:pageopacity="0.0"
     inkscape:pagecheckerboard="0"
     inkscape:document-units="mm"
     showgrid="false"
     width="30mm"
     inkscape:zoom="1.8116734"
     inkscape:cx="113.43104"
     inkscape:cy="145.16965"
     inkscape:window-width="1920"
     inkscape:window-height="1151"
     inkscape:window-x="0"
     inkscape:window-y="25"
     inkscape:window-maximized="1"
     inkscape:current-layer="layer1" />
  <defs
     id="defs2621" />
  <g
     inkscape:label="Layer 1"
     inkscape:groupmode="layer"
     id="layer1">
    <g
       id="g1051"
       transform="matrix(-0.23983511,0,0,0.23983511,116.36017,111.00725)"
       style="display:inline">
      <path
         sodipodi:nodetypes="cccccccccccccccccccccccccccccccccccccccccccccccccccccccccccsccccscccccccccccccccsccscccccsccccccccccccccccccccc"
         inkscape:connector-curvature="0"
         id="path1048"
         d="m 425.10574,-462.8481 -6.47722,0.0145 -0.095,0.38812 c -7.02241,0.73127 -13.95903,2.17388 -24.42165,6.35892 -6.13406,2.45364 -9.90528,4.73836 -12.46554,6.93292 -0.28883,0.24756 -0.55713,0.49432 -0.81545,0.74072 -0.0102,0.005 -0.0269,0.0129 -0.0369,0.018 -0.43427,0.22115 -0.57435,0.31968 -0.69529,0.39596 -0.24187,0.15258 -0.30091,0.19707 -0.36345,0.23961 h -2.2e-4 l -2.4e-4,2.3e-4 c -2.19067,1.49046 -4.05893,3.53571 -5.71228,5.81836 -1.67681,2.31499 -2.55077,3.7601 -3.37178,6.99356 0.004,-0.0164 -0.27649,0.82718 -0.19879,0.6328 -0.79888,1.99854 -0.80278,2.587 -1.01862,3.92503 -0.51486,3.19169 -0.68952,5.47115 -0.69091,9.00058 -10e-4,2.68101 -0.27718,2.66659 0.28089,1.09056 -0.2254,0.63657 -0.5946,2.39357 -0.60859,3.40984 -0.014,1.01628 0.0546,1.58669 0.12891,2.48278 0.0617,0.74441 0.11744,0.84625 0.14275,0.84704 -0.0249,0.003 -0.0787,0.0739 -0.18519,0.41856 -0.30421,0.98521 -0.46587,1.43396 -0.56108,2.52891 -0.26466,0.74488 -0.50833,1.5447 -0.57122,2.1161 -0.13776,1.25172 -0.0856,1.76263 -0.0802,2.7406 v 2.3e-4 c 0.01,1.71671 0.12013,3.31308 0.39734,4.78798 0.12774,0.67966 0.30619,1.65771 0.37014,2.02316 0.36828,2.10514 0.79359,3.36016 1.51766,4.89176 -0.11864,0.89065 -0.21436,1.65474 -0.28689,2.28446 -0.0202,0.0291 -0.0326,0.0466 -0.0537,0.077 -1.54844,0.68103 -2.59665,1.67461 -3.21865,2.36585 -1.93254,2.14762 -2.11311,3.27009 -2.17054,3.37894 l -0.0318,0.0602 -0.0307,0.0604 c -1.11122,2.19293 -1.91304,3.75543 -2.3075,6.92899 -0.32921,2.64867 -0.13149,5.52458 0.9093,8.2195 1.94665,5.04057 5.62792,9.49426 10.23413,12.56701 2.59849,1.73339 5.07278,2.95228 7.8187,3.84246 3.62848,1.17625 7.18357,1.40951 11.04104,1.35509 0.97834,0.0134 1.96739,-0.0131 2.95922,-0.0623 0.67743,0.69828 1.23506,1.26625 1.93093,1.99549 2.86716,3.00465 4.85095,4.79014 7.37129,6.59253 2.92112,2.08898 6.11697,3.74889 9.49525,4.8567 h 2.4e-4 c 2.22536,0.72973 4.24287,1.18149 6.67831,1.49829 1.83165,0.23825 3.63767,0.28726 5.45284,0.26013 1.92462,0.0269 3.67798,0.006 5.72334,-0.339 0.0533,-0.009 1.64251,-0.21315 2.53305,-0.29103 1.43646,-0.12563 2.01532,-0.0464 4.25989,-0.64964 l -2.4e-4,2.3e-4 c 1.00657,-0.27048 2.1218,-0.61785 3.17853,-0.96212 0.52838,-0.17212 1.0227,-0.33815 1.47616,-0.49927 0.33813,-0.12014 0.26921,0.0128 0.92867,-0.30487 2.45753,-0.7276 3.48431,-1.6443 4.62356,-2.51506 0.43223,-0.33037 0.8303,-0.67296 1.23055,-1.01493 1.05449,0.1551 2.09009,0.17911 3.23089,0.25829 h 2.2e-4 c 0.47606,0.033 1.00012,0.0349 1.55688,0.008 0.88829,0.0506 1.96945,0.0468 3.1866,-0.22831 0.45469,0.0331 0.95059,0.0588 1.5571,0.0588 2.55317,0 3.08685,-0.30409 4.49072,-0.56155 1.40386,-0.25746 2.81661,-0.54764 3.71516,-0.7368 3.73564,-0.78647 5.11627,-2.07222 7.33903,-3.82702 2.22275,-1.75481 4.51993,-4.04709 6.48252,-7.03922 4.53144,-6.9086 3.07201,-14.77375 1.52988,-20.17124 -2.22805,-7.79819 -8.39261,-11.99861 -10.01205,-13.18621 -0.21028,-0.1542 -0.41338,-0.28842 -0.61896,-0.43077 -0.18904,-0.55742 -0.50458,-1.27676 -1.19504,-2.46941 v -2.3e-4 c -0.31885,-0.55074 -0.70914,-1.09859 -1.15376,-1.62628 l -2.06121,-4.88069 c -0.0551,-0.17379 -0.10367,-0.31925 -0.15267,-0.46007 -0.11431,-0.32849 -0.24025,-0.67134 -0.38212,-1.04283 l -2.3e-4,-2.3e-4 v -2.3e-4 c 0.0161,0.0422 -0.0166,-0.0479 -0.0341,-0.0964 l -0.22255,-0.66093 c -0.01,-0.0311 -0.0103,-0.0362 -0.0198,-0.0669 l 0.45362,-2.16776 -2.45649,-6.14122 c 0.38533,-1.31616 0.64733,-2.68009 0.64733,-4.48564 0,-1.4872 -0.16103,-2.24012 -0.34846,-3.17439 -0.0307,-0.1528 -0.0873,-0.3363 -0.122,-0.49075 1.11527,-1.42094 2.12349,-3.71115 2.12349,-5.90137 0,-1.33614 -0.0725,-1.26762 -0.12523,-1.70907 -0.0527,-0.44145 -0.11666,-0.9164 -0.18679,-1.40558 -0.14026,-0.97839 -0.22988,-1.71469 -0.48336,-2.84577 -0.29216,-1.30364 -0.96842,-3.30565 -2.35687,-4.98469 -0.39924,-0.4828 -0.8117,-0.88578 -1.22524,-1.24992 -1.01744,-3.06017 -2.74217,-7.73971 -5.32439,-12.68532 -5.93598,-11.36889 -18.21732,-12.76934 -18.88787,-12.83797 -0.98667,-0.20241 -6.50553,-1.27713 -13.15714,-1.26214 z m -39.11307,13.67071 0.0812,0.0145 c -0.0213,-0.004 -0.0373,-0.005 -0.0583,-0.009 -0.007,-10e-4 -0.0157,-0.005 -0.0228,-0.006 z m -8.32812,5.22201 c -0.27203,0.63438 -0.45292,1.1346 -0.45292,1.1346 l 0.34268,-0.99187 z m -8.92195,31.41636 c -0.12323,0.20511 -0.41221,0.86252 -0.69414,1.61868 0.12613,-0.50792 0.33131,-1.01485 0.69414,-1.61868 z m 75.69401,71.21389 -0.033,0.018 h -2.2e-4 l -0.004,0.002 c 0.0164,-0.009 0.0206,-0.0104 0.0374,-0.0196 z"
         style="color:#000000;font-style:normal;font-variant:normal;font-weight:normal;font-stretch:normal;font-size:medium;line-height:normal;font-family:sans-serif;font-variant-ligatures:normal;font-variant-position:normal;font-variant-caps:normal;font-variant-numeric:normal;font-variant-alternates:normal;font-feature-settings:normal;text-indent:0;text-align:start;text-decoration:none;text-decoration-line:none;text-decoration-style:solid;text-decoration-color:#000000;letter-spacing:normal;word-spacing:normal;text-transform:none;writing-mode:lr-tb;direction:ltr;text-orientation:mixed;dominant-baseline:auto;baseline-shift:baseline;text-anchor:start;white-space:normal;shape-padding:0;clip-rule:nonzero;display:inline;overflow:visible;visibility:visible;opacity:1;isolation:auto;mix-blend-mode:normal;color-interpolation:sRGB;color-interpolation-filters:linearRGB;solid-color:#000000;solid-opacity:1;vector-effect:none;fill:#f9f9f9;fill-opacity:1;fill-rule:nonzero;stroke:none;stroke-width:16.5407;stroke-linecap:butt;stroke-linejoin:miter;stroke-miterlimit:4;stroke-dasharray:none;stroke-dashoffset:0;stroke-opacity:1;color-rendering:auto;image-rendering:auto;shape-rendering:auto;text-rendering:auto;enable-background:accumulate" />
      <path
         sodipodi:nodetypes="cscccccsccccccccccssscscccccccccccccccccccccccc"
         inkscape:connector-curvature="0"
         id="path980"
         d="m 385.19755,-440.67065 c 0,0 0.88784,-3.29767 11.98579,-7.73686 11.09795,-4.43918 16.86887,-5.39043 24.41549,-6.0246 7.5466,-0.63416 15.34687,1.01466 15.34687,1.01466 0,0 9.13203,1.33176 12.87363,8.49787 3.74159,7.1661 5.77092,14.52246 5.77092,14.52246 l 0.97307,8.32721 c 0,0 -0.35874,1.43496 -0.6278,1.70402 -0.26905,0.26905 -0.49326,0.31389 -0.49326,0.31389 l -2.24213,-0.44843 2.01791,3.81161 0.49328,7.04028 2.69054,6.72637 -0.40359,1.92822 1.4798,4.39457 3.0493,7.21963 c 0,0 0.40359,0 0.89685,0.85201 0.49326,0.85201 1.47981,4.2152 1.47981,4.2152 0,0 0.58293,-0.26906 2.60085,1.21074 2.01792,1.47981 5.51563,3.76677 6.95059,8.78913 1.43496,5.02236 2.24212,9.19271 -0.49327,13.36306 -2.73539,4.17035 -6.90574,6.95058 -8.60975,7.30932 -1.70402,0.35874 -5.47078,1.12107 -6.50217,1.12107 -1.03138,0 -3.2735,-0.3139 -3.2735,-0.3139 l -7.30932,-2.82508 -1.07622,0.40358 c 0,0 0,1.56949 -1.65918,3.18382 -1.65917,1.61433 -3.40802,3.04929 -4.52908,3.36319 -1.12107,0.3139 -6.41248,1.1659 -6.41248,1.1659 l -9.19271,0.13453 -8.38555,-4.39456 -7.35416,-5.29142 -15.56034,-8.38554 -9.05818,-0.58295 -8.83397,-3.22866 -2.33181,-3.94614 -1.52465,-4.12551 -0.13453,-2.15244 1.74886,-4.48425 3.63224,-5.29141 3.49772,-3.45287 -0.80717,-5.33626 -2.74116,-11.08566 2.51695,-4.96795 -0.44842,-6.59184 0.17937,-7.21964 z"
         style="fill:#cccccc;fill-opacity:1;stroke:none;stroke-width:0.118074px;stroke-linecap:butt;stroke-linejoin:miter;stroke-opacity:1" />
      <path
         sodipodi:nodetypes="sccscsccsccccccccccscccccsccssccccccccccscccscccsscsccccscccscccccccccccccccccccsccccccccccccccccccccccccccccccccccccccccsccscccccscsccccscccsccccscsscsssscsscccccscsscssccssscccccccccccccccssscscscscsscccccssccccscsccccscccccsscccccscccccccccsccccccsccccccscccscscccccccsccsccccccccscccsccccccscssssscsccsccccccsccccccccscsccccsccccccccscsccscscsssccccccccscccscscccccccsscccccccscccccsssccccccccccccccccccccccsccscccccsccccccsccccccccccscscccccccsccsacsccccssccssccscccsccccccccscccccccccccccccccccaccscc"
         inkscape:connector-curvature="0"
         id="path978"
         d="m 385.83331,-441.03074 c -0.0121,-0.002 -0.0718,0.0377 -0.17803,0.11001 -1.26244,0.85891 -2.29381,1.93668 -3.66651,3.83185 -0.81046,1.11893 -1.77544,3.08206 -2.0536,4.17755 -0.12567,0.4949 -0.36652,1.24499 -0.53526,1.66711 -0.16872,0.42211 -0.40876,1.39971 -0.53341,2.17236 -0.48244,2.9907 -0.58395,4.32277 -0.58529,7.68679 -10e-4,2.74729 -0.0341,3.39768 -0.19348,3.84777 -0.17269,0.48771 -0.17606,0.73155 -0.0337,2.44865 0.17152,2.0684 0.10758,2.80254 -0.38236,4.38925 -0.13034,0.42211 -0.24838,1.03314 -0.26244,1.35784 -0.0163,0.37709 -0.12798,0.761 -0.30925,1.06267 -0.27142,0.45174 -0.28339,0.55967 -0.27281,2.47955 0.008,1.49338 0.0734,2.33975 0.25505,3.30606 0.13426,0.71434 0.30929,1.67074 0.38882,2.12532 0.1636,0.93514 0.75027,2.63315 1.24439,3.60125 0.31954,0.62607 0.33475,0.73641 0.42109,3.06992 l 0.0895,2.42051 -0.2825,0.4294 c -0.15546,0.23609 -0.52939,0.73216 -0.8309,1.10233 -0.30151,0.37017 -0.52531,0.69601 -0.4972,0.72413 0.0281,0.0281 0.47089,-0.15841 0.9838,-0.41442 0.84524,-0.42188 1.33974,-0.77661 3.02632,-2.17168 0.30682,-0.25378 0.72503,-0.47838 0.96328,-0.51703 0.36623,-0.0594 0.46328,-0.0202 0.74511,0.30095 0.1782,0.20309 0.37231,0.36921 0.43147,0.36921 0.0592,0 0.35815,-0.25435 0.6644,-0.56546 0.30624,-0.31111 0.83057,-0.69562 1.16505,-0.85442 0.33449,-0.1588 0.60813,-0.32878 0.60813,-0.37752 0,-0.10393 0.8396,-0.47212 0.91184,-0.39988 0.0836,0.0836 -0.22432,1.53434 -0.37867,1.78402 -0.0803,0.12988 -0.66788,0.52428 -1.30549,0.87633 -1.79149,0.98914 -4.44358,3.23634 -5.16596,4.37726 v 2.4e-4 c -0.24519,0.38725 -0.22405,0.37866 0.56892,-0.23108 0.99888,-0.76806 2.09792,-1.29133 3.12596,-1.48814 0.42211,-0.0808 1.19288,-0.22695 1.71276,-0.3247 1.10857,-0.20844 1.74414,-0.4471 2.6472,-0.99395 l 0.65817,-0.39849 1.29881,0.0752 c 2.20413,0.12759 4.25857,0.38051 8.20612,1.01008 2.18201,0.348 3.02146,0.53313 4.50572,0.99394 0.7364,0.22863 1.94768,0.60462 2.6917,0.83551 1.08844,0.33778 1.40674,0.39509 1.62905,0.2938 0.15196,-0.0692 0.38505,-0.12568 0.51796,-0.12568 0.13778,0 0.26669,-0.096 0.30002,-0.22346 0.0728,-0.27832 0.63351,-0.40384 1.06728,-0.23892 0.26403,0.10038 0.34883,0.0841 0.47691,-0.0911 0.14881,-0.2035 0.17197,-0.20377 0.51496,-0.007 0.1975,0.11335 0.45927,0.20617 0.58161,0.20617 0.23622,0 0.52232,-0.40511 0.4121,-0.58345 -0.13681,-0.22135 -1.18053,-0.72115 -1.6452,-0.78777 -0.93885,-0.13461 -2.24003,-0.66185 -4.53822,-1.83914 -1.27725,-0.6543 -2.48167,-1.27079 -2.67649,-1.37007 -0.95552,-0.48694 -2.68104,-1.74418 -3.38309,-2.46502 -0.81734,-0.83923 -1.09536,-1.36167 -1.70446,-3.20206 -0.22818,-0.68946 -0.28481,-1.1066 -0.28481,-2.09834 0,-1.19416 0.0102,-1.24242 0.28527,-1.36777 0.26293,-0.11978 0.27998,-0.17867 0.22047,-0.75525 -0.11108,-1.07628 0.62708,-3.36425 1.33017,-4.12289 0.15294,-0.16503 0.33061,-0.30004 0.39481,-0.30004 0.2311,0 0.2679,0.25541 0.0685,0.47575 -0.11678,0.12902 -0.1768,0.32662 -0.14091,0.46377 0.0344,0.13145 0.015,0.59815 -0.0429,1.03707 -0.33605,2.54586 -0.37519,3.25299 -0.23568,4.25019 0.17896,1.2793 0.64466,2.77358 1.07696,3.45527 0.77717,1.22556 2.36564,2.40076 5.01329,3.70918 3.31043,1.63596 3.79837,1.7534 4.47504,1.07673 l 0.4091,-0.40934 0.14229,0.88163 c 0.14887,0.92284 0.2738,1.10369 0.38512,0.55693 0.46507,-2.28409 0.50943,-2.83298 0.2237,-2.77473 -0.19954,0.0407 -0.19263,0.01 0.2214,-0.98472 0.21949,-0.52727 0.46779,-0.93231 0.61988,-1.01124 0.55509,-0.28804 2.31807,-1.67885 2.38154,-1.87879 0.0372,-0.11709 0.37056,-0.50607 0.74096,-0.86434 0.38583,-0.37322 0.68334,-0.76716 0.69668,-0.92268 0.0128,-0.1493 0.0748,-0.56366 0.13767,-0.92084 0.13278,-0.7541 0.20222,-0.66298 -1.41342,-1.84951 -1.7048,-1.25201 -3.24885,-2.79368 -5.56515,-5.55639 -0.30781,-0.36714 -0.59144,-0.83682 -0.63026,-1.04376 -0.0388,-0.20694 -0.27584,-0.62484 -0.52673,-0.92844 -0.25088,-0.30361 -0.61487,-0.88777 -0.80876,-1.29812 -0.19388,-0.41035 -0.43592,-0.77811 -0.53801,-0.8173 -0.10209,-0.0392 -0.24944,-0.21878 -0.32747,-0.39918 -0.078,-0.18042 -0.23916,-0.45742 -0.35792,-0.61551 -0.23872,-0.31777 -0.19093,-0.8651 0.1047,-1.20103 0.14447,-0.16417 0.14168,-0.21066 -0.0207,-0.34546 -0.11813,-0.0979 -0.16268,-0.25523 -0.12037,-0.42386 0.0459,-0.18273 10e-4,-0.30507 -0.13906,-0.38374 -0.11349,-0.0635 -0.1673,-0.15442 -0.11969,-0.20201 0.0476,-0.0476 0.0289,-0.15592 -0.0415,-0.24077 -0.0704,-0.0849 -0.13944,-0.38194 -0.15336,-0.66024 -0.021,-0.42006 -0.0795,-0.53215 -0.34338,-0.66001 -0.40368,-0.19562 -0.40073,-0.37186 0.0125,-0.76771 l 0.33,-0.31617 0.98195,0.14298 c 0.9709,0.14151 0.98447,0.1401 1.20864,-0.13676 0.19777,-0.24423 0.26121,-0.26172 0.49559,-0.13629 0.27502,0.14719 0.55569,1.06303 0.61643,2.01071 0.28855,3.16705 2.20619,4.89409 4.03696,6.81652 1.24611,1.3805 3.34928,2.14585 5.25858,2.35909 4.94799,-0.23886 11.10847,-2.12473 14.51583,-5.41999 2.53408,-2.2665 5.97162,-4.52815 8.07337,-7.11404 0.32806,-0.69031 0.34024,-0.83208 0.10932,-1.27482 -0.15552,-0.29817 -0.15265,-0.33727 0.0302,-0.40541 0.31839,-0.11866 0.96995,-0.66714 0.96995,-0.8166 -1.72416,-0.0764 -4.12676,-0.20246 -5.90115,-0.0457 -4.85531,0.0731 -8.54585,0.57723 -13.4438,0.89293 -1.68771,0.0783 -3.23946,0.2571 -3.10876,0.0129 1.04054,-0.69808 2.23466,-0.68166 3.56192,-0.92402 4.70201,-0.8485 10.02471,-2.02989 15.19231,-1.99364 0.85758,0.0102 1.62138,-0.053 2.18436,-0.1808 0.60365,-0.13698 1.66986,-0.21529 3.52238,-0.25875 4.81642,-0.11296 7.84578,-0.1148 8.26515,-0.005 0.22729,0.0596 0.67893,0.18484 1.00363,0.27834 0.3247,0.0935 0.89646,0.20165 1.27068,0.24007 0.58447,0.06 0.70355,0.11463 0.8445,0.3872 0.1754,0.33919 0.84734,0.76236 1.42703,0.89893 0.19482,0.0459 0.44372,0.16419 0.55301,0.26266 0.17931,0.16158 0.26919,0.14129 0.92107,-0.20616 0.89416,-0.47658 1.30066,-0.93595 1.30066,-1.46993 0,-0.46384 -0.41061,-3.32798 -0.59522,-4.15171 -0.29698,-1.32522 -0.75192,-1.87533 -2.13408,-2.58079 -2.93083,-1.49591 -12.9394,-1.96197 -25.19514,-1.17359 -6.68817,0.43024 -18.65046,1.47127 -22.45452,1.95421 -1.05033,0.13334 -2.13956,0.22592 -2.42052,0.20571 -0.47773,-0.0344 -0.52843,-0.0725 -0.78385,-0.58714 -0.15021,-0.30266 -0.30344,-0.86056 -0.34038,-1.23978 -0.0369,-0.3792 -0.13463,-0.769 -0.21701,-0.86641 -0.18854,-0.22296 -0.52741,-1.03519 -0.52741,-1.26398 0,-0.36 -0.74137,-1.8767 -1.04283,-2.13341 -0.17326,-0.14752 -0.60483,-0.35357 -0.95889,-0.45799 -0.55782,-0.16453 -0.77086,-0.17011 -1.59607,-0.0417 -0.74214,0.11543 -1.19929,0.11803 -2.07183,0.0116 -0.6158,-0.0752 -1.26101,-0.14819 -1.43371,-0.16235 -0.18036,-0.0148 -0.42269,-0.16403 -0.56939,-0.35053 -0.19999,-0.25424 -0.35448,-0.3247 -0.71213,-0.3247 -0.25121,0 -0.4896,-0.0531 -0.52972,-0.11807 -0.0401,-0.0649 -0.24247,-0.11818 -0.44969,-0.11853 -0.20723,0 -0.56279,-0.0517 -0.79008,-0.11394 -0.2273,-0.0622 -2.15366,-0.13135 -4.28087,-0.15357 -2.44378,-0.0255 -3.91246,-0.0852 -3.98937,-0.16213 -0.0776,-0.0776 -0.0831,-0.22494 -0.015,-0.40656 0.0588,-0.1567 0.14406,-0.63641 0.18933,-1.0659 0.0664,-0.62957 0.0464,-0.8166 -0.10262,-0.96557 -0.24247,-0.24247 -0.23438,-0.30794 0.0809,-0.66094 0.14372,-0.1609 0.20673,-0.23296 0.19117,-0.23569 z m 10.8049,4.04702 c -0.0143,0 -0.0301,0.004 -0.0466,0.0143 -0.066,0.0408 -0.0895,0.12358 -0.0521,0.18403 0.10122,0.16378 0.17204,0.13314 0.17204,-0.0743 0,-0.0759 -0.0303,-0.12262 -0.0733,-0.12407 z m 55.72803,15.0212 c -0.43759,0.003 -0.7253,0.16961 -0.95913,0.51657 -0.49182,0.72981 -0.48659,0.75045 0.89755,3.56204 1.27801,2.596 2.05863,4.60626 2.68364,6.91077 0.17293,0.63762 0.36647,1.25799 0.43009,1.3786 0.16571,0.31416 0.26769,0.15779 0.72943,-1.11778 0.4913,-1.35722 0.78132,-2.68884 0.78132,-3.58833 0,-0.82126 -0.32071,-2.41979 -0.53295,-2.65666 -0.0873,-0.0974 -0.26662,-0.42928 -0.39872,-0.7375 -0.13212,-0.30822 -0.43051,-0.75059 -0.66302,-0.9831 -0.48048,-0.48047 -0.47276,-0.71069 0.0433,-1.27898 0.24632,-0.27121 0.26519,-0.32629 0.0899,-0.26359 -0.26196,0.0937 -0.54586,-0.10825 -0.54586,-0.38835 0,-0.38757 -0.74786,-0.94744 -1.58546,-1.18696 -0.39109,-0.11184 -0.70763,-0.16864 -0.97018,-0.16673 z m -69.38538,3.58833 c 0.51976,0 1.61548,0.62124 2.29899,1.30319 0.36901,0.36816 0.93478,0.83864 1.2573,1.0456 0.34093,0.21877 0.91889,0.79587 1.38067,1.3786 0.66154,0.83479 0.8362,0.98981 1.04514,0.92798 0.13798,-0.0408 0.3098,-0.14851 0.38189,-0.23937 0.23007,-0.28992 0.34616,-0.18092 0.48337,0.45454 0.0736,0.34094 0.29584,1.20435 0.49374,1.9187 0.41473,1.49699 0.46282,1.85603 0.56454,4.21467 0.10418,2.41571 -0.19609,4.58051 -0.80737,5.82159 -0.15993,0.3247 -0.39165,0.89738 -0.51496,1.27252 -0.12332,0.37513 -0.33238,0.75097 -0.46446,0.83528 -0.43549,0.27796 -0.65876,0.31822 -0.73035,0.13168 -0.0742,-0.19338 -0.0561,-0.28625 0.30487,-1.58201 0.26486,-0.95064 0.31169,-2.07144 0.12891,-3.08582 -0.0636,-0.35286 -0.13001,-1.2748 -0.14759,-2.04877 -0.036,-1.58202 -0.24437,-2.00637 -0.36275,-0.73865 -0.0404,0.43245 -0.20521,1.04925 -0.38581,1.44409 -0.28018,0.61255 -0.33207,0.6666 -0.46538,0.4843 -0.16232,-0.222 -0.24598,-0.81155 -0.36275,-2.55727 -0.0748,-1.11817 -0.33054,-2.62088 -0.48959,-2.8762 -0.0461,-0.074 -0.0698,-0.24373 -0.0526,-0.37705 0.0172,-0.13332 -0.15868,-0.8222 -0.39088,-1.53104 -1.06287,-3.24466 -2.5006,-4.92157 -4.36943,-5.09608 -0.4227,-0.0394 -0.76863,-0.11661 -0.76863,-0.17135 0,-0.26151 1.41767,-0.92913 1.97312,-0.92913 z m 7.62314,4.02096 c 0.13465,0.008 0.32194,0.11999 0.32194,0.226 0,0.067 -0.0766,0.12176 -0.17019,0.12176 -0.18805,0 -0.3633,-0.21414 -0.25991,-0.31755 0.0243,-0.0243 0.0633,-0.033 0.10816,-0.0302 z m -7.58001,2.35686 c 0.73254,-0.002 1.00729,0.30537 1.23101,1.37837 0.37189,1.7836 0.53439,5.148 0.26544,5.49596 -0.183,0.23679 -1.57191,0.38 -1.9187,0.19787 -0.41729,-0.21915 -0.87012,-0.938 -0.98587,-1.56517 -0.23621,-1.27983 -0.4012,-2.39633 -0.41579,-2.81255 -0.0196,-0.56009 -0.18963,-0.73493 -0.2011,-0.20686 -0.005,0.22189 -0.10242,0.61549 -0.21678,0.87472 l -0.20778,0.47137 -0.25575,-0.79124 c -0.14058,-0.43516 -0.25552,-0.88891 -0.25552,-1.00846 0,-0.29548 0.2274,-0.5009 0.55486,-0.5009 0.36788,0 0.34516,-0.28082 -0.0459,-0.56569 l -0.31779,-0.23154 0.37083,-0.19163 c 0.50576,-0.26155 1.74247,-0.54202 2.39883,-0.54425 z m 9.31906,1.17889 c 0.098,0 0.0279,0.14008 -0.17734,0.35422 -0.33605,0.35077 -0.53133,0.4453 -0.53133,0.25691 0,-0.15427 0.52973,-0.61113 0.70867,-0.61113 z m -13.03238,0.72667 c 0.10051,0 0.20187,0.0659 0.23799,0.16004 0.0458,0.11946 -0.0216,0.29232 -0.17296,0.4437 -0.21862,0.21862 -0.25656,0.22519 -0.32148,0.056 -0.11467,-0.29885 -0.0127,-0.61231 0.21355,-0.65587 0.0142,-0.003 0.0285,-0.004 0.0429,-0.004 z m -1.00963,0.46859 c 0.0852,-0.005 0.12054,0.11755 0.0528,0.33094 h 2.4e-4 c -0.0428,0.13477 -0.15395,0.24491 -0.24699,0.24491 -0.21411,0 -0.21469,-0.12884 -0.002,-0.41994 0.0756,-0.10342 0.14466,-0.15273 0.19579,-0.15591 z m 77.12636,6.72514 c -0.55887,-0.0104 -0.93104,0.0583 -1.6595,0.28434 -3.91637,1.6924 -8.31775,4.52159 -11.57791,7.22971 -4.44744,4.14928 -9.31828,6.00616 -14.50899,9.28055 -0.99941,0.64118 -3.2124,2.39712 -3.29616,2.61538 -0.0342,0.0893 -0.003,0.27276 0.069,0.40772 0.0722,0.13496 0.21328,0.24537 0.3134,0.24537 0.10013,0 0.67709,-0.29534 1.28199,-0.65632 1.16952,-0.69792 3.96246,-2.0244 6.20255,-2.94585 0.74682,-0.3072 1.46268,-0.63192 1.59078,-0.72159 0.12808,-0.0897 0.47346,-0.16401 0.76747,-0.16535 0.64087,-0.003 1.97254,-0.45339 2.63291,-0.89039 3.79799,-1.85818 7.45166,-3.82622 11.11968,-5.66039 2.98937,-1.39416 5.94309,-3.65209 8.76098,-3.4525 0.65463,0.0525 0.81086,0.115 1.22293,0.48728 0.32141,0.29037 0.58556,0.42663 0.82629,0.42663 0.19464,0 0.35399,-0.0486 0.35399,-0.10792 0,-0.0594 -0.18956,-0.60399 -0.4211,-1.21026 -0.23154,-0.60627 -0.54985,-1.59751 -0.70728,-2.20281 -0.4874,-1.65608 -1.28735,-2.8818 -2.71848,-2.95461 -0.089,-0.005 -0.17268,-0.008 -0.2525,-0.009 z m -68.51482,14.57449 c -0.59703,-0.0312 -2.83492,1.31142 -2.83492,1.72314 0,0.0619 -0.18567,0.27538 -0.41257,0.4746 -0.48658,0.42722 -1.23025,1.8668 -1.32348,2.56187 -0.0583,0.43494 -0.0344,0.50168 0.21539,0.60167 0.60608,0.24256 0.86566,0.058 1.10787,-0.78731 0.46997,-1.64021 1.4104,-2.88362 2.90479,-3.84062 0.38274,-0.2451 0.69599,-0.49161 0.69599,-0.54794 0,-0.0563 -0.1354,-0.13653 -0.30072,-0.17803 -0.0157,-0.004 -0.0331,-0.006 -0.0523,-0.007 z m 1.6611,0.19648 c -0.64621,0.0508 -1.94257,0.8686 -2.78487,1.7778 -0.79855,0.86195 -1.5317,2.19052 -1.66157,3.01087 -0.0716,0.4521 -0.0522,0.51103 0.20133,0.61251 0.40514,0.16217 0.76354,0.15056 0.91299,-0.0295 0.0716,-0.0862 0.2355,-0.49798 0.36437,-0.91507 0.46726,-1.51225 1.55573,-2.92405 2.87574,-3.7297 0.74562,-0.45508 0.8078,-0.66817 0.21217,-0.72666 -0.037,-0.004 -0.0771,-0.004 -0.12016,-2.3e-4 z m 1.86935,0.25575 c -1.02457,0.0514 -2.98983,1.68403 -3.78827,3.20621 -0.7864,1.4992 -0.84036,2.20939 -0.17757,2.33841 0.46333,0.0902 0.52184,0.084 0.64917,-0.0694 0.0693,-0.0834 0.2655,-0.53878 0.43609,-1.0117 0.17059,-0.47292 0.49067,-1.16767 0.71121,-1.54395 0.45013,-0.76804 1.60666,-1.89912 2.30728,-2.25655 0.57678,-0.29425 0.59779,-0.54964 0.0537,-0.65171 -0.0593,-0.0111 -0.12333,-0.0147 -0.19164,-0.0113 z m 1.88388,0.3616 c -0.28866,-0.004 -0.57663,0.14268 -1.25269,0.56938 -0.99485,0.62792 -1.95536,1.72012 -2.52682,2.87298 -0.72169,1.45594 -0.73274,2.03993 -0.0419,2.20973 0.6229,0.15311 0.69924,0.077 1.05482,-1.0486 0.48596,-1.53835 1.65105,-3.04553 2.99681,-3.87706 0.56817,-0.35106 0.58842,-0.53929 0.0731,-0.67777 -0.11076,-0.0298 -0.20704,-0.0474 -0.30326,-0.0487 z m 2.14239,0.49213 c -0.77442,0.0269 -2.40888,1.21831 -3.2046,2.37485 -0.75411,1.09607 -1.36759,2.63146 -1.21279,3.03486 0.04,0.10431 0.23957,0.23811 0.4437,0.29726 0.70848,0.20528 0.79691,0.14471 1.02046,-0.69783 0.43995,-1.65816 1.50729,-3.19147 2.83654,-4.07516 0.88211,-0.58642 0.93766,-0.78453 0.25944,-0.9236 -0.0435,-0.009 -0.0911,-0.0122 -0.14275,-0.0104 z m 13.81347,0.40426 c -0.23523,0 -0.30719,0.12589 -0.15751,0.27559 0.14382,0.1438 0.39366,0.0813 0.39366,-0.0985 0,-0.0984 -0.10496,-0.17711 -0.23615,-0.17711 z m 0.8196,0 c -0.0611,0 -0.11116,0.0531 -0.11116,0.11807 0,0.0649 0.0828,0.11808 0.18403,0.11808 0.10125,0 0.15128,-0.0531 0.11116,-0.11808 -0.0401,-0.0649 -0.12293,-0.11807 -0.18403,-0.11807 z m -12.67009,0.20064 c -0.18176,2.3e-4 -0.37252,0.085 -0.79262,0.29495 -0.81585,0.40768 -2.02654,1.52422 -2.2999,2.12094 -0.0994,0.21701 -0.30793,0.57004 -0.4633,0.78455 -0.37871,0.52282 -0.81121,1.84922 -0.72067,2.20996 0.0483,0.19256 0.19741,0.32385 0.45408,0.39942 0.50143,0.14763 0.81014,0.1116 0.91807,-0.10677 0.0481,-0.0974 0.25711,-0.70332 0.46445,-1.34655 0.30628,-0.95016 0.49579,-1.31555 1.01032,-1.94822 0.64772,-0.79643 1.07133,-1.17263 1.86196,-1.65372 0.53091,-0.32305 0.51616,-0.47022 -0.0673,-0.67224 -0.15022,-0.052 -0.25601,-0.0825 -0.36506,-0.0823 z m 2.13039,0.70313 c -0.11973,9e-4 -0.23326,0.0564 -0.4513,0.16766 -0.81324,0.41488 -1.76024,1.20706 -2.30959,1.93184 -0.66025,0.87111 -1.31151,2.23321 -1.40951,2.94816 -0.069,0.50369 -0.0539,0.53926 0.32655,0.77393 0.73405,0.4528 0.90854,0.32883 1.32718,-0.94274 0.20368,-0.61867 0.51578,-1.37076 0.69345,-1.67126 0.46593,-0.78803 1.46892,-1.84559 2.18598,-2.30474 0.34094,-0.21832 0.61989,-0.42435 0.61989,-0.45799 0,-0.0337 -0.22267,-0.16095 -0.49466,-0.28274 -0.24243,-0.10852 -0.36826,-0.16282 -0.48799,-0.16212 z m 2.27385,0.90839 c -0.27989,-0.005 -0.57315,0.12941 -0.9981,0.41464 -1.48307,0.99549 -2.50444,2.33935 -3.0713,4.04149 -0.35332,1.06092 -0.31798,1.20679 0.36899,1.52688 0.25356,0.11816 0.48754,0.21808 0.52003,0.22255 0.18965,0.0249 0.34988,-0.29127 0.68284,-1.34655 0.54084,-1.71412 1.74901,-3.38888 2.84968,-3.9504 0.60571,-0.309 0.6667,-0.42816 0.33185,-0.64756 -0.25683,-0.16829 -0.4663,-0.25694 -0.68399,-0.26105 z m -26.76053,0.5673 c -0.012,-8.9e-4 -0.0218,-3.5e-4 -0.0293,0.002 -0.20468,0.0726 -1.31369,1.54149 -1.61959,2.14516 -0.73172,1.44399 -1.35408,3.21751 -1.47754,4.21076 -0.19723,1.58682 -0.0587,2.98815 0.41695,4.21975 1.47981,3.83173 3.43557,6.21606 7.10887,8.66643 2.3654,1.57791 3.36932,2.07392 5.77938,2.85521 2.53031,0.82026 6.96925,1.16238 10.89599,0.83989 1.08565,-0.0892 2.38808,-0.16379 2.89419,-0.16557 l 0.92014,-0.004 1.20519,1.21233 c 0.66281,0.66671 2.21471,2.27016 3.44858,3.5632 2.74548,2.87712 3.98408,3.99096 6.19887,5.57483 2.15048,1.53787 4.91366,2.9554 7.26154,3.72531 1.98507,0.65095 2.95265,0.8674 5.16826,1.15561 2.13718,0.27798 5.71585,0.26235 7.46562,-0.0328 0.64941,-0.10951 2.084,-0.27819 3.18799,-0.37474 1.10399,-0.0966 2.37919,-0.27542 2.83377,-0.39758 1.43878,-0.38663 4.35476,-1.33661 4.72295,-1.53865 l 0.35422,-0.19441 -0.6441,-0.0367 c -0.35424,-0.0201 -0.75274,0.0161 -0.88556,0.0805 -0.35097,0.17012 -1.02914,0.23559 -1.31771,0.12707 -0.13737,-0.0516 -0.48274,-0.0416 -0.76748,0.0224 -0.53934,0.12121 -3.48621,0.22888 -5.98048,0.21862 -2.02041,-0.008 -2.59662,-0.26001 -1.45194,-0.63442 0.32066,-0.10488 0.73286,-0.19071 0.91599,-0.19071 0.18312,0 0.80166,-0.1594 1.37445,-0.35422 0.5728,-0.19482 1.12412,-0.35422 1.22525,-0.35422 0.20683,0 0.75395,-0.53957 0.65125,-0.64226 -0.0365,-0.0365 -0.23032,-0.0688 -0.43056,-0.0715 -0.40783,-0.006 -1.43103,-0.25491 -1.55456,-0.37844 -0.0441,-0.0442 -0.18057,-0.0267 -0.30325,0.039 -0.12269,0.0657 -0.27309,0.0887 -0.33416,0.051 -0.0611,-0.0378 -0.25287,0.0905 -0.42639,0.28527 -0.24907,0.27955 -0.36046,0.33015 -0.52835,0.24029 -0.11696,-0.0626 -0.30044,-0.11369 -0.40794,-0.11369 -0.10751,0 -0.28783,-0.11398 -0.40058,-0.25321 -0.1837,-0.22685 -0.34079,-0.25682 -1.51166,-0.28734 -0.71869,-0.0187 -1.52957,-0.0939 -1.80179,-0.1672 -0.2722,-0.0733 -0.92051,-0.12213 -1.44063,-0.10838 -0.92151,0.0244 -0.96411,0.013 -1.6724,-0.44739 -0.74938,-0.48709 -1.45146,-0.78431 -1.61453,-0.68354 -0.0511,0.0316 -0.20463,-0.13175 -0.34107,-0.36298 -0.16483,-0.27936 -0.32046,-0.40825 -0.46377,-0.38397 -0.18914,0.032 -0.96419,-0.59509 -0.96419,-0.78016 0.16116,-0.0837 0.24295,-0.0482 0.40426,0.0394 1.11504,-0.01 1.43061,-0.71821 1.48492,-1.53312 -0.17973,-0.50058 -0.32691,-0.99123 -0.59705,-1.51097 -0.38838,-0.73361 -1.12844,-0.87964 -1.56217,-0.89824 -0.087,-0.0356 -0.2081,-0.0762 -0.32033,-0.10516 -0.0485,-0.0125 -0.0971,-0.0373 -0.14597,-0.0733 -6.08195,0.98415 -8.3072,-5.14766 -8.54886,-8.09658 -0.42007,-0.0106 -0.71445,-0.2741 -1.08296,-0.40589 -2.5174,-0.58372 -3.80421,-2.89753 -4.06709,-5.38711 -1.47294,-0.12141 -2.77591,-1.09194 -3.71863,-1.41435 -4.44063,-1.73132 -8.44557,-2.7001 -12.58715,-4.27575 -3.27602,-1.24636 -5.36781,-2.57776 -9.68681,-4.0911 l -1.15975,-0.31641 c -0.0735,-0.0282 -0.0478,-0.0147 -0.0869,0.0224 -0.0719,0.13211 -0.17305,0.47885 -0.28549,1.00593 -0.52401,2.45621 -1.20429,4.3797 0.0175,7.14063 0.36868,1.16355 1.64407,3.29552 1.64407,3.29552 0,0 -0.85245,-0.16664 -1.34976,-0.56223 -3.18622,-2.53448 -3.97292,-5.58732 -3.51294,-9.69312 0.21469,-1.91627 0.39495,-2.60632 0.33534,-2.89491 -0.18907,-0.24844 -0.5189,-0.43036 -0.83416,-0.52277 z m 28.88147,0.32009 -0.40542,0.23915 c -0.91778,0.54151 -1.70744,1.21977 -2.23994,1.92377 -0.68025,0.89937 -1.47122,2.4964 -1.55848,3.14694 -0.0625,0.46623 -0.0553,0.47708 0.51173,0.77209 0.31632,0.16456 0.60844,0.30175 0.64918,0.30487 0.15586,0.0116 0.32669,-0.32239 0.63141,-1.23447 0.17358,-0.51952 0.46811,-1.21025 0.65448,-1.53495 0.50661,-0.8826 1.51265,-2.01142 2.21181,-2.48186 0.34094,-0.2294 0.61989,-0.47185 0.61989,-0.53871 0,-0.0669 -0.24183,-0.22858 -0.53733,-0.35929 z m 58.00394,0.13422 c -1.18898,0 -3.48315,1.77391 -5.13182,3.96792 -0.77153,1.02674 -1.22517,2.31438 -1.66549,4.72664 -0.57465,3.14818 -1.17657,4.74731 -2.39352,6.35984 -0.73848,0.97851 -1.30982,1.45951 -2.36679,1.99272 -0.67246,0.33925 -1.89225,0.69546 -2.04922,0.59844 -0.0539,-0.0333 -0.19296,-0.009 -0.30925,0.053 -0.11629,0.0624 -0.31774,0.14775 -0.44762,0.18979 -0.23503,0.0761 -0.23499,0.0775 0.006,0.27443 0.13305,0.10882 0.27457,0.28324 0.31456,0.38766 0.1343,0.35085 0.7596,0.3666 1.41297,0.0355 0.40315,-0.20431 0.63661,-0.26415 0.7172,-0.18357 0.16549,0.16549 -0.20026,2.38475 -1.22894,7.45571 -0.0725,0.35717 -0.19903,0.86194 -0.28134,1.1217 -0.0823,0.25976 -0.18677,0.71956 -0.23201,1.02161 -0.0707,0.47222 -0.0516,0.55913 0.13607,0.62012 0.20413,0.0663 1.1166,0.69595 2.27362,1.56886 0.82817,0.62482 2.63835,1.10902 4.67497,1.25038 0.75329,0.0523 1.27413,-0.0399 1.62722,-0.28757 0.30145,-0.2115 0.45668,-0.22361 1.89102,-0.14921 2.14312,0.11115 3.53693,-0.20765 3.69694,-0.8452 0.0946,-0.37687 -0.5852,-1.54726 -1.06243,-1.82922 -0.6224,-0.36773 -1.62936,-2.67829 -1.96713,-4.51332 -0.11978,-0.65079 -0.10748,-0.72388 0.25275,-1.50544 0.20825,-0.45179 0.41726,-0.82144 0.46469,-0.82144 0.0474,0 0.14496,0.39392 0.21655,0.87518 0.25546,1.71767 0.91176,2.90164 1.9865,3.58372 0.98546,0.62542 2.27138,0.80744 3.02448,0.42801 0.5179,-0.26093 3.86475,-1.72127 5.18527,-3.28393 1.44036,-1.70445 2.52935,-3.03924 2.58845,-6.17395 -0.008,-0.20869 -0.12454,-0.57384 -0.25805,-0.81153 -0.16707,-0.29786 -0.21965,-0.53794 -0.16812,-0.77255 0.11605,-0.52835 -0.16525,-1.03154 -0.65263,-1.16714 -0.2273,-0.0632 -0.49824,-0.1154 -0.60191,-0.11576 -0.10366,-3.6e-4 -0.36933,-0.0937 -0.59037,-0.20732 -0.63594,-0.32698 -1.99443,-0.27501 -2.88127,0.11023 -2.79997,1.21629 -2.85281,1.22961 -2.60454,0.65725 0.76566,-1.76509 0.89046,-2.41289 0.65887,-3.42229 -0.0635,-0.27693 -0.22388,-1.00912 -0.3563,-1.62698 -0.13242,-0.61786 -0.34609,-1.2965 -0.47483,-1.50821 -0.12875,-0.2117 -0.23407,-0.53641 -0.23407,-0.72158 0,-0.18517 -0.12828,-0.62678 -0.28505,-0.98126 -0.263,-0.59512 -0.2837,-0.77948 -0.2675,-2.40575 0.0208,-2.08542 -0.14597,-2.64098 -0.9379,-3.12457 -0.25178,-0.15375 -0.47581,-0.3226 -0.49789,-0.37544 -0.0838,-0.20037 -0.734,-0.44554 -1.1819,-0.44554 z m -55.66368,1.08158 c -0.26022,-0.0129 -0.5814,0.10259 -0.91835,0.4296 -0.5259,0.41985 -0.98241,0.8283 -1.37463,1.24487 -1.01137,1.08116 -2.18782,3.45817 -1.97981,4.00021 0.0357,0.0931 0.26207,0.28449 0.50296,0.42548 0.73283,0.4289 0.85933,0.3403 1.28037,-0.89754 0.41178,-1.21065 0.91055,-2.10702 1.64288,-2.95184 0.36915,-0.50125 0.7235,-0.94224 1.24848,-1.16529 0.71148,-0.29567 0.75042,-0.62322 0.15872,-0.90539 -0.23026,-0.1098 -0.40449,-0.17235 -0.56062,-0.1801 z m 2.26555,1.33063 c -0.0463,-0.002 -0.0869,0.002 -0.11947,0.0125 -0.95739,0.58988 -0.897,0.51295 -1.71783,1.26514 -0.70916,0.65367 -1.39578,1.67496 -1.88526,2.80449 -0.55333,1.27685 -0.56312,1.62237 -0.0567,1.96874 0.44551,0.30471 0.77634,0.3504 0.91853,0.12683 0.0516,-0.0812 0.28534,-0.63214 0.51957,-1.22455 0.46168,-1.16762 0.87899,-1.84859 1.75843,-2.86997 0.62118,-0.774 1.18945,-1.07979 1.59008,-1.57924 -0.0792,-0.2064 -0.68306,-0.49131 -1.00731,-0.50389 z m 37.94593,16.06771 c -1.44856,0.2815 -2.99819,0.62823 -4.38164,0.6471 -0.47589,4.4e-4 -1.48542,-0.11354 -2.2434,-0.25368 -2.08423,-0.38532 -2.02902,-0.39409 -2.40599,0.37267 -0.41659,0.84737 -0.55461,1.88578 -0.64502,4.84772 -0.0836,2.73791 0.0489,4.23115 0.50343,5.67261 0.15562,0.49352 0.41334,1.03813 0.57284,1.21025 0.24817,0.26778 0.38686,0.31294 0.96096,0.31294 h 0.67085 c 1.13677,-0.17334 2.9052,-1.49192 3.69951,-2.82472 0.97668,-1.63885 1.80382,-3.658 0.89037,-5.65375 -0.43773,-0.7289 1.36968,-2.19207 1.32441,-2.32619 -0.0482,-0.12568 0.0128,-0.17619 0.21263,-0.17619 0.51285,0 1.08975,-0.40382 1.19873,-0.8392 0.22208,-0.88728 0.19079,-0.97412 -0.35768,-0.98956 z"
         style="fill:#ffcc00;stroke-width:0.118074" />
      <path
         style="fill:#ff2a2a;fill-opacity:0.437126;stroke-width:0.118074"
         d="m 384.56497,-441.03074 c -0.0121,-0.002 -0.0718,0.0377 -0.17803,0.11001 -1.26245,0.85891 -2.29381,1.93668 -3.66651,3.83185 -0.81046,1.11893 -1.77545,3.08206 -2.05361,4.17755 -0.12566,0.4949 -0.36652,1.24499 -0.53525,1.66711 -0.16873,0.42211 -0.40877,1.39971 -0.53341,2.17236 -0.48244,2.9907 -0.58395,4.32277 -0.58529,7.68679 -0.001,2.74729 -0.0341,3.39768 -0.19348,3.84777 -0.17269,0.48771 -0.17606,0.73155 -0.0337,2.44865 0.17152,2.0684 0.10758,2.80254 -0.38236,4.38925 -0.13034,0.42211 -0.24838,1.03314 -0.26243,1.35784 -0.0163,0.37709 -0.12799,0.761 -0.30926,1.06267 -0.27142,0.45174 -0.28339,0.55967 -0.27281,2.47955 0.008,1.49338 0.0734,2.33975 0.25506,3.30606 0.13426,0.71434 0.30928,1.67074 0.38881,2.12532 0.16359,0.93514 0.75026,2.63315 1.24438,3.60126 0.31955,0.62606 0.33476,0.7364 0.42111,3.06991 l 0.0895,2.42051 -0.2825,0.4294 c -0.15546,0.23609 -0.52939,0.73216 -0.8309,1.10233 -0.30151,0.37017 -0.52531,0.69601 -0.4972,0.72413 0.0281,0.0281 0.47089,-0.15841 0.9838,-0.41442 0.84523,-0.42188 1.33974,-0.77661 3.02633,-2.17168 0.30681,-0.25378 0.72502,-0.47838 0.96327,-0.51703 0.36623,-0.0594 0.46328,-0.0202 0.74511,0.30095 0.17821,0.20309 0.37232,0.36921 0.43147,0.36921 0.0592,0 0.35816,-0.25435 0.6644,-0.56546 0.30624,-0.31111 0.83057,-0.69562 1.16505,-0.85442 0.33449,-0.1588 0.60813,-0.32878 0.60813,-0.37752 0,-0.10393 0.8396,-0.47212 0.91184,-0.39987 0.0836,0.0836 -0.22431,1.53433 -0.37866,1.78401 -0.0803,0.12988 -0.66789,0.52428 -1.3055,0.87633 -1.7915,0.98914 -4.44357,3.23634 -5.16596,4.37726 v 2.4e-4 c -0.24519,0.38725 -0.22405,0.37866 0.56892,-0.23108 0.99888,-0.76806 2.09791,-1.29133 3.12596,-1.48814 0.42211,-0.0808 1.19288,-0.22695 1.71276,-0.3247 1.10857,-0.20844 1.74414,-0.4471 2.6472,-0.99394 l 0.65817,-0.3985 1.29881,0.0752 c 2.20413,0.12759 4.25857,0.38051 8.20612,1.01008 2.18201,0.348 3.02146,0.53313 4.50572,0.99394 0.7364,0.22863 1.94769,0.60462 2.6917,0.83551 1.08844,0.33778 1.40674,0.39509 1.62905,0.2938 0.15197,-0.0692 0.38505,-0.12568 0.51796,-0.12568 0.13778,0 0.26669,-0.096 0.30002,-0.22347 0.0728,-0.27831 0.63352,-0.40383 1.06728,-0.23891 0.26403,0.10038 0.34883,0.0841 0.47692,-0.0911 0.1488,-0.2035 0.17196,-0.20377 0.51495,-0.007 0.19751,0.11335 0.45927,0.20617 0.58161,0.20617 0.23623,0 0.52232,-0.40511 0.4121,-0.58345 -0.1368,-0.22135 -1.18053,-0.72115 -1.64519,-0.78777 -0.93886,-0.13461 -2.24004,-0.66185 -4.53822,-1.83914 -1.27726,-0.6543 -2.48168,-1.27079 -2.6765,-1.37007 -0.95553,-0.48694 -2.68104,-1.74418 -3.38308,-2.46502 -0.81735,-0.83923 -1.09537,-1.36167 -1.70447,-3.20206 -0.22818,-0.68946 -0.2848,-1.1066 -0.2848,-2.09834 0,-1.19416 0.0102,-1.24242 0.28527,-1.36777 0.26292,-0.11978 0.27997,-0.17867 0.22046,-0.75525 -0.11108,-1.07628 0.62708,-3.36425 1.33017,-4.12289 0.15294,-0.16502 0.33061,-0.30004 0.39482,-0.30004 0.23109,0 0.26789,0.25541 0.0685,0.47575 -0.11677,0.12902 -0.17679,0.32662 -0.14091,0.46377 0.0344,0.13145 0.015,0.59815 -0.0429,1.03707 -0.33605,2.54586 -0.3752,3.25299 -0.23569,4.25019 0.17897,1.2793 0.64467,2.77358 1.07696,3.45527 0.77717,1.22556 2.36565,2.40076 5.01329,3.70918 3.31044,1.63596 3.79838,1.7534 4.47505,1.07673 l 0.4091,-0.40934 0.14229,0.88163 c 0.14886,0.92284 0.2738,1.10369 0.38512,0.55693 0.46507,-2.28409 0.50943,-2.83298 0.2237,-2.77473 -0.19954,0.0407 -0.19264,0.01 0.22139,-0.98472 0.2195,-0.52726 0.46779,-0.93231 0.61988,-1.01123 0.55509,-0.28805 2.31808,-1.67886 2.38154,-1.8788 0.0372,-0.11709 0.37056,-0.50607 0.74096,-0.86434 0.38584,-0.37322 0.68334,-0.76716 0.69668,-0.92268 0.0128,-0.1493 0.0748,-0.56366 0.13768,-0.92084 0.13277,-0.7541 0.20221,-0.66298 -1.41342,-1.84951 -1.7048,-1.25201 -3.24885,-2.79368 -5.56515,-5.55639 -0.30782,-0.36714 -0.59145,-0.83682 -0.63026,-1.04376 -0.0388,-0.20694 -0.27584,-0.62484 -0.52674,-0.92844 -0.25088,-0.30361 -0.61486,-0.88777 -0.80875,-1.29812 -0.19388,-0.41035 -0.43593,-0.77811 -0.53802,-0.8173 -0.10209,-0.0392 -0.24944,-0.21878 -0.32746,-0.39918 -0.078,-0.18042 -0.23916,-0.45742 -0.35792,-0.61551 -0.23872,-0.31777 -0.19094,-0.8651 0.1047,-1.20103 0.14446,-0.16417 0.14167,-0.21066 -0.0208,-0.34546 -0.11813,-0.098 -0.16268,-0.25523 -0.12037,-0.42386 0.0459,-0.18273 10e-4,-0.30507 -0.13906,-0.38374 -0.11349,-0.0635 -0.1673,-0.15442 -0.11969,-0.20202 0.0476,-0.0476 0.0289,-0.15591 -0.0415,-0.24076 -0.0704,-0.0849 -0.13944,-0.38194 -0.15335,-0.66024 -0.0211,-0.42006 -0.0795,-0.53215 -0.34339,-0.66001 -0.40368,-0.19562 -0.40073,-0.37186 0.0125,-0.76771 l 0.33001,-0.31617 0.98195,0.14298 c 0.9709,0.14151 0.98446,0.1401 1.20864,-0.13676 0.19777,-0.24424 0.26121,-0.26172 0.49559,-0.13629 0.27501,0.14719 0.55569,1.06303 0.61643,2.01071 0.28854,3.16705 2.20619,4.89409 4.03696,6.81652 1.2461,1.3805 3.34927,2.14585 5.25858,2.35909 4.94799,-0.23886 11.10846,-2.12473 14.51582,-5.41999 2.53409,-2.2665 5.97162,-4.52815 8.07337,-7.11404 0.32806,-0.69031 0.34025,-0.83209 0.10932,-1.27482 -0.15551,-0.29817 -0.15265,-0.33727 0.0302,-0.40541 0.31838,-0.11866 0.96994,-0.66714 0.96994,-0.8166 -1.72415,-0.0764 -4.12675,-0.20246 -5.90114,-0.0457 -4.85532,0.0731 -8.54586,0.57723 -13.4438,0.89293 -1.68771,0.0783 -3.23947,0.2571 -3.10877,0.0129 1.04054,-0.69808 2.23467,-0.68166 3.56192,-0.92402 4.70202,-0.8485 10.02471,-2.02989 15.19231,-1.99364 0.85758,0.0102 1.62139,-0.053 2.18437,-0.1808 0.60365,-0.13698 1.66986,-0.21529 3.52237,-0.25875 4.81642,-0.11296 7.84578,-0.1148 8.26516,-0.005 0.22729,0.0596 0.67893,0.18484 1.00363,0.27834 0.3247,0.0935 0.89646,0.20165 1.27067,0.24007 0.58448,0.06 0.70356,0.11463 0.84451,0.3872 0.1754,0.33919 0.84733,0.76237 1.42703,0.89893 0.19482,0.0459 0.44372,0.16419 0.55301,0.26266 0.17931,0.16158 0.26918,0.1413 0.92107,-0.20616 0.89416,-0.47658 1.30065,-0.93595 1.30065,-1.46993 0,-0.46383 -0.4106,-3.32798 -0.59521,-4.15171 -0.29699,-1.32522 -0.75193,-1.87533 -2.13409,-2.58079 -2.93082,-1.49591 -12.9394,-1.96197 -25.19513,-1.17359 -6.68817,0.43024 -18.65047,1.47127 -22.45453,1.95421 -1.05033,0.13334 -2.13955,0.22592 -2.42051,0.20571 -0.47774,-0.0344 -0.52844,-0.0725 -0.78386,-0.58714 -0.15021,-0.30266 -0.30344,-0.86056 -0.34038,-1.23978 -0.0369,-0.3792 -0.13463,-0.769 -0.21701,-0.86641 -0.18854,-0.22296 -0.5274,-1.03519 -0.5274,-1.26398 0,-0.35999 -0.74137,-1.8767 -1.04283,-2.1334 -0.17327,-0.14752 -0.60483,-0.35358 -0.95889,-0.458 -0.55783,-0.16453 -0.77086,-0.17011 -1.59608,-0.0417 -0.74214,0.11543 -1.19928,0.11803 -2.07182,0.0116 -0.6158,-0.0752 -1.26101,-0.14819 -1.43372,-0.16235 -0.18035,-0.0148 -0.42268,-0.16403 -0.56938,-0.35053 -0.19999,-0.25424 -0.35448,-0.3247 -0.71214,-0.3247 -0.25121,0 -0.4896,-0.0531 -0.52972,-0.11807 -0.0401,-0.0649 -0.24246,-0.11818 -0.44969,-0.11853 -0.20722,0 -0.56279,-0.0517 -0.79008,-0.11394 -0.22729,-0.0622 -2.15365,-0.13135 -4.28086,-0.15357 -2.44379,-0.0255 -3.91246,-0.0852 -3.98937,-0.16213 -0.0776,-0.0776 -0.0831,-0.22494 -0.015,-0.40656 0.0588,-0.1567 0.14405,-0.63641 0.18933,-1.0659 0.0664,-0.62957 0.0464,-0.8166 -0.10262,-0.96557 -0.24246,-0.24247 -0.23439,-0.30794 0.0809,-0.66094 0.14373,-0.1609 0.20674,-0.23296 0.19118,-0.23569 z m 10.8049,4.04702 c -0.0143,0 -0.0301,0.004 -0.0466,0.0143 -0.066,0.0408 -0.0895,0.12358 -0.0521,0.18403 0.10122,0.16378 0.17204,0.13314 0.17204,-0.0743 0,-0.0759 -0.0303,-0.12262 -0.0733,-0.12407 z m 55.72803,15.0212 c -0.43759,0.003 -0.7253,0.16961 -0.95912,0.51657 -0.49183,0.72981 -0.4866,0.75045 0.89755,3.56204 1.278,2.596 2.05862,4.60626 2.68363,6.91076 0.17293,0.63763 0.36647,1.258 0.4301,1.37861 0.1657,0.31416 0.26768,0.1578 0.72942,-1.11778 0.49129,-1.35722 0.78132,-2.68884 0.78132,-3.58833 0,-0.82126 -0.32072,-2.41979 -0.53295,-2.65666 -0.0873,-0.0974 -0.26662,-0.42928 -0.39873,-0.7375 -0.13211,-0.30822 -0.43051,-0.75059 -0.66302,-0.9831 -0.48047,-0.48047 -0.47275,-0.71069 0.0434,-1.27898 0.24633,-0.27121 0.2652,-0.32629 0.0899,-0.26359 -0.26195,0.0937 -0.54585,-0.10825 -0.54585,-0.38835 0,-0.38757 -0.74787,-0.94744 -1.58545,-1.18696 -0.3911,-0.11184 -0.70764,-0.16864 -0.9702,-0.16673 z m -69.38537,3.58833 c 0.51975,0 1.61547,0.62124 2.29897,1.30319 0.36902,0.36816 0.93479,0.83864 1.25731,1.0456 0.34093,0.21877 0.91889,0.79587 1.38067,1.3786 0.66154,0.83478 0.83619,0.98981 1.04514,0.92798 0.13797,-0.0408 0.30979,-0.14851 0.38189,-0.23937 0.23007,-0.28992 0.34616,-0.18092 0.48337,0.45454 0.0736,0.34094 0.29583,1.20435 0.49374,1.9187 0.41473,1.49699 0.46282,1.85603 0.56454,4.21467 0.10418,2.41571 -0.19609,4.58051 -0.80738,5.82159 -0.15992,0.3247 -0.39164,0.89738 -0.51495,1.27252 -0.12331,0.37513 -0.33238,0.75098 -0.46446,0.83528 -0.43549,0.27796 -0.65876,0.31822 -0.73035,0.13168 -0.0742,-0.19338 -0.0561,-0.28625 0.30487,-1.582 0.26486,-0.95065 0.31169,-2.07145 0.12892,-3.08583 -0.0636,-0.35286 -0.13001,-1.27479 -0.1476,-2.04877 -0.036,-1.58202 -0.24437,-2.00637 -0.36275,-0.73865 -0.0404,0.43245 -0.20521,1.04926 -0.38582,1.44409 -0.28017,0.61255 -0.33206,0.6666 -0.46537,0.4843 -0.16232,-0.222 -0.24598,-0.81155 -0.36276,-2.55727 -0.0748,-1.11817 -0.33052,-2.62088 -0.48959,-2.8762 -0.0461,-0.074 -0.0698,-0.24373 -0.0526,-0.37705 0.0172,-0.13332 -0.1587,-0.8222 -0.39089,-1.53104 -1.06287,-3.24466 -2.5006,-4.92157 -4.36942,-5.09608 -0.42272,-0.0394 -0.76864,-0.11661 -0.76864,-0.17135 0,-0.26151 1.41767,-0.92913 1.97313,-0.92913 z m 7.62313,4.02096 c 0.13465,0.008 0.32193,0.11999 0.32193,0.226 0,0.067 -0.0766,0.12176 -0.17019,0.12176 -0.18804,0 -0.36329,-0.21414 -0.2599,-0.31756 0.0243,-0.0243 0.0633,-0.033 0.10816,-0.0302 z m -7.58001,2.35686 c 0.73254,-0.002 1.00729,0.30537 1.23101,1.37837 0.37189,1.7836 0.53439,5.148 0.26543,5.49596 -0.18299,0.23679 -1.5719,0.38 -1.91869,0.19787 -0.41729,-0.21915 -0.87012,-0.938 -0.98587,-1.56517 -0.23621,-1.27983 -0.4012,-2.39633 -0.4158,-2.81255 -0.0196,-0.56008 -0.18962,-0.73493 -0.20109,-0.20686 -0.005,0.22189 -0.10241,0.61549 -0.21677,0.87472 l -0.20779,0.47137 -0.25575,-0.79124 c -0.14058,-0.43516 -0.25552,-0.88891 -0.25552,-1.00846 0,-0.29548 0.2274,-0.5009 0.55486,-0.5009 0.36788,0 0.34516,-0.28082 -0.0459,-0.56569 l -0.31779,-0.23154 0.37083,-0.19163 c 0.50576,-0.26155 1.74247,-0.54202 2.39883,-0.54425 z m 9.31906,1.17889 c 0.098,0 0.0279,0.14008 -0.17734,0.35422 -0.33605,0.35077 -0.53133,0.44529 -0.53133,0.25691 0,-0.15427 0.52973,-0.61113 0.70867,-0.61113 z m -13.03239,0.72667 c 0.10052,0 0.20188,0.0659 0.238,0.16004 0.0458,0.11946 -0.0216,0.29232 -0.17296,0.4437 -0.21863,0.21862 -0.25656,0.22519 -0.32148,0.056 -0.11467,-0.29885 -0.0127,-0.61231 0.21355,-0.65587 0.0141,-0.003 0.0286,-0.004 0.0429,-0.004 z m -1.00962,0.46859 c 0.0852,-0.005 0.12054,0.11755 0.0528,0.33094 h 2.4e-4 c -0.0428,0.13477 -0.15395,0.24491 -0.24699,0.24491 -0.21411,0 -0.2147,-0.12884 -0.002,-0.41994 0.0756,-0.10342 0.14465,-0.15273 0.19579,-0.15591 z m 77.12635,6.72514 c -0.55886,-0.0104 -0.93103,0.0583 -1.65948,0.28434 -3.91638,1.6924 -8.31776,4.52159 -11.57793,7.22971 -4.44743,4.14928 -9.31826,6.00616 -14.50898,9.28055 -0.99941,0.64118 -3.2124,2.39712 -3.29616,2.61538 -0.0343,0.0893 -0.003,0.27276 0.069,0.40772 0.0722,0.13496 0.21327,0.24537 0.31341,0.24537 0.10012,0 0.67708,-0.29534 1.28198,-0.65632 1.16952,-0.69792 3.96246,-2.0244 6.20255,-2.94585 0.74682,-0.3072 1.46267,-0.63192 1.59078,-0.72159 0.12809,-0.0897 0.47346,-0.16401 0.76748,-0.16535 0.64086,-0.003 1.97253,-0.45339 2.6329,-0.89039 3.79799,-1.85818 7.45166,-3.82622 11.11969,-5.66039 2.98936,-1.39416 5.94308,-3.65209 8.76097,-3.4525 0.65464,0.0525 0.81086,0.115 1.22293,0.48728 0.32141,0.29037 0.58555,0.42664 0.8263,0.42664 0.19462,0 0.35398,-0.0486 0.35398,-0.10793 0,-0.0594 -0.18956,-0.60399 -0.4211,-1.21026 -0.23154,-0.60627 -0.54985,-1.59751 -0.70728,-2.20281 -0.4874,-1.65608 -1.28735,-2.8818 -2.71847,-2.95461 -0.089,-0.005 -0.17269,-0.008 -0.25252,-0.009 z m -68.51481,14.57449 c -0.59703,-0.0312 -2.83492,1.31142 -2.83492,1.72314 0,0.0619 -0.18567,0.27538 -0.41257,0.4746 -0.48658,0.42722 -1.23025,1.8668 -1.32348,2.56188 -0.0583,0.43493 -0.0344,0.50167 0.21539,0.60167 0.60608,0.24255 0.86566,0.058 1.10786,-0.78732 0.46998,-1.64021 1.41041,-2.88362 2.9048,-3.84062 0.38274,-0.2451 0.69599,-0.49161 0.69599,-0.54794 0,-0.0563 -0.1354,-0.13653 -0.30072,-0.17803 -0.0157,-0.004 -0.0331,-0.006 -0.0523,-0.007 z m 1.6611,0.19648 c -0.64621,0.0508 -1.94257,0.8686 -2.78487,1.7778 -0.79855,0.86195 -1.5317,2.19052 -1.66157,3.01087 -0.0716,0.4521 -0.0522,0.51103 0.20133,0.61251 0.40514,0.16217 0.76354,0.15056 0.91299,-0.0295 0.0716,-0.0862 0.2355,-0.49798 0.36437,-0.91507 0.46725,-1.51225 1.55574,-2.92405 2.87574,-3.7297 0.74562,-0.45508 0.8078,-0.66817 0.21217,-0.72666 -0.037,-0.004 -0.0771,-0.004 -0.12016,-2.3e-4 z m 1.86935,0.25575 c -1.02456,0.0514 -2.98983,1.68403 -3.78827,3.20621 -0.7864,1.4992 -0.84036,2.20939 -0.17757,2.33841 0.46333,0.0902 0.52184,0.084 0.64917,-0.0694 0.0693,-0.0834 0.2655,-0.53878 0.43609,-1.0117 0.17059,-0.47292 0.49067,-1.16767 0.71121,-1.54395 0.45013,-0.76804 1.60666,-1.89912 2.30728,-2.25655 0.57678,-0.29425 0.59779,-0.54964 0.0537,-0.65171 -0.0593,-0.0111 -0.12334,-0.0147 -0.19164,-0.0113 z m 1.88388,0.3616 c -0.28866,-0.004 -0.57663,0.14268 -1.25269,0.56938 -0.99485,0.62792 -1.95536,1.72012 -2.52683,2.87298 -0.72168,1.45594 -0.73273,2.03994 -0.042,2.20973 0.6229,0.15311 0.69924,0.077 1.05482,-1.0486 0.48597,-1.53835 1.65105,-3.04552 2.99682,-3.87706 0.56816,-0.35106 0.58842,-0.53929 0.0731,-0.67777 -0.11075,-0.0298 -0.20703,-0.0474 -0.30326,-0.0487 z m 2.14239,0.49213 c -0.77442,0.0269 -2.40888,1.21831 -3.20459,2.37485 -0.75412,1.09607 -1.3676,2.63146 -1.2128,3.03486 0.04,0.10431 0.23957,0.23811 0.4437,0.29726 0.70848,0.20528 0.79691,0.14471 1.02046,-0.69783 0.43995,-1.65816 1.50729,-3.19147 2.83654,-4.07516 0.8821,-0.58642 0.93765,-0.78453 0.25944,-0.9236 -0.0435,-0.009 -0.0911,-0.0122 -0.14275,-0.0104 z m 13.81347,0.40426 c -0.23523,0 -0.30719,0.12589 -0.15751,0.27559 0.14381,0.1438 0.39366,0.0813 0.39366,-0.0985 0,-0.0984 -0.10496,-0.17711 -0.23615,-0.17711 z m 0.8196,0 c -0.0611,0 -0.11116,0.0531 -0.11116,0.11807 0,0.065 0.0828,0.11808 0.18403,0.11808 0.10125,0 0.15128,-0.0531 0.11116,-0.11808 -0.0401,-0.0649 -0.12293,-0.11807 -0.18403,-0.11807 z m -12.6701,0.20064 c -0.18175,2.3e-4 -0.37251,0.085 -0.79261,0.29495 -0.81585,0.40768 -2.02654,1.52422 -2.2999,2.12094 -0.0994,0.21701 -0.30793,0.57004 -0.4633,0.78455 -0.37871,0.52282 -0.81121,1.84922 -0.72067,2.20996 0.0483,0.19256 0.19741,0.32385 0.45408,0.39942 0.50143,0.14763 0.81014,0.1116 0.91807,-0.10677 0.0481,-0.0974 0.25712,-0.70332 0.46445,-1.34655 0.30629,-0.95016 0.49579,-1.31555 1.01032,-1.94821 0.64772,-0.79644 1.07133,-1.17264 1.86197,-1.65373 0.53091,-0.32305 0.51615,-0.47022 -0.0673,-0.67224 -0.15022,-0.052 -0.256,-0.0825 -0.36506,-0.0823 z m 2.1304,0.70313 c -0.11973,9e-4 -0.23327,0.0564 -0.45131,0.16766 -0.81323,0.41488 -1.76023,1.20706 -2.30958,1.93184 -0.66025,0.87111 -1.31151,2.23321 -1.40951,2.94816 -0.069,0.50369 -0.0539,0.53926 0.32655,0.77393 0.73405,0.4528 0.90853,0.32883 1.32718,-0.94274 0.20368,-0.61867 0.51578,-1.37076 0.69345,-1.67125 0.46593,-0.78804 1.46892,-1.8456 2.18598,-2.30475 0.34093,-0.21832 0.61988,-0.42435 0.61988,-0.45799 0,-0.0337 -0.22266,-0.16095 -0.49465,-0.28273 -0.24243,-0.10853 -0.36826,-0.16283 -0.48799,-0.16213 z m 2.27385,0.90839 c -0.27989,-0.005 -0.57315,0.12941 -0.9981,0.41464 -1.48307,0.99549 -2.50444,2.33935 -3.0713,4.04149 -0.35332,1.06092 -0.31797,1.20679 0.36899,1.52688 0.25355,0.11816 0.48754,0.21808 0.52003,0.22255 0.18964,0.0249 0.34988,-0.29127 0.68284,-1.34655 0.54084,-1.71412 1.74901,-3.38888 2.84968,-3.9504 0.60571,-0.309 0.6667,-0.42816 0.33185,-0.64756 -0.25683,-0.16829 -0.4663,-0.25694 -0.68399,-0.26105 z m -26.76053,0.5673 c -0.012,-8.9e-4 -0.0218,-3.5e-4 -0.0293,0.002 -0.20468,0.0726 -1.31369,1.54149 -1.61959,2.14516 -0.73173,1.44399 -1.35408,3.21751 -1.47753,4.21076 -0.19723,1.58682 -0.0587,2.98815 0.41694,4.21975 1.47982,3.83173 3.43557,6.21606 7.10887,8.66643 2.3654,1.57791 3.36932,2.07392 5.77938,2.85521 2.53031,0.82026 6.96925,1.16238 10.89599,0.83989 1.08565,-0.0892 2.38807,-0.16379 2.89419,-0.16557 l 0.92014,-0.004 1.20519,1.21233 c 0.66281,0.66671 2.21471,2.27016 3.44858,3.5632 2.74547,2.87712 3.98408,3.99096 6.19887,5.57483 2.15048,1.53787 4.91367,2.9554 7.26154,3.72531 1.98507,0.65095 2.95265,0.8674 5.16826,1.15561 2.13718,0.27798 5.71585,0.26235 7.46562,-0.0328 0.6494,-0.10951 2.08401,-0.27819 3.18799,-0.37474 1.104,-0.0965 2.37919,-0.27542 2.83377,-0.39758 1.43878,-0.38663 4.35476,-1.3366 4.72295,-1.53865 l 0.35422,-0.1944 -0.6441,-0.0367 c -0.35424,-0.0201 -0.75273,0.0161 -0.88555,0.0805 -0.35098,0.17011 -1.02915,0.23558 -1.31772,0.12707 -0.13736,-0.0517 -0.48274,-0.0416 -0.76748,0.0224 -0.53934,0.12121 -3.4862,0.22888 -5.98048,0.21862 -2.0204,-0.008 -2.59662,-0.26002 -1.45194,-0.63442 0.32066,-0.10489 0.73286,-0.19072 0.91599,-0.19072 0.18312,0 0.80166,-0.15939 1.37445,-0.35422 0.5728,-0.19482 1.12412,-0.35422 1.22525,-0.35422 0.20683,0 0.75395,-0.53957 0.65125,-0.64226 -0.0365,-0.0365 -0.23031,-0.0688 -0.43056,-0.0715 -0.40782,-0.006 -1.43103,-0.2549 -1.55456,-0.37843 -0.0441,-0.0442 -0.18057,-0.0267 -0.30324,0.039 -0.1227,0.0657 -0.27309,0.0887 -0.33416,0.051 -0.0611,-0.0378 -0.25288,0.0905 -0.4264,0.28527 -0.24907,0.27956 -0.36046,0.33015 -0.52835,0.2403 -0.11696,-0.0626 -0.30044,-0.11369 -0.40794,-0.11369 -0.10751,0 -0.28784,-0.11398 -0.40058,-0.25322 -0.1837,-0.22685 -0.34078,-0.25682 -1.51166,-0.28734 -0.71869,-0.0187 -1.52957,-0.0939 -1.80179,-0.16719 -0.2722,-0.0733 -0.92051,-0.12214 -1.44063,-0.10839 -0.92151,0.0244 -0.96411,0.013 -1.6724,-0.44739 -0.74938,-0.48709 -1.45146,-0.78431 -1.61453,-0.68353 -0.0511,0.0316 -0.20463,-0.13175 -0.34106,-0.36299 -0.16484,-0.27935 -0.32047,-0.40825 -0.46377,-0.38397 -0.18915,0.032 -0.9642,-0.59508 -0.9642,-0.78016 0.16116,-0.0837 0.24295,-0.0482 0.40427,0.0394 1.11503,-0.01 1.4306,-0.7182 1.48491,-1.53311 -0.17973,-0.50059 -0.32691,-0.99124 -0.59705,-1.51098 -0.38838,-0.73361 -1.12844,-0.87963 -1.56218,-0.89823 -0.087,-0.0356 -0.20809,-0.0762 -0.32031,-0.10516 -0.0485,-0.0125 -0.0971,-0.0373 -0.14598,-0.0733 -6.08195,0.98416 -8.30719,-5.14766 -8.54887,-8.09658 -0.42005,-0.0106 -0.71444,-0.2741 -1.08295,-0.40588 -2.5174,-0.58372 -3.80421,-2.89753 -4.06709,-5.38711 -1.47293,-0.12142 -2.77591,-1.09194 -3.71863,-1.41435 -4.44063,-1.73132 -8.44557,-2.7001 -12.58715,-4.27576 -3.27602,-1.24635 -5.36781,-2.57775 -9.68681,-4.0911 l -1.15975,-0.3164 c -0.0735,-0.0282 -0.0478,-0.0147 -0.0869,0.0224 -0.0719,0.13212 -0.17305,0.47886 -0.2855,1.00594 -0.524,2.4562 -1.20428,4.37969 0.0175,7.14063 0.36868,1.16355 1.64407,3.29552 1.64407,3.29552 0,0 -0.85246,-0.16665 -1.34976,-0.56223 -3.18622,-2.53448 -3.97292,-5.58732 -3.51294,-9.69312 0.21468,-1.91627 0.39495,-2.60632 0.33534,-2.89491 -0.18906,-0.24844 -0.5189,-0.43037 -0.83416,-0.52277 z m 28.88147,0.32009 -0.40542,0.23915 c -0.91778,0.54151 -1.70744,1.21977 -2.23994,1.92377 -0.68025,0.89937 -1.47123,2.4964 -1.55848,3.14694 -0.0625,0.46623 -0.0553,0.47708 0.51173,0.77209 0.31632,0.16456 0.60844,0.30175 0.64918,0.30487 0.15586,0.0116 0.32669,-0.32239 0.63141,-1.23447 0.17358,-0.51952 0.46811,-1.21025 0.65449,-1.53495 0.5066,-0.8826 1.51264,-2.01142 2.2118,-2.48186 0.34094,-0.2294 0.61989,-0.47185 0.61989,-0.53871 0,-0.0669 -0.24183,-0.22858 -0.53734,-0.35929 z m 58.00395,0.13422 c -1.18898,0 -3.48316,1.77391 -5.13183,3.96792 -0.77153,1.02674 -1.22517,2.31438 -1.66549,4.72664 -0.57464,3.14818 -1.17658,4.74731 -2.39352,6.35984 -0.73848,0.97851 -1.30981,1.45951 -2.36679,1.99272 -0.67247,0.33925 -1.89224,0.69546 -2.04921,0.59844 -0.0539,-0.0333 -0.19297,-0.009 -0.30927,0.053 -0.11629,0.0624 -0.31773,0.14775 -0.44761,0.18979 -0.23502,0.0761 -0.23499,0.0775 0.006,0.27443 0.13305,0.10882 0.27457,0.28324 0.31456,0.38766 0.13429,0.35085 0.7596,0.3666 1.41297,0.0355 0.40315,-0.20431 0.63661,-0.26415 0.71719,-0.18357 0.1655,0.16549 -0.20026,2.38475 -1.22893,7.45571 -0.0725,0.35717 -0.19904,0.86194 -0.28135,1.1217 -0.0823,0.25976 -0.18677,0.71956 -0.232,1.02161 -0.0707,0.47222 -0.0516,0.55913 0.13607,0.62012 0.20412,0.0663 1.1166,0.69595 2.27362,1.56886 0.82817,0.62482 2.63834,1.10902 4.67497,1.25038 0.75328,0.0523 1.27412,-0.0399 1.62721,-0.28757 0.30146,-0.2115 0.45668,-0.22361 1.89102,-0.14921 2.14312,0.11115 3.53694,-0.20765 3.69695,-0.8452 0.0946,-0.37687 -0.5852,-1.54727 -1.06243,-1.82922 -0.6224,-0.36773 -1.62937,-2.67829 -1.96713,-4.51332 -0.11979,-0.65079 -0.10748,-0.72388 0.25275,-1.50544 0.20825,-0.45179 0.41726,-0.82144 0.46469,-0.82144 0.0474,0 0.14496,0.39392 0.21655,0.87518 0.25546,1.71767 0.91176,2.90164 1.98649,3.58371 0.98547,0.62543 2.27139,0.80745 3.02448,0.42802 0.51791,-0.26093 3.86476,-1.72127 5.18528,-3.28393 1.44036,-1.70445 2.52935,-3.03924 2.58845,-6.17395 -0.008,-0.20869 -0.12455,-0.57384 -0.25805,-0.81153 -0.16708,-0.29786 -0.21965,-0.53794 -0.16812,-0.77255 0.11605,-0.52835 -0.16525,-1.03154 -0.65263,-1.16714 -0.2273,-0.0632 -0.49824,-0.1154 -0.60191,-0.11576 -0.10366,-3.6e-4 -0.36933,-0.0937 -0.59037,-0.20732 -0.63595,-0.32698 -1.99444,-0.27501 -2.88127,0.11023 -2.79997,1.21629 -2.85281,1.22961 -2.60454,0.65725 0.76566,-1.76509 0.89046,-2.41289 0.65887,-3.42229 -0.0636,-0.27693 -0.22388,-1.00912 -0.3563,-1.62698 -0.13242,-0.61785 -0.34609,-1.2965 -0.47484,-1.50821 -0.12875,-0.2117 -0.23407,-0.53641 -0.23407,-0.72158 0,-0.18517 -0.12827,-0.62678 -0.28504,-0.98126 -0.26301,-0.59512 -0.2837,-0.77948 -0.2675,-2.40575 0.0208,-2.08542 -0.14597,-2.64098 -0.9379,-3.12457 -0.25178,-0.15375 -0.47582,-0.3226 -0.49789,-0.37544 -0.0838,-0.20037 -0.734,-0.44554 -1.1819,-0.44554 z m -55.66368,1.08158 c -0.26023,-0.0129 -0.58141,0.10259 -0.91836,0.4296 -0.5259,0.41985 -0.98241,0.8283 -1.37464,1.24487 -1.01136,1.08116 -2.18781,3.45817 -1.9798,4.00021 0.0357,0.0931 0.26207,0.28449 0.50296,0.42548 0.73283,0.4289 0.85933,0.3403 1.28037,-0.89754 0.41178,-1.21065 0.91055,-2.10702 1.64287,-2.95184 0.36917,-0.50125 0.72351,-0.94224 1.24849,-1.16529 0.71148,-0.29567 0.75042,-0.62322 0.15872,-0.90539 -0.23026,-0.1098 -0.40449,-0.17235 -0.56061,-0.1801 z m 2.26553,1.33063 c -0.0463,-0.002 -0.0869,0.002 -0.11946,0.0125 -0.95739,0.58988 -0.897,0.51295 -1.71783,1.26514 -0.70916,0.65367 -1.39578,1.67496 -1.88526,2.80449 -0.55333,1.27685 -0.56312,1.62237 -0.0567,1.96874 0.44551,0.30471 0.77634,0.3504 0.91853,0.12683 0.0516,-0.0812 0.28534,-0.63214 0.51958,-1.22455 0.46167,-1.16762 0.87898,-1.84859 1.75842,-2.86997 0.62118,-0.774 1.18945,-1.07979 1.59007,-1.57924 -0.0792,-0.2064 -0.68305,-0.49131 -1.00731,-0.50389 z m 37.94594,16.06771 c -1.44856,0.2815 -2.99819,0.62823 -4.38164,0.6471 -0.47589,4.4e-4 -1.48542,-0.11354 -2.2434,-0.25368 -2.08423,-0.38532 -2.02902,-0.39409 -2.40599,0.37267 -0.41658,0.84737 -0.5546,1.88578 -0.64502,4.84772 -0.0836,2.73791 0.0489,4.23115 0.50342,5.67261 0.15563,0.49352 0.41335,1.03813 0.57285,1.21025 0.24817,0.26778 0.38686,0.31294 0.96096,0.31294 h 0.67086 c 1.13677,-0.17334 2.90519,-1.49192 3.6995,-2.82472 0.97668,-1.63885 1.80382,-3.658 0.89038,-5.65375 -0.43774,-0.7289 1.36968,-2.19207 1.3244,-2.32619 -0.0482,-0.12568 0.0128,-0.17619 0.21263,-0.17619 0.51286,0 1.08975,-0.40382 1.19873,-0.8392 0.22208,-0.88728 0.19079,-0.97412 -0.35768,-0.98956 z"
         id="path1006"
         inkscape:connector-curvature="0"
         sodipodi:nodetypes="sccscsccsccccccccccscccccsccssccccccccccscccscccsscsccccscccscccccccccccccccccccsccccccccccccccccccccccccccccccccccccccccsccscccccscsccccscccsccccscsscsssscsscccccscsscssccssscccccccccccccccssscscscscsscccccssccccscsccccscccccsscccccscccccccccsccccccsccccccscccscscccccccsccsccccccccscccsccccccscssssscsccsccccccsccccccccscsccccsccccccccscsccscscsssccccccccscccscscccccccsscccccccscccccsssccccccccccccccccccccccsccscccccsccccccsccccccccccscscccccccsccsacsccccssccssccscccsccccccccscccccccccccccccccccaccscc" />
      <path
         sodipodi:nodetypes="sccscsccsccccccccccscccccsccssccccccccccscccscccsscsccccscccscccccccccccccccccccsccccccccccccccccccccccccccccccccccccccccsccscccccscsccccscccsccccscsscsssscsscccccscsscssccssscccccccccccccccssscscscscsscccccssccccscsccccscccccsscccccscccccccccsccccccsccccccscccscscccccccsccsccccccccscccsccccccscssssscsccsccccccsccccccccscsccccsccccccccscsccscscsssccccccccscccscscccccccsscccccccscccccsssccccccccccccccccccccccsccscccccsccccccsccccccccccscscccccccsccsacsccccssccssccscccsccccccccscccccccccccccccccccaccscc"
         inkscape:connector-curvature="0"
         id="path1008"
         d="m 382.99956,-441.03074 c -0.0121,-0.002 -0.0718,0.0377 -0.17803,0.11001 -1.26245,0.85891 -2.29381,1.93668 -3.66651,3.83185 -0.81046,1.11893 -1.77545,3.08206 -2.05361,4.17755 -0.12566,0.4949 -0.36652,1.24499 -0.53525,1.66711 -0.16873,0.42211 -0.40877,1.39971 -0.53341,2.17236 -0.48244,2.9907 -0.58395,4.32277 -0.58529,7.68679 -10e-4,2.74729 -0.0341,3.39768 -0.19348,3.84777 -0.17269,0.48771 -0.17606,0.73155 -0.0337,2.44865 0.17152,2.0684 0.10758,2.80254 -0.38236,4.38925 -0.13034,0.42211 -0.24838,1.03314 -0.26243,1.35784 -0.0163,0.37709 -0.12799,0.761 -0.30926,1.06267 -0.27142,0.45174 -0.28339,0.55967 -0.27281,2.47955 0.008,1.49338 0.0734,2.33975 0.25506,3.30606 0.13426,0.71434 0.30928,1.67074 0.38881,2.12532 0.16359,0.93514 0.75026,2.63315 1.24438,3.60126 0.31955,0.62606 0.33476,0.7364 0.42111,3.06991 l 0.0895,2.42051 -0.2825,0.4294 c -0.15546,0.23609 -0.52939,0.73216 -0.8309,1.10233 -0.30151,0.37017 -0.52531,0.69601 -0.4972,0.72413 0.0281,0.0281 0.47089,-0.15841 0.9838,-0.41442 0.84523,-0.42188 1.33974,-0.77661 3.02633,-2.17168 0.30681,-0.25378 0.72502,-0.47838 0.96327,-0.51703 0.36623,-0.0594 0.46328,-0.0202 0.74511,0.30095 0.17821,0.20309 0.37232,0.36921 0.43147,0.36921 0.0592,0 0.35816,-0.25435 0.6644,-0.56546 0.30624,-0.31111 0.83057,-0.69562 1.16505,-0.85442 0.33449,-0.1588 0.60813,-0.32878 0.60813,-0.37752 0,-0.10393 0.8396,-0.47212 0.91184,-0.39987 0.0836,0.0836 -0.22431,1.53433 -0.37866,1.78401 -0.0803,0.12988 -0.66789,0.52428 -1.3055,0.87633 -1.7915,0.98914 -4.44357,3.23634 -5.16596,4.37726 v 2.4e-4 c -0.24519,0.38725 -0.22405,0.37866 0.56892,-0.23108 0.99888,-0.76806 2.09791,-1.29133 3.12596,-1.48814 0.42211,-0.0808 1.19288,-0.22695 1.71276,-0.3247 1.10857,-0.20844 1.74414,-0.4471 2.6472,-0.99394 l 0.65817,-0.3985 1.29881,0.0752 c 2.20413,0.12759 4.25857,0.38051 8.20612,1.01008 2.18201,0.348 3.02146,0.53313 4.50572,0.99394 0.7364,0.22863 1.94769,0.60462 2.6917,0.83551 1.08844,0.33778 1.40674,0.39509 1.62905,0.2938 0.15197,-0.0692 0.38505,-0.12568 0.51796,-0.12568 0.13778,0 0.26669,-0.096 0.30002,-0.22347 0.0728,-0.27831 0.63352,-0.40383 1.06728,-0.23891 0.26403,0.10038 0.34883,0.0841 0.47692,-0.0911 0.1488,-0.2035 0.17196,-0.20377 0.51495,-0.007 0.19751,0.11335 0.45927,0.20617 0.58161,0.20617 0.23623,0 0.52232,-0.40511 0.4121,-0.58345 -0.1368,-0.22135 -1.18053,-0.72115 -1.64519,-0.78777 -0.93886,-0.13461 -2.24004,-0.66185 -4.53822,-1.83914 -1.27726,-0.6543 -2.48168,-1.27079 -2.6765,-1.37007 -0.95553,-0.48694 -2.68104,-1.74418 -3.38308,-2.46502 -0.81735,-0.83923 -1.09537,-1.36167 -1.70447,-3.20206 -0.22818,-0.68946 -0.2848,-1.1066 -0.2848,-2.09834 0,-1.19416 0.0102,-1.24242 0.28527,-1.36777 0.26292,-0.11978 0.27997,-0.17867 0.22046,-0.75525 -0.11108,-1.07628 0.62708,-3.36425 1.33017,-4.12289 0.15294,-0.16502 0.33061,-0.30004 0.39482,-0.30004 0.23109,0 0.26789,0.25541 0.0685,0.47575 -0.11677,0.12902 -0.17679,0.32662 -0.14091,0.46377 0.0344,0.13145 0.015,0.59815 -0.0429,1.03707 -0.33605,2.54586 -0.3752,3.25299 -0.23569,4.25019 0.17897,1.2793 0.64467,2.77358 1.07696,3.45527 0.77717,1.22556 2.36565,2.40076 5.01329,3.70918 3.31044,1.63596 3.79838,1.7534 4.47505,1.07673 l 0.4091,-0.40934 0.14229,0.88163 c 0.14886,0.92284 0.2738,1.10369 0.38512,0.55693 0.46507,-2.28409 0.50943,-2.83298 0.2237,-2.77473 -0.19954,0.0407 -0.19264,0.01 0.22139,-0.98472 0.2195,-0.52726 0.46779,-0.93231 0.61988,-1.01123 0.55509,-0.28805 2.31808,-1.67886 2.38154,-1.8788 0.0372,-0.11709 0.37056,-0.50607 0.74096,-0.86434 0.38584,-0.37322 0.68334,-0.76716 0.69668,-0.92268 0.0128,-0.1493 0.0748,-0.56366 0.13768,-0.92084 0.13277,-0.7541 0.20221,-0.66298 -1.41342,-1.84951 -1.7048,-1.25201 -3.24885,-2.79368 -5.56515,-5.55639 -0.30782,-0.36714 -0.59145,-0.83682 -0.63026,-1.04376 -0.0388,-0.20694 -0.27584,-0.62484 -0.52674,-0.92844 -0.25088,-0.30361 -0.61486,-0.88777 -0.80875,-1.29812 -0.19388,-0.41035 -0.43593,-0.77811 -0.53802,-0.8173 -0.10209,-0.0392 -0.24944,-0.21878 -0.32746,-0.39918 -0.078,-0.18042 -0.23916,-0.45742 -0.35792,-0.61551 -0.23872,-0.31777 -0.19094,-0.8651 0.1047,-1.20103 0.14446,-0.16417 0.14167,-0.21066 -0.0208,-0.34546 -0.11813,-0.098 -0.16268,-0.25523 -0.12037,-0.42386 0.0459,-0.18273 10e-4,-0.30507 -0.13906,-0.38374 -0.11349,-0.0635 -0.1673,-0.15442 -0.11969,-0.20202 0.0476,-0.0476 0.0289,-0.15591 -0.0415,-0.24076 -0.0704,-0.0849 -0.13944,-0.38194 -0.15335,-0.66024 -0.0211,-0.42006 -0.0795,-0.53215 -0.34339,-0.66001 -0.40368,-0.19562 -0.40073,-0.37186 0.0125,-0.76771 l 0.33001,-0.31617 0.98195,0.14298 c 0.9709,0.14151 0.98446,0.1401 1.20864,-0.13676 0.19777,-0.24424 0.26121,-0.26172 0.49559,-0.13629 0.27501,0.14719 0.55569,1.06303 0.61643,2.01071 0.28854,3.16705 2.20619,4.89409 4.03696,6.81652 1.2461,1.3805 3.34927,2.14585 5.25858,2.35909 4.94799,-0.23886 11.10846,-2.12473 14.51582,-5.41999 2.53409,-2.2665 5.97162,-4.52815 8.07337,-7.11404 0.32806,-0.69031 0.34025,-0.83209 0.10932,-1.27482 -0.15551,-0.29817 -0.15265,-0.33727 0.0302,-0.40541 0.31838,-0.11866 0.96994,-0.66714 0.96994,-0.8166 -1.72415,-0.0764 -4.12675,-0.20246 -5.90114,-0.0457 -4.85532,0.0731 -8.54586,0.57723 -13.4438,0.89293 -1.68771,0.0783 -3.23947,0.2571 -3.10877,0.0129 1.04054,-0.69808 2.23467,-0.68166 3.56192,-0.92402 4.70202,-0.8485 10.02471,-2.02989 15.19231,-1.99364 0.85758,0.0102 1.62139,-0.053 2.18437,-0.1808 0.60365,-0.13698 1.66986,-0.21529 3.52237,-0.25875 4.81642,-0.11296 7.84578,-0.1148 8.26516,-0.005 0.22729,0.0596 0.67893,0.18484 1.00363,0.27834 0.3247,0.0935 0.89646,0.20165 1.27067,0.24007 0.58448,0.06 0.70356,0.11463 0.84451,0.3872 0.1754,0.33919 0.84733,0.76237 1.42703,0.89893 0.19482,0.0459 0.44372,0.16419 0.55301,0.26266 0.17931,0.16158 0.26918,0.1413 0.92107,-0.20616 0.89416,-0.47658 1.30065,-0.93595 1.30065,-1.46993 0,-0.46383 -0.4106,-3.32798 -0.59521,-4.15171 -0.29699,-1.32522 -0.75193,-1.87533 -2.13409,-2.58079 -2.93082,-1.49591 -12.9394,-1.96197 -25.19513,-1.17359 -6.68817,0.43024 -18.65047,1.47127 -22.45453,1.95421 -1.05033,0.13334 -2.13955,0.22592 -2.42051,0.20571 -0.47774,-0.0344 -0.52844,-0.0725 -0.78386,-0.58714 -0.15021,-0.30266 -0.30344,-0.86056 -0.34038,-1.23978 -0.0369,-0.3792 -0.13463,-0.769 -0.21701,-0.86641 -0.18854,-0.22296 -0.5274,-1.03519 -0.5274,-1.26398 0,-0.35999 -0.74137,-1.8767 -1.04283,-2.1334 -0.17327,-0.14752 -0.60483,-0.35358 -0.95889,-0.458 -0.55783,-0.16453 -0.77086,-0.17011 -1.59608,-0.0417 -0.74214,0.11543 -1.19928,0.11803 -2.07182,0.0116 -0.6158,-0.0752 -1.26101,-0.14819 -1.43372,-0.16235 -0.18035,-0.0148 -0.42268,-0.16403 -0.56938,-0.35053 -0.19999,-0.25424 -0.35448,-0.3247 -0.71214,-0.3247 -0.25121,0 -0.4896,-0.0531 -0.52972,-0.11807 -0.0401,-0.0649 -0.24246,-0.11818 -0.44969,-0.11853 -0.20722,0 -0.56279,-0.0517 -0.79008,-0.11394 -0.22729,-0.0622 -2.15365,-0.13135 -4.28086,-0.15357 -2.44379,-0.0255 -3.91246,-0.0852 -3.98937,-0.16213 -0.0776,-0.0776 -0.0831,-0.22494 -0.015,-0.40656 0.0588,-0.1567 0.14405,-0.63641 0.18933,-1.0659 0.0664,-0.62957 0.0464,-0.8166 -0.10262,-0.96557 -0.24246,-0.24247 -0.23439,-0.30794 0.0809,-0.66094 0.14373,-0.1609 0.20674,-0.23296 0.19118,-0.23569 z m 10.8049,4.04702 c -0.0143,0 -0.0301,0.004 -0.0466,0.0143 -0.066,0.0408 -0.0895,0.12358 -0.0521,0.18403 0.10122,0.16378 0.17204,0.13314 0.17204,-0.0743 0,-0.0759 -0.0303,-0.12262 -0.0733,-0.12407 z m 55.72803,15.0212 c -0.43759,0.003 -0.7253,0.16961 -0.95912,0.51657 -0.49183,0.72981 -0.4866,0.75045 0.89755,3.56204 1.278,2.596 2.05862,4.60626 2.68363,6.91076 0.17293,0.63763 0.36647,1.258 0.4301,1.37861 0.1657,0.31416 0.26768,0.1578 0.72942,-1.11778 0.49129,-1.35722 0.78132,-2.68884 0.78132,-3.58833 0,-0.82126 -0.32072,-2.41979 -0.53295,-2.65666 -0.0873,-0.0974 -0.26662,-0.42928 -0.39873,-0.7375 -0.13211,-0.30822 -0.43051,-0.75059 -0.66302,-0.9831 -0.48047,-0.48047 -0.47275,-0.71069 0.0434,-1.27898 0.24633,-0.27121 0.2652,-0.32629 0.0899,-0.26359 -0.26195,0.0937 -0.54585,-0.10825 -0.54585,-0.38835 0,-0.38757 -0.74787,-0.94744 -1.58545,-1.18696 -0.3911,-0.11184 -0.70764,-0.16864 -0.9702,-0.16673 z m -69.38537,3.58833 c 0.51975,0 1.61547,0.62124 2.29897,1.30319 0.36902,0.36816 0.93479,0.83864 1.25731,1.0456 0.34093,0.21877 0.91889,0.79587 1.38067,1.3786 0.66154,0.83478 0.83619,0.98981 1.04514,0.92798 0.13797,-0.0408 0.30979,-0.14851 0.38189,-0.23937 0.23007,-0.28992 0.34616,-0.18092 0.48337,0.45454 0.0736,0.34094 0.29583,1.20435 0.49374,1.9187 0.41473,1.49699 0.46282,1.85603 0.56454,4.21467 0.10418,2.41571 -0.19609,4.58051 -0.80738,5.82159 -0.15992,0.3247 -0.39164,0.89738 -0.51495,1.27252 -0.12331,0.37513 -0.33238,0.75098 -0.46446,0.83528 -0.43549,0.27796 -0.65876,0.31822 -0.73035,0.13168 -0.0742,-0.19338 -0.0561,-0.28625 0.30487,-1.582 0.26486,-0.95065 0.31169,-2.07145 0.12892,-3.08583 -0.0636,-0.35286 -0.13001,-1.27479 -0.1476,-2.04877 -0.036,-1.58202 -0.24437,-2.00637 -0.36275,-0.73865 -0.0404,0.43245 -0.20521,1.04926 -0.38582,1.44409 -0.28017,0.61255 -0.33206,0.6666 -0.46537,0.4843 -0.16232,-0.222 -0.24598,-0.81155 -0.36276,-2.55727 -0.0748,-1.11817 -0.33052,-2.62088 -0.48959,-2.8762 -0.0461,-0.074 -0.0698,-0.24373 -0.0526,-0.37705 0.0172,-0.13332 -0.1587,-0.8222 -0.39089,-1.53104 -1.06287,-3.24466 -2.5006,-4.92157 -4.36942,-5.09608 -0.42272,-0.0394 -0.76864,-0.11661 -0.76864,-0.17135 0,-0.26151 1.41767,-0.92913 1.97313,-0.92913 z m 7.62313,4.02096 c 0.13465,0.008 0.32193,0.11999 0.32193,0.226 0,0.067 -0.0766,0.12176 -0.17019,0.12176 -0.18804,0 -0.36329,-0.21414 -0.2599,-0.31756 0.0243,-0.0243 0.0633,-0.033 0.10816,-0.0302 z m -7.58001,2.35686 c 0.73254,-0.002 1.00729,0.30537 1.23101,1.37837 0.37189,1.7836 0.53439,5.148 0.26543,5.49596 -0.18299,0.23679 -1.5719,0.38 -1.91869,0.19787 -0.41729,-0.21915 -0.87012,-0.938 -0.98587,-1.56517 -0.23621,-1.27983 -0.4012,-2.39633 -0.4158,-2.81255 -0.0196,-0.56008 -0.18962,-0.73493 -0.20109,-0.20686 -0.005,0.22189 -0.10241,0.61549 -0.21677,0.87472 l -0.20779,0.47137 -0.25575,-0.79124 c -0.14058,-0.43516 -0.25552,-0.88891 -0.25552,-1.00846 0,-0.29548 0.2274,-0.5009 0.55486,-0.5009 0.36788,0 0.34516,-0.28082 -0.0459,-0.56569 l -0.31779,-0.23154 0.37083,-0.19163 c 0.50576,-0.26155 1.74247,-0.54202 2.39883,-0.54425 z m 9.31906,1.17889 c 0.098,0 0.0279,0.14008 -0.17734,0.35422 -0.33605,0.35077 -0.53133,0.44529 -0.53133,0.25691 0,-0.15427 0.52973,-0.61113 0.70867,-0.61113 z m -13.03239,0.72667 c 0.10052,0 0.20188,0.0659 0.238,0.16004 0.0458,0.11946 -0.0216,0.29232 -0.17296,0.4437 -0.21863,0.21862 -0.25656,0.22519 -0.32148,0.056 -0.11467,-0.29885 -0.0127,-0.61231 0.21355,-0.65587 0.0141,-0.003 0.0286,-0.004 0.0429,-0.004 z m -1.00962,0.46859 c 0.0852,-0.005 0.12054,0.11755 0.0528,0.33094 h 2.4e-4 c -0.0428,0.13477 -0.15395,0.24491 -0.24699,0.24491 -0.21411,0 -0.2147,-0.12884 -0.002,-0.41994 0.0756,-0.10342 0.14465,-0.15273 0.19579,-0.15591 z m 77.12635,6.72514 c -0.55886,-0.0104 -0.93103,0.0583 -1.65948,0.28434 -3.91638,1.6924 -8.31776,4.52159 -11.57793,7.22971 -4.44743,4.14928 -9.31826,6.00616 -14.50898,9.28055 -0.99941,0.64118 -3.2124,2.39712 -3.29616,2.61538 -0.0343,0.0893 -0.003,0.27276 0.069,0.40772 0.0722,0.13496 0.21327,0.24537 0.31341,0.24537 0.10012,0 0.67708,-0.29534 1.28198,-0.65632 1.16952,-0.69792 3.96246,-2.0244 6.20255,-2.94585 0.74682,-0.3072 1.46267,-0.63192 1.59078,-0.72159 0.12809,-0.0897 0.47346,-0.16401 0.76748,-0.16535 0.64086,-0.003 1.97253,-0.45339 2.6329,-0.89039 3.79799,-1.85818 7.45166,-3.82622 11.11969,-5.66039 2.98936,-1.39416 5.94308,-3.65209 8.76097,-3.4525 0.65464,0.0525 0.81086,0.115 1.22293,0.48728 0.32141,0.29037 0.58555,0.42664 0.8263,0.42664 0.19462,0 0.35398,-0.0486 0.35398,-0.10793 0,-0.0594 -0.18956,-0.60399 -0.4211,-1.21026 -0.23154,-0.60627 -0.54985,-1.59751 -0.70728,-2.20281 -0.4874,-1.65608 -1.28735,-2.8818 -2.71847,-2.95461 -0.089,-0.005 -0.17269,-0.008 -0.25252,-0.009 z m -68.51481,14.57449 c -0.59703,-0.0312 -2.83492,1.31142 -2.83492,1.72314 0,0.0619 -0.18567,0.27538 -0.41257,0.4746 -0.48658,0.42722 -1.23025,1.8668 -1.32348,2.56188 -0.0583,0.43493 -0.0344,0.50167 0.21539,0.60167 0.60608,0.24255 0.86566,0.058 1.10786,-0.78732 0.46998,-1.64021 1.41041,-2.88362 2.9048,-3.84062 0.38274,-0.2451 0.69599,-0.49161 0.69599,-0.54794 0,-0.0563 -0.1354,-0.13653 -0.30072,-0.17803 -0.0157,-0.004 -0.0331,-0.006 -0.0523,-0.007 z m 1.6611,0.19648 c -0.64621,0.0508 -1.94257,0.8686 -2.78487,1.7778 -0.79855,0.86195 -1.5317,2.19052 -1.66157,3.01087 -0.0716,0.4521 -0.0522,0.51103 0.20133,0.61251 0.40514,0.16217 0.76354,0.15056 0.91299,-0.0295 0.0716,-0.0862 0.2355,-0.49798 0.36437,-0.91507 0.46725,-1.51225 1.55574,-2.92405 2.87574,-3.7297 0.74562,-0.45508 0.8078,-0.66817 0.21217,-0.72666 -0.037,-0.004 -0.0771,-0.004 -0.12016,-2.3e-4 z m 1.86935,0.25575 c -1.02456,0.0514 -2.98983,1.68403 -3.78827,3.20621 -0.7864,1.4992 -0.84036,2.20939 -0.17757,2.33841 0.46333,0.0902 0.52184,0.084 0.64917,-0.0694 0.0693,-0.0834 0.2655,-0.53878 0.43609,-1.0117 0.17059,-0.47292 0.49067,-1.16767 0.71121,-1.54395 0.45013,-0.76804 1.60666,-1.89912 2.30728,-2.25655 0.57678,-0.29425 0.59779,-0.54964 0.0537,-0.65171 -0.0593,-0.0111 -0.12334,-0.0147 -0.19164,-0.0113 z m 1.88388,0.3616 c -0.28866,-0.004 -0.57663,0.14268 -1.25269,0.56938 -0.99485,0.62792 -1.95536,1.72012 -2.52683,2.87298 -0.72168,1.45594 -0.73273,2.03994 -0.042,2.20973 0.6229,0.15311 0.69924,0.077 1.05482,-1.0486 0.48597,-1.53835 1.65105,-3.04552 2.99682,-3.87706 0.56816,-0.35106 0.58842,-0.53929 0.0731,-0.67777 -0.11075,-0.0298 -0.20703,-0.0474 -0.30326,-0.0487 z m 2.14239,0.49213 c -0.77442,0.0269 -2.40888,1.21831 -3.20459,2.37485 -0.75412,1.09607 -1.3676,2.63146 -1.2128,3.03486 0.04,0.10431 0.23957,0.23811 0.4437,0.29726 0.70848,0.20528 0.79691,0.14471 1.02046,-0.69783 0.43995,-1.65816 1.50729,-3.19147 2.83654,-4.07516 0.8821,-0.58642 0.93765,-0.78453 0.25944,-0.9236 -0.0435,-0.009 -0.0911,-0.0122 -0.14275,-0.0104 z m 13.81347,0.40426 c -0.23523,0 -0.30719,0.12589 -0.15751,0.27559 0.14381,0.1438 0.39366,0.0813 0.39366,-0.0985 0,-0.0984 -0.10496,-0.17711 -0.23615,-0.17711 z m 0.8196,0 c -0.0611,0 -0.11116,0.0531 -0.11116,0.11807 0,0.065 0.0828,0.11808 0.18403,0.11808 0.10125,0 0.15128,-0.0531 0.11116,-0.11808 -0.0401,-0.0649 -0.12293,-0.11807 -0.18403,-0.11807 z m -12.6701,0.20064 c -0.18175,2.3e-4 -0.37251,0.085 -0.79261,0.29495 -0.81585,0.40768 -2.02654,1.52422 -2.2999,2.12094 -0.0994,0.21701 -0.30793,0.57004 -0.4633,0.78455 -0.37871,0.52282 -0.81121,1.84922 -0.72067,2.20996 0.0483,0.19256 0.19741,0.32385 0.45408,0.39942 0.50143,0.14763 0.81014,0.1116 0.91807,-0.10677 0.0481,-0.0974 0.25712,-0.70332 0.46445,-1.34655 0.30629,-0.95016 0.49579,-1.31555 1.01032,-1.94821 0.64772,-0.79644 1.07133,-1.17264 1.86197,-1.65373 0.53091,-0.32305 0.51615,-0.47022 -0.0673,-0.67224 -0.15022,-0.052 -0.256,-0.0825 -0.36506,-0.0823 z m 2.1304,0.70313 c -0.11973,9e-4 -0.23327,0.0564 -0.45131,0.16766 -0.81323,0.41488 -1.76023,1.20706 -2.30958,1.93184 -0.66025,0.87111 -1.31151,2.23321 -1.40951,2.94816 -0.069,0.50369 -0.0539,0.53926 0.32655,0.77393 0.73405,0.4528 0.90853,0.32883 1.32718,-0.94274 0.20368,-0.61867 0.51578,-1.37076 0.69345,-1.67125 0.46593,-0.78804 1.46892,-1.8456 2.18598,-2.30475 0.34093,-0.21832 0.61988,-0.42435 0.61988,-0.45799 0,-0.0337 -0.22266,-0.16095 -0.49465,-0.28273 -0.24243,-0.10853 -0.36826,-0.16283 -0.48799,-0.16213 z m 2.27385,0.90839 c -0.27989,-0.005 -0.57315,0.12941 -0.9981,0.41464 -1.48307,0.99549 -2.50444,2.33935 -3.0713,4.04149 -0.35332,1.06092 -0.31797,1.20679 0.36899,1.52688 0.25355,0.11816 0.48754,0.21808 0.52003,0.22255 0.18964,0.0249 0.34988,-0.29127 0.68284,-1.34655 0.54084,-1.71412 1.74901,-3.38888 2.84968,-3.9504 0.60571,-0.309 0.6667,-0.42816 0.33185,-0.64756 -0.25683,-0.16829 -0.4663,-0.25694 -0.68399,-0.26105 z m -26.76053,0.5673 c -0.012,-8.9e-4 -0.0218,-3.5e-4 -0.0293,0.002 -0.20468,0.0726 -1.31369,1.54149 -1.61959,2.14516 -0.73173,1.44399 -1.35408,3.21751 -1.47753,4.21076 -0.19723,1.58682 -0.0587,2.98815 0.41694,4.21975 1.47982,3.83173 3.43557,6.21606 7.10887,8.66643 2.3654,1.57791 3.36932,2.07392 5.77938,2.85521 2.53031,0.82026 6.96925,1.16238 10.89599,0.83989 1.08565,-0.0892 2.38807,-0.16379 2.89419,-0.16557 l 0.92014,-0.004 1.20519,1.21233 c 0.66281,0.66671 2.21471,2.27016 3.44858,3.5632 2.74547,2.87712 3.98408,3.99096 6.19887,5.57483 2.15048,1.53787 4.91367,2.9554 7.26154,3.72531 1.98507,0.65095 2.95265,0.8674 5.16826,1.15561 2.13718,0.27798 5.71585,0.26235 7.46562,-0.0328 0.6494,-0.10951 2.08401,-0.27819 3.18799,-0.37474 1.104,-0.0965 2.37919,-0.27542 2.83377,-0.39758 1.43878,-0.38663 4.35476,-1.3366 4.72295,-1.53865 l 0.35422,-0.1944 -0.6441,-0.0367 c -0.35424,-0.0201 -0.75273,0.0161 -0.88555,0.0805 -0.35098,0.17011 -1.02915,0.23558 -1.31772,0.12707 -0.13736,-0.0517 -0.48274,-0.0416 -0.76748,0.0224 -0.53934,0.12121 -3.4862,0.22888 -5.98048,0.21862 -2.0204,-0.008 -2.59662,-0.26002 -1.45194,-0.63442 0.32066,-0.10489 0.73286,-0.19072 0.91599,-0.19072 0.18312,0 0.80166,-0.15939 1.37445,-0.35422 0.5728,-0.19482 1.12412,-0.35422 1.22525,-0.35422 0.20683,0 0.75395,-0.53957 0.65125,-0.64226 -0.0365,-0.0365 -0.23031,-0.0688 -0.43056,-0.0715 -0.40782,-0.006 -1.43103,-0.2549 -1.55456,-0.37843 -0.0441,-0.0442 -0.18057,-0.0267 -0.30324,0.039 -0.1227,0.0657 -0.27309,0.0887 -0.33416,0.051 -0.0611,-0.0378 -0.25288,0.0905 -0.4264,0.28527 -0.24907,0.27956 -0.36046,0.33015 -0.52835,0.2403 -0.11696,-0.0626 -0.30044,-0.11369 -0.40794,-0.11369 -0.10751,0 -0.28784,-0.11398 -0.40058,-0.25322 -0.1837,-0.22685 -0.34078,-0.25682 -1.51166,-0.28734 -0.71869,-0.0187 -1.52957,-0.0939 -1.80179,-0.16719 -0.2722,-0.0733 -0.92051,-0.12214 -1.44063,-0.10839 -0.92151,0.0244 -0.96411,0.013 -1.6724,-0.44739 -0.74938,-0.48709 -1.45146,-0.78431 -1.61453,-0.68353 -0.0511,0.0316 -0.20463,-0.13175 -0.34106,-0.36299 -0.16484,-0.27935 -0.32047,-0.40825 -0.46377,-0.38397 -0.18915,0.032 -0.9642,-0.59508 -0.9642,-0.78016 0.16116,-0.0837 0.24295,-0.0482 0.40427,0.0394 1.11503,-0.01 1.4306,-0.7182 1.48491,-1.53311 -0.17973,-0.50059 -0.32691,-0.99124 -0.59705,-1.51098 -0.38838,-0.73361 -1.12844,-0.87963 -1.56218,-0.89823 -0.087,-0.0356 -0.20809,-0.0762 -0.32031,-0.10516 -0.0485,-0.0125 -0.0971,-0.0373 -0.14598,-0.0733 -6.08195,0.98416 -8.30719,-5.14766 -8.54887,-8.09658 -0.42005,-0.0106 -0.71444,-0.2741 -1.08295,-0.40588 -2.5174,-0.58372 -3.80421,-2.89753 -4.06709,-5.38711 -1.47293,-0.12142 -2.77591,-1.09194 -3.71863,-1.41435 -4.44063,-1.73132 -8.44557,-2.7001 -12.58715,-4.27576 -3.27602,-1.24635 -5.36781,-2.57775 -9.68681,-4.0911 l -1.15975,-0.3164 c -0.0735,-0.0282 -0.0478,-0.0147 -0.0869,0.0224 -0.0719,0.13212 -0.17305,0.47886 -0.2855,1.00594 -0.524,2.4562 -1.20428,4.37969 0.0175,7.14063 0.36868,1.16355 1.64407,3.29552 1.64407,3.29552 0,0 -0.85246,-0.16665 -1.34976,-0.56223 -3.18622,-2.53448 -3.97292,-5.58732 -3.51294,-9.69312 0.21468,-1.91627 0.39495,-2.60632 0.33534,-2.89491 -0.18906,-0.24844 -0.5189,-0.43037 -0.83416,-0.52277 z m 28.88147,0.32009 -0.40542,0.23915 c -0.91778,0.54151 -1.70744,1.21977 -2.23994,1.92377 -0.68025,0.89937 -1.47123,2.4964 -1.55848,3.14694 -0.0625,0.46623 -0.0553,0.47708 0.51173,0.77209 0.31632,0.16456 0.60844,0.30175 0.64918,0.30487 0.15586,0.0116 0.32669,-0.32239 0.63141,-1.23447 0.17358,-0.51952 0.46811,-1.21025 0.65449,-1.53495 0.5066,-0.8826 1.51264,-2.01142 2.2118,-2.48186 0.34094,-0.2294 0.61989,-0.47185 0.61989,-0.53871 0,-0.0669 -0.24183,-0.22858 -0.53734,-0.35929 z m 58.00395,0.13422 c -1.18898,0 -3.48316,1.77391 -5.13183,3.96792 -0.77153,1.02674 -1.22517,2.31438 -1.66549,4.72664 -0.57464,3.14818 -1.17658,4.74731 -2.39352,6.35984 -0.73848,0.97851 -1.30981,1.45951 -2.36679,1.99272 -0.67247,0.33925 -1.89224,0.69546 -2.04921,0.59844 -0.0539,-0.0333 -0.19297,-0.009 -0.30927,0.053 -0.11629,0.0624 -0.31773,0.14775 -0.44761,0.18979 -0.23502,0.0761 -0.23499,0.0775 0.006,0.27443 0.13305,0.10882 0.27457,0.28324 0.31456,0.38766 0.13429,0.35085 0.7596,0.3666 1.41297,0.0355 0.40315,-0.20431 0.63661,-0.26415 0.71719,-0.18357 0.1655,0.16549 -0.20026,2.38475 -1.22893,7.45571 -0.0725,0.35717 -0.19904,0.86194 -0.28135,1.1217 -0.0823,0.25976 -0.18677,0.71956 -0.232,1.02161 -0.0707,0.47222 -0.0516,0.55913 0.13607,0.62012 0.20412,0.0663 1.1166,0.69595 2.27362,1.56886 0.82817,0.62482 2.63834,1.10902 4.67497,1.25038 0.75328,0.0523 1.27412,-0.0399 1.62721,-0.28757 0.30146,-0.2115 0.45668,-0.22361 1.89102,-0.14921 2.14312,0.11115 3.53694,-0.20765 3.69695,-0.8452 0.0946,-0.37687 -0.5852,-1.54727 -1.06243,-1.82922 -0.6224,-0.36773 -1.62937,-2.67829 -1.96713,-4.51332 -0.11979,-0.65079 -0.10748,-0.72388 0.25275,-1.50544 0.20825,-0.45179 0.41726,-0.82144 0.46469,-0.82144 0.0474,0 0.14496,0.39392 0.21655,0.87518 0.25546,1.71767 0.91176,2.90164 1.98649,3.58371 0.98547,0.62543 2.27139,0.80745 3.02448,0.42802 0.51791,-0.26093 3.86476,-1.72127 5.18528,-3.28393 1.44036,-1.70445 2.52935,-3.03924 2.58845,-6.17395 -0.008,-0.20869 -0.12455,-0.57384 -0.25805,-0.81153 -0.16708,-0.29786 -0.21965,-0.53794 -0.16812,-0.77255 0.11605,-0.52835 -0.16525,-1.03154 -0.65263,-1.16714 -0.2273,-0.0632 -0.49824,-0.1154 -0.60191,-0.11576 -0.10366,-3.6e-4 -0.36933,-0.0937 -0.59037,-0.20732 -0.63595,-0.32698 -1.99444,-0.27501 -2.88127,0.11023 -2.79997,1.21629 -2.85281,1.22961 -2.60454,0.65725 0.76566,-1.76509 0.89046,-2.41289 0.65887,-3.42229 -0.0636,-0.27693 -0.22388,-1.00912 -0.3563,-1.62698 -0.13242,-0.61785 -0.34609,-1.2965 -0.47484,-1.50821 -0.12875,-0.2117 -0.23407,-0.53641 -0.23407,-0.72158 0,-0.18517 -0.12827,-0.62678 -0.28504,-0.98126 -0.26301,-0.59512 -0.2837,-0.77948 -0.2675,-2.40575 0.0208,-2.08542 -0.14597,-2.64098 -0.9379,-3.12457 -0.25178,-0.15375 -0.47582,-0.3226 -0.49789,-0.37544 -0.0838,-0.20037 -0.734,-0.44554 -1.1819,-0.44554 z m -55.66368,1.08158 c -0.26023,-0.0129 -0.58141,0.10259 -0.91836,0.4296 -0.5259,0.41985 -0.98241,0.8283 -1.37464,1.24487 -1.01136,1.08116 -2.18781,3.45817 -1.9798,4.00021 0.0357,0.0931 0.26207,0.28449 0.50296,0.42548 0.73283,0.4289 0.85933,0.3403 1.28037,-0.89754 0.41178,-1.21065 0.91055,-2.10702 1.64287,-2.95184 0.36917,-0.50125 0.72351,-0.94224 1.24849,-1.16529 0.71148,-0.29567 0.75042,-0.62322 0.15872,-0.90539 -0.23026,-0.1098 -0.40449,-0.17235 -0.56061,-0.1801 z m 2.26553,1.33063 c -0.0463,-0.002 -0.0869,0.002 -0.11946,0.0125 -0.95739,0.58988 -0.897,0.51295 -1.71783,1.26514 -0.70916,0.65367 -1.39578,1.67496 -1.88526,2.80449 -0.55333,1.27685 -0.56312,1.62237 -0.0567,1.96874 0.44551,0.30471 0.77634,0.3504 0.91853,0.12683 0.0516,-0.0812 0.28534,-0.63214 0.51958,-1.22455 0.46167,-1.16762 0.87898,-1.84859 1.75842,-2.86997 0.62118,-0.774 1.18945,-1.07979 1.59007,-1.57924 -0.0792,-0.2064 -0.68305,-0.49131 -1.00731,-0.50389 z m 37.94594,16.06771 c -1.44856,0.2815 -2.99819,0.62823 -4.38164,0.6471 -0.47589,4.4e-4 -1.48542,-0.11354 -2.2434,-0.25368 -2.08423,-0.38532 -2.02902,-0.39409 -2.40599,0.37267 -0.41658,0.84737 -0.5546,1.88578 -0.64502,4.84772 -0.0836,2.73791 0.0489,4.23115 0.50342,5.67261 0.15563,0.49352 0.41335,1.03813 0.57285,1.21025 0.24817,0.26778 0.38686,0.31294 0.96096,0.31294 h 0.67086 c 1.13677,-0.17334 2.90519,-1.49192 3.6995,-2.82472 0.97668,-1.63885 1.80382,-3.658 0.89038,-5.65375 -0.43774,-0.7289 1.36968,-2.19207 1.3244,-2.32619 -0.0482,-0.12568 0.0128,-0.17619 0.21263,-0.17619 0.51286,0 1.08975,-0.40382 1.19873,-0.8392 0.22208,-0.88728 0.19079,-0.97412 -0.35768,-0.98956 z"
         style="fill:#0000ff;fill-opacity:0.437126;stroke-width:0.118074" />
    </g>
  </g>
</svg>
