<?xml version="1.0" encoding="UTF-8" standalone="no"?>
<svg
   width="60.96mm"
   height="128.5mm"
   viewBox="0 0 60.96 128.5"
   version="1.1"
   id="svg1"
   sodipodi:docname="metal.svg"
   inkscape:version="1.4.2 (f4327f4, 2025-05-13)"
   xmlns:inkscape="http://www.inkscape.org/namespaces/inkscape"
   xmlns:sodipodi="http://sodipodi.sourceforge.net/DTD/sodipodi-0.dtd"
   xmlns:xlink="http://www.w3.org/1999/xlink"
   xmlns="http://www.w3.org/2000/svg"
   xmlns:svg="http://www.w3.org/2000/svg">
  <defs
     id="defs1">
    <linearGradient
       inkscape:collect="always"
       xlink:href="#linearGradient238"
       id="linearGradient239"
       x1="649.83807"
       y1="-1044.1716"
       x2="649.83807"
       y2="-398.76425"
       gradientUnits="userSpaceOnUse"
       gradientTransform="matrix(0.23920343,0,0,0.07752298,-124.29517,156.37721)" />
    <linearGradient
       id="linearGradient238"
       inkscape:collect="always">
      <stop
         style="stop-color:#e3dedb;stop-opacity:0.32873562;"
         offset="0"
         id="stop238" />
      <stop
         style="stop-color:#917c6f;stop-opacity:0;"
         offset="1"
         id="stop239" />
    </linearGradient>
    <linearGradient
       inkscape:collect="always"
       xlink:href="#linearGradient4"
       id="linearGradient5"
       x1="876.5351"
       y1="-323.21573"
       x2="876.5351"
       y2="58.015488"
       gradientUnits="userSpaceOnUse"
       gradientTransform="matrix(0.23920343,0,0,0.19813649,-181.21468,64.040827)" />
    <linearGradient
       id="linearGradient4"
       inkscape:collect="always">
      <stop
         style="stop-color:#333333;stop-opacity:0.48275861;"
         offset="0"
         id="stop4" />
      <stop
         style="stop-color:#333333;stop-opacity:0;"
         offset="1"
         id="stop5" />
    </linearGradient>
    <linearGradient
       inkscape:collect="always"
       xlink:href="#linearGradient238"
       id="linearGradient240"
       gradientUnits="userSpaceOnUse"
       gradientTransform="matrix(0.23920343,0,0,0.07752298,-124.29517,5.3055752)"
       x1="649.83807"
       y1="-1044.1716"
       x2="649.83807"
       y2="-398.76425" />
  </defs>
  <sodipodi:namedview
     id="namedview1"
     pagecolor="#ffffff"
     bordercolor="#cccccc"
     borderopacity="1"
     inkscape:showpageshadow="0"
     inkscape:pageopacity="1"
     inkscape:pagecheckerboard="0"
     inkscape:deskcolor="#d1d1d1"
     inkscape:document-units="mm"
     inkscape:zoom="1.2069767"
     inkscape:cx="45.982661"
     inkscape:cy="281.28132"
     inkscape:window-width="1920"
     inkscape:window-height="1009"
     inkscape:window-x="-8"
     inkscape:window-y="-8"
     inkscape:window-maximized="1"
     inkscape:current-layer="svg1" />
  <g
     id="g10"
     transform="matrix(1,0,0,-1,0,128.50015)">
    <path
       id="rect68"
       style="fill:#535353;fill-opacity:1;stroke-width:0.190025"
       d="M 0,0 V 128.50017 H 60.960103 V 0 Z" />
    <path
       id="path484"
       style="fill:#f9f9f9;fill-opacity:0.360078;stroke-width:0.560754"
       d="M 11.280448,0.05115967 C 11.062733,0.15231093 10.846454,4.7355407 10.713041,12.084017 h -5.17e-4 c -0.07412,4.116911 -0.07813,7.484852 -0.0083,7.484814 0.06988,-3.3e-5 0.190354,-1.735979 0.267684,-3.857645 0.245418,-6.7269016 0.422613,-15.71301428 0.308508,-15.66002633 z m 17.05374,0 C 28.21389,0.06492742 28.133167,0.95112502 28.133167,2.264978 c 0,1.2177462 0.03491,2.1949897 0.07803,2.1714437 0.191492,-0.1043278 0.314119,-4.38526203 0.125574,-4.38526203 -9.52e-4,0 -0.0016,-1.0841e-4 -0.0026,0 z m 24.385591,0 c -0.391001,0 -0.456486,1.30418663 -0.422196,8.48165283 h 5.17e-4 c 0.01831,3.8465825 0.0454,5.5925725 0.09663,5.6435835 8.78e-4,5.41e-4 0.0027,9.57e-4 0.0036,5.16e-4 0.02243,-0.01916 0.05003,-0.344467 0.08268,-0.943611 0.0812,-1.489384 0.216894,-3.8115353 0.301274,-5.1604087 0.107871,-1.729657 0.08584,-2.4071845 -0.07441,-2.2990845 -0.180761,0.1218778 -0.22686,0.090277 -0.22686,-0.153479 0,-0.2351996 0.04858,-0.2710885 0.208773,-0.153479 0.137997,0.1010321 0.211874,-0.7957312 0.211874,-2.631364 0.0018,-1.5315236 -0.07991,-2.78432613 -0.181902,-2.78432613 z m 7.453292,0 c -0.08747,0.01162813 -0.141919,0.75419931 -0.121956,1.66036373 0.0183,0.8069604 0.04729,1.2145502 0.08216,1.2304159 9.05e-4,2.358e-4 0.0027,2.877e-4 0.0036,0 0.04119,-0.020796 0.09105,-0.5715928 0.141076,-1.6391764 0.03228,-0.68858331 -0.01391,-1.25168264 -0.102836,-1.25160323 -6.92e-4,6.2e-7 -0.0014,-9.156e-5 -0.0021,0 z M 20.667472,0.08629964 c -0.03002,0.0015377 -0.05068,0.03885113 -0.05684,0.10955404 -0.0093,0.10784199 0.04155,0.16834712 0.113172,0.13435872 0.07172,-0.0339487 0.07924,-0.12207928 0.01705,-0.19585368 -0.02795,-0.0331161 -0.05284,-0.0491112 -0.07338,-0.04805908 z m 5.407422,0.01136882 c -0.03638,-0.0013958 -0.06201,0.05661447 -0.06201,0.15761312 0,0.14042043 0.04881,0.19841715 0.108521,0.12815755 0.05971,-0.0702401 0.05971,-0.18553874 0,-0.25579834 -0.01676,-0.019755 -0.03227,-0.02942614 -0.04651,-0.02997233 z m -1.703772,0.15657959 c -6.19e-4,1.3973e-4 -0.0015,2.3261e-4 -0.0021,5.1676e-4 -0.02607,0.015309 -0.04444,0.16384405 -0.04444,0.40927734 0,0.24544655 0.01786,0.39346225 0.04393,0.40876055 9.17e-4,4.259e-4 0.0027,0.00145 0.0036,0.00155 0.01163,-1.087e-4 0.02543,-0.025223 0.03927,-0.0780314 0.04778,-0.18262823 0.04778,-0.48135434 0,-0.66404215 -0.01304,-0.0499374 -0.02555,-0.0753758 -0.03669,-0.0780314 -9.49e-4,-1.1782e-4 -0.0027,-2.0961e-4 -0.0036,0 z m 6.665226,0.12298991 c -9.86e-4,1.6649e-4 -0.0021,5.6294e-4 -0.0031,0.001034 -0.0635,0.0300973 -0.172393,4.07286352 -0.242363,8.98394772 -0.06978,4.9111098 -0.07656,8.9066578 -0.01447,8.8785278 2.43e-4,-1.1e-4 7.89e-4,-3.79e-4 0.001,-5.17e-4 0.06246,-0.04202 0.174727,-0.979163 0.250113,-2.094445 0.07594,-1.124062 0.188654,-2.442099 0.250114,-2.928504 0.0719,-0.568211 0.03026,-0.907896 -0.116272,-0.950846 -0.125442,-0.03681 -0.221206,-0.190853 -0.212906,-0.342098 0.0135,-0.24552 0.03472,-0.253288 0.199987,-0.0708 0.140823,0.155529 0.189104,0.09467 0.197404,-0.255282 0.0085,-0.332841 -0.0463,-0.417364 -0.197404,-0.306441 -0.152781,0.112158 -0.203449,0.04329 -0.190169,-0.255798 0.01623,-0.365711 0.03796,-0.381565 0.208773,-0.152962 0.11349,0.152132 0.148699,-1.3739329 0.0863,-3.7723799 -0.05748,-2.2151634 -0.104386,-4.6484994 -0.104386,-5.4074219 0,-0.74702523 -0.05048,-1.33650626 -0.112655,-1.32601724 z M 20.698995,0.57929281 c -0.0588,0.006501 -0.11285,0.54143099 -0.121956,1.21749679 -0.0094,0.6978545 -0.04671,1.4987164 -0.0832,1.7797363 -0.0363,0.281 -0.127829,2.5114693 -0.203089,4.9562866 -0.07533,2.4448575 -0.181638,4.8817385 -0.236678,5.4156905 -0.327102,3.172324 -0.486837,16.371605 -0.309025,25.547277 h 5.17e-4 c 0.05636,2.908476 0.07019,2.768394 0.211873,-2.094962 0.446535,-15.329949 0.8814,-36.75684297 0.747241,-36.82049167 -0.0019,-9.0269e-4 -0.0038,-0.001243 -0.0057,-0.001034 z m 27.451038,0.0449585 c -0.09553,0.007171 -0.141118,1.446917 -0.13746,4.3320353 l 0.0062,4.9557699 0.182935,-4.2405681 c 0.104878,-2.4224887 0.101988,-4.5476711 -0.0062,-4.95628658 -0.01633,-0.06162 -0.03134,-0.0920117 -0.04547,-0.0909505 z m -33.052763,0.043925 c -2.1e-4,1.3966e-4 -0.0013,8.3241e-4 -0.0016,0.001034 -0.02228,0.0272957 -0.05742,0.3866889 -0.112137,1.0169922 -0.08049,0.9273557 -0.141109,3.1802903 -0.135909,5.0069295 0.01012,3.2464207 0.01368,3.2728196 0.155546,1.1751221 0.07973,-1.1802835 0.140109,-3.4332379 0.135909,-5.0069295 -0.0047,-1.4912749 -0.01098,-2.16809801 -0.03979,-2.19263107 l -5.17e-4,-5.1676e-4 h -5.17e-4 -5.17e-4 z m 10.84895,0.243396 c -0.106366,-0.0031 -0.186035,0.88091463 -0.186035,2.07584233 0,1.1720247 -0.09175,3.4166192 -0.203605,4.9878092 -0.111854,1.5712223 -0.243556,5.9376542 -0.293006,9.7032832 -0.05206,3.963775 -0.0227,5.942865 0.06976,4.700489 0.524899,-7.047905 0.937328,-21.3727634 0.618051,-21.46639021 -0.0017,-4.9849e-4 -0.0035,-9.8431e-4 -0.0052,-0.001034 z m 9.12244,0.0594279 c -0.178598,-0.66767794 -0.0981,11.85554284 0.08785,13.66738284 0.07063,0.688478 0.178826,1.251603 0.240296,1.251603 0.163122,0 -0.150417,-14.2545045 -0.328146,-14.91898584 z M 56.687496,1.1498006 c -5.92e-4,8.78e-5 -0.0015,2.396e-4 -0.0021,5.168e-4 -0.02519,0.016159 -0.04341,0.2111951 -0.04341,0.5358846 0,0.3172387 0.01657,0.5100572 0.04082,0.5338175 5.75e-4,4.654e-4 0.002,0.00127 0.0026,0.00155 8.82e-4,2.737e-4 0.0027,6.713e-4 0.0036,5.168e-4 0.01058,-0.00348 0.02319,-0.036481 0.03566,-0.1018026 0.04562,-0.2388719 0.04562,-0.629789 0,-0.8686808 -0.0116,-0.061574 -0.02299,-0.094319 -0.03307,-0.1007691 -9.11e-4,-4.418e-4 -0.0027,-0.00102 -0.0036,-0.00103 z m -14.696777,0.6893636 -0.03566,3.9005371 c -0.01959,2.1451813 0.0248,3.9751112 0.0987,4.0664185 h -5.17e-4 c 0.07383,0.091346 0.161343,0.152512 0.194303,0.135909 0.03299,-0.016492 -0.01153,-1.8463712 -0.0987,-4.0664184 z M 0.71933594,3.7501587 c -9.0583e-4,2.843e-4 -0.002726,0.00127 -0.003617,0.00207 C 0.66049331,3.81219 0.63368966,4.861029 0.63355306,6.9489299 H 0.631486 c -1.7797e-4,2.1136859 0.0387291,3.2950731 0.1043864,3.2969561 0.0145073,-0.0021 0.0310912,-0.06121 0.0480591,-0.180351 0.199579,-1.3865734 0.20056011,-4.287462 0.004134,-5.9779292 -0.0246816,-0.2124121 -0.0464983,-0.3251801 -0.0651123,-0.3364136 -9.2572e-4,-3.926e-4 -0.002707,-0.00115 -0.003617,-0.00103 z M 39.735042,4.8028076 39.454439,8.4816528 c -0.154441,2.0232952 -0.347544,4.6903232 -0.428914,5.9267702 -0.181914,2.774467 -0.292135,26.440284 -0.181384,39.112341 0.0451,5.156648 0.132109,9.375655 0.193269,9.375655 0.06086,0 0.08566,-8.748531 0.05529,-19.44119 -0.0491,-17.23442 0.02957,-22.173322 0.376205,-23.630599 0.05346,-0.224812 0.135481,-3.696762 0.181901,-7.715292 z m 5.283916,1.3286011 c -0.229549,0.6463756 -0.472403,8.8793503 -0.343649,11.6494183 0.08366,1.800002 0.126702,2.56912 0.175183,2.602942 0.0016,7.82e-4 0.0041,0.0012 0.0057,5.16e-4 0.02925,-0.01882 0.06205,-0.294822 0.106453,-0.764294 0.13755,-1.453936 0.189301,-13.8628718 0.05633,-13.4885823 z M 5.2441243,6.8466105 4.8555176,9.2480143 C 4.4355596,11.843766 4.0799952,16.08042 3.9201742,20.386353 L 3.8194051,23.094198 4.1005249,20.182231 C 4.2552009,18.580442 4.491982,16.557017 4.626591,15.685864 5.118975,12.499587 5.2992796,10.555287 5.2720296,8.7214315 Z M 42.252201,10.342521 c -5.9e-4,1.51e-4 -0.0015,7.03e-4 -0.0021,0.001 -0.02427,0.01763 -0.04174,0.193266 -0.04186,0.488342 h 0.0016 c -5.28e-4,0.316229 0.018,0.507049 0.04496,0.519865 9.05e-4,2.95e-4 0.0027,0.0011 0.0036,0.001 0.01023,-0.0026 0.02219,-0.02977 0.03411,-0.08371 0.04486,-0.209293 0.04548,-0.577178 0,-0.817522 -0.01242,-0.06572 -0.02439,-0.100588 -0.03514,-0.107487 -9.16e-4,-4.54e-4 -0.0027,-0.0015 -0.0036,-0.0015 -2.98e-4,3e-5 -0.0013,-7.5e-5 -0.0016,0 z m 16.593303,0.746725 -5.17e-4,5.16e-4 -5.17e-4,5.17e-4 c -0.02249,0.02395 -0.03824,0.336918 -0.03824,0.86558 h 5.16e-4 c -6.46e-4,0.547106 0.01553,0.876272 0.03928,0.89917 h 5.16e-4 l 5.17e-4,5.17e-4 5.17e-4,5.17e-4 h 5.17e-4 5.16e-4 5.17e-4 5.17e-4 l 5.17e-4,-5.17e-4 h 5.16e-4 l 5.17e-4,-5.17e-4 c 0.009,-0.0093 0.01963,-0.05925 0.02997,-0.153479 0.04093,-0.376912 0.04093,-1.020986 0,-1.43092 -0.0111,-0.112092 -0.02193,-0.170255 -0.03152,-0.179834 l -5.17e-4,-5.17e-4 -5.17e-4,-5.17e-4 -5.16e-4,-5.16e-4 h -5.17e-4 -5.17e-4 -5.17e-4 -5.16e-4 z m -44.163196,1.301212 c -5.89e-4,1.82e-4 -0.002,6.63e-4 -0.0026,0.001 -0.02476,0.02 -0.04237,0.214402 -0.04237,0.535368 0,0.320993 0.01709,0.51433 0.04186,0.534334 8.71e-4,5.57e-4 0.0027,0.0014 0.0036,0.0015 8.95e-4,-1.1e-5 0.0027,-7.4e-5 0.0036,-5.17e-4 0.01011,-0.0065 0.02189,-0.0397 0.03359,-0.101285 0.0453,-0.238839 0.0453,-0.629843 0,-0.868681 -0.01209,-0.06345 -0.02375,-0.09627 -0.03411,-0.101286 -9.07e-4,-2.98e-4 -0.0027,-6.48e-4 -0.0036,-5.17e-4 z m 35.927006,0.162781 c -0.03003,0.0015 -0.05068,0.03888 -0.05684,0.109554 -0.0094,0.107874 0.04167,0.168349 0.113171,0.134359 0.0717,-0.03395 0.07924,-0.122084 0.01705,-0.195854 -0.02795,-0.03312 -0.05283,-0.04911 -0.07338,-0.04806 z m -0.106453,0.645955 c -0.395418,0.05318 -0.487695,5.955828 -0.151929,11.274764 0.01953,0.309119 0.119465,-2.032081 0.222208,-5.202783 0.108532,-3.347688 0.106811,-5.87568 -0.0041,-6.029089 -0.02287,-0.03162 -0.04499,-0.04574 -0.06614,-0.04289 z m -8.047055,1.48208 c -0.02847,0.0014 -0.04885,0.08718 -0.05168,0.238229 h 5.17e-4 c -0.0024,0.225014 0.03965,0.328703 0.09353,0.230993 0.05386,-0.09771 0.05565,-0.281655 0.0041,-0.40876 -0.01691,-0.04171 -0.03261,-0.06114 -0.04651,-0.06046 z m 13.050883,0.135909 c -0.07724,1.348882 -0.166931,4.429871 -0.199471,6.846611 -0.0325,2.416735 -0.09597,4.554938 -0.141593,4.751648 -0.04555,0.196715 -0.129135,5.760743 -0.186035,12.36462 h -5.17e-4 c -0.09609,11.193009 -0.03659,11.866546 0.382922,4.342887 0.06894,-1.236471 0.161106,-8.662518 0.205156,-16.502868 0.04429,-7.840349 0.01687,-13.151773 -0.06046,-11.802898 z m -13.210046,1.379761 c -0.09634,0.477728 -0.126909,4.661893 -0.06718,9.298657 0.05965,4.636766 0.13293,11.580663 0.16278,15.430583 0.02564,3.310241 0.0673,5.07218 0.116789,5.08031 2.58e-4,-5.3e-5 0.0013,-3.69e-4 0.0015,-5.17e-4 0.0158,-0.01485 0.03298,-0.207274 0.05013,-0.583427 0.06277,-1.376979 0.141092,-7.010185 0.173632,-12.518099 0.06397,-10.809586 -0.130423,-18.229636 -0.437699,-16.707507 z M 7.577832,16.819128 C 7.274921,16.962834 6.9147038,40.453866 7.1463338,44.96263 c 0.11581,2.253636 0.2362148,3.331015 0.3250448,2.912484 C 7.6285306,47.134677 7.73267,16.745678 7.577832,16.819128 Z m 40.266793,1.171505 c -0.02789,0.0037 -0.04806,0.111948 -0.04806,0.300757 h -0.001 c -0.0016,0.280822 0.03883,0.408353 0.08992,0.28267 0.05241,-0.125685 0.0537,-0.355745 0.0041,-0.51108 -0.01584,-0.04975 -0.03105,-0.07294 -0.04444,-0.07235 z m -0.02532,0.991671 c -0.18641,0.08849 -0.335161,10.820645 -0.171565,12.389425 l 0.191719,1.839164 0.115755,-1.379244 C 48.252499,28.283691 48.152465,18.824262 47.819303,18.982304 Z M 0.66455892,20.403923 c -0.0274225,0.0052 -0.0468531,0.09069 -0.0496094,0.238228 h 5.1677e-4 c -0.00238,0.224909 0.0396343,0.328694 0.0935343,0.230994 0.05385,-0.0977 0.0556541,-0.281648 0.004134,-0.408761 -0.01771,-0.04369 -0.0342117,-0.06317 -0.0485758,-0.06046 z m 9.89603708,0.438216 c -0.03386,0.0036 -0.05684,0.06101 -0.05684,0.157613 0,0.140516 0.04881,0.197891 0.10852,0.127641 0.05981,-0.07025 0.05981,-0.185549 0,-0.255799 -0.01866,-0.02195 -0.03629,-0.03108 -0.05168,-0.02946 z M 0.65939128,21.18217 c -0.0312272,-0.0012 -0.0540222,0.0619 -0.0568441,0.175183 -0.004369,0.1686 0.0401288,0.250057 0.0992188,0.180867 0.0594,-0.06918 0.0627882,-0.207528 0.008268,-0.306958 -0.0179238,-0.03262 -0.0353924,-0.04851 -0.0506429,-0.04909 z M 10.696505,21.459672 c -0.0956,-0.112406 -0.168981,4.462716 -0.162781,10.167338 0.0056,5.394542 0.0238,7.784877 0.06976,7.764901 0.02234,-0.02315 0.05176,-0.607474 0.08888,-1.684652 0.208585,-6.055679 0.21116,-16.004238 0.0041,-16.247587 z m -9.97923612,0.255282 c -0.058521,0.0281 -0.16958335,4.649334 -0.24701335,10.269657 -0.077313,5.62032 -0.18917364,12.264641 -0.24856364,14.76499 -0.086381,3.634969 -0.0544113,4.520392 0.16071371,4.418335 0.211832,-0.100486 0.28722709,-3.25142 0.35501709,-14.815633 0.04758,-8.078571 0.0383062,-14.665479 -0.0201538,-14.637349 z m 2.98948162,2.256709 c -0.047078,0.02342 -0.1322358,3.859162 -0.1891358,8.524028 -0.06208,5.078008 -0.037809,7.292255 0.060461,5.518009 0.250544,-4.5266 0.3387043,-14.146563 0.1286743,-14.042037 z m 46.6839725,1.253154 c -0.03002,0.0015 -0.05068,0.03836 -0.05684,0.109037 -0.0093,0.107713 0.04154,0.168309 0.113171,0.134359 0.07173,-0.03396 0.07924,-0.122094 0.01705,-0.195854 -0.02795,-0.03312 -0.05284,-0.0486 -0.07338,-0.04754 z m -17.996835,0.453202 c -0.04617,0.0081 -0.16269,0.15589 -0.294039,0.379822 -0.164835,0.28102 -0.293037,0.579742 -0.284737,0.664042 0.0083,0.08431 0.149827,-0.07658 0.31471,-0.357601 0.16483,-0.281016 0.293037,-0.579742 0.284737,-0.664042 -0.0011,-0.0112 -0.0048,-0.01835 -0.01033,-0.02119 -0.0027,-0.0011 -0.0067,-0.0017 -0.01034,-0.001 z m -0.743624,1.283643 c -0.03002,0.0015 -0.05069,0.03887 -0.05684,0.109554 -0.0093,0.107708 0.04155,0.168309 0.113172,0.134359 0.07172,-0.03396 0.07924,-0.122084 0.01705,-0.195854 -0.02795,-0.03312 -0.05284,-0.04911 -0.07338,-0.04806 z m 29.309839,0.197404 c -0.02042,0.02745 -0.03359,0.106508 -0.03359,0.227376 h -0.0041 c -0.0015,0.136345 0.01372,0.2279 0.03772,0.257349 z m -29.672607,0.626318 c -0.02544,0.0022 -0.06958,0.05532 -0.14211,0.162781 -0.09496,0.140512 -0.172083,0.347515 -0.172083,0.45992 0,0.161824 0.0355,0.151127 0.172083,-0.05116 0.0949,-0.140507 0.172599,-0.347514 0.172599,-0.45992 0,-0.07586 -0.008,-0.113529 -0.03049,-0.111621 z m -3.464388,0.125574 -5.17e-4,5.17e-4 h -5.17e-4 l -5.16e-4,5.16e-4 c -0.02285,0.02166 -0.03863,0.311635 -0.03876,0.802535 h 5.17e-4 c -2.92e-4,0.508013 0.01621,0.814247 0.04031,0.836125 h 5.16e-4 v 5.17e-4 h 5.17e-4 l 5.17e-4,5.17e-4 h 5.17e-4 5.16e-4 5.17e-4 5.17e-4 l 5.17e-4,-5.17e-4 h 5.17e-4 c 0.0093,-0.0062 0.01972,-0.05267 0.03049,-0.142627 0.04154,-0.348931 0.04188,-0.946379 5.16e-4,-1.328084 -0.01104,-0.101392 -0.02199,-0.15603 -0.03152,-0.167432 -2.79e-4,-2.61e-4 -0.0013,-0.0014 -0.0016,-0.0016 h -5.16e-4 l -5.17e-4,-5.17e-4 h -5.17e-4 -5.17e-4 -5.16e-4 z m 2.605009,1.611271 c -0.02507,-8.72e-4 -0.06948,0.05267 -0.144177,0.163298 -0.09492,0.140506 -0.1726,0.347511 -0.1726,0.45992 1e-6,0.161835 0.03605,0.151129 0.1726,-0.05116 0.09495,-0.140509 0.172599,-0.347515 0.172599,-0.45992 0,-0.07333 -0.0077,-0.111415 -0.02842,-0.112138 z m -16.378845,0.316777 -0.147278,1.992643 c -0.08109,1.095964 -0.143727,2.613143 -0.139527,3.371887 l 0.0088,1.379761 0.152963,-1.379761 c 0.0842,-0.758744 0.146309,-2.275923 0.139009,-3.371887 z m 15.877583,0.597379 c -0.03002,0.0015 -0.05069,0.03835 -0.05684,0.109037 -0.0094,0.107711 0.04155,0.168309 0.113172,0.134359 0.07173,-0.03396 0.07924,-0.122094 0.01705,-0.195854 -0.02795,-0.03312 -0.05284,-0.04859 -0.07338,-0.04754 z m -2.055171,0.321944 -0.1726,0.255799 c -0.09487,0.140511 -0.1746,0.347514 -0.1788,0.45992 l -0.0067,0.204122 0.185518,-0.204122 c 0.101818,-0.112406 0.183001,-0.319409 0.178801,-0.45992 z m 1.574581,0.867648 c -0.05225,-0.0017 -0.111549,0.0094 -0.15813,0.03152 -0.201799,0.09572 -0.939995,1.612765 -0.939995,1.936833 -9.21e-4,0.154561 -0.09854,0.28112 -0.217041,0.28112 -0.252925,0 -0.267715,-0.0523 -0.259415,-0.895036 0.0038,-0.374329 -0.07765,-0.61461 -0.196371,-0.57981 -0.113339,0.03322 -0.191877,0.698693 -0.177767,1.507919 0.0264,1.531228 -0.140289,9.929916 -0.328145,16.520955 -0.06164,2.163821 -0.148907,7.429136 -0.193787,11.700578 -0.05,4.755634 -0.01993,6.716301 0.07751,5.058089 0.08752,-1.489387 0.22898,-4.478149 0.31471,-6.641972 0.08576,-2.163823 0.192624,-4.371197 0.237194,-4.905127 0.04457,-0.533933 0.0873,-5.339113 0.0956,-10.678418 0.01228,-7.94909 0.06866,-9.791319 0.312125,-10.167855 0.520682,-0.805308 1.623931,-3.100662 1.515153,-3.152262 -0.0216,-0.01025 -0.0503,-0.01554 -0.08165,-0.01654 z m 25.93175,0.529683 c 0.01457,-0.0027 0.03094,0.01625 0.04858,0.05994 h 0.0041 c 0.04819,0.127113 0.04542,0.31106 -0.0083,0.40876 -0.05359,0.0977 -0.09353,-0.0062 -0.09353,-0.230993 0.0015,-0.147525 0.02127,-0.232532 0.04909,-0.237712 z m -23.243026,3.484542 c -0.02386,-0.355818 -0.06115,0.445683 -0.131774,2.118217 -0.318473,7.540272 -0.384626,10.253718 -0.240296,9.860897 0.167342,-0.455432 0.461987,1.789635 0.461987,3.536218 4.38e-4,0.539738 0.0687,1.275526 0.151929,1.635042 0.292643,1.265167 0.322189,0.230265 0.08268,-2.914034 -0.133112,-1.74736 -0.256878,-5.981883 -0.274918,-9.410278 -0.01553,-2.957236 -0.02575,-4.470244 -0.04961,-4.826062 z m -4.983158,0.510046 c -0.0065,2.69e-4 -0.01404,0.0023 -0.02222,0.0062 -0.09157,0.04345 -1.061732,2.153999 -1.300179,2.828252 -0.0721,0.203909 -0.09225,0.309073 -0.07131,0.329178 0.05287,0.04282 0.342383,-0.402344 0.716752,-1.1467 0.483002,-0.960403 0.835979,-2.023538 0.676961,-2.016931 z m -19.80861,1.080554 c 0.013441,-6.85e-4 0.028348,0.01318 0.044442,0.04237 0.05422,0.09836 0.05422,0.259251 0,0.357601 -0.0541,0.09835 -0.098185,0.01791 -0.098185,-0.1788 0,-0.138311 0.02191,-0.219552 0.053743,-0.221176 z m 18.063497,2.60656 c -0.03002,0.0015 -0.05068,0.03887 -0.05684,0.109554 -0.0094,0.10771 0.04164,0.167792 0.113171,0.133842 0.0716,-0.03396 0.07924,-0.122094 0.01705,-0.195854 -0.02794,-0.03312 -0.05284,-0.04859 -0.07338,-0.04754 z m -8.407756,1.437121 c -2.64e-4,1.23e-4 -7.67e-4,7.66e-4 -0.001,0.001 -0.01953,0.03018 -0.04344,0.448356 -0.07131,1.23455 -0.07571,2.135723 -0.135392,7.354917 -0.135392,11.598258 0.0013,4.300515 0.06777,7.014294 0.150379,6.131409 0.08161,-0.87115 0.142692,-6.090346 0.135392,-11.598259 -0.0065,-4.971669 -0.02964,-7.336276 -0.07648,-7.366475 -2.63e-4,-2.3e-5 -0.0013,-6.39e-4 -0.0016,-5.17e-4 z m -13.5211381,0.09354 c -9.108e-4,1.65e-4 -0.00273,0.001 -0.00362,0.0016 -0.024478,0.0176 -0.042254,0.170186 -0.042375,0.425297 h 0.00207 c -7.161e-4,0.273595 0.017799,0.440797 0.044958,0.456303 0.00123,5.43e-4 0.00339,0.0011 0.00465,0.001 0.010498,-0.0019 0.022902,-0.02506 0.03514,-0.07183 0.04582,-0.18141 0.04665,-0.503186 0,-0.715202 -0.013087,-0.05963 -0.025913,-0.09094 -0.037207,-0.09612 -9.352e-4,-3.11e-4 -0.0027,-0.0011 -0.00362,-0.001 z m 3.8690145,0.330212 c 0.00127,-2.84e-4 0.00283,-1.7e-4 0.00413,0 0.012493,0.0027 0.027148,0.02623 0.041858,0.07235 h 0.00155 c 0.04825,0.155332 0.046459,0.385393 -0.00465,0.51108 -0.013603,0.03338 -0.026371,0.04901 -0.037724,0.04858 -0.030831,-0.0037 -0.052193,-0.127069 -0.052193,-0.331246 0.0011,-0.186606 0.020015,-0.294715 0.047026,-0.300757 z m 3.2142736,0.398942 c -0.03386,0.0036 -0.05736,0.06102 -0.05736,0.157613 0,0.140526 0.04934,0.197891 0.109037,0.127641 0.05971,-0.07025 0.05971,-0.185548 0,-0.255798 -0.01866,-0.02195 -0.03629,-0.03108 -0.05168,-0.02946 z m -7.2098954,1.684652 c -0.223884,-0.171821 -0.2519278,5.53771 -0.066146,13.469979 0.078013,3.330524 0.162699,6.043112 0.188619,6.028572 C 3.5695218,63.226226 3.6664303,51.163803 3.5997803,47.60898 3.5616743,45.579773 3.4498966,43.857554 3.3512166,43.781824 Z m 32.4124914,0.206189 c -0.02254,0.01414 -0.05477,0.603487 -0.0987,1.689819 -0.25267,6.249348 -0.322353,11.13574 -0.214458,15.072982 l 0.09974,3.627685 0.113688,-2.299601 c 0.06267,-1.264572 0.124696,-6.368477 0.137976,-11.34246 0.01248,-4.678158 0.0046,-6.750439 -0.03772,-6.748425 z m 15.286923,2.5585 c -0.04279,0.252917 -0.229309,5.679112 -0.414445,12.058179 -0.239708,8.26523 -0.28763,13.56583 -0.165882,18.444869 h 0.0021 c 0.09336,3.741757 0.144391,5.326739 0.193787,5.342826 0.02693,-0.0016 0.05402,-0.468674 0.08682,-1.30638 0.06047,-1.545588 0.134295,-7.684523 0.163815,-13.642062 0.02949,-5.957537 0.08979,-13.200163 0.133842,-16.094625 0.04178,-2.894465 0.04273,-5.055718 0,-4.802807 z m -7.052283,0.339514 c -2.33e-4,8.1e-5 -0.0013,4.11e-4 -0.0016,5.17e-4 -0.05462,0.03038 -0.115428,0.727892 -0.140043,1.652612 -0.02696,1.011655 -0.07274,2.000572 -0.101286,2.197282 -0.02881,0.19671 -0.118021,3.71426 -0.197921,7.817094 -0.0799,4.102835 -0.183854,7.68956 -0.230994,7.970573 -0.06258,0.372927 -0.03341,0.448729 0.107487,0.280603 0.201646,-0.240606 0.761911,-19.564855 0.577226,-19.908346 -0.0027,-0.0051 -0.0055,-0.0084 -0.0083,-0.0098 h -5.17e-4 c -2.31e-4,-6.7e-5 -0.0013,-4.75e-4 -0.0016,-5.17e-4 h -5.17e-4 c -2.32e-4,7e-6 -0.0013,-3.2e-5 -0.0015,0 z m 16.961755,1.829862 c -0.174879,3.165632 -0.301438,6.272757 -0.266133,7.180958 0.0033,0.0843 0.009,0.129834 0.01705,0.140559 1.7e-4,1.93e-4 8.61e-4,0.0014 0.001,0.0016 h 5.17e-4 l 5.17e-4,5.16e-4 5.17e-4,5.17e-4 h 5.17e-4 c 1.81e-4,1.2e-5 0.0014,1.9e-5 0.0016,0 h 5.17e-4 l 5.16e-4,-5.17e-4 h 5.17e-4 l 5.17e-4,-5.16e-4 5.17e-4,-5.17e-4 c 0.03766,-0.03836 0.109158,-0.635501 0.181901,-1.572514 0.01555,-0.200414 0.03583,-0.451034 0.05994,-0.741557 z m -29.592509,2.42931 c -0.207827,-1.777849 -0.521928,4.701739 -0.778247,16.043465 -0.07308,3.231681 -0.084,5.85258 -0.02429,5.82445 0.05971,-0.0281 0.173201,-1.683629 0.252181,-3.678845 0.07898,-1.995212 0.178679,-3.847397 0.222209,-4.116028 0.221153,-1.370123 0.485935,-12.723698 0.328145,-14.073042 z M 0.28267008,51.962203 c -0.06231,0.0281 -0.18320068,2.051525 -0.26820068,4.496366 C 0.00973795,56.594644 0.00502776,56.733765 0,56.875598 V 74.846594 C 0.23162228,63.965133 0.4045905,51.907207 0.28267008,51.962203 Z m 24.31582892,0.09612 -5.17e-4,5.17e-4 c -0.02165,0.02666 -0.03712,0.454994 -0.03721,1.180806 -1.46e-4,0.742495 0.01525,1.186971 0.03772,1.214913 h 5.16e-4 l 5.17e-4,5.17e-4 v 5.17e-4 h 5.17e-4 5.17e-4 5.16e-4 5.17e-4 5.17e-4 l 5.17e-4,-5.17e-4 v -5.17e-4 c 0.0087,-0.01065 0.01884,-0.07963 0.02894,-0.212907 0.03885,-0.516961 0.03867,-1.391102 0,-1.942 -0.0106,-0.150637 -0.02038,-0.228044 -0.02946,-0.239779 l -5.17e-4,-5.16e-4 -5.17e-4,-5.17e-4 v -5.17e-4 h -5.16e-4 -5.17e-4 -5.17e-4 -5.17e-4 z m 30.120642,0.461987 c -0.03386,0.0036 -0.05684,0.06101 -0.05684,0.157614 0,0.140525 0.04902,0.19789 0.10852,0.12764 0.05939,-0.07026 0.05939,-0.185548 0,-0.255798 -0.0187,-0.02195 -0.03628,-0.03109 -0.05168,-0.02946 z m -7.341154,0.601514 c -0.03002,0.0015 -0.05068,0.03887 -0.05684,0.109554 -0.0094,0.107714 0.04164,0.167792 0.113171,0.133842 0.07173,-0.03396 0.07927,-0.122084 0.01705,-0.195854 -0.02794,-0.03312 -0.05284,-0.04859 -0.07338,-0.04754 z m 0.0248,0.497127 c -0.122626,0.05835 -0.129054,31.625211 -0.0062,32.065227 0.03925,0.140509 0.153265,3.083674 0.253215,6.540169 h -5.17e-4 c 0.09988,3.456502 0.217939,6.123477 0.261999,5.92677 0.04414,-0.196708 0.01665,-5.5768 -0.06098,-11.955859 -0.177774,-14.598645 -0.231664,-19.641534 -0.286804,-26.866578 -0.02417,-3.170798 -0.09645,-5.740159 -0.160714,-5.709729 z m 9.477458,3.328996 c -0.0292,0.0017 -0.0503,0.06453 -0.05581,0.175183 h -5.16e-4 c -0.0043,0.168602 0.04104,0.249541 0.09973,0.180351 0.05952,-0.06919 0.06229,-0.207011 0.0078,-0.306441 -0.01868,-0.03418 -0.03586,-0.05 -0.05116,-0.04909 z m 3.689181,0.369487 -5.17e-4,5.16e-4 h -5.17e-4 v 5.17e-4 c -0.02224,0.02624 -0.03772,0.362202 -0.03772,0.928626 h 5.17e-4 c -5.64e-4,0.579594 0.0152,0.930254 0.03824,0.961181 l 5.16e-4,5.17e-4 5.17e-4,5.17e-4 5.17e-4,5.17e-4 5.17e-4,5.16e-4 h 5.16e-4 5.17e-4 5.17e-4 5.17e-4 l 5.16e-4,-5.16e-4 h 5.17e-4 c 0.0091,-0.0077 0.01942,-0.06201 0.02997,-0.166399 0.04003,-0.404906 0.04095,-1.094577 0,-1.532723 -0.0111,-0.119805 -0.02151,-0.18222 -0.03101,-0.192236 h -5.17e-4 l -5.17e-4,-5.17e-4 h -5.17e-4 v -5.16e-4 h -5.16e-4 -5.17e-4 -5.17e-4 -5.17e-4 z m -3.673161,0.361218 c -3.17e-4,1e-6 -7.19e-4,4.82e-4 -0.001,5.17e-4 -9.36e-4,2.06e-4 -0.0027,5.24e-4 -0.0036,0.001 -0.02485,0.01667 -0.04237,0.14622 -0.04237,0.362252 h 0.0021 c -9.13e-4,0.242246 0.01953,0.388425 0.04909,0.394291 0.01132,0.0011 0.02489,-0.01796 0.03824,-0.05994 0.04727,-0.153549 0.04798,-0.429732 0,-0.6134 -0.01503,-0.0574 -0.02971,-0.08478 -0.04237,-0.08475 z m -46.9526899,0.5302 c -0.23933,0.108211 -0.6056875,7.753532 -0.3715535,7.753532 0.08967,0 0.1218002,0.16602 0.07183,0.36897 -0.05478,0.222685 -0.1556681,0.319066 -0.2542481,0.243396 -0.154447,-0.118566 -0.2617169,2.299061 -0.5395019,12.15533 -0.0656,2.329491 -0.079309,4.215105 -0.030489,4.189925 0.04884,-0.02516 0.2007781,-2.091958 0.3374471,-4.593001 0.136671,-2.501045 0.3397263,-6.133887 0.4511353,-8.072892 0.306944,-5.340476 0.4955029,-12.11765 0.33538,-12.04526 z m 46.7666549,2.286165 -0.153996,2.963644 c -0.195554,3.767826 -0.392705,9.165901 -0.51108,13.999662 -0.04545,1.858837 -0.05836,2.718805 -0.03049,2.75332 l 5.17e-4,5.17e-4 5.16e-4,5.17e-4 h 5.17e-4 5.17e-4 5.17e-4 c 0.02044,-0.02021 0.05946,-0.392922 0.118339,-1.068152 0.338775,-3.884941 0.644922,-11.451648 0.609782,-15.062646 z m -32.228007,1.430921 c -0.08222,0.281017 -0.147462,5.086199 -0.147278,10.678418 0.0012,5.592222 0.05614,9.523778 0.121956,8.736934 0.176524,-2.111822 0.200149,-20.013006 0.02532,-19.415352 z m 14.526761,1.504301 c -0.02908,0.0065 -0.04909,0.109825 -0.04909,0.283703 0,0.25291 0.04222,0.356423 0.09353,0.229961 0.05131,-0.126456 0.05131,-0.333462 0,-0.459921 -0.0161,-0.03952 -0.03122,-0.05668 -0.04444,-0.05374 z m -22.167122,0.03359 -5.17e-4,5.17e-4 h -5.16e-4 v 5.17e-4 c -0.02191,0.02481 -0.03764,0.430153 -0.03772,1.117761 h 5.16e-4 c -1.46e-4,0.703417 0.01554,1.124409 0.03824,1.151351 v 5.17e-4 l 5.17e-4,5.17e-4 h 5.17e-4 l 5.16e-4,5.16e-4 h 5.17e-4 5.17e-4 5.17e-4 v -5.16e-4 h 5.16e-4 l 5.17e-4,-5.17e-4 c 0.0088,-0.0099 0.01873,-0.07548 0.02894,-0.201538 0.03918,-0.488937 0.03918,-1.31644 0,-1.839164 -0.01071,-0.142932 -0.02079,-0.217103 -0.02997,-0.22841 l -5.17e-4,-5.17e-4 h -5.17e-4 v -5.17e-4 h -5.17e-4 l -5.16e-4,-5.17e-4 h -5.17e-4 z m -3.227193,0.392225 c -0.06772,4.2e-5 -0.159619,0.05248 -0.225309,0.134358 -0.05023,0.06258 -0.07448,0.100878 -0.06873,0.115756 1.24e-4,2.55e-4 8.89e-4,0.0013 0.001,0.0015 v 5.17e-4 c 1.84e-4,2.1e-4 0.0013,8.38e-4 0.0016,0.001 l 5.17e-4,5.17e-4 c 0.01608,0.01087 0.07633,-0.01036 0.186035,-0.06201 0.147217,-0.06932 0.213618,-0.151464 0.147278,-0.182934 -0.01244,-0.0059 -0.02675,-0.0088 -0.04237,-0.0088 z m 21.934578,0.858345 c -0.029,0.0045 -0.05002,0.06665 -0.05271,0.174666 -0.0044,0.168606 0.04014,0.250058 0.09922,0.180868 0.0593,-0.06918 0.0629,-0.207011 0.0083,-0.306441 -0.01963,-0.03573 -0.03851,-0.05162 -0.05478,-0.04909 z m -32.0802121,0.07803 c -0.02841,0.0013 -0.048576,0.110269 -0.048576,0.301273 h -0.00103 c -0.00156,0.280821 0.038817,0.407837 0.089917,0.282153 0.0524,-0.125685 0.053684,-0.355229 0.00413,-0.510563 -0.015836,-0.04975 -0.031053,-0.07346 -0.044442,-0.07286 z m -0.0062,3.364135 c -0.035581,0.590147 -0.076418,2.781971 -0.1508952,7.053317 -0.120212,6.890392 -0.1000717,17.713109 0.034623,18.590079 0.00788,0.05148 0.052679,0.0745 0.099219,0.05116 0.147713,-0.07418 0.2565683,-18.448227 0.1374593,-23.137089 -0.054258,-2.135674 -0.084826,-3.147613 -0.1204061,-2.557467 z m 32.3112063,0.343649 c -0.03184,0.0016 -0.05374,0.08286 -0.05374,0.221175 0,0.196718 0.04398,0.27716 0.09819,0.1788 0.05421,-0.09835 0.05421,-0.259251 0,-0.357601 -0.01609,-0.0292 -0.031,-0.04306 -0.04444,-0.04237 z m -22.31285,0.279569 c -0.08906,0.02218 -0.156906,1.093179 -0.180351,2.904732 -0.02358,1.826604 -0.08326,3.596908 -0.132292,3.934127 -0.04907,0.337219 -0.131521,7.166343 -0.183451,15.175301 -0.05317,8.191286 -0.01364,14.376399 0.08992,14.138669 0.206158,-0.47305 0.654059,-22.051107 0.629419,-30.309775 -0.0088,-2.936848 -0.09325,-5.546733 -0.188102,-5.799646 -0.01202,-0.03204 -0.02376,-0.04624 -0.03514,-0.04341 z m 6.619234,0.09457 -0.14366,3.474723 c -0.07887,1.910909 -0.15748,6.206261 -0.17415,9.545671 -0.01658,3.339407 0.0081,6.052499 0.05581,6.029089 0.04765,-0.02342 0.157256,-2.680171 0.243396,-5.904032 0.08618,-3.223863 0.15858,-5.9139 0.16278,-5.97793 0.0033,-0.06402 -0.02789,-1.702631 -0.06925,-3.641638 z m 6.853845,1.32395 c -0.0364,-0.0014 -0.06201,0.05714 -0.06201,0.15813 0,0.140515 0.04933,0.197891 0.109037,0.127641 0.05971,-0.07026 0.05971,-0.185549 0,-0.255799 -0.01682,-0.01976 -0.03278,-0.02943 -0.04703,-0.02997 z m 8.897648,1.920813 c -0.03318,-1.672044 -0.06046,-0.303965 -0.06046,3.040125 0,3.344092 0.02749,4.712173 0.06046,3.040124 0.03348,-1.672043 0.03348,-4.408202 0,-6.080249 z m -19.03243,1.459859 c -0.01066,0.13682 0.0087,0.791448 0.05219,2.039669 0.05496,1.573686 0.142266,6.631994 0.193786,11.240658 0.05152,4.608664 0.159446,12.207898 0.240296,16.886822 0.08083,4.67892 0.194241,8.50698 0.252181,8.50698 0.127921,0 -0.129654,-26.750622 -0.307992,-31.984614 -0.06992,-2.051415 -0.205707,-4.580572 -0.302307,-5.620329 -0.07655,-0.824718 -0.117494,-1.206006 -0.128158,-1.069186 z m 42.423767,0.491443 c -0.02994,0.0015 -0.05048,0.03887 -0.05684,0.109554 -0.0093,0.107709 0.04155,0.167792 0.113172,0.133842 0.0717,-0.03396 0.07905,-0.122083 0.01705,-0.195853 -0.02808,-0.03312 -0.0529,-0.0486 -0.07338,-0.04754 z m -0.09508,1.855184 c -0.300392,2.452577 -0.669138,12.40341 -0.730188,19.722311 -0.03878,4.616381 -3.4e-5,6.511961 0.105937,5.211571 0.460364,-5.648588 1.025084,-28.206721 0.624251,-24.933882 z m -21.16615,1.430404 -0.146761,2.401404 c -0.08073,1.320776 -0.142176,3.413373 -0.137976,4.649845 0.0048,1.190646 0.0077,1.746128 0.03204,1.78077 l 5.17e-4,5.17e-4 5.17e-4,5.16e-4 5.16e-4,5.17e-4 h 5.17e-4 5.17e-4 5.17e-4 l 5.17e-4,-5.17e-4 c 0.02181,-0.02093 0.0594,-0.379626 0.124023,-1.015442 0.08275,-0.814946 0.145276,-2.907543 0.137976,-4.649845 z m 4.089156,2.515609 c -3.15e-4,3.8e-5 -7.19e-4,4.26e-4 -0.001,5.16e-4 -0.04934,0.02222 -0.09575,0.679678 -0.185001,2.226738 -0.204222,3.540045 -0.203794,7.493313 5.17e-4,14.417208 l 0.162264,5.467367 0.131258,-4.701006 c 0.168787,-6.076922 0.169337,-15.189629 0,-16.758667 -0.04283,-0.396852 -0.07418,-0.630742 -0.103353,-0.650606 -0.0013,-6.61e-4 -0.0034,-0.0017 -0.0047,-0.0015 z m -12.685531,2.338358 c -0.209973,0.09229 -0.587681,11.725069 -0.68833,21.203871 -0.05435,5.11449 -0.141023,12.79419 -0.192753,17.06563 -0.05181,4.27966 -0.01877,7.10089 0.07338,6.28437 0.092,-0.81495 0.184522,-4.76958 0.205672,-8.7881 0.02129,-4.01854 0.1292,-9.37556 0.239779,-11.9047 0.245404,-5.61094 0.523574,-23.931981 0.362251,-23.861071 z m 30.860132,0.204639 c -0.248295,0.03377 -0.287462,4.363022 -0.07028,7.902877 0.07814,1.273656 0.174541,2.31562 0.215491,2.31562 0.0398,0 0.07338,-2.299088 0.07338,-5.109248 0,-3.338133 -0.07482,-5.109249 -0.215491,-5.109249 -9.8e-4,0 -0.0021,-1.33e-4 -0.0031,0 z m -35.877913,0.795817 c -0.029,0.0045 -0.0495,0.06665 -0.05219,0.174666 h -5.17e-4 c -0.0044,0.168604 0.04014,0.250058 0.09922,0.180868 0.0593,-0.06918 0.0629,-0.207012 0.0083,-0.306442 -0.01963,-0.03573 -0.03851,-0.05162 -0.05478,-0.04909 z m 26.259379,0.772046 c -0.03002,0.0015 -0.05068,0.03887 -0.05684,0.109554 -0.0094,0.107712 0.04167,0.167792 0.113171,0.133842 0.0717,-0.03396 0.07927,-0.122084 0.01705,-0.195854 -0.02794,-0.03312 -0.05284,-0.04859 -0.07338,-0.04754 z M 6.1577637,84.968974 c -0.090737,1.152162 -0.2128413,5.451621 -0.2713013,9.554455 h 5.168e-4 c -0.058422,4.102836 -0.031269,6.885111 0.060461,6.182571 0.091828,-0.70254 0.2139813,-5.002002 0.2713013,-9.554458 0.057792,-4.597663 0.030552,-7.346175 -0.060978,-6.182568 z m 31.3624263,2.517159 -5.16e-4,5.17e-4 h -5.17e-4 l -5.17e-4,5.16e-4 h -5.17e-4 c -0.02285,0.02166 -0.03863,0.312149 -0.03876,0.803052 h 5.17e-4 c -2.85e-4,0.508011 0.01621,0.81373 0.04031,0.835608 l 5.17e-4,5.17e-4 5.17e-4,5.17e-4 h 5.17e-4 5.16e-4 5.17e-4 5.17e-4 5.17e-4 5.17e-4 5.16e-4 c 0.0093,-0.0062 0.01972,-0.05267 0.03049,-0.142627 0.04154,-0.348934 0.04136,-0.946891 0,-1.328601 -0.01169,-0.107355 -0.02258,-0.161723 -0.03256,-0.168466 l -5.17e-4,-5.16e-4 h -5.16e-4 l -5.17e-4,-5.17e-4 h -5.17e-4 z m -4.835363,0.497644 c -0.240698,-1.292142 -0.533975,9.258854 -0.383439,13.795023 0.07268,2.19193 0.156611,6.76758 0.186551,10.16786 l 0.05426,6.18205 0.111104,-4.49585 c 0.176929,-7.16142 0.198516,-24.752635 0.03152,-25.649083 z m -10.694955,0.681612 c -0.02742,0.0052 -0.04685,0.09018 -0.04961,0.237712 h 5.17e-4 c -0.0024,0.224911 0.03963,0.32921 0.09353,0.23151 0.05385,-0.0977 0.05565,-0.281647 0.0041,-0.408761 -0.01771,-0.04369 -0.03421,-0.06317 -0.04858,-0.06046 z m 17.236674,0.748792 -0.161747,2.6479 c -0.0887,1.456343 -0.140742,5.319254 -0.114722,8.583969 0.0256,3.26472 0.07122,5.33811 0.100769,4.60747 0.02958,-0.73064 0.141114,-3.4668 0.248047,-6.080245 0.10696,-2.613455 0.134358,-5.87839 0.06098,-7.255371 z m -17.319873,0.212906 c -0.186175,0.08239 -0.268664,3.339136 -0.323494,12.773383 -0.0429,7.38058 -0.0067,11.21364 0.0863,9.18858 0.08783,-1.9109 0.233415,-7.65888 0.323495,-12.773376 0.124213,-7.052053 0.103168,-9.272457 -0.0863,-9.188587 z M 3.4933268,95.298576 c -0.099681,0.05118 -0.230746,8.655244 -0.173116,11.360034 0.022001,1.03321 0.086812,1.88184 0.1452107,1.91461 l 5.168e-4,5.1e-4 c 2.323e-4,8e-5 0.00132,4.7e-4 0.00155,5.2e-4 h 5.168e-4 5.167e-4 c 0.059208,0 0.1080038,-2.99644 0.1080038,-6.65902 0,-3.662582 -0.037589,-6.639994 -0.083199,-6.616654 z m 33.1721352,5.152144 -0.14366,5.92677 c -0.0789,3.25978 -0.141594,9.28344 -0.141594,13.38626 8.78e-4,4.10284 0.07498,7.11518 0.164848,6.69365 0.173145,-0.8141 0.244035,-9.08736 0.166915,-19.61999 z m 12.797669,0.56172 c -0.271656,5.4304 -0.318206,8.51761 -0.132809,8.77569 0.121198,0.16779 0.101594,0.2211 -0.06408,0.1726 -0.173491,-0.0509 -0.231553,1.70645 -0.213423,6.45077 h -5.17e-4 c 0.01378,3.58627 0.05767,6.45135 0.09767,6.36705 0.167167,-0.35305 0.304323,-5.66846 0.389123,-15.07298 0.05635,-6.25882 0.02788,-8.76876 -0.07596,-6.69313 z m -4.352706,0.15348 c -0.0206,-0.89924 -0.113312,0.87104 -0.205672,3.93412 -0.175698,5.82697 -0.09639,14.31664 0.185518,19.87528 l 0.165881,3.27008 0.169499,-6.18205 c 0.101732,-3.70535 0.07994,-8.80303 -0.05426,-12.72274 -0.123144,-3.597 -0.240206,-7.27544 -0.260966,-8.17469 z m -3.117639,1.00614 c -0.03001,0.002 -0.05068,0.0384 -0.05684,0.10904 v 5.1e-4 c -0.0094,0.10783 0.04164,0.16784 0.113171,0.13384 0.07173,-0.034 0.07924,-0.12215 0.01705,-0.19585 -0.02793,-0.0331 -0.05285,-0.0486 -0.07338,-0.0475 z m -17.387053,1.19941 c -0.08031,0.0423 -0.24415,5.2119 -0.481107,15.166 -0.06822,2.86637 -0.04411,6.22353 0.05374,7.46001 0.158934,2.00943 0.192621,2.15066 0.319877,1.3286 0.147298,-0.95138 0.250882,-24.03031 0.107487,-23.95461 z M 8.7452026,104.0784 c -0.088527,0.75875 -0.2128289,4.98903 -0.2764689,9.40098 -0.073093,5.0649 -0.052337,6.8919 0.055811,4.95628 0.237018,-4.23931 0.4183623,-16.05162 0.2206583,-14.35726 z m -5.2787475,4.81986 c -0.028473,0.001 -0.048338,0.0872 -0.05116,0.23823 -0.00239,0.22511 0.040041,0.32869 0.094051,0.23099 0.05385,-0.0977 0.055654,-0.28166 0.00413,-0.40876 -0.016938,-0.0417 -0.03312,-0.0611 -0.047025,-0.0605 z m 51.9384319,2.39624 -5.17e-4,5.2e-4 -5.17e-4,5.1e-4 -5.16e-4,5.2e-4 c -0.02068,0.0397 -0.03514,0.62787 -0.03514,1.62109 h 0.001 c 0,1.01605 0.01447,1.62189 0.03566,1.65675 l 5.17e-4,5.1e-4 5.16e-4,5.2e-4 5.17e-4,5.2e-4 h 5.17e-4 5.17e-4 l 5.16e-4,-5.2e-4 5.17e-4,-5.2e-4 c 0.0084,-0.0114 0.0177,-0.10767 0.02739,-0.29714 0.03646,-0.71328 0.03646,-1.90867 0,-2.65668 -0.01029,-0.20746 -0.02017,-0.31276 -0.02894,-0.32505 l -5.17e-4,-5.1e-4 -5.17e-4,-5.2e-4 h -5.16e-4 z m -37.927918,3.17965 c -0.01575,0.355 -0.01909,2.19213 -0.02119,5.74952 h -0.001 c -0.0018,4.29955 0.04901,6.64475 0.113171,5.21157 0.06504,-1.43318 0.06705,-4.95074 0.0047,-7.8171 -0.05153,-2.37159 -0.07985,-3.49899 -0.0956,-3.14399 z m 37.922233,1.93115 -5.16e-4,5.1e-4 h -5.17e-4 l -5.17e-4,5.2e-4 c -0.02295,0.0217 -0.03927,0.31216 -0.03927,0.80305 h 5.17e-4 c 0,0.50802 0.01682,0.81373 0.04082,0.83561 l 5.17e-4,5.2e-4 5.17e-4,5.1e-4 h 5.17e-4 5.16e-4 5.17e-4 5.17e-4 5.17e-4 5.16e-4 l 5.17e-4,-5.1e-4 c 0.0093,-0.006 0.01983,-0.0521 0.03049,-0.14211 0.04135,-0.34894 0.04135,-0.94689 0,-1.3286 -0.0116,-0.10736 -0.02307,-0.16173 -0.03307,-0.16847 v -5.2e-4 h -5.16e-4 -5.17e-4 l -5.17e-4,-5.1e-4 h -5.17e-4 z m -2.606559,1.99471 c -2.27e-4,5e-5 -0.0013,4.4e-4 -0.0016,5.1e-4 l -5.17e-4,5.2e-4 c -0.05603,0.0318 -0.104386,0.85678 -0.104386,1.88257 -0.0019,1.06318 -0.0652,3.25516 -0.140043,4.87102 -0.122202,2.62899 -0.101033,2.93781 0.201538,2.93781 0.304226,0 0.328896,-0.48974 0.246496,-4.82038 -0.05048,-2.65123 -0.13937,-4.84312 -0.19792,-4.87102 -2.3e-4,-1.1e-4 -8.05e-4,-4.3e-4 -0.001,-5.2e-4 h -5.17e-4 c -2.28e-4,-2e-5 -0.0013,-5.1e-4 -0.0016,-5.1e-4 z m -20.260262,0.13332 c -0.03386,0.004 -0.05736,0.061 -0.05736,0.15762 0,0.14044 0.04934,0.19784 0.109038,0.12764 0.05971,-0.0703 0.05971,-0.18508 0,-0.25528 -0.01866,-0.022 -0.03629,-0.0316 -0.05168,-0.03 z m 0.01447,0.68575 c -0.02844,0.001 -0.04834,0.0872 -0.05116,0.23823 -0.0024,0.22511 0.03963,0.32869 0.09353,0.23099 0.05385,-0.0977 0.05564,-0.28165 0.0041,-0.40876 -0.0169,-0.0417 -0.03262,-0.0611 -0.04651,-0.0605 z m 25.222233,0.66404 v 5.2e-4 h -5.17e-4 l -5.17e-4,5.2e-4 c -0.02314,0.0256 -0.03979,0.33488 -0.03979,0.85059 0,0.51573 0.01613,0.82443 0.03927,0.85008 l 5.17e-4,5.1e-4 5.17e-4,5.2e-4 h 5.17e-4 v 5.2e-4 h 5.16e-4 5.17e-4 5.17e-4 5.17e-4 5.16e-4 l 5.17e-4,-5.2e-4 h 5.17e-4 c 0.0095,-0.008 0.02053,-0.0605 0.03152,-0.16123 0.04136,-0.37938 0.04136,-1.00039 0,-1.37976 -0.01099,-0.10077 -0.02152,-0.15275 -0.03101,-0.16071 l -5.17e-4,-5.2e-4 h -5.17e-4 l -5.17e-4,-5.2e-4 h -5.16e-4 -5.17e-4 -5.17e-4 -5.17e-4 z m -51.9864912,0.98289 c -0.013175,0.004 -0.028424,0.0444 -0.045992,0.12402 -0.099227,0.44962 -0.2321524,2.26604 -0.2950724,4.03645 -0.057459,1.6151 -0.045138,2.64941 0.025838,2.6727 0.011002,0.002 0.023971,-0.0193 0.037724,-0.0667 0.097997,-0.33722 0.2309125,-2.15364 0.2950725,-4.03645 0.05852,-1.71625 0.051619,-2.71167 -0.013953,-2.73006 -9.402e-4,-1.3e-4 -0.00265,-2.7e-4 -0.00362,0 z m 2.4339599,1.16788 c -2.931e-4,1.3e-4 -7.424e-4,3.6e-4 -0.00103,5.2e-4 -0.02427,0.0176 -0.041736,0.19329 -0.041858,0.48834 h 0.00155 c -5.577e-4,0.30209 0.016323,0.49049 0.041341,0.5178 8.795e-4,8.2e-4 0.00272,0.002 0.00362,0.003 9.058e-4,2.9e-4 0.00269,6.2e-4 0.00362,5.1e-4 0.010238,-0.003 0.022159,-0.0298 0.034106,-0.0837 0.04478,-0.20928 0.0455,-0.57717 0,-0.81752 -0.012414,-0.0657 -0.024391,-0.10059 -0.03514,-0.10749 -9.157e-4,-4.6e-4 -0.00272,-9.9e-4 -0.00362,-0.001 -5.947e-4,7e-5 -0.002,-2.4e-4 -0.00258,0 z m 49.3365233,0.56896 v 5.2e-4 h -5.17e-4 l -5.16e-4,5.2e-4 h -5.17e-4 c -0.0234,0.0237 -0.03979,0.31004 -0.03979,0.78754 0,0.48296 0.01595,0.77013 0.03979,0.78807 h 5.17e-4 l 5.16e-4,5.2e-4 h 5.17e-4 5.17e-4 5.17e-4 5.16e-4 5.17e-4 l 5.17e-4,-5.2e-4 h 5.17e-4 l 5.17e-4,-5.2e-4 c 0.0094,-0.009 0.02062,-0.0583 0.03152,-0.14882 0.0423,-0.35127 0.0423,-0.92617 0,-1.27745 -0.0112,-0.0933 -0.02193,-0.14145 -0.03152,-0.14882 h -5.17e-4 l -5.17e-4,-5.2e-4 h -5.17e-4 l -5.17e-4,-5.2e-4 h -5.16e-4 -5.17e-4 z m 2.774508,0.0734 c -0.04019,0.0843 -0.111377,1.3358 -0.158647,2.78071 -0.047,1.44489 -0.01038,2.60462 0.08165,2.57762 0.09193,-0.027 0.166747,-1.27795 0.158647,-2.78019 -0.0045,-1.50223 -0.04162,-2.66244 -0.08165,-2.57814 z m -11.441679,1.15962 c -0.03003,0.002 -0.05068,0.0384 -0.05684,0.10904 v 5.2e-4 c -0.0093,0.10772 0.04154,0.16784 0.113171,0.13384 0.07173,-0.034 0.07924,-0.12206 0.01705,-0.19586 -0.02795,-0.0331 -0.05284,-0.0486 -0.07338,-0.0475 z m 0.05478,1.08469 v 5.2e-4 h -5.17e-4 l -5.17e-4,5.1e-4 c -0.02193,0.028 -0.03721,0.47591 -0.03721,1.22939 0,0.75345 0.01475,1.20038 0.03669,1.22835 l 5.16e-4,5.1e-4 5.17e-4,5.2e-4 5.17e-4,5.2e-4 h 5.17e-4 5.16e-4 5.17e-4 l 5.17e-4,-5.2e-4 h 5.17e-4 v -5.2e-4 c 0.0088,-0.0115 0.01916,-0.087 0.02945,-0.23254 0.03877,-0.54799 0.03877,-1.44468 0,-1.99265 -0.01025,-0.14556 -0.02011,-0.22104 -0.02894,-0.23254 v -5.2e-4 l -5.17e-4,-5.1e-4 h -5.17e-4 l -5.17e-4,-5.2e-4 h -5.17e-4 -5.16e-4 z m 8.393803,1.10588 -5.17e-4,5.1e-4 c -5.8e-4,3e-4 -0.002,0.001 -0.0026,0.002 -0.02468,0.0259 -0.04186,0.23806 -0.04186,0.58188 h -0.0016 c 4.89e-4,0.34385 0.01792,0.54358 0.04289,0.5519 v 5.2e-4 h 5.16e-4 5.17e-4 5.17e-4 5.17e-4 5.16e-4 c 5.91e-4,-2.1e-4 0.002,-0.001 0.0026,-0.002 0.01023,-0.009 0.02221,-0.048 0.03411,-0.11937 0.0456,-0.26865 0.04477,-0.68267 0,-0.91984 -0.0102,-0.0537 -0.02001,-0.0842 -0.02894,-0.093 -9.18e-4,-7.6e-4 -0.0027,-0.002 -0.0036,-0.002 l -5.16e-4,-5.1e-4 h -5.17e-4 -5.17e-4 -5.17e-4 -5.16e-4 z m -42.218612,0.14986 v 5.1e-4 h -5.17e-4 -5.16e-4 c -0.02324,0.0194 -0.03927,0.2874 -0.03927,0.74053 h 5.16e-4 c -2.85e-4,0.46897 0.01636,0.75121 0.04082,0.77204 l 5.17e-4,5.2e-4 v 5.2e-4 h 5.16e-4 5.17e-4 l 5.17e-4,5.1e-4 h 5.17e-4 5.16e-4 5.17e-4 l 5.17e-4,-5.1e-4 h 5.17e-4 5.16e-4 c 0.0092,-0.007 0.01981,-0.0505 0.03049,-0.13074 0.04177,-0.32097 0.04229,-0.87283 0,-1.22629 -0.01121,-0.0939 -0.02183,-0.14424 -0.03152,-0.15503 -2.84e-4,-2.4e-4 -0.0013,-0.001 -0.0015,-0.002 h -5.17e-4 l -5.17e-4,-5.1e-4 h -5.17e-4 -5.16e-4 -5.17e-4 -5.17e-4 z m 19.803959,0.43976 c -0.02789,0.004 -0.04754,0.11247 -0.04754,0.30128 h -0.001 c -0.0011,0.20374 0.01994,0.32684 0.05116,0.33073 0.01149,4.8e-4 0.02518,-0.0152 0.03876,-0.0486 0.0524,-0.12569 0.05368,-0.35574 0.0041,-0.51108 -0.01622,-0.051 -0.03186,-0.0741 -0.04548,-0.0724 z m 7.115845,0.55501 c -9.36e-4,1e-4 -0.0022,6.1e-4 -0.0031,0.001 -0.02606,0.0153 -0.04444,0.16383 -0.04444,0.40928 0,0.24258 0.01733,0.39007 0.04289,0.40824 0.0012,7.2e-4 0.0034,0.001 0.0047,0.002 0.01162,-1e-4 0.02546,-0.0247 0.03927,-0.0775 0.04779,-0.18265 0.04779,-0.48188 0,-0.66456 -0.01341,-0.0514 -0.02634,-0.0766 -0.03772,-0.078 -3.14e-4,0 -0.0012,-3e-5 -0.0016,0 z m -30.81414,0.22324 c -0.02847,0.001 -0.04885,0.0872 -0.05168,0.23823 h 5.17e-4 c -0.0024,0.22512 0.03963,0.32869 0.09353,0.23099 0.05385,-0.0977 0.05565,-0.28164 0.0041,-0.40876 -0.01694,-0.0417 -0.0326,-0.0611 -0.04651,-0.0605 z m 9.462989,0.3359 c -0.03388,0.004 -0.05685,0.061 -0.05685,0.15761 0,0.14053 0.04881,0.19794 0.108521,0.12764 0.0597,-0.0703 0.0597,-0.18508 0,-0.25528 -0.01871,-0.022 -0.03628,-0.0316 -0.05168,-0.03 z m 36.409147,0.0341 c -0.02812,0.005 -0.04836,0.0667 -0.05374,0.17467 h -5.17e-4 c -0.0044,0.16868 0.04066,0.24997 0.09922,0.18087 0.05972,-0.0692 0.0628,-0.20704 0.0083,-0.30644 -0.01952,-0.0357 -0.03745,-0.0516 -0.05323,-0.0491 z" />
    <path
       id="rect238"
       style="fill:url(#linearGradient239);fill-opacity:1;stroke-width:0.118862"
       d="M 0,75.535958 V 125.81299 H 60.960103 V 75.535958 Z" />
    <path
       id="rect4"
       style="fill:url(#linearGradient5);fill-opacity:1;stroke-width:0.190025"
       d="M 0,0 V 128.50017 H 60.960103 V 0 Z" />
    <path
       id="rect240"
       style="fill:url(#linearGradient240);fill-opacity:1;stroke-width:0.118862"
       d="m 0,-25.258923 v -50.277035 h 60.960103 v 50.277035 z"
       transform="scale(1,-1)" />
    <rect
       style="fill:#373737;fill-opacity:1;stroke-width:0.144545"
       id="rect5"
       width="1.2314427"
       height="128.50006"
       x="1.3636235"
       y="-1.6215161e-05" />
    <rect
       style="fill:#4a4a4a;fill-opacity:1;stroke-width:0.144545"
       id="rect6"
       width="1.2314427"
       height="128.50006"
       x="3.8266346"
       y="-1.6215161e-05" />
    <rect
       style="fill:#3e3e3e;fill-opacity:1;stroke-width:0.144545"
       id="rect7"
       width="1.2314427"
       height="128.50006"
       x="2.5951219"
       y="-1.6215161e-05" />
    <rect
       style="fill:#464646;fill-opacity:0.984314;stroke-width:0.144545"
       id="rect9"
       width="1.2314427"
       height="128.50006"
       x="6.289463"
       y="-1.6215161e-05" />
    <rect
       style="fill:#373737;fill-opacity:1;stroke-width:0.144545"
       id="rect10"
       width="1.2314427"
       height="128.50006"
       x="9.9837465"
       y="-1.6215161e-05" />
    <rect
       style="fill:#3e3e3e;fill-opacity:1;stroke-width:0.144545"
       id="rect12"
       width="1.2314427"
       height="128.50006"
       x="12.446757"
       y="-1.6215161e-05" />
    <rect
       style="fill:#5a5a5a;stroke-width:0.144545"
       id="rect13"
       width="1.2314427"
       height="128.50006"
       x="11.215252"
       y="-1.6215161e-05" />
    <rect
       style="fill:#464646;fill-opacity:0.984314;stroke-width:0.144545"
       id="rect14"
       width="1.2314427"
       height="128.50006"
       x="8.7522478"
       y="-1.6215161e-05" />
    <rect
       style="fill:#373737;fill-opacity:1;stroke-width:0.144545"
       id="rect15"
       width="1.2314427"
       height="128.50006"
       x="14.909492"
       y="-1.6215161e-05" />
    <rect
       style="fill:#4a4a4a;fill-opacity:1;stroke-width:0.144545"
       id="rect16"
       width="1.2314427"
       height="128.50006"
       x="17.372496"
       y="-1.6215161e-05" />
    <rect
       style="fill:#3e3e3e;fill-opacity:1;stroke-width:0.144545"
       id="rect17"
       width="1.2314427"
       height="128.50006"
       x="16.140997"
       y="-1.6215161e-05" />
    <rect
       style="fill:#5a5a5a;stroke-width:0.144545"
       id="rect18"
       width="1.2314427"
       height="128.50006"
       x="21.066799"
       y="-1.6215161e-05" />
    <rect
       style="fill:#464646;fill-opacity:0.984314;stroke-width:0.144545"
       id="rect19"
       width="1.2314427"
       height="128.50006"
       x="19.835287"
       y="-1.6215161e-05" />
    <rect
       style="fill:#373737;fill-opacity:1;stroke-width:0.144545"
       id="rect20"
       width="1.2314427"
       height="128.50006"
       x="23.529556"
       y="-1.6215161e-05" />
    <rect
       style="fill:#4a4a4a;fill-opacity:1;stroke-width:0.144545"
       id="rect21"
       width="1.2314427"
       height="128.50006"
       x="27.224072"
       y="-1.6215161e-05" />
    <rect
       style="fill:#3e3e3e;fill-opacity:1;stroke-width:0.144545"
       id="rect22"
       width="1.2314427"
       height="128.50006"
       x="25.992567"
       y="-1.6215161e-05" />
    <rect
       style="fill:#5a5a5a;stroke-width:0.144545"
       id="rect23"
       width="1.2314427"
       height="128.50006"
       x="24.761061"
       y="-1.6215161e-05" />
    <rect
       style="fill:#373737;fill-opacity:1;stroke-width:0.144545"
       id="rect25"
       width="1.2314427"
       height="128.50006"
       x="34.612717"
       y="-1.6215161e-05" />
    <rect
       style="fill:#4a4a4a;fill-opacity:1;stroke-width:0.144545"
       id="rect26"
       width="1.2314427"
       height="128.50006"
       x="37.075729"
       y="-1.6215161e-05" />
    <rect
       style="fill:#3e3e3e;fill-opacity:1;stroke-width:0.144545"
       id="rect27"
       width="1.2314427"
       height="128.50006"
       x="35.844215"
       y="-1.6215161e-05" />
    <rect
       style="fill:#5a5a5a;stroke-width:0.144545"
       id="rect28"
       width="1.2314427"
       height="128.50006"
       x="29.68704"
       y="-1.6215161e-05" />
    <rect
       style="fill:#464646;fill-opacity:0.984314;stroke-width:0.144545"
       id="rect29"
       width="1.2314427"
       height="128.50006"
       x="39.538559"
       y="-1.6215161e-05" />
    <rect
       style="fill:#373737;fill-opacity:1;stroke-width:0.144545"
       id="rect30"
       width="1.2314427"
       height="128.50006"
       x="43.232841"
       y="-1.6215161e-05" />
    <rect
       style="fill:#4a4a4a;fill-opacity:1;stroke-width:0.144545"
       id="rect31"
       width="1.2314427"
       height="128.50006"
       x="28.455526"
       y="-1.6215161e-05" />
    <rect
       style="fill:#3e3e3e;fill-opacity:1;stroke-width:0.144545"
       id="rect32"
       width="1.2314427"
       height="128.50006"
       x="45.695854"
       y="-1.6215161e-05" />
    <rect
       style="fill:#5a5a5a;stroke-width:0.144545"
       id="rect33"
       width="1.2314427"
       height="128.50006"
       x="44.464348"
       y="-1.6215161e-05" />
    <rect
       style="fill:#464646;fill-opacity:0.984314;stroke-width:0.144545"
       id="rect34"
       width="1.2314427"
       height="128.50006"
       x="42.001343"
       y="-1.6215161e-05" />
    <rect
       style="fill:#373737;fill-opacity:1;stroke-width:0.144545"
       id="rect35"
       width="1.2314427"
       height="128.50006"
       x="48.158585"
       y="-1.6215161e-05" />
    <rect
       style="fill:#4a4a4a;fill-opacity:1;stroke-width:0.144545"
       id="rect36"
       width="1.2314427"
       height="128.50006"
       x="50.62159"
       y="-1.6215161e-05" />
    <rect
       style="fill:#3e3e3e;fill-opacity:1;stroke-width:0.144545"
       id="rect37"
       width="1.2314427"
       height="128.50006"
       x="49.390091"
       y="-1.6215161e-05" />
    <rect
       style="fill:#5a5a5a;stroke-width:0.144545"
       id="rect38"
       width="1.2314427"
       height="128.50006"
       x="54.315895"
       y="-1.6215161e-05" />
    <rect
       style="fill:#464646;fill-opacity:0.984314;stroke-width:0.144545"
       id="rect39"
       width="1.2314427"
       height="128.50006"
       x="53.084381"
       y="-1.6215161e-05" />
    <rect
       style="fill:#373737;fill-opacity:1;stroke-width:0.144545"
       id="rect40"
       width="1.2314427"
       height="128.50006"
       x="56.778652"
       y="-1.6215161e-05" />
    <rect
       style="fill:#3e3e3e;fill-opacity:1;stroke-width:0.144545"
       id="rect42"
       width="1.2314427"
       height="128.50006"
       x="59.241661"
       y="-1.6215161e-05" />
    <rect
       style="fill:#5a5a5a;stroke-width:0.144545"
       id="rect43"
       width="1.2314427"
       height="128.50006"
       x="58.010155"
       y="-1.6215161e-05" />
    <rect
       style="fill:#464646;fill-opacity:0.984314;stroke-width:0.144545"
       id="rect44"
       width="1.2314427"
       height="128.50006"
       x="32.149891"
       y="-1.6215161e-05" />
  </g>
</svg>
