<?xml version="1.0" encoding="UTF-8" standalone="no"?>
<svg
   width="60.96mm"
   height="128.5mm"
   viewBox="0 0 60.96 128.5"
   version="1.1"
   id="svg1"
   sodipodi:docname="metal.svg"
   inkscape:version="1.4.2 (f4327f4, 2025-05-13)"
   xmlns:inkscape="http://www.inkscape.org/namespaces/inkscape"
   xmlns:sodipodi="http://sodipodi.sourceforge.net/DTD/sodipodi-0.dtd"
   xmlns:xlink="http://www.w3.org/1999/xlink"
   xmlns="http://www.w3.org/2000/svg"
   xmlns:svg="http://www.w3.org/2000/svg">
  <defs
     id="defs1">
    <linearGradient
       id="linearGradient238"
       inkscape:collect="always">
      <stop
         style="stop-color:#e3dedb;stop-opacity:0.32873562;"
         offset="0"
         id="stop238" />
      <stop
         style="stop-color:#917c6f;stop-opacity:0;"
         offset="1"
         id="stop239" />
    </linearGradient>
    <linearGradient
       id="linearGradient4"
       inkscape:collect="always">
      <stop
         style="stop-color:#333333;stop-opacity:0.48275861;"
         offset="0"
         id="stop4" />
      <stop
         style="stop-color:#333333;stop-opacity:0;"
         offset="1"
         id="stop5" />
    </linearGradient>
    <linearGradient
       inkscape:collect="always"
       xlink:href="#linearGradient238"
       id="linearGradient239-4"
       x1="649.83807"
       y1="-1044.1716"
       x2="649.83807"
       y2="-398.76425"
       gradientUnits="userSpaceOnUse"
       gradientTransform="matrix(0.21928184,0,0,0.07752293,-109.54916,156.37712)" />
    <linearGradient
       inkscape:collect="always"
       xlink:href="#linearGradient4"
       id="linearGradient5-2"
       x1="876.5351"
       y1="-323.21573"
       x2="876.5351"
       y2="58.015488"
       gradientUnits="userSpaceOnUse"
       gradientTransform="matrix(0.21928184,0,0,0.19813638,-161.72824,64.040799)" />
    <linearGradient
       inkscape:collect="always"
       xlink:href="#linearGradient238"
       id="linearGradient240-5"
       gradientUnits="userSpaceOnUse"
       gradientTransform="matrix(0.21928184,0,0,0.07752293,-109.54916,5.3055695)"
       x1="649.83807"
       y1="-1044.1716"
       x2="649.83807"
       y2="-398.76425" />
  </defs>
  <sodipodi:namedview
     id="namedview1"
     pagecolor="#ffffff"
     bordercolor="#cccccc"
     borderopacity="1"
     inkscape:showpageshadow="0"
     inkscape:pageopacity="1"
     inkscape:pagecheckerboard="0"
     inkscape:deskcolor="#d1d1d1"
     inkscape:document-units="mm"
     inkscape:zoom="0.85346141"
     inkscape:cx="-1.1716991"
     inkscape:cy="294.68233"
     inkscape:window-width="1920"
     inkscape:window-height="1009"
     inkscape:window-x="-8"
     inkscape:window-y="-8"
     inkscape:window-maximized="1"
     inkscape:current-layer="svg1" />
  <rect
     style="fill:#535353;fill-opacity:1;stroke-width:0.181939"
     id="rect68-7"
     width="60.960014"
     height="128.49998"
     x="-1.9988069e-05"
     y="1.2401407e-06" />
  <rect
     style="fill:url(#linearGradient239-4);fill-opacity:1;stroke-width:0.113806"
     id="rect238-5"
     width="60.960014"
     height="50.276958"
     x="-1.9988069e-05"
     y="75.535767" />
  <rect
     style="fill:url(#linearGradient5-2);fill-opacity:1;stroke-width:0.181939"
     id="rect4-2"
     width="60.960014"
     height="128.49998"
     x="-1.9988069e-05"
     y="1.2401407e-06" />
  <rect
     style="fill:url(#linearGradient240-5);fill-opacity:1;stroke-width:0.113806"
     id="rect240-7"
     width="60.960014"
     height="50.276958"
     x="-1.9988069e-05"
     y="-75.535767"
     transform="scale(1,-1)" />
  <g
     id="g85"
     transform="matrix(0.21928185,0,0,0.19813637,-298.87151,76.061208)">
    <rect
       style="fill:#373737;fill-opacity:1;stroke-width:0.5388"
       id="rect5-6"
       width="3.3902063"
       height="648.54315"
       x="1379.9071"
       y="-383.88312" />
    <rect
       style="fill:#4a4a4a;fill-opacity:1;stroke-width:0.5388"
       id="rect6-1"
       width="3.3902063"
       height="648.54315"
       x="1386.6877"
       y="-383.88312" />
    <rect
       style="fill:#3e3e3e;fill-opacity:1;stroke-width:0.5388"
       id="rect7-4"
       width="3.3902063"
       height="648.54315"
       x="1383.2975"
       y="-383.88312" />
    <rect
       style="fill:#5a5a5a;stroke-width:0.5388"
       id="rect8"
       width="3.3902063"
       height="648.54315"
       x="1366.3464"
       y="-383.88312" />
    <rect
       style="fill:#464646;fill-opacity:0.984314;stroke-width:0.5388"
       id="rect9-2"
       width="3.3902063"
       height="648.54315"
       x="1393.468"
       y="-383.88312" />
    <rect
       style="fill:#373737;fill-opacity:1;stroke-width:0.5388"
       id="rect10-3"
       width="3.3902063"
       height="648.54315"
       x="1403.6385"
       y="-383.88312" />
    <rect
       style="fill:#4a4a4a;fill-opacity:1;stroke-width:0.5388"
       id="rect11"
       width="3.3902063"
       height="648.54315"
       x="1362.9561"
       y="-383.88312" />
    <rect
       style="fill:#3e3e3e;fill-opacity:1;stroke-width:0.5388"
       id="rect12-2"
       width="3.3902063"
       height="648.54315"
       x="1410.4193"
       y="-383.88312" />
    <rect
       style="fill:#5a5a5a;stroke-width:0.5388"
       id="rect13-2"
       width="3.3902063"
       height="648.54315"
       x="1407.0289"
       y="-383.88312" />
    <rect
       style="fill:#464646;fill-opacity:0.984314;stroke-width:0.5388"
       id="rect14-1"
       width="3.3902063"
       height="648.54315"
       x="1400.2482"
       y="-383.88312" />
    <rect
       style="fill:#373737;fill-opacity:1;stroke-width:0.5388"
       id="rect15-6"
       width="3.3902063"
       height="648.54315"
       x="1417.1993"
       y="-383.88312" />
    <rect
       style="fill:#4a4a4a;fill-opacity:1;stroke-width:0.5388"
       id="rect16-8"
       width="3.3902063"
       height="648.54315"
       x="1423.98"
       y="-383.88312" />
    <rect
       style="fill:#3e3e3e;fill-opacity:1;stroke-width:0.5388"
       id="rect17-5"
       width="3.3902063"
       height="648.54315"
       x="1420.5897"
       y="-383.88312" />
    <rect
       style="fill:#5a5a5a;stroke-width:0.5388"
       id="rect18-7"
       width="3.3902063"
       height="648.54315"
       x="1434.1506"
       y="-383.88312" />
    <rect
       style="fill:#464646;fill-opacity:0.984314;stroke-width:0.5388"
       id="rect19-6"
       width="3.3902063"
       height="648.54315"
       x="1430.7603"
       y="-383.88312" />
    <rect
       style="fill:#373737;fill-opacity:1;stroke-width:0.5388"
       id="rect20-1"
       width="3.3902063"
       height="648.54315"
       x="1440.9307"
       y="-383.88312" />
    <rect
       style="fill:#4a4a4a;fill-opacity:1;stroke-width:0.5388"
       id="rect21-8"
       width="3.3902063"
       height="648.54315"
       x="1451.1018"
       y="-383.88312" />
    <rect
       style="fill:#3e3e3e;fill-opacity:1;stroke-width:0.5388"
       id="rect22-9"
       width="3.3902063"
       height="648.54315"
       x="1447.7114"
       y="-383.88312" />
    <rect
       style="fill:#5a5a5a;stroke-width:0.5388"
       id="rect23-2"
       width="3.3902063"
       height="648.54315"
       x="1444.321"
       y="-383.88312" />
    <rect
       style="fill:#464646;fill-opacity:0.984314;stroke-width:0.5388"
       id="rect24"
       width="3.3902063"
       height="648.54315"
       x="1373.1268"
       y="-383.88312" />
    <rect
       style="fill:#373737;fill-opacity:1;stroke-width:0.5388"
       id="rect25-7"
       width="3.3902063"
       height="648.54315"
       x="1471.443"
       y="-383.88312" />
    <rect
       style="fill:#4a4a4a;fill-opacity:1;stroke-width:0.5388"
       id="rect26-9"
       width="3.3902063"
       height="648.54315"
       x="1478.2236"
       y="-383.88312" />
    <rect
       style="fill:#3e3e3e;fill-opacity:1;stroke-width:0.5388"
       id="rect27-5"
       width="3.3902063"
       height="648.54315"
       x="1474.8334"
       y="-383.88312" />
    <rect
       style="fill:#5a5a5a;stroke-width:0.5388"
       id="rect28-4"
       width="3.3902063"
       height="648.54315"
       x="1457.8823"
       y="-383.88312" />
    <rect
       style="fill:#464646;fill-opacity:0.984314;stroke-width:0.5388"
       id="rect29-3"
       width="3.3902063"
       height="648.54315"
       x="1485.004"
       y="-383.88312" />
    <rect
       style="fill:#373737;fill-opacity:1;stroke-width:0.5388"
       id="rect30-1"
       width="3.3902063"
       height="648.54315"
       x="1495.1746"
       y="-383.88312" />
    <rect
       style="fill:#4a4a4a;fill-opacity:1;stroke-width:0.5388"
       id="rect31-2"
       width="3.3902063"
       height="648.54315"
       x="1454.4919"
       y="-383.88312" />
    <rect
       style="fill:#3e3e3e;fill-opacity:1;stroke-width:0.5388"
       id="rect32-3"
       width="3.3902063"
       height="648.54315"
       x="1501.9552"
       y="-383.88312" />
    <rect
       style="fill:#5a5a5a;stroke-width:0.5388"
       id="rect33-3"
       width="3.3902063"
       height="648.54315"
       x="1498.5648"
       y="-383.88312" />
    <rect
       style="fill:#464646;fill-opacity:0.984314;stroke-width:0.5388"
       id="rect34-4"
       width="3.3902063"
       height="648.54315"
       x="1491.7841"
       y="-383.88312" />
    <rect
       style="fill:#373737;fill-opacity:1;stroke-width:0.5388"
       id="rect35-1"
       width="3.3902063"
       height="648.54315"
       x="1508.7354"
       y="-383.88312" />
    <rect
       style="fill:#4a4a4a;fill-opacity:1;stroke-width:0.5388"
       id="rect36-1"
       width="3.3902063"
       height="648.54315"
       x="1515.516"
       y="-383.88312" />
    <rect
       style="fill:#3e3e3e;fill-opacity:1;stroke-width:0.5388"
       id="rect37-3"
       width="3.3902063"
       height="648.54315"
       x="1512.1256"
       y="-383.88312" />
    <rect
       style="fill:#5a5a5a;stroke-width:0.5388"
       id="rect38-8"
       width="3.3902063"
       height="648.54315"
       x="1525.6865"
       y="-383.88312" />
    <rect
       style="fill:#464646;fill-opacity:0.984314;stroke-width:0.5388"
       id="rect39-7"
       width="3.3902063"
       height="648.54315"
       x="1522.2963"
       y="-383.88312" />
    <rect
       style="fill:#373737;fill-opacity:1;stroke-width:0.5388"
       id="rect40-4"
       width="3.3902063"
       height="648.54315"
       x="1532.4666"
       y="-383.88312" />
    <rect
       style="fill:#4a4a4a;fill-opacity:1;stroke-width:0.5388"
       id="rect41"
       width="3.3902063"
       height="648.54315"
       x="1542.6377"
       y="-383.88312" />
    <rect
       style="fill:#3e3e3e;fill-opacity:1;stroke-width:0.5388"
       id="rect42-2"
       width="3.3902063"
       height="648.54315"
       x="1539.2474"
       y="-383.88312" />
    <rect
       style="fill:#5a5a5a;stroke-width:0.5388"
       id="rect43-7"
       width="3.3902063"
       height="648.54315"
       x="1535.8569"
       y="-383.88312" />
    <rect
       style="fill:#464646;fill-opacity:0.984314;stroke-width:0.5388"
       id="rect44-7"
       width="3.3902063"
       height="648.54315"
       x="1464.6627"
       y="-383.88312" />
    <rect
       style="fill:#373737;fill-opacity:1;stroke-width:0.5388"
       id="rect65"
       width="3.3902063"
       height="648.54315"
       x="-1624.0034"
       y="-264.6601"
       transform="scale(-1)" />
    <rect
       style="fill:#4a4a4a;fill-opacity:1;stroke-width:0.5388"
       id="rect66"
       width="3.3902063"
       height="648.54315"
       x="-1617.2228"
       y="-264.6601"
       transform="scale(-1)" />
    <rect
       style="fill:#3e3e3e;fill-opacity:1;stroke-width:0.5388"
       id="rect67"
       width="3.3902063"
       height="648.54315"
       x="-1620.613"
       y="-264.6601"
       transform="scale(-1)" />
    <rect
       style="fill:#5a5a5a;stroke-width:0.5388"
       id="rect69"
       width="3.3902063"
       height="648.54315"
       x="-1637.5641"
       y="-264.6601"
       transform="scale(-1)" />
    <rect
       style="fill:#464646;fill-opacity:0.984314;stroke-width:0.5388"
       id="rect70"
       width="3.3902063"
       height="648.54315"
       x="-1610.4424"
       y="-264.6601"
       transform="scale(-1)" />
    <rect
       style="fill:#373737;fill-opacity:1;stroke-width:0.5388"
       id="rect71"
       width="3.3902063"
       height="648.54315"
       x="-1600.272"
       y="-264.6601"
       transform="scale(-1)" />
    <rect
       style="fill:#4a4a4a;fill-opacity:1;stroke-width:0.5388"
       id="rect72"
       width="3.3902063"
       height="648.54315"
       x="-1640.9545"
       y="-264.6601"
       transform="scale(-1)" />
    <rect
       style="fill:#3e3e3e;fill-opacity:1;stroke-width:0.5388"
       id="rect73"
       width="3.3902063"
       height="648.54315"
       x="-1593.4912"
       y="-264.6601"
       transform="scale(-1)" />
    <rect
       style="fill:#5a5a5a;stroke-width:0.5388"
       id="rect74"
       width="3.3902063"
       height="648.54315"
       x="-1596.8816"
       y="-264.6601"
       transform="scale(-1)" />
    <rect
       style="fill:#464646;fill-opacity:0.984314;stroke-width:0.5388"
       id="rect75"
       width="3.3902063"
       height="648.54315"
       x="-1603.6624"
       y="-264.6601"
       transform="scale(-1)" />
    <rect
       style="fill:#373737;fill-opacity:1;stroke-width:0.5388"
       id="rect76"
       width="3.3902063"
       height="648.54315"
       x="-1586.7112"
       y="-264.6601"
       transform="scale(-1)" />
    <rect
       style="fill:#4a4a4a;fill-opacity:1;stroke-width:0.5388"
       id="rect77"
       width="3.3902063"
       height="648.54315"
       x="-1579.9304"
       y="-264.6601"
       transform="scale(-1)" />
    <rect
       style="fill:#3e3e3e;fill-opacity:1;stroke-width:0.5388"
       id="rect78"
       width="3.3902063"
       height="648.54315"
       x="-1583.3209"
       y="-264.6601"
       transform="scale(-1)" />
    <rect
       style="fill:#5a5a5a;stroke-width:0.5388"
       id="rect79"
       width="3.3902063"
       height="648.54315"
       x="-1569.76"
       y="-264.6601"
       transform="scale(-1)" />
    <rect
       style="fill:#464646;fill-opacity:0.984314;stroke-width:0.5388"
       id="rect80"
       width="3.3902063"
       height="648.54315"
       x="-1573.1503"
       y="-264.6601"
       transform="scale(-1)" />
    <rect
       style="fill:#373737;fill-opacity:1;stroke-width:0.5388"
       id="rect81"
       width="3.3902063"
       height="648.54315"
       x="-1562.9799"
       y="-264.6601"
       transform="scale(-1)" />
    <rect
       style="fill:#4a4a4a;fill-opacity:1;stroke-width:0.5388"
       id="rect82"
       width="3.3902063"
       height="648.54315"
       x="-1552.8088"
       y="-264.6601"
       transform="scale(-1)" />
    <rect
       style="fill:#3e3e3e;fill-opacity:1;stroke-width:0.5388"
       id="rect83"
       width="3.3902063"
       height="648.54315"
       x="-1556.1991"
       y="-264.6601"
       transform="scale(-1)" />
    <rect
       style="fill:#5a5a5a;stroke-width:0.5388"
       id="rect84"
       width="3.3902063"
       height="648.54315"
       x="-1559.5895"
       y="-264.6601"
       transform="scale(-1)" />
    <rect
       style="fill:#464646;fill-opacity:0.984314;stroke-width:0.5388"
       id="rect85"
       width="3.3902063"
       height="648.54315"
       x="-1630.7837"
       y="-264.6601"
       transform="scale(-1)" />
  </g>
  <path
     id="path484-11"
     style="fill:#b3b3b3;fill-opacity:0.360078;stroke-width:0.46227"
     d="m 6.3825562,0.30561795 c -0.024581,0 -0.0042,0.94437765 -0.023254,0.98607995 0.00491,-0.0085 0.00902,-0.016412 0.014986,-0.025963 0.06712,-0.1073465 0.1510187,-0.36760079 0.1870687,-0.57793933 0.052133,-0.30671631 0.01679,-0.38217742 -0.1788007,-0.38217762 z m 4.4059328,0 c -0.199178,0 -0.226528,0.62541124 -0.235128,5.48133755 -0.0055,3.0149185 -0.03512,5.9179105 -0.06511,6.4508015 -0.08516,1.499264 -0.09917,4.87564 -0.06149,14.889859 0.02714,7.202502 0.05889,8.557454 0.14366,6.16988 0.05977,-1.682747 0.14774,-9.713761 0.19482,-17.84706 0.04741,-8.1332834 0.122515,-14.86853655 0.166915,-14.96671091 0.05316,-0.11689887 0.0038,-0.17810714 -0.14366,-0.17810714 z m 2.265495,0 c -0.09091,0 -0.134137,2.24979515 -0.120407,6.19532395 h -0.0015 c 0.01139,3.21345 0.02669,4.6510141 0.0584,4.6920581 l 5.16e-4,5.2e-4 5.17e-4,5.18e-4 h 5.17e-4 l 5.17e-4,-5.18e-4 c 0.01586,-0.02001 0.0363,-0.366615 0.06149,-0.995428 0.162121,-4.0007519 0.161028,-9.89247405 0,-9.89247405 z m 2.954858,0 c -0.06674,0 -0.09233,0.13756939 -0.05684,0.30584575 0.08304,0.3932823 0.178284,0.3932823 0.178284,0 0,-0.16827636 -0.05477,-0.30584575 -0.12144,-0.30584575 z m 22.727812,0 c -0.115974,0.0114767 -0.168194,0.38576689 -0.175183,1.24934615 -0.0054,0.687117 -0.02224,2.0981467 -0.03669,3.1358278 -0.01412,1.0377197 -0.0092,4.1774336 0.01085,6.9773331 h -5.16e-4 c 0.02016,2.799901 0.06915,5.06796 0.109554,5.039965 0.04027,-0.028 0.116792,-3.729971 0.170532,-8.22668 0.0736,-6.1840521 0.05607,-8.17579205 -0.07286,-8.17579205 -0.0019,0 -0.0038,-1.8218e-4 -0.0057,0 z m 10.176639,0 c -0.121037,0 -0.214672,0.0799267 -0.208772,0.17810714 0.0081,0.1244116 0.03606,0.13641446 0.09147,0.039464 0.06714,-0.11737284 0.09928,-0.11737284 0.206189,0 0.09896,0.10883496 0.128674,0.10018283 0.128674,-0.039464 0.0012,-0.0981801 -0.09658,-0.17810714 -0.217558,-0.17810714 z m -3.948079,0.0124623 C 44.652304,0.51774196 44.517414,8.487969 44.606063,21.518539 l 0.03411,5.048273 0.0987,-3.161791 C 44.896963,18.334496 45.074367,0.24835325 44.965214,0.31808025 Z M 32.298287,0.35650569 C 32.116983,0.48380568 31.809538,11.748243 31.846118,16.929295 l 0.02635,3.722076 0.107487,-4.334286 c 0.05907,-2.383891 0.148011,-5.022664 0.197921,-5.864034 0.184181,-3.1022247 0.26891,-10.20086572 0.120406,-10.09654531 z m -6.570142,0.029598 -5.16e-4,5.193e-4 c -0.01823,0.007838 -0.03121,0.0695094 -0.03462,0.17395298 h -5.16e-4 c -0.003,0.16851852 0.02782,0.2492163 0.0677,0.18018415 0.04086,-0.0690711 0.04278,-0.20661834 0.0057,-0.30584577 -0.01329,-0.0356518 -0.02593,-0.0513346 -0.03669,-0.0488107 -3e-4,7.024e-5 -7.37e-4,-9.837e-5 -10e-4,0 z M 1.9807576,0.50813041 c -2.095e-4,1.0581e-4 -0.00134,8.9672e-4 -0.00155,0.001038 l -5.168e-4,5.193e-4 -5.168e-4,5.193e-4 c -0.017082,0.0209202 -0.029456,0.16785272 -0.029456,0.40710197 0,0.24209752 0.012037,0.38948652 0.029456,0.40762122 l 5.168e-4,5.192e-4 5.168e-4,5.193e-4 c 2.096e-4,1.057e-4 0.00134,4.497e-4 0.00155,5.193e-4 h 5.168e-4 5.168e-4 5.167e-4 5.168e-4 5.168e-4 l 5.167e-4,-5.193e-4 h 5.168e-4 c 2.212e-4,-1.861e-4 0.00133,-0.00133 0.00155,-0.00156 0.00672,-0.00781 0.014562,-0.03256 0.022221,-0.075293 0.03268,-0.1822658 0.03268,-0.48077749 0,-0.66309852 -0.00761,-0.0427186 -0.014998,-0.067492 -0.021704,-0.0752932 l -5.168e-4,-5.192e-4 c -2.209e-4,-1.86e-4 -0.00133,-8.8948e-4 -0.00155,-0.001039 l -5.168e-4,-5.192e-4 h -5.167e-4 l -5.168e-4,-5.193e-4 h -5.168e-4 -5.167e-4 -5.168e-4 z m 53.1843504,0.0119431 c -0.07035,0.1461291 -0.176334,3.10623299 -0.235644,6.57802049 -0.106037,6.215878 -0.05632,7.975204 0.124023,4.374789 0.164212,-3.2787843 0.24528,-11.23029539 0.111621,-10.95280949 z m -50.9808673,0.10541028 -5.167e-4,5.193e-4 -5.168e-4,5.193e-4 c -0.016482,0.0223107 -0.027905,0.23861177 -0.027905,0.59663291 0,0.3580244 0.010904,0.574318 0.027388,0.5966328 l 5.168e-4,5.192e-4 5.168e-4,5.193e-4 h 5.167e-4 v 5.193e-4 h 5.168e-4 5.168e-4 5.167e-4 5.168e-4 5.167e-4 v -5.193e-4 h 5.168e-4 l 5.168e-4,-5.193e-4 c 0.00661,-0.0088 0.014596,-0.046136 0.022221,-0.1126799 0.02986,-0.2664178 0.02986,-0.7020073 0,-0.96842506 -0.00752,-0.0665531 -0.015647,-0.10391006 -0.022221,-0.11267995 l -5.168e-4,-5.193e-4 -5.168e-4,-5.193e-4 H 4.1863078 4.185791 4.1852743 4.1847575 Z M 21.112406,1.1722675 c -0.131005,1.0912193 -0.261439,15.9859535 -0.188619,21.5587505 0.02819,2.153528 0.08271,3.894336 0.120407,3.867989 0.03784,-0.02632 0.09361,-5.964479 0.123506,-13.196024 C 21.19786,6.1714273 21.1731,0.66743852 21.11241,1.1722675 Z m 37.790459,0.1142378 -5.17e-4,5.193e-4 c -0.01435,0.027393 -0.02429,0.6164097 -0.02429,1.6190612 h 5.17e-4 c 0,1.0140185 0.0099,1.6185484 0.02429,1.6533326 l 5.16e-4,5.193e-4 5.17e-4,5.193e-4 5.17e-4,5.192e-4 5.17e-4,-5.192e-4 5.16e-4,-5.193e-4 c 0.0057,-0.011348 0.012,-0.1074097 0.0186,-0.296499 0.02486,-0.7118439 0.02486,-1.9053165 0,-2.6518749 -0.0069,-0.2041205 -0.01373,-0.3088416 -0.01964,-0.3235007 v -5.192e-4 -5.193e-4 h -5.17e-4 v -5.193e-4 h -5.17e-4 z m -52.54408,0.00623 c -0.049972,0.085823 -0.052652,0.1232991 -0.0031,0.1163149 0.00227,-0.00346 8.411e-4,-0.1114088 0.0031,-0.1163149 z m -0.0031,0.1163149 c -0.00508,0.00775 -0.00143,0.2476361 -0.0062,0.2580736 0.014566,-0.00389 0.032839,0.011659 0.053227,0.047253 0.04211,0.073624 0.036874,0.1613447 -0.011886,0.1952428 C 6.372747,1.9221536 6.356643,1.9220276 6.3438,1.9111796 6.2157678,2.2904783 6.1456195,2.458872 6.1660319,9.2800361 h 5.168e-4 C 6.1815767,14.216085 6.2402,18.254974 6.29729,18.254974 c 0.101704,0 0.2986898,-9.5324961 0.2986898,-14.4536792 0,-1.8735398 -0.04233,-2.4696129 -0.1715657,-2.4140525 -0.028939,0.012396 -0.051788,0.019421 -0.06873,0.021809 z M 6.343799,1.9111773 c 0.00424,-0.012562 0.00118,-0.2341832 0.00568,-0.2440535 -0.018728,0.005 -0.031697,0.0417 -0.035657,0.1085259 -0.00413,0.067219 0.00843,0.1167112 0.029972,0.1355276 z M 47.870463,1.3337582 c -0.184159,-0.1359428 0.106756,7.779872 0.351917,9.5783208 h -5.17e-4 c 0.178468,1.307925 0.207204,-3.9598583 0.03049,-5.5581885 C 48.165543,4.5685989 48.05751,3.3522728 48.01154,2.6511278 47.965794,1.9499443 47.901993,1.3572945 47.870463,1.3337582 Z m -24.559741,0.093467 c -0.17737,1.9223982 -0.214735,7.9001386 -0.0801,12.7738648 0.06936,2.510104 0.150494,4.563799 0.179834,4.563799 0.03104,0 0.04311,-4.165031 0.03101,-9.255339 -0.0125,-5.1411737 -0.07077,-8.73383953 -0.130741,-8.0823248 z M 0.22789307,1.7143778 v 5.193e-4 H 0.2273763 c -0.0153796,0.023616 -0.0258382,0.401717 -0.0258382,1.0380062 0,0.636293 0.0104577,1.014397 0.0258382,1.0380063 v 5.192e-4 h 5.1677e-4 v 5.193e-4 h 5.1676e-4 5.1677e-4 5.1676e-4 l 5.1676e-4,-5.193e-4 5.1677e-4,-5.192e-4 c 0.006193,-0.00971 0.0129155,-0.073369 0.0201538,-0.1962814 0.02725,-0.4627448 0.02725,-1.2201802 0,-1.6829305 -0.00723,-0.1229225 -0.0139622,-0.1865728 -0.0201538,-0.1962813 L 0.22996012,1.7148971 V 1.7143778 H 0.22944336 0.2289266 0.22840983 Z m 48.70141993,0.0701 -0.08165,1.4274532 c -0.04494,0.785297 -0.05865,1.6459718 -0.03049,1.9124447 h 5.17e-4 c 0.03357,0.3197418 0.06263,0.4793264 0.08578,0.4917419 2.87e-4,1.092e-4 0.0016,8.106e-4 0.0021,0.00104 h 5.17e-4 5.17e-4 5.16e-4 l 5.17e-4,-5.193e-4 c 0.04733,-0.020401 0.06874,-0.7016792 0.05064,-1.9202337 z m -7.052283,0.2881908 -5.16e-4,5.193e-4 -5.17e-4,5.192e-4 -5.17e-4,5.193e-4 c -0.01636,0.020554 -0.02842,0.1721921 -0.02842,0.4237184 h 0.0016 c -4.05e-4,0.2700645 0.01183,0.4362412 0.02997,0.4548741 l 5.16e-4,5.193e-4 5.17e-4,5.193e-4 5.17e-4,5.192e-4 h 5.17e-4 5.17e-4 v 5.193e-4 h 5.16e-4 5.17e-4 5.17e-4 5.17e-4 l 5.16e-4,-5.193e-4 5.17e-4,-5.192e-4 5.17e-4,-5.193e-4 c 0.0064,-0.00624 0.0139,-0.029604 0.02119,-0.07062 0.03108,-0.1810587 0.03153,-0.50238 0,-0.7139863 -0.0084,-0.056199 -0.01641,-0.086906 -0.02377,-0.094506 l -5.17e-4,-5.193e-4 -5.16e-4,-5.192e-4 c -2.13e-4,-1.035e-4 -0.0013,-4.556e-4 -0.0016,-5.193e-4 h -5.17e-4 -5.16e-4 -5.17e-4 -5.17e-4 z M 40.837817,2.731613 c -3.06e-4,5.66e-5 -0.0012,4.334e-4 -0.0016,5.193e-4 -0.01837,0.00703 -0.03145,0.068688 -0.03514,0.173953 h -5.17e-4 c -0.0031,0.1684799 0.02782,0.2492545 0.0677,0.1801842 0.04086,-0.069032 0.04279,-0.2066404 0.0057,-0.3058458 -0.01269,-0.034123 -0.02476,-0.049715 -0.03514,-0.048811 -3.1e-4,2.7e-5 -7.27e-4,-5.65e-5 -10e-4,0 z M 4.1439331,3.3651141 C 3.9647071,2.499496 3.8544373,6.5114053 3.7620443,17.286029 l -0.081132,9.484335 0.190686,-6.526614 C 3.9764513,16.65389 4.0743129,11.858111 4.0896729,9.586401 4.1048829,7.3146673 4.1495216,5.1114745 4.1888916,4.6907919 4.2281316,4.2701093 4.2077931,3.6736326 4.1439331,3.3651141 Z M 18.18442,3.6200721 c -0.06065,1.1779014 -0.157628,3.7019624 -0.216008,5.6090762 -0.05835,1.9071127 -0.130723,3.8574797 -0.160713,4.3342867 -0.06693,1.065395 -0.09293,6.221907 -0.07803,15.340579 h 5.17e-4 c 0.0061,3.809558 0.03571,6.907239 0.06615,6.883866 0.03034,-0.02338 0.09727,-2.635659 0.148311,-5.804838 0.05098,-3.169177 0.124404,-6.863345 0.163814,-8.209544 0.03913,-1.3462 0.09714,-6.463342 0.128675,-11.371335 0.03213,-4.9844829 0.009,-7.9783968 -0.05271,-6.7820909 z m 22.662699,0.2092629 -5.17e-4,5.193e-4 h -5.16e-4 c -1.09e-4,4.95e-5 -7e-4,4.177e-4 -10e-4,5.192e-4 h -5.17e-4 c -0.01759,0.012727 -0.02997,0.1199574 -0.02997,0.2996147 h 0.0021 c -8.13e-4,0.1959747 0.01227,0.3162302 0.03204,0.3292125 l 5.17e-4,5.193e-4 h 5.17e-4 c 2.27e-4,6.41e-5 0.0013,4.825e-4 0.0016,5.193e-4 h 5.17e-4 5.17e-4 5.17e-4 5.16e-4 c 2.35e-4,-7.4e-5 0.0013,-4.176e-4 0.0016,-5.193e-4 h 5.16e-4 c 0.0067,-0.00442 0.01456,-0.020336 0.02222,-0.047772 0.03263,-0.1254204 0.0338,-0.3548741 0,-0.5099161 -0.0093,-0.042388 -0.01826,-0.065649 -0.02636,-0.071139 l -5.17e-4,-5.193e-4 c -2.28e-4,-9.94e-5 -0.0013,-4.484e-4 -0.0015,-5.192e-4 h -5.17e-4 -5.16e-4 l -5.17e-4,-5.193e-4 z m 1.177189,0.078928 -5.16e-4,5.193e-4 h -5.17e-4 l -5.17e-4,5.192e-4 c -0.01668,0.017574 -0.02894,0.1701776 -0.02894,0.4247569 h 0.0015 c -4.81e-4,0.2700647 0.01182,0.4362419 0.02997,0.4548743 l 5.17e-4,5.192e-4 5.16e-4,5.193e-4 h 5.17e-4 l 5.17e-4,5.193e-4 h 5.17e-4 5.16e-4 5.17e-4 5.17e-4 5.17e-4 l 5.16e-4,-5.193e-4 h 5.17e-4 l 5.17e-4,-5.193e-4 c 0.0064,-0.00624 0.0139,-0.029599 0.02119,-0.07062 0.03108,-0.1810368 0.03153,-0.5023745 0,-0.7139863 -0.0084,-0.056049 -0.01696,-0.087819 -0.02429,-0.095544 h -5.16e-4 l -5.17e-4,-5.192e-4 h -5.17e-4 l -5.17e-4,-5.193e-4 h -5.16e-4 -5.17e-4 -5.17e-4 z M 29.411641,4.3553482 v 5.192e-4 h -5.16e-4 -5.17e-4 l -5.17e-4,5.193e-4 -5.17e-4,5.193e-4 c -0.01622,0.021081 -0.02791,0.1961144 -0.02791,0.4870684 h 10e-4 c -3.17e-4,0.3085612 0.01126,0.4974876 0.02894,0.5177049 l 5.17e-4,5.193e-4 5.17e-4,5.193e-4 5.17e-4,5.192e-4 h 5.16e-4 5.17e-4 v 5.193e-4 h 5.17e-4 5.17e-4 l 5.17e-4,-5.193e-4 h 5.16e-4 5.17e-4 l 5.17e-4,-5.192e-4 c 0.0065,-0.00642 0.0143,-0.033608 0.0217,-0.082563 0.03049,-0.2088395 0.03108,-0.5764147 0,-0.8162811 -0.0081,-0.063723 -0.01611,-0.098203 -0.02325,-0.1064488 l -5.17e-4,-5.192e-4 c -2.08e-4,-1.512e-4 -0.0013,-9.33e-4 -0.0016,-0.00104 l -5.16e-4,-5.192e-4 h -5.17e-4 -5.17e-4 z M 0.07234701,5.3642757 0.07183024,5.3647949 h -5.1676e-4 l -5.1677e-4,5.193e-4 h -5.1676e-4 -5.1677e-4 v 5.192e-4 H 0.06924642 C 0.05159727,5.3835265 0.03927409,5.5081586 0.03927409,5.710624 c 0,0.2025014 0.01181422,0.3265901 0.02945556,0.3442711 l 5.1677e-4,5.193e-4 5.1676e-4,5.192e-4 5.1677e-4,5.193e-4 c 3.3364e-4,1.037e-4 9.2526e-4,-4.47e-5 0.0010335,0 l 5.1676e-4,5.193e-4 h 5.1677e-4 c 2.212e-4,-2.6e-6 0.0013276,3.34e-5 0.0015503,0 h 5.1676e-4 5.1677e-4 l 5.1676e-4,-5.193e-4 h 5.1676e-4 c 0.0073153,-0.00504 0.01583293,-0.026865 0.02428793,-0.065427 0.03379,-0.1542703 0.03379,-0.4065335 0,-0.5608038 C 0.09194228,5.39166 0.08376924,5.3708735 0.07648112,5.3658334 L 0.07596435,5.3653142 C 0.07573933,5.365219 0.0746377,5.3648591 0.07441406,5.3647949 L 0.0738973,5.3642757 h -5.1677e-4 -5.1676e-4 z m 29.34962999,0.2954604 -0.0987,3.3144542 c -0.05398,1.8229677 -0.0984,4.6683447 -0.0925,6.3230627 0.0055,2.816118 0.01229,2.894484 0.10852,1.223903 0.05678,-0.981592 0.09892,-3.826974 0.09302,-6.323064 z m 11.39827,0.9019595 c -0.01935,0.00367 -0.03209,0.041231 -0.03617,0.1095645 -0.0064,0.1076275 0.02825,0.1673486 0.077,0.1334505 0.04885,-0.033921 0.05345,-0.1216186 0.01137,-0.1952428 -0.01909,-0.033042 -0.03617,-0.048826 -0.05013,-0.047772 -6.37e-4,4.81e-5 -0.0014,-1.183e-4 -0.0021,0 z m -0.03411,0.4746062 c -0.132094,0.1618162 -0.31442,13.8003052 -0.201538,15.0767942 0.03354,0.379509 0.08601,0.679252 0.120406,0.70464 2.71e-4,1.66e-4 7.65e-4,3.86e-4 10e-4,5.19e-4 2.84e-4,1.01e-4 0.0016,8.09e-4 0.0021,10e-4 h 5.16e-4 5.17e-4 5.17e-4 l 5.17e-4,-5.19e-4 c 1.35e-4,-5.1e-5 7.13e-4,-4.21e-4 10e-4,-5.19e-4 h 5.17e-4 l 5.17e-4,-5.19e-4 c 0.03393,-0.0236 0.09253,-3.618197 0.130224,-7.988339 0.03781,-4.397569 0.01275,-7.8777435 -0.05633,-7.7930952 z m -13.69012,0.764874 c -0.11732,4.2750752 -0.144138,14.6977992 -0.05633,21.8760202 0.01752,1.430341 0.05639,4.803678 0.08682,7.496077 l 0.05529,4.895091 0.10542,-5.813147 c 0.05971,-3.197223 0.0819,-6.0426 0.05374,-6.323062 -0.02799,-0.280452 -0.06495,-6.452985 -0.08217,-13.716846 -0.02753,-11.7694383 -0.04548,-12.6856756 -0.16278,-8.4141332 z m 23.721549,1.019832 -0.09405,3.8757772 c -0.09035,3.731062 -0.02458,14.451573 0.09508,15.501551 0.03186,0.280458 0.05921,1.997758 0.06511,3.816062 0.0039,1.818304 0.03867,3.284124 0.077,3.257335 0.119876,-0.08334 0.100055,-17.862845 -0.02481,-22.269102 z m 2.764689,0.3925627 c -0.01956,0.00332 -0.0331,0.040364 -0.03721,0.1090451 -0.0064,0.1076793 0.02825,0.167873 0.077,0.1339698 0.04878,-0.033883 0.05398,-0.1216235 0.01189,-0.1952428 -0.01984,-0.034326 -0.03741,-0.050192 -0.05168,-0.047772 z m 0.04703,0.377504 C 53.467647,9.711297 53.329303,22.028552 53.357983,33.756524 c 0.01767,7.151681 0.0435,13.25568 0.0584,13.564182 0.01475,0.308502 0.06939,-2.560236 0.120923,-6.374469 0.11267,-8.305825 0.180114,-31.4206877 0.09198,-31.3551625 z M 15.898771,10.550672 c -0.02305,0.0036 -0.03876,0.06093 -0.03876,0.157337 0,0.140243 0.03344,0.197336 0.0739,0.127219 0.04042,-0.07011 0.04042,-0.184841 0,-0.254958 -0.01272,-0.02191 -0.02466,-0.03122 -0.03514,-0.0296 z m -0.03617,0.667253 c -0.353314,0.395515 -0.4815,6.394016 -0.326595,15.297481 0.03013,1.731726 0.05315,2.483632 0.09043,2.518943 2.22e-4,1.58e-4 0.0013,9.29e-4 0.0016,0.001 h 5.16e-4 c 2.25e-4,9e-6 0.0013,4e-5 0.0016,0 h 5.16e-4 c 2.28e-4,-1.4e-4 0.0013,-8.5e-4 0.0016,-0.001 0.01793,-0.01857 0.03967,-0.187486 0.06615,-0.479279 0.171702,-1.892314 0.319656,-17.510988 0.164331,-17.337145 z m -0.843876,0.250284 c -6.94e-4,8.3e-5 -0.0014,3.4e-4 -0.0021,5.2e-4 -0.02219,0.0059 -0.03669,0.06312 -0.03669,0.157336 0,0.140202 0.03345,0.197327 0.0739,0.12722 0.04047,-0.07011 0.04047,-0.184841 0,-0.254959 -0.01252,-0.02157 -0.02473,-0.03136 -0.03514,-0.03012 z m 18.772497,3.879932 -0.04289,3.977553 c -0.02339,2.18757 -0.06427,4.115121 -0.09095,4.283398 -0.09329,0.590535 -0.07387,37.847837 0.02067,38.883433 0.0526,0.575963 0.110941,1.034875 0.130741,1.019832 0.08103,-0.06297 0.142896,-42.304528 0.06615,-45.104721 z m -18.94303,0.888458 c -0.0398,0.163073 -0.119728,1.94226 -0.251664,5.383716 -0.05915,1.542522 -0.132767,2.988312 -0.163297,3.212679 -0.05814,0.427909 -0.360203,16.481646 -0.330213,17.541215 0.0462,1.624937 0.100498,0.471752 0.554488,-11.778956 0.07585,-2.047345 0.166105,-6.567978 0.200505,-10.045658 0.02978,-3.022907 0.02998,-4.476069 -0.0098,-4.312996 z m -4.2323,5.022309 c 0.01048,-0.0016 0.02248,0.0082 0.03514,0.03012 0.04042,0.07012 0.04042,0.184841 0,0.254958 -0.04074,0.07011 -0.07441,0.01249 -0.07441,-0.127739 0,-0.0964 0.01622,-0.153755 0.03927,-0.157337 z m 21.14703,1.131474 v 5.19e-4 h -5.17e-4 l -5.16e-4,5.19e-4 c -0.01491,0.02476 -0.02532,0.429652 -0.02532,1.115896 0,0.702017 0.01088,1.122238 0.02635,1.149128 l 5.17e-4,5.2e-4 v 5.19e-4 h 5.17e-4 5.16e-4 5.17e-4 l 5.17e-4,-5.19e-4 v -5.2e-4 c 0.006,-0.0099 0.01276,-0.07515 0.01964,-0.200954 0.02667,-0.487967 0.02667,-1.313909 0,-1.835593 -0.0073,-0.142649 -0.0139,-0.216673 -0.02015,-0.227957 h -5.17e-4 v -5.2e-4 l -5.16e-4,-5.19e-4 h -5.17e-4 v -5.19e-4 z M 6.1598307,22.844218 c -0.297397,10.499348 -0.3843911,18.48284 -0.2036051,18.686189 0.026356,0.02966 0.033933,0.05013 0.025838,0.05868 -0.010101,0.0086 -0.040102,0.0037 -0.087333,-0.01662 -0.11581,-0.04895 -0.1473119,0.640818 -0.1162719,2.406263 0.02408,1.361253 0.06547,4.425195 0.09095,6.809092 l 0.046509,4.334287 0.1018025,-4.793315 c 0.055924,-2.636303 0.136197,-10.782061 0.177767,-18.102019 0.04203,-7.391172 0.026183,-11.563096 -0.035657,-9.382558 z m -5.66270342,0.998542 -5.1677e-4,5.19e-4 c -0.0182806,0.0078 -0.0317266,0.06952 -0.03514,0.173953 -0.00303,0.168291 0.0277761,0.249227 0.0676961,0.180185 0.04044,-0.06905 0.0422876,-0.206619 0.005168,-0.305847 -0.0133005,-0.03566 -0.0254012,-0.05133 -0.0361735,-0.04881 -3.0005e-4,7e-5 -7.3606e-4,-9.8e-5 -0.001034,0 z m 7.78505452,0.990234 -0.075964,4.640132 C 8.1643038,32.025294 8.1140998,37.919678 8.09408,42.571529 h 0.00103 c -0.01999,4.651849 -0.00849,8.437921 0.025321,8.413614 0.033626,-0.02429 0.1001446,-2.276926 0.1477946,-5.005693 0.047803,-2.728768 0.124449,-5.030053 0.171049,-5.114218 0.046503,-0.08416 0.019272,-0.181558 -0.060978,-0.216013 -0.09729,-0.0411 -0.098824,-0.176145 -0.00568,-0.392563 0.09084,-0.210653 0.1000182,-3.06037 0.025838,-7.876697 z m 21.3361652,2.141439 c -0.149762,0.503683 -0.277113,13.304947 -0.157096,15.75651 l 0.08785,1.785225 0.07596,-2.702763 c 0.127525,-4.539195 0.122727,-15.275126 -0.0067,-14.838972 z m 2.021065,1.001139 c -0.02369,-1.111526 -0.04334,-0.230988 -0.04341,1.956583 0,2.187576 0.019,3.097021 0.04289,2.02097 0.02409,-1.076049 0.02454,-2.866027 5.16e-4,-3.977553 z m -11.397753,2.21154 c -0.06118,-2.434668 -0.10276,-1.182905 -0.19172,5.76122 -0.07734,6.034065 -0.06546,8.883261 0.03669,8.906915 0.08266,0.01916 0.147795,0.180148 0.147795,0.357771 -0.0017,0.235759 -0.03817,0.282957 -0.136426,0.174992 -0.08966,-0.0984 -0.115758,0.0039 -0.07855,0.305846 0.03086,0.249623 0.07384,3.184486 0.09664,6.52194 l 0.04134,6.068105 0.07803,-4.232511 c 0.1015,-5.549751 0.105322,-19.917642 0.0062,-23.864278 z m 16.484265,1.03593 c -0.01985,0.02749 -0.04037,0.671788 -0.0708,1.768608 -0.05943,2.192877 -0.05988,23.615425 0,24.152469 0.18857,0.546526 0.330623,-14.052969 0.199471,-20.933559 -0.0659,-3.458673 -0.09663,-4.934355 -0.126607,-4.98648 l -5.17e-4,-5.19e-4 -5.17e-4,-5.19e-4 h -5.17e-4 z m -0.0708,25.921077 c -0.0014,-0.0041 -3.17e-4,0.156779 -0.0016,0.162529 h 0.0016 c -4.09e-4,-0.0017 4.03e-4,-0.158915 0,-0.162529 z m 5.816699,-25.455299 -5.17e-4,5.19e-4 -5.16e-4,5.2e-4 c -0.0147,0.03077 -0.02532,0.523577 -0.02532,1.352679 0,0.829103 0.01011,1.321391 0.02481,1.35216 l 5.17e-4,5.19e-4 v 5.2e-4 h 5.16e-4 v 5.19e-4 h 5.17e-4 5.17e-4 l 5.17e-4,-5.19e-4 5.16e-4,-5.2e-4 c 0.0059,-0.01265 0.0127,-0.09583 0.01964,-0.255996 0.02603,-0.602987 0.02603,-1.589859 0,-2.192846 -0.007,-0.160168 -0.01372,-0.242826 -0.01964,-0.255477 v -5.2e-4 l -5.16e-4,-5.19e-4 v -5.2e-4 h -5.17e-4 v -5.19e-4 z m 3.078365,3.92355 v 5.18e-4 h -5.17e-4 c -0.01519,0.02504 -0.02584,0.426505 -0.02584,1.101357 0,0.674859 0.01012,1.075274 0.02532,1.100318 l 5.16e-4,5.19e-4 v 5.2e-4 h 5.17e-4 l 5.17e-4,5.18e-4 h 5.17e-4 v -5.18e-4 h 5.17e-4 v -5.2e-4 h 5.16e-4 c 0.0061,-0.0103 0.01293,-0.07837 0.02015,-0.208743 0.02667,-0.490807 0.02667,-1.293905 0,-1.784706 -0.0071,-0.130371 -0.01353,-0.197927 -0.01964,-0.208225 h -5.17e-4 v -5.2e-4 l -5.16e-4,-5.18e-4 h -5.17e-4 -5.17e-4 z M 8.2578909,35.62743 c 0.014292,-0.0024 0.031513,0.01344 0.05116,0.04777 h 5.168e-4 c 0.04213,0.07362 0.036884,0.16134 -0.011886,0.195244 -0.04883,0.03389 -0.083598,-0.02594 -0.076998,-0.133452 0.00406,-0.06868 0.017622,-0.106243 0.037207,-0.109564 z M 48.252869,35.7453 c -0.06228,2.07539 -0.154726,5.792925 -0.205156,8.260952 -0.05061,2.468039 -0.123997,5.680438 -0.163297,7.138824 -0.03926,1.45838 -0.109516,4.578908 -0.155546,6.934754 -0.046,2.355852 -0.10807,5.247434 -0.13746,6.425357 -0.02953,1.177929 -0.09246,5.537626 -0.139526,9.688405 -0.04711,4.15078 -0.124889,8.051568 -0.172599,8.668572 h -5.17e-4 c -0.04766,0.617005 -0.03851,1.08953 0.02067,1.04995 0.229447,-0.153416 0.746179,-15.387416 0.784449,-23.119655 0.01702,-3.444195 0.05401,-6.289551 0.08217,-6.323063 0.02805,-0.03349 0.08458,-5.109341 0.125574,-11.279426 0.04435,-6.676055 0.0286,-9.690249 -0.03876,-7.44467 z m 10.49755,2.343434 -5.17e-4,5.19e-4 h -5.16e-4 l -5.17e-4,5.19e-4 c -0.01616,0.01938 -0.0279,0.240764 -0.0279,0.613249 h 0.001 c -3.57e-4,0.385643 0.01152,0.620568 0.02842,0.643887 l 5.17e-4,5.18e-4 5.17e-4,5.2e-4 v 5.19e-4 h 5.16e-4 5.17e-4 v 5.2e-4 h 5.17e-4 5.17e-4 v -5.2e-4 h 5.16e-4 5.17e-4 v -5.19e-4 h 5.17e-4 l 5.17e-4,-5.2e-4 c 0.0062,-0.0087 0.01365,-0.04386 0.02067,-0.105929 0.02932,-0.264555 0.02991,-0.723468 0,-1.019833 -0.008,-0.07872 -0.01586,-0.121342 -0.02274,-0.130853 l -5.17e-4,-5.2e-4 -5.17e-4,-5.19e-4 -5.17e-4,-5.19e-4 h -5.16e-4 -5.17e-4 v -5.19e-4 z m -18.182353,0.322461 v 5.2e-4 c -0.01442,0.02526 -0.0248,0.634342 -0.0248,1.667872 0,1.033534 0.0099,1.642614 0.02429,1.667872 h 5.16e-4 v 5.19e-4 h 5.17e-4 5.17e-4 v -5.19e-4 c 0.0058,-0.01082 0.01286,-0.113526 0.01964,-0.31675 0.02486,-0.743213 0.02486,-1.959031 0,-2.702244 -0.0068,-0.203223 -0.0133,-0.305407 -0.01912,-0.316231 l -5.17e-4,-5.19e-4 v -5.2e-4 h -5.17e-4 z m 15.243514,0.443451 v 5.2e-4 h -5.16e-4 l -5.17e-4,5.19e-4 c -0.01742,0.01813 -0.02946,0.166028 -0.02946,0.40814 0,0.239255 0.01134,0.385667 0.02842,0.406583 l 5.17e-4,5.2e-4 5.17e-4,5.18e-4 5.17e-4,5.2e-4 5.16e-4,5.19e-4 5.17e-4,5.2e-4 h 5.17e-4 5.17e-4 5.16e-4 5.17e-4 5.17e-4 l 5.17e-4,-5.2e-4 h 5.17e-4 l 5.16e-4,-5.19e-4 5.17e-4,-5.2e-4 5.17e-4,-5.18e-4 h 5.17e-4 c 0.0067,-0.0078 0.01454,-0.03309 0.02222,-0.07581 0.03269,-0.182293 0.03269,-0.480806 0,-0.663099 -0.0076,-0.04273 -0.015,-0.06697 -0.0217,-0.07477 -2.22e-4,-2.23e-4 -0.0011,-0.0011 -0.0016,-0.0016 l -5.17e-4,-5.19e-4 h -5.16e-4 l -5.17e-4,-5.2e-4 h -5.17e-4 -5.17e-4 -5.17e-4 -5.16e-4 -5.17e-4 c -1.05e-4,5.3e-5 -6.98e-4,-9.8e-5 -10e-4,0 z m -10.405049,0.774221 -5.17e-4,5.19e-4 c -0.01503,0.02648 -0.02532,0.45077 -0.02532,1.164187 0,0.713418 0.0098,1.136676 0.0248,1.163149 l 5.17e-4,5.19e-4 v 5.2e-4 h 5.17e-4 v 5.18e-4 h 5.17e-4 5.16e-4 l 5.17e-4,-5.18e-4 5.17e-4,-5.2e-4 c 0.0061,-0.01089 0.01307,-0.08235 0.02015,-0.220167 0.02667,-0.518847 0.02667,-1.368151 0,-1.887002 -0.0071,-0.137818 -0.0141,-0.208761 -0.02015,-0.219647 v -5.2e-4 l -5.17e-4,-5.19e-4 v -5.19e-4 h -5.17e-4 -5.16e-4 z m 10.393164,0.632981 c -3.07e-4,5.7e-5 -0.0012,4.34e-4 -0.0016,5.19e-4 -0.01842,0.007 -0.03197,0.0687 -0.03566,0.173953 h -5.17e-4 c -0.003,0.168281 0.02782,0.249756 0.0677,0.180704 0.04092,-0.06904 0.04283,-0.206608 0.0057,-0.305846 -0.0127,-0.03411 -0.02424,-0.05024 -0.03462,-0.04933 -3.09e-4,2.7e-5 -7.26e-4,-5.7e-5 -10e-4,0 z m 2.783292,0.680235 c -0.02307,0.0036 -0.03876,0.06093 -0.03876,0.157336 0,0.140213 0.03337,0.197846 0.0739,0.127738 0.04047,-0.07011 0.04047,-0.18483 0,-0.254957 -0.01273,-0.02191 -0.02465,-0.03174 -0.03514,-0.03012 z m -45.431852,0.92221 -0.192753,2.039664 c -0.2552,2.699427 -0.420401,10.970549 -0.262516,13.156041 0.04411,0.61042 0.07327,0.982598 0.09715,1.005812 1.26e-4,8.4e-5 7.09e-4,8.11e-4 10e-4,10e-4 h 5.17e-4 c 1.25e-4,5e-6 7.08e-4,-7e-6 0.001,0 h 5.17e-4 l 5.17e-4,-5.18e-4 c 0.03858,-0.03615 0.06528,-1.053119 0.122473,-3.555912 0.05384,-2.355854 0.127728,-6.164746 0.164848,-8.464502 z m 14.045655,0.43722 c -0.01897,0.0045 -0.03298,0.06671 -0.03721,0.174472 h -5.17e-4 c -0.003,0.168285 0.02782,0.249745 0.0677,0.180703 0.04092,-0.06905 0.04337,-0.206619 0.0062,-0.305846 -0.01063,-0.02849 -0.02144,-0.04488 -0.03049,-0.04881 -9.61e-4,-3.29e-4 -0.0022,-4.64e-4 -0.0031,-5.18e-4 -6.38e-4,-3.8e-5 -0.002,-8.8e-5 -0.0026,0 z m 28.61169,0.486029 -5.17e-4,5.2e-4 h -5.17e-4 -5.16e-4 c -2.81e-4,1.64e-4 -0.0013,8.26e-4 -0.0016,0.001 -0.01708,0.01608 -0.02945,0.122919 -0.02945,0.299096 h 0.0021 c -7.39e-4,0.186587 0.01212,0.306215 0.03049,0.327654 2.99e-4,2.95e-4 7.31e-4,7.95e-4 10e-4,10e-4 h 5.17e-4 l 5.17e-4,5.2e-4 c 2.25e-4,9.6e-5 0.0013,4.51e-4 0.0016,5.19e-4 l 5.17e-4,5.2e-4 c 2.3e-4,1.3e-5 0.0013,1.4e-5 0.0015,0 h 5.17e-4 c 2.35e-4,-7.1e-5 0.0013,-4.22e-4 0.0016,-5.2e-4 0.0069,-0.0036 0.01483,-0.01935 0.02274,-0.04777 0.03269,-0.125438 0.0338,-0.354896 0,-0.509916 -0.009,-0.04118 -0.01741,-0.0643 -0.02532,-0.07062 -2.31e-4,-1.57e-4 -0.0013,-9.1e-4 -0.0016,-10e-4 l -5.17e-4,-5.19e-4 h -5.16e-4 -5.17e-4 -5.17e-4 l -5.17e-4,-5.2e-4 h -5.16e-4 z m -35.656222,0.09243 c 0.01048,-0.0016 0.0225,0.0077 0.03514,0.0296 0.04052,0.07011 0.04052,0.184841 0,0.254958 -0.04078,0.07012 -0.0739,0.01301 -0.0739,-0.127219 0,-0.0964 0.01571,-0.153758 0.03876,-0.157337 z m 25.084774,1.023986 c -0.154208,1.633414 -0.370045,9.657333 -0.449585,16.725453 -0.05056,4.487331 -0.106474,8.342431 -0.125574,8.566797 -0.01864,0.224367 -0.06709,3.712431 -0.10697,7.751035 h 5.17e-4 c -0.03995,4.038594 -0.05238,6.654517 -0.02687,5.813147 0.0253,-0.841376 0.152244,-6.256998 0.282153,-12.034433 0.130007,-5.777443 0.265734,-10.756988 0.301274,-11.06549 0.03565,-0.308507 0.08895,-4.094557 0.118856,-8.413614 0.02992,-4.31905 0.03287,-7.623353 0.0062,-7.342895 z m -15.710669,0.800184 c -0.01955,0.0033 -0.03259,0.04036 -0.03669,0.109045 -0.0063,0.107507 0.02826,0.167873 0.077,0.13397 0.04878,-0.03389 0.05352,-0.121618 0.01137,-0.195242 -0.01987,-0.03432 -0.03741,-0.0502 -0.05168,-0.04777 z M 2.4742676,45.994509 c -0.214159,3.440369 -0.3962718,10.125127 -0.3446818,12.646125 0.02587,1.262064 0.06465,5.484189 0.0863,9.382558 l 0.039274,7.087937 0.098185,-5.455893 C 2.5397217,59.288654 2.6196326,43.659695 2.4742676,45.994509 Z m 20.1083334,0 c -0.06194,1.879068 -0.116456,4.265533 -0.121956,5.303231 -0.0058,1.037698 -0.01616,1.955529 -0.02325,2.039664 -0.08985,1.086238 -0.100905,3.093125 -0.02481,3.128038 h 5.17e-4 5.17e-4 5.17e-4 5.17e-4 5.16e-4 c 5.99e-4,-1.71e-4 0.002,-0.0012 0.0026,-0.0016 0.0031,-0.0024 0.0067,-0.0075 0.0098,-0.01558 0.07964,-0.203152 0.11667,0.0879 0.11007,0.86665 l -0.0098,1.173014 -0.09198,-0.867169 c -0.03491,-0.328212 -0.05708,-0.516348 -0.07286,-0.53536 l -5.17e-4,-5.19e-4 -5.16e-4,-5.2e-4 -5.17e-4,-5.19e-4 h -5.17e-4 l -5.17e-4,-5.19e-4 -5.17e-4,5.19e-4 h -5.16e-4 -5.17e-4 l -5.17e-4,5.19e-4 v 5.2e-4 c -0.0194,0.02762 -0.02921,0.369494 -0.04444,1.097202 -0.01643,0.78528 -0.05629,5.259709 -0.08785,9.943362 h 5.16e-4 c -0.04314,6.376869 -0.02697,7.606219 0.06408,4.89509 0.254288,-7.57448 0.289642,-9.621906 0.346232,-19.886725 0.03629,-6.581854 0.01588,-9.269699 -0.05426,-7.139343 z m 33.533354,1.47886 -0.110071,1.988777 c -0.06065,1.093789 -0.141494,2.218236 -0.179834,2.498692 -0.03819,0.280464 -0.10938,6.542021 -0.15813,13.914684 -0.04868,7.372652 -0.06312,13.3848 -0.03204,13.360111 0.03121,-0.02465 0.101166,-2.293552 0.155546,-5.042041 0.05435,-2.748489 0.18962,-9.114467 0.300756,-14.146794 0.11138,-5.032338 0.179706,-9.23162 0.152446,-9.331671 -0.02745,-0.100055 -0.06776,-0.870639 -0.0894,-1.71201 z m -2.718181,1.202094 c -0.007,10e-4 -0.01399,0.0081 -0.0217,0.02181 -0.06339,0.112179 -0.119074,0.61315 -0.125574,1.113299 -0.0057,0.500155 0.03746,0.87628 0.09612,0.835493 0.05872,-0.04081 0.115073,-0.542288 0.125573,-1.113818 0.0095,-0.52448 -0.02174,-0.864481 -0.07441,-0.856783 z m -11.061857,3.081304 -0.101286,4.48747 c -0.170278,7.557476 -0.218249,14.922179 -0.153479,23.405249 l 0.06149,8.107769 0.106454,-5.150049 c 0.145941,-7.082379 0.199816,-16.54433 0.137976,-24.323305 z m -12.015804,0.663099 c -0.0418,0.02804 -0.123177,2.070329 -0.180867,4.538356 -0.05767,2.468034 -0.125902,4.739771 -0.151412,5.048273 -0.02544,0.308501 -0.08174,3.268612 -0.125057,6.578021 -0.04522,3.437365 -0.02524,5.842119 0.04651,5.609076 0.06914,-0.224366 0.161846,-2.932174 0.206706,-6.017217 0.04464,-3.085036 0.125968,-7.903645 0.180868,-10.708236 0.0549,-2.804575 0.0654,-5.076328 0.02325,-5.048273 z m 23.00273,0.385812 v 5.2e-4 h -5.16e-4 -5.17e-4 c -0.01743,0.01765 -0.02946,0.231602 -0.02946,0.582613 h -0.0016 c 3.31e-4,0.32735 0.01113,0.523732 0.02687,0.548341 9.5e-5,1.23e-4 8.23e-4,0.0012 0.001,0.0016 l 5.17e-4,5.19e-4 h 5.17e-4 5.17e-4 v 5.19e-4 h 5.16e-4 5.17e-4 5.17e-4 5.17e-4 v -5.19e-4 h 5.16e-4 c 2.03e-4,-1.58e-4 8.3e-4,-8.29e-4 10e-4,-10e-4 0.007,-0.0089 0.01516,-0.04821 0.02325,-0.11943 0.03101,-0.268126 0.03049,-0.68084 0,-0.917537 -0.0071,-0.05548 -0.01492,-0.0869 -0.02119,-0.09451 l -5.17e-4,-5.19e-4 h -5.17e-4 v -5.2e-4 h -5.16e-4 -5.17e-4 -5.17e-4 z m -45.3284989,0.259113 -5.168e-4,5.19e-4 -5.168e-4,5.19e-4 c -1.013e-4,8.6e-5 -6.964e-4,8.27e-4 -0.00103,10e-4 h -5.167e-4 c -0.016371,0.02055 -0.027905,0.172184 -0.027905,0.423718 h 0.00103 c -3.919e-4,0.269954 0.011834,0.436205 0.029972,0.454874 2.077e-4,1.74e-4 0.00134,9.03e-4 0.00155,10e-4 l 5.168e-4,5.2e-4 h 5.168e-4 5.167e-4 5.168e-4 5.168e-4 5.167e-4 5.168e-4 c 2.19e-4,-1.36e-4 0.00133,-8.63e-4 0.00155,-0.001 l 5.167e-4,-5.2e-4 c 0.00624,-0.0071 0.013629,-0.0305 0.020671,-0.0701 0.03106,-0.181047 0.03163,-0.50239 0,-0.713986 -0.00839,-0.05605 -0.017442,-0.08733 -0.024805,-0.09502 l -5.167e-4,-5.2e-4 -5.168e-4,-5.19e-4 h -5.168e-4 l -5.167e-4,-5.19e-4 h -5.168e-4 -5.168e-4 z m 2.0236489,0.716063 c -0.019493,0.0033 -0.032987,0.04036 -0.037207,0.109045 -0.00635,0.107508 0.028228,0.167873 0.076998,0.13397 0.04866,-0.03389 0.05348,-0.121629 0.01137,-0.195243 -0.01982,-0.03433 -0.03693,-0.05019 -0.05116,-0.04777 z m 43.302783,0.920134 -5.16e-4,5.19e-4 h -5.17e-4 c -1.01e-4,8.1e-5 -6.96e-4,8.25e-4 -0.001,10e-4 h -5.16e-4 c -0.01694,0.02092 -0.02894,0.191608 -0.02894,0.470971 0,0.279372 0.01148,0.449015 0.02842,0.469933 l 5.17e-4,5.2e-4 c 2.02e-4,1.64e-4 0.0013,9.16e-4 0.0016,10e-4 l 5.17e-4,5.18e-4 h 5.16e-4 5.17e-4 5.17e-4 5.17e-4 5.16e-4 l 5.17e-4,-5.18e-4 5.17e-4,-5.2e-4 c 0.0069,-0.0069 0.01535,-0.03621 0.02325,-0.08879 0.03153,-0.210344 0.03153,-0.554535 0,-0.764874 -0.0079,-0.05259 -0.01586,-0.0814 -0.02274,-0.08827 l -5.17e-4,-5.19e-4 -5.17e-4,-5.19e-4 h -5.17e-4 -5.16e-4 l -5.17e-4,-5.19e-4 h -5.17e-4 z m -45.4628577,2.405224 -5.168e-4,5.2e-4 v 5.19e-4 c -0.014108,0.0416 -0.024353,0.807663 -0.024288,2.094706 0,1.272579 0.00943,2.021097 0.023254,2.058358 l 5.168e-4,5.19e-4 v 5.19e-4 l 5.167e-4,5.19e-4 h 5.168e-4 l 5.168e-4,-5.19e-4 c 0.00581,-0.01138 0.012294,-0.143414 0.01912,-0.40866 0.02427,-0.9431 0.02427,-2.457932 0,-3.36586 -0.00647,-0.24117 -0.012514,-0.363654 -0.018087,-0.379062 l -5.168e-4,-5.2e-4 v -5.19e-4 l -5.167e-4,-5.2e-4 z m 3.8013187,1.585829 -0.08992,2.651355 c -0.08861,2.621928 -0.08617,4.11344 0.01034,7.189713 0.01689,0.537798 0.02982,0.849886 0.04651,0.877554 h 5.17e-4 v 5.19e-4 c 3.44e-4,2.11e-4 9.46e-4,4.38e-4 0.001,5.19e-4 l 5.17e-4,5.2e-4 h 5.17e-4 5.16e-4 5.17e-4 l 5.17e-4,-5.2e-4 c 0.02694,-0.03045 0.06373,-0.760965 0.136942,-2.408341 0.08011,-1.805146 0.08649,-4.201633 0.01499,-5.710851 z m 3.516581,0.152663 c -0.145248,0.356369 -0.381392,7.973904 -0.434082,14.023211 -0.05525,6.326007 -0.0089,6.265081 0.271818,-0.357253 0.112531,-2.650707 0.245564,-13.870217 0.162264,-13.665958 z m 42.860433,2.039665 c -0.165421,0.116408 -0.241318,2.858272 -0.305408,11.065488 -0.04281,5.491864 -0.02547,7.565964 0.04754,5.659964 0.152565,-3.983534 0.350176,-16.790385 0.257866,-16.725452 z m -8.091496,3.336262 -5.17e-4,5.2e-4 -5.16e-4,5.19e-4 -5.17e-4,5.2e-4 c -0.01622,0.02108 -0.02791,0.195573 -0.02791,0.486549 h 5.17e-4 c -3.16e-4,0.308513 0.01176,0.497994 0.02946,0.518224 l 5.17e-4,5.19e-4 5.16e-4,5.19e-4 h 5.17e-4 l 5.17e-4,5.2e-4 h 5.17e-4 5.16e-4 5.17e-4 5.17e-4 5.17e-4 l 5.16e-4,-5.2e-4 5.17e-4,-5.19e-4 5.17e-4,-5.19e-4 c 0.0063,-0.0075 0.01404,-0.03472 0.02119,-0.08204 0.03049,-0.208854 0.03108,-0.575889 0,-0.815762 -0.0083,-0.06535 -0.01749,-0.100939 -0.0248,-0.108006 h -5.17e-4 v -5.2e-4 h -5.17e-4 -5.17e-4 -5.16e-4 -5.17e-4 z m -23.992334,1.314774 c -0.132823,-0.227884 -0.133217,15.062853 0,20.539438 l 0.07751,3.212678 0.07855,-4.997384 c 0.102841,-6.557938 0.0035,-18.481948 -0.156063,-18.754732 z m 8.412406,1.299195 c -0.01939,0.0037 -0.03261,0.04123 -0.03669,0.109565 -0.0064,0.1075 0.02825,0.167872 0.077,0.133969 0.04891,-0.03389 0.05404,-0.122148 0.01189,-0.195762 -0.01911,-0.03305 -0.03616,-0.04882 -0.05013,-0.04777 -6.38e-4,4.9e-5 -0.0014,-1.18e-4 -0.0021,0 z m -0.01499,1.738492 -5.16e-4,5.2e-4 h -5.17e-4 v 5.18e-4 c -0.0091,0.01427 -0.02162,0.134105 -0.03566,0.367119 -0.05912,0.981602 -0.115027,3.065933 -0.125057,4.631824 -0.0099,1.565888 0.0068,2.827911 0.03617,2.804538 0.02964,-0.02337 0.0857,-2.1077 0.125057,-4.631823 0.03074,-1.983486 0.03003,-3.147856 0.0016,-3.172176 h -5.17e-4 z m 4.738729,1.893751 -5.17e-4,5.19e-4 v 5.2e-4 c -0.01612,0.01602 -0.04217,0.160555 -0.08268,0.411256 -0.05877,0.364597 -0.10697,0.983922 -0.10697,1.376565 1.89e-4,0.52782 0.02931,0.634348 0.112138,0.408141 0.06148,-0.168277 0.10697,-0.788125 0.10697,-1.377085 -0.0025,-0.537375 -0.0061,-0.793303 -0.02429,-0.818358 l -5.17e-4,-5.19e-4 -5.17e-4,-5.2e-4 -5.16e-4,-5.19e-4 h -5.17e-4 -5.17e-4 -5.17e-4 -5.16e-4 -5.17e-4 z m 17.734318,0.292345 c -0.01752,0.01888 -0.03924,0.31339 -0.06666,0.833936 -0.05763,1.093782 -0.146384,6.233746 -0.197404,11.422223 -0.09265,9.438131 -0.206842,16.165318 -0.315227,18.561053 -0.03173,0.70114 -0.08377,4.78569 -0.114721,9.07671 h -0.0026 c -0.02882,4.29101 -0.02998,6.90693 0,5.81314 0.03007,-1.09378 0.107139,-4.44376 0.171049,-7.44467 0.149248,-7.00118 0.318755,-13.234415 0.395325,-14.533122 0.03305,-0.560914 0.09337,-3.6586 0.134358,-6.883867 0.04071,-3.225274 0.08392,-6.254425 0.0956,-6.731203 0.01216,-0.476778 0.0026,-3.207435 -0.02015,-6.068105 -0.02231,-2.789255 -0.04171,-4.000862 -0.07648,-4.045057 l -5.17e-4,-5.19e-4 -5.17e-4,-5.19e-4 h -5.17e-4 -5.16e-4 -5.17e-4 z M 8.4578817,71.389054 c -0.120369,0.08696 -0.2377689,4.515016 -0.3379639,12.747901 -0.05274,4.347101 -0.063258,7.880865 -0.022738,7.85281 0.04031,-0.02805 0.1163619,-1.381953 0.1689819,-3.008609 0.130654,-4.042684 0.2789796,-17.655185 0.19172,-17.592102 z m 19.7460813,0.748777 c -0.01937,0.0037 -0.03209,0.04123 -0.03617,0.109564 -0.0064,0.107507 0.02818,0.167873 0.077,0.13397 0.04878,-0.03389 0.05403,-0.122148 0.01188,-0.195762 -0.01913,-0.03305 -0.03667,-0.04882 -0.05064,-0.04777 -6.38e-4,4.8e-5 -0.0014,-1.19e-4 -0.0021,0 z m 10.803992,1.188592 c -0.0896,-0.09809 -0.149939,1.838838 -0.169499,5.405525 -0.03347,6.150209 0.0317,20.419386 0.09612,21.05974 0.02264,0.224362 0.0597,2.450422 0.08372,4.946492 l 0.04341,4.53836 0.124541,-7.08794 c 0.06831,-3.898357 0.09014,-9.795739 0.04857,-13.105148 -0.04137,-3.309409 -0.07463,-8.174157 -0.08113,-10.810532 -0.0035,-2.852844 -0.06264,-4.85552 -0.145727,-4.946497 z M 28.234452,73.70185 c -0.01471,-0.30223 -0.03972,0.248153 -0.08475,1.460686 -0.05519,1.486431 -0.09737,5.272482 -0.09147,8.413614 0.0088,5.465097 0.01369,5.559736 0.10697,2.192847 0.05354,-1.935164 0.09685,-5.721734 0.09095,-8.414133 -0.0028,-2.196287 -0.007,-3.350784 -0.0217,-3.653014 z m 1.597319,1.099279 c -0.02306,0.0036 -0.03876,0.06093 -0.03876,0.157337 0,0.140223 0.0335,0.197347 0.0739,0.127219 0.04047,-0.07012 0.04047,-0.18484 0,-0.254957 -0.01274,-0.02191 -0.02466,-0.03122 -0.03514,-0.0296 z m 23.33656,1.748877 c -2.16e-4,8.9e-5 -8.19e-4,4e-4 -0.001,5.19e-4 l -5.16e-4,5.2e-4 -5.17e-4,5.19e-4 c -0.01763,0.0177 -0.03049,0.142333 -0.03049,0.34479 0,0.202466 0.01183,0.326059 0.02945,0.343752 2.12e-4,1.81e-4 0.0013,8.89e-4 0.0016,0.001 l 5.16e-4,5.19e-4 5.17e-4,5.19e-4 h 5.17e-4 c 3.33e-4,-1.1e-5 9.24e-4,-1.4e-5 10e-4,0 h 5.17e-4 5.17e-4 5.17e-4 5.16e-4 5.17e-4 l 5.17e-4,-5.19e-4 c 0.0073,-0.005 0.01584,-0.02634 0.02429,-0.06491 0.0338,-0.154254 0.0338,-0.40707 0,-0.561323 -0.0083,-0.03856 -0.01598,-0.05935 -0.02325,-0.06439 -2.27e-4,-1.27e-4 -0.0013,-9.44e-4 -0.0016,-10e-4 h -5.17e-4 c -2.21e-4,-3.3e-5 -0.0013,3e-6 -0.0016,0 h -5.17e-4 -5.16e-4 z m -3.446301,1.111223 c -0.05941,1.402295 -0.117465,4.954739 -0.128675,7.894871 -0.01134,2.940137 0.01037,5.324632 0.04806,5.298557 0.03752,-0.0261 0.09488,-3.579063 0.128158,-7.895391 0.03516,-4.571699 0.01539,-6.783289 -0.04754,-5.298037 z m 3.424597,0.407621 -0.03566,12.697012 c -0.01998,6.98341 -0.05679,15.336298 -0.08165,18.561568 -0.02511,3.22527 -0.0064,7.26363 0.04186,8.97442 l 0.08733,3.11038 0.0863,-5.25702 c 0.04732,-2.89162 0.04483,-12.64408 -0.0057,-21.671945 z m -35.146692,0.153182 c -0.04108,0.02805 -0.121691,2.552079 -0.178801,5.609077 -0.05712,3.056992 -0.06283,5.530161 -0.01292,5.495876 0.04957,-0.03426 0.129514,-2.558292 0.178284,-5.609076 0.04822,-3.050781 0.05451,-5.523932 0.01344,-5.495877 z m 37.6592,1.246231 -5.17e-4,5.2e-4 h -5.17e-4 l -5.16e-4,5.18e-4 c -0.0187,0.01255 -0.03204,0.114863 -0.03204,0.282479 0,0.165638 0.01215,0.266959 0.03049,0.28144 2.2e-4,1.48e-4 0.0013,9.17e-4 0.0016,0.001 h 5.16e-4 c 2.25e-4,7.4e-5 0.0013,4.72e-4 0.0016,5.2e-4 h 5.16e-4 c 2.3e-4,-2e-6 0.0013,2.7e-5 0.0016,0 h 5.17e-4 c 2.34e-4,-7.8e-5 0.0013,-4.16e-4 0.0016,-5.2e-4 0.0076,-0.0041 0.01658,-0.02141 0.02532,-0.05296 0.0349,-0.126215 0.0349,-0.332825 0,-0.459029 -0.0087,-0.03155 -0.01722,-0.04884 -0.0248,-0.05297 -2.36e-4,-1.02e-4 -0.0013,-4.41e-4 -0.0016,-5.18e-4 h -5.16e-4 -5.17e-4 l -5.17e-4,-5.2e-4 h -5.17e-4 -5.17e-4 -5.16e-4 z m -41.807784,0.334405 c -0.207761,0.456825 -0.413502,34.544302 -0.248564,41.176492 0.03175,1.27609 0.101776,2.32015 0.155546,2.32008 0.05375,-5e-5 0.106889,-9.80964 0.118339,-21.79918 0.0117,-11.989517 1.89e-4,-21.753492 -0.02532,-21.697392 z m -9.0103028,0.560804 c -0.062769,1.262065 -0.1496264,5.186204 -0.1922364,8.71998 -0.04721,3.872935 -0.03304,5.452439 0.03514,3.977033 0.062209,-1.3462 0.1489764,-5.269826 0.1922364,-8.719461 0.04756,-3.767468 0.0334,-5.355891 -0.03514,-3.977552 z m -4.14703371,2.366281 c -0.0259926,0.0031 -0.067251,0.03157 -0.11368816,0.08152 -0.078134,0.08413 -0.14211018,0.198868 -0.14211018,0.254958 0,0.0561 0.0639302,0.03325 0.14211018,-0.05089 0.078178,-0.08414 0.14211019,-0.198868 0.14211019,-0.254958 0,-0.02279 -0.0106377,-0.03274 -0.028422,-0.03064 z m -0.29352214,0.509915 c -0.0260056,0.0031 -0.0672688,0.03157 -0.11368815,0.08152 -0.078156,0.08414 -0.14211019,0.198868 -0.14211019,0.254958 0,0.0561 0.0639002,0.03325 0.14211019,-0.05089 0.078204,-0.08413 0.14211019,-0.198868 0.14211019,-0.254958 0,-0.02279 -0.0106287,-0.03274 -0.028422,-0.03064 z M 46.139303,83.431796 c -0.05045,0.03559 -0.14946,7.639139 -0.10232,7.869426 0.0086,0.04209 0.04836,0.07685 0.08888,0.07685 0.04014,0 0.07338,-1.797769 0.07338,-3.994688 0,-2.196925 -0.02666,-3.974962 -0.05994,-3.951588 z m -12.258684,0.09347 c -0.05892,1.542521 -0.144275,6.705321 -0.189135,11.47311 -0.0489,5.182634 -0.0354,7.386344 0.03307,5.479774 0.063,-1.753949 0.147629,-6.916752 0.188619,-11.473105 0.04101,-4.556365 0.02642,-7.022299 -0.03256,-5.479779 z M 2.282548,83.741795 c -0.02588,0.02106 -0.091441,3.388409 -0.1452108,7.483096 -0.05381,4.09469 -0.1287181,9.303689 -0.1663981,11.575409 -0.122128,7.32222 -0.1887499,22.34037 -0.1054199,23.89128 0.044522,0.82815 0.096722,1.49363 0.116272,1.47885 0.184577,-0.1399 0.2362077,-4.25494 0.2878377,-22.90987 0.03351,-11.856397 0.038959,-21.539876 0.012919,-21.518765 z m 33.978288,0.599229 c -0.0927,-0.06408 0.08475,12.300749 0.181384,12.641453 0.03896,0.137641 0.08517,5.736503 0.102836,12.442053 0.01758,6.70553 0.06824,13.68324 0.112655,15.50623 l 0.08113,3.31445 0.07441,-2.90631 c 0.12993,-5.08109 0.154254,-14.17572 0.03772,-14.17588 -0.06179,-1e-4 -0.122776,-2.53607 -0.134876,-5.63504 -0.01235,-3.09898 -0.06184,-7.332089 -0.109554,-9.40748 -0.04767,-2.075389 -0.128297,-5.563459 -0.179317,-7.751035 -0.05101,-2.187576 -0.125998,-4.000386 -0.166398,-4.028441 z m -6.419763,3.671188 -5.17e-4,5.2e-4 -5.17e-4,5.19e-4 c -0.01565,0.0276 -0.04007,0.406543 -0.077,1.070201 -0.05639,1.009646 -0.09943,3.396112 -0.09353,5.30323 0.0081,3.222477 0.01575,3.323034 0.10852,1.427453 0.05465,-1.121838 0.09943,-3.508303 0.09353,-5.30323 -0.0033,-1.688787 -0.0078,-2.457332 -0.02842,-2.497135 l -5.17e-4,-5.19e-4 -5.17e-4,-5.19e-4 v -5.2e-4 h -5.17e-4 z m -9.455237,0.918057 c -0.127978,0 -0.118484,-0.800699 -0.194304,16.368721 -0.04623,10.4618 -0.02817,14.35002 0.05168,11.21815 0.149828,-5.87262 0.261949,-27.586871 0.142627,-27.586871 z m 7.690486,0.896248 c -3.07e-4,5.6e-5 -0.0012,4.33e-4 -0.0016,5.18e-4 -0.01839,0.007 -0.03145,0.0687 -0.03514,0.173953 h -5.17e-4 c -0.003,0.168286 0.02782,0.249756 0.0677,0.180704 0.04073,-0.06905 0.04278,-0.206608 0.0057,-0.305846 -0.01274,-0.03411 -0.02474,-0.05024 -0.03514,-0.04933 -3.1e-4,2.7e-5 -7.26e-4,-5.7e-5 -10e-4,0 z m -21.2860388,0.0727 0.00568,6.679795 c 0.00325,3.701788 0.013017,5.258898 0.049609,5.312568 l 5.167e-4,5.3e-4 5.168e-4,5.2e-4 5.168e-4,5.1e-4 h 5.167e-4 l 5.168e-4,-5.1e-4 c 0.019225,-0.018 0.04591,-0.41153 0.081649,-1.09877 0.07506,-1.436337 0.072942,-4.225074 -0.00517,-6.680307 z m 3.9206908,0.764873 c -0.04494,0.757235 -0.0879,3.671666 -0.0956,6.476245 -0.0067,2.487266 0.0014,3.669105 0.02946,3.729865 1.68e-4,2.8e-4 8.65e-4,0.001 0.001,0.002 l 5.17e-4,5.1e-4 h 5.16e-4 5.17e-4 5.17e-4 l 5.17e-4,-5.1e-4 c 0.01402,-0.021 0.03281,-0.2859 0.05633,-0.77423 0.05668,-1.177909 0.101101,-4.091827 0.0956,-6.475719 -0.0043,-2.383897 -0.04448,-3.714955 -0.0894,-2.957721 z m 38.910287,0.647002 c -0.01939,0.0037 -0.03261,0.04123 -0.03669,0.109564 -0.0064,0.107506 0.02818,0.167353 0.077,0.13345 0.04878,-0.03389 0.05404,-0.121618 0.01189,-0.195242 -0.01911,-0.03305 -0.03616,-0.04882 -0.05013,-0.04777 -6.38e-4,4.8e-5 -0.0014,-1.19e-4 -0.0021,0 z m -3.537769,0.219648 c -0.08155,0.0591 -0.187177,1.903494 -0.251147,4.385693 -0.06062,2.35585 -0.118728,4.611757 -0.129708,5.013487 -0.01087,0.4017 0.03703,0.70591 0.106453,0.67607 0.06947,-0.0299 0.05353,0.04 -0.03514,0.15526 -0.112779,0.14704 -0.153902,2.13607 -0.136942,6.66681 h 5.16e-4 c 0.0169,4.45607 0.05589,5.87256 0.126608,4.57056 0.05642,-1.03769 0.1449,-4.61713 0.19637,-7.95459 0.05162,-3.33745 0.132181,-7.766194 0.178801,-9.841583 0.05423,-2.410284 0.03408,-3.736851 -0.05581,-3.671707 z m -23.511226,3.773482 c -0.06472,1.290104 -0.160744,6.338698 -0.213424,11.218668 -0.05258,4.87998 -0.06174,8.84938 -0.02067,8.82124 0.148902,-0.10168 0.235896,-3.99983 0.293006,-13.10464 0.03597,-5.742021 0.01384,-8.386554 -0.05891,-6.935268 z m 37.644213,2.984203 c -0.04709,0.06357 -0.0801,0.125716 -0.0801,0.157856 -8.28e-4,0.03243 0.03186,0.04633 0.0801,0.03894 z M 4.4829305,98.792626 v 5.2e-4 h -5.168e-4 v 5.19e-4 c -0.014562,0.03033 -0.024805,0.503255 -0.024805,1.303865 h 5.168e-4 c 0,0.81898 0.00985,1.30826 0.024805,1.33814 l 5.168e-4,5.2e-4 v 5.3e-4 h 5.167e-4 v 5.1e-4 h 5.168e-4 5.168e-4 l 5.167e-4,-5.1e-4 5.168e-4,-5.3e-4 c 0.00577,-0.0121 0.012409,-0.0893 0.01912,-0.23678 0.02604,-0.57189 0.02604,-1.53541 0,-2.14144 -0.0071,-0.165711 -0.014053,-0.251227 -0.020154,-0.263786 v -5.19e-4 l -5.168e-4,-5.19e-4 -5.168e-4,-5.2e-4 h -5.167e-4 z m 55.7335485,0.234707 c -0.03335,0.0082 -0.09187,0.07398 -0.135392,0.152663 -0.04653,0.08413 -0.02085,0.152664 0.05736,0.152664 0.02878,0 0.05556,-0.0095 0.07803,-0.02544 z m -32.201652,1.529227 c -0.06088,2.77654 -0.144985,9.40796 -0.186035,14.73668 -0.04109,5.32868 -0.02326,8.79393 0.03979,7.70014 0.06309,-1.09379 0.146739,-7.72575 0.185519,-14.73719 0.04388,-7.83903 0.0287,-10.803877 -0.03927,-7.69963 z m 21.695317,0.15734 c -0.08106,0.0348 -0.136943,1.66687 -0.136943,3.99625 0,2.16556 0.02473,3.9184 0.05581,3.89499 0.12981,-0.0985 0.210485,-7.94681 0.08113,-7.89124 z m 10.506335,0.11839 c -0.0487,0.23698 -0.07288,0.88922 -0.08113,2.06979 -0.0093,1.31814 -0.03844,2.76392 -0.06511,3.21267 -0.07026,1.18105 -0.104697,4.53749 -0.09302,8.96611 0.0057,2.12682 0.04422,3.84366 0.08527,3.81502 0.05311,-0.037 0.106267,-1.00536 0.153995,-2.4774 z m -52.1554723,0.79499 c -0.064489,0.6731 -0.1638752,4.04644 -0.2211752,7.49608 h -5.167e-4 c -0.05724,3.44964 -0.06572,6.24665 -0.01912,6.2161 0.185269,-0.12176 0.2373527,-1.5447 0.2966227,-8.1031 0.03535,-3.90937 0.01128,-6.30927 -0.055811,-5.60908 z m -3.7026164,4.30884 c -0.02313,-1.13585 -0.042891,-0.2066 -0.042891,2.06511 0,2.27172 0.018921,3.20147 0.042891,2.06563 0.02402,-1.13586 0.02402,-2.99489 0,-4.13074 z m 37.6716027,1.27843 v 5.2e-4 h -5.17e-4 v 5.2e-4 c -0.01592,0.0237 -0.02739,0.30909 -0.02739,0.78564 0,0.47654 0.01095,0.76194 0.02687,0.78565 l 5.17e-4,5.1e-4 v 5.3e-4 h 5.17e-4 v 5.2e-4 h 5.16e-4 5.17e-4 5.17e-4 5.17e-4 v -5.2e-4 h 5.16e-4 v -5.3e-4 c 0.0064,-0.009 0.01427,-0.0581 0.02171,-0.1485 0.02881,-0.35058 0.02881,-0.92422 0,-1.2748 -0.0076,-0.0931 -0.01517,-0.14114 -0.02171,-0.1485 v -5.2e-4 h -5.16e-4 v -5.2e-4 h -5.17e-4 -5.17e-4 -5.17e-4 z m -0.03566,2.45403 c -0.01955,0.003 -0.0331,0.0404 -0.03721,0.10905 -0.0064,0.10752 0.02812,0.16783 0.077,0.13397 0.04878,-0.0339 0.05403,-0.12159 0.01188,-0.19525 -0.01987,-0.0343 -0.03741,-0.0502 -0.05168,-0.0478 z m -25.795325,0.028 -5.17e-4,5.1e-4 -5.16e-4,5.2e-4 c -0.03042,0.0399 -0.04168,0.71542 -0.06201,2.28113 -0.02009,1.5425 -0.05902,2.98831 -0.0863,3.21268 -0.07211,0.59482 -0.153231,11.05745 -0.09405,12.12322 0.03836,0.69175 0.09081,0.87646 0.222209,0.78512 0.215364,-0.14971 0.325891,-15.58367 0.12609,-17.59989 -0.04767,-0.48184 -0.07867,-0.77245 -0.100252,-0.80122 l -5.17e-4,-5.1e-4 -5.16e-4,-5.3e-4 c -1.09e-4,-6e-5 -7e-4,-8e-4 -0.001,-10e-4 h -5.17e-4 -5.16e-4 -5.17e-4 -5.17e-4 z m 25.794808,0.58365 c -0.0194,0.004 -0.03261,0.0412 -0.03669,0.10956 -0.0064,0.10754 0.02812,0.16732 0.077,0.13346 0.04878,-0.0339 0.05403,-0.1216 0.01188,-0.19525 -0.01913,-0.0331 -0.03615,-0.0488 -0.05013,-0.0478 -6.38e-4,5e-5 -0.0014,-1.2e-4 -0.0021,0 z m 0,0.50991 c -0.01935,0.004 -0.03257,0.0416 -0.03669,0.10957 -0.0062,0.10718 0.0282,0.16725 0.077,0.13345 0.04878,-0.0339 0.05403,-0.12159 0.01188,-0.19524 -0.01913,-0.033 -0.03615,-0.0488 -0.05013,-0.0478 -6.36e-4,5e-5 -0.0014,-1.2e-4 -0.0021,0 z M 6.4424978,110.9589 c -0.054877,1.82298 -0.1522042,6.44838 -0.2165242,10.27829 -0.108593,6.46411 -0.099775,6.9587 0.1260905,6.89841 0.224398,-0.0599 0.241311,-0.84929 0.217041,-10.27829 -0.01904,-7.31251 -0.055247,-9.27158 -0.1266073,-6.89841 z m 37.4297562,1.12213 c -0.157582,-1.12158 -0.314507,4.60449 -0.287837,10.50416 0.01471,3.26703 0.06876,5.10831 0.134875,4.58925 0.14264,-1.11961 0.27531,-14.22242 0.152962,-15.09341 z m -13.368693,0.0509 c -0.06158,0.89746 -0.144668,4.86729 -0.183968,8.82175 h 5.17e-4 c -0.04296,4.33275 -0.02635,6.25773 0.04237,4.84421 0.06279,-1.29011 0.145131,-5.25994 0.183451,-8.82176 0.03821,-3.58837 0.01965,-5.74837 -0.04237,-4.8442 z m 15.171167,2.85126 c -0.02306,0.004 -0.03876,0.0609 -0.03876,0.15734 0,0.14024 0.0335,0.19736 0.0739,0.12722 0.04052,-0.0701 0.04052,-0.18482 0,-0.25495 -0.01274,-0.0219 -0.02466,-0.0312 -0.03514,-0.0296 z m -34.736897,0.87964 c -0.03188,0.0234 -0.09841,1.57974 -0.148312,3.45881 -0.04981,1.87907 -0.127653,4.6445 -0.173633,6.14495 -0.07473,2.44348 -0.05933,2.72769 0.148312,2.72769 0.205951,0 0.232211,-0.31965 0.237711,-2.82998 0.003,-1.55655 0.0059,-3.19702 0.01137,-3.64575 0.01825,-2.5137 -0.02555,-5.8924 -0.07545,-5.85572 z m -3.1067875,0.24198 c -0.023061,0.004 -0.038757,0.0609 -0.038757,0.15734 0,0.14023 0.033497,0.19787 0.073897,0.12773 0.04047,-0.0701 0.04047,-0.18482 0,-0.25495 -0.012734,-0.0219 -0.024658,-0.0318 -0.03514,-0.0301 z m 17.7446535,1.2457 c -0.0184,0.23814 -0.02432,1.27784 -0.03514,3.34821 -0.01211,2.29977 0.02715,4.91569 0.08733,5.81315 0.03574,0.53086 0.06053,0.8429 0.07906,0.87392 9.9e-5,1.4e-4 8.24e-4,7.1e-4 0.001,0.001 v 5.3e-4 l 5.16e-4,5.2e-4 h 5.17e-4 c 9.6e-5,0 6.94e-4,-1e-5 0.001,0 h 5.16e-4 5.17e-4 l 5.17e-4,-5.2e-4 c 0.02879,-0.0396 0.04214,-0.86702 0.0615,-2.76248 0.0198,-1.93517 -0.01942,-4.55107 -0.08733,-5.81314 -0.06105,-1.13619 -0.09167,-1.69934 -0.110071,-1.46122 z m 15.139127,0.65376 c -0.136891,0.10161 -0.245235,4.25007 -0.150895,5.76953 h 5.17e-4 c 0.05691,0.91699 0.126796,1.66683 0.155546,1.66683 0.02809,0 0.05219,-1.68253 0.05219,-3.73921 0,-2.0567 -0.02583,-3.72056 -0.05736,-3.69715 z m 15.228012,0.75189 c -6.91e-4,9e-5 -0.0014,3.4e-4 -0.0021,5.2e-4 -0.02221,0.006 -0.03721,0.0631 -0.03721,0.15734 0,0.14024 0.03343,0.19736 0.0739,0.12722 0.04047,-0.0701 0.04047,-0.18482 0,-0.25496 -0.01255,-0.0216 -0.02427,-0.0314 -0.03462,-0.0301 z m -6.885885,0.40191 -5.17e-4,5.2e-4 c -1.94e-4,2.1e-4 -0.0014,10e-4 -0.0016,0.002 -0.01775,0.027 -0.04152,0.24676 -0.0739,0.62052 -0.08565,0.98786 -0.21958,8.05305 -0.15813,8.33728 0.0091,0.0421 0.07537,0.0763 0.146761,0.0763 0.14127,0 0.351647,-3.39607 0.246496,-3.97704 -0.03552,-0.19632 -0.07896,-1.55022 -0.09663,-3.0086 -0.01684,-1.38567 -0.03043,-2.00588 -0.05839,-2.04849 l -5.17e-4,-5.2e-4 -5.16e-4,-5.2e-4 -5.17e-4,-5.2e-4 -5.17e-4,-5.2e-4 h -5.17e-4 -5.17e-4 -5.16e-4 z m 4.109827,2.66797 -5.17e-4,5.2e-4 h -5.17e-4 c -0.01759,0.0127 -0.03049,0.11995 -0.03049,0.29961 h 0.0021 c -6.93e-4,0.1864 0.01213,0.30615 0.03049,0.32766 2.99e-4,3e-4 7.31e-4,7.9e-4 10e-4,0.001 l 5.16e-4,5.2e-4 h 5.17e-4 v 5.2e-4 c 3.32e-4,10e-5 9.21e-4,-5e-5 10e-4,0 l 5.16e-4,5.2e-4 c 2.29e-4,4e-5 0.0013,-2e-5 0.0016,0 h 5.17e-4 5.16e-4 5.17e-4 5.17e-4 l 5.17e-4,-5.2e-4 c 0.0069,-0.004 0.01535,-0.0194 0.02325,-0.0478 0.03269,-0.12543 0.03386,-0.3549 0,-0.50991 -0.009,-0.0412 -0.01793,-0.0643 -0.02584,-0.0706 -2.31e-4,-1.6e-4 -0.0013,-9.2e-4 -0.0016,-0.001 h -5.16e-4 c -2.27e-4,-7e-5 -0.0013,-4.7e-4 -0.0016,-5.2e-4 h -5.16e-4 -5.17e-4 -5.17e-4 -5.17e-4 z m -14.520044,0.91235 c -0.02804,-0.0561 -0.05645,1.1483 -0.06305,2.6768 -0.0064,1.5285 0.04343,2.77909 0.110588,2.77909 0.112617,0 0.06731,-5.22792 -0.04754,-5.45589 z m -6.295223,2.35381 v 5.3e-4 h -5.17e-4 c -0.01503,0.0265 -0.02532,0.45076 -0.02532,1.16418 0,0.71343 0.01029,1.13668 0.02532,1.16315 v 5.2e-4 l 5.17e-4,5.2e-4 5.16e-4,5.2e-4 h 5.17e-4 l 5.17e-4,-5.2e-4 h 5.17e-4 v -5.2e-4 c 0.0061,-0.0109 0.01307,-0.0829 0.02015,-0.22069 0.02667,-0.51883 0.02667,-1.36764 0,-1.88648 -0.0071,-0.13782 -0.01359,-0.20928 -0.01964,-0.22016 l -5.16e-4,-5.2e-4 -5.17e-4,-5.3e-4 h -5.17e-4 -5.17e-4 z m 26.549284,0.26691 -5.17e-4,5.2e-4 c -0.01521,0.025 -0.02584,0.42597 -0.02584,1.10084 0,0.67483 0.01009,1.07578 0.02532,1.10083 v 5.2e-4 h 5.17e-4 v 5.2e-4 h 5.17e-4 5.16e-4 5.17e-4 l 5.17e-4,-5.2e-4 v -5.2e-4 c 0.0061,-0.0103 0.01343,-0.0778 0.02067,-0.20823 0.02667,-0.4908 0.02667,-1.29388 0,-1.7847 -0.0071,-0.13037 -0.01404,-0.19793 -0.02015,-0.20823 v -5.1e-4 h -5.17e-4 v -5.2e-4 h -5.17e-4 -5.17e-4 z m -37.700025,0.82095 v 5.2e-4 h -5.17e-4 l -5.16e-4,5.2e-4 c -0.01582,0.0193 -0.02687,0.28615 -0.02687,0.7384 h 5.17e-4 c -3.9e-4,0.46804 0.01121,0.75031 0.02791,0.7711 l 5.17e-4,5.2e-4 5.16e-4,5.1e-4 h 5.17e-4 5.17e-4 5.17e-4 5.16e-4 l 5.17e-4,-5.1e-4 c 1.97e-4,-2.3e-4 8.36e-4,-0.001 0.001,-0.002 0.006,-0.0111 0.0129,-0.0537 0.01964,-0.12878 0.02818,-0.32033 0.02885,-0.87061 0,-1.22339 -0.0079,-0.0965 -0.01547,-0.14708 -0.02222,-0.15577 l -5.17e-4,-5.2e-4 v -5.2e-4 h -5.17e-4 l -5.16e-4,-5.2e-4 h -5.17e-4 z m 2.199866,0.0628 -5.17e-4,5.2e-4 h -5.17e-4 v 5.3e-4 h -5.16e-4 c -0.01583,0.0221 -0.02687,0.26582 -0.02687,0.67556 h 5.17e-4 c 0,0.42416 0.01131,0.68237 0.02791,0.70723 l 5.17e-4,5.2e-4 v 5.1e-4 l 5.16e-4,5.3e-4 h 5.17e-4 l 5.17e-4,5.2e-4 h 5.17e-4 5.16e-4 l 5.17e-4,-5.2e-4 5.17e-4,-5.3e-4 5.17e-4,-5.1e-4 5.16e-4,-5.2e-4 c 0.006,-0.01 0.01328,-0.0483 0.02015,-0.11683 0.02874,-0.29244 0.02939,-0.79756 0,-1.12213 -0.0078,-0.0862 -0.01548,-0.13266 -0.02222,-0.1428 l -5.16e-4,-5.2e-4 -5.17e-4,-5.1e-4 -5.17e-4,-5.3e-4 h -5.17e-4 v -5.2e-4 h -5.16e-4 z m 18.315161,0.0602 c -0.02391,0.001 -0.04031,0.0587 -0.04031,0.15734 0,0.14023 0.03343,0.19787 0.0739,0.12773 0.04047,-0.0701 0.04047,-0.18482 0,-0.25496 -0.01208,-0.0208 -0.02349,-0.0306 -0.03359,-0.0301 z m 13.220898,0.27313 -5.16e-4,5.2e-4 h -5.17e-4 l -5.17e-4,5.2e-4 -5.17e-4,5.2e-4 c -0.01647,0.0223 -0.02842,0.23861 -0.02842,0.59663 0,0.36217 0.01164,0.57914 0.02842,0.59716 l 5.17e-4,5.1e-4 h 5.17e-4 l 5.17e-4,5.2e-4 h 5.16e-4 5.17e-4 5.17e-4 5.17e-4 v -5.2e-4 h 5.16e-4 l 5.17e-4,-5.1e-4 c 0.0066,-0.009 0.01475,-0.0461 0.02222,-0.11269 0.02998,-0.26643 0.02998,-0.7025 0,-0.96894 -0.0075,-0.0666 -0.01565,-0.10343 -0.02222,-0.11216 l -5.17e-4,-5.2e-4 v -5.2e-4 h -5.16e-4 -5.17e-4 l -5.17e-4,-5.2e-4 z m -41.96333,1.02347 c -2.29e-4,6e-5 -0.0013,4.3e-4 -0.0015,5.1e-4 -2.9e-4,1.4e-4 -0.0013,8.7e-4 -0.0015,10e-4 -0.01765,0.0131 -0.03049,0.097 -0.03049,0.23626 h -0.0026 c -0.0012,0.15794 0.01303,0.25596 0.03411,0.26638 l 5.17e-4,5.2e-4 h 5.17e-4 5.17e-4 5.16e-4 5.17e-4 v 5.2e-4 h 5.17e-4 5.17e-4 5.16e-4 5.17e-4 c 0.0075,-0.002 0.01675,-0.014 0.02532,-0.0369 0.03939,-0.0975 0.04012,-0.28128 0.0052,-0.40814 -0.0098,-0.0353 -0.01982,-0.0546 -0.02842,-0.0592 -2.85e-4,-1.2e-4 -7.5e-4,-4.3e-4 -10e-4,-5.2e-4 -1.19e-4,-2e-5 -0.0012,-4e-4 -0.0016,-5.1e-4 -2.34e-4,-1e-5 -0.0013,-2e-5 -0.0015,0 z" />
</svg>
