<?xml version="1.0" encoding="UTF-8" standalone="no"?>
<!-- Created with Inkscape (http://www.inkscape.org/) -->

<svg
   id="svg5"
   width="37.504124mm"
   height="35.023476mm"
   version="1.1"
   viewBox="0 0 37.504124 35.023476"
   sodipodi:docname="bomb.svg"
   inkscape:version="1.4.2 (f4327f4, 2025-05-13)"
   xmlns:inkscape="http://www.inkscape.org/namespaces/inkscape"
   xmlns:sodipodi="http://sodipodi.sourceforge.net/DTD/sodipodi-0.dtd"
   xmlns="http://www.w3.org/2000/svg"
   xmlns:svg="http://www.w3.org/2000/svg">
  <defs
     id="defs1" />
  <sodipodi:namedview
     id="namedview1"
     pagecolor="#ffffff"
     bordercolor="#cccccc"
     borderopacity="1"
     inkscape:showpageshadow="0"
     inkscape:pageopacity="1"
     inkscape:pagecheckerboard="0"
     inkscape:deskcolor="#d1d1d1"
     inkscape:document-units="mm"
     inkscape:zoom="1.905349"
     inkscape:cx="-21.255949"
     inkscape:cy="41.72464"
     inkscape:window-width="1920"
     inkscape:window-height="1009"
     inkscape:window-x="-8"
     inkscape:window-y="-8"
     inkscape:window-maximized="1"
     inkscape:current-layer="svg5" />
  <g
     id="layer1"
     transform="matrix(0.6250687,0,0,0.6250687,-122.91127,6.1795952)">
    <path
       id="path63743"
       d="m 243.85406,-9.8862657 c -1.75741,0.00548 -2.88752,0.5750057 -3.89683,0.9020789 -1.46782,0.4755847 -2.81713,1.3459483 -3.99984,2.4934666 -0.71301,0.0276 -1.52362,0.082301 -2.45023,0.2505925 -1.31631,0.2389724 -2.86063,0.4801348 -4.29484,2.0921117 -0.172,0.1941319 -0.328,0.3954839 -0.46901,0.5998759 -1.35711,-0.7915278 -3.18153,-1.3331432 -5.45415,-1.3803386 -1.71552,-0.0357 -3.71034,0.1834318 -6.08366,0.7288272 -11.19011,2.2361321 -19.22819,10.0608614 -20.3965,20.7452645 -0.44101,3.937267 -0.147,10.953985 2.18822,15.97197 0.62701,1.345627 1.45502,2.640985 2.43082,3.876832 l -0.02,-0.0421 a 3.1354297,3.1354297 0 0 0 0.36701,0.412814 l -0.322,-0.345183 c 2.46682,3.114445 5.91515,5.915569 10.00969,7.373257 4.82595,1.717976 6.29577,1.92515 9.03889,2.198389 3.41054,0.339764 8.49379,0.300013 12.50743,-2.086709 1.45241,-0.863689 3.32323,-2.11089 5.08435,-3.459057 1.76111,-1.348167 3.34643,-2.592423 4.49914,-4.335214 0.37201,-0.563356 1.79212,-2.091232 2.93143,-4.467632 1.13871,-2.376403 1.94592,-5.657766 1.70602,-10.066106 -0.30401,-5.578933 -2.01732,-9.407077 -3.32754,-11.5831843 l 0.81101,-1.3606814 c 0.41401,-0.6549465 0.70601,-1.3363892 0.91701,-2.022337 0.42101,0.4623245 0.86301,0.8467283 1.28341,1.1967248 0.92501,0.7701176 1.40702,1.2028559 2.61783,1.6706625 1.56352,0.6040364 2.36832,0.1368614 2.98983,-0.1244212 0.62201,-0.2612926 1.10641,-0.5791557 1.57802,-0.9521994 0.943,-0.7460974 1.88641,-1.5991268 2.36302,-3.332037 0.83501,-3.0346169 -1.60942,-5.25565687 -1.60942,-5.25565687 a 3.1354297,3.1354297 0 0 0 -2.02112,-0.75000741 c 0,0 0.53601,0.0659006 0.52801,0.0627006 -0.009,-0.00326 -0.219,-0.0790008 -0.62401,-0.39401392 0.153,0.1187912 -0.264,-0.3356633 -0.604,-1.1068609 -0.34101,-0.7711876 -0.67601,-1.7681665 -1.10632,-2.7738544 -1.19991,-2.8061797 -3.63623,-4.4858133 -6.40406,-4.7074095 -0.258,-0.0206 -0.512,-0.0312 -0.76401,-0.0305 z m -5.25285,1.7343871 a 3.1354297,3.1354297 0 0 0 -0.003,0.00281 3.1354297,3.1354297 0 0 0 -0.008,0.00259 c 0.01,-0.00568 -0.003,0.00138 0.01,-0.0054 z m -1.24921,1.1844127 a 3.1354297,3.1354297 0 0 0 -0.007,0.02 l -0.003,-0.00346 c 0,0 0.007,-0.0109 0.01,-0.0166 z m 6.20896,7.27108087 0.008,0.0856008 -0.07,0.15467153 -0.222,0.0453004 a 3.1354297,3.1354297 0 0 0 0.286,-0.28557282 z"
       color="#000000"
       fill="#e6e6e6"
       stroke-linecap="round"
       stroke-linejoin="round"
       stroke-width="6.27022"
       style="-inkscape-stroke:none" />
    <path
       id="path40059"
       d="m 228.83012,1.5015798 -1.74892,-2.2875086 -1.74992,-0.5438554 -2.57242,-0.306493 -4.85425,0.5193751 -3.87244,1.34952536 -5.32215,2.31383784 -3.31954,3.3061197 -2.60252,3.4223288 -1.52482,2.6828124 -0.652,2.698319 -0.66701,3.751074 0.264,3.502217 0.86701,5.516825 1.82382,4.937826 1.55351,2.406554 2.95093,2.791159 2.89533,1.624781 2.17692,1.322902 4.60625,1.45114 2.95363,0.575636 6.73957,-0.169121 4.52094,-1.569969 2.56683,-1.510459 4.50564,-3.566757 3.13073,-3.749474 1.24101,-2.364897 0.84601,-3.306042 0.272,-4.108933 -0.564,-4.779735 -0.82701,-2.771882 -1.03201,-2.169353 -1.40281,-2.281121 2.15812,-3.8496144 -2.44363,1.3344932 -3.00243,-0.051501 -2.47632,-0.9544095 -2.30132,-1.7347111 -0.79801,-1.7708285 -0.224,-2.90482869 0.325,-1.53667321 z"
       fill="#333333"
       stroke="#000000"
       stroke-width="0.110599px" />
    <path
       id="path41293"
       d="m 236.09039,-3.1228209 -3.00303,0.2851428 -1.44992,1.0511354 -0.709,2.07115548 0.204,3.22467982 2.18372,2.4869866 2.80233,1.4274311 c 0,0 -1.03901,1.9339791 -1.91042,2.9846877 -0.87101,1.050702 -3.73574,3.078867 -3.73574,3.078867 l 2.90693,0.249503 3.12663,-0.390344 3.48264,-3.149289 1.55071,-2.7263322 c 0,0 0.76401,-1.1484394 0.76401,-1.2282642 0,-0.079801 0.571,-1.6533833 0.571,-1.6533833 l -0.233,-1.4987148 -0.363,-1.5447273 -1.61102,-2.29062859 -1.20621,2.24850619 -0.97401,1.6717445 -0.475,0.3171032 -1.45992,-0.4478045 -0.86301,-0.4497544 -1.11241,-1.1658365 -0.06,-0.77658769 1.82832,-2.63430901 0.92101,-1.1319152 z m 6.38166,17.7007419 c 0,0 -0.218,4.734739 -1.18081,6.838186 -2.03212,4.441014 -5.11075,8.80716 -9.29519,11.325692 -4.81285,2.896803 -10.94511,4.071431 -16.51587,3.349104 -5.14355,-0.666927 -13.95633,-6.879229 -13.95633,-6.879229 l 2.36992,5.25004 4.14804,3.843564 5.56686,2.838443 6.33956,1.397188 3.41363,0.137812 4.74205,-0.573526 4.55994,-1.988856 5.41926,-3.913551 3.81363,-4.78604 1.29912,-2.830236 0.563,-4.187461 -0.251,-6.079322 z"
       fill="#1a1a1a" />
    <path
       id="path61750"
       d="m 234.47497,0.69532084 3.54784,-4.50959054 1.06431,-1.0934938 1.66531,-0.7995579 1.49372,-0.609576 1.08471,-0.2582826 1.83052,0.200582 1.34781,0.605096 0.96701,1.2532934 0.61201,0.9672395 0.463,1.2746366 0.67401,1.39436877 1.31221,2.14823123 1.90932,1.2022429 0.74901,0.4473544 0.256,0.712087 -0.58001,1.4730316 -0.86401,0.8496184 -0.887,0.4332143 -1.11722,-0.2640927 -1.39241,-1.1461473 -0.77501,-0.9417093 -0.75,-1.315957 -0.84301,-2.56201729 -0.99201,-1.55341931 -0.48901,-0.4769648 -0.91101,-0.313193 -1.52071,0.0334 -0.74501,0.2932329 -0.656,0.4924348 -0.82001,1.77074954 -1.58592,2.71366976 -0.303,0.2771828 L 237.0054,3.267864 236.09839,2.8254696 235.30738,2.359755 Z"
       fill="#e6e6e6"
       stroke="#000000"
       stroke-width="0.110599px" />
    <path
       id="path871"
       d="m 243.86386,-6.7512327 c -1.09921,0.00343 -1.71151,0.3514434 -2.94033,0.7495874 -1.40421,0.4550245 -2.05552,0.8993389 -3.20913,2.1722504 -0.12,0.1281913 -0.248,0.2873329 -0.383,0.4495345 -0.123,-0.00397 -0.189,-0.00911 -0.48801,-0.00734 -1.37761,0.00815 -4.26114,0.1687217 -5.28825,1.3230941 -0.17,0.1910419 -0.312,0.4009239 -0.43,0.6247161 l -2.32132,2.5997467 -0.01,-0.066701 c 0,0 -0.53001,-2.7831285 -5.56566,-2.8876946 -1.40981,-0.0293 -3.17263,0.1514415 -5.37615,0.6620966 -10.1873,2.02506799 -16.89937,8.6366713 -17.92318,18.0241165 -0.342,3.038423 0.148,10.509438 1.91452,14.30217 1.76582,3.792735 5.92426,7.95571 10.6704,9.645307 4.74605,1.689602 5.54686,1.758202 8.29809,2.032273 2.75132,0.274083 7.94967,-0.0891 10.5943,-1.66159 2.64463,-1.572615 7.24757,-4.828284 8.57109,-6.829329 1.32351,-2.001046 4.55334,-4.702988 4.12184,-12.633668 -0.39301,-7.205168 -3.36864,-10.998455 -3.91514,-11.638697 l 1.83942,-3.086863 c 1.24001,-1.8906646 1.13151,-2.9316789 0.727,-4.8705001 -0.242,-1.11154 -1.93132,-2.81360178 -1.93132,-2.81360178 l -0.136,0.34172338 c 0.206,-0.18671185 3.07483,4.3091896 1.56232,6.2132534 -1.88902,2.3780275 -6.81207,1.7403552 -9.16119,-0.1844818 -1.96152,-1.6072379 -2.56323,-5.46132899 -1.09431,-7.5285714 0.90201,-1.2689556 4.04984,-1.1193401 4.93915,-1.0526474 -1.15682,1.4738245 -2.57203,3.52537281 -2.57203,3.52537281 0,0 -0.172,1.19310079 1.62302,2.21696689 1.79631,1.0238621 2.39512,0.6979469 2.39512,0.6979469 0,0 1.75802,-2.81779083 2.41492,-4.33391781 0.65701,-1.51612799 2.85783,-1.47116949 3.85514,-0.89560889 0.99701,0.5755657 1.99072,3.5121917 2.56423,4.9811013 0.574,1.4689085 2.84073,2.9981786 3.45333,3.2348319 0.61401,0.2366523 2.44203,-1.0935168 2.77833,-2.3156869 0.336,-1.222165 -0.62201,-2.0391841 -0.62201,-2.0391841 0,0 -0.737,-0.00326 -2.00722,-0.9917198 -1.27091,-0.98847977 -1.96462,-3.4769894 -2.66832,-5.1228076 -0.70401,-1.6458173 -2.32963,-2.6994607 -3.77134,-2.8148978 -0.18,-0.0144 -0.348,-0.021 -0.50401,-0.0205 z m -0.14,0.2700226 c 0.46501,0.00234 0.81501,0.1081111 1.14231,0.2050021 0,0 -1.14961,0.9476793 -1.32281,1.6399892 -0.254,1.011909 0.317,2.3027257 0.317,2.3027257 l -1.11591,0.0251 c 0,0 -0.808,-0.9321492 -0.86801,-2.125591 -0.06,-1.1934368 0.69901,-1.8706955 0.69901,-1.8706955 0.45601,-0.1311213 0.82801,-0.1780818 1.14601,-0.1764818 z m 1.45982,0.3101931 c 0,0 1.21951,0.4130041 1.53221,0.8595285 0.31301,0.4465144 0.83801,1.3559284 0.83801,1.3559284 -1.13281,0.2116321 -2.05012,0.9280892 -2.80203,2.0307621 l -0.545,-0.2531725 c 0,0 -0.43901,-1.720092 -0.27801,-2.1713885 0.16001,-0.4512945 1.25642,-1.821659 1.25642,-1.821659 z m -3.07603,0.00799 c 0,0 -0.94401,0.916669 -0.64201,2.2366241 0.301,1.319955 0.82601,1.6721765 0.82601,1.6721765 l -1.11841,0.5789257 c 0,0 -1.10871,-0.5292152 -1.32112,-1.2652035 -0.212,-0.7359973 0.55801,-2.5686394 0.55801,-2.5686394 z m -2.05542,0.7886778 c 0,0 -1.13751,1.7819786 -0.60101,2.6548312 0.53601,0.8728486 1.52392,1.2777306 1.52392,1.2777306 l -0.93801,1.60434787 c 0,0 -1.20832,-0.24605243 -1.63212,-0.85823848 -0.423,-0.61216609 -0.379,-2.92636189 -0.379,-2.92636189 0,0 0.528,-0.6831868 0.90501,-1.0440083 0.377,-0.3608136 1.12201,-0.708307 1.12201,-0.708307 z m 7.85357,1.6548953 0.58301,1.4654485 c 0,0 -0.65801,-0.081701 -1.62292,0.6216961 -0.324,0.2361924 -0.99101,1.08310174 -0.99101,1.08310174 l -0.749,-1.21552004 c 0,0 0.451,-0.709477 0.98001,-1.2299921 0.53,-0.5205252 1.79961,-0.7247272 1.79961,-0.7247272 z m -10.214,0.3909939 c 0,0 0.08,1.9129639 0.32901,2.52457293 0.244,0.61160604 1.92122,1.16281248 1.92122,1.16281248 l -0.65801,1.19823689 c 0,0 -1.75772,-0.2640027 -2.24992,-0.4588246 -0.49201,-0.19481191 -1.40262,-1.87155947 -1.40262,-1.87155947 z m 10.64961,1.4730085 c 0.176,-0.00198 0.289,0.034 0.289,0.034 l 1.04641,2.01585489 c 0,0 -1.07161,0.16856166 -1.59701,0.46314457 C 247.5538,0.95212087 247.0394,2.183697 247.0394,2.183697 l -0.74401,-2.21372683 c 0,0 0.394,-0.67475667 1.02231,-1.34210327 0.372,-0.3962339 0.76501,-0.4803347 1.02361,-0.4832248 z m -25.94276,0.4357043 c 5.57506,-0.1159111 5.97556,3.0486282 5.97556,3.0486282 0,0 -3.24773,2.9903905 -3.51433,3.5195387 -0.26601,0.5291553 -0.43401,4.3748242 2.54512,7.1855393 2.97903,2.810717 8.44218,1.490327 9.28669,1.092606 0.70801,-0.333634 2.32753,-1.880766 2.91493,-2.448104 l 0.05,0.0203 0.08,-0.140622 c 0.06,-0.0575 0.31101,-0.292703 0.31101,-0.292703 0,0 2.45862,3.861339 2.90343,6.030504 0.445,2.169166 0.845,5.500937 0.164,10.528596 -0.68101,5.027659 -5.15315,9.858092 -11.98312,13.344142 -6.82987,3.486047 -16.32906,1.552655 -23.07273,-2.997433 -6.74367,-4.550084 -7.60057,-13.359164 -7.75768,-19.039389 -0.186,-6.726862 6.39117,-16.5351244 17.35498,-19.1679184 1.89631,-0.4553745 3.45853,-0.6569365 4.74494,-0.6836868 z m 13.14393,0.94441937 c 0,0 0.94801,1.46621649 1.34202,1.84563723 0.394,0.3794238 2.34432,0.4992149 2.34432,0.4992149 L 238.07951,3.35636 c 0,0 -1.96232,-0.611346 -2.37393,-0.8584485 -0.411,-0.2471024 -1.08951,-1.79379268 -1.08951,-1.79379268 z m -4.87105,0.59534588 c -0.128,1.12485915 0.06,2.35735425 0.34001,3.39965055 0.241,0.905079 0.93701,1.6573204 1.62791,2.2904127 2.28103,2.0920376 6.34367,2.8612582 8.86539,1.419222 -1.25801,2.3403211 -3.00073,4.3677297 -5.49595,5.9088877 -3.69494,0.417234 -6.50747,0.621236 -8.10818,-1.173398 -3.57114,-4.0036535 -2.83493,-6.6204413 -2.83493,-6.6204413 0,0 2.06202,-1.8574864 3.52283,-3.3661703 z m 19.03669,0.32056317 0.57501,0.66079648 c 0,0 -1.34812,0.6349163 -1.71952,1.2468414 -0.371,0.611916 -0.74601,1.3542013 -0.74601,1.3542013 l -0.529,-1.3043018 c 0,0 0.55,-1.008405 0.93301,-1.3917878 0.383,-0.38337378 1.48701,-0.56574558 1.48701,-0.56574558 z m 0.76701,0.88414878 1.48111,1.0744616 c 0,0 -1.84201,0.7814177 -2.20882,1.2902607 -0.368,0.508845 -0.325,1.7674385 -0.325,1.7674385 l -1.36561,-1.4259191 c 0,0 0.446,-1.1746206 0.938,-1.7825586 0.49301,-0.607936 1.48002,-0.9236791 1.48002,-0.9236791 z m 1.78542,1.3866027 c 0.276,-0.00233 0.531,0.068201 0.734,0.2343723 0.48501,0.3979139 0.009,1.324224 -0.329,1.8523333 -0.43,0.6722966 -1.21231,1.6290721 -1.96652,1.3671625 -0.68301,-0.2374324 -0.94601,-1.4265891 -0.631,-2.0776376 0.343,-0.7064569 1.36231,-1.3692525 2.19202,-1.3762305 z"
       fill="#0e0f0f"
       stroke="#494d50"
       stroke-width="0.110599px" />
    <path
       id="path40249"
       d="m 219.85133,0.68229171 c -0.99801,-0.004856 -2.04542,0.19589193 -2.98663,0.37975379 -2.88933,0.5644055 -5.89906,1.6692454 -8.00958,3.7217317 -1.27931,1.2440823 -2.78903,3.0506042 -2.39033,4.7899263 0.16501,0.7224975 1.02111,1.4188755 1.76052,1.3585235 1.47312,-0.120331 1.85402,-2.3394621 3.02423,-3.2421781 1.74012,-1.3423142 3.75884,-2.3237069 5.80486,-3.1259608 1.91582,-0.7512475 5.08505,0.307083 5.97646,-1.5477503 0.268,-0.5558255 -0.247,-1.3403423 -0.75701,-1.6881607 -0.69801,-0.47729473 -1.54171,-0.64160635 -2.42262,-0.64589639 z m 10.0576,1.29652479 c -0.05,0.00146 -0.1,0.0325 -0.16401,0.095201 l -3.79263,3.5670632 c -0.177,0.1673916 -0.33901,0.5007649 -0.33901,0.7450374 0.005,1.2418212 0.43801,2.1937576 1.06071,3.0162248 0.14701,0.1947219 0.43201,0.2203821 0.62301,0.067401 l 3.83764,-3.0818934 c 0.19,-0.1529815 0.228,-0.4369643 0.1,-0.6439464 -0.16,-0.2577825 -0.391,-0.6542565 -0.65701,-1.1984518 -0.108,-0.2196422 -0.274,-0.5796258 -0.353,-0.810488 -0.218,-0.6358163 -0.242,-1.1751736 -0.221,-1.5267981 0.009,-0.1522015 -0.02,-0.2318423 -0.1,-0.2294123 z"
       fill="#e6e6e6" />
  </g>
</svg>
