<?xml version="1.0" encoding="UTF-8" standalone="no"?>
<!-- Created with Inkscape (http://www.inkscape.org/) -->

<svg
   width="33.559357mm"
   height="17.194715mm"
   viewBox="0 0 33.559357 17.194715"
   version="1.1"
   id="svg1972"
   inkscape:version="1.4.2 (f4327f4, 2025-05-13)"
   sodipodi:docname="cat_00.svg"
   xmlns:inkscape="http://www.inkscape.org/namespaces/inkscape"
   xmlns:sodipodi="http://sodipodi.sourceforge.net/DTD/sodipodi-0.dtd"
   xmlns="http://www.w3.org/2000/svg"
   xmlns:svg="http://www.w3.org/2000/svg">
  <sodipodi:namedview
     id="namedview1974"
     pagecolor="#ffffff"
     bordercolor="#666666"
     borderopacity="1.0"
     inkscape:pageshadow="2"
     inkscape:pageopacity="0.0"
     inkscape:pagecheckerboard="0"
     inkscape:document-units="mm"
     showgrid="false"
     width="30mm"
     fit-margin-top="0"
     fit-margin-left="0"
     fit-margin-right="0"
     fit-margin-bottom="0"
     inkscape:zoom="2.5620932"
     inkscape:cx="56.204044"
     inkscape:cy="32.980846"
     inkscape:window-width="1920"
     inkscape:window-height="1009"
     inkscape:window-x="-8"
     inkscape:window-y="-8"
     inkscape:window-maximized="1"
     inkscape:current-layer="layer1"
     inkscape:showpageshadow="0"
     inkscape:deskcolor="#d1d1d1" />
  <defs
     id="defs1969" />
  <g
     inkscape:label="Layer 1"
     inkscape:groupmode="layer"
     id="layer1"
     transform="translate(1.7796747,-6.4026391)">
    <g
       id="g1009"
       transform="matrix(0.19223038,0,0,0.19223038,-59.214682,143.87679)"
       style="display:inline">
      <path
         style="color:#000000;font-style:normal;font-variant:normal;font-weight:normal;font-stretch:normal;font-size:medium;line-height:normal;font-family:sans-serif;font-variant-ligatures:normal;font-variant-position:normal;font-variant-caps:normal;font-variant-numeric:normal;font-variant-alternates:normal;font-feature-settings:normal;text-indent:0;text-align:start;text-decoration:none;text-decoration-line:none;text-decoration-style:solid;text-decoration-color:#000000;letter-spacing:normal;word-spacing:normal;text-transform:none;writing-mode:lr-tb;direction:ltr;text-orientation:mixed;dominant-baseline:auto;baseline-shift:baseline;text-anchor:start;white-space:normal;shape-padding:0;clip-rule:nonzero;display:inline;overflow:visible;visibility:visible;opacity:1;isolation:auto;mix-blend-mode:normal;color-interpolation:sRGB;color-interpolation-filters:linearRGB;solid-color:#000000;solid-opacity:1;vector-effect:none;fill:#f9f9f9;fill-opacity:1;fill-rule:nonzero;stroke:none;stroke-width:12;stroke-linecap:butt;stroke-linejoin:round;stroke-miterlimit:4;stroke-dasharray:none;stroke-dashoffset:0;stroke-opacity:1;color-rendering:auto;image-rendering:auto;shape-rendering:auto;text-rendering:auto;enable-background:accumulate"
         d="m 333.03499,-715.15244 c -0.33431,0.004 -0.67187,0.0254 -0.67187,0.0254 -3.13202,0.22206 -5.56328,2.82109 -5.57617,5.96094 0,0 0.0241,0.86098 0.0234,0.9668 -8.77445,-2.70742 -17.36718,-4.07032 -17.36718,-4.07032 -7.37681,-1.25362 -9.9346,9.41783 -2.79102,11.64453 0,0 5.37637,1.81133 8.80859,2.9043 -5.28178,0.76858 -8.86912,1.61958 -9.27343,1.72266 -2.7e-4,4e-5 -0.0488,0.006 -0.0488,0.006 v 0.004 c -0.0187,0.005 -0.42774,0.0859 -0.42774,0.0859 -5.05349,1.26128 -6.21064,7.92034 -1.8789,10.8125 -0.28657,0.14326 -1.71875,0.79883 -1.71875,0.79883 -6.76637,3.43163 -2.24632,13.65594 4.8457,10.96094 0,0 5.04146,-1.92443 10.97461,-3.95313 4.02096,-1.37487 8.09907,-2.56185 11.37891,-3.41406 0.13994,0.65663 0.20289,1.44992 0.33789,2.03711 -5.20906,5.02165 -10.61968,10.2489 -12.32617,12.08203 -0.50011,0.53722 -0.75111,0.75391 -1.16993,1.14062 -0.2094,0.19336 -0.48193,0.38085 -1.04882,1.125 -0.5669,0.74416 -1.62419,2.86236 -1.19922,5.03516 0.42496,2.1728 1.46388,3.00049 1.88672,3.41016 0.42283,0.40966 0.60105,0.53356 0.75976,0.66601 0.31742,0.26491 0.56481,0.47126 1.04688,0.99219 1.43352,1.5491 2.96928,2.69522 5.15625,4.35156 2.18696,1.65635 4.82805,3.54836 7.57422,5.43164 5.49232,3.76658 10.96274,7.34814 15.06445,9.1543 7.7817,3.42663 30.49432,10.51516 46.16601,9.46094 9.19366,-0.61848 16.95849,-2.7215 22.15821,-4.9082 5.67398,-2.3862 17.45636,-9.02654 25.95703,-16.30469 7.76421,-6.64761 9.56054,-8.6543 9.56054,-8.6543 1.67699,-1.94337 1.93214,-4.73821 0.63477,-6.95312 0,0 -3.74371,-6.2882 -9.19336,-12.58008 3.29993,1.11689 8.22428,3.04018 12.94531,5.14062 5.98923,2.66468 11.08008,5.12891 11.08008,5.12891 6.86227,3.29743 12.22267,-6.57231 5.72067,-10.5332 0,0 -1.7997,-1.00276 -2.3008,-1.30079 4.0789,-2.75576 3.2873,-8.97994 -1.35158,-10.62695 0,0 -0.3767,-0.1154 -0.3925,-0.12109 l -0.01,-0.002 c -0.3678,-0.13256 -4.57661,-1.55903 -10.43947,-2.96679 4.15773,-0.88973 8.48438,-1.79883 8.48438,-1.79883 3.08917,-0.63569 5.15907,-3.55447 4.73717,-6.68013 -0.4219,-3.12566 -3.19148,-5.39121 -6.33873,-5.1851 0,0 -4.86814,0.31962 -10.82032,1.16992 -3.14924,0.44988 -6.56386,1.00998 -9.9121,1.81836 0.0301,-0.41554 0.18554,-1.94141 0.18554,-1.94141 0.2223,-3.06547 -1.9076,-5.80332 -4.93359,-6.3418 0,0 -1.45709,-0.25529 -3.18945,-0.18945 -2.0458,0.0778 -6.12676,0.32472 -10.16016,1.56055 -2.32114,0.71115 -6.58657,1.74035 -10.68945,3.29492 -2.44696,0.92715 -5.34378,2.19302 -7.73633,3.22461 -8.44537,-4.00889 -15.12965,-5.11522 -19.01953,-5.57422 -0.68828,-0.0812 -1.37785,-0.14272 -2.06641,-0.1875 -4.82906,-0.31332 -9.69322,0.20526 -14.17773,1.26562 -1.62423,0.38405 -3.07943,0.92009 -4.375,1.49024 -1.83316,-1.18361 -3.61005,-2.12077 -5.29883,-2.64063 -2.64147,-0.81311 -5.31005,-1.38938 -11.63086,-3.83984 l 0.10547,0.041 c -1.97925,-0.81119 -4.61251,-1.59091 -7.25391,-2.35547 -1.3207,-0.38228 -2.58655,-0.73342 -3.62695,-1.00782 -1.03968,-0.2742 -1.39019,-0.42876 -2.66016,-0.61132 h -0.002 c -0.43429,-0.0624 -0.83031,-0.10139 -1.17969,-0.12696 l -0.006,-0.002 c -0.52594,-0.0381 -0.96724,-0.0465 -1.32422,-0.043 -5.2e-4,10e-6 -10e-4,0 -0.002,0 h -0.004 z"
         id="path1095"
         inkscape:connector-curvature="0"
         sodipodi:nodetypes="ccccccccccccccsccccccscccccccscccsccccccccscccccccccccsccccsccccccscc" />
      <path
         style="fill:#515151;fill-opacity:1;stroke:none;stroke-width:0.264583px;stroke-linecap:butt;stroke-linejoin:miter;stroke-opacity:1"
         d="m 370.67122,-645.96289 c 0,0 -2.02094,-0.91066 -2.67259,-0.20806 -0.65163,0.70259 -0.35412,3.64155 -0.35412,3.64155 l -1.48343,-5.67634 z"
         id="path1262"
         inkscape:connector-curvature="0" />
      <path
         style="display:inline;fill:#727a7a;fill-opacity:1;stroke:none;stroke-width:0.264583px;stroke-linecap:butt;stroke-linejoin:miter;stroke-opacity:1"
         d="m 445.04737,-659.29521 c 0,0 -7.55439,-10.34185 -9.41816,-12.14482 -1.86376,-1.80296 -3.74228,-5.2401 -13.1808,-11.7757 -9.4385,-6.53561 -9.72542,-6.83484 -9.72542,-6.83484 l 2.26781,-0.66124 9.55991,-3.61332 4.66562,-2.66491 7.61864,-6.13054 -2.91278,0.0589 -5.60519,0.91081 -5.59557,1.97657 -10.06076,3.23175 -6.29297,3.43104 -10.05904,-4.43795 -10.03849,-2.16433 -9.51452,0.77507 -11.2712,2.95467 -2.72519,-2.77174 -0.21458,-0.15339 -10.62262,-3.89961 -11.69025,-4.09811 -3.91895,-1.20151 -2.19981,-0.20609 3.34133,2.78796 5.41686,4.50467 4.90328,3.27231 9.27934,3.80506 2.47496,1.43652 -7.75433,3.70759 -4.13956,3.39663 -9.41169,9.34456 -16.48349,16.3021 12.24353,9.33496 12.2856,8.43331 16.13173,5.92506 14.40083,3.42314 11.31537,1.15086 10.54409,-0.79815 3.96075,-0.94549 7.71542,-2.45423 10.85736,-5.04996 6.18966,-4.49337 8.38785,-5.88359 z"
         id="path897"
         inkscape:connector-curvature="0" />
      <path
         style="display:inline;fill:#dd16cf;fill-opacity:1;stroke:none;stroke-width:0.264583px;stroke-linecap:butt;stroke-linejoin:miter;stroke-opacity:1"
         d="m 334.03876,-708.55765 5.72539,4.56391 3.57578,2.53248 5.57667,3.7751 3.78237,1.83322 6.55655,2.12198 -4.72919,3.47845 -3.27093,1.69103 -3.91405,3.32634 -6.04201,5.62788 -3.98115,3.67762 -1.29642,-7.8093 0.23126,0.0298 1.78236,0.68051 0.96073,0.17477 1.22511,-0.0773 0.9548,-0.482 0.75649,-0.81222 0.27375,-1.15746 -0.15888,-1.85488 -0.81107,-1.33878 -1.48331,-0.93067 -1.61633,0.0206 -1.67926,0.88788 -0.37106,0.22881 -0.37312,-0.002 -1.05954,-7.15786 z m 102.37754,6.0326 -0.55445,8.18089 -0.6379,15.58357 -0.0195,6.12511 -7.41072,-5.48874 -11.41423,-9.31597 -3.16608,-2.82895 5.86224,-1.84942 5.23238,-2.00823 3.27633,-1.60914 4.69179,-3.44274 z m -60.83809,42.57939 2.33773,0.14845 2.34477,0.92768 2.32949,1.98104 1.7026,2.14881 1.50602,2.64097 1.00686,2.99107 0.52958,3.01543 -1.88986,-0.62678 -3.66501,-2.45404 -1.7749,-1.80089 -2.35908,-2.50996 -1.81222,-3.1845 -2.01288,-3.14448 z m 32.49615,1.96152 -1.15015,2.42506 -2.3222,2.54023 -1.86621,1.81853 -2.07994,1.84286 -2.36796,1.3664 -3.25417,1.60307 -2.73087,0.495 1.32158,-3.12619 1.39422,-2.97977 2.81155,-3.40221 3.1809,-1.82027 3.33291,-0.78234 z"
         id="path926"
         inkscape:connector-curvature="0" />
      <path
         sodipodi:nodetypes="cssscc"
         inkscape:connector-curvature="0"
         id="path936"
         d="m 407.71421,-658.61907 c 0,0 -2.69415,-8.32534 -2.43494,-14.14963 0.182,-4.08923 4.02681,-13.41896 8.8699,-12.27442 7.37223,1.74224 10.23987,6.67007 13.28913,11.74449 3.47743,5.78696 4.53753,9.76379 4.53753,9.76379 -6.27336,6.53187 -10.21193,10.8854 -24.26162,4.91577 z"
         style="opacity:0;fill:#515151;fill-opacity:1;stroke:none;stroke-width:0.264583px;stroke-linecap:butt;stroke-linejoin:miter;stroke-opacity:1" />
      <path
         style="display:inline;fill:#79683b;fill-opacity:1;stroke:none;stroke-width:0.264583px;stroke-linecap:butt;stroke-linejoin:miter;stroke-opacity:1"
         d="m 392.38649,-645.73567 -2.70144,-0.14288 -2.20508,-0.25867 -0.74944,-4.30061 -1.20845,-2.45934 -1.63265,-2.74781 -1.80133,-1.95327 -1.87243,-1.47998 -1.79089,-0.79775 -1.71049,-0.24111 -2.78693,0.17899 1.43848,-2.0581 3.06856,-2.37362 7.65903,-3.13515 4.87353,-0.0185 3.61887,0.14119 4.88488,1.23758 4.24138,2.30831 1.97455,1.66113 2.13762,3.0256 0.6148,1.31303 -2.5904,-0.31277 -2.58769,-0.0113 -1.87779,0.70413 -2.64946,1.4919 -1.54402,1.50015 -1.61849,1.59663 -1.90332,3.43957 -1.34763,3.77026 z"
         id="path930"
         inkscape:connector-curvature="0" />
      <path
         style="display:inline;fill:#c9dd16;fill-opacity:1;stroke:none;stroke-width:0.264583px;stroke-linecap:butt;stroke-linejoin:miter;stroke-opacity:1"
         d="m 429.8991,-661.99387 -1.63393,3.23137 -0.86106,1.03745 -1.28968,0.78399 -1.5582,0.55673 -1.95466,-0.0678 -2.65292,-0.67294 -2.76566,-1.35355 -3.16196,-1.9604 -2.36365,-2.07798 -2.56958,-3.24288 -0.64981,-3.10581 0.28761,-3.55337 0.18041,-1.65934 1.4195,-2.14418 2.93188,-3.8396 1.502,-0.87928 1.26105,-0.0221 2.72674,0.97866 2.33912,1.331 1.77266,1.54959 1.59573,1.629 1.69036,2.27316 2.18581,4.02152 1.0171,2.46835 c 0.59279,1.59446 0.76259,3.16655 0.55114,4.71846 z"
         id="path951"
         inkscape:connector-curvature="0"
         sodipodi:nodetypes="cccccccccccccccccccccccccc" />
      <path
         style="display:inline;opacity:1;fill:#cfa24d;fill-opacity:1;stroke:#000000;stroke-width:0.264583px;stroke-linecap:butt;stroke-linejoin:miter;stroke-opacity:1"
         d="m 408.04377,-669.24171 0.36242,-3.14106 1.73998,-4.02692 2.14353,-2.62075 2.01001,-1.6691 2.23677,-0.16576 2.6752,1.17122 3.10977,2.08193 4.12814,4.69236 c -4.97076,-2.77988 -2.29999,4.13694 -4.80965,4.76062 -2.65038,0.65865 -10.42151,-4.79822 -13.59617,-1.08254 z"
         id="path968"
         inkscape:connector-curvature="0"
         sodipodi:nodetypes="cccccccccsc" />
      <path
         style="opacity:0;fill:#515151;fill-opacity:1;stroke:none;stroke-width:0.264583px;stroke-linecap:butt;stroke-linejoin:miter;stroke-opacity:1"
         d="m 374.06197,-660.78662 c 0,0 0.45224,-11.8143 0.0878,-17.63295 -0.2559,-4.08528 -1.46932,-9.79072 -6.27955,-11.06634 -5.72233,-1.5175 -12.78823,3.08817 -15.74524,8.21689 -3.37223,5.84889 -7.33333,18.19285 -7.33333,18.19285 3.33394,5.53868 10.83168,12.09583 29.27036,2.28955 z"
         id="path934"
         inkscape:connector-curvature="0"
         sodipodi:nodetypes="cssscc" />
      <path
         style="display:inline;fill:#c9dd16;fill-opacity:1;stroke:none;stroke-width:0.264583px;stroke-linecap:butt;stroke-linejoin:miter;stroke-opacity:1"
         d="m 369.90204,-667.20757 -1.62464,-7.41748 -1.89763,-4.26832 -1.88265,-2.61037 -1.05835,-0.35728 -1.95638,0.34847 -1.90292,0.70281 -2.04739,1.3982 -1.99572,1.55158 -1.74122,1.91654 -2.83034,3.71695 -2.67086,4.6795 -2.3213,4.44688 2.12944,2.12127 2.88437,2.26164 2.37308,1.28049 3.04038,0.87837 1.88436,0.15293 1.95178,-0.25185 1.69943,-0.65579 2.11873,-1.43255 3.93095,-5.33137 z"
         id="path972"
         inkscape:connector-curvature="0"
         sodipodi:nodetypes="ccccccccccccccccccccccc" />
      <path
         style="display:inline;opacity:1;fill:#cfa24d;fill-opacity:1;stroke:#000000;stroke-width:0.264583px;stroke-linecap:butt;stroke-linejoin:miter;stroke-opacity:1"
         d="m 369.60178,-667.07279 c 0,0 -0.62255,-5.69336 -4.14306,-6.9671 -2.15351,-0.77917 -7.11081,4.48821 -8.24383,4.00199 -1.93713,-0.83128 0.85849,-5.43734 -1.10968,-6.03441 -2.12194,-0.64371 -3.8155,2.12613 -5.43476,4.63994 -2.17768,3.38068 -3.95695,6.9152 -3.95695,6.9152 l 1.52696,-3.38415 1.69727,-2.60935 1.4625,-2.18237 2.25914,-2.98136 1.45447,-1.68064 2.23076,-1.95343 2.62422,-1.50578 1.9403,-0.73851 1.46885,-0.0855 1.4732,0.39177 1.36365,2.16865 1.63548,3.06182 0.83599,3.54678 z"
         id="path974"
         inkscape:connector-curvature="0"
         sodipodi:nodetypes="cssssccccccccccccccc" />
      <path
         style="display:inline;fill:#732e6e;fill-opacity:1;stroke:none;stroke-width:0.264583px;stroke-linecap:butt;stroke-linejoin:miter;stroke-opacity:1"
         d="m 387.24413,-646.06367 c 0,0 -2.05707,-4.90565 -4.05161,-7.17747 -1.99455,-2.27182 -7.14874,-2.96995 -7.14874,-2.96995 l -2.12157,-3.47775 1.31314,-0.31738 3.13667,0.1659 2.06151,1.11482 2.1815,1.54671 0.92193,1.36403 1.80354,2.55184 1.44179,3.20968 0.6148,3.78489 z"
         id="path985"
         inkscape:connector-curvature="0" />
      <path
         style="fill:#515151;fill-opacity:1;stroke:none;stroke-width:0.264583px;stroke-linecap:butt;stroke-linejoin:miter;stroke-opacity:1"
         d="m 410.04661,-675.63377 c -0.0695,0.17385 -1.03937,2.9277 -1.05789,4.80866 -0.0185,1.88095 1.65927,6.69228 1.80272,6.84191 0.14347,0.14962 -4.24409,-5.72826 -4.24409,-5.72826 z"
         id="path898"
         inkscape:connector-curvature="0" />
      <path
         style="fill:#515151;fill-opacity:1;stroke:none;stroke-width:0.264583px;stroke-linecap:butt;stroke-linejoin:miter;stroke-opacity:1"
         d="m 425.44502,-674.00265 c 0,0 3.93097,6.67828 4.13773,10.07615 0.21533,3.53889 -2.74238,6.72201 -2.74238,6.72201 0,0 1.61927,-1.45083 1.97827,-2.03444 0.359,-0.58361 2.33521,-4.29549 2.33521,-4.29549 l -1.67707,-3.49086 -2.26298,-4.38806 z"
         id="path900"
         inkscape:connector-curvature="0"
         sodipodi:nodetypes="cscccccc" />
      <path
         style="fill:#515151;fill-opacity:1;stroke:none;stroke-width:0.264583px;stroke-linecap:butt;stroke-linejoin:miter;stroke-opacity:1"
         d="m 370.00072,-667.09505 -1.50873,-5.76111 c 0,0 0.4093,2.04561 0.0741,4.2649 -0.3352,2.21928 -2.10497,6.88377 -2.10497,6.88377 z"
         id="path976"
         inkscape:connector-curvature="0"
         sodipodi:nodetypes="ccccc" />
      <path
         style="fill:#515151;fill-opacity:1;stroke:none;stroke-width:0.264583px;stroke-linecap:butt;stroke-linejoin:miter;stroke-opacity:1"
         d="m 350.46598,-671.82601 c 0,0 -2.00415,3.1821 -1.92245,6.87837 0.0885,4.00765 1.68298,5.53747 1.68298,5.53747 l -3.85171,-3.66864 0.97992,-2.76028 z"
         id="path979"
         inkscape:connector-curvature="0"
         sodipodi:nodetypes="cscccc" />
      <path
         style="fill:#732e6e;fill-opacity:1;stroke:none;stroke-width:0.264583px;stroke-linecap:butt;stroke-linejoin:miter;stroke-opacity:1"
         d="m 407.85478,-657.78669 -3.06728,-0.26267 -2.63454,0.36282 -1.65228,0.64074 -1.49942,0.87481 -1.49782,1.05063 -1.31871,1.41163 -1.41266,2.1348 -0.86425,1.66163 -0.71346,1.66961 -0.83661,1.9393 -0.0469,0.37414 0.35052,-0.13212 0.14923,-0.16786 c 0,0 2.04658,-5.1223 6.08824,-7.55375 1.34705,-0.81038 3.20635,-1.55149 6.90943,-1.11006 1.47217,-1.65224 2.04648,-2.89366 2.04648,-2.89366 z"
         id="path983"
         inkscape:connector-curvature="0"
         sodipodi:nodetypes="ccccccccccccccsccc" />
      <path
         style="display:inline;fill:#732e6e;fill-opacity:1;stroke:none;stroke-width:0.264583px;stroke-linecap:butt;stroke-linejoin:miter;stroke-opacity:1"
         d="m 333.64672,-708.73244 c 0,0 9.89382,13.82623 13.12411,15.43172 3.85316,1.91509 -1.43038,10.04285 -3.62858,11.64661 l 5.14182,-4.95042 2.80696,-2.05653 4.85303,-2.64464 3.57862,-2.3252 -5.59031,-1.84305 -6.68546,-3.10019 -3.50407,-2.27429 z"
         id="path987"
         inkscape:connector-curvature="0"
         sodipodi:nodetypes="csccccccccc" />
      <path
         sodipodi:nodetypes="csccccccccc"
         inkscape:connector-curvature="0"
         id="path1007"
         d="m 437.05375,-703.37253 c 0,0 -9.65317,12.79236 -12.85751,14.05752 -3.82221,1.50912 1.61343,10.20383 3.84275,12.04177 l -5.2363,-5.49933 -2.84685,-2.35558 -4.90552,-3.16077 -3.01479,-1.90802 5.39729,-1.34397 6.52351,-2.70243 3.46902,-1.60458 z"
         style="display:inline;fill:#732e6e;fill-opacity:1;stroke:none;stroke-width:0.264583px;stroke-linecap:butt;stroke-linejoin:miter;stroke-opacity:1" />
      <path
         style="opacity:1;fill:#806344;fill-opacity:1;stroke:#000000;stroke-width:0.264583px;stroke-linecap:butt;stroke-linejoin:miter;stroke-opacity:1"
         d="m 373.96963,-660.00133 c 0,0 7.05847,-3.83918 17.26753,-3.2992 10.89443,0.57622 17.2088,5.34153 17.2088,5.34153 l -2.92991,-0.15497 -2.78904,0.29014 -2.91902,1.04919 -2.20461,1.36051 -1.43419,1.81155 -1.40359,2.16879 -1.34414,2.69164 -1.04266,2.73496 -1.55733,0.30059 -2.21921,-0.25416 -1.17917,-0.25384 -0.2334,-1.59886 -1.35146,-4.17457 -1.75207,-3.07424 -2.04682,-2.37863 -2.01476,-1.85723 -2.3317,-0.58833 z"
         id="path1009"
         inkscape:connector-curvature="0"
         sodipodi:nodetypes="csccccccccccccccccccc" />
      <path
         style="fill:#dee3db;fill-opacity:1;stroke:none;stroke-width:0.264583px;stroke-linecap:butt;stroke-linejoin:miter;stroke-opacity:1"
         d="m 370.8617,-644.73418 0.32677,2.84344 -0.84679,3.20985 -0.95489,0.33707 -0.60874,-0.73347 -1.88012,-5.12841 -0.0999,-1.96969 0.6755,-0.96402 1.61492,0.0128 z"
         id="path1312"
         inkscape:connector-curvature="0" />
      <path
         style="fill:#515151;fill-opacity:1;stroke:none;stroke-width:0.264583px;stroke-linecap:butt;stroke-linejoin:miter;stroke-opacity:1"
         d="m 369.50903,-646.92433 c 0,0 0.90185,1.28558 1.11332,3.26968 0.21146,1.98407 -0.34874,4.23681 -0.61737,4.4934 -0.26862,0.25658 -1.3962,-0.30596 -1.3962,-0.30596 l 0.74661,1.2387 0.50342,0.0267 0.34853,0.0185 0.49853,-0.51522 0.45244,-1.33002 0.48138,-2.41165 -0.10439,-2.9842 z"
         id="path1015"
         inkscape:connector-curvature="0"
         sodipodi:nodetypes="cscccccccccc" />
      <path
         style="fill:#515151;fill-opacity:1;stroke:none;stroke-width:0.264583px;stroke-linecap:butt;stroke-linejoin:miter;stroke-opacity:1"
         d="m 388.26073,-632.27451 c 0,0 -18.54677,-2.07737 -27.0107,-5.74415 -8.34577,-3.61561 -15.71799,-5.60466 -21.78166,-11.0337 -3.2999,-2.95453 -6.8901,-6.70786 -7.27326,-11.12053 -0.32942,-3.79368 2.52839,-7.24449 4.51149,-10.49531 3.89278,-6.38131 14.26634,-17.30157 14.26634,-17.30157 0,0 -12.474,11.42371 -18.56422,17.29052 -3.64,3.50648 -10.74146,10.70169 -10.74146,10.70169 l 10.25648,8.31097 17.28814,11.09006 9.88239,3.25808 8.99921,2.44546 13.26789,2.34298 z"
         id="path1017"
         inkscape:connector-curvature="0"
         sodipodi:nodetypes="csaaacaccccccc" />
      <path
         style="fill:#515151;fill-opacity:1;stroke:none;stroke-width:0.264583px;stroke-linecap:butt;stroke-linejoin:miter;stroke-opacity:1"
         d="m 419.18263,-699.46144 c 0,0 -5.88489,2.97122 -6.19171,5.36212 -0.30679,2.39092 0.26162,4.71872 0.26162,4.71872 l -6.82446,-4.08108 2.72239,-1.60668 4.0318,-2.08447 z"
         id="path1019"
         inkscape:connector-curvature="0" />
      <path
         style="fill:#515151;fill-opacity:1;stroke:none;stroke-width:0.264583px;stroke-linecap:butt;stroke-linejoin:miter;stroke-opacity:1"
         d="m 364.30222,-696.25138 c 0,0 -4.27674,0.82499 -8.63381,-0.26323 -9.0389,-2.25755 -21.20139,-11.79822 -21.20139,-11.79822 l 8.65632,7.03416 6.14926,3.72945 6.44958,2.70088 3.26302,1.29444 5.09307,-1.78089 z"
         id="path1023"
         inkscape:connector-curvature="0"
         sodipodi:nodetypes="csccccccc" />
      <path
         inkscape:connector-curvature="0"
         id="path1264"
         d="m 370.39123,-646.10319 c 0,0 -2.02091,-0.91068 -2.67259,-0.20807 -0.65161,0.70259 -0.35409,3.64155 -0.35409,3.64155 l -1.48347,-5.67635 z"
         style="fill:#515151;fill-opacity:1;stroke:none;stroke-width:0.264583px;stroke-linecap:butt;stroke-linejoin:miter;stroke-opacity:1" />
      <path
         style="fill:#a5aca8;fill-opacity:1;stroke:none;stroke-width:0.264583px;stroke-linecap:butt;stroke-linejoin:miter;stroke-opacity:1"
         d="m 445.44365,-659.77733 -10.01569,-11.95192 -10.65176,-9.64715 c -11.70707,-9.74686 -21.35883,-14.12572 -30.23925,-16.48997 0,0 12.15409,5.26104 15.7506,7.955 0.98489,0.73772 11.59278,7.43665 12.49437,8.20327 6.74685,5.73686 12.2847,13.03886 14.16635,15.02155 7.59688,8.00481 -3.45898,16.65125 -3.45898,16.65125 z"
         id="path1314"
         inkscape:connector-curvature="0"
         sodipodi:nodetypes="ccccssscc" />
      <path
         inkscape:connector-curvature="0"
         style="display:inline;fill:#262d30;fill-opacity:1;stroke:#000000;stroke-width:0.264583px;stroke-linecap:butt;stroke-linejoin:miter;stroke-opacity:1"
         d="m 334.03213,-708.91953 c 0.19959,-0.002 0.48581,0.003 0.83227,0.0281 0.23096,0.0169 0.4889,0.0427 0.76561,0.0825 1.10681,0.15898 9.4477,2.49308 12.12056,3.58854 13.14016,5.0942 12.83917,2.95704 18.3524,7.69386 0.0799,0.0727 0.12526,0.12149 0.19238,0.18534 1.80276,-0.99782 3.92228,-2.07903 6.30981,-2.64356 3.94827,-0.93357 8.2856,-1.38482 12.40825,-1.11733 0.58894,0.0383 1.17388,0.0911 1.75229,0.15935 4.20947,0.49671 10.5851,1.35864 19.61138,6.16211 1.89343,-0.82405 7.04131,-3.04969 9.97407,-4.16091 3.60526,-1.36602 7.66593,-2.3561 10.32153,-3.16973 2.6556,-0.81367 7.52544,-1.25927 8.63044,-1.30128 1.10501,-0.042 1.90993,0.10109 1.90993,0.10109 0,0 -0.49139,6.75324 -0.91746,9.64323 -0.0464,0.31513 -0.0954,0.84495 -0.14467,1.49018 0.33004,-0.15952 0.61959,-0.29634 0.95347,-0.45822 8.4042,-4.07496 27.03373,-5.29909 27.0337,-5.29909 0,0 -20.01015,4.11365 -25.27104,5.7436 -0.8154,0.25262 -1.76772,0.62529 -2.78929,1.06758 -0.0834,1.29449 -0.16702,2.93676 -0.24848,4.69724 2.27413,-0.14129 4.67768,-0.18534 7.08365,-0.0521 10.22982,0.56617 22.80574,4.97253 22.80574,4.97253 0,0 -10.04895,-2.76544 -22.54652,-4.07927 -2.70794,-0.28467 -5.16872,-0.34665 -7.37027,-0.2729 -0.0283,0.62491 -0.0544,1.25695 -0.0815,1.89889 2.89232,0.49243 5.96517,1.21429 8.94027,2.27156 10.79972,3.83796 23.58898,11.5798 23.58898,11.5798 0,0 -20.66129,-10.00475 -28.06624,-11.6747 -1.46047,-0.32937 -2.99561,-0.59284 -4.52037,-0.80719 -0.18148,4.47532 -0.30572,8.22312 -0.34628,9.4841 5.94555,6.29666 10.30903,13.74216 10.30903,13.74216 0,0 -1.24296,1.44092 -8.92115,8.01488 -7.67817,6.57394 -19.92599,13.45828 -24.38079,15.33175 -4.45479,1.87343 -11.75066,3.88249 -20.23321,4.45313 -12.95514,0.87148 -37.38943,-6.34296 -43.34635,-8.96606 -5.9569,-2.62309 -23.01103,-14.49717 -25.80957,-17.52134 -2.79855,-3.02417 -2.99595,-1.29414 -0.28658,-4.20456 1.4505,-1.55814 8.13562,-8.08573 14.3619,-14.06859 -0.21242,-3.5103 -1.16616,-6.0018 -1.2575,-7.62 -0.0214,-0.42903 1.91235,0.89723 3.57528,0.93098 1.35071,0.0274 2.78512,-0.98288 2.60391,-3.04777 -0.0617,-0.70273 -0.22006,-1.27253 -0.44507,-1.72981 -2.54547,-0.0171 -5.31369,0.0673 -7.85383,0.37283 -7.38183,0.88785 -27.8819,8.71547 -27.8819,8.71547 0,0 12.66145,-6.39594 23.40207,-9.09461 2.06612,-0.51913 4.1824,-0.86676 6.25457,-1.09476 -0.0906,-0.63144 -0.23148,-1.52353 -0.38143,-2.46369 -1.40281,-0.11533 -2.88622,-0.1846 -4.45379,-0.18556 -12.48576,-0.008 -22.49428,1.69791 -22.49428,1.69791 0,0 12.50823,-3.07959 22.7376,-2.56366 1.37459,0.0693 2.74998,0.19601 4.1019,0.3629 -0.30166,-1.89897 -0.63389,-4.05128 -0.84061,-5.922 -6.10854,-2.38216 -24.71406,-8.15522 -24.71406,-8.15522 0,0 15.40631,2.63885 24.58957,6.8468 -0.25716,-3.28901 -0.23281,-9.63439 -0.23281,-9.63439 0,0 0.11296,-0.008 0.31255,-0.01 z m 0.54664,0.55732 c 0,0 9.85264,7.22369 11.67366,8.57541 1.82104,1.35174 10.4435,4.72046 10.4435,4.72046 l 3.28836,0.86071 c 1.01156,-0.54751 1.84027,-0.95423 2.31298,-1.10151 0.55478,-0.17285 1.19822,-0.48845 1.92121,-0.87937 -0.55915,-1.7568 -5.04515,-4.04808 -6.40644,-4.27015 -1.31061,-0.47106 -19.61005,-7.2619 -20.46553,-7.40761 -0.85546,-0.14564 -2.76774,-0.49794 -2.76774,-0.49794 z m -0.12081,0.47135 c 0,0 0.33992,6.03793 0.6312,9.05408 0.003,0.035 0.009,0.0804 0.0125,0.11615 0.49554,0.25003 0.97274,0.50402 1.41669,0.76393 7.88058,4.61385 14.23468,8.20468 15.18208,8.73956 1.87959,-1.2096 4.16446,-2.62689 6.19539,-3.81047 -1.26533,-0.572 -6.98253,-3.16059 -9.15883,-4.268 -2.42287,-1.2329 -6.97246,-4.33531 -8.29034,-5.61022 -1.31788,-1.27489 -5.98862,-4.98503 -5.98862,-4.98503 z m 101.90498,5.03669 c 0,0 -1.90775,0.14953 -2.76141,0.20482 -0.85366,0.0553 -16.13769,4.51988 -17.44103,4.85267 -1.28184,0.3273 -7.95941,3.78009 -8.18168,3.89508 0.38429,0.21709 0.77127,0.43921 1.1647,0.67061 1.24529,0.73246 2.45896,1.47035 3.64525,2.21298 l 3.07731,-0.41643 c 0,0 8.16299,-2.98294 9.96131,-4.14323 1.79831,-1.16028 10.53555,-7.2765 10.53555,-7.2765 z m -0.29326,0.88844 c 0,0 -3.19073,2.74311 -4.48681,3.87974 -1.29606,1.13665 -5.79439,3.76097 -8.19728,4.73863 -2.15389,0.87636 -7.80072,2.85252 -9.07492,3.2975 2.49674,1.6056 4.85857,3.23039 7.08519,4.8676 0.003,-3e-5 6.19138,-2.87155 13.66833,-6.47384 0.0736,-2.00911 0.15609,-4.22869 0.15609,-4.22869 z m -57.26347,2.91198 c -2.77583,0.0291 -5.28493,0.37329 -8.3902,1.46445 -5.11194,1.7963 -14.99396,7.29736 -19.08891,9.67162 l -0.14616,0.1269 c 0,0 -0.0215,-0.0146 -0.0338,-0.023 -0.14158,0.0823 -0.33167,0.19062 -0.45703,0.2641 l -0.18394,0.17529 c 0,0 -0.0475,-0.0242 -0.0613,-0.0315 -0.0155,0.009 -0.0182,0.0105 -0.0334,0.0193 l -0.0452,0.0355 -0.0114,10e-5 c -0.37369,0.22119 -0.70919,0.42121 -0.84395,0.50787 -1.29881,0.83521 -26.1963,25.73142 -26.1963,25.73142 0,0 15.11452,15.66292 31.24577,21.53774 16.13132,5.87483 31.12028,7.6726 37.44953,7.5052 6.32927,-0.16741 20.95895,-4.81785 28.15215,-9.45902 7.19324,-4.64113 24.25864,-17.69854 24.25864,-17.69854 0,0 -13.42063,-17.28068 -25.55497,-25.65576 -12.13409,-8.37493 -21.72589,-13.40181 -30.0694,-13.74286 -4.17181,-0.17043 -7.21438,-0.45694 -9.99021,-0.42801 z m -43.57622,1.5614 c 0.20488,1.8494 0.45151,3.79345 0.68508,5.58026 5.37598,0.74658 10.2684,2.07805 13.05046,2.92535 0.19073,0.0163 0.35652,0.0331 0.5317,0.0495 -3.13888,-2.11933 -10.1198,-6.71677 -14.26724,-8.55506 z m 0.77048,6.22547 c 0.13589,1.02616 0.28171,2.12802 0.3028,2.28248 0.18099,-0.0169 0.36168,-0.0336 0.54168,-0.0488 0.46649,-0.27955 1.22665,-0.6308 2.16814,-0.66195 0.72953,-0.0243 1.36419,0.12956 1.88411,0.4496 1.88909,-0.0412 3.65159,-0.006 5.18864,0.0678 -2.44797,-0.80451 -5.85669,-1.66262 -10.08537,-2.08912 z m 38.22544,0.212 c 0.6353,10e-4 1.36882,0.3951 1.90101,0.77298 0.75814,0.53836 1.75724,1.45385 1.54857,2.31929 -0.15174,0.62939 -1.07682,0.9093 -1.73301,0.83114 -1.11938,-0.13328 -2.36819,-1.02336 -2.75485,-2.09856 -0.20318,-0.56503 -0.0512,-1.39694 0.44681,-1.68049 0.17877,-0.10176 0.37968,-0.14487 0.59147,-0.14436 z m 26.96408,0.49005 c 0.45635,0.003 0.91963,0.14075 1.19385,0.46465 0.52076,0.61513 0.38614,1.69658 -0.0145,2.34272 -0.47521,0.76641 -1.53703,1.45164 -2.44037,1.18484 -0.65838,-0.19445 -1.17191,-1.05789 -1.16296,-1.7326 0.0122,-0.92427 0.80439,-1.80966 1.65258,-2.1286 0.22627,-0.0851 0.49758,-0.13251 0.77139,-0.13101 z m 33.83726,-0.091 c -3.85513,1.76606 -8.39727,4.31638 -10.75108,5.67334 0.17508,0.002 0.34072,0.003 0.53134,0.007 2.25349,-0.45055 5.89999,-1.07489 10.07197,-1.38821 0.0459,-1.4107 0.0937,-2.79131 0.14777,-4.2922 z m -96.0421,1.30038 c -0.22048,0.002 -0.43986,0.0268 -0.65309,0.0715 -0.20895,0.0439 -0.41142,0.10772 -0.6066,0.18273 0.73601,-0.0515 1.46053,-0.0894 2.17049,-0.11523 -0.22525,-0.0727 -0.45684,-0.11859 -0.69008,-0.1333 -0.0735,-0.004 -0.14725,-0.007 -0.22073,-0.006 z m 3.10815,1.56772 c 0.17549,0.42261 0.29318,0.91165 0.34555,1.46558 0.21209,2.24331 -1.09087,3.38543 -2.47372,3.61712 -1.60883,0.26959 -3.68059,-0.69229 -3.68059,-0.69229 0.59198,2.28388 1.47652,3.61603 1.42272,6.40354 5.13074,-4.92331 9.81038,-9.34255 10.69741,-10.00968 0.16204,-0.12188 0.39059,-0.28381 0.64593,-0.46113 -0.54999,-0.0438 -1.20251,-0.0924 -2.03222,-0.14183 -1.3747,-0.082 -3.07845,-0.15707 -4.92508,-0.18131 z m 92.76839,1.96896 c -2.90833,0.15335 -5.32084,0.54102 -7.17519,0.95684 2.05118,0.11913 4.50164,0.34548 7.12918,0.75569 0.0137,-0.53398 0.0224,-0.96859 0.046,-1.71253 z m -11.20864,2.33541 c 4.07901,3.1427 7.67357,6.31746 10.78669,9.46713 0.26292,0.26605 0.52201,0.53519 0.77935,0.80638 -0.12924,-2.16377 -0.43153,-7.45594 -0.4316,-9.49771 -2.99967,-0.38562 -5.89211,-0.58246 -8.00599,-0.68007 -1.6769,-0.0774 -2.76383,-0.0923 -3.12845,-0.0957 z m -60.23229,1.43861 c 0.11642,0.003 0.22951,0.0111 0.33872,0.0248 1.36234,0.22771 2.16762,1.93801 2.82967,3.05653 2.06325,3.48595 3.90809,11.73703 3.90809,11.73703 -1.86744,2.78862 -5.04511,8.74015 -9.46263,10.48585 -2.30846,0.91227 -5.21769,0.40716 -7.61588,-0.51613 -3.10855,-1.19678 -7.79222,-6.13151 -7.79222,-6.13151 0,0 1.04224,-2.58691 2.30316,-4.5892 1.26092,-2.00228 5.18902,-8.30105 9.10714,-11.16428 2.12199,-1.75654 4.63767,-2.94225 6.38395,-2.90313 z m -0.22797,0.56173 c -3.65559,-10e-4 -7.20769,3.63414 -8.13058,4.46051 -2.20857,2.00138 -5.64307,7.66638 -6.95025,10.51636 -1.30717,2.85002 -0.68982,2.01353 -1.34128,2.83276 0.40948,0.60166 0.54801,1.14513 1.05536,1.72632 1.18472,1.35712 4.29631,3.8998 6.91714,4.85366 1.61391,0.58738 3.4707,0.83873 5.05728,0.40233 2.26021,-0.6217 3.74069,-1.82784 5.4614,-4.05705 1.72075,-2.22923 3.99084,-6.55068 3.99084,-6.55068 0,0 -0.35807,-4.23011 -1.48943,-7.55022 -1.13138,-3.32009 -2.86495,-6.47089 -4.21638,-6.62219 -0.11805,-0.008 -0.23618,-0.0119 -0.3541,-0.0119 z m 52.02776,0.27378 c 0.12213,-10e-4 0.24541,0.004 0.36962,0.0128 3.8499,0.25617 8.64671,4.52306 11.58215,9.42532 3.03011,5.06039 4.2661,8.17987 4.2661,8.17987 0,0 -2.26714,4.90186 -4.41942,6.29977 -2.09424,1.36019 -3.69837,1.35082 -6.24774,0.5924 -3.23214,-0.96158 -6.57997,-3.03008 -9.03739,-5.41328 -2.13257,-2.06813 -5.54052,-7.60764 -5.54052,-7.60764 0,0 5.11917,-11.48278 9.0272,-11.48914 z m 0.25601,0.53772 c -1.39099,0.0156 -2.04863,0.87444 -3.29196,2.39458 -1.5157,1.85316 -4.95967,8.56509 -4.95967,8.56509 0,0 3.82177,6.00536 6.39355,8.33377 2.84722,2.57773 6.64537,4.73307 10.36892,4.81675 1.41534,0.0318 2.75839,-0.76694 3.80356,-1.65712 1.60555,-1.36747 2.99077,-5.47189 2.99077,-5.47189 0,0 -3.90027,-8.96326 -6.41241,-11.73246 -2.51212,-2.76923 -5.69468,-4.69521 -7.85919,-5.13608 -0.27057,-0.0552 -0.51735,-0.0896 -0.74511,-0.10437 -0.0997,-0.006 -0.1957,-0.009 -0.28846,-0.008 z m -55.4775,2.67779 v 0 c 0.91703,0.0234 1.34915,1.09348 1.18216,1.80064 -0.25445,1.07759 -1.636,3.27261 -1.636,3.27261 0,0 -3.0963,6.76986 -3.62813,10.42897 -0.5318,3.65914 -2.98087,1.66143 -3.83429,0.0287 -0.85339,-1.63197 -0.3385,-4.35589 0.57197,-6.93007 0.91043,-2.57421 3.39599,-5.34903 5.52055,-7.57431 0.73031,-0.76496 1.34342,-1.03962 1.82374,-1.02731 z m 56.92985,0.37001 c 0.34605,0.0205 0.76552,0.14036 1.20027,0.3194 2.05288,0.8453 3.92647,2.41122 5.21398,4.24216 1.48992,2.11882 2.25322,4.74851 2.52762,7.26487 0.18061,1.65599 0.11425,3.3233 -0.609,4.88858 -0.30091,0.65122 -1.29977,1.05643 -2.00257,0.79795 -1.69543,-0.62359 -2.30499,-2.97426 -2.75628,-4.71505 -0.52871,-2.03955 -1.28435,-4.6455 -2.17237,-6.89442 -0.56463,-1.42999 -1.39377,-2.75703 -1.99735,-4.17308 -0.57126,-1.34011 -0.16563,-1.77534 0.5957,-1.73041 z m -26.94754,9.74371 c 0.41382,-7.4e-4 0.83732,0.006 1.27047,0.0226 0.21656,0.008 0.43059,0.0186 0.64211,0.0309 13.32689,0.77911 16.71548,9.83767 16.82171,9.98312 0,0 -7.95314,12.39751 -18.18529,12.38895 -10.23216,-0.009 -17.00607,-14.42785 -17.00607,-14.42785 0,0 3.62885,-7.97228 16.45707,-7.99773 z m 1.13241,0.58715 c -11.2484,0.0648 -17.21815,7.38344 -17.21815,7.38344 0,0 4.65404,-2.06379 8.97139,3.08576 4.31731,5.14953 4.81787,10.44874 4.81787,10.44874 0,0 0.755,0.19069 2.41384,0.27841 1.65887,0.0877 2.11112,0.0615 2.11112,0.0615 0,0 2.05678,-6.96491 5.73978,-9.7902 4.04174,-3.10049 9.77467,-2.54568 10.02781,-2.33143 0,0 -3.79657,-8.68754 -15.75862,-9.11935 -0.37381,-0.0135 -0.74218,-0.019 -1.10504,-0.0169 z m -15.49165,7.48878 c -0.79465,-0.005 -1.27911,0.10716 -1.27911,0.10716 0,0 2.5316,4.92725 3.8958,6.49074 2.75525,3.36089 4.839,4.72571 8.90614,6.61445 0,0 -0.19005,-5.33687 -4.24458,-9.74129 -2.53406,-2.75274 -5.24351,-3.37901 -6.91901,-3.46139 -0.12565,-0.006 -0.24573,-0.009 -0.35924,-0.01 z m 29.90125,1.89393 c -2.06358,0.0187 -5.10469,0.46016 -7.37256,2.5617 -3.76992,3.49347 -5.32107,8.77265 -5.45908,9.22696 1.77532,-0.11916 3.54891,-0.45144 7.36177,-3.12593 3.9128,-2.74461 7.77466,-8.50063 7.77466,-8.50063 0,0 -0.57673,-0.10705 -1.48502,-0.14729 -0.24979,-0.0109 -0.52495,-0.0174 -0.81977,-0.0148 z m -41.35235,8.54737 c 0,0 6.04747,1.82167 8.84111,3.30811 2.79197,1.48554 7.75933,5.52403 7.75933,5.52403 l -0.15474,2.54812 c 0,0 -4.75938,-4.49304 -7.48172,-6.2547 -0.32753,-0.21194 -0.70438,-0.43421 -1.10878,-0.66078 0.0182,0.84058 0.0186,2.38843 -0.2077,3.26333 -0.34576,1.33514 -0.90192,3.71913 -1.8257,3.66967 -1.7882,-0.0959 -2.28497,-4.02621 -3.02021,-6.18603 -0.34593,-1.01606 -0.63712,-2.85386 -0.74064,-3.55135 -1.20479,-0.52907 -2.05388,-0.87859 -2.05388,-0.87859 z m 2.20261,1.72321 c 0.0501,0.20074 0.75499,3.02322 1.04459,4.19045 0.2998,1.2085 1.44637,4.36985 1.92824,4.8724 0.48188,0.50252 0.60583,0.30822 1.01952,0.21712 0.41369,-0.0911 0.95879,-2.29714 1.17579,-3.30255 0.18462,-0.85526 -0.33101,-3.08504 -0.49654,-3.76392 -1.5451,-0.805 -3.31194,-1.61437 -4.6716,-2.2135 z"
         id="path1111"
         sodipodi:nodetypes="ccccccccccccccccccccccccccscccccsccssccccccccscccccccccccccccccccccccccccccccccccccccccccccccccccccccccccccsccccccccccccccccccccccccccccccccccccccccccccccccccsccccccccccccccccccccccccccccccccccscccccccccccccccccccccscccccccccccccccccccccccccccccccscccccccccccccccccccccccccccccccccccccccccccccccc" />
      <path
         style="fill:#dee3db;stroke:none;stroke-width:0.264583px;stroke-linecap:butt;stroke-linejoin:miter;stroke-opacity:1"
         d="m 425.51339,-664.81033 c 0.005,0.57776 0.0732,2.53979 -1.17221,0.94231 -1.8532,-3.05919 -2.80983,-6.04213 -4.25564,-9.43974 -0.38494,-0.89913 -0.14566,-2.2172 1.44598,-1.22913 2.92373,3.27233 4.07129,5.37264 3.98187,9.72656 z"
         id="path903"
         inkscape:connector-curvature="0"
         sodipodi:nodetypes="ccccc" />
      <path
         style="fill:#dee3db;stroke:none;stroke-width:0.264583px;stroke-linecap:butt;stroke-linejoin:miter;stroke-opacity:1"
         d="m 353.1774,-666.05594 c 0.005,0.57776 -0.0273,2.53447 1.19038,1.06728 1.79963,-2.866 2.70323,-5.75055 4.08893,-8.9984 0.36907,-0.85926 0.10568,-2.20391 -1.46962,-1.38336 -2.86731,2.96605 -3.97798,4.94693 -3.80969,9.31448 z"
         id="path903-3"
         inkscape:connector-curvature="0"
         sodipodi:nodetypes="ccccc" />
      <path
         style="opacity:0.798;fill:#dee3db;fill-opacity:1;stroke:none;stroke-width:0.264583px;stroke-linecap:butt;stroke-linejoin:miter;stroke-opacity:1"
         d="m 364.60614,-679.22685 c 0.86382,1.36096 3.05828,4.33966 2.84763,6.72694 -0.21065,2.38728 -2.65752,5.73945 -2.65752,5.73945 l -2.466,-7.32571 z"
         id="path1025"
         inkscape:connector-curvature="0"
         sodipodi:nodetypes="csccc" />
      <path
         sodipodi:nodetypes="csccc"
         inkscape:connector-curvature="0"
         id="path1096"
         d="m 414.27248,-679.42589 c -0.98307,1.15968 -3.43544,3.63193 -3.45169,6.04041 -0.0162,2.40848 2.08996,6.25685 2.08996,6.25685 l 3.13034,-6.71578 z"
         style="opacity:0.798;fill:#dee3db;fill-opacity:1;stroke:none;stroke-width:0.264583px;stroke-linecap:butt;stroke-linejoin:miter;stroke-opacity:1"
         inkscape:transform-center-x="-2.6629424"
         inkscape:transform-center-y="2.19077" />
      <path
         style="fill:#dee3db;fill-opacity:1;stroke:none;stroke-width:0.129846px;stroke-linecap:butt;stroke-linejoin:miter;stroke-opacity:1"
         d="m 402.2682,-662.90656 c 0.45343,0.19639 1.25767,0.69973 1.01255,1.10112 -0.25123,0.41137 -0.96457,-0.2935 -1.43568,-0.47687 -0.44013,-0.17131 -1.36104,-0.12691 -1.29593,-0.58092 0.0808,-0.56384 1.1799,-0.27684 1.71906,-0.0433 z"
         id="path1098"
         inkscape:connector-curvature="0"
         sodipodi:nodetypes="aaaaa" />
    </g>
  </g>
</svg>
