<?xml version="1.0" encoding="UTF-8" standalone="no"?>
<!-- Created with Inkscape (http://www.inkscape.org/) -->

<svg
   width="30.000048mm"
   height="38.010464mm"
   viewBox="0 0 30.000048 38.010464"
   version="1.1"
   id="svg1140"
   inkscape:version="1.4.2 (f4327f4, 2025-05-13)"
   sodipodi:docname="creamy_00.svg"
   xmlns:inkscape="http://www.inkscape.org/namespaces/inkscape"
   xmlns:sodipodi="http://sodipodi.sourceforge.net/DTD/sodipodi-0.dtd"
   xmlns:xlink="http://www.w3.org/1999/xlink"
   xmlns="http://www.w3.org/2000/svg"
   xmlns:svg="http://www.w3.org/2000/svg">
  <sodipodi:namedview
     id="namedview1142"
     pagecolor="#ffffff"
     bordercolor="#666666"
     borderopacity="1.0"
     inkscape:pageshadow="2"
     inkscape:pageopacity="0.0"
     inkscape:pagecheckerboard="0"
     inkscape:document-units="mm"
     showgrid="false"
     width="300mm"
     inkscape:zoom="1.8116735"
     inkscape:cx="29.25472"
     inkscape:cy="84.728294"
     inkscape:window-width="1920"
     inkscape:window-height="1009"
     inkscape:window-x="-8"
     inkscape:window-y="-8"
     inkscape:window-maximized="1"
     inkscape:current-layer="layer1"
     inkscape:showpageshadow="0"
     inkscape:deskcolor="#d1d1d1" />
  <defs
     id="defs1137">
    <linearGradient
       inkscape:collect="always"
       xlink:href="#linearGradient317757"
       id="linearGradient317759"
       x1="-609.04645"
       y1="-2283.2915"
       x2="-608.95874"
       y2="-2287.7573"
       gradientUnits="userSpaceOnUse"
       gradientTransform="matrix(0.11150291,0,0,0.11150291,85.011225,271.27053)" />
    <linearGradient
       inkscape:collect="always"
       id="linearGradient317757">
      <stop
         style="stop-color:#832925;stop-opacity:1"
         offset="0"
         id="stop317753" />
      <stop
         style="stop-color:#742a23;stop-opacity:1"
         offset="1"
         id="stop317755" />
    </linearGradient>
  </defs>
  <g
     inkscape:label="Layer 1"
     inkscape:groupmode="layer"
     id="layer1"
     transform="translate(4.7426137e-5,4.0052338)">
    <g
       id="g1"
       transform="matrix(1.2670156,0,0,1.2670156,-4.0052276,-4.0052333)">
      <path
         id="path56650"
         style="color:#000000;fill:#b3b3b3;stroke-width:0.42404;-inkscape-stroke:none"
         d="m 3.1705288,12.990726 c -0.080244,1.075481 0.3680084,2.203787 1.2112109,2.915292 -0.050833,0.267421 -0.08051,0.659028 0.1061925,1.421688 0.0659,0.269176 0.2146632,0.524748 0.3546318,0.771705 -0.00681,0.222597 -0.057911,0.295851 0.063233,0.927516 l -6.49e-4,-6.5e-4 c 0.043048,0.224857 0.05043,0.148312 0.09267,0.292526 -0.078154,0.247319 -0.182883,0.46563 -0.1288862,1.221676 1.62e-5,-0.0016 -0.015317,0.420824 0.1267509,0.99096 0.1421038,0.570129 0.656555,1.620875 1.7491994,1.996646 0.3986561,0.137103 0.8040817,0.251015 1.2370524,0.265781 l 1.11355,3.675944 0.00162,0.0034 -6.4e-6,6.49e-4 c 0.0013,0.0038 0.066257,0.226726 0.1895194,0.473305 0.1243462,0.248738 0.2497957,0.664383 1.0157335,1.090837 l 0.104794,0.05921 0.111401,0.04585 c 2.377644,0.982678 4.765167,1.136617 7.343359,0.376702 0.403614,-0.02729 0.701731,-0.129457 0.851455,-0.208344 0.222558,-0.117253 0.31898,-0.201203 0.400197,-0.268372 0.324831,-0.268663 0.379091,-0.371539 0.489009,-0.502502 0.107241,-0.12775 0.199164,-0.24373 0.267394,-0.330046 l 0.255667,-0.221576 1.101338,-2.755116 0.914512,-2.76344 0.516042,-0.236581 0.07114,-0.03998 c 0,0 0.251042,-0.135253 0.522901,-0.357461 0.22155,-0.181098 0.614017,-0.391676 0.860467,-1.081692 L 3.1917004,13.015432 Z"
         sodipodi:nodetypes="ccscccccssccccsccccsssccccccsccc"
         inkscape:transform-center-x="-40.13689"
         inkscape:transform-center-y="31.800883" />
      <path
         style="color:#000000;fill:#f9f9f9;stroke-width:0.421428;-inkscape-stroke:none"
         d="M 23.465058,-4.3329379e-7 23.209074,0.28314939 C 22.95738,0.36558061 22.7113,0.42917022 22.367043,0.55312372 21.749265,0.77556891 21.212003,0.93393771 20.52494,1.3556509 20.158285,1.5806923 20.023045,1.7050579 19.668092,1.9630996 19.398358,1.8327304 19.385318,1.7848767 19.063934,1.6700747 18.199725,1.3613592 16.672159,0.85457645 14.931962,1.9178259 14.596578,2.1227438 14.376177,2.3200679 14.12532,2.5219873 13.738898,2.5206892 13.330276,2.5862194 12.920301,2.7903195 12.659598,2.9200884 12.527334,3.0891501 12.329312,3.2487878 11.688726,3.2938473 10.802285,3.4001372 9.7233677,3.7665134 8.4788351,4.1891384 7.6529814,4.925548 6.8787296,5.6637652 6.1044778,6.4019855 5.5412709,6.9361578 5.0687282,7.9305896 4.6690693,8.7716437 4.3767551,9.6027287 4.2028223,10.578507 l -0.00338,0.01892 -0.00338,0.01892 c -0.017362,0.108656 -0.035483,0.203282 -0.053503,0.29467 -0.082623,0.09174 -0.073257,0.06458 -0.2189437,0.251045 -0.2668816,0.3416 -0.6866347,0.834577 -0.7547838,1.81659 -0.073903,1.065852 0.3861848,2.186155 1.2395901,2.891554 -0.048194,0.264129 -0.074052,0.650931 0.1201729,1.404218 0.068545,0.265863 0.2197581,0.518271 0.3621671,0.76219 -0.00464,0.219859 -0.054932,0.292214 0.072433,0.916115 l -6.49e-4,-6.49e-4 c 0.045264,0.222089 0.051826,0.146469 0.09548,0.28891 -0.075714,0.244276 -0.1783364,0.459913 -0.1168789,1.206668 -1.461e-4,-0.0016 -0.011099,0.415544 0.1366325,0.97867 0.1477245,0.563123 0.6724986,1.601001 1.7688458,1.972154 0.4000126,0.135412 0.8064799,0.247982 1.2395934,0.262566 l 1.1498735,3.630708 0.00162,0.0034 v 6.49e-4 c 0.0013,0.0038 0.068551,0.223976 0.194251,0.467525 0.1267962,0.245681 0.2562666,0.656231 1.0264068,1.077441 l 0.105355,0.05844 0.111946,0.04527 c 2.387325,0.970595 4.776309,1.12261 7.34701,0.372042 0.403342,-0.02697 0.700498,-0.127864 0.84944,-0.205775 0.221407,-0.115814 0.317013,-0.198693 0.397559,-0.265035 0.322183,-0.265366 0.375349,-0.36698 0.483982,-0.496333 0.105975,-0.126183 0.196844,-0.240687 0.264221,-0.325944 l 0.253514,-0.218951 1.074147,-2.721174 0.887305,-2.729408 0.513614,-0.233761 0.07078,-0.03949 c 0,0 0.249708,-0.133631 0.519381,-0.353113 0.269669,-0.21948 0.796426,-0.482272 0.986075,-1.610809 0.07652,-0.455187 0.04851,-0.459422 0.0642,-0.721861 0.01136,-0.189344 0.02259,-0.415476 0.03376,-0.635435 0.262861,-0.18914 0.465728,-0.382164 0.628027,-0.569587 0.133728,-0.154433 0.248738,-0.307041 0.362985,-0.493861 0.114253,-0.186816 0.25858,-0.311425 0.356407,-0.935041 0.08224,-0.524232 0.01425,-0.593829 -0.0034,-0.704578 -0.01752,-0.110752 -0.03417,-0.180494 -0.05021,-0.246933 -0.03203,-0.132875 -0.06377,-0.243117 -0.09959,-0.362164 -0.07166,-0.238093 -0.157197,-0.49754 -0.242819,-0.750666 -0.10763,-0.318201 -0.149775,-0.433788 -0.214828,-0.61733 0.140653,-0.403089 0.205002,-0.690279 0.266687,-1.046163 0.03624,-0.209036 0.06667,-0.41804 0.0856,-0.648605 0.01149,-0.140254 0.03177,-0.286534 0.0173,-0.504563 -0.03625,0.115322 0.12924,-0.207546 0.228818,-0.702101 0.109026,-0.541448 0.08099,-1.3195227 -0.227997,-2.0215429 C 25.468569,9.022094 25.358522,8.9556876 25.28812,8.8328245 25.35907,8.1642654 25.32794,7.2866542 24.908669,6.3355262 24.845259,6.1916797 24.75892,6.1175107 24.688898,5.9906528 c 0.08128,-0.034178 0.0536,0.00292 0.186846,-0.065027 0.584044,-0.2977532 1.39939,-0.8920913 1.687359,-2.0939723 0.0868,-0.3622287 0.181906,-0.7498479 0.181906,-0.7498479 l 0.09383,-0.3843902 -0.05185,-0.3926168 c 0,0 -0.02755,-0.322355 -0.195072,-0.739142 C 26.508182,1.3572346 26.392845,1.0864684 26.080803,0.75322574 25.768758,0.41998307 25.124726,0.02186245 24.417312,0.01243516 h -0.02797 z M 25.121965,14.215797 l 0.0042,0.02223 c -0.0081,0.02356 0.03115,-0.09419 -0.01564,0.02385 0.0081,-0.02058 0.0038,-0.02629 0.01149,-0.0461 z"
         id="path56387"
         sodipodi:nodetypes="ccsscsscscsssscccsscscccccssccccsccccsssccccccssscssscssscsscsscsccscccsscccccccc" />
      <path
         id="path30503"
         style="display:inline;fill:#ce8e42;fill-opacity:1;stroke:none;stroke-width:0.111503px;stroke-linecap:butt;stroke-linejoin:miter;stroke-opacity:1"
         d="m 7.3864697,17.532157 -0.058365,1.045777 0.074701,0.902479 0.031349,0.107147 0.1933877,-0.329504 0.1914309,-0.421181 0.092118,-0.486088 0.00195,-0.515039 -0.095386,-0.08319 z m 14.6539223,0.0076 -0.168345,0.04312 -0.412039,0.209066 -0.709085,0.343877 -1.495708,0.178797 -1.823466,0.05509 -1.350231,0.102795 -1.292302,0.323838 -1.30907,0.540743 -0.909882,0.146573 -0.626332,-0.09713 -0.08341,-0.03025 -0.09539,0.246956 0.02223,0.387866 0.145479,0.560776 -0.163986,0.323196 -0.283773,0.09473 -0.310114,-0.08123 -0.202536,-0.396148 0.01872,-0.465169 0.172047,-0.447763 -0.291828,-0.911614 -0.242387,-0.419017 -0.122606,-0.03637 -0.197094,0.06402 -0.5468414,-0.152226 -0.2683031,-0.291386 -0.019828,-0.03528 -0.074042,0.362592 -0.2027534,0.160946 -0.2687411,0.05183 -0.1966524,-0.04529 -0.039867,0.164853 -0.082542,1.125703 0.073179,0.772458 0.087328,0.459078 -0.099913,0.133773 1.183802,0.528279 0.9218564,3.347485 0.713226,2.161894 1.75247,0.750461 1.876386,0.08602 1.1355,-0.169429 1.381155,-0.388956 0.584519,-0.503291 0.293346,-0.503936 0.544667,-1.17688 0.992423,-3.178478 0.309027,-0.958449 1.510298,-0.714979 0.19099,-2.388814 z"
         sodipodi:nodetypes="cccccccccccccccccccccccccccccccccccccccccccccccccccccccccccccc" />
      <path
         id="path41225"
         style="display:inline;fill:#b1611f;fill-opacity:1;stroke:none;stroke-width:0.111503px;stroke-linecap:butt;stroke-linejoin:miter;stroke-opacity:1"
         d="m 7.3209135,17.424575 -0.029401,1.122001 c 0,0 0.1401471,-0.36721 0.2950889,-0.486082 0.1550847,-0.118875 0.1242391,0.208754 0.1572363,0.330368 0.032997,0.121617 0.08602,0.401145 0.08602,0.401145 l 0.084284,-0.314684 0.053789,-0.629168 z m 14.6844165,0.11194 -0.433162,0.21712 -0.640926,0.308599 -1.558648,0.232148 -1.24047,0.06512 -1.610474,0.06315 -0.684914,0.07862 -0.958229,0.282462 -0.88745,0.328407 -0.291825,0.119342 -0.933182,0.22693 -0.459734,-0.01308 -0.459734,-0.07775 -0.08101,0.221703 -0.0161,0.253501 0.104531,0.306408 c -0.01821,-0.135542 -0.01752,-0.280939 0.05335,-0.338207 0.147452,-0.119154 0.841281,-0.334723 0.841281,-0.334723 0,0 3.769762,-0.767106 4.992588,-0.772681 1.222825,-0.0055 1.57748,0.112595 2.725727,-0.09539 0.753444,-0.136467 1.499187,-0.37479 1.499187,-0.37479 z m -10.151342,2.612694 c 0.0034,0.02502 0.0079,0.04834 0.01217,0.07209 l 0.02463,0.03549 z m 0.01217,0.07209 -0.81493,-1.170344 -0.447535,-0.795985 -0.08842,-0.0588 -0.340389,0.03527 -0.3264467,-0.07535 -0.3018389,-0.304458 -0.046607,-0.05532 -0.089947,0.377206 -0.2369383,0.160286 -0.398536,0.0016 -0.071651,0.171178 -0.089509,0.353242 0.1683445,1.826507 c 0,0 -0.038183,-1.168783 0.06163,-1.388993 0.099783,-0.220215 0.1300155,-0.08472 0.1300155,-0.08472 0,0 0.2838898,0.186725 0.5037226,0.11107 0.2198393,-0.07566 0.430115,-0.233677 0.430115,-0.233677 0,0 0.1230873,0.337887 0.4366483,0.314262 0.313557,-0.02366 0.510907,-0.197525 0.510907,-0.197525 0,0 0.207439,0.09685 0.131323,0.389822 -0.07612,0.292986 -0.05488,0.813181 -0.05488,0.813181 l 0.984144,0.02093 c 0,0 -0.02814,-0.09411 -0.04922,-0.209283 z" />
      <path
         style="display:inline;fill:#eae1cf;fill-opacity:1;stroke:none;stroke-width:0.111503px;stroke-linecap:butt;stroke-linejoin:miter;stroke-opacity:1"
         d="m 15.076678,5.2621527 -0.03788,0.2195375 -0.287489,0.4514295 -0.238314,0.5475716 0.144457,0.6173011 0.819253,1.1631431 0.585582,0.6083704 0.603315,0.4626351 0.574282,0.3696635 0.602873,0.3644065 c 0,0 0.814016,0.389848 0.84208,0.403342 0.02807,0.01347 0.609574,0.22547 0.609574,0.22547 l 0.980763,0.184817 1.047352,-0.03249 0.865568,-0.03612 0.325974,-0.398247 0.332382,-0.6199074 0.538339,0.6888904 0.0056,0.875479 -0.164989,0.476012 -0.258538,2.088225 -0.11866,0.747917 0.563252,1.608251 0.135601,0.444014 -0.439634,0.482103 -0.629019,0.154144 -0.35336,0.107915 -0.08489,1.74931 -0.154857,-1.610704 0.02937,-0.06086 -0.344646,0.220215 -0.883855,0.385692 -1.269323,0.155188 -1.326639,0.04994 -1.469282,0.05987 -0.582945,0.057 -1.422499,0.394152 -1.271785,0.513091 -1.250449,0.08587 -0.273823,-0.130213 -0.03953,0.228147 -0.011,0.377448 0.156516,0.445222 -0.04008,0.319252 -0.166365,0.201978 -0.308517,0.07074 -0.306184,-0.143191 -0.140874,-0.28893 -0.0123,-0.341966 0.191551,-0.559877 -0.03873,-0.44184 -0.303419,-0.63219 -0.240141,-0.345948 -0.293188,0.04954 -0.3641106,-0.104498 -0.4422228,-0.384293 -0.1284059,0.432189 -0.2506882,0.139137 -0.3317077,-0.01451 -0.087958,0.30474 -0.048178,0.62387 0.1314466,1.073572 -0.069496,0.804059 L 8.2564061,21.483374 7.0884407,20.93469 7.2690488,20.432525 7.368037,19.645192 7.5670973,19.411839 7.8077513,18.830388 7.9103612,18.044122 7.9375883,17.792749 7.6959056,17.714261 7.3854994,17.506543 7.0166342,16.775017 6.9150856,15.4769 6.5250585,14.606798 5.981115,14.408036 5.5529438,13.598155 5.6708483,12.873062 6.5769427,11.580208 6.7557205,10.653117 7.3563283,9.1728278 8.1514532,8.0969481 8.9233523,7.0977912 9.6406963,6.8350147 11.417233,6.0064221 l 0.878189,-0.1426328 0.914873,0.0013 0.379279,-0.2735149 0.457164,-0.4152585 1.040737,0.076447 z"
         id="path15750"
         sodipodi:nodetypes="ccccccccccsccccccccccccccccccccccccccccccccccccccccccccccccccccccccccccccccccccccccccccccccc" />
      <path
         style="display:inline;fill:#a92e29;fill-opacity:1;stroke:none;stroke-width:0.111503px;stroke-linecap:butt;stroke-linejoin:miter;stroke-opacity:1"
         d="m 14.423323,6.5656667 0.490524,-0.8791105 0.209358,-0.5190561 0.936781,-0.8877104 1.2748,-0.2842661 1.618623,0.4240465 1.109539,0.5403445 -0.07969,0.2082832 -0.266482,0.7105324 -0.142594,0.5032714 -0.05136,0.5154118 -0.0072,0.1414937 0.198408,-0.3355792 0.187851,-0.373337 0.424663,-0.4523284 0.334525,-0.2563899 1.022224,0.522973 0.50222,0.6395307 0.468158,0.6663101 0.291918,0.6123847 0.08439,0.6255504 -0.157804,0.9964471 -0.174209,0.3715754 -0.488746,0.737727 -1.09771,0.0912 -1.350988,-0.08649 -2.103688,-0.771487 -1.573047,-1.155718 -0.870939,-0.9085153 z"
         id="path41560" />
      <path
         style="display:inline;fill:#a92e29;fill-opacity:1;stroke:none;stroke-width:0.111503px;stroke-linecap:butt;stroke-linejoin:miter;stroke-opacity:1"
         d="m 19.72533,14.181642 0.360386,0.126647 0.283533,0.204538 0.186641,0.182367 0.238444,0.245129 0.09994,0.170889 0.143701,0.282088 0.06959,0.211409 0.08101,0.394041 0.0019,0.345847 0.01058,0.304192 0.190782,-0.0578 0.246732,-0.123197 -0.0078,-0.172933 -0.0777,-0.628695 -0.217912,-0.673246 -0.365636,-0.620033 -0.248125,-0.19882 -0.390757,-0.11611 z"
         id="path133721" />
      <path
         style="display:inline;fill:#a92e29;fill-opacity:1;stroke:none;stroke-width:0.111503px;stroke-linecap:butt;stroke-linejoin:miter;stroke-opacity:1"
         d="m 12.397837,17.972027 0.353149,-0.941211 0.187465,0.01003 0.0635,0.477891 0.09558,0.324364 0.173274,0.322955 -0.470226,-0.06133 z"
         id="path164110" />
      <path
         style="display:inline;fill:#a92e29;fill-opacity:1;stroke:none;stroke-width:0.111503px;stroke-linecap:butt;stroke-linejoin:miter;stroke-opacity:1"
         d="m 14.873026,16.839467 0.07365,0.251191 -0.0147,0.145167 -0.07348,0.32169 -0.134984,0.518988 0.0768,0.0071 0.351299,-0.04869 0.291188,-0.03953 0.620254,-0.123467 0.07204,-0.03565 -0.148711,-0.07317 -0.266869,-0.176668 -0.256571,-0.281232 -0.233025,-0.438731 -0.04701,-0.09043 -0.115399,0.0096 -0.09863,0.02891 z"
         id="path167495" />
      <path
         style="display:inline;fill:#a92e29;fill-opacity:1;stroke:none;stroke-width:0.111503px;stroke-linecap:butt;stroke-linejoin:miter;stroke-opacity:1"
         d="m 16.505386,17.776741 0.160585,-0.487046 0.131829,-0.560049 0.03885,-0.255507 0.128487,-0.05594 0.118002,-0.008 0.159355,0.01493 0.123999,0.243224 0.103898,0.188137 0.145197,0.203705 0.426188,0.396757 -0.170327,0.01412 -0.285857,0.04388 -0.564836,0.129574 z"
         id="path171441" />
      <path
         style="display:inline;fill:#a92e29;fill-opacity:1;stroke:none;stroke-width:0.111503px;stroke-linecap:butt;stroke-linejoin:miter;stroke-opacity:1"
         d="m 18.734614,16.364597 -0.08102,0.314116 -0.13108,0.275702 -0.246745,0.438374 0.375641,-0.0019 0.721057,-0.02554 0.311538,-0.05414 1.496815,-0.557294 -0.02947,-0.148396 -0.07374,-0.376881 -0.05722,-0.122386 -0.171067,-0.08155 -0.02706,0.02992 -0.05497,0.223168 -0.01937,0.142075 -0.08182,0.23038 -0.07018,0.101156 -0.102876,0.06388 -0.05869,-0.01785 -0.117071,-0.09505 -0.114558,-0.13843 -0.179901,-0.189477 -0.140562,-0.146696 0.01399,-0.02155 -0.03355,-0.01772 -0.06967,0.312318 -0.115062,0.442803 c -0.04242,0.06944 -0.08306,0.113641 -0.121672,0.128819 l -0.06834,0.01915 -0.05234,0.0051 -0.110425,-0.05434 -0.145384,-0.144885 -0.245545,-0.253057 -0.111294,-0.11564 z"
         id="path177950"
         sodipodi:nodetypes="ccccccccccccccccccccccccccccccccccc" />
      <path
         style="display:inline;fill:#4a2c1a;fill-opacity:1;stroke:none;stroke-width:0.111503px;stroke-linecap:butt;stroke-linejoin:miter;stroke-opacity:1"
         d="m 19.520646,7.0840219 0.07096,-0.6342703 0.166949,-0.7014783 0.36195,-0.9572971 1.524946,-1.2465348 2.560236,-0.8928183 0.14705,0.4396007 -0.390196,1.1864111 -1.466735,0.3758489 -0.229039,-0.0038 -0.954691,0.5954415 -0.674264,0.4541457 -0.337543,0.1988688 -0.296088,0.3178832 -0.22019,0.3381137 z"
         id="path183153" />
      <path
         style="display:inline;fill:#b1611f;fill-opacity:1;stroke:#201c1d;stroke-width:0.111503px;stroke-linecap:butt;stroke-linejoin:miter;stroke-opacity:1"
         d="m 24.321384,2.6247204 -1.184632,0.3918087 c 0,0 -0.243452,0.038897 0.0359,0.5968305 0.279363,0.5579368 0.523003,0.6605661 0.523003,0.6605661 l 0.45076,-0.5432458 z"
         id="path197092" />
      <path
         id="path305117"
         style="display:inline;fill:url(#linearGradient317759);fill-opacity:1;stroke:none;stroke-width:0.111503px;stroke-linecap:butt;stroke-linejoin:miter;stroke-opacity:1"
         d="m 20.678182,14.862623 -0.134806,0.246956 -0.350189,0.404196 -0.12348,0.07558 -0.373054,-0.198834 -0.383076,-0.243045 -0.147871,0.390471 -0.245655,0.208861 -0.109324,0.06468 -0.02483,0.21821 0.428593,-0.20754 0.469528,-0.0429 0.213424,0.0076 0.454503,-0.150272 0.211901,-0.03439 0.139595,0.02833 0.115205,0.300966 0.0048,0.138946 0.211681,0.01808 0.145044,0.479344 0.01003,-0.505468 -0.09081,-0.475853 -0.199482,-0.504592 z m -7.989666,0.386558 -0.122607,0.235848 -0.233242,0.412919 -0.391348,0.712135 0.560128,0.04421 0.206891,0.186631 0.01678,0.205369 0.192518,-0.0029 0.02921,-0.204486 0.334508,-0.251327 0.339733,-0.131755 -0.390695,-0.40724 -0.259811,-0.387652 z m 1.84786,0.796855 -0.454723,0.336247 0.369572,0.07165 0.258938,0.196659 0.18446,0.199697 0.151356,-0.06621 0.121085,-0.0066 -0.161374,-0.553156 z m 2.56696,0.03158 -0.300532,0.09343 0.05379,0.299875 0.225184,-0.07209 0.151356,0.01243 z" />
      <path
         style="display:inline;fill:#efd0a3;fill-opacity:1;stroke:none;stroke-width:0.111503px;stroke-linecap:butt;stroke-linejoin:miter;stroke-opacity:1"
         d="m 11.968865,16.590112 0.550012,0.0408 0.159332,0.137752 0.03928,0.241001 -0.08758,0.374625 -0.351134,0.350786 -0.334005,0.142117 -0.137012,-0.199884 -0.0528,-0.506436 z"
         id="path268684" />
      <path
         style="display:inline;fill:#efd0a3;fill-opacity:1;stroke:none;stroke-width:0.111503px;stroke-linecap:butt;stroke-linejoin:miter;stroke-opacity:1"
         d="m 13.615159,16.462621 -0.278477,0.124123 -0.262465,0.162759 -0.107779,0.131921 -0.01042,0.219261 0.04979,0.347152 0.2019,0.391754 0.350027,0.241329 0.309734,0.09606 0.465189,-0.03358 0.17219,-0.136928 0.334723,-0.43582 0.106176,-0.422684 -0.07783,-0.308121 -0.195598,-0.264795 -0.220524,-0.149636 -0.390793,-0.02719 0.35753,-0.263448 0.131333,-0.09343 0.452773,0.172771 0.112261,0.319973 0.158904,0.455145 0.234053,0.362157 0.300204,0.195867 0.281621,0.08755 0.346668,-0.07633 0.108266,-0.120848 0.150457,-0.225022 0.152125,-0.614059 -0.04546,-0.417657 0.290402,-0.10898 0.224299,0.516353 0.223331,0.388177 0.248909,0.244909 0.265727,0.221231 0.219112,-0.02301 0.300262,-0.609328 0.113605,-0.287797 0.08644,-0.502512 -0.02921,0.220719 -0.02184,0.103418 0.05932,0.09201 0.257084,0.303299 0.259645,0.284688 0.188211,0.08764 0.0471,-0.02401 0.06019,-0.03249 0.05625,-0.06578 0.06616,-0.168312 0.04699,-0.240167 0.08835,-0.382878 0.04363,0.0121 0.385036,0.308982 0.311409,0.01324 0.164914,-0.213819 0.04008,-0.262861 -0.05887,-0.340606 -0.06399,-0.07956 -0.123263,-0.03797 -0.13905,0.02976 -0.269377,0.06377 -0.254125,0.114381 -0.242763,-0.02216 -0.290065,0.01629 -0.117538,0.02833 -0.0908,0.02655 -0.162493,0.05684 -0.197629,0.08649 0.02346,-0.2057 0.214777,-0.155838 0.172297,-0.165839 0.08683,-0.230818 0.03342,-0.0709 0.573211,0.372211 0.135474,0.05306 0.114449,-0.02184 0.246417,-0.276014 0.315667,-0.439159 -0.415878,-0.366847 -0.442613,-0.330841 -0.651674,0.150528 -1.488545,0.334509 -1.224393,0.155824 -1.467277,-0.15707 -1.415616,-0.04029 -0.782556,0.438977 -0.127192,0.2214 0.514776,0.724078 z"
         id="path289586"
         sodipodi:nodetypes="ccccccccccccccccccccccccccccccccccccccccccccccccccccccccccccccccccccccccccccccccccccccccc" />
      <path
         id="path74660"
         style="fill:#b1611f;fill-opacity:1;stroke:none;stroke-width:0.111503px;stroke-linecap:butt;stroke-linejoin:miter;stroke-opacity:1"
         d="m 20.303167,20.86962 -0.512868,0.211687 -1.421665,0.41878 -1.609169,0.322102 -0.791841,0.03834 -0.942554,0.09038 -0.425971,0.02421 -0.723902,0.0055 -0.68426,-0.02917 -0.43164,-0.05205 -1.508552,-0.205797 -1.3524126,-0.252626 0.1406856,0.578855 c 0,0 0.951758,0.26928 1.598068,0.388733 l -0.02353,0.03574 0.236507,0.312295 c 0,0 0.468005,-0.209121 0.872208,-0.204061 0.404202,0.005 1.077353,0.236734 1.077353,0.236734 l 0.228887,-0.175319 c 0.473607,0.0054 1.002236,-0.0081 1.576065,-0.05248 -0.08593,0.04967 -0.158739,0.09401 -0.189033,0.119127 -0.106365,0.08822 -0.724769,0.88897 -0.724769,0.88897 l 0.122827,0.139167 c 0,0 0.488558,-0.67505 0.953439,-0.774641 0.464874,-0.0996 0.930891,-0.124071 1.3903,0.147218 0.45941,0.271272 0.671077,0.61207 0.726729,0.552939 0.05565,-0.05913 0.206797,-0.292528 0.210594,-0.334719 0.0038,-0.04219 -0.04421,-0.144395 -0.04421,-0.144395 l -0.594974,-0.545096 c 0,0 -0.210786,-0.119718 -0.408554,-0.227799 0.595188,-0.104538 1.154248,-0.238259 1.62877,-0.367613 0.256688,-0.06998 0.474704,-0.372354 0.674244,-0.43447 0.478544,-0.148961 0.784656,-0.02635 0.784656,-0.02635 z m -9.79244,2.26796 0.277019,0.707771 c 0,0 0.442168,0.227255 0.727161,0.346272 0.284993,0.119018 0.341044,0.212337 0.341044,0.212337 L 11.8431,24.100592 c 0,0 -0.146708,-0.242026 -0.230412,-0.328186 -0.0837,-0.08619 -1.101961,-0.634826 -1.101961,-0.634826 z m 8.952901,0.451673 -0.461911,0.140897 -0.70756,0.517661 -0.591057,0.63636 -0.0026,0.134361 0.229974,0.215825 c 0,0 0.409722,-0.477995 0.670762,-0.693194 0.261034,-0.215198 0.634387,-0.335602 0.634387,-0.335602 z m -5.448181,0.789005 -0.250665,0.02158 -0.492397,0.351491 -0.616967,0.609564 0.04573,0.2596 c 0,0 0.182996,-0.210717 0.566663,-0.39288 0.383676,-0.182163 0.89923,-0.332279 1.171652,-0.231282 0.272424,0.101 0.798159,0.576461 0.798159,0.576461 L 15.44691,25.312767 15.319292,25.093463 15.076471,24.775288 14.716916,24.547712 14.32992,24.388295 Z m 2.893631,1.586741 c -0.109567,0 -0.234553,0.0055 -0.271571,0.02311 -0.06582,0.03132 -0.256623,0.120903 -0.370656,0.169438 -0.114037,0.04854 -0.322823,0.16876 -0.40921,0.23825 -0.08639,0.06949 -0.405289,0.531602 -0.405289,0.531602 l 0.202322,0.229104 c 0,0 0.272041,-0.24302 0.596275,-0.419886 0.324237,-0.176867 0.705003,-0.164902 0.946906,-0.08253 0.241907,0.08238 0.661829,0.349313 0.661829,0.349313 l 0.310334,-0.252408 -0.349316,-0.338646 c 0,0 -0.3176,-0.284782 -0.419224,-0.345831 -0.101623,-0.06104 -0.273106,-0.08924 -0.313603,-0.09561 -0.01772,-0.0029 -0.09358,-0.006 -0.178797,-0.0059 z m -4.490822,0.634173 c -0.04517,0 -0.07918,0.0034 -0.08994,0.0085 -0.02869,0.0134 -0.708654,0.261553 -0.708654,0.261553 l -0.02875,0.05879 0.226274,0.259606 1.317128,0.543353 0.447752,0.02895 c 0,0 -0.207812,-0.622594 -0.255237,-0.687316 -0.04743,-0.06472 -0.31655,-0.297584 -0.351273,-0.337114 -0.03473,-0.03953 -0.164266,-0.06934 -0.294437,-0.105839 -0.08136,-0.02278 -0.187589,-0.03089 -0.262861,-0.03051 z" />
      <path
         style="fill:#a39688;fill-opacity:1;stroke:none;stroke-width:0.111503px;stroke-linecap:butt;stroke-linejoin:miter;stroke-opacity:1"
         d="m 14.160809,8.905018 c 0.678561,0.9985565 1.558515,1.919757 2.612474,2.508592 1.220184,0.681702 4.058711,1.053082 4.058711,1.053082 0,0 -2.909461,-0.05784 -4.171514,-0.684568 -1.010989,-0.502051 -1.851757,-1.377783 -2.456461,-2.330933 -0.43189,-0.6807642 -0.75871,-2.296531 -0.75871,-2.296531 0,0 0.361226,1.2290206 0.7155,1.750358 z"
         id="path113439"
         sodipodi:nodetypes="aacaaca" />
      <path
         style="display:inline;fill:#a39688;fill-opacity:1;stroke:none;stroke-width:0.111503px;stroke-linecap:butt;stroke-linejoin:miter;stroke-opacity:1"
         d="m 16.016487,18.462658 c 0,0 1.507445,-0.579478 2.301477,-0.647046 0.948635,-0.08072 1.502795,0.322848 3.382818,-0.121001 0,0 -0.798841,0.462314 -1.638149,0.568903 -1.339591,0.170119 -4.046146,0.199115 -4.046146,0.199115 z"
         id="path123113"
         sodipodi:nodetypes="cscscc" />
      <path
         id="path210251"
         style="fill:#ce8e42;fill-opacity:1;stroke:none;stroke-width:0.111503px;stroke-linecap:butt;stroke-linejoin:miter;stroke-opacity:1"
         d="m 19.850404,16.192819 -0.06599,0.277227 c 0.04369,-0.145164 0.06599,-0.277227 0.06599,-0.277227 z m 0.06511,0.03637 0.16878,0.210149 0.190126,0.220394 0.158758,0.14374 0.05684,0.02681 0.119128,-0.07405 0.07492,-0.120435 0.04965,-0.203403 0.02288,-0.191207 c 0,0 -0.102441,0.174757 -0.24914,0.230844 -0.146696,0.05608 -0.59192,-0.242815 -0.59192,-0.242815 z m -1.21564,0.150483 -0.381116,0.643973 c 0,0 -0.206083,0.09625 -0.343218,0.05705 -0.137142,-0.03919 -0.662484,-0.524631 -0.662484,-0.524631 l 0.195565,0.359989 0.236724,0.257637 0.249143,0.216685 0.09626,0.05902 0.196438,-0.03788 0.163986,-0.340177 0.177052,-0.353675 z m 1.084541,0.0906 c -0.04952,0.164467 -0.12642,0.345636 -0.228887,0.370868 -0.192953,0.04753 -0.75025,-0.360853 -0.75025,-0.360853 l 0.162029,0.195783 0.25959,0.262422 0.161374,0.14286 0.08581,0.01587 0.06381,-0.0083 0.101049,-0.0797 0.0268,-0.04421 0.05161,-0.145268 0.04618,-0.261985 z m -2.941763,0.169208 c 0,0 -0.037,0.119196 -0.05858,0.230419 z m -0.05858,0.230419 -0.0068,0.02681 c 0.0026,-0.0067 0.0042,-0.01279 0.005,-0.01808 6.49e-4,-0.0029 0.0013,-0.0058 0.0016,-0.0087 z m -4.071815,-0.01373 c 0,0 -0.184941,0.487189 -0.292477,0.608695 -0.107536,0.1215 -0.594971,0.293561 -0.594971,0.293561 l 0.257195,0.192956 0.241732,0.0699 0.08276,-0.121948 0.142857,-0.315563 0.15267,-0.529638 z m 4.06463,0.04159 c -0.0494,0.137613 -0.365,0.542925 -0.365,0.542925 0,0 -0.315637,0.06644 -0.50198,0.05684 -0.186339,-0.0096 -0.652031,-0.518533 -0.652031,-0.518533 l 0.246742,0.372623 0.223007,0.249133 0.236727,0.157671 0.148961,0.09583 0.406156,-0.06904 0.08646,-0.215601 z M 14.9323,17.087442 c 0,0 -0.221251,0.622075 -0.392877,0.779003 -0.171619,0.15694 -0.25306,0.246732 -0.25306,0.246732 l -0.348008,-0.01395 c 0,0 -0.38296,-0.06454 -0.567319,-0.189032 -0.184353,-0.124479 -0.390692,-0.589305 -0.390692,-0.589305 l 0.03877,0.267654 0.110635,0.346921 0.126965,0.193599 0.323618,0.02311 0.761793,0.01438 0.381765,-0.07144 0.148091,-0.583642 z" />
      <path
         style="fill:#ce8e42;fill-opacity:1;stroke:none;stroke-width:0.111503px;stroke-linecap:butt;stroke-linejoin:miter;stroke-opacity:1"
         d="m 14.713869,15.864078 0.24459,-0.611425 c 0,0 -0.310899,-0.309212 -0.841632,-0.251823 -0.530722,0.0574 -0.934295,0.408722 -1.015808,0.537543 -0.08151,0.128819 0.09456,0.417781 0.09456,0.417781 l -0.515639,-0.68853 0.323783,-0.372523 0.413065,-0.284354 0.843102,-0.03688 0.73579,0.101257 1.546358,0.125595 1.244728,-0.190639 1.531054,-0.351912 0.480016,-0.12138 0.507682,0.354856 0.390757,0.362731 -0.102976,0.170652 c 0,0 -0.164629,-0.324938 -0.25688,-0.415388 -0.09226,-0.09047 -0.378247,-0.303754 -0.674174,-0.151291 -0.31959,0.164648 -0.221306,0.467882 -0.134477,0.783556 l -0.215118,-0.09979 -0.100121,0.300849 c 0,0 -0.0048,-0.177846 -0.156171,-0.451523 -0.15136,-0.273658 -0.614446,-0.317523 -0.757617,-0.298438 -0.143175,0.01908 -0.473173,0.114081 -0.473173,0.114081 l -0.07926,0.06122 0.0042,0.436414 c 0,0 -0.08596,0.360139 -0.128241,0.428996 -0.04227,0.06886 -0.160572,0.149353 -0.160572,0.149353 l -0.127153,0.07535 c 0,0 0.324571,-0.252427 0.252697,-0.763299 -0.02087,-0.148257 -0.132612,-0.253213 -0.261398,-0.291224 -0.128788,-0.03801 -1.212437,0.02012 -1.284494,0.02593 -0.111699,0.009 -0.653433,0.182121 -0.797714,0.286428 -0.141734,0.102454 -0.529785,0.647825 -0.529785,0.647825 z"
         id="path293615"
         sodipodi:nodetypes="ccsscccccccccccccsscccsscccsccssssc" />
      <path
         style="display:inline;fill:#a39688;fill-opacity:1;stroke:none;stroke-width:0.111503px;stroke-linecap:butt;stroke-linejoin:miter;stroke-opacity:1"
         d="m 6.9921168,10.231216 c 0,0 -0.1277893,1.415048 0.2212347,3.122174 0.2112168,1.033117 0.5840606,1.712295 1.1441944,2.24243 0.1595533,0.151009 0.1911647,0.103333 0.2315415,0.605563 0.076515,0.08263 0.2737906,0.412293 0.4523803,0.397816 0.2932748,-0.02379 0.2729891,0.09092 0.6530567,-0.248251 -0.1398647,0.562856 -0.023171,0.971543 0.1813383,1.160878 0.10825,0.100224 0.2433183,0.135247 0.4378803,-0.0097 0.138054,0.165771 0.204289,0.513906 0.356404,0.738883 0.31237,0.461999 0.721667,0.829352 1.000617,1.006861 0.13576,0.08639 0.04067,0.07559 0.12655,0.08634 0.516142,0.06456 -0.398552,0.05603 -0.558654,0.131787 -0.160102,0.07576 -0.132586,0.0058 -0.132586,0.0058 l -0.119326,-0.525446 -0.253573,-0.49581 -0.259693,-0.27519 -0.289112,0.04469 L 9.7343656,18.078826 9.47033,17.81064 9.413776,17.221472 c 0,0 -0.1875236,-0.387292 -0.3898941,-0.383884 -0.2023736,0.0034 -0.5670947,0.317114 -0.5670947,0.317114 l -0.064333,0.362998 0.052887,0.460775 0.2484619,0.282829 -0.1206369,0.815676 c 0,0 -0.041383,-0.447726 -0.3727659,-0.466071 -0.3313734,-0.0184 -0.5106283,0.443099 -0.5106283,0.443099 L 7.7916777,18.674086 7.896147,17.954779 7.848547,17.743919 7.5021385,17.622403 7.110518,17.241965 6.8002319,16.30756 l -0.151979,-1.662053 0.1933098,-0.421 0.1337832,-0.595285 0.00909,-0.476518 c 0,0 -0.014701,-0.358945 -0.3056521,-0.513994 -0.2909318,-0.155043 -0.6204132,-0.0892 -0.6204132,-0.0892 z"
         id="path336753"
         sodipodi:nodetypes="csscscscssssccccccccscccccscccccccccccscc" />
      <path
         style="fill:#a39688;fill-opacity:1;stroke:none;stroke-width:0.111503px;stroke-linecap:butt;stroke-linejoin:miter;stroke-opacity:1"
         d="m 21.874195,12.80625 c 0.253843,-0.27311 0.414886,-0.45633 0.691857,-0.551693 0.140332,-0.04832 0.258038,0.191171 0.250279,0.278694 -0.02525,0.284834 -0.54531,0.869368 -0.662481,1.545151 -0.128114,0.738895 -0.130931,0.925274 -0.02781,1.345429 l 0.196701,0.563301 c 0,0 -0.01162,-0.418601 0.280534,-0.40171 0.292155,0.01691 0.773158,0.594601 0.773158,0.594601 l -0.36216,-0.921648 -0.124489,-1.016035 0.202058,-0.90147 0.110126,-1.370346 -0.05471,-0.314304 -0.299253,0.220797 -0.77062,0.476151 c -0.154939,0.147144 -0.203088,0.299045 -0.203185,0.453082 z"
         id="path344675"
         sodipodi:nodetypes="csssccsccccccccc" />
      <path
         style="fill:#f5f1e8;fill-opacity:1;stroke:none;stroke-width:0.111503px;stroke-linecap:butt;stroke-linejoin:miter;stroke-opacity:1"
         d="m 21.491707,16.818126 c -0.03018,0.03637 -0.171882,0.150551 -0.307044,0.225863 -0.13516,0.07529 -0.510807,0.198943 -0.510807,0.198943 0,0 0.323977,0.05603 0.470001,-0.0016 0.291325,-0.115256 0.34785,-0.423063 0.34785,-0.423063 z"
         id="path6701"
         sodipodi:nodetypes="cscsc" />
      <path
         style="display:inline;fill:#811414;fill-opacity:1;stroke:none;stroke-width:0.111503px;stroke-linecap:butt;stroke-linejoin:miter;stroke-opacity:1"
         d="M 18.690366,4.4591712 20.08311,5.0428132 19.857887,5.49753 19.689922,6.0208957 19.526351,6.790455 19.525702,7.1155392 c 0,0 0.115312,-1.0923816 0.04951,-1.4440764 -0.0658,-0.3516884 -0.884829,-1.2122916 -0.884829,-1.2122916 z"
         id="path27427" />
      <path
         style="fill:#811414;fill-opacity:1;stroke:none;stroke-width:0.111503px;stroke-linecap:butt;stroke-linejoin:miter;stroke-opacity:1"
         d="m 15.522247,8.4013474 c 0,0 2.619733,1.5914797 4.094713,1.7394246 1.474978,0.147942 3.016124,-0.6500415 3.209454,-0.8759591 0.193329,-0.2259046 0.263,-0.6485329 0.263,-0.6485329 l -0.173417,1.2274693 -0.694709,1.0075427 -1.801116,0.04741 -1.69098,-0.474418 -0.958277,-0.393905 -2.218179,-1.5889844 z"
         id="path13610" />
      <path
         id="path47160-3"
         style="display:inline;fill:#201c1d;fill-opacity:1;stroke:none;stroke-width:0.111503px;stroke-linecap:butt;stroke-linejoin:miter;stroke-opacity:1"
         d="m 24.348196,2.4276527 v 0 c -0.01655,0 -0.03401,0.00162 -0.05226,0.00568 -0.292411,0.065297 -2.154498,0.6853236 -2.709826,1.0261763 -0.555338,0.340842 -1.754652,1.247871 -1.754652,1.247871 0,0 -0.995889,-0.5589168 -1.517489,-0.7452398 -0.521594,-0.1863229 -1.561319,-0.4054125 -2.325008,0.061192 -0.763688,0.4666072 -1.278798,1.0331437 -1.278798,1.0331437 0,0 -0.398312,-0.3180843 -0.892023,-0.0723 -0.493712,0.2457879 -0.718016,0.6326445 -0.718016,0.6326445 H 13.0999 c 0,0 -1.451336,0.014636 -2.740318,0.4523381 C 9.0706063,6.5068735 7.2770579,8.4129782 6.9302147,9.1428877 6.5741485,9.8922228 6.3821952,10.435913 6.2359342,11.256438 c -0.049259,0.308615 -0.1369537,0.85019 -0.288936,1.045787 -0.1533517,0.197347 -0.6852036,0.665927 -0.7174187,1.130257 -0.032192,0.464335 0.1507232,0.8844 0.499585,1.152709 0.3598305,0.276741 0.7461127,0.312075 0.7461127,0.312075 0,0 0.052884,0.366317 0.065329,0.861972 0.012429,0.495662 -0.100455,0.956431 -0.012656,1.297092 0.087825,0.340664 0.215348,0.463583 0.4144342,0.66509 0,0 0.0013,0.909184 0.043775,1.117428 0.042434,0.208231 0.2271442,0.659213 0.2271442,0.659213 0,0 -0.2379507,0.786291 -0.2134268,1.084547 0.024534,0.29826 0.014993,0.969376 0.481295,1.127229 0.4662925,0.157853 0.8162804,0.126933 0.9852317,0.01129 0.1689482,-0.115613 0.3220955,-0.245872 0.3220955,-0.245872 l 0.7585223,0.25785 1.6579517,5.23455 c 0,0 0.0799,0.25417 0.222789,0.332321 0.142895,0.07817 1.666726,0.811776 3.025175,0.785529 1.358451,-0.02625 2.916019,-0.426065 3.369038,-0.584512 0.453017,-0.158453 0.638746,-0.645288 0.638746,-0.645288 l 0.85936,-2.177562 1.154011,-3.549809 1.284024,-0.584956 c 0,0 0.403893,-0.222793 0.44514,-0.468221 0.04126,-0.245427 0.137859,-2.527111 0.137859,-2.527111 0,0 0.317559,0.04731 0.627855,-0.07753 0.310302,-0.12484 0.651544,-0.571307 0.676204,-0.728472 0.02463,-0.157152 -0.640056,-2.007264 -0.640056,-2.007264 0,0 -0.01347,-0.643285 0.104755,-0.941467 0.118183,-0.298191 0.320924,-1.343096 0.251749,-1.577149 -0.06918,-0.234056 0.06506,-0.532082 0.13132,-0.707352 0.06627,-0.17526 0.327797,-0.597947 0.06447,-1.19626 -0.263351,-0.5983137 -0.578427,-0.6576878 -0.578427,-0.6576878 0,0 0.400863,-1.1615367 -0.04007,-2.1618975 C 22.497964,6.4926109 21.039657,5.5662795 21.039657,5.5662795 l 1.257676,-0.8321364 c 0,0 1.365997,-0.2689553 1.579985,-0.378062 0.213992,-0.1091068 0.506897,-0.338143 0.595413,-0.7075598 0.08852,-0.3694136 0.184239,-0.7602748 0.184239,-0.7602748 0,0 -0.06033,-0.4575077 -0.308809,-0.460821 z m -0.117382,0.3125156 -0.5745,1.3652571 c 0,0 -1.037236,0.200446 -1.646194,0.4490507 C 21.401166,4.803097 20.466066,5.6669 20.466066,5.6669 c 0,0 0.806584,0.4428329 1.155757,0.6748937 0.349167,0.2320444 0.807009,0.7780908 1.143338,1.7439844 0.336341,0.9659033 -0.01003,1.7572508 -0.01003,1.7572508 0,0 0.693245,0.8886771 0.63831,1.1834121 -0.05493,0.294739 -0.396575,0.687531 -0.396575,0.687531 -0.158694,0.114331 -0.779078,0.45716 -0.965411,0.605213 -0.141088,0.112095 -0.20005,0.237311 -0.216039,0.373924 -0.016,0.136626 0.09044,0.157311 0.09365,0.07426 0.0034,-0.08305 0.07388,-0.276903 0.182494,-0.353678 0.262711,-0.185683 0.683353,-0.440811 0.928395,-0.594315 0.01243,0.06859 0.02437,0.160692 0.01983,0.245006 -0.0087,0.161072 -0.08661,0.621815 -0.255238,1.708044 -0.168636,1.086206 0.02496,1.156672 0.138505,1.540134 0.08378,0.417754 0.392438,0.773259 0.392438,1.201264 0,0.162815 -0.290078,0.554205 -0.498059,0.658992 -0.207978,0.104924 -0.569714,-0.126309 -0.569714,-0.126309 0.124148,-0.31787 0.171343,-0.429554 0.192787,-0.683568 0.02135,-0.271172 -0.337607,-0.988753 -0.337607,-0.988753 0,0 0.281375,0.711074 0.247225,0.982006 -0.0112,0.36329 -0.02051,0.374213 -0.141172,0.745198 l -0.217123,0.243698 -0.208413,0.20471 -6.49e-4,0.0087 c -0.04868,0.03253 -0.576597,0.383235 -0.813843,0.437738 -0.248524,0.05709 -0.547004,0.197227 -1.016376,0.216695 -1.294892,0.05367 -2.401562,0.120367 -3.69571,0.196435 -0.560377,0.03295 -1.559937,0.353953 -2.170819,0.601065 -0.58836,0.238016 -0.976418,0.424092 -1.642059,0.364783 -0.281277,-0.02509 -0.293204,-0.03375 -0.454938,-0.06206 -0.228682,-0.04004 -0.389271,-0.104265 -0.514834,-0.149406 0.112557,0.06005 0.156023,0.144664 0.28769,0.200793 0,0 -0.0741,0.22498 -0.04922,0.480202 0.01373,0.140896 0.131165,0.329179 0.140686,0.50308 0.0082,0.149055 0.03945,0.343371 -0.07274,0.441872 -0.145018,0.127202 -0.406418,0.199923 -0.578638,0.01957 -0.104433,-0.10935 -0.175003,-0.259781 -0.195133,-0.409641 -0.0147,-0.109635 0.01736,-0.2258 0.05858,-0.326671 0.04122,-0.100851 0.09722,-0.22743 0.133283,-0.458643 0.03367,-0.215725 -0.03755,-0.444326 -0.125222,-0.634819 0.05313,0.01661 0.04472,0.02285 0.135244,0.05292 -0.04337,-0.01574 -0.16484,-0.11461 -0.171178,-0.127179 0.05401,-0.08068 -0.297082,-0.607468 -0.412257,-0.774433 -0.02625,-0.248125 -0.09404,-0.413029 -0.285071,-0.660732 -0.06009,-0.05948 -0.120854,0.01772 -0.06338,0.06206 0.138515,0.219382 0.21575,0.383316 0.179884,0.643315 -0.246407,0.04012 -0.337065,0.02606 -0.4862988,-0.03856 -0.1736472,-0.07515 -0.4201003,-0.381979 -0.4201003,-0.381979 0,0 -0.050404,-0.37408 -0.030051,-0.675546 0.02038,-0.301462 0.073341,-0.407723 0.1698698,-0.610661 0.096525,-0.202945 0.3717473,-0.366954 0.3717473,-0.366954 l -0.05945,-0.103229 c 0,0 -0.1691008,0.133692 -0.2365132,0.213641 -0.067422,0.07994 -0.2107106,0.276403 -0.2428218,0.364779 -0.032127,0.08838 -0.1115082,0.516103 -0.081883,0.806869 0.029629,0.290767 0.01178,0.502486 -0.091031,0.722806 -0.1028175,0.220177 -0.4087746,0.183029 -0.4771541,0.178151 -0.068383,-0.0049 -0.1868357,-6.8e-5 -0.3160009,-0.273751 C 8.4278357,17.737321 8.490471,17.49767 8.524156,17.303007 8.547294,17.169272 8.615933,16.849925 8.6356609,16.495268 8.6553919,16.1406 8.5525739,15.906044 8.4786421,15.735217 8.4047101,15.564442 8.3418733,15.557731 8.3418733,15.557731 l -0.061626,0.05683 c 0,0 0.091596,0.107253 0.1524398,0.212554 0.060838,0.105316 0.1079547,0.352116 0.1306678,0.49153 0.022716,0.13941 -0.038095,0.436524 -0.047912,0.597801 -0.0098,0.161289 -0.1092949,0.449881 -0.124132,0.635474 -0.014831,0.185622 0.027811,0.386863 0.085151,0.539877 0.057349,0.153008 0.2095066,0.263078 0.2095066,0.263078 0,0 -0.1113297,0.437894 -0.118693,0.570587 -0.00737,0.132686 0.029044,0.574461 0.033756,0.686437 0.00338,0.07734 0.017297,0.327726 0.028331,0.52812 0.00195,0.164106 0.013825,0.304279 0.022002,0.382631 0.043904,0.420542 -0.1742735,0.776507 -0.6511583,0.746333 -0.4768847,-0.03018 -0.6603357,-0.761151 -0.6167527,-1.062976 0.038939,-0.341178 0.070586,-0.547105 0.1038852,-0.810362 l -0.063593,-0.944728 c 0,0 0.0038,-0.909531 0.00717,-0.981305 -0.1602965,-0.202847 -0.2060732,-0.258642 -0.2691728,-0.564271 -0.0631,-0.30562 0.033166,-0.43597 -0.091034,-1.248745 -0.059248,-0.387707 -0.3040197,-1.152704 -0.3040197,-1.152704 0.117833,-0.05163 0.1849404,-0.135425 0.2349879,-0.304457 0.050044,-0.169043 0.1196081,-0.59281 0.03658,-1.142682 0,0 -0.045984,1.160261 -0.4743243,1.340428 -0.1221459,0.05138 -0.4915855,0.03044 -0.7907569,-0.410729 C 5.3674257,13.3881 6.014667,13.024794 6.3760553,12.373805 6.4901759,12.168225 6.6556679,11.658713 6.7338122,11.340859 6.8198261,10.991001 7.4495271,8.2789906 9.4329681,7.0222982 11.208197,5.8975263 12.934366,6.0019373 13.271759,6.0344639 c -0.02074,0.2060991 -2.63e-4,0.2951213 -0.379591,0.9218465 0.471735,-0.5182221 0.545424,-0.7265506 0.6651,-1.1257 0.06999,-0.2334302 0.284182,-0.3912408 0.535301,-0.497839 0.532716,-0.196714 0.924904,0.2156043 0.924904,0.2156043 0,0 0.773213,-1.0068479 2.089156,-1.2618132 1.315953,-0.2549621 2.931749,0.8539116 2.931749,0.8539116 0,0 1.234388,-1.1595507 1.507897,-1.3839819 0.273511,-0.2244378 1.609172,-0.5893178 1.609172,-0.5893178 z m -2.456116,14.9204727 -0.04638,0.59868 c -0.178894,0.119757 -0.506802,0.306882 -1.069081,0.522674 -0.960065,0.36845 -2.582864,0.824076 -2.582864,0.824076 0,0 1.333986,-0.30318 2.193259,-0.508302 0.575574,-0.137392 1.126171,-0.352759 1.431027,-0.481503 l -0.02723,0.349966 c -0.156243,0.131505 -0.457689,0.250947 -0.844332,0.380457 -0.768949,0.257597 -2.619444,0.693628 -2.619444,0.693628 0,0 2.117867,-0.366925 2.527112,-0.48651 0.254067,-0.07425 0.656513,-0.289417 0.925556,-0.4421 l -0.03203,0.412263 c -0.200196,0.129711 -0.533939,0.285357 -1.091291,0.422927 -1.120281,0.276517 -2.299527,0.631343 -2.299527,0.631343 0,0 1.787373,-0.299388 2.219604,-0.436436 0.292782,-0.09282 0.829423,-0.297688 1.156189,-0.424235 l -0.03287,0.424011 -1.37767,0.666411 -0.0083,0.02482 c -0.259363,0.09861 -1.396668,0.523674 -2.311939,0.732386 -1.032774,0.235504 -1.688713,0.204025 -3.150832,0.381989 -1.4371,0.174925 -4.601276,-0.495636 -4.709691,-0.518748 l -0.0096,-0.03158 -1.2101981,-0.443183 c 0.022554,-0.23847 -0.00841,-0.451985 -0.049434,-0.666843 -0.00672,-0.09444 -0.027552,-0.383884 -0.045079,-0.670976 -0.02025,-0.331646 -0.079647,-0.685827 -0.042687,-0.851517 0.03696,-0.165693 0.1099797,-0.37066 0.1099797,-0.37066 0.1731831,0.07443 0.2890755,0.06808 0.4788968,-0.03135 0.2417346,-0.126638 0.2722232,-0.451683 0.2722232,-0.451683 0,0 0.068201,0.144914 0.1763959,0.231295 0.1082078,0.08637 0.3012025,0.150551 0.4765045,0.181403 0.175306,0.03086 0.338429,-0.03093 0.338429,-0.03093 0,0 0.172492,0.316264 0.334943,0.510249 0.02629,0.04375 0.0542,0.09332 0.08167,0.147442 0.09855,0.194225 0.184376,0.44233 0.152447,0.647018 -0.03435,0.22017 -0.08437,0.330091 -0.126745,0.433824 -0.04237,0.10372 -0.115048,0.299697 -0.09801,0.453412 0.01678,0.151236 0.07756,0.313785 0.191863,0.414217 0.108269,0.09513 0.268939,0.142808 0.412474,0.129798 0.149182,-0.01353 0.308784,-0.08884 0.397228,-0.209727 0.09747,-0.133222 0.102127,-0.322946 0.08777,-0.48739 -0.01373,-0.157252 -0.160141,-0.324529 -0.163331,-0.444488 -0.0038,-0.147961 0.05505,-0.332165 0.09996,-0.449933 0.45326,0.112495 0.959105,0.133757 1.357417,0.06817 0.391955,-0.06753 0.636065,-0.261709 1.108277,-0.441873 0.472208,-0.180153 1.49767,-0.559166 1.935185,-0.583651 1.133413,-0.06343 2.159554,-0.06193 3.260591,-0.117382 0.660131,-0.03325 1.056032,-0.123065 1.47632,-0.277883 0.392367,-0.144544 0.68852,-0.376115 0.747203,-0.423596 z m -1.648807,3.383856 -0.01347,0.04029 -0.152664,0.481723 c -0.117216,0.104025 -0.600257,0.532696 -0.698415,0.619589 -0.110099,0.09751 -0.185122,0.06834 -0.30228,-0.01048 -0.11464,-0.07711 -0.640342,-0.595769 -0.663136,-0.618275 0.792383,-0.208338 1.60068,-0.444403 1.829998,-0.512864 z m -10.064877,0.506335 0.694936,0.06904 c 0,0 0.691895,0.179177 1.577152,0.288997 -0.06957,0.01636 -0.154614,0.0456 -0.239771,0.09821 -0.198616,0.122675 -0.436661,0.309536 -0.482165,0.349975 -0.04551,0.04041 0.0092,0.146069 0.03831,0.172261 0.02911,0.02622 0.433473,0.592294 0.550985,0.686012 0.117505,0.0937 0.329264,0.192472 0.490654,0.192732 0.161387,0 0.450284,-0.08279 0.68448,-0.275056 0.234196,-0.192262 0.649601,-0.466036 0.798815,-0.602163 0.149214,-0.136132 0.207546,-0.164765 0.12457,-0.257633 -0.07434,-0.08318 -0.313489,-0.241306 -0.364783,-0.274835 1.088364,0.01136 2.20979,-0.03806 2.879914,-0.11107 0.290633,-0.03164 0.812626,-0.157094 1.351539,-0.296621 l 0.236721,0.27615 c 0,0 0.472212,0.431316 0.62176,0.487166 0.149552,0.05587 0.210685,0.05445 0.355635,-0.08776 0.09936,-0.09749 0.346048,-0.304082 0.493052,-0.425754 l -0.529639,1.671237 c -0.06534,0.02538 -0.154429,0.06831 -0.275929,0.137853 -0.503437,0.288147 -0.879925,0.618174 -1.108059,0.870024 -0.228134,0.251853 -0.276419,0.312454 -0.326885,0.364783 -0.05046,0.05233 -0.09454,0.06247 0.09473,0.240868 0.164016,0.154588 0.663818,0.561954 0.847597,0.716705 -0.05008,0.116901 -0.176107,0.402615 -0.324926,0.600854 -0.05555,0.07398 -0.111472,0.127536 -0.164859,0.172265 v -0.03266 c -0.290565,-0.274131 -0.674809,-0.60456 -0.882661,-0.649419 -0.09067,-0.0196 -0.18311,-0.02869 -0.277233,-0.02742 -0.282362,0.0016 -0.475422,0.149818 -0.783569,0.262209 -0.410865,0.14985 -0.731954,0.773989 -0.731954,0.773989 0,0 0.163013,0.183198 0.367827,0.38133 l -0.391131,0.176396 -1.783394,0.07252 c -0.04642,-0.181023 -0.133186,-0.420457 -0.287466,-0.552722 -0.202072,-0.173225 -0.306414,-0.340826 -0.52049,-0.422492 -0.07122,-0.02762 -0.144188,-0.04717 -0.218655,-0.05815 -0.0093,-0.0013 -0.01931,-0.0019 -0.02982,-0.0026 h -0.0233 c -0.217405,0.0044 -0.629448,0.168952 -0.910096,0.291604 l -0.05597,-0.04814 -0.466701,-1.367214 c 0.186063,-0.228484 0.730672,-0.904601 0.791847,-1.068422 0.07377,-0.197548 -0.04249,-0.460821 -0.297487,-0.655079 -0.242452,-0.184706 -0.99181,-0.587396 -1.065813,-0.626984 z m 2.4927,0.381554 c 0.226099,0.02401 0.458449,0.04434 0.695806,0.05358 0.19611,0.0076 0.401005,0.0083 0.603684,0.01116 0.02045,0.0147 0.353973,0.254715 0.370442,0.288339 0.01697,0.03468 0.04472,0.07866 -0.275926,0.322306 -0.320651,0.243659 -0.700657,0.514964 -0.894856,0.615016 -0.194193,0.10005 -0.453876,0.166755 -0.663354,0.02635 -0.209484,-0.140403 -0.46428,-0.395521 -0.566663,-0.585822 -0.102379,-0.190292 -0.211548,-0.189831 -0.101487,-0.28943 0.110064,-0.09959 0.260258,-0.263312 0.442096,-0.327102 0.128014,-0.04491 0.299175,-0.09085 0.390258,-0.114335 z m 4.045247,0.199927 c -0.07929,-0.0013 -0.159781,0.0057 -0.241297,0.01872 -0.326051,0.05006 -0.548834,0.254183 -0.904657,0.436657 -0.474437,0.24325 -0.845418,1.018978 -0.845418,1.018978 0,0 0.48502,0.479433 0.886581,0.707129 0.234293,0.132845 0.463946,0.309276 0.70212,0.382209 -0.218622,-0.127267 -0.928126,-0.675861 -1.119605,-0.807745 -0.208906,-0.143883 -0.310118,-0.307505 -0.310118,-0.307505 0,0 0.418238,-0.737325 0.832572,-0.988283 0.220112,-0.133316 0.366545,-0.265544 0.610213,-0.301631 0.215011,-0.032 0.411955,-0.03396 0.542707,-0.02002 0.278944,0.02982 1.236001,0.893429 1.262466,0.915976 0,0 0.05178,0.128932 -0.04355,0.250445 -0.09533,0.121507 -0.797591,0.760807 -1.167514,1.057973 -0.165762,0.13317 -0.268823,0.201588 -0.344092,0.232375 0.08644,-0.0076 0.174362,-0.03468 0.264601,-0.08755 0.440165,-0.257928 1.164545,-0.909382 1.345442,-1.141164 0.180906,-0.231768 0.06773,-0.393963 0.06773,-0.393963 0,0 -1.040514,-0.941185 -1.459339,-0.969551 -0.02619,-0.0016 -0.0524,-0.0029 -0.07884,-0.0029 z m -0.139596,2.595274 c -0.08918,0.0079 -0.17673,-0.0051 -0.263075,-0.03158 0.01989,0.01162 0.03628,0.01999 0.04725,0.02395 0.07275,0.02625 0.123109,0.04554 0.215821,0.0076 z m -5.904643,-1.547102 c 0.20163,0.109873 0.626362,0.343303 0.839973,0.475191 0.286071,0.17661 0.430628,0.450829 0.435558,0.569486 0.0049,0.118674 -0.05341,0.270919 -0.137201,0.364559 -0.07422,0.08296 -0.520876,0.624051 -0.626767,0.752434 l -0.03418,-0.100182 c 0,0 0.123195,-0.720223 0.03025,-1.231974 -0.09292,-0.511754 -0.485212,-0.755478 -0.485212,-0.755478 z m 8.700273,0.56273 -0.197964,0.449933 c 0,0 -0.389654,0.64263 -0.484991,0.901607 -0.09534,0.258986 0.04465,0.653563 0.04465,0.653563 0,0 -0.0059,0.01308 -0.0061,0.01369 -0.05092,-0.01681 -0.114205,-0.05384 -0.185326,-0.130236 -0.183468,-0.197071 -0.475477,-0.450595 -0.558388,-0.526805 -0.08291,-0.07622 -0.142377,-0.182815 -0.05009,-0.287904 0.09228,-0.105099 0.665973,-0.655747 0.931222,-0.823641 0.150415,-0.0952 0.356492,-0.187848 0.506988,-0.25023 z m -5.220599,0.568406 c -0.07826,0.0013 -0.155107,0.0097 -0.230847,0.02612 -0.34622,0.07472 -1.206499,0.980221 -1.206499,0.980221 0,0 -0.09357,0.147854 0.05597,0.317309 0.149545,0.169451 0.748339,0.619215 1.1122,0.778554 0.07444,0.03262 0.147124,0.04426 0.218431,0.04008 -0.06219,-0.01629 -0.147267,-0.06047 -0.283984,-0.150048 -0.305798,-0.200374 -0.886393,-0.64275 -0.965196,-0.731529 -0.07881,-0.08878 -0.03595,-0.201663 -0.03595,-0.201663 0.02187,-0.02187 0.813009,-0.853019 1.043597,-0.911838 0.108087,-0.02755 0.270889,-0.04999 0.448628,-0.04988 0.20143,0 0.322417,0.0914 0.504372,0.174663 0.342511,0.156737 0.688186,0.714979 0.688186,0.714966 0,0 -0.08342,0.14775 -0.256111,0.292259 -0.158181,0.132375 -0.744182,0.672041 -0.925345,0.804484 0.196779,-0.08949 0.386587,-0.263367 0.580167,-0.401801 0.331947,-0.237389 0.732823,-0.692979 0.732823,-0.692979 0,0 -0.306661,-0.595672 -0.698849,-0.738707 -0.294148,-0.107277 -0.47832,-0.248761 -0.747853,-0.250224 z m 0.167472,2.083711 c -0.07162,0.03258 -0.14423,0.05423 -0.218217,0.05859 0.07691,0.02018 0.118553,-0.0019 0.178794,-0.03266 0.0092,-0.0047 0.02278,-0.01373 0.0394,-0.02593 z m 2.594618,-0.387649 c 0.1862,0 0.356735,0.02317 0.469969,0.05205 0.142153,0.03628 0.483622,0.350205 0.748508,0.60913 -0.08733,0.06043 -0.152667,0.08602 -0.152667,0.08602 0,0 -0.61747,0.344312 -0.946465,0.463426 -0.285466,0.103379 -0.851227,0.102506 -1.016596,0.101056 -0.02616,-0.02291 -0.06626,-0.05908 -0.08363,-0.07362 -0.180916,-0.151386 -0.268523,-0.306194 -0.268523,-0.306194 0,0 0.362258,-0.584957 0.721069,-0.749154 0.190617,-0.08723 0.317309,-0.182721 0.528331,-0.182721 z m -4.336416,0.608484 c 0.01168,-0.0013 0.0221,-0.0013 0.03115,0 0.09425,0.01035 0.230533,0.04113 0.371965,0.0943 0.160319,0.06016 0.22937,0.169026 0.349316,0.28964 0.136863,0.137629 0.230049,0.391845 0.282679,0.571677 -0.01113,-0.007 -0.601792,-0.377685 -0.99242,-0.496758 -0.394317,-0.120199 -0.757221,-0.13415 -0.757221,-0.13415 l -0.05662,-0.04857 c 0.261201,-0.117059 0.61815,-0.266906 0.771161,-0.276577 z m 5.624798,0.811004 c -0.0043,0.0034 -0.0085,0.0068 -0.01285,0.01025 h 0.01285 z"
         sodipodi:nodetypes="cscscsscsccsscssscsscccssscccsssccccscsscsssscsccsscccccscsscscsssscsscccccccccccssssssccsscsssscccccccscssccssscsssssccssssscsscssccccsscscsssssccsccscsccccscsccscsccscsccccssccccsscscssccsssssssssccsssssccccsscsccccsssscssscsccssccsssscsccscsccccscscccccssccsscsssssssssscscscscscccsscsscsssscscscsssccsccccsccsssssccccsscsscscscscscsccccscssccscscsscccscscccccccc" />
      <path
         style="display:inline;fill:#201c1d;fill-opacity:1;stroke:none;stroke-width:0.111503px;stroke-linecap:butt;stroke-linejoin:miter;stroke-opacity:1"
         d="m 15.002779,5.4409727 c 0,0 -0.197461,0.2334756 -0.253703,0.3435494 -0.05625,0.1100868 -0.222046,0.5406886 -0.222046,0.5406886 0,0 -0.145262,-0.2762603 -0.157434,-0.3314091 -0.01217,-0.055149 -0.102403,-0.1486203 -0.182818,-0.076583 -0.08042,0.072043 -0.05419,0.1712035 -0.05419,0.1712035 0,0 0.356595,0.9621714 0.642146,1.3824405 0.503362,0.7408327 1.124882,1.422366 1.848688,1.9499245 0.912331,0.6649759 1.951858,1.2176259 3.053164,1.4659749 0.758032,0.170937 1.899296,-0.01921 2.33118,-0.0095 0.431884,0.0098 0.675221,-0.05095 0.675221,-0.05095 0,0 0.09368,-0.0158 0.08148,-0.07404 -0.01217,-0.05825 -0.130035,-0.0247 -0.130035,-0.0247 l -0.333194,0.0069 C 22.511386,10.490669 22.660662,10.200205 22.8106,9.9102434 L 22.79882,9.7289019 c 0,0 -0.181193,0.4203661 -0.302878,0.6131151 -0.0905,0.143353 -0.314803,0.399451 -0.314803,0.399451 0,0 -1.420867,0.118946 -2.106885,-0.03174 C 18.941778,10.460956 17.864246,9.9351535 16.894468,9.2996111 16.23079,8.8646608 15.621657,8.3209055 15.141121,7.6894488 14.883391,7.350764 14.55941,6.5528644 14.55941,6.5528644 c 0,0 0.154183,-0.4485704 0.240765,-0.5940006 0.08659,-0.1454367 0.263909,-0.4491676 0.263909,-0.4491676 z"
         id="path204-6"
         sodipodi:nodetypes="cscsscaaaccsccccacaaacscc" />
      <path
         style="display:inline;fill:#201c1d;fill-opacity:1;stroke:none;stroke-width:0.111503px;stroke-linecap:butt;stroke-linejoin:miter;stroke-opacity:1"
         d="m 20.032608,5.1074088 c 0,0 -0.149567,0.3854871 -0.278275,0.8043023 -0.128711,0.4188152 -0.200842,1.0225482 -0.200842,1.0225482 0,0 0.219787,-0.4387959 0.361317,-0.6380834 0.162302,-0.2285396 0.554354,-0.6323231 0.554354,-0.6323231 l 0.217175,0.023885 c 0,0 -0.466396,0.3088648 -0.643776,0.5201725 -0.187277,0.2230909 -0.285077,0.4688204 -0.423131,0.7645551 -0.02648,0.056681 -0.0373,0.1395532 -0.121708,0.1428308 -0.08445,0.00338 -0.04147,-0.2415789 -0.03709,-0.3860647 0.0044,-0.1444956 0.198843,-0.8747393 0.268589,-1.0490647 0.06975,-0.1743222 0.260336,-0.6092953 0.260336,-0.6092953 z"
         id="path5545-7"
         sodipodi:nodetypes="cscaccascsscc" />
      <path
         style="display:inline;fill:#201c1d;fill-opacity:1;stroke:none;stroke-width:0.111503px;stroke-linecap:butt;stroke-linejoin:miter;stroke-opacity:1"
         d="m 7.4212193,17.455966 c 0,0 0.1061341,0.107475 0.2365261,0.192833 0.1303952,0.08537 0.2351566,0.08659 0.2351566,0.08659 0,0 -0.015739,-0.408301 -0.092628,-0.658022 C 7.723402,16.827633 7.4904454,16.206772 7.4904454,16.206772 l 0.094769,-0.05034 c 0,0 0.2696725,0.788102 0.3040131,0.920402 0.034347,0.132307 0.1239633,0.533099 0.1049529,0.749245 -0.019017,0.216159 -0.015123,0.497141 -0.08126,0.834596 -0.06614,0.337452 -0.5098819,1.251377 -0.5098819,1.251377 l 0.013273,-0.286123 c 0,0 0.235121,-0.489719 0.3181915,-0.734699 0.08307,-0.24499 0.1496814,-0.420542 0.1398225,-0.701923 -0.00987,-0.281378 -0.023885,-0.326301 -0.023885,-0.326301 0,0 -0.1632691,-0.115928 -0.2403684,-0.15365 C 7.5329731,17.671636 7.367591,17.498314 7.367591,17.498314 Z"
         id="path13769-5"
         sodipodi:nodetypes="cscsccsssccsscscc" />
      <path
         id="path1200"
         style="fill:#4d4d4d;fill-opacity:0.36741;stroke:none;stroke-width:0.0858624px;stroke-linecap:butt;stroke-linejoin:miter;stroke-opacity:1"
         d="m 14.089687,14.563563 -0.444406,0.01325 -0.527919,0.213145 -0.365587,0.366933 -0.05769,0.08032 0.25742,0.405331 c 0.06849,-0.336357 0.383868,-0.499204 0.840091,-0.646596 0.391601,-0.126527 1.734608,-0.268208 1.734608,-0.268208 l -0.511485,-0.09441 z m -2.165512,2.093233 -0.02717,0.05484 -0.205601,0.683543 0.174577,0.35687 0.363909,0.236791 0.147073,0.02951 c 0,0 -0.183255,-0.318086 -0.136005,-0.588793 0.01083,-0.06199 0.106296,-0.411333 0.207277,-0.756998 z"
         sodipodi:nodetypes="ccccccscccccccccscc" />
      <path
         id="path208-3"
         style="color:#000000;display:inline;fill:#000000;stroke-width:0.421428;-inkscape-stroke:none"
         d="m 20.274856,13.963409 c -0.04369,-0.0013 -0.09045,0.0016 -0.140686,0.0087 -0.769709,0.103603 -1.307866,0.325974 -1.972862,0.498712 -0.660861,0.171681 -1.39633,0.308015 -2.507507,0.197753 -1.095741,-0.108753 -1.190075,-0.177493 -1.609608,-0.185551 -0.170103,-0.0034 -0.596976,-0.01785 -0.932747,0.216903 -0.510323,0.356698 -0.539643,0.738285 -0.69036,0.950397 -0.120559,0.169653 -0.244328,0.441263 -0.372837,0.684036 -0.128494,0.242773 -0.240022,0.465211 -0.270046,0.605862 -0.02502,0.117255 -0.185859,0.406048 -0.137635,0.640708 0.0482,0.234654 0.318473,0.409317 0.761573,0.500893 0.863592,0.178482 1.306288,0.125037 1.574543,0.126744 1.258597,0.04037 2.67615,-0.524936 3.770625,-0.70212 0.292444,-0.04734 1.57884,-0.03064 1.934315,-0.130227 0.18065,-0.05061 0.688095,-0.19709 1.0669,-0.358682 0.322563,-0.132378 0.509701,-0.210986 0.796852,-0.371974 0.185826,-0.104174 0.08474,-0.52307 0.05902,-0.688173 -0.04749,-0.297 -0.08805,-0.602117 -0.207111,-0.878309 -0.134744,-0.312564 -0.206959,-0.552585 -0.561649,-0.852607 -0.102325,-0.08655 -0.254992,-0.257873 -0.560783,-0.263081 z m 0.076,0.175535 c 0.195832,-0.0019 0.320304,0.04608 0.445144,0.142857 0.03158,0.0245 0.442583,0.62384 0.555116,0.841716 0.133586,0.350877 0.163221,0.486053 0.187073,0.834532 0.0087,0.152177 0.09871,0.43435 0.01869,0.479552 -0.101162,0.05718 -0.215935,0.106705 -0.33407,0.152226 -0.0034,-0.107825 -0.01846,-0.56153 -0.03333,-0.666187 -0.01678,-0.118249 -0.130242,-0.582905 -0.243694,-0.779217 -0.113459,-0.196308 -0.586871,-0.714118 -0.859357,-0.866321 -0.06708,-0.03747 -0.115049,-0.06603 -0.149396,-0.08799 0.07405,-0.01314 0.140961,-0.02476 0.191427,-0.03203 0.08378,-0.01204 0.157078,-0.0184 0.222355,-0.01918 z m -0.564047,0.07927 c 0.167932,0.08127 0.567701,0.295225 0.866545,0.616097 l -0.201666,0.364786 c 0,0 -0.289991,0.343384 -0.384816,0.354755 -0.09481,0.01136 -0.718888,-0.432945 -0.718888,-0.432945 l -0.02681,0.04988 c 0.01464,-0.138655 0.03861,-0.733869 0.04378,-0.866335 0.152001,-0.03229 0.296873,-0.06212 0.421836,-0.08624 z m -0.473886,0.09757 c 0.0034,0.0435 0.0088,0.102136 0.01678,0.141777 0.01366,0.06738 -0.04843,0.649104 -0.06402,0.748507 -0.01561,0.09941 -0.176137,0.377069 -0.379591,0.4826 -0.203451,0.10553 -0.809043,0.198726 -0.973688,0.211236 -0.12348,0.0093 -0.348054,0.01184 -0.452546,0.01243 0.07695,-0.04676 0.142071,-0.0936 0.166381,-0.135899 0.04989,-0.08679 0.129418,-0.285973 0.144392,-0.411601 0.01496,-0.125622 -0.0087,-0.448626 -0.0087,-0.448626 l -0.01655,-0.231726 c 0.153644,-0.03312 0.301674,-0.06885 0.44405,-0.105836 0.341846,-0.0888 0.754563,-0.183821 1.123522,-0.262857 z m 1.118077,0.0026 c 0,0 0.560555,0.491342 0.69232,0.834758 0.131761,0.343426 0.271353,1.135711 0.271353,1.135711 0,0 -0.06032,-0.820414 -0.238904,-1.178843 C 20.977179,14.75164 20.431,14.318384 20.431,14.318384 Z m -6.585856,0.321663 c 0.05471,-0.0013 0.104557,0.0013 0.148744,0.0019 0.314268,0.006 0.474025,0.03038 1.013108,0.0895 l -0.08276,0.602821 c 0,0 -0.17477,0.478618 -0.276364,0.573627 -0.101598,0.09501 -0.747752,0.603587 -0.824945,0.612395 -0.07719,0.0088 -0.06251,-0.01785 -0.06251,-0.01785 -0.412419,-0.338993 -0.71564,-0.790692 -1.013325,-1.248307 0.104138,-0.125163 0.245593,-0.247202 0.495447,-0.421843 0.230516,-0.161098 0.438465,-0.189587 0.602597,-0.192297 z m 3.859917,0.05335 c 0.01087,0.14113 0.04225,0.592962 0.0085,0.753946 -0.04016,0.191509 -0.159524,0.316829 -0.323838,0.421629 -0.164304,0.104794 -0.419246,0.282559 -1.019202,0.328635 -0.599952,0.04607 -1.171165,0.01132 -1.331069,0 -0.132037,-0.0093 -0.36895,-0.119388 -0.448408,-0.157902 0.04415,-0.03321 0.09201,-0.06846 0.130453,-0.09843 0.291588,-0.227323 0.246022,-0.548662 0.264818,-0.689056 0.01736,-0.129525 0.06824,-0.460149 0.07666,-0.514818 0.160641,0.01749 0.337955,0.03658 0.577116,0.06032 0.863735,0.08571 1.510324,0.01227 2.064983,-0.104323 z m 3.010578,0.211032 c 0.07161,0.08511 0.135373,0.17684 0.185544,0.275056 0.24459,0.478767 0.265421,1.070071 0.262209,1.334989 -0.02291,-0.09572 -0.06822,-0.285983 -0.09168,-0.389612 -0.02259,-0.09981 -0.146897,-0.117745 -0.218434,-0.119566 2.63e-4,-0.0043 0.0034,-0.01691 0.0034,-0.02002 -0.0013,-0.08001 -0.126874,-0.348391 -0.163551,-0.373051 -0.03666,-0.0247 -0.08746,-0.0637 -0.25001,-0.03203 -0.137071,0.02671 -0.444861,0.153361 -0.538784,0.192745 -0.02749,-0.02184 -0.06207,-0.02158 -0.06207,-0.02158 0,0 -0.05615,-0.01791 -0.209286,-0.01743 -0.05104,0 -0.11291,0.0019 -0.187072,0.0078 -0.259557,0.0196 -0.55893,0.180102 -0.636133,0.22671 0.0079,-0.05025 0.02369,-0.146002 0.02635,-0.163341 0.135185,-0.06068 0.248426,-0.132154 0.295524,-0.176399 0.08018,-0.07532 0.171576,-0.318474 0.18751,-0.43164 2.6e-4,-0.0019 6.49e-4,-0.01058 0.0013,-0.01308 0.01412,0.0096 0.545888,0.372331 0.572544,0.387434 0.027,0.01532 0.17303,0.11179 0.263734,0.03527 0.08887,-0.07498 0.540893,-0.678116 0.559037,-0.702335 z m -8.026904,0.426632 c 0.04322,0.06009 0.48038,0.668582 0.512867,0.739577 0.0234,0.05111 0.210756,0.249543 0.35041,0.385461 -0.09569,0.03245 -0.288375,0.100202 -0.375015,0.148527 -0.117557,0.06558 -0.245226,0.172203 -0.27527,0.254368 -0.01003,0.02749 -0.0088,0.08159 -0.0044,0.142422 l -0.126965,-0.0013 c 0.01574,-0.180638 -0.0597,-0.278808 -0.155932,-0.36108 -0.121351,-0.103733 -0.57648,-0.08308 -0.596934,-0.0821 0.03164,-0.06419 0.06546,-0.130798 0.101704,-0.199272 0.127387,-0.240654 0.258415,-0.479172 0.357812,-0.665103 0.07935,-0.148435 0.138667,-0.259453 0.211681,-0.361725 z m 7.888396,0.300308 c 0.02781,0.0026 0.05229,0.0085 0.07209,0.01827 0.181283,0.09011 0.09155,0.85815 0.01217,0.971949 -0.07937,0.113796 -0.179067,0.255066 -0.297708,0.09321 -0.118635,-0.161854 -0.471495,-0.515476 -0.471495,-0.515476 l -0.01457,0.05401 c 0,0 0.402027,0.433211 0.454285,0.491738 0.05226,0.05852 0.101766,0.113299 0.160504,0.0895 0.05874,-0.02375 0.168922,-0.09071 0.196873,-0.171391 0.02304,-0.06658 0.118729,-0.418069 0.152229,-0.588221 0.0459,0.01136 0.123843,0.03291 0.164424,0.05727 0.05975,0.03591 0.09038,0.29727 0.09038,0.29727 l 0.03788,0.193177 c -0.204632,0.07473 -0.413435,0.140163 -0.57842,0.210587 -0.377543,0.161056 -0.790219,0.327839 -0.950823,0.372844 -0.212515,0.05952 -0.811455,0.117949 -1.290345,0.169217 0.06917,-0.120669 0.321449,-0.562925 0.357598,-0.659664 0.01399,-0.0375 0.03776,-0.160806 0.0625,-0.298571 l 0.05401,0.09823 c 0,0 0.346175,0.361648 0.435557,0.45298 0.08938,0.09132 0.25578,0.190198 0.329284,0.140248 0.0735,-0.04995 0.148931,-0.179489 0.165073,-0.246748 0.01613,-0.06725 0.227066,-0.938618 0.218217,-1.025301 -0.0016,-0.01626 -0.0066,-0.02856 -0.01266,-0.03919 0.09829,-0.04084 0.458316,-0.183655 0.652901,-0.165949 z m -0.839318,0.177057 c 0.07095,0 0.117119,0.0034 0.124787,0.0124 0.01752,0.02038 -0.0092,0.181105 -0.04377,0.381986 -0.03464,0.200874 -0.08363,0.341913 -0.08363,0.341913 0,0 -0.02255,0.443895 -0.14199,0.490012 -0.119417,0.04612 -0.178541,0.09151 -0.272447,-0.02288 -0.0939,-0.11438 -0.477518,-0.461677 -0.515698,-0.542921 -0.03818,-0.08136 -0.049,-0.122827 -0.049,-0.122827 l -0.0038,-0.02833 c 0.02126,-0.123145 0.03206,-0.189957 0.04792,-0.289426 l 0.06707,0.0042 c 0,0 0.24727,-0.184438 0.50307,-0.204931 0.143885,-0.01155 0.276176,-0.01876 0.367392,-0.01918 z m -0.975652,0.0281 c -0.01191,0.07582 -0.10886,0.690347 -0.133939,0.756348 -0.02586,0.06814 -0.331928,0.745967 -0.350186,0.786395 -0.07313,0.0079 -0.15169,0.01626 -0.215818,0.02372 -0.03751,-0.03057 -0.259201,-0.212424 -0.448626,-0.39657 -0.103554,-0.100676 -0.225817,-0.328209 -0.325143,-0.534435 6.49e-4,0 0.0034,0.0013 0.0034,0.0013 l -0.007,-0.0087 c -0.07979,-0.166274 -0.145557,-0.319042 -0.165297,-0.36673 0.03333,-0.01389 0.06434,-0.02794 0.08973,-0.04269 0.03359,-0.01947 0.07333,-0.04206 0.111502,-0.06316 0.04164,0.0088 0.142584,0.0233 0.362819,0.02502 0.32082,0.0026 0.601725,-0.06818 0.849992,-0.11282 0.07642,-0.01373 0.154332,-0.03839 0.228672,-0.0675 z m -4.222302,0.241728 c 0.03953,0.01606 0.243218,0.09815 0.413127,0.161812 0.0019,0.02272 0.0059,0.05952 0.01548,0.114338 0.01045,0.05988 0.06411,0.22054 0.13219,0.392435 -0.02807,0.0013 -0.06444,0.0069 -0.104313,0.022 -0.04054,0.01535 -0.07125,0.03206 -0.09277,0.04595 -0.06628,-0.12124 -0.159164,-0.236286 -0.246748,-0.320573 -0.138388,-0.133157 -0.413072,-0.132777 -0.512871,-0.127838 0.120092,-0.08598 0.262724,-0.188932 0.395924,-0.288125 z m 2.52558,0.04008 c 0.009,0.01889 0.07845,0.164635 0.127621,0.267654 -0.03654,-0.0096 -0.09306,-0.01834 -0.145476,-0.0013 -0.05198,0.01694 -0.122571,0.03102 -0.170736,0.03966 -0.0095,-0.09309 -0.02333,-0.190493 -0.03073,-0.239129 0.07954,-0.02051 0.153777,-0.04301 0.219301,-0.06686 z m -0.307716,0.08843 c 0.0079,0.08104 0.02924,0.306366 0.03025,0.36673 0.0013,0.07348 -0.122435,0.533935 -0.168562,0.699515 -0.04294,0.154121 -0.116811,0.427201 -0.127618,0.46713 -0.12357,0.02859 -0.247592,0.05572 -0.371532,0.08254 -0.05715,-0.03076 -0.16115,-0.0945 -0.350845,-0.224097 -0.384234,-0.262488 -0.617992,-1.120943 -0.664444,-1.30515 0.02197,0.007 0.05253,0.01808 0.0649,0.02067 0.107825,0.02285 0.579131,0.0026 0.775945,-0.0052 0.196815,-0.0078 0.27788,-0.0043 0.550545,-0.04944 0.08739,-0.01451 0.175292,-0.03283 0.261339,-0.0527 z m 0.265905,0.228446 c 0.05573,-0.0013 0.144713,0.01369 0.204711,0.02483 0.07034,0.147393 0.12603,0.263792 0.168344,0.352795 0.07388,0.155409 0.440295,0.498786 0.554682,0.603911 -0.09483,0.01197 -0.177483,0.02359 -0.224746,0.03418 -0.390293,0.08738 -0.773152,0.181537 -1.156189,0.270919 l 0.03485,-0.06295 c 0,0 0.267027,-0.9421 0.279628,-1.048607 0.0034,-0.02765 0.0013,-0.0729 -0.0026,-0.122386 0.02927,-0.02106 0.07685,-0.04887 0.128702,-0.05227 h 0.01266 z m -2.990542,0.01029 c 0.06272,0.0034 0.362541,0.0232 0.4826,0.07971 0.134315,0.0632 0.299749,0.309945 0.353015,0.498705 0.05327,0.188767 -0.04632,0.500718 -0.07687,0.607391 -0.02213,0.07719 -0.07078,0.304178 -0.09626,0.425315 -0.234861,0.02288 -0.473451,0.03764 -0.718019,0.04008 -0.163807,-0.0013 -0.375819,0.01551 -0.687092,-0.0034 -0.01587,-0.0149 -0.03464,-0.03266 -0.0588,-0.05618 -0.06648,-0.06475 -0.06816,-0.165203 -0.120649,-0.253278 -0.0525,-0.08807 -0.117386,-0.583431 -0.117386,-0.583431 l 0.0076,-0.314034 c 0,0 0.141714,-0.127416 0.230412,-0.205801 0.07514,-0.06641 0.313271,-0.141899 0.384815,-0.163551 0.03203,0.02937 0.06455,0.05898 0.07774,0.06708 0.06881,0.04218 0.143519,0.0013 0.189906,-0.03266 0.01191,-0.0086 0.08883,-0.06335 0.148964,-0.106062 z m -2.023168,0.127835 -0.0305,0.121737 c 0,0 0.457858,-0.05579 0.61305,0.09233 0.155211,0.148124 0.03654,0.343822 -0.01003,0.541182 -0.03713,0.157321 -0.184499,0.491982 -0.243474,0.622854 -0.345727,-0.09273 -0.465802,-0.264811 -0.503288,-0.447318 -0.04054,-0.197272 -0.0026,-0.439477 0.02502,-0.568844 0.01564,-0.07321 0.07365,-0.207546 0.149181,-0.361946 z m 3.114898,0.234546 c 0.0318,0.07719 0.06531,0.154342 0.100176,0.22497 0.122726,0.248586 0.469041,0.585145 0.591485,0.662705 0.08016,0.05064 0.178655,0.106786 0.239995,0.141121 -0.423731,0.09031 -0.851539,0.16725 -1.293389,0.213637 0.05539,-0.19145 0.204808,-0.717009 0.228449,-0.893327 0.01256,-0.09355 -0.01759,-0.199145 -0.06817,-0.302284 0.01736,-0.01266 0.0473,-0.02499 0.09822,-0.03287 0.04363,-0.0068 0.07724,-0.01103 0.10323,-0.01395 z m -2.362688,0.254807 0.142425,0.02048 c 0.0124,0.103986 0.03158,0.216847 0.04181,0.288988 0.01973,0.138774 0.09658,0.393171 0.09691,0.415083 2.6e-4,0.01684 0.09313,0.209354 0.136545,0.298581 -0.203253,-0.01694 -0.445131,-0.04935 -0.741313,-0.109983 0.05505,-0.139583 0.213862,-0.546124 0.294219,-0.796423 0.0136,-0.04236 0.02278,-0.08068 0.0294,-0.11672 z" />
      <path
         style="fill:#f5f1e8;fill-opacity:1;stroke:none;stroke-width:0.111503px;stroke-linecap:butt;stroke-linejoin:miter;stroke-opacity:1"
         d="M 12.227568,6.4070026 C 11.804152,6.3256942 11.350577,6.4121949 10.942033,6.5500054 10.046852,6.8519482 9.1632047,7.3234102 8.5109009,8.0067998 7.9740773,8.5692149 7.5718548,9.3014966 7.4063822,10.061174 c -0.063246,0.290358 -0.2369901,0.848775 0.057349,0.889645 0.2698121,0.03747 0.150298,-0.52702 0.2727717,-0.770335 C 8.0765509,9.5049347 8.442265,8.8053289 9.0032879,8.2981307 9.6828676,7.683747 10.578224,7.347548 11.426125,7.0006106 11.823249,6.8381171 12.617479,7.0653847 12.661409,6.6385571 12.678187,6.4754925 12.38853,6.4379196 12.227546,6.4070026 Z"
         id="path94364"
         sodipodi:nodetypes="aaaaaaaaaaa" />
      <path
         style="fill:#f5f1e8;fill-opacity:1;stroke:none;stroke-width:0.111503px;stroke-linecap:butt;stroke-linejoin:miter;stroke-opacity:1"
         d="m 14.664123,5.4760273 c 0,0 -0.237837,-0.1484222 -0.430676,-0.063346 -0.192836,0.085079 -0.326022,0.042519 -0.423313,0.2170744 -0.09729,0.1745591 -0.237425,0.3903484 -0.236345,0.486497 0.0013,0.096149 -0.05118,0.075246 0.160086,0.1098175 0.211262,0.034561 0.179904,-0.085186 0.221452,-0.2134593 0.04155,-0.1282631 0.186758,-0.2866059 0.303117,-0.2806088 0.116354,0.00604 0.237912,0.2142024 0.237912,0.2142024 z"
         id="path99469" />
      <path
         style="display:inline;fill:#f5f1e8;fill-opacity:1;stroke:none;stroke-width:0.0903748px;stroke-linecap:butt;stroke-linejoin:miter;stroke-opacity:1"
         d="m 6.2821393,12.967731 c -0.2214716,-0.07426 -0.5283763,0.313891 -0.4685543,0.546186 0.028266,0.109882 0.2116062,0.15621 0.3188599,0.11917 0.1155582,-0.03991 0.1649631,-0.193612 0.1911096,-0.313035 0.02528,-0.115513 0.065167,-0.316585 -0.041428,-0.352321 z"
         id="path119965"
         sodipodi:nodetypes="aaaaaa" />
      <path
         style="display:inline;fill:#f5f1e8;fill-opacity:1;stroke:none;stroke-width:0.0903748px;stroke-linecap:butt;stroke-linejoin:miter;stroke-opacity:1"
         d="m 8.6000594,17.503521 c -0.041256,0.09217 -0.00432,0.270815 0.095302,0.287603 0.090145,0.01522 0.1170088,-0.141014 0.1668388,-0.217653 0.035149,-0.05408 0.1157042,-0.109658 0.092592,-0.16986 -0.018595,-0.04816 -0.094971,-0.05888 -0.14605,-0.05145 -0.085031,0.01233 -0.1902529,0.06741 -0.2086629,0.151346 -0.023593,0.107497 -1.29e-5,4e-6 -1.29e-5,7e-6 z"
         id="path122456"
         sodipodi:nodetypes="aaaaasa" />
      <path
         style="display:inline;fill:#f5f1e8;fill-opacity:1;stroke:none;stroke-width:0.153638px;stroke-linecap:butt;stroke-linejoin:miter;stroke-opacity:1"
         d="m 7.499237,19.895863 c -0.08322,0.150172 -0.046367,0.458108 0.11991,0.500922 0.150496,0.03877 0.2185607,-0.221965 0.3140279,-0.344584 0.067338,-0.08654 0.2118139,-0.169043 0.1813577,-0.274359 -0.024696,-0.08418 -0.1523651,-0.113445 -0.2399627,-0.108237 -0.1458131,0.0087 -0.33199,0.08671 -0.3752907,0.226242 -0.05547,0.178677 -1.95e-5,0 -2.27e-5,7e-6 z"
         id="path123074"
         sodipodi:nodetypes="aaaaasa" />
      <path
         style="display:inline;fill:#f5f1e8;fill-opacity:1;stroke:none;stroke-width:0.0903748px;stroke-linecap:butt;stroke-linejoin:miter;stroke-opacity:1"
         d="m 11.144439,20.198468 c -0.04126,0.09218 -0.0043,0.270822 0.0953,0.287606 0.09014,0.01519 0.117008,-0.141014 0.166838,-0.217649 0.03515,-0.05409 0.115701,-0.109662 0.09259,-0.169863 -0.0186,-0.04816 -0.09497,-0.05888 -0.14605,-0.05145 -0.08503,0.01233 -0.190256,0.06741 -0.208663,0.151346 -0.02359,0.107501 -1.3e-5,7e-6 -1.3e-5,1.3e-5 z"
         id="path123076"
         sodipodi:nodetypes="aaaaasa" />
      <path
         style="display:inline;fill:#f5f1e8;fill-opacity:1;stroke:none;stroke-width:0.0889875px;stroke-linecap:butt;stroke-linejoin:miter;stroke-opacity:1"
         d="m 22.449633,15.926346 c -0.04037,0.09132 -0.0042,0.26831 0.09326,0.284935 0.08822,0.01509 0.114507,-0.139702 0.163275,-0.21563 0.03439,-0.05358 0.113222,-0.108646 0.09061,-0.168286 -0.01817,-0.04771 -0.09294,-0.05834 -0.142928,-0.05098 -0.0832,0.01224 -0.18618,0.06678 -0.204194,0.149944 -0.02314,0.106504 -1.3e-5,4e-6 -1.3e-5,7e-6 z"
         id="path123078"
         sodipodi:nodetypes="aaaaasa" />
      <path
         style="fill:#f5f1e8;fill-opacity:1;stroke:none;stroke-width:0.111503px;stroke-linecap:butt;stroke-linejoin:miter;stroke-opacity:1"
         d="m 11.929238,18.085466 c 0.295553,0.160822 0.653637,0.187615 0.653637,0.187615 l 0.45155,0.03257 c 0,0 -0.09329,0.165138 -0.385611,0.266281 -0.29232,0.101143 -0.686485,-0.225434 -0.686485,-0.225434 z"
         id="path1546" />
      <path
         style="fill:#fe8787;fill-opacity:1;stroke:none;stroke-width:0.111503px;stroke-linecap:butt;stroke-linejoin:miter;stroke-opacity:1"
         d="m 17.347423,4.4472191 c -0.58739,0.051693 -1.465683,0.4618985 -1.423615,1.0500578 0.03409,0.4768231 0.78878,0.7343553 1.263536,0.6783822 0.578219,-0.068172 1.382191,-0.5844338 1.304559,-1.1614588 -0.05677,-0.4219371 -0.720378,-0.6043042 -1.14448,-0.5669812 z"
         id="path34967"
         sodipodi:nodetypes="aaaaa" />
    </g>
  </g>
</svg>
