<?xml version="1.0" encoding="UTF-8"?>
<!-- Created with Inkscape (http://www.inkscape.org/) -->
<svg id="svg5" width="50mm" height="50mm" version="1.1" viewBox="0 0 50 50" xmlns="http://www.w3.org/2000/svg" xmlns:xlink="http://www.w3.org/1999/xlink">
 <defs id="defs2">
  <linearGradient id="linearGradient51571" x1="-860.56238" x2="-853.85938" y1="630.24652" y2="434.3255" gradientTransform="matrix(.26458333 0 .00299042 .26164872 -1.8898106 2.5099021)" gradientUnits="userSpaceOnUse">
   <stop id="stop51565" stop-color="#ccc" offset="0"/>
   <stop id="stop51567" stop-color="#ccc" stop-opacity="0" offset="1"/>
  </linearGradient>
 </defs>
 <g id="layer1" transform="translate(274.53229,-113.90416)">
  <g id="g57418" transform="matrix(.63807581 0 0 .63807581 -99.359874 42.846108)">
   <path id="path51515" d="m-215.98617 115.15071-5.2e-4 5.1e-4c-5.9774-0.0168-11.15175 2.60193-14.35831 5.28817a3.5087093 3.4532794 22.6071 0 0-0.0138 0.0117s-8.66111 7.33517-17.64087 15.00341c-4.4899 3.8341-9.05873 7.75093-12.67226 10.88243-3.61353 3.13151-5.95997 5.13512-7.10546 6.33374-2.72088 2.84711-7.41867 8.46747-6.67641 16.38423 0.36215 3.86262 1.78185 7.09489 3.40139 9.54557 1.61961 2.45069 3.33507 4.1087 4.9267 5.1415 1.46163 0.94843 3.94879 2.17921 7.30575 2.91595 3.35695 0.73674 7.58321 0.89954 11.79509-0.86364 3.63753-1.52273 6.04467-3.05938 7.59582-4.30391 0.94795-0.76056 1.54269-1.4136 1.94463-1.89543l16.49095-14.28949a3.5087093 3.4532794 22.6071 0 0 2e-3 -2e-3l17.78222-15.43062a3.5087093 3.4532794 22.6071 0 0 0.21933-0.208s8.14529-7.57075 6.12678-17.17836c-1.71416-8.15901-7.06991-14.26735-14.00415-16.53549-1.71181-0.5599-3.44529-0.79556-5.11892-0.80027z" color="#000000" fill="url(#linearGradient51571)" stroke-linecap="round" stroke-linejoin="round" stroke-width=".263113" style="-inkscape-stroke:none;paint-order:markers stroke fill"/>
   <path id="path51508" d="m-215.38375 113.90416-5.3e-4 5.3e-4c-5.97721-0.0171-11.1815 2.6311-14.41876 5.34748a3.5003501 3.5003501 0 0 0-0.0139 0.0119s-8.74494 7.41745-17.81235 15.17169c-4.53371 3.87711-9.14732 7.83786-12.79664 11.00449s-6.01866 5.19271-7.17785 6.40478c-2.75341 2.87903-7.51544 8.56243-6.86366 16.56798 0.318 3.90595 1.70077 7.17447 3.29229 9.65264 1.5916 2.47818 3.28811 4.15479 4.86794 5.19917 1.45079 0.95906 3.92388 2.20364 7.27241 2.94866 3.34853 0.745 7.57295 0.90961 11.80497-0.87334 3.65493-1.53982 6.07964-3.09369 7.64501-4.35218 0.95664-0.7691 1.55885-1.42946 1.96629-1.91668l16.65428-14.44977a3.5003501 3.5003501 0 0 0 2e-3 -2e-3l17.95859-15.6037a3.5003501 3.5003501 0 0 0 0.22169-0.21032s8.23183-7.65567 6.32313-17.37104c-1.62091-8.25052-6.90686-14.42737-13.81518-16.72094-1.70541-0.56619-3.43619-0.80448-5.10977-0.80925z" color="#000000" fill="#f2f2f2" stroke-linecap="round" stroke-linejoin="round" stroke-width=".264583" style="-inkscape-stroke:none;paint-order:markers stroke fill"/>
   <g id="g49126">
    <path id="rect1202" transform="scale(.26458333)" d="m-815.75 449.16992c-18.89966 0.26241-34.46448 10.91642-38.83203 13.98633-7.16723 5.03781-66.99219 58.44922-66.99219 58.44922s21.13435 5.89607 45.98633 31.71289c24.85202 25.81682 29.35156 51.79687 29.35156 51.79687l72.59766-64.05273s29.00014-41.29084-3.72656-74.84961c-12.78389-13.10889-26.2696-17.21118-38.38477-17.04297z" fill="#587289" stroke-linecap="round" stroke-linejoin="round" stroke-width="2.81599" style="paint-order:markers stroke fill"/>
    <path id="rect4242" transform="scale(.26458333)" d="m-928.67773 526.78125s-42.40877 36.77035-63.29493 54.91016c-20.88624 18.13976-23.83564 38.49848-24.66014 46.75781-0.8245 8.25932-0.9063 28.20418 22.19921 47.46484 23.25946 19.38902 60.35292 5.09549 67.88476 0.59766 7.53188-4.49787 74.48828-66.6875 74.48828-66.6875s-9.46689-33.70694-31.44726-55.06641c-19.69232-19.13601-45.16992-27.97656-45.16992-27.97656z" fill="#d94107" stroke-linecap="round" stroke-linejoin="round" stroke-width="2.81599" style="paint-order:markers stroke fill"/>
    <path id="rect3688" transform="scale(.26458333)" d="m-832.02539 453.13867c-1.69413 0.0636-3.40902 0.26051-5.12891 0.51953-8.5559 3.37846-14.89002 7.71432-17.42773 9.49805-7.16723 5.03781-66.99219 58.44922-66.99219 58.44922s21.13435 5.89607 45.98633 31.71289c5.97693 6.20896 10.76632 12.42294 14.60937 18.28711l49.66993-43.17774c19.94234-17.33561 24.75697-44.22531 10.79297-60.28906l-3.1504-3.62305c-6.982-8.03187-17.29697-11.79191-28.35937-11.37695z" fill="#65a2b9" stroke-linecap="round" stroke-linejoin="round" stroke-width="2.18827" style="paint-order:markers stroke fill"/>
    <path id="path3913" transform="scale(.26458333)" d="m-928.67773 526.78125s-42.40877 36.77035-63.29493 54.91016c-8.56134 7.43555-14.10574 15.24242-17.72854 22.4375-3.4747 12.34035-1.6001 24.90789 6.3086 34.00586l3.1504 3.625c13.96402 16.06374 41.25884 15.03873 61.20118-2.29688l72.32422-62.87109c-4.47775-7.55351-10.04188-15.2755-16.79101-21.83399-19.69232-19.13601-45.16992-27.97656-45.16992-27.97656z" fill="#f56429" stroke-linecap="round" stroke-linejoin="round" stroke-width="2.18827" style="paint-order:markers stroke fill"/>
    <path id="path1666" transform="scale(.26458333)" d="m-814.08789 443.73438c-18.21705-0.052-36.20242 8.93178-45.95508 17.11523 0 0-132.14386 112.0856-141.81253 122.19531-9.6686 10.10971-24.3134 27.87325-22.3164 52.40235 1.997 24.52909 17.387 41.1714 24.9512 46.17187 7.56431 5.0005 34.04985 17.48206 59.67187 6.6875 25.62206-10.79456 32.26953-21.04101 32.26953-21.04102l63.46875-55.0664 67.875-58.97461s25.78039-26.68677 20.43164-53.91211c-5.34871-27.22534-21.98587-46.08309-43.40234-53.19336-4.96179-1.64731-10.08087-2.37021-15.18164-2.38476zm-1.66211 5.43554c12.11517-0.16821 25.60088 3.93408 38.38477 17.04297 32.7267 33.55877 3.72656 74.84961 3.72656 74.84961l-72.59766 64.05273s-4.49954-25.98005-29.35156-51.79687c-24.85198-25.81682-45.98633-31.71289-45.98633-31.71289s59.82496-53.41141 66.99219-58.44922c4.36755-3.06991 19.93237-13.72392 38.83203-13.98633zm-112.92773 77.61133s25.4776 8.84055 45.16992 27.97656c21.98037 21.35947 31.44726 55.06641 31.44726 55.06641s-66.9564 62.18963-74.48828 66.6875c-7.53184 4.49783-44.6253 18.79136-67.88476-0.59766-23.10551-19.26066-23.02371-39.20552-22.19921-47.46484 0.8245-8.25933 3.7739-28.61805 24.66014-46.75781 20.88616-18.13981 63.29493-54.91016 63.29493-54.91016z"/>
    <path id="rect2633" transform="scale(.26458333)" d="m-828.33748 459.75488c-1.89589 0.0405-6.81974 1.20454-8.45425 2.52814l-8.32053 4.8655-21.65336 17.53507c-3.73603 3.02537-4.45491 8.2873-1.61133 11.79883s8.14093 3.90233 11.87695 0.87696l22.49912-18.21998 7.91794-5.2729c4.01448-1.62887 6.1431-5.71539 4.09352-10.38578-1.02137-2.32741-3.91049-3.77787-6.34806-3.72584zm-161.85393 135.89942c-4.51849 0-8.15625 3.63776-8.15625 8.15625s3.63776 8.15625 8.15625 8.15625c4.5185 0 8.15625-3.63776 8.15625-8.15625s-3.63775-8.15625-8.15625-8.15625z" fill="#ececec" style="paint-order:markers stroke fill"/>
   </g>
   <path id="path52448" d="m-206.13625 116.6704c-0.0447 0.0141-0.0826 0.0441-0.12764 0.0527-0.33601 0.0641-0.22386 0.0801 0.24908 0.0356 9e-3 -7.9e-4 0.0139 1e-3 0.0227 5.3e-4 -0.0476-0.0304-0.0964-0.0588-0.14418-0.0889zm0.75757 0.49919c-0.25584 0.14905-0.68393 0.21299-1.03352 0.0925-0.4383-0.15104-0.43822-0.14001-5e-3 0.20671 0.33018 0.26404 0.3856 0.47719 0.19844 0.76326-0.19373 0.29612-0.31182 0.31645-0.46509 0.0801-0.13543-0.20884-0.33826-0.23283-0.59531-0.0703-0.32465 0.20532-0.30974 0.24763 0.0889 0.25063 0.29752 3e-3 0.40625 0.12124 0.28732 0.31367-0.12788 0.20694-0.0483 0.25442 0.2403 0.14366 0.23749-0.0911 0.51419-0.0221 0.61495 0.15348 0.10076 0.17555 0.0865 0.23193-0.0315 0.12506-0.11809-0.10688-0.35399-4e-3 -0.52451 0.22944-0.17052 0.2332-0.63443 0.45983-1.03095 0.50333s-0.8969 0.22492-1.11156 0.40308c-0.31871 0.26455-0.36129 0.2491-0.23357-0.0837 0.086-0.22415 0.0288-0.48577-0.12661-0.58187-0.25315-0.15644-0.39888 0.17657-0.31368 0.71623 0.0172 0.10914-0.12482 0.19844-0.31574 0.19844-0.19091 0-0.61155 0.35718-0.93431 0.79375-0.32277 0.43656-0.53339 0.79375-0.46819 0.79375 0.42963 0 0.9555-0.37977 0.9555-0.68988 0-0.44643 0.4257-0.48549 0.68678-0.0631 0.11324 0.18327 0.0734 0.23391-0.10026 0.12661-0.17468-0.10797-0.27424 0.0229-0.25114 0.33021 0.0233 0.30961 0.20143 0.47813 0.45423 0.42943 0.22869-0.044 0.63205 0.0779 0.89659 0.2713 0.37773 0.27623 0.44 0.54045 0.29042 1.23042-0.18591 0.85752-0.17807 0.86748 0.32711 0.41496 0.28465-0.25498 0.60075-0.38059 0.70229-0.27905 0.35087 0.35088 0.96273 0.29773 0.96273-0.0837 0-0.30081 0.11333-0.32227 0.52917-0.0997 0.38559 0.20636 0.52916 0.20109 0.52916-0.0191 0-0.16621 0.1786-0.23366 0.39688-0.14986 0.47615 0.18271 0.53027-0.38595 0.0796-0.83664-0.24694-0.2469-0.21754-0.3173 0.13229-0.3173 0.24739 0 0.44959 0.18551 0.44959 0.41238-1e-5 0.23157 0.12756 0.3339 0.2899 0.23358 0.15924-0.0984 0.2396-0.43899 0.1788-0.75706s0.0549-0.7333 0.25735-0.92242c0.20507-0.19155 0.29065-0.53649 0.19275-0.77928-0.0967-0.23975-0.19736-0.55522-0.22376-0.70074s-0.14112-0.41341-0.25476-0.59531c-0.13213-0.21151-0.0581-0.33073 0.20567-0.33073 0.0993 0 0.17641-0.0442 0.24133-0.10904-0.27313-0.25314-0.55296-0.49685-0.83819-0.73329-0.10373 0.0485-0.21055 0.0983-0.32453 0.12816-0.45029 0.11775-0.49242 0.0762-0.23616-0.23254 0.0804-0.0968 0.12322-0.16839 0.14986-0.22789-0.0557-0.0437-0.11184-0.0866-0.16795-0.12971-0.198 0.0633-0.51278 0.26177-0.81545 0.57671-0.55231 0.57466-0.562 0.57564-0.28216 0.031 0.16724-0.32547 0.49258-0.61398 0.84698-0.80098-0.16509-0.12263-0.3327-0.24146-0.50126-0.35864zm0.74569 2.09083c0.0379-7e-3 0.0768 0.0111 0.11783 0.0522 0.0609 0.0608-0.0635 0.40847-0.27595 0.77205l-0.38603 0.66094 0.17622-0.66146c0.14721-0.55267 0.25424-0.80261 0.36793-0.82372zm-4.41316 1.71669c0.048-0.0211 0.11379-0.0119 0.18655 0.0331 0.14552 0.0899 0.26458 0.21589 0.26458 0.28009s-0.11906 0.11679-0.26458 0.11679-0.26458-0.12598-0.26458-0.28009c0-0.077 0.0301-0.12871 0.078-0.14986zm2.90215 0.0873c0.21891-0.0303 0.48248 0.34844 0.5333 0.99167 0.0439 0.556-0.0901 0.79622-0.53692 0.96325-0.36058 0.13481-0.59531 0.1215-0.59531-0.0336 0-0.14083 0.26788-0.26765 0.59531-0.28215 0.57964-0.0257 0.5784-0.031-0.0465-0.20567-0.35302-0.0987-0.68946-0.35469-0.74776-0.56896-0.0905-0.33283-0.0674-0.3349 0.1571-0.0129 0.20639 0.29608 0.28158 0.22697 0.35088-0.3235 0.0433-0.34435 0.15856-0.50992 0.28991-0.52813zm-24.53236 4.85759c-0.38513-3e-3 -0.38845 0.0848-0.1788 0.33744 0.22444 0.27046 0.23824 0.44629 0.0439 0.56638-0.15492 0.0958-0.21341 0.28467-0.12971 0.42013 0.0837 0.13547 0.61111 0.2465 1.17202 0.2465 0.98296 0 1.01291-0.0263 0.82682-0.72761-0.16249-0.61242-0.35462-0.74085-1.21543-0.81235-0.21959-0.0183-0.39045-0.0296-0.51883-0.0305zm0.83303 0.25166c0.17331-2e-3 0.38862 0.11493 0.47852 0.26045h5.3e-4c0.20301 0.32849 0.11143 0.32849-0.39687 0-0.2385-0.15411-0.27151-0.25845-0.0822-0.26045zm31.60789 0.0641c-0.16284-0.0233-0.30541 0.0728-0.30541 0.30644 0 0.23041 0.18869 0.4191 0.4191 0.4191 0.14446 0 0.24667-0.0591 0.29404-0.14315-0.0646-0.15939-0.12875-0.31935-0.19638-0.47645-0.0682-0.0534-0.14095-0.0959-0.21135-0.10594zm-9.75238 2.94142c-0.048 0.0211-0.078 0.0728-0.078 0.14986 0 0.15412 0.11906 0.28009 0.26458 0.28009s0.26459-0.0521 0.26459-0.11627c0-0.0642-0.11907-0.1907-0.26459-0.2806-0.0728-0.045-0.13859-0.0542-0.18655-0.0331zm2.73834 1.29243c-0.0344-0.0145-0.12817 0.0514-0.29663 0.1912-0.22161 0.18392-0.40307 0.37919-0.40307 0.43409 0 0.29643 0.49691 0.0365 0.63923-0.33435 0.0697-0.18157 0.0948-0.27641 0.0605-0.29094zm-27.14202 1.78336c-0.15411 0-0.2806 0.11957-0.2806 0.26509 0 0.14553 0.0526 0.26407 0.11679 0.26407 0.0642 0 0.19019-0.11854 0.28009-0.26407 0.0899-0.14552 0.0378-0.26509-0.11628-0.26509zm-0.36328 1.36373c-0.35862 4e-3 -0.72957 0.24447-0.57981 0.4868 0.20812 0.33675 1.19166 0.35125 1.19166 0.0176 0-0.13694-0.1245-0.32645-0.27699-0.42065-0.0971-0.06-0.21532-0.085-0.33486-0.0837zm26.95752 0.0646c-0.0706 0.0108-0.16983 0.0642-0.28421 0.15917-0.21829 0.18116-0.39688 0.37076-0.39688 0.42116s0.17859 0.0233 0.39688-0.0605c0.21827-0.0838 0.39687-0.2734 0.39687-0.42117 0-0.0774-0.042-0.1095-0.11266-0.0987zm5.91799 6.77375c-0.15407 0-0.20669 0.11906-0.11679 0.26458s0.21641 0.26459 0.2806 0.26459c0.0642 0 0.11628-0.11907 0.11628-0.26459s-0.12598-0.26458-0.28009-0.26458zm-56.79188 2.21588c-0.048 0.0211-0.078 0.0728-0.078 0.14986 0 0.15412 0.11906 0.28009 0.26458 0.28009s0.26459-0.0521 0.26459-0.11627c0-0.0642-0.11907-0.1907-0.26459-0.2806-0.0728-0.045-0.13859-0.0542-0.18655-0.0331zm1.11259 0.0972 0.52917 0.54777c0.61946 0.64114 0.66146 0.66184 0.66146 0.32401 0-0.1404-0.26789-0.3943-0.59531-0.56379zm50.00935 0.16898c-0.0331-5e-3 -0.0598 7.9e-4 -0.078 0.0191-0.0728 0.0728 0.0202 0.31626 0.20722 0.54157 0.18699 0.22528 0.39953 0.3503 0.47233 0.2775s-0.0207-0.31677-0.20774-0.54209c-0.14025-0.16895-0.29454-0.28113-0.39378-0.2961zm-27.91974 0.4284c-0.1163 0-0.1496 0.23718-0.0739 0.52658 0.0757 0.28941 0.23756 0.46389 0.36019 0.38809 0.26042-0.16096 0.0246-0.91467-0.28629-0.91467zm-22.2374 0.79375c-0.15408 0-0.20669 0.11957-0.11679 0.26509 0.0899 0.14553 0.2164 0.26407 0.2806 0.26407s0.11628-0.11854 0.11628-0.26407c0-0.14552-0.12598-0.26509-0.28009-0.26509zm52.403 0.79375c-0.14552 0-0.26458 0.11906-0.26458 0.26458s0.11906 0.26458 0.26458 0.26458 0.26458-0.11906 0.26458-0.26458-0.11906-0.26458-0.26458-0.26458zm-51.51934 0.10025c-0.0278 0.0278-0.0469 0.12028-0.0532 0.2744-0.0115 0.27886 0.0511 0.43516 0.13901 0.34726 0.0879-0.0879 0.0971-0.31594 0.0207-0.50694-0.0422-0.10553-0.0786-0.14254-0.10645-0.11472zm41.54321 0.52813c-0.048 0.0211-0.078 0.0728-0.078 0.14986 0 0.15411 0.11907 0.28009 0.26459 0.28009s0.26458-0.0526 0.26458-0.11679c0-0.0642-0.11906-0.19019-0.26458-0.28009-0.0728-0.045-0.1386-0.0542-0.18655-0.0331zm1.45004 0.16537c-0.12991 0-0.16277 0.11906-0.0729 0.26458 0.0899 0.14552-0.0217 0.26458-0.24856 0.26458-0.22687 0-0.4129 0.11906-0.4129 0.26459h5.3e-4c0 0.38429 0.679 0.32429 1.0232-0.0904 0.29546-0.356 0.15267-0.70331-0.28939-0.70331zm8.03361 0.0791c-0.11541-0.0212-0.22356 2e-3 -0.30695 0.0858-0.15444 0.15442-0.1499 0.60318 0.0119 1.18908 0.23163 0.83886 0.36081 0.94516 1.18546 0.97617 1.00433 0.0377 1.24946-0.33953 0.39636-0.6103-0.29104-0.0924-0.52917-0.38357-0.52917-0.64699 0-0.46364-0.41134-0.9301-0.75757-0.99374zm-57.23629 0.13798c-0.33003 0.28612-0.63629 0.55214-0.94362 0.81855 0.13818 0.0843 0.47689-0.0701 0.73432-0.38034 0.15454-0.1862 0.21221-0.33586 0.2093-0.43821zm4.68963 0.26354c-0.0374-0.0402-0.0558 0.13683-0.0424 0.4775h5.3e-4c0.0214 0.54282 0.14589 0.78238 0.36328 0.69918 0.38326-0.14666 0.44763-0.59893 0.0853-0.59893-0.13485 0-0.29829-0.20836-0.36329-0.46302-0.0162-0.0637-0.0309-0.10132-0.0434-0.11473zm43.77872 1.63608c-0.14552 0-0.26458 0.11906-0.26458 0.26459 0 0.14551 0.11906 0.26458 0.26458 0.26458s0.26459-0.11907 0.26459-0.26458c0-0.14553-0.11907-0.26459-0.26459-0.26459zm-44.73008 1.85209c-0.15408 0-0.20669 0.11906-0.11679 0.26458s0.2164 0.26458 0.2806 0.26458 0.11628-0.11906 0.11628-0.26458c-1e-5 -0.14552-0.12598-0.26458-0.28009-0.26458zm-8.754 0.64802c-0.21177 0.1926-0.44559 0.40229-0.62839 0.57361 0.26292 5e-3 0.5546-0.25404 0.62839-0.57361zm0.93639 0.17983c-0.0882 3e-3 -0.0736 0.0567-0.0377 0.16433 0.0364 0.10915 0.16412 0.16558 0.28421 0.12558 0.12012-0.04 0.14208 0.16832 0.0486 0.46302-0.11742 0.36996-0.0516 0.53588 0.21344 0.53588 0.613 0 0.73763-0.98944 0.14417-1.14463-0.37375-0.0978-0.56444-0.14675-0.65267-0.14418zm48.84353 0.49506c-0.14552 0-0.26459 0.12598-0.26459 0.28009s-0.10641 0.21434-0.23668 0.13384-0.30295 0.0266-0.38395 0.23771c-0.12185 0.31754-0.0354 0.33287 0.50126 0.0884 0.65021-0.29626 0.88033-0.74001 0.38396-0.74001zm-42.2181 0.0816c-0.36781-0.0898-0.90124 0.12489-0.99994 0.5023-0.15195 0.58104 0.3108 0.63513 0.53072 0.062 0.087-0.22661 0.32728-0.34667 0.53434-0.26717 0.20702 0.0794 0.3085 0.0343 0.2253-0.10025-0.0636-0.10293-0.16781-0.16695-0.29042-0.19689zm-4.46484 0.18293c-0.0642 0-0.19071 0.11907-0.2806 0.26459-0.0899 0.14552-0.0373 0.26458 0.11678 0.26458 0.15411 0 0.28009-0.11906 0.28009-0.26458s-0.0521-0.26459-0.11627-0.26459zm2.85151 0.62994c-0.0238-5.3e-4 -0.0545 0.0104-0.092 0.0336-0.14385 0.0889-0.262 0.27338-0.262 0.41031 0 0.38059 0.18998 0.29662 0.36587-0.16175 0.0678-0.1766 0.0596-0.28035-0.0119-0.28215zm0.58807 0.4284c-0.0642 0-0.1907 0.11906-0.2806 0.26458s-0.0373 0.26458 0.11679 0.26458c0.15411 0 0.28009-0.11906 0.28009-0.26458-1e-5 -0.14552-0.0521-0.26458-0.11628-0.26458zm0.38086 0.79375c-0.14552 0-0.26458 0.11906-0.26458 0.26458-1e-5 0.14552 0.11906 0.26458 0.26458 0.26458s0.26458-0.11906 0.26458-0.26458-0.11906-0.26458-0.26458-0.26458zm44.99518 1.5875c-0.13694 0-0.32299 0.11906-0.41289 0.26458s0.0222 0.26458 0.24908 0.26458c0.22687 0 0.41238-0.11906 0.41238-0.26458s-0.11164-0.26458-0.24857-0.26458zm-53.22827 1.32291c-0.14557 0-0.19119 0.11907-0.10128 0.26459 0.0899 0.14552 0.28286 0.26458 0.42839 0.26458 0.14557 0 0.19068-0.11906 0.10078-0.26458s-0.28237-0.26459-0.42789-0.26459zm8.21758 1.85209c-0.15408 0-0.20668 0.11906-0.11678 0.26458s0.2164 0.26458 0.2806 0.26458 0.11627-0.11906 0.11627-0.26458-0.12598-0.26458-0.28009-0.26458zm44.99467 0.26458c-0.14552 0-0.26458 0.1786-0.26458 0.39688 0 0.11014 0.0309 0.20955 0.0796 0.28163l0.4253-0.37c-0.0297-0.1705-0.11768-0.30851-0.2403-0.30851zm-32.83003 0.56173c-0.0919-4e-3 -0.19699 0.013-0.29249 0.0512-0.21106 0.0845-0.14804 0.14698 0.16019 0.15968 0.27886 0.0115 0.43517-0.0511 0.34727-0.13901-0.044-0.0439-0.12306-0.068-0.21497-0.0718zm-10.8841 0.94722c-0.26711 0.0842-0.32052 0.40554-0.0248 0.70125 0.23625 0.23626 0.68534 0.0829 0.8046-0.27492 0.0514-0.15428-0.14949-0.34398-0.44648-0.42168-0.13155-0.0344-0.24427-0.0327-0.33331-5e-3zm2.77813 0.709c-0.0578 0.0338-0.0744 0.16074-0.0744 0.39533 0 0.32278 0.16875 0.56172 0.39687 0.56172 0.21828 0 0.39688-0.10432 0.39688-0.23202 0-0.12771-0.1786-0.38057-0.39688-0.56173-0.16579-0.1376-0.26469-0.1971-0.32246-0.1633zm-6.04304 0.0351c-0.0719 0.0188-0.11679 0.066-0.11679 0.13643 0 0.14096 0.1786 0.25631 0.39688 0.25631s0.39687-0.0467 0.39687-0.10387c0-0.0572-0.17859-0.17251-0.39687-0.25631-0.10914-0.0419-0.20816-0.0514-0.28009-0.0326zm13.37696 0.65733c-0.14552 0-0.26458 0.11906-0.26458 0.26458s0.11906 0.26458 0.26458 0.26458 0.26458-0.11906 0.26458-0.26458-0.11906-0.26458-0.26458-0.26458zm5.4777 0.43408c-0.11186 0.01-0.18603 0.086-0.18603 0.2527 0 0.20459-0.14883 0.37368-0.33073 0.37568-0.22696 3e-3 -0.20993 0.0802 0.0537 0.24702 0.21134 0.13373 0.47922 0.18435 0.59531 0.11265 0.28869-0.17841 0.2584 0.21154-0.0537 0.69453-0.22603 0.34974-0.25645 0.34846-0.26045-0.0129-3e-3 -0.2613-0.2468-0.41031-0.67334-0.41031-0.44057 0-0.62434 0.1178-0.53744 0.34417 0.0726 0.18918 0.0177 0.34365-0.12195 0.34365-0.13973 0-0.22527 0.59513-0.19017 1.3224 0.0505 1.04511 0.1258 1.23897 0.35967 0.92345 0.26277-0.35476 0.33257-0.35517 0.62476-3e-3 0.18136 0.21804 0.26452 0.56458 0.18552 0.77049-0.079 0.2059-0.0725 0.44579 0.0145 0.53279 0.36823 0.36824 0.61956 0.11359 0.4315-0.43718-0.11176-0.32742-0.2058-0.89298-0.2098-1.25678-4e-3 -0.36379-0.15828-0.81849-0.34365-1.01079-0.19851-0.20589-0.33745-0.23311-0.33745-0.0661 0 0.15591-0.11906 0.28318-0.26458 0.28318s-0.26458-0.17858-0.26458-0.39687c0-0.49152 0.89658-0.52038 1.37252-0.0444 0.48453 0.48452 0.98161 0.26263 0.81752-0.36484-0.0743-0.28407-0.0143-0.51676 0.13281-0.51676 0.14709 0 0.24993-0.27903 0.22893-0.62012-0.0321-0.52133-0.70726-1.09131-1.04283-1.06247zm-5.94072 0.3638c-0.39565 3e-3 -0.40532 0.0413-0.0661 0.26045 0.49927 0.32269 0.52917 0.32269 0.52917 0 0-0.14552-0.20836-0.26245-0.46302-0.26045zm-6.34173 0.0961c-0.0278 0.0278-0.0469 0.12029-0.0532 0.2744-0.0115 0.27896 0.0511 0.43517 0.13901 0.34727 0.0879-0.0879 0.0971-0.31595 0.0207-0.50695-0.0422-0.10553-0.0786-0.14254-0.10645-0.11472zm1.06608 0.80047c-0.034 0.0137-0.0755 0.0455-0.12505 0.0951-0.15451 0.15454-0.20116 0.41024-0.10336 0.56844 0.24875 0.40245 0.29227 0.36671 0.34107-0.2806 0.0227-0.30089-0.0107-0.42393-0.11266-0.38292zm-11.47474 0.15761c-0.15407 0-0.2067 0.11906-0.11679 0.26458 0.0899 0.14552 0.2164 0.26459 0.28059 0.26459 0.0642 0 0.11628-0.11907 0.11628-0.26459s-0.12599-0.26458-0.28008-0.26458zm8.58655 0.0661c-0.43462 0-0.56746 0.0756-0.35864 0.20464 0.1824 0.11265 0.2615 0.38777 0.1757 0.61133-0.0858 0.22357-0.014 0.46415 0.15968 0.53485 0.17372 0.0707 0.3348 0.13784 0.3576 0.14934s-0.0211-0.21694-0.0971-0.50798c-0.0774-0.29585-8e-3 -0.52916 0.1571-0.52916 0.1625 0 0.29507-0.10418 0.29507-0.23151 0-0.12734-0.31002-0.23151-0.68936-0.23151zm-12.74805 0.48266c-0.10285-3e-3 -0.2566 0.0762-0.39119 0.21187-0.25937 0.2613-0.22878 0.29189 0.1483 0.14831 0.26093-0.0994 0.40759-0.24716 0.32607-0.32866-0.0204-0.0204-0.0489-0.0305-0.0832-0.0315zm11.91967 0.27336c-0.21341-1e-3 -0.58779 0.49531-0.59479 0.85008-2e-3 0.11954 0.18866 0.0248 0.42426-0.21084 0.2356-0.23561 0.34863-0.50868 0.25063-0.60668-0.0224-0.0224-0.0496-0.0324-0.0801-0.0326zm3.28559 0.13074c-0.0714-8e-3 -0.23969 0.13019-0.51056 0.41393-0.35266 0.36942-0.37525 0.48524-0.0946 0.48524 0.20272 0 0.44357-0.196 0.53537-0.43511 0.11577-0.3017 0.14117-0.45591 0.0698-0.46406zm0.55759 0.30283 0.44752 0.68368c0.24677 0.37583 0.35997 0.82604 0.25218 1.00045-0.12399 0.20061-0.0842 0.2476 0.10904 0.12816 0.168-0.10385 0.3054-0.0626 0.3054 0.0915 0 0.15411 0.047 0.28007 0.10439 0.28008 0.37652 0-0.085-1.32865-0.59531-1.71359zm-10.19524 0.0672c-0.32278 0-0.33559 0.0741-0.0677 0.39687h5.3e-4c0.18115 0.21828 0.50777 0.39688 0.72605 0.39688 0.32278 0 0.33558-0.0741 0.0677-0.39688-0.18116-0.21828-0.50828-0.39687-0.72657-0.39687zm13.47049 0c-0.26679 0-0.50141 0.14882-0.52141 0.33073-0.092 0.83337-0.12177 1.4161-0.0884 1.73012 0.0296 0.27849 0.10403 0.27849 0.40411 0 0.22025-0.20442 0.26436-0.40601 0.11007-0.50281-0.14189-0.0891-0.0697-0.23386 0.16123-0.32246 0.59636-0.22885 0.54295-1.23558-0.0656-1.23558zm2.21796 0.0884c-0.25879 0-0.20401 0.21127 0.19378 0.74931 0.30484 0.41231 0.65771 0.74983 0.78445 0.74983 0.1267 0 0.14662 0.14883 0.0439 0.33073-0.14462 0.25615-0.11077 0.25993 0.15142 0.0176 0.18617-0.17212 0.26034-0.51644 0.16484-0.76533-0.0955-0.24887-0.24283-0.38297-0.32762-0.29817-0.18305 0.18304-0.87788-0.406-0.74311-0.62994 0.0511-0.0849-0.0694-0.154-0.26768-0.154zm2.38383 0.44029c-0.20969 0-0.45529 0.11906-0.54519 0.26458s0.0817 0.26459 0.38137 0.26459c0.29963 0 0.54467-0.11907 0.54467-0.26459s-0.17116-0.26458-0.38085-0.26458zm10.84791 0c-0.0642 0-0.1907 0.11906-0.2806 0.26458s-0.0373 0.26459 0.11679 0.26459c0.15411 0 0.28009-0.11907 0.28009-0.26459s-0.0521-0.26458-0.11628-0.26458zm-7.42435 0.22479c-0.13825 0-0.29361 0.1283-0.34571 0.28474-0.0522 0.15643 0.10317 0.28422 0.34571 0.28422 0.24253 0 0.39833-0.12779 0.34623-0.28422-0.0521-0.15644-0.20799-0.28474-0.34623-0.28474zm-12.45195 0.047c-0.33637 6e-3 -0.64492 0.10256-0.64492 0.28628 0 0.16109-0.1786 0.22436-0.39688 0.14056-0.24175-0.0928-0.39687-5.3e-4 -0.39687 0.23616 0 0.23406 0.25366 0.38861 0.63717 0.38861 0.52294 0 0.60951 0.10234 0.48627 0.57361-0.11903 0.45518-0.0592 0.53889 0.28939 0.40514 0.24168-0.0927 0.43925-0.0531 0.43925 0.0879 0 0.14095 0.1786 0.25632 0.39688 0.25632s0.39687-0.1786 0.39687-0.39688c0-0.21829 0.14882-0.40873 0.33073-0.42323 0.1819-0.0145 0.0331-0.12172-0.33073-0.23823-0.44098-0.14121-0.50712-0.22062-0.19844-0.23822 0.25466-0.0145 0.46302-0.21187 0.46302-0.43874 0-0.22686-0.11052-0.34415-0.24598-0.26045-0.13547 0.0837-0.32097 0.0311-0.41238-0.11679-0.1124-0.18187-0.47701-0.26753-0.81338-0.26199zm-6.49625 0.1266c-0.14527-3e-3 -0.23409 0.091-0.23409 0.26304 0 0.22896 0.15755 0.31969 0.39688 0.22789 0.21828-0.0838 0.39687-0.1863 0.39687-0.22789 0-0.0416-0.17859-0.1441-0.39687-0.2279-0.0598-0.023-0.11436-0.0343-0.16279-0.0351zm4.65192 0.2465c-0.084 7e-3 -0.21347 0.0559-0.38809 0.14934-0.29104 0.15577-0.52917 0.41092-0.52917 0.5669s-0.17859 0.21505-0.39687 0.13125c-0.48279-0.18526-0.50895-3e-3 -0.0677 0.46974 0.27074 0.28982 0.43417 0.22971 0.92552-0.34158 0.55393-0.64405 0.70843-0.99711 0.45631-0.97565zm8.3938 0.4222c-0.39276 7e-3 -0.38511 0.0556 0.0625 0.39429 0.54376 0.41137 0.84736 0.34594 0.55914-0.12041-0.0959-0.1552-0.37559-0.27888-0.62167-0.27388zm-1.08004 0.52089c-0.29606 0-0.26603 0.0977 0.11937 0.39171 0.44454 0.33916 0.4598 0.42798 0.11628 0.65784-0.21824 0.14605-0.26227 0.26724-0.0982 0.26924 0.16408 2e-3 0.42923-0.15361 0.58911-0.34624 0.33925-0.40878-0.0821-0.97255-0.72657-0.97255zm-2.26601 0.0884c-0.21193 0-0.31923 0.10723-0.23823 0.23823 0.081 0.13104-0.0133 0.21613-0.2098 0.18914-0.1965-0.0267-0.58019-0.0353-0.85267-0.0181-0.40962 0.0259-0.43872 0.10025-0.16639 0.4284 0.43064 0.51888 0.58138 0.502 1.27331-0.14263 0.6841-0.63735 0.70022-0.69505 0.19378-0.69505zm-4.3248 0.0853c-0.12719 0.0206-0.20361 0.15824-0.20361 0.3855 0 0.59659 4e-3 0.59825 0.39016 0.13333 0.23142-0.27885 0.22092-0.39776-0.0434-0.4992-0.0526-0.0202-0.10074-0.0265-0.14314-0.0196zm-0.77205 0.1912c-0.0278 0.0278-0.0469 0.12029-0.0532 0.2744-0.0115 0.27887 0.0511 0.43517 0.13901 0.34727 0.0879-0.0879 0.0971-0.31596 0.0207-0.50695-0.0422-0.10553-0.0786-0.14254-0.10645-0.11472zm-4.55631 0.16433c-0.29963 0-0.54518 0.11906-0.54518 0.26458s0.17168 0.26459 0.38137 0.26459c0.2097 0 0.45477-0.11907 0.54467-0.26459s-0.0812-0.26458-0.38086-0.26458zm-1.8898 0.0326c-0.0919-4e-3 -0.19699 0.013-0.29249 0.0512-0.21106 0.0845-0.14804 0.14749 0.16019 0.16019 0.27886 0.0115 0.43517-0.0511 0.34727-0.13901-0.044-0.0439-0.12306-0.0686-0.21497-0.0723zm-6.06371 0.23202c-0.14552 0-0.26458 0.11907-0.26458 0.26459s0.11906 0.26458 0.26458 0.26458 0.26458-0.11906 0.26458-0.26458-0.11906-0.26459-0.26458-0.26459zm1.83658 0c-0.13692 0-0.24908 0.0994-0.24908 0.22066 0 0.12129 0.17362 0.22014 0.3855 0.22014 0.21185 0 0.32398-0.0989 0.24908-0.22014-0.0749-0.12129-0.24858-0.22066-0.3855-0.22066zm15.85949 0.52917c-0.14556 0-0.19118 0.11906-0.10128 0.26458s0.28286 0.26459 0.42839 0.26459c0.14556 0 0.19067-0.11907 0.10077-0.26459s-0.28235-0.26458-0.42788-0.26458zm-2.21227 0.0181c-0.12163 1e-3 -0.13797 0.0829-0.13797 0.2465 0 0.14551 0.23812 0.26458 0.52916 0.26458 0.29073 0 0.52866 0.11928 0.52917 0.26458 2.7e-4 0.14529 0.11924 0.26407 0.26458 0.26407 0.53062 0 0.24665-0.54931-0.41393-0.80047-0.4223-0.16034-0.64938-0.2402-0.77101-0.23926zm-2.99671 0.2589c-0.0973-2e-3 -0.24396 0.0744-0.37311 0.2036-0.1722 0.1722-0.52768 0.31316-0.78961 0.31316-0.26194 0-0.47594 0.11537-0.47594 0.25632 0 0.14099 0.20836 0.19068 0.46302 0.11059 0.39532-0.12432 0.38789-0.0845-0.0506 0.27285-0.63772 0.51961-1.04538 0.54025-0.85472 0.0434 0.18113-0.47202-0.52699-0.7722-0.8046-0.34106-0.73603 1.14307-0.82128 1.48564-0.44701 1.79627 0.2657 0.2205 0.29668 0.41025 0.10491 0.64131-0.1498 0.18053-0.19044 0.54141-0.0904 0.80202 0.11959 0.3116 0.082 0.41243-0.10955 0.29404-0.34898-0.21568-0.69142 0.2476-0.45992 0.62218h5.3e-4c0.0899 0.14552 0.28236 0.26458 0.42788 0.26458 0.14551 0 0.19777-0.10783 0.11627-0.23978-0.0815-0.1319 0.1199-0.17121 0.44752-0.0868 0.51029 0.1315 0.54795 0.0956 0.26303-0.25218-0.2689-0.32819-0.25618-0.58869 0.0661-1.36013 0.50148-1.20135 0.50045-1.38597-5e-3 -0.96635-0.48899 0.40586-0.88011 0.11428-0.43874-0.32711 0.17221-0.1722 0.32234-0.55693 0.33383-0.85524 0.0169-0.43988 0.0713-0.40509 0.28681 0.185 0.14616 0.40018 0.36919 0.7276 0.49558 0.7276 0.32609 0 2.13916-1.90813 1.97197-2.07532-0.019-0.019-0.0456-0.0283-0.078-0.0289zm-14.4353 0.17156c-0.11543 0.0127-0.20918 0.0698-0.2532 0.18449-0.0844 0.21996 0.0336 0.34648 0.30437 0.32608 0.29909-0.0225 0.42403 0.14679 0.38601 0.52348-0.0478 0.47342 0.0512 0.53453 0.66145 0.40979 0.5007-0.10235 0.5773-0.17666 0.25427-0.24546-0.25466-0.0543-0.46302-0.26415-0.46302-0.46664 0-0.40734-0.54356-0.76969-0.88988-0.73174zm15.16858 0.0946c-0.15137-0.0252-0.25579 0.0552-0.25579 0.25063 0 0.14552 0.1837 0.26459 0.40772 0.26459 0.33518 0 0.34693 0.0658 0.0661 0.37103-0.29261 0.31807-0.35345 0.31807-0.42685 0-0.047-0.20397-0.27014-0.37103-0.49558-0.37103-0.35164 0-0.35808 0.0634-0.0465 0.44751 0.23488 0.28947 0.24795 0.37893 0.0377 0.2527-0.56397-0.33865-1.92391 0.89044-1.92391 1.73891 0 0.43023-0.17278 0.81884-0.4036 0.90744-0.30827 0.11829-0.3325 0.23974-0.10386 0.51521 0.24699 0.29762 0.38775 0.25793 0.8046-0.22892l0.50487-0.59015-0.14779 0.66146c-0.13272 0.5942-0.0617 0.66433 0.6966 0.69143l0.84388 0.0305-0.63408-0.37207-0.63458-0.37207 0.6289 0.17157c0.42539 0.11622 0.56988 0.0776 0.44752-0.12041-0.0994-0.16086-8e-3 -0.53982 0.20361-0.84181 0.25385-0.36243 0.44732-0.44814 0.56843-0.25218 0.24546 0.39715 0.93205-0.16114 0.92605-0.75344-2e-3 -0.26444-0.0791-0.32109-0.19844-0.14728-0.10914 0.15894-0.48489 0.20707-0.85628 0.11007-0.57645-0.15051-0.50843-0.20123 0.52917-0.39584 0.65485-0.12285 1.47214-0.1923 1.81591-0.154 0.34573 0.0385 0.55478-0.0433 0.46819-0.18345-0.0861-0.13937-0.50421-0.21279-0.92966-0.1633-0.45427 0.0529-0.90713-0.0704-1.09658-0.29868-0.17743-0.2138-0.23396-0.38861-0.12557-0.38861 0.1084 0 0.0489-0.1786-0.13229-0.39688-0.18823-0.2268-0.38657-0.35769-0.53796-0.38292zm7.07606 0.5147c-0.1519 0-0.20094 0.0755-0.10904 0.16743 0.0919 0.0919 0.0456 0.41931-0.10283 0.7276-0.25514 0.52991-0.24834 0.53359 0.12402 0.0708 0.24454-0.30394 0.5258-0.4102 0.74207-0.28009 0.26982 0.16234 0.26681 0.10905-0.0145-0.23771-0.19972-0.24622-0.48779-0.44803-0.63975-0.44803zm-2.58486 5.3e-4c-0.13693 0-0.24908 0.11906-0.24908 0.26458s0.18603 0.26459 0.4129 0.26459 0.33846-0.11907 0.24856-0.26459-0.27545-0.26458-0.41238-0.26458zm-20.65662 4e-3c-0.0327 7.9e-4 -0.13631 0.12608-0.34055 0.37672-0.23016 0.28248-0.41857 0.58458-0.41857 0.67127 0 0.0868 0.26662 0.17756 0.59222 0.20206 0.38449 0.029 0.47427-0.0283 0.2558-0.1633-0.19071-0.11787-0.26593-0.42765-0.17365-0.71572 0.0795-0.24771 0.11748-0.3718 0.0847-0.37103zm18.39061 0.0765c0.0101 0.0233 0.12985 0.0932 0.36329 0.21601 0.32743 0.17225 0.59531 0.47367 0.59531 0.66972h5.3e-4c0 0.19604 0.17859 0.35605 0.39688 0.35605 0.60537 0 0.3712-0.86071-0.26459-0.97255-0.14552-0.0256-0.50271-0.11819-0.79375-0.20619-0.20752-0.0628-0.3077-0.0863-0.29765-0.063zm-19.32491 0.0202c-0.0238-5.3e-4 -0.0545 0.01-0.092 0.0331-0.14386 0.0889-0.26199 0.2739-0.26199 0.41083 0 0.38059 0.18997 0.29661 0.36586-0.16175 0.0678-0.1766 0.0596-0.28035-0.0119-0.28215zm12.71085 2e-3c-0.0322-1e-3 -0.0674 9e-3 -0.10439 0.032-0.14787 0.0914-0.20049 0.27742-0.11679 0.41289 0.22681 0.36698 0.38551 0.29835 0.38551-0.1664 0-0.17017-0.0679-0.27529-0.16433-0.27853zm10.61537 0.44286-0.8599 0.3142c-0.47294 0.17282-0.85989 0.40728-0.85989 0.5209 0 0.35518 0.44604 0.22734 1.09554-0.3142zm1.63091 0.62322c-0.11265-0.0231-0.23297 0.0333-0.33022 0.19069-0.12764 0.2065-0.0764 0.2383 0.15452 0.0956 0.22429-0.13859 0.28249-0.11077 0.16484 0.0796-0.0999 0.16162-0.36855 0.22248-0.59686 0.13488-0.2283-0.0876-0.52184 7e-3 -0.65267 0.2098-0.20139 0.31262-0.27812 0.3086-0.49868-0.0274-0.20349-0.31-0.26158-0.23413-0.26458 0.34779-5e-3 0.84046 0.41463 1.76888 0.79892 1.76888 0.35822 0 0.32014-0.72803-0.0445-0.84956-0.39928-0.1331 0.46748-1.00252 0.99943-1.00252 0.34476 0 0.34206 0.0543-0.0191 0.41548-0.44583 0.44583-0.54965 0.90743-0.20412 0.90743 0.11642 0 0.35453-0.14319 0.52916-0.3178 0.2469-0.24692 0.3173-0.24427 0.3173 0.0114 0 0.18077 0.14883 0.49775 0.33073 0.70435 0.49281 0.55975 0.7276 0.47409 0.7276-0.26561 0-0.3638-0.13395-0.63172-0.29766-0.59532-0.42631 0.0947-0.594-0.52791-0.17983-0.66766 0.18996-0.0641 0.13684-0.0853-0.11782-0.047-0.29897 0.0449-0.46302-0.10349-0.46302-0.4191-1e-5 -0.37678-0.16573-0.63537-0.35347-0.67386zm-22.38469 0.154c-0.15409 0-0.28059 0.11906-0.28059 0.26458s0.0526 0.26458 0.11679 0.26458c0.0642 0 0.19018-0.11906 0.28009-0.26458 0.0899-0.14552 0.0378-0.26458-0.11629-0.26458zm18.10588 0.26458c-0.33293 0-0.34436 0.0878-0.0687 0.52917 0.39217 0.62796 0.8584 0.70999 0.62838 0.11059-0.0883-0.23018-0.16019-0.46827-0.16019-0.52917s-0.17995-0.11059-0.39946-0.11059zm-8.34781 0.26458c-0.13693 0-0.24908 0.25287-0.24908 0.56173 0 0.46732 0.0664 0.5067 0.39429 0.23461 0.39819-0.33047 0.31317-0.79634-0.14521-0.79634zm9.45885 4e-3c-0.1893 2e-3 -0.15682 0.10634 0.0816 0.26045 0.50829 0.32849 0.59989 0.32849 0.39688 0-0.0899-0.14552-0.30522-0.26245-0.47853-0.26045zm-20.57653 2e-3c-0.2657 0.0122-0.50848 0.10085-0.50848 0.2558 0 0.14385 0.28953 0.23745 0.64286 0.20826 0.3533-0.0292 0.58393-0.14684 0.51313-0.26149-0.0931-0.15064-0.38179-0.21479-0.64751-0.20257zm13.85291 0.35915c0.0278-0.0278 0.0647 9e-3 0.10697 0.11472 0.0764 0.191 0.0672 0.41905-0.0207 0.50695-0.088 0.0879-0.15051-0.0684-0.13901-0.34727 6e-3 -0.15411 0.0249-0.24658 0.0527-0.2744zm20.40186 0.26562c-0.0316-1e-3 -0.0665 9e-3 -0.10284 0.031-0.14552 0.0899-0.26458 0.27545-0.26458 0.41238 0 0.13694 0.11906 0.24908 0.26458 0.24908s0.26458-0.1855 0.26458-0.41238c0-0.17015-0.0669-0.27587-0.16174-0.28008zm-13.63896 0.5612c-0.17836-0.0324-0.34766 0.0614-0.64596 0.25684-0.37525 0.24587-0.63407 0.2991-0.63407 0.1297 0-0.15749-0.1181-0.21395-0.262-0.12505-0.16042 0.0991-0.0974 0.41267 0.16278 0.80977 0.2334 0.35622 0.55934 0.64537 0.72451 0.64337 0.16514-2e-3 0.12216-0.12369-0.0961-0.26975-0.34352-0.22986-0.32827-0.31816 0.11627-0.65733 0.68196-0.52029 0.95831-0.49484 0.77618 0.0713-0.12328 0.38325-0.1013 0.39558 0.12712 0.0724 0.23024-0.32583 0.31483-0.28521 0.51057 0.24391 0.16059 0.43412 0.29777 0.53194 0.4346 0.31057 0.12092-0.19565-0.082-0.58432-0.51315-0.98392-0.3352-0.31065-0.52238-0.46934-0.70073-0.50178zm13.72526 0.51832c-0.10726 6e-3 -0.21964 0.10499-0.28009 0.26252-0.0977 0.25476-0.0185 0.33271 0.23719 0.23461 0.44445-0.17055 0.47437-0.26748 0.14625-0.47026-0.0326-0.0201-0.0676-0.0288-0.10335-0.0269zm-18.28468 0.40669c-0.0572 0-0.17251 0.1786-0.25631 0.39688s-0.0366 0.39687 0.10439 0.39687c0.14094 0 0.25631-0.17859 0.25631-0.39687s-0.0472-0.39688-0.10439-0.39688zm19.83135 0c-0.0642 0-0.1907 0.11907-0.2806 0.26459-0.0899 0.14551-0.0373 0.26458 0.11679 0.26458 0.15411 0 0.28008-0.11907 0.28008-0.26458 0-0.14552-0.0521-0.26459-0.11627-0.26459zm-37.36877 0.0543c-0.0545-7e-3 -0.0853 0.0303-0.0853 0.11317 0 0.15037 0.0792 0.35311 0.17621 0.45011 0.097 0.097 0.23797 0.11447 0.31316 0.0393 0.0752-0.0752-4e-3 -0.27738-0.17671-0.44959-0.0949-0.0949-0.17285-0.14604-0.22738-0.15296zm18.31877 0.21033c-0.0642 0-0.1907 0.11906-0.2806 0.26458s-0.0373 0.26458 0.11679 0.26458c0.15411 0 0.2806-0.11906 0.2806-0.26458s-0.0526-0.26458-0.11679-0.26458zm-4.56819 0.3638c-0.048 0.0211-0.0775 0.0728-0.0775 0.14986 0 0.15411 0.11855 0.28009 0.26407 0.28009s0.2651-0.0526 0.2651-0.11679c0-0.0642-0.11958-0.19019-0.2651-0.28009-0.0728-0.045-0.1386-0.0542-0.18655-0.0331zm2.81068 0.19792c-0.0919-4e-3 -0.19699 0.013-0.29249 0.0512-0.21106 0.0845-0.14804 0.14749 0.16019 0.16019 0.27896 0.0115 0.43517-0.0511 0.34727-0.139-0.044-0.0439-0.12306-0.0686-0.21497-0.0724zm-5.97793 0.0212c-0.0545-7e-3 -0.0853 0.0308-0.0853 0.11369 0 0.15037 0.0792 0.3531 0.17622 0.4501 0.097 0.097 0.23796 0.11448 0.31316 0.0393 0.0752-0.0752-5e-3 -0.27739-0.17674-0.44959-0.0949-0.0949-0.17283-0.14656-0.22737-0.15348zm-10.7828 0.27596c0.033 0.09 0.0678 0.17824 0.10181 0.26716 3e-3 -0.0241 0.0124-0.0413 0.0124-0.0677 0-0.0844-0.0486-0.15094-0.11419-0.19947zm4.47569 0.33744c-0.0839-0.0114-0.19979 6e-3 -0.32711 0.0538-0.56009 0.21208-1.15202 0.77035-1.11982 1.05575 0.013 0.11434-0.19137 0.24363-0.45373 0.28783-0.40307 0.0679-0.41548 0.0379-0.0801-0.1943 0.34176-0.23661 0.33303-0.27454-0.0657-0.27854-0.25466-2e-3 -0.46302 0.18178-0.46302 0.40928 0 0.30733 0.22109 0.39233 0.8599 0.33073 0.63201-0.0609 0.84082-0.19996 0.78703-0.52555-0.042-0.25422 0.15534-0.5157 0.46302-0.6134 0.29488-0.0936 0.53589-0.27762 0.53589-0.40876 0-0.0656-0.052-0.10535-0.13592-0.11679zm-4.12274 0.55707c0.0922 0.22003 0.18669 0.43705 0.28422 0.64958 0.0464-0.0381 0.0759-0.0645 0.13848-0.11421 0.29107-0.23093 0.46969-0.4293 0.39687-0.4408-0.26746-0.0423-0.54665-0.0713-0.81957-0.0946zm3.48763 0.39791c-0.0243 5e-3 -0.0127 0.0376 0.0414 0.0972 0.10787 0.11908 0.0538 0.38792-0.12042 0.59789-0.17425 0.20997-0.34165 0.54881-0.37155 0.75241-0.0621 0.42287-0.0385 0.43114 0.56121 0.20102 0.35155-0.1349 0.36885-0.21429 0.0873-0.39274-0.26427-0.16747-0.26935-0.22489-0.0217-0.22789 0.1819-2e-3 0.33073-0.17582 0.33073-0.38551s-0.14883-0.46686-0.33073-0.57154c-0.0909-0.0523-0.15182-0.0755-0.17621-0.0708zm-2.27478 0.31316c-0.0629-0.0153-0.23471 9e-3 -0.52557 0.0724-0.13681 0.0296-0.22238 0.0454-0.31213 0.0625 0.0705 0.14962 0.14166 0.29815 0.21447 0.4439 0.14251-0.0201 0.19487 0.072 0.15452 0.29972 0.15409 0.29673 0.31202 0.58588 0.47387 0.86558l0.70125-0.20205 0.88469-0.25477-0.88831-0.0238c-0.67541-0.0181-0.8517-0.11883-0.73586-0.42064 0.0838-0.21828 7e-3 -0.39901-0.17002-0.40101-0.20617-3e-3 -0.17929-0.10116 0.0744-0.27285 0.14541-0.0984 0.19153-0.15365 0.12869-0.16898zm12.55529 1.23972c-0.13693 0-0.24856 0.11905-0.24856 0.26458 0 0.14552 0.18551 0.26459 0.41238 0.26459s0.33898-0.11907 0.24908-0.26459c-0.0899-0.14553-0.27597-0.26458-0.4129-0.26458zm14.29991 0.0114c-0.30431 0.11448-1.02287 1.14984-0.8878 1.36839 0.086 0.13918 0.36523-0.0845 0.62011-0.49713s0.42097-0.79916 0.36897-0.85886c-0.0229-0.0263-0.0578-0.0288-0.10128-0.0124zm-6.47713 0.64027c-0.0407-0.0106-0.0721-8e-3 -0.0909 0.0109-0.0752 0.0752 0.0927 0.3103 0.3731 0.52245 0.71546 0.54127 0.80652 0.49351 0.24392-0.12816-0.19815-0.21895-0.40388-0.37327-0.52607-0.40514zm-19.36368 0.0186c-0.0987 0.0188-0.18127 0.0653-0.22426 0.13488-0.086 0.13916 0.0884 0.25321 0.38809 0.25321 0.63886 0 0.7035-0.1472 0.15658-0.35708-0.10682-0.041-0.22167-0.0499-0.32041-0.031zm1.04748 0.22376c-0.0278 0.0278-0.0469 0.12028-0.0532 0.2744-0.0114 0.27887 0.0511 0.43516 0.13899 0.34726 0.0879-0.0879 0.0971-0.31595 0.0206-0.50694-0.0422-0.10553-0.0786-0.14254-0.10647-0.11472zm-1.80194 0.0403c0.088 0.14434 0.17661 0.28695 0.26611 0.42633 0.0856 0.13322 0.17278 0.25482 0.25893 0.38343 0.40698 0.1317 0.37705-0.0344-0.21085-0.54001zm25.42376 0.91777c-0.22687 0-0.41289 0.11906-0.41289 0.26458s0.11215 0.26459 0.24908 0.26459 0.32248-0.11907 0.41238-0.26459-0.0217-0.26458-0.24857-0.26458zm-7.14375 0.66559c-0.0719-0.0188-0.17146-9e-3 -0.2806 0.0326-0.21828 0.0838-0.39636 0.19911-0.39636 0.25631s0.17808 0.10387 0.39636 0.10387c0.21829 0 0.39739-0.11536 0.39739-0.25631 0-0.0705-0.0448-0.11758-0.11679-0.13643zm-6.3655 0.92191c-0.23549 0-0.355 0.11906-0.2651 0.26458s0.2095 0.26459 0.2651 0.26459 0.17417-0.11907 0.26407-0.26459-0.0286-0.26458-0.26407-0.26458zm1.96215 0.29714c-0.0919-4e-3 -0.19647 0.013-0.29197 0.0512-0.21107 0.0845-0.14854 0.14698 0.15968 0.15968 0.27887 0.0115 0.43517-0.0511 0.34727-0.13901-0.044-0.044-0.12306-0.068-0.21498-0.0718zm5.04931 1.29036c-0.14552 0-0.2651 0.11906-0.2651 0.26458s0.11958 0.26459 0.2651 0.26459 0.26458-0.11907 0.26458-0.26459-0.11906-0.26458-0.26458-0.26458zm0.14417 1.45262c-0.0909 0.0201-0.14417 0.0631-0.14417 0.13229 0 0.12749 0.32742 0.2815 0.7276 0.3421 1.23179 0.18659 1.27082 0.18184 0.78807-0.0992-0.49194-0.28638-1.09891-0.43535-1.3715-0.37517zm5.67666 0.13488c-0.14552 0-0.26458 0.11906-0.26458 0.26458s0.11906 0.26459 0.26458 0.26459 0.26407-0.11907 0.26407-0.26459-0.11855-0.26458-0.26407-0.26458zm-6.16345 0.0935c-0.048-0.018-0.11379-7e-3 -0.18655 0.0383-0.14552 0.0899-0.26458 0.27544-0.26458 0.41237s0.11906 0.24908 0.26458 0.24908 0.50271 0.23813 0.79375 0.52917c0.69815 0.6982 1.11494 0.67084 1.01028-0.0661-0.0606-0.42625-0.29088-0.61903-0.81184-0.67902-0.40018-0.046-0.72812-0.2018-0.72812-0.34624 0-0.0722-0.0296-0.11949-0.0775-0.13746z" fill="#f2f2f2" stroke-width=".264583"/>
  </g>
 </g>
</svg>
