<?xml version="1.0" encoding="UTF-8"?>
<!-- Created with Inkscape (http://www.inkscape.org/) -->
<svg id="svg5" width="35mm" height="35mm" version="1.1" viewBox="0 0 35 35" xmlns="http://www.w3.org/2000/svg">
 <g id="layer1" transform="translate(-7.478817,-15.677372)">
  <g id="g3086" transform="matrix(.97736382 0 0 .97736382 .16929185 .35487581)">
   <circle id="path2235" cx="25.384125" cy="33.58268" r="17.905308" fill="#f9f9f9" style="paint-order:markers stroke fill"/>
   <path id="path1997" d="m19.774394 43.151617c-1.633078-0.279696-3.178018-1.12701-4.182113-2.293649-0.227762-0.26463-0.272005-0.342043-0.226693-0.396642 0.09073-0.109322 0.154296-0.08189 0.40605 0.175215 0.869943 0.888445 2.194316 1.435504 3.475209 1.435504 1.905034 0 3.623994-1.080766 4.462289-2.805586 0.630544-1.29737 0.667656-2.866527 0.09753-4.123912l-0.135712-0.299308 0.305229-0.178553 0.305231-0.178552 0.197981 0.169463c0.49931 0.427395 1.312358 0.427987 1.810821 0.0014l0.196447-0.16815 0.30882 0.172704 0.308823 0.1727-0.137768 0.303843c-0.573729 1.265332-0.537644 2.825788 0.09547 4.128447 0.836668 1.721474 2.560955 2.805591 4.462289 2.805591 1.286334 0 2.625399-0.558071 3.498989-1.458245 0.22765-0.234575 0.292625-0.260492 0.38227-0.152478 0.12008 0.144688-0.87892 1.126469-1.651176 1.622719-0.720725 0.463141-1.614375 0.831979-2.469877 1.019399-0.481083 0.105392-1.776498 0.147499-2.318577 0.07536-1.183437-0.157497-2.432226-0.66574-3.324635-1.353095l-0.247848-0.190897-0.287191 0.211414c-0.932439 0.686426-2.109251 1.167767-3.239279 1.324938-0.49237 0.06848-1.641232 0.05775-2.092579-0.01956zm2.734343-3.913437c-1.45065-0.726217-2.569976-2.004762-3.135415-3.581404-0.231668-0.645978-0.332461-1.260348-0.336227-2.049457-0.0019-0.395661 0.01258-0.778732 0.03214-0.851269 0.03175-0.117713 0.05738-0.131784 0.23848-0.130936 0.280586 0.0012 0.825955 0.08268 1.118662 0.166893l0.244328 0.0703 0.0021 0.684242c0.0025 0.805923 0.119381 1.344983 0.440132 2.029453 0.455835 0.972724 1.290701 1.814324 2.249734 2.267871 0.301056 0.142377 0.298703 0.134592 0.169136 0.559332-0.09199 0.301541-0.452134 1.079074-0.499819 1.079074-0.01962 0-0.255076-0.109845-0.523246-0.244094zm5.023981-0.105111c-0.147685-0.298674-0.286035-0.674859-0.391891-1.065583-0.02147-0.07924 0.0196-0.115692 0.236151-0.209633 0.898971-0.389985 1.765729-1.24004 2.232456-2.189431 0.359335-0.730946 0.486337-1.282128 0.488915-2.121878l0.0021-0.684242 0.244326-0.0703c0.292708-0.08422 0.838077-0.165579 1.118661-0.166893 0.181082-9.24e-4 0.206749 0.01323 0.238579 0.130936 0.0775 0.286557 0.03074 1.552645-0.07613 2.061443-0.40033 1.90599-1.617359 3.527498-3.290849 4.384576-0.650394 0.333093-0.601419 0.337309-0.802322-0.069zm-13.362998-0.765841c-0.23104-0.722416-0.297909-1.11775-0.327389-1.935531-0.03039-0.842903 0.01283-1.281273 0.20043-2.03306 0.502328-2.013013 1.989181-3.794593 3.884054-4.653962l0.466699-0.211658-0.03172-0.28036c-0.05609-0.495773-0.03177-1.57644 0.04554-2.023857 0.489817-2.834553 2.560903-5.069787 5.299679-5.719711 0.728854-0.172961 0.727921-0.172922 0.710521-0.02914-0.01361 0.112569-0.05554 0.136594-0.422769 0.242291-1.927972 0.554919-3.375143 2.308341-3.542935 4.292698-0.12963 1.533049 0.378802 2.929362 1.456351 3.99959 0.768994 0.763771 1.903978 1.312006 2.888458 1.395225l0.349138 0.02951v0.742593l-0.160962 0.0302c-0.414925 0.07784-0.884276 0.579578-0.991159 1.059551-0.04757 0.213637-0.03253 0.55194 0.03203 0.72017 0.02149 0.05601-0.487596 0.406858-0.590367 0.406858-0.02384 0-0.08431-0.06936-0.134389-0.154142-0.140659-0.238117-0.832058-0.93739-1.152576-1.165702-2.031895-1.447374-4.782673-1.179417-6.498281 0.633003-0.655841 0.692851-1.06182 1.472099-1.257332 2.413358-0.127755 0.615064-0.1008 1.714923 0.05514 2.249809 0.08304 0.284823 0.09125 0.363277 0.04136 0.394922-0.134667 0.08543-0.182855 0.02469-0.319529-0.402657zm22.114161 0.403882c-0.04728-0.03-0.03808-0.120339 0.04267-0.418902 0.153541-0.567719 0.177839-1.617218 0.05156-2.227054-0.595675-2.876693-3.537161-4.626293-6.314578-3.755918-0.471782 0.147844-1.056337 0.435733-1.440742 0.709556-0.320517 0.228313-1.011916 0.927586-1.152575 1.165703-0.05008 0.08478-0.106827 0.154142-0.126104 0.154142-0.01928 0-0.165026-0.07617-0.323886-0.169278-0.279291-0.16369-0.287698-0.174392-0.254353-0.323722 0.05281-0.236526 0.03455-0.627463-0.03772-0.807715-0.17358-0.432887-0.583754-0.818691-0.941819-0.885865l-0.160963-0.0302v-0.742593l0.349138-0.02951c0.45236-0.03824 1.095506-0.226239 1.570606-0.459114 1.024403-0.502118 1.812118-1.298431 2.305864-2.331037 0.282496-0.590804 0.418958-1.078041 0.469412-1.676012 0.127222-1.507834-0.380935-2.910184-1.438135-3.968784-0.598989-0.599785-1.315549-1.023325-2.129853-1.258902-0.345696-0.10001-0.385188-0.123593-0.399014-0.238283-0.01338-0.11091-0.0011-0.12422 0.09592-0.103441 0.06119 0.01312 0.24075 0.0487 0.399015 0.07907 1.425642 0.273588 2.982123 1.2014 3.924502 2.33938 1.107312 1.337147 1.661349 2.827596 1.666022 4.481871 9.25e-4 0.339023-0.01249 0.760847-0.02989 0.937389l-0.03163 0.320987 0.466853 0.211728c1.782883 0.808576 3.18796 2.406921 3.780366 4.30035 0.24928 0.796742 0.29515 1.127986 0.294695 2.128157-5.54e-4 1.018201-0.04783 1.344609-0.318394 2.194114-0.135604 0.425758-0.184456 0.488007-0.316964 0.403881zm-14.139117-9.20432c-0.323275-0.336131-0.710053-0.902411-0.676351-0.990238 0.03513-0.09155 0.609514-0.462236 1.083953-0.699537 1.764227-0.882416 3.887261-0.887971 5.638797-0.01476 0.489912 0.244241 1.075183 0.619464 1.11073 0.712101 0.04555 0.11869-0.607859 1.005698-0.882249 1.197667-0.101329 0.07089-0.122446 0.0647-0.383672-0.112499-1.599423-1.084941-3.700044-1.085831-5.29749-0.0023-0.150222 0.101899-0.28559 0.185271-0.300818 0.185271-0.01522 0-0.147032-0.124094-0.2929-0.275763z" fill="#241f1c" stroke-width=".0479589"/>
   <path id="path2926" d="m29.626657 22.243638a12.130785 12.130785 0 0 0-0.600417-0.203661c-0.0109 0.07642-0.01835 0.170114-0.02495 0.29799-0.0235 0.455511 0.401174 0.4695 0.600918 0.01975 0.0164-0.03693 0.02247-0.07562 0.02445-0.114081zm1.920664 0.912843c-0.02527 0.105571 0.01865 0.215672 0.115535 0.258699 0.07605 0.03378 0.190491 0.02784 0.295296-0.0056a12.130785 12.130785 0 0 0-0.410831-0.25307zm-1.030878-0.135025c-0.319111-0.148265-0.589342-0.249065-0.600482-0.223985-0.01115 0.0251-0.02936 0.222796-0.04055 0.439258-0.02207 0.427606 0.724922 0.885326 0.878933 0.538551 0.05193-0.116925 0.150191-0.273736 0.218384-0.348439 0.06818-0.07471-0.137247-0.256946-0.456285-0.405385zm2.531064 1.181611c-0.02887 0.01526-0.05669 0.02469-0.08482 0.04394-0.124194 0.08483-0.124484 0.199244-6.48e-4 0.254239 0.121181 0.05382 0.260393 0.0055 0.315003-0.106175a12.130785 12.130785 0 0 0-0.229524-0.19199zm0.640787 0.560683c-0.0029 3e-3 -0.0067 5e-3 -0.0095 0.0081-0.123568 0.135402-0.05028 0.200162 0.260108 0.234964a12.130785 12.130785 0 0 0-0.250616-0.243011zm0.910078 0.954897c-0.05596 0.06535-0.117481 0.134635-0.191014 0.213034-0.296632 0.316255-0.578512 0.68363-0.626432 0.816436-0.05959 0.165104-0.02136 0.178588 0.120617 0.04258 0.114218-0.109347 0.360941-0.07647 0.548436 0.07318 0.192242 0.153477 0.452617 0.160172 0.597171 0.01534 0.160894-0.161227 0.128245-0.301799-0.08785-0.377686-0.189311-0.06648-0.331632-0.276612-0.316215-0.467058 8e-3 -0.09896 0.03149-0.15797 0.06867-0.181752a12.130785 12.130785 0 0 0-0.113382-0.134075zm-4.670576-1.801609c-0.414373-0.184033-0.654172-0.02041-0.511915 0.349145 0.09467 0.245952 0.746599 0.268645 0.852726 0.02969 0.04637-0.104415-0.106957-0.274974-0.340811-0.378835zm3.790268 2.211017c-0.03819-0.0095-0.09741-0.01947-0.176857-0.03161-0.196624-0.03007-0.459139 0.091-0.583558 0.269126-0.144943 0.207596-0.08659 0.384888 0.162914 0.492837 0.329953 0.143243 0.354724 0.115579 0.163108-0.182091-0.200803-0.311964-0.179195-0.360616 0.194564-0.438083 0.28033-0.05811 0.354406-0.08161 0.239828-0.110178zm1.972793 1.086303c-0.0584 0.105079-0.149037 0.216266-0.278569 0.346866-0.527035 0.531408-0.801491 1.593273-0.397523 1.538149 0.144645-0.01974 0.210937 0.0815 0.147288 0.224812-0.291094 0.655434 0.321574 0.01892 0.657855-0.68346 0.126415-0.264043 0.243978-0.452747 0.347991-0.582192a12.130785 12.130785 0 0 0-0.47704-0.844175zm-11.029626-4.872741c-0.182285-0.08096-0.373923-0.05152-0.42585 0.0654-0.05193 0.116924-0.0044 0.252585 0.10564 0.301448 0.110021 0.04886 0.301689 0.01944 0.42585-0.0654 0.124194-0.08483 0.07665-0.22049-0.10564-0.301448zm11.078426 5.429267c0.05156 0.02289 0.05127 0.137316-6.48e-4 0.254238-0.05193 0.116923-0.195736 0.167599-0.319553 0.11261-0.123799-0.05498-0.123503-0.169397 6.48e-4 -0.254239 0.124192-0.08483 0.26797-0.135516 0.319553-0.112609zm0.722132 0.902078c-0.01419 0.05621-0.02212 0.103057-0.04029 0.164971l-0.2974 1.013304 0.433066-0.889419c0.0052-0.01072 0.01102-0.01897 0.0163-0.02955a12.130785 12.130785 0 0 0-0.111672-0.259309zm-9.415393-3.999169c-0.116923-0.05193-0.255089 0.0012-0.307016 0.118177-0.05193 0.116924 0.0012 0.255088 0.118178 0.307015 0.116924 0.05193 0.255087-0.0012 0.307015-0.118177 0.05193-0.116921-0.0012-0.255087-0.118177-0.307015zm2.256679 1.256778c-0.123825-0.05499-0.267623-0.0043-0.319552 0.112609-0.05193 0.116924-0.05224 0.231329-6.48e-4 0.254238 0.05156 0.0229 0.195391-0.02777 0.319553-0.112609 0.124193-0.08483 0.124483-0.199244 6.47e-4 -0.254238zm-6.082261-2.446754c-0.129443-0.05749-0.2439 0.0635-0.254461 0.268784-0.01061 0.205264-0.108595 0.333566-0.217733 0.285095-0.109145-0.04847-0.396624 0.06612-0.638882 0.254703-0.332963 0.259132-0.370628 0.349611-0.154406 0.370511 0.157329 0.01519 0.326971-0.06585 0.377191-0.180029 0.05016-0.114207 0.261979-0.223475 0.47059-0.24277 0.446717-0.04132 0.758065-0.605129 0.417702-0.756293zm9.889071 4.450119c-0.569332-0.198444-1.250313 0.387989-0.954096 0.821645 0.200793 0.293961 0.804316 0.368598 0.917622 0.113475 0.04257-0.09584-0.07065-0.292239-0.251509-0.43663-0.197915-0.157924-0.08674-0.166596 0.279245-0.02185 0.339023 0.134103 0.592055 0.122351 0.571734-0.0264-0.02002-0.14675-0.273326-0.349286-0.562995-0.45024zm3.73075 1.698144c-0.0095 2e-3 -0.015 0.0074-0.02528 0.0089-0.156254 0.02132-0.369162 0.230025-0.473022 0.463875-0.103858 0.233849-0.253454 0.33051-0.332434 0.214915-0.200432-0.293388-0.557663-0.0042-0.582189 0.471203-0.03636 0.704798 0.495721 0.616046 0.691355-0.115338 0.02509-0.09384 0.132405-0.132094 0.238384-0.08502 0.105899 0.04703 0.228485-0.133478 0.272277-0.401243 0.04847-0.296224 0.104009-0.388371 0.294843-0.304969a12.130785 12.130785 0 0 0-0.08393-0.252273zm-11.155489-4.799261c-0.357791-0.158904-0.404819-0.119586-0.290759 0.242938 0.169629 0.539254 0.140102 0.525496 0.453725 0.21123 0.18064-0.181016 0.129151-0.324437-0.162964-0.454173zm6.279721 2.78898c-0.171713-0.07626-0.375921 0.0049-0.453814 0.180247-0.0779 0.175395-0.05622 0.356825 0.04819 0.403198 0.10442 0.04638 0.308761-0.03468 0.45399-0.180168 0.1608-0.161141 0.14181-0.318815-0.04837-0.403277zm2.397103 1.42231c-0.03498-0.0066-0.09713 0.06861-0.169434 0.215854-0.115686 0.235594-0.146654 0.59411-0.06866 0.796729 0.185816 0.482904 0.179331 0.484913 0.450671-0.126042 0.128875-0.290177 0.138022-0.514581 0.02036-0.498536-0.117664 0.01607-0.208936-0.112483-0.202916-0.285671 0.0023-0.06494-9e-3 -0.09837-0.03002-0.102335zm-3.341976-1.325913c-0.17046-0.06771-0.450817-0.11213-0.6969-0.07591-0.241006 0.03547-0.508131-0.0889-0.688451-0.320556-0.217028-0.278834-0.312025-0.299588-0.360564-0.07874-0.03623 0.164883-0.0068 0.401193 0.06527 0.525153l-8e-5 1.8e-4c0.12982 0.223247 1.182452 0.324752 1.718624 0.165856 0.193168-0.05725 0.132559-0.148266-0.0379-0.215975zm4.201241 2.11343c-0.116923-0.05193-0.314404-0.02509-0.438564 0.05975-0.124187 0.08483-0.130127 0.196739-0.01319 0.248671 0.116924 0.05193 0.314226 0.02501 0.438388-0.05983 0.124194-0.08483 0.130295-0.196664 0.01337-0.248592zm-8.12217-3.256751c-0.105319-0.07034-0.294553-0.07092-0.500254 0.0083-0.347443 0.133725-0.417243 0.238708-0.256568 0.385388 0.298944 0.2728 0.953836 0.0363 0.831667-0.300364-0.014-0.03859-0.03977-0.06981-0.07484-0.09328zm6.207564 2.915276c-0.116923-0.05193-0.255009 0.0011-0.306937 0.118003-0.05193 0.116924 0.0012 0.255087 0.118177 0.307015 0.116923 0.05193 0.255088-0.0012 0.307016-0.118178 0.05193-0.116925-0.0013-0.254911-0.118255-0.306839zm3.519334 1.688176c-0.06115 1.58e-4 -0.12365 0.118449-0.155677 0.314347-0.07841 0.479211-0.241146 0.487447-1.096446 0.05593l-0.415861-0.209852 0.33893 0.383072c0.59317 0.67024 0.962205 0.729213 1.251569 0.200271 0.150967-0.275979 0.212572-0.592243 0.136956-0.702978-0.01888-0.02769-0.03908-0.04084-0.05947-0.04078zm-6.271211-2.655823c-0.175385-0.07789-0.360036-0.04899-0.410334 0.06426-0.05031 0.113271 0.07651 0.214589 0.281801 0.225149 0.205274 0.01059 0.389923-0.0183 0.410335-0.06426 0.02041-0.04594-0.10642-0.147256-0.281802-0.22515zm1.91499 0.96846c-0.08821-0.03371-0.213732 0.0058-0.318513 0.110745-0.169447 0.169803-0.133897 0.260682 0.106593 0.27312 0.417972 0.02156 0.476797-0.04537 0.285519-0.325387-0.01899-0.02779-0.0442-0.04724-0.0736-0.05848zm-2.765656-1.072282c-0.05498-0.01536-0.133234-0.01783-0.233896-0.0041-0.161399 0.02201-0.276175 0.166524-0.255095 0.321142 0.02485 0.182017 0.144187 0.209073 0.338319 0.07647 0.271754-0.185613 0.315609-0.347444 0.150672-0.393521zm4.807362 2.369941c-0.116924-0.05193-0.254912 0.0013-0.306839 0.118255-0.05193 0.116924 0.0011 0.255009 0.118002 0.306936 0.116931 0.05193 0.255087-0.0012 0.307015-0.118177 0.05193-0.116922-0.0012-0.255084-0.118177-0.307016zm-9.657726-4.153728c-0.08393-0.04708-0.200352-0.05823-0.33736-0.01961-0.197894 0.05577-0.465423 0.02201-0.59446-0.07523-0.12904-0.09722-0.332099-0.07604-0.451337 0.0471-0.166463 0.171967-0.06283 0.232226 0.446614 0.260083 0.364857 0.02001 0.727091 0.129496 0.804799 0.243273 0.07771 0.113772 0.179245 0.121438 0.225582 0.01711 0.09581-0.215724 0.04605-0.394261-0.09384-0.472728zm9.04373 4.084406c-0.07629-0.05155-0.180597 0.0069-0.371336 0.135909-0.223595 0.151203-0.443394 0.500789-0.488553 0.776833-0.08267 0.505239 0.212164 0.851757 0.387932 0.455994 0.05193-0.11692 0.237929-0.148862 0.413315-0.07097 0.415465 0.184518 0.466791 0.03261 0.262173-0.773573-0.07899-0.311227-0.127242-0.47265-0.203531-0.524196zm3.558568 1.759298c-0.04746 0.05049-0.04201 0.0911 0.01023 0.117857a12.130785 12.130785 0 0 0-0.01023-0.117857zm-1.970296-0.475504c-0.123333-0.0426-0.267171 0.05892-0.383626 0.321137-0.146029 0.328801-0.04708 0.48815 0.436413 0.702883 0.343868 0.15272 0.713084 0.217743 0.820604 0.144379 0.211573-0.144508 0.842374 0.186411 1.149077 0.525767a12.130785 12.130785 0 0 0-0.01433-0.689833c-0.109041-0.0073-0.206518-0.03863-0.266132-0.09811-0.126853-0.126583-0.334785-0.15912-0.461983-0.0722-0.127212 0.08687-0.342425 0.04714-0.478113-0.08825-0.135691-0.135406-0.301602-0.130973-0.368093 0.01008-0.06685 0.140907-0.144696 0.04542-0.173001-0.212134-0.03454-0.314389-0.137485-0.501117-0.260819-0.543716zm-15.664657-6.604445c-0.09368-0.05951-0.146684-0.03214-0.130962 0.08306 0.0201 0.147316 0.126676 0.30783 0.2367 0.356693 0.305797 0.135812 0.305982-0.04647 4.55e-4 -0.351363-0.03924-0.03916-0.07496-0.06855-0.106193-0.08839zm1.237887 0.688037c-0.123799-0.05498-0.208485 0.02195-0.188181 0.170954 0.02034 0.14902 0.07913 0.289674 0.130717 0.312582 0.05157 0.0229 0.136252-0.05403 0.188181-0.170955 0.05193-0.116924-0.0069-0.257589-0.130713-0.312584zm1.284893 0.917778c-0.170127-0.0761-0.414561 0.03912-0.383915 0.263718 0.01893 0.138714 0.124574 0.292097 0.234594 0.340961 0.228575 0.101517 0.394156-0.169809 0.281795-0.461705-0.02728-0.07087-0.07576-0.11761-0.132474-0.142974zm14.827109 6.844271c-0.03383-0.02091-0.07824-0.03297-0.132936-0.03578-0.187134-0.0097-0.446403-0.06465-0.576109-0.122258-0.129714-0.05761-0.112371 0.118121 0.03836 0.390586 0.36617 0.661993 0.461634 0.687036 0.686943 0.179727 0.09217-0.207531 0.08524-0.349539-0.01626-0.41227zm-2.458257-0.934277c-0.175384-0.07789-0.360038-0.04899-0.410335 0.06426-0.05031 0.113282 0.07644 0.214767 0.281724 0.225325 0.205276 0.01059 0.39-0.01848 0.410411-0.06443 0.02041-0.04595-0.106418-0.147256-0.2818-0.225149zm-5.704059-1.770358c-0.116923-0.05193-0.255088 0.0012-0.307016 0.118178-0.05193 0.116921 0.0012 0.255087 0.118178 0.307016 0.116931 0.05193 0.255087-0.0012 0.307015-0.118178 0.05193-0.116924-0.0012-0.255083-0.118177-0.307016zm-2.192889-0.970106c-0.15297-0.06559-0.163927 0.02967-0.02732 0.238591 0.291194 0.445313 0.364793 0.478 0.318895 0.14163-0.02034-0.14902-0.151563-0.320084-0.291573-0.380221zm9.658004 4.540086c-0.05156-0.0229-0.195391 0.02777-0.319551 0.11261-0.124197 0.08483-0.124483 0.199244-6.48e-4 0.254238 0.123818 0.05499 0.267624 0.0043 0.319553-0.11261 0.05193-0.11692 0.05224-0.231328 6.46e-4 -0.254238zm0.921601 0.539109-0.36889 0.179905c-0.354709 0.172943-0.615938 0.249217-0.580504 0.169432 0.03543-0.07977-0.142784-0.06537-0.396061 0.03212-0.25328 0.0975-0.504698 0.276729-0.558708 0.398338-0.05402 0.121626 0.06969 0.229949 0.274979 0.240512 0.205274 0.01059 0.413753-0.07196 0.463191-0.183269 0.04946-0.111372 0.15237-0.110648 0.228932 0.0015 0.07656 0.112088 0.380983-0.06096 0.676274-0.384602l0.231043-0.253182a12.130785 12.130785 0 0 0 0.02974-0.200727zm-18.779661-8.215789c-0.116932-0.05193-0.278836 0.05473-0.359794 0.237013-0.08095 0.182274-0.02527 0.314782 0.123746 0.294479 0.149017-0.02034 0.31093-0.12699 0.359793-0.237013 0.04886-0.110019-0.0068-0.242551-0.123745-0.294479zm14.999307 6.915886c-0.391466-0.173859-0.423877 0.366755-0.04033 0.672957 0.208349 0.166338 0.318131 0.404765 0.243745 0.529795-0.0743 0.12507-0.181139 0.378667-0.237255 0.563724-0.06741 0.222234 0.05319 0.204469 0.35535-0.05232 0.36144-0.307223 0.411052-0.45679 0.235961-0.713126-0.121862-0.17841-0.177675-0.423425-0.123851-0.544618 0.05382-0.121188 0.02612-0.252234-0.06158-0.291179zm-1.106839-0.15058c-0.02759-0.0064-0.06035-0.0076-0.0976-0.0025-0.149014 0.02033-0.31343 0.132627-0.36536 0.249549-0.05194 0.116955 0.02752 0.195946 0.176522 0.175644 0.149022-0.02033 0.31343-0.132627 0.365361-0.249549 0.03896-0.08772 0.0038-0.153974-0.07893-0.173099zm-6.00529-2.244502c-0.102603-0.04557-0.248929 0.05784-0.32519 0.22955-0.08446 0.190183 0.0072 0.319737 0.234592 0.331448 0.211362 0.0109 0.321119 0.13662 0.253021 0.289951-0.06617 0.148979-0.0316 0.236576 0.07689 0.194817 0.228487-0.08796 0.03742-0.92286-0.239314-1.045765zm-1.568998-0.442301c-0.123799-0.05498-0.208484 0.02195-0.18818 0.170955 0.02034 0.149015 0.07913 0.289675 0.130713 0.312585 0.05156 0.0229 0.136253-0.05403 0.188181-0.170956 0.05193-0.116924-0.0069-0.257593-0.130717-0.312582zm6.281133 2.791513c-0.07099-0.01832-0.115726 0.03477-0.09474 0.188566 0.0186 0.136291-0.110888 0.24961-0.287677 0.251706-0.176858 0.0023-0.089 0.04539 0.194942 0.09609 0.355456 0.06344 0.527699 0.249212 0.553245 0.596429 0.02035 0.277219-0.05755 0.540615-0.173044 0.585265-0.115199 0.04446-0.02978 0.09001 0.190254 0.101409 0.24806 0.01281 0.428899-0.152988 0.475168-0.435863 0.04109-0.251112-0.0196-0.443828-0.134786-0.428126-0.115182 0.01572-0.264351-0.166244-0.33152-0.404517-0.08216-0.291447-0.273535-0.52043-0.391843-0.55096zm5.828881 3.015366c-0.30852 0.0653-0.564228 0.03529-0.653413-0.09528-0.121458-0.177826-0.17417-0.165108-0.146807 0.03543l-8e-5 1.81e-4c0.05493 0.402618 0.288794 0.494646 0.7307 0.294925a12.130785 12.130785 0 0 0 0.0696-0.235247zm-3.795266-1.60524c-0.123802-0.05498-0.208487 0.02195-0.188182 0.170956 0.02034 0.149018 0.07913 0.289673 0.130718 0.312582 0.05157 0.0229 0.136251-0.05403 0.18818-0.170955 0.05193-0.11692-0.0069-0.257591-0.130717-0.312582zm-2.9947-0.537043c-0.130227-0.08426-0.227543 0.0213-0.382746 0.310111-0.244883 0.455669-0.128182 0.567744 0.486335 0.466719 0.366083-0.06018 0.386742-0.106702 0.185937-0.41866-0.121396-0.188587-0.211392-0.307613-0.289526-0.35817zm4.861665 2.384755c-0.175384-0.07789-0.361386-0.04595-0.413313 0.07097-0.05193 0.116924 0.04909 0.276334 0.224474 0.354226 0.175386 0.07789 0.361385 0.04596 0.413315-0.07097 0.05193-0.116921-0.04909-0.276332-0.224474-0.354226zm-1.236937 3.829459c-0.04136-0.02502-0.07948-0.0057-0.109072 0.06083-0.05366 0.120821-0.06224 0.31179-0.01891 0.424345 0.04335 0.11254 0.150247 0.177121 0.237503 0.143533 0.08724-0.03357 0.09557-0.224432 0.01866-0.424244-0.0424-0.110144-0.08684-0.179477-0.128192-0.204495zm-3.557721-1.377548c-0.123799-0.05498-0.208308 0.02203-0.188003 0.171033 0.02034 0.149016 0.07913 0.289675 0.130712 0.312584 0.05156 0.0229 0.136078-0.05411 0.188005-0.171033 0.05193-0.116923-0.0069-0.257594-0.130712-0.312585z" fill="#f9f9f9" stroke-width=".232612"/>
  </g>
 </g>
</svg>
