<?xml version="1.0" encoding="UTF-8"?>
<!-- Created with Inkscape (http://www.inkscape.org/) -->
<svg id="svg5" width="30mm" height="30mm" version="1.1" viewBox="0 0 30 30" xmlns="http://www.w3.org/2000/svg">
 <rect id="rect31037" x="-1.0131192e-7" y="2.4754202e-6" width="30" height="30" rx="15" ry="15" fill="#f9f9f9" stop-color="#000000" stroke-width=".104445" style="paint-order:markers stroke fill"/>
 <path id="rect1068" d="m10.4982 3.5190735c-0.124866 2e-7 -0.225393 0.1069554-0.225393 0.2398037v0.8686468c0 0.1328485 0.100527 0.2397495 0.225393 0.2397495h0.897415c0.124865 0 0.225392-0.106901 0.225392-0.2397495v-0.8686468c0-0.1328483-0.100527-0.2398035-0.225392-0.2398037zm1.351007 0c-0.124866 2e-7 -0.225339 0.1069554-0.225339 0.2398037v0.8686468c0 0.1328485 0.100473 0.2397495 0.225339 0.2397495h0.897468c0.124866 0 0.225393-0.106901 0.225393-0.2397495v-0.8686468c0-0.1328483-0.100527-0.2398035-0.225393-0.2398037zm5.404134 0c-0.124865 2e-7 -0.225392 0.1069554-0.225392 0.2398037v0.8686468c0 0.1328485 0.100527 0.2397495 0.225392 0.2397495h0.897415c0.124866 0 0.225393-0.106901 0.225393-0.2397495v-0.8686468c0-0.1328483-0.100527-0.2398035-0.225393-0.2398037zm1.351007 0c-0.124866 2e-7 -0.225393 0.1069554-0.225393 0.2398037v0.8686468c0 0.1328485 0.100527 0.2397495 0.225393 0.2397495h0.897469c0.124865 0 0.225392-0.106901 0.225392-0.2397495v-0.8686468c0-0.1328483-0.100527-0.2398035-0.225392-0.2398037zm-9.4571547 1.3510607c-0.1248655 0-0.2253926 0.1069552-0.2253926 0.2398035v0.8685929c0 0.1328486 0.1005271 0.2398037 0.2253926 0.2398037h0.8974147c0.124866 0 0.225393-0.1069551 0.225393-0.2398037v-0.8685929c0-0.1328483-0.100527-0.2398035-0.225393-0.2398035zm4.0530737 0c-0.124865 0-0.225392 0.1069552-0.225392 0.2398035v0.8685929c0 0.1328486 0.100527 0.2398037 0.225392 0.2398037h0.897415c0.124866 0 0.225393-0.1069551 0.225393-0.2398037v-0.8685929c0-0.1328483-0.100527-0.2398035-0.225393-0.2398035zm2.702068 0c-0.124866 0-0.225393 0.1069552-0.225393 0.2398035v0.8685929c0 0.1328486 0.100527 0.2398037 0.225393 0.2398037h0.897414c0.124866 0 0.225393-0.1069551 0.225393-0.2398037v-0.8685929c0-0.1328483-0.100527-0.2398035-0.225393-0.2398035zm4.053074 0c-0.124866 0-0.225393 0.1069552-0.225393 0.2398035v0.8685929c0 0.1328486 0.100527 0.2398037 0.225393 0.2398037h0.897414c0.124866 0 0.225393-0.1069551 0.225393-0.2398037v-0.8685929c0-0.1328483-0.100527-0.2398035-0.225393-0.2398035zm-12.1592762 1.3510067c-0.1248658 0-0.2253927 0.1069551-0.2253927 0.2398037v0.8685929c0 0.1328483 0.1005269 0.2398034 0.2253927 0.2398034h0.8974686c0.1248656 0 0.2253927-0.1069551 0.2253927-0.2398034v-0.8685929c0-0.1328486-0.1005271-0.2398037-0.2253927-0.2398037zm5.4041342 0c-0.124865 0-0.225392 0.1069551-0.225392 0.2398037v0.8685929c0 0.1328483 0.100527 0.2398034 0.225392 0.2398034h0.897415c0.124866 0 0.225393-0.1069551 0.225393-0.2398034v-0.8685929c0-0.1328486-0.100527-0.2398037-0.225393-0.2398037zm2.702068 0c-0.124866 0-0.225393 0.1069551-0.225393 0.2398037v0.8685929c0 0.1328483 0.100527 0.2398034 0.225393 0.2398034h0.897414c0.124866 0 0.225393-0.1069551 0.225393-0.2398034v-0.8685929c0-0.1328486-0.100527-0.2398037-0.225393-0.2398037zm5.40408 0c-0.124865 0-0.225392 0.1069551-0.225392 0.2398037v0.8685929c0 0.1328483 0.100527 0.2398034 0.225392 0.2398034h0.897415c0.124866 0 0.225393-0.1069551 0.225393-0.2398034v-0.8685929c0-0.1328486-0.100527-0.2398037-0.225393-0.2398037zm-13.5102822 1.3510066c-0.1248658 0-0.2253927 0.1069554-0.2253927 0.2398037v0.8686469c0 0.1328483 0.1005269 0.2398035 0.2253927 0.2398035h0.8974686c0.1248656 0 0.2253927-0.1069552 0.2253927-0.2398035v-0.8686469c0-0.1328483-0.1005271-0.2398037-0.2253927-0.2398037zm5.4041342 0c-0.124865 0-0.225392 0.1069554-0.225392 0.2398037v0.8686469c0 0.1328483 0.100527 0.2398035 0.225392 0.2398035h0.897415c0.124866 0 0.225393-0.1069552 0.225393-0.2398035v-0.8686469c0-0.1328483-0.100527-0.2398037-0.225393-0.2398037zm2.702068 0c-0.124866 0-0.225393 0.1069554-0.225393 0.2398037v0.8686469c0 0.1328483 0.100527 0.2398035 0.225393 0.2398035h0.897414c0.124866 0 0.225393-0.1069552 0.225393-0.2398035v-0.8686469c0-0.1328483-0.100527-0.2398037-0.225393-0.2398037zm5.40408 0c-0.124865 0-0.225392 0.1069554-0.225392 0.2398037v0.8686469c0 0.1328483 0.100527 0.2398035 0.225392 0.2398035h0.897415c0.124866 0 0.225393-0.1069552 0.225393-0.2398035v-0.8686469c0-0.1328483-0.100527-0.2398037-0.225393-0.2398037zm-13.5102822 1.3510607c-0.1248658 0-0.2253927 0.1069552-0.2253927 0.2398036v0.8685932c0 0.132848 0.1005269 0.239803 0.2253927 0.239803h0.8974686c0.1248656 0 0.2253927-0.106955 0.2253927-0.239803v-0.8685932c0-0.1328484-0.1005271-0.2398036-0.2253927-0.2398036zm5.4041342 0c-0.124865 0-0.225392 0.1069552-0.225392 0.2398036v0.8685932c0 0.132848 0.100527 0.239803 0.225392 0.239803h0.897415c0.124866 0 0.225393-0.106955 0.225393-0.239803v-0.8685932c0-0.1328484-0.100527-0.2398036-0.225393-0.2398036zm2.702068 0c-0.124866 0-0.225393 0.1069552-0.225393 0.2398036v0.8685932c0 0.132848 0.100527 0.239803 0.225393 0.239803h0.897414c0.124866 0 0.225393-0.106955 0.225393-0.239803v-0.8685932c0-0.1328484-0.100527-0.2398036-0.225393-0.2398036zm5.40408 0c-0.124865 0-0.225392 0.1069552-0.225392 0.2398036v0.8685932c0 0.132848 0.100527 0.239803 0.225392 0.239803h0.897415c0.124866 0 0.225393-0.106955 0.225393-0.239803v-0.8685932c0-0.1328484-0.100527-0.2398036-0.225393-0.2398036zm-13.5102822 1.3510068c-0.1248658 0-0.2253927 0.106955-0.2253927 0.239803v0.868593c0 0.132849 0.1005269 0.239804 0.2253927 0.239804h0.8974686c0.1248656 0 0.2253927-0.106955 0.2253927-0.239804v-0.868593c0-0.132848-0.1005271-0.239803-0.2253927-0.239803zm5.4041342 0c-0.124865 0-0.225392 0.106955-0.225392 0.239803v0.868593c0 0.132849 0.100527 0.239804 0.225392 0.239804h0.897415c0.124866 0 0.225393-0.106955 0.225393-0.239804v-0.868593c0-0.132848-0.100527-0.239803-0.225393-0.239803zm2.702068 0c-0.124866 0-0.225393 0.106955-0.225393 0.239803v0.868593c0 0.132849 0.100527 0.239804 0.225393 0.239804h0.897414c0.124866 0 0.225393-0.106955 0.225393-0.239804v-0.868593c0-0.132848-0.100527-0.239803-0.225393-0.239803zm5.40408 0c-0.124865 0-0.225392 0.106955-0.225392 0.239803v0.868593c0 0.132849 0.100527 0.239804 0.225392 0.239804h0.897415c0.124866 0 0.225393-0.106955 0.225393-0.239804v-0.868593c0-0.132848-0.100527-0.239803-0.225393-0.239803zm-14.8612891 1.351061c-0.1248655 0-0.2253926 0.106955-0.2253926 0.239803v0.868593c0 0.132848 0.1005271 0.239804 0.2253926 0.239804h0.8974148c0.1248655 0 0.2253926-0.106956 0.2253926-0.239804v-0.868593c0-0.132848-0.1005271-0.239803-0.2253926-0.239803zm1.3510069 0c-0.1248658 0-0.2253927 0.106955-0.2253927 0.239803v0.868593c0 0.132848 0.1005269 0.239804 0.2253927 0.239804h0.8974686c0.1248656 0 0.2253927-0.106956 0.2253927-0.239804v-0.868593c0-0.132848-0.1005271-0.239803-0.2253927-0.239803zm5.4041342 0c-0.124865 0-0.225392 0.106955-0.225392 0.239803v0.868593c0 0.132848 0.100527 0.239804 0.225392 0.239804h0.897415c0.124866 0 0.225393-0.106956 0.225393-0.239804v-0.868593c0-0.132848-0.100527-0.239803-0.225393-0.239803zm1.351007 0c-0.124866 0-0.225393 0.106955-0.225393 0.239803v0.868593c0 0.132848 0.100527 0.239804 0.225393 0.239804h0.897469c0.124865 0 0.225338-0.106956 0.225338-0.239804v-0.868593c0-0.132848-0.100473-0.239803-0.225338-0.239803zm1.351061 0c-0.124866 0-0.225393 0.106955-0.225393 0.239803v0.868593c0 0.132848 0.100527 0.239804 0.225393 0.239804h0.897414c0.124866 0 0.225393-0.106956 0.225393-0.239804v-0.868593c0-0.132848-0.100527-0.239803-0.225393-0.239803zm5.40408 0c-0.124865 0-0.225392 0.106955-0.225392 0.239803v0.868593c0 0.132848 0.100527 0.239804 0.225392 0.239804h0.897415c0.124866 0 0.225393-0.106956 0.225393-0.239804v-0.868593c0-0.132848-0.100527-0.239803-0.225393-0.239803zm1.351061 0c-0.124866 0-0.225393 0.106955-0.225393 0.239803v0.868593c0 0.132848 0.100527 0.239804 0.225393 0.239804h0.897415c0.124865 0 0.225392-0.106956 0.225392-0.239804v-0.868593c0-0.132848-0.100527-0.239803-0.225392-0.239803zm-16.2123501 1.351006c-0.1248655 0-0.2253926 0.106955-0.2253926 0.239804v0.868593c0 0.132848 0.1005271 0.239803 0.2253926 0.239803h0.8974148c0.1248655 0 0.2253926-0.106955 0.2253926-0.239803v-0.868593c0-0.132849-0.1005271-0.239804-0.2253926-0.239804zm16.2123501 0c-0.124866 0-0.225393 0.106955-0.225393 0.239804v0.868593c0 0.132848 0.100527 0.239803 0.225393 0.239803h0.897415c0.124865 0 0.225392-0.106955 0.225392-0.239803v-0.868593c0-0.132849-0.100527-0.239804-0.225392-0.239804zm-17.5633567 1.351007c-0.1248655 0-0.2253927 0.106955-0.2253927 0.239803v0.868647c0 0.132849 0.1005272 0.239804 0.2253927 0.239804h0.8974147c0.1248656 0 0.2253927-0.106955 0.2253927-0.239804v-0.868647c0-0.132848-0.1005271-0.239803-0.2253927-0.239803zm18.9143627 0c-0.124865 0-0.225392 0.106955-0.225392 0.239803v0.868647c0 0.132849 0.100527 0.239804 0.225392 0.239804h0.897415c0.124866 0 0.225393-0.106955 0.225393-0.239804v-0.868647c0-0.132848-0.100527-0.239803-0.225393-0.239803zm-18.9143627 1.35106c-0.1248655 0-0.2253927 0.106956-0.2253927 0.239804v0.868593c0 0.132848 0.1005272 0.239803 0.2253927 0.239803h0.8974147c0.1248656 0 0.2253927-0.106955 0.2253927-0.239803v-0.868593c0-0.132848-0.1005271-0.239804-0.2253927-0.239804zm18.9143627 0c-0.124865 0-0.225392 0.106956-0.225392 0.239804v0.868593c0 0.132848 0.100527 0.239803 0.225392 0.239803h0.897415c0.124866 0 0.225393-0.106955 0.225393-0.239803v-0.868593c0-0.132848-0.100527-0.239804-0.225393-0.239804zm-18.9143627 1.351007c-0.1248655 0-0.2253927 0.106955-0.2253927 0.239804v0.868593c0 0.132848 0.1005272 0.239803 0.2253927 0.239803h0.8974147c0.1248656 0 0.2253927-0.106955 0.2253927-0.239803v-0.868593c0-0.132849-0.1005271-0.239804-0.2253927-0.239804zm4.053074 0c-0.1248655 0-0.2253926 0.106955-0.2253926 0.239804v0.868593c0 0.132848 0.1005271 0.239803 0.2253926 0.239803h0.8974147c0.124866 0 0.225393-0.106955 0.225393-0.239803v-0.868593c0-0.132849-0.100527-0.239804-0.225393-0.239804zm9.4600157 0c-0.124866 0-0.225393 0.106955-0.225393 0.239804v0.868593c0 0.132848 0.100527 0.239803 0.225393 0.239803h0.897414c0.124865 0 0.225393-0.106955 0.225393-0.239803v-0.868593c0-0.132849-0.100528-0.239804-0.225393-0.239804zm5.401273 0c-0.124865 0-0.225392 0.106955-0.225392 0.239804v0.868593c0 0.132848 0.100527 0.239803 0.225392 0.239803h0.897415c0.124866 0 0.225393-0.106955 0.225393-0.239803v-0.868593c0-0.132849-0.100527-0.239804-0.225393-0.239804zm-18.9143627 1.3511c-0.1248655 0-0.2253927 0.106901-0.2253927 0.239749v0.868647c0 0.132849 0.1005272 0.239804 0.2253927 0.239804h0.8974147c0.1248656 0 0.2253927-0.106955 0.2253927-0.239804v-0.868647c0-0.132848-0.1005271-0.239749-0.2253927-0.239749zm18.9143627 0c-0.124865 0-0.225392 0.106901-0.225392 0.239749v0.868647c0 0.132849 0.100527 0.239804 0.225392 0.239804h0.897415c0.124866 0 0.225393-0.106955 0.225393-0.239804v-0.868647c0-0.132848-0.100527-0.239749-0.225393-0.239749zm-18.9143627 1.351c-0.1248655 0-0.2253927 0.106956-0.2253927 0.239804v0.868593c0 0.132848 0.1005272 0.239803 0.2253927 0.239803h0.8974147c0.1248656 0 0.2253927-0.106955 0.2253927-0.239803v-0.868593c0-0.132848-0.1005271-0.239804-0.2253927-0.239804zm18.9143627 0c-0.124865 0-0.225392 0.106956-0.225392 0.239804v0.868593c0 0.132848 0.100527 0.239803 0.225392 0.239803h0.897415c0.124866 0 0.225393-0.106955 0.225393-0.239803v-0.868593c0-0.132848-0.100527-0.239804-0.225393-0.239804zm-18.9143627 1.350974c-0.1248655 0-0.2253927 0.106955-0.2253927 0.239804v0.868647c0 0.132848 0.1005272 0.239749 0.2253927 0.239749h0.8974147c0.1248656 0 0.2253927-0.106901 0.2253927-0.239749v-0.868647c0-0.132849-0.1005271-0.239804-0.2253927-0.239804zm18.9143627 0c-0.124865 0-0.225392 0.106955-0.225392 0.239804v0.868647c0 0.132848 0.100527 0.239749 0.225392 0.239749h0.897415c0.124866 0 0.225393-0.106901 0.225393-0.239749v-0.868647c0-0.132849-0.100527-0.239804-0.225393-0.239804zm-17.5633561 1.351061c-0.1248655 0-0.2253926 0.106955-0.2253926 0.239803v0.868593c0 0.132849 0.1005271 0.239804 0.2253926 0.239804h0.8974148c0.1248655 0 0.2253926-0.106955 0.2253926-0.239804v-0.868593c0-0.132848-0.1005271-0.239803-0.2253926-0.239803zm16.2123501 0c-0.124866 0-0.225393 0.106955-0.225393 0.239803v0.868593c0 0.132849 0.100527 0.239804 0.225393 0.239804h0.897415c0.124865 0 0.225392-0.106955 0.225392-0.239804v-0.868593c0-0.132848-0.100527-0.239803-0.225392-0.239803zm-14.8613432 1.351006c-0.1248658 0-0.2253927 0.106956-0.2253927 0.239804v0.868593c0 0.132848 0.1005269 0.239804 0.2253927 0.239804h0.8974686c0.1248656 0 0.2253927-0.106956 0.2253927-0.239804v-0.868593c0-0.132848-0.1005271-0.239804-0.2253927-0.239804zm1.3510605 0c-0.1248655 0-0.2253926 0.106956-0.2253926 0.239804v0.868593c0 0.132848 0.1005271 0.239804 0.2253926 0.239804h0.8974147c0.124866 0 0.225393-0.106956 0.225393-0.239804v-0.868593c0-0.132848-0.100527-0.239804-0.225393-0.239804zm10.8082157 0c-0.124866 0-0.225393 0.106956-0.225393 0.239804v0.868593c0 0.132848 0.100527 0.239804 0.225393 0.239804h0.897414c0.124866 0 0.225393-0.106956 0.225393-0.239804v-0.868593c0-0.132848-0.100527-0.239804-0.225393-0.239804zm1.351006 0c-0.124865 0-0.225392 0.106956-0.225392 0.239804v0.868593c0 0.132848 0.100527 0.239804 0.225392 0.239804h0.897415c0.124866 0 0.225393-0.106956 0.225393-0.239804v-0.868593c0-0.132848-0.100527-0.239804-0.225393-0.239804zm-10.808215 1.348201c-0.124866 0-0.225393 0.106955-0.225393 0.239803v0.868593c0 0.132848 0.100527 0.239804 0.225393 0.239804h0.897415c0.124865 0 0.225392-0.106956 0.225392-0.239804v-0.868593c0-0.132848-0.100527-0.239803-0.225392-0.239803zm1.351007 0c-0.124866 0-0.225339 0.106955-0.225339 0.239803v0.868593c0 0.132848 0.100473 0.239804 0.225339 0.239804h0.897468c0.124866 0 0.225393-0.106956 0.225393-0.239804v-0.868593c0-0.132848-0.100527-0.239803-0.225393-0.239803zm1.35106 0c-0.124865 0-0.225392 0.106955-0.225392 0.239803v0.868593c0 0.132848 0.100527 0.239804 0.225392 0.239804h0.897415c0.124866 0 0.225393-0.106956 0.225393-0.239804v-0.868593c0-0.132848-0.100527-0.239803-0.225393-0.239803zm1.351007 0c-0.124866 0-0.225393 0.106955-0.225393 0.239803v0.868593c0 0.132848 0.100527 0.239804 0.225393 0.239804h0.897469c0.124865 0 0.225338-0.106956 0.225338-0.239804v-0.868593c0-0.132848-0.100473-0.239803-0.225338-0.239803zm1.351061 0c-0.124866 0-0.225393 0.106955-0.225393 0.239803v0.868593c0 0.132848 0.100527 0.239804 0.225393 0.239804h0.897414c0.124866 0 0.225393-0.106956 0.225393-0.239804v-0.868593c0-0.132848-0.100527-0.239803-0.225393-0.239803zm1.351006 0c-0.124865 0-0.225392 0.106955-0.225392 0.239803v0.868593c0 0.132848 0.100527 0.239804 0.225392 0.239804h0.897415c0.124866 0 0.225393-0.106956 0.225393-0.239804v-0.868593c0-0.132848-0.100527-0.239803-0.225393-0.239803zm1.351007 0c-0.124866 0-0.225393 0.106955-0.225393 0.239803v0.868593c0 0.132848 0.100527 0.239804 0.225393 0.239804h0.897469c0.124865 0 0.225392-0.106956 0.225392-0.239804v-0.868593c0-0.132848-0.100527-0.239803-0.225392-0.239803z" fill="#1a1a1a" stop-color="#000000" stroke-width=".0276344" style="paint-order:markers stroke fill"/>
 <path id="rect1132" d="m10.4982 6.2211409c-0.124866 0-0.225393 0.1069551-0.225393 0.2398037v0.8685929c0 0.1328483 0.100527 0.2398034 0.225393 0.2398034h0.897415c0.124865 0 0.225392-0.1069551 0.225392-0.2398034v-0.8685929c0-0.1328486-0.100527-0.2398037-0.225392-0.2398037zm8.106148 0c-0.124866 0-0.225393 0.1069551-0.225393 0.2398037v0.8685929c0 0.1328483 0.100527 0.2398034 0.225393 0.2398034h0.897469c0.124865 0 0.225392-0.1069551 0.225392-0.2398034v-0.8685929c0-0.1328486-0.100527-0.2398037-0.225392-0.2398037zm-8.106148 1.3510066c-0.124866 0-0.225393 0.1069554-0.225393 0.2398037v0.8686469c0 0.1328483 0.100527 0.2398035 0.225393 0.2398035h0.897415c0.124865 0 0.225392-0.1069552 0.225392-0.2398035v-0.8686469c0-0.1328483-0.100527-0.2398037-0.225392-0.2398037zm8.106148 0c-0.124866 0-0.225393 0.1069554-0.225393 0.2398037v0.8686469c0 0.1328483 0.100527 0.2398035 0.225393 0.2398035h0.897469c0.124865 0 0.225392-0.1069552 0.225392-0.2398035v-0.8686469c0-0.1328483-0.100527-0.2398037-0.225392-0.2398037zm-8.106148 1.3510607c-0.124866 0-0.225393 0.1069552-0.225393 0.2398036v0.8685932c0 0.132848 0.100527 0.239803 0.225393 0.239803h0.897415c0.124865 0 0.225392-0.106955 0.225392-0.239803v-0.8685932c0-0.1328484-0.100527-0.2398036-0.225392-0.2398036zm8.106148 0c-0.124866 0-0.225393 0.1069552-0.225393 0.2398036v0.8685932c0 0.132848 0.100527 0.239803 0.225393 0.239803h0.897469c0.124865 0 0.225392-0.106955 0.225392-0.239803v-0.8685932c0-0.1328484-0.100527-0.2398036-0.225392-0.2398036zm-8.106148 1.3510068c-0.124866 0-0.225393 0.106955-0.225393 0.239803v0.868593c0 0.132849 0.100527 0.239804 0.225393 0.239804h0.897415c0.124865 0 0.225392-0.106955 0.225392-0.239804v-0.868593c0-0.132848-0.100527-0.239803-0.225392-0.239803zm8.106148 0c-0.124866 0-0.225393 0.106955-0.225393 0.239803v0.868593c0 0.132849 0.100527 0.239804 0.225393 0.239804h0.897469c0.124865 0 0.225392-0.106955 0.225392-0.239804v-0.868593c0-0.132848-0.100527-0.239803-0.225392-0.239803zm-8.106148 1.351061c-0.124866 0-0.225393 0.106955-0.225393 0.239803v0.868593c0 0.132848 0.100527 0.239804 0.225393 0.239804-0.124866 0-0.225393 0.106955-0.225393 0.239803v0.868593c0 0.132848 0.100527 0.239804 0.225393 0.239804h0.897415c0.124865 0 0.225392-0.106956 0.225392-0.239804v-0.868593c0-0.132848-0.100527-0.239803-0.225392-0.239803 0.124865 0 0.225392-0.106956 0.225392-0.239804v-0.868593c0-0.132848-0.100527-0.239803-0.225392-0.239803zm8.106148 0c-0.124866 0-0.225393 0.106955-0.225393 0.239803v0.868593c0 0.132848 0.100527 0.239804 0.225393 0.239804-0.124866 0-0.225393 0.106955-0.225393 0.239803v0.868593c0 0.132848 0.100527 0.239804 0.225393 0.239804h0.897469c0.124865 0 0.225392-0.106956 0.225392-0.239804v-0.868593c0-0.132848-0.100527-0.239803-0.225392-0.239803 0.124865 0 0.225392-0.106956 0.225392-0.239804v-0.868593c0-0.132848-0.100527-0.239803-0.225392-0.239803z" fill="#f19ec2" stop-color="#000000" stroke-width=".0276344" style="paint-order:markers stroke fill"/>
 <path id="rect1354" d="m10.495393 17.029356c-0.124865 0-0.225392 0.106955-0.225392 0.239804v0.868593c0 0.132848 0.100527 0.239803 0.225392 0.239803h0.897415c0.124866 0 0.225393-0.106955 0.225393-0.239803v-0.868593c0-0.132849-0.100527-0.239804-0.225393-0.239804zm9.460016 0c-0.124866 0-0.225393 0.106955-0.225393 0.239804v0.868593c0 0.132848 0.100527 0.239803 0.225393 0.239803h0.897414c0.124866 0 0.225393-0.106955 0.225393-0.239803v-0.868593c0-0.132849-0.100527-0.239804-0.225393-0.239804z" fill="#ececec" stop-color="#000000" stroke-width=".0276344" style="paint-order:markers stroke fill"/>
 <path id="path7304" d="m14.511302 18.392001c-0.124864 0-0.22531 0.106932-0.22531 0.239779v0.868681c0 0.132847 0.100446 0.239778 0.22531 0.239778h0.897619c0.124867 0 0.22531-0.106931 0.22531-0.239778v-0.868681c0-0.132847-0.100443-0.239779-0.22531-0.239779zm-1.320376 1.331653c-0.124865 0-0.225309 0.106929-0.225309 0.239779v0.868681c0 0.13285 0.100444 0.239778 0.225309 0.239778h0.89762c0.124865 0 0.225309-0.106928 0.225309-0.239778v-0.868681c0-0.13285-0.100444-0.239779-0.225309-0.239779zm2.687865 0c-0.124866 0-0.22531 0.106929-0.22531 0.239779v0.868681c0 0.13285 0.100444 0.239778 0.22531 0.239778h0.897619c0.124866 0 0.22531-0.106928 0.22531-0.239778v-0.868681c0-0.13285-0.100444-0.239779-0.22531-0.239779z" fill="#1a1a1a" stroke-width=".0276344" style="paint-order:markers stroke fill"/>
</svg>
