<?xml version="1.0" encoding="UTF-8"?>
<!-- Created with Inkscape (http://www.inkscape.org/) -->
<svg id="svg5" width="50mm" height="30.386457mm" version="1.1" viewBox="0 0 50 30.386457" xmlns="http://www.w3.org/2000/svg">
 <g id="layer1" transform="translate(-36.28097,-141.25174)">
  <g id="g4895" transform="matrix(1.1245162,0,0,1.1245162,-4.5175687,-17.58813)">
   <path id="path4851" d="m65.0012 141.25184c-0.04418-2.7e-4 -0.08709 0.0104-0.127124 0.0359-0.320321 0.20418-3.376099 0.91809-5.496822 1.82559-2.12072 0.9075-3.465939 1.51203-3.465939 1.51203l0.380339-0.83284-1.528072 1.24171s0.963763-0.27102-0.341582 0.70159c-1.305343 0.97263-1.238684 0.79743-1.238684 0.79743l-0.913122 1.19796s1.233326-0.49658 1.651063-0.28908c0.417714 0.20752-0.976685 0.8141-0.976685 0.8141s-0.356616 0.44272 0.196371 0.44272c0.552982 0 0.02822 0.56004-0.117825 1.39953-0.0075 0.0433-0.02735 0.0774-0.03979 0.1172l-0.152445 0.29948c-0.361204 0.47428-1.075905 0.58545-1.075902 0.58545l-0.03566-0.26043-1.316199 1.61464 0.02532 0.44793 0.221176 0.41929s-9.151758-0.31056-10.286712-0.087c-1.134954 0.22358-1.460375 0.73023-1.460375 0.73023s-2.354125 1.62359-2.530594 2.31415-0.211249 3.29788 0.995288 4.64601c1.206537 1.34812 3.189653 1.42821 4.623491 1.5162 1.43384 0.088 4.998143-1.31411 4.998143-1.31411s0.01458 0.89981 0.952397 1.00837c0.937802 0.10856 1.783871 0.65627 1.783871 0.65627s-1.217584 0.27732 0.279569 0.82139 7.374636 4.56942 9.334831 4.63402c1.960192 0.0646 2.289249 0.0413 5.349544-0.45679 3.060295-0.49804 4.83123-1.21931 4.83123-1.21931s2.59198 1.43768 3.812686 1.5511c1.220708 0.11343 2.998914-0.61025 2.669087-0.57346-0.329826 0.0368-2.907006 0.19546-1.536856-0.0641 1.37015-0.25952 3.834392-0.74326 3.834392-0.74326l0.381371-2.88188-0.104902-0.12448 0.264583-0.84795-0.159681 0.97243 1.791104-6.93776s0.764715-3.22665-0.2682-4.36891c-1.032912-1.14225-2.641176-3.41446-3.900019-4.4111-0.405058-0.32067-0.609322-0.49065-0.716753-0.58648-0.05031 0.11302-0.336209 0.73123-0.581875 0.66409-0.269221-0.0736-1.825434-2.30353-2.763139-2.86834-0.937704-0.56481-1.801913-0.4347-2.253093-0.7943-0.451181-0.35959-2.278428-1.6245-3.206007-2.02716-0.927576-0.40266-1.093473-0.71669-1.093473-0.71669s-0.379026-0.55867-0.688329-0.56148zm10.585916 6.30388c0.0048-0.0108 0.01964-0.0422 0.01964-0.0422s-0.246086-0.15981-0.01964 0.0422zm3.508314 5.13925 0.798917 0.73909 0.416512 0.50575-0.100253 0.60992z" fill="#666"/>
   <path id="path2218" d="m44.261608 161.13657 2.751111-0.96866 4.929899 3.22458 7.044524 3.08568 9.294558-0.2821 1.017196-0.49311 1.773674 1.25033 2.259288 0.58089 3.358832-1.32222 1.021117 0.0957 1.49298-4.74874 1.121894-6.92198-3.143535-5.18795-3.038975-0.23163-3.050527-2.69699-2.736424-2.72201-3.344984-2.03745-8.631513 3.14048-1.523066 1.58449-3.400954 6.63969-1.7917 0.78469-4.577858-0.55884-4.212595-0.0429-1.782964 0.71575-1.334852 0.76448s-0.799536 2.49043-0.799536 2.60841 1.562806 3.10428 1.562806 3.10428l3.632468 1.29229z" fill="#f3f3f3" stroke="#000" stroke-width=".264583px"/>
   <path id="path869" transform="scale(.26458333)" d="m245.67383 533.86523c-0.167-1e-3 -0.32914 0.0391-0.48047 0.13477-1.21066 0.76566-12.76006 3.44269-20.77539 6.8457-8.01532 3.40301-13.09961 5.66992-13.09961 5.66992l1.4375-3.12304-5.77539 4.65625s3.64257-1.01631-1.29102 2.63086c-4.93358 3.6472-4.68164 2.99023-4.68164 2.99023l-3.45117 4.49219s4.66139-1.86212 6.24024-1.08399c1.57877 0.77817-3.69141 3.05274-3.69141 3.05274s-1.34784 1.66016 0.74219 1.66016c2.09001 0 0.10666 2.10007-0.44532 5.24804s-4.79297 3.75782-4.79296 3.75782l-0.13477-0.97657-4.97461 6.05469 0.0957 1.67969 0.83594 1.57226s-34.58932-1.16454-38.87891-0.32617c-4.28959 0.83841-5.51953 2.73828-5.51953 2.73828s-8.89748 6.08823-9.56445 8.67774c-0.66697 2.5895-0.79842 12.3666 3.76172 17.42187s12.05538 5.3556 17.47461 5.68555c5.41924 0.33006 18.89062-4.92774 18.89062-4.92774s0.0551 3.37416 3.59961 3.78125c3.54445 0.4071 6.74219 2.46094 6.74219 2.46094s-4.60189 1.03989 1.05664 3.08008 27.87264 17.13469 35.28125 17.37695c7.4086 0.24238 8.65228 0.15469 20.21875-1.71289s18.25977-4.57226 18.25977-4.57226 9.79646 5.39109 14.41015 5.8164c4.6137 0.42535 11.33448-2.28834 10.08789-2.15039-1.24659 0.13784-10.98711 0.73296-5.80859-0.24023 5.17852-0.97315 14.49219-2.78711 14.49219-2.78711l1.4414-10.80664-12.10156-14.23633 6.44727 4.43164-3.93946-6.47656 7.4375 5.08984-6.16406-7.60937 8.70898 1.46289s-2.90056-8.54445-6.07812-9.97266 1.40625-1.01562 1.40625-1.01562 6.24341 4.78438 6.05664 4.23242c-0.18678-0.552-2.77901-7.41795-5.38281-9.61914-2.6038-2.2012 3.80273 1.25 3.80273 1.25s2.15732 0.31447-0.26953-4.4336 3.79883-0.75976 3.79883-0.75976l-6.69727-8.38281 7.56055 6.94336 1.57422 1.89648-6.16016 37.19922 6.76953-26.01563s2.89026-12.09951-1.01367-16.38281c-3.90392-4.2833-9.9824-12.80374-14.74023-16.54102-1.53093-1.20247-2.30295-1.83985-2.70899-2.19921-0.19014 0.4238-1.2707 2.74202-2.19921 2.49023-1.01753-0.27598-6.89928-8.63792-10.44336-10.75586-3.54408-2.11797-6.81038-1.63009-8.51563-2.97851-1.70525-1.34843-8.61138-6.09165-12.11719-7.60157-3.5058-1.50992-4.13281-2.6875-4.13281-2.6875s-1.43254-2.09495-2.60156-2.10547zm40.00976 23.63868c0.0182-0.0406 0.0742-0.15821 0.0742-0.15821s-0.93007-0.59926-0.0742 0.15821zm-42.48047-18.61914c0.6188 4e-3 1.17691 0.0701 1.66211 0.20507 7.76321 2.15947 6.77259-0.0701 11.39063 4.85547 4.61804 4.92571 19.2062 20.86005 20.71094 25.27344 1.50475 4.41343-4.65625 31.56641-4.65625 31.56641s-29.78319-13.65283-41.62696-16.59961c-11.84375-2.94675-28.53723-3.98685-29.89453-3.75196-8.9956 1.55668-0.11133-6.51757-0.11133-6.51757l0.47461-0.73047c0.20198-0.59721 9.6875-20.63086 9.6875-20.63086s23.08141-13.73263 32.36328-13.66992zm-81.1914 42.14257c1.98765 3.5e-4 4.05472 0.0998 6.0332 0.35938 7.91395 1.03839 18.0912 1.12038 24.9336 1.01758 6.8424-0.10284 12.10285 0.88226 18.7871 2.29297 6.68433 1.41067 25.51171 7.00234 34.1504 8.88867 7.94732 1.73532 21.04127 9.99185 25.00195 12.41601-0.95037 0.44464-2.52443 1.18439-5.25781 2.61328-3.78207 1.97708-8.1382 4.40235-10.77149 6.60547-0.79636 0.6663-2.67298 1.44477-5.18945 1.94922-2.51647 0.50442-5.66077 0.79869-9.08594 0.86328-6.85034 0.12926-14.83628-0.65386-21.38672-2.3164-6.28671-1.59561-12.6839-6.13547-18.94922-11.31055-6.26532-5.17512-12.39016-10.94882-18.47656-14.85156-6.18323-3.96484-8.66666-4.34023-13.51255-4.60903-4.84588-0.26872-9.24114 0.7339-9.24114 0.7339-2.8248-0.38582 0.92174-0.78831-2.11545 2.02942 0 0 11.93052-2.56603 23.10547 4.59961 5.68431 3.6449 11.78552 9.34986 18.16016 14.61524 6.37463 5.26541 13.04031 10.13555 20.22461 11.95898 6.92055 1.7565 15.10452 2.55666 22.25 2.42188 3.57272-0.0673 6.88301-0.36507 9.66992-0.92383 2.7869-0.55865 5.05506-1.31569 6.65039-2.65039 2.15008-1.79891 6.48147-4.28535 10.1875-6.22266 3.70602-1.93731 6.81445-3.37304 6.81445-3.37304l0.14453-0.0664c1.29067 0.94393 2.16016 1.75391 2.16016 1.75391s-10.42351 9.03322-12.94727 10.82812c-2.52375 1.7949-9.79159 1.3891-14.66601 3.84961s-17.97956 0.4979-25.75391-0.94531c-7.77435-1.44325-22.37914-9.08395-29.20508-12.36133-6.82593-3.27738-18.76509-12.6804-26.63281-18.82031-7.86772-6.13992-15.22852-0.61719-15.22852-0.61719l-4.23632-0.17969-1.82032-1.02929-0.46875 3.05078s-1.13604 1.67462-2.54101 3.4414c-1.40498 1.76678-1.14909-0.37244-1.08008-2.48633 0.069-2.11385 0.35352-6.86328 0.35352-6.86328l1.28125-2.53711 7.44726-3.25195s5.24799-0.87407 11.21094-0.87305zm-5.0586 13.67383c1.22952-0.0135 2.35285 0.1956 3.25196 0.72266 3.59643 2.10818 3.62498 7.81647 6.00976 7.95703 2.38479 0.1406 7.83399 2.02148 7.83399 2.02148s-10.23987 3.16264-12.93164 3.39258c-2.69177 0.23018-7.56836 0.83629-10.79883-1.29687-3.23048-2.13321-7.18772-7.47837-4.04688-9.33203 2.35564-1.39026 6.99316-3.42429 10.68164-3.46485zm118.4668 9.24024s6.95682 2.45501 12.65039 6.82421c5.69355 4.36921 5.82422 12.14063 5.82422 12.14063s-1.99898-1.86901-5.04297-6.04297-13.43164-12.92187-13.43164-12.92187zm4.63281 10.6289s8.1609 6.79261 9.66602 9.60352c0.83313 1.55591-0.39384 2.5155-1.6543 3.07617l0.27735-2.93359-7.27735-7.17383-1.53906-1.35547c0.32006-0.70299 0.52734-1.2168 0.52734-1.2168zm-10.63281 11.08985 0.2207 1.33203s7.41714 3.00665 8.125 2.89062c0.31242-0.0512 2.38088-0.30479 4.53711-0.56445l-6.30859 2.41602s-0.67767-0.87409-1.45508-1.05665c-0.7774-0.18255-8.7539-3.53711-8.7539-3.53711s1.58601-0.51547 3.63476-1.48046z" fill="#1a1a1a"/>
  </g>
 </g>
</svg>
