<?xml version="1.0" encoding="UTF-8"?>
<!-- Created with Inkscape (http://www.inkscape.org/) -->
<svg id="svg5" width="50mm" height="50mm" version="1.1" viewBox="0 0 50 50" xmlns="http://www.w3.org/2000/svg">
 <g id="layer1" transform="translate(-106.80795,-87.944501)">
  <g id="g27852" transform="matrix(.49916633 0 0 .49916633 53.493017 44.045567)">
   <path id="path10562" transform="scale(.26458333)" d="m592.37305 342.85156c-95.60608 2.95474-144.13308 57.25604-170.82422 124.92774-15.61621 41.36554-10.04049 114.96373 36.14062 171.57031 0 0 2.67969-193.32347 2.67969-197.34375 0-4.02032-0.55923-7.92503 1.65625-10.90625s4.35836-6.17759 8.5-8.02344c4.14161-1.84592 15.97346-3.26148 27.44531 3.19531 11.47189 6.4568 28.63816 27.27382 33.72461 37.36524 5.08645 10.09141 12.65098 35.71536 13.61914 47.05273 1.31953-2.39243 5.3016-9.17898 10.34961-13.74804 5.08545-4.60296 11.81857-7.39436 16.8711-0.29688 2.11297 2.96817 2.73627 25.01524 2.67187 28.65625-0.0643 3.64097 0.56126 9.76737 1.11328 12.28906 1.88062 8.59085 7.58188 8.51957 7.3418-1.11914-0.41523-16.67044-1.2168-36.07031-1.2168-36.07031s0.20216-2.44883 3.27344-6.08594c3.26968-3.87207 6.54532-7.54387 11.13086-7.54687 4.85161-4e-3 10.97669 2.85947 11.64258 10.05469 0.86437 9.33994 3.65251 23.75365 3.84765 31.9375 0.19503 8.18385-1.18792 21.82413-2.70312 24.96679-1.94709 4.03844-4.76563 9.13086-4.76563 9.13086l12.50586-8.86523-1.0039-48.14063-0.48438-56.95508s-1.34621-26.50152 15.87891-38.96679c13.77673-9.96978 22.55116-8.30416 27.97265-5.46289 7.62901 3.99817 9.13445 9.04569 12.16407 13.75586l1.6914-8.00586s0.62629-3.89156 5.24219-8.33594c4.61598-4.44438 17.73438-14.16992 17.73438-14.16992 3.91478-2.35413 7.45067-1.4893 9.82226-1.4336-32.52609-24.50069-73.02023-44.69294-114.02148-43.42578zm113.91992 46.97266c-0.39385-7e-4 -0.79758 0.0119-1.21094 0.0391-13.2274 0.87058-20.56424 10.99797-21.95703 14.47461-1.39283 3.47664-1.53403 103.24396-2.01758 109.08594-0.48359 5.84194-3.01172 6.18164-3.01172 6.18164s-20.75167 15.56697-33.18945 23.28711c-0.91408 0.56737-2.98614 1.0426-2.99414-1.20508-0.0203-5.50406 0.0918-93.50586 0.0918-93.50586s0.13409-9.32543 0.15039-13.20508c0.0151-3.87964 2.95031-8.15828 5.99218-8.56836 2.93144-0.39518 4.52978 0.81033 5.52149 3.19922 1.65932 3.99704-0.86698 6.47405 5.04492 9.17188 4.56008 2.08093 11.40462-4.0528 11.24414-8.83008-0.17046-2.01173 0.32598-11.03184-3.83203-15.49414-4.15809-4.4623-9.80881-9.92671-16.93359-8.63672-7.12475 1.28999-14.32417 4.14656-19.03516 15.4043-4.71099 11.25773-4.10166 24.59028-4.09766 33.72461 4e-3 9.13432 1.09259 92.04763 0.94141 94.88867-0.15118 2.84099-0.3207 4.38767-2.97461 6.37695-2.65379 1.98932-54.09528 35.63041-60.7793 39.97656-6.68405 4.34616-9.90489 10.40855-7.64843 13.93946 2.25649 3.53094 6.39653 5.49247 12.98632 2.05468 6.5898-3.43778 54.77201-35.52412 56.92774-36.69336 2.15569-1.16927 2.55203-0.72463 2.58203 0.99415 0.0302 1.71872 1.56571 23.72108 1.0918 28.32617-0.47396 4.60509-0.51354 8.34157-2.4668 9.6875-1.95326 1.34589-3.51851 2.3436-5.28906 1.37109-1.77056-0.97255-3.56061-3.97341-3.67774-8.2168-0.11716-4.24339 0.70656-11.13811-4.6914-11.71093-5.39796-0.57287-7.882 1.7784-9.30469 4.20898s-4.37058 13.48531-3.11328 20.36719c1.25733 6.88188 6.03927 17.74088 13.99219 17.45508 7.95295-0.28574 15.35012-1.4304 19.65625-5.62696 4.30612-4.19656 8.74361-8.97505 9.03906-13.93164 0.2956-4.95662 0.0801-55.48437 0.0801-55.48437s32.00877-19.9136 34.37109-21.57617c2.36232-1.66254 4.77501-1.22982 4.50977 1.47265-0.26533 2.70248 0.80748 42.69548 0.47851 46.21289-0.32882 3.51746-1.34362 12.06382-4.68359 12.13672s-7.06556-0.5955-7.53321-5.1289c-0.46764-4.53343-1.0881-9.3629-5.42382-8.96094-4.33569 0.40195-7.41973 3.15207-8.51368 5.38672-1.0939 2.23464-1.90607 10.09035-1.22265 14.71093 0.68345 4.62063 8.18489 19.98104 15.57617 19.03321 7.39128-0.94787 13.98955-4.70264 18.7832-10.41211s7.78471-27.77823 7.78516-37.40821c4.2e-4 -9.62997-0.31445-49.95117-0.31445-49.95117l48.33593-32.62304s8.28578-4.39787 4.90821-10.83985c-3.37758-6.44194-9.09504-5.4568-11.2793-4.05078s-38.40887 24.76773-40.46289 26.45703c-2.05406 1.6893-2.53152 2.55532-2.69922-4.73437-0.16781-7.28965 0.20199-80.11161 0.53516-82.80664 0.33335-2.69503 0.81423-11.10948 4.60351-11.08008 3.78924 0.0302 5.74878 2.09956 6.00586 4.91406 0.25701 2.81446 3.66962 7.01497 7.20703 6.68555 3.53738-0.32958 6.15454-2.98827 6.62305-5.3086 0.46855-2.32036 0.43945-12.19531 0.43945-12.19531s-2.93721-13.01706-15.14648-13.03906zm19.75781 15.93164s-0.31279 9.21799-2.58008 13.01562c-2.95643 4.95191-7.55635 11.05378-13.34375 11.01368-5.78736-0.04-8.42773-1.21094-8.42773-1.21094l-1.02734 72.95898c-1e-5 0 32.97693-21.19492 38.32617-24.20312 5.3492-3.00817 10.68138-1.39921 15.47265 6.98828 4.79123 8.38745-5.23242 15.67578-5.23242 15.67578l-47.87695 31.95313s-0.28272 62.53326-1.37891 68.92773c-1.33695 7.79892-5.45447 15.95083-12.04687 22.74023-6.9517 7.15944-14.00304 10.60408-23.08789 10.20118-9.08489-0.40293-18.47266-14.42383-18.47266-14.42383-4.24647 16.13013-16.86621 27.58745-34.52344 28.10156-7.54163 0.54078-20.17644-9.403-20.85351-22.69336-0.67706-13.29034 4.22461-22.57226 4.22461-22.57226l-33.76758 19.65429s-11.0733 2.96142-16.08594-5.57812c-5.01264-8.5395 8.19141-18.3125 8.19141-18.3125l25.74023-18.78516s-10.29594 2.27095-20.82812-4.6875c-10.53222-6.95841-12.64844-30.76953-12.64844-30.76953s-3.56203 32.08493-18.05274 60.19727c-15.60737 30.27869-45.97523 57.36983-47.70312 58.64648 40.24969 26.86488 68.5536 38.11304 115.79102 38.39844 36.91953 1.01918 74.00437-13.97871 111.21484-40.24805 37.21051-26.2693 64.97182-96.71853 62.71875-143.9375-3.43291-71.94546-43.74219-111.05078-43.74219-111.05078zm-249.91406 19.33398c-2.99769-0.23473-5.00007 0.67417-5.41406 4.2168-0.82795 7.08529-1.47071 210.17188-1.47071 210.17188-0.93441 7.58592-0.62331 20.0929 12.96485 13.04492 13.58815-7.04799 43.31133-51.40995 52.76953-85.23828 9.45821-33.82832 7.49134-86.23915-16.02344-114.24805-10.38499-10.88525-24.12454-26.42645-42.82617-27.94727zm195.91601 13.02539s-5.47462 10.68621-12.83593 11.09961c-7.36131 0.41341-12.88672-7.51953-12.88672-7.51953l1.18164 94.14649 25.2539-17.53125zm-179.86328 20.09766c0.88524-0.0655 1.9445 0.4474 3.17578 2 4.37787 5.52034 14.40149 21.50296 16.83985 27.70313 2.4384 6.20012 7.05715 20.12809 8.04883 51.75586 0.99171 31.62768-23.01914 72.49902-27.7793 79.22265-4.7602 6.72363-3.86328-1.8418-3.86328-1.8418l0.18359-154.73046s1.13225-3.94208 3.39453-4.10938zm0.54883 19.86328 0.23438 128.4336s18.26067-31.22158 17.40234-57.08594c-0.85833-25.86437 0.77092-27.02994-2.81445-38.78125-3.58534-11.75135-14.82227-32.56641-14.82227-32.56641zm104.17969 11.89453c-3.37051-0.0703-6.26075 4.56883-6.47656 8.1211-0.21597 3.5523 1.33886 18.10486 1.1582 24.44922-0.18081 6.34435-0.68795 15.71171-1.2793 19.0332-0.59138 3.32149-4.49273 6.44086-8.89062 6.50586-5.59639 0.0829-7.83541-4.26956-7.82031-8.99805 0.015-4.72849-2.77523-35.44909-2.91016-37.58789-0.13493-2.13876-1.7886-5.46581-7.6211-4.93555-4.75007 0.43185-6.66267 6.1009-7.27734 11.45899-0.61287 5.35808-0.69537 13.84385-0.63867 23.33398 0.0567 9.49009 2.74677 18.37608 5.93359 26.83399 3.18686 8.45794 13.96687 11.64034 23.84961 10.63476 9.88275-1.00558 16.82069-9.38297 19.49414-13.55859 2.67349-4.17559 4.34813-19.94387 4.26953-30.04492-0.0787-10.10102-2.01429-21.97554-3.38086-28.61719-1.36652-6.64021-5.03964-6.55861-8.41015-6.62891zm74.51367 64.03516-22.97852 14.43945 0.41602 24.84571s4.34574-8.50406 9.6582-10.14063c5.31247-1.63657 13.4668 1.70508 13.4668 1.70508zm-51.87305 32.91797-6.67382 5.08203s3.36152 0.31618 4.48828 0.87695c1.12675 0.56081 1.95898 3.75 1.95898 3.75z" fill="#f00" stop-color="#000000" style="paint-order:markers stroke fill"/>
   <path id="path10778" transform="scale(.26458333)" d="m696.57227 387.71094-10.28711 9.38476-8.84571 10.58789-5.53515 10.53907-3.71485-4.12891-5.93945-5.95703-6.125-3.56641-8.77539-0.72656-7.43359 2.34961-8.16993 7.73828-10.0625 18.69531-1.53515 20.01563 3.83203 98.09961-40.03516 28.43164-28.86328 21.44726-2.4375 8.4668 8.21289 9.69727 13.4336-7.49024 47.55078-29.53125 0.36718 10.75391-1.69336 6.9414-6.23046-5.32617-6.6543-1.0625-3.94727 3.1875-8.45312 14.82617 3.07226 21.75391 13.8086 10.70313 20.48437-4.24219 11.08008-15.22656 2.28711-11.2793 0.34961-18.27735 0.0117-28.93945 29.22656-17.63476 1.2832 2.1289 0.74024 40.91016-3.2461 2.32226-5.87695-7.55664-9.07226 0.0332-7.35743 4.74804-0.31445 18.49805 7.24805 16.02539 8.27344 4.89063 13.65234-2.9336 12.72266-13.84961 4.64257-14.48437 1.60743-27.03906-0.29297-41.19922 44.69922-29.37305 8.60351-8.28906 1.14844-4.68946-5.29688-7.64257-5.17773-2.48438-7.53516 2.96289-11.70898 8.73633-13.67188 7.82813-12.5957 7.10546 1.65625-80.5664 2.82422-3.30274 12.60742 3.50782 6.23242-5.61524 1.7461-8.8789 0.43554-8.62696-3.49023-8.38086-8.68945-4.05664zm-214.73633 36.22265-8.99024 0.0996-4.48632 2.53711-3.18555 8.75196-1.11914 53.27539-0.83594 163.95703 13.07422 6.40625 14.91015-10.24219 13.95313-16.87305 19.99609-31.11328 8.13868-21.06836 8.89648-29.31445 3.45508-12.62695 2.64648 2.32226s11.78621 24.39611 11.99219 25.15625c0.20602 0.7601 11.76758 6.76367 11.76758 6.76367l14.48047-0.25781 18.34179-8.84961 5.16016-19.93554 1.24609-17.04102-4.64648-31.25586-3.37891-4.67188-5.15429-1.73046-3.82422 0.21093-8.33594 7.95118-0.54492 9.62304 0.77344 25.49024-1.06446 13.00781-5.37695 0.80469-1.76953-0.10352-3.12891-4.88672-0.82031-22.9414-1.38477-13.99414-1.23828-5.4375-2.13086-3.02149-9.95507 0.77149-9.15626 11.10937-6.63671 22.83789-0.38868-9.81445-2.74609-23.58594s-8.16263-25.26945-8.82812-28.19141c-0.6655-2.92195-6.82422-11.0957-6.82422-11.0957l-8.66016-10.42578-13.74023-13.32813-13.80079-7.44921zm191.38281 8.92188 3.48633 0.23437 0.83594 65.01172-0.8711 18.51563-11.51562 9.29101-18.97657 14.30469-3.41406-1.03711 1.39844-103.75976 5.08984-1.53907 6.32422 10.71875 9.29297-3.55078zm-181.09375 37.56641 16.05273 24.40234 6.51954 14.62109-0.6836 26.70899-0.55859 20.57812-3.43164 21.9668-14.03906 28.64258-5.16211 3.2207-0.0566-135.83203z" fill="#fc0" stroke="#000" stroke-width=".999999px"/>
   <path id="path1215" transform="scale(.26458333)" d="m592.97461 332.38867c-104.54237 4.1e-4 -189.29061 84.74865-189.29102 189.29102-6.6e-4 104.54313 84.74789 189.29256 189.29102 189.29297 104.5439 6.6e-4 189.29363-84.74907 189.29297-189.29297-4.1e-4 -104.54313-84.74984-189.29168-189.29297-189.29102zm-0.60156 10.46289c41.00125-1.26716 81.49539 18.92509 114.02148 43.42578-2.37159-0.0557-5.90748-0.92053-9.82226 1.4336 0 0-13.1184 9.72554-17.73438 14.16992-4.6159 4.44438-5.24219 8.33594-5.24219 8.33594l-1.6914 8.00586c-3.02962-4.71017-4.53506-9.75769-12.16407-13.75586-5.42149-2.84127-14.19592-4.50689-27.97265 5.46289-17.22512 12.46527-15.87891 38.96679-15.87891 38.96679l0.48438 56.95508 1.0039 48.14063-12.50586 8.86523s2.81854-5.09242 4.76563-9.13086c1.5152-3.14266 2.89815-16.78294 2.70312-24.96679-0.19514-8.18385-2.98328-22.59756-3.84765-31.9375-0.66589-7.19522-6.79097-10.05824-11.64258-10.05469-4.58554 3e-3 -7.86118 3.6748-11.13086 7.54687-3.07128 3.63711-3.27344 6.08594-3.27344 6.08594s0.80157 19.39987 1.2168 36.07031c0.24008 9.63871-5.46118 9.70999-7.3418 1.11914-0.55202-2.52169-1.17753-8.64809-1.11328-12.28906 0.0644-3.64101-0.5589-25.68808-2.67187-28.65625-5.05253-7.09748-11.78565-4.30608-16.8711 0.29688-5.04801 4.56906-9.03008 11.35561-10.34961 13.74804-0.96816-11.33737-8.53269-36.96132-13.61914-47.05273-5.08645-10.09142-22.25272-30.90844-33.72461-37.36524-11.47185-6.45679-23.3037-5.04123-27.44531-3.19531-4.14164 1.84585-6.28452 5.04222-8.5 8.02344s-1.65625 6.88593-1.65625 10.90625c0 4.02028-2.67969 197.34375-2.67969 197.34375-46.18111-56.60658-51.75683-130.20477-36.14062-171.57031 26.69114-67.6717 75.21814-121.973 170.82422-124.92774zm113.91992 46.97266c12.20927 0.022 15.14648 13.03906 15.14648 13.03906s0.0291 9.87495-0.43945 12.19531c-0.46851 2.32033-3.08567 4.97902-6.62305 5.3086-3.53741 0.32942-6.95002-3.87109-7.20703-6.68555-0.25708-2.8145-2.21662-4.88383-6.00586-4.91406-3.78928-0.0294-4.27016 8.38505-4.60351 11.08008-0.33317 2.69503-0.70297 75.51699-0.53516 82.80664 0.1677 7.28969 0.64516 6.42367 2.69922 4.73437 2.05402-1.6893 38.27863-25.05101 40.46289-26.45703s7.90172-2.39116 11.2793 4.05078c3.37757 6.44198-4.90821 10.83985-4.90821 10.83985l-48.33593 32.62304s0.31487 40.3212 0.31445 49.95117c-4.5e-4 9.62998-2.99151 31.69874-7.78516 37.40821s-11.39192 9.46424-18.7832 10.41211c-7.39128 0.94783-14.89272-14.41258-15.57617-19.03321-0.68342-4.62058 0.12875-12.47629 1.22265-14.71093 1.09395-2.23465 4.17799-4.98477 8.51368-5.38672 4.33572-0.40196 4.95618 4.42751 5.42382 8.96094 0.46765 4.53341 4.19324 5.20185 7.53321 5.1289 3.33997-0.0729 4.35477-8.61926 4.68359-12.13672 0.32897-3.51741-0.74384-43.51041-0.47851-46.21289 0.26524-2.70247-2.14745-3.13519-4.50977-1.47265-2.36232 1.66257-34.37109 21.57617-34.37109 21.57617s0.2155 50.52775-0.0801 55.48437c-0.29545 4.95659-4.73294 9.73508-9.03906 13.93164-4.30613 4.19656-11.7033 5.34122-19.65625 5.62696-7.95292 0.2858-12.73486-10.5732-13.99219-17.45508-1.2573-6.88188 1.69059-17.93661 3.11328-20.36719s3.90673-4.78185 9.30469-4.20898c5.39796 0.57282 4.57424 7.46754 4.6914 11.71093 0.11713 4.24339 1.90718 7.24425 3.67774 8.2168 1.77055 0.97251 3.3358-0.0252 5.28906-1.37109 1.95326-1.34593 1.99284-5.08241 2.4668-9.6875 0.47391-4.60509-1.06156-26.60744-1.0918-28.32617-0.03-1.71878-0.42634-2.16342-2.58203-0.99415-2.15573 1.16924-50.33794 33.25558-56.92774 36.69336-6.58979 3.43779-10.72983 1.47626-12.98632-2.05468-2.25646-3.53091 0.96438-9.5933 7.64843-13.93946 6.68402-4.34615 58.12551-37.98724 60.7793-39.97656 2.65391-1.98928 2.82343-3.53596 2.97461-6.37695 0.15118-2.84104-0.93763-85.75435-0.94141-94.88867-4e-3 -9.13433-0.61333-22.46688 4.09766-33.72461 4.71099-11.25774 11.91041-14.11431 19.03516-15.4043 7.12478-1.28999 12.7755 4.17442 16.93359 8.63672 4.15801 4.4623 3.66157 13.48241 3.83203 15.49414 0.16048 4.77728-6.68406 10.91101-11.24414 8.83008-5.9119-2.69783-3.3856-5.17484-5.04492-9.17188-0.99171-2.38889-2.59005-3.5944-5.52149-3.19922-3.04187 0.41008-5.97707 4.68872-5.99218 8.56836-0.0163 3.87965-0.15039 13.20508-0.15039 13.20508s-0.11205 88.0018-0.0918 93.50586c8e-3 2.24768 2.08006 1.77245 2.99414 1.20508 12.43778-7.72014 33.18945-23.28711 33.18945-23.28711s2.52813-0.3397 3.01172-6.18164c0.48355-5.84198 0.62475-105.6093 2.01758-109.08594 1.39279-3.47664 8.72963-13.60403 21.95703-14.47461 0.41336-0.0272 0.81709-0.0398 1.21094-0.0391zm19.75781 15.93164s40.30928 39.10532 43.74219 111.05078c2.25307 47.21897-25.50824 117.6682-62.71875 143.9375-37.21047 26.26934-74.2953 41.26723-111.21484 40.24805-47.23742-0.2854-75.54133-11.53356-115.79102-38.39844 1.72789-1.27665 32.09575-28.36779 47.70312-58.64648 14.49071-28.11234 18.05274-60.19727 18.05274-60.19727s2.11622 23.81112 12.64844 30.76953c10.53218 6.95845 20.82812 4.6875 20.82812 4.6875l-25.74023 18.78516s-13.20405 9.773-8.19141 18.3125c5.01264 8.53954 16.08594 5.57812 16.08594 5.57812l33.76758-19.65429s-4.90167 9.28192-4.22461 22.57226c0.67707 13.29036 13.31188 23.23414 20.85351 22.69336 17.65723-0.51411 30.27697-11.97143 34.52344-28.10156 0 0 9.38854 14.02071 18.47343 14.42364 9.08485 0.4029 16.13542-3.04155 23.08712-10.20099 6.5924-6.7894 10.70992-14.94131 12.04687-22.74023 1.09619-6.39447 1.37891-68.92773 1.37891-68.92773l47.87695-31.95313s10.02365-7.28833 5.23242-15.67578c-4.79127-8.38749-10.12345-9.99645-15.47265-6.98828-5.34924 3.0082-38.32618 24.20312-38.32617 24.20312l1.02734-72.95898s2.64037 1.17095 8.42773 1.21094c5.7874 0.0401 10.38732-6.06177 13.34375-11.01368 2.26729-3.79763 2.58008-13.01562 2.58008-13.01562zm-249.91406 19.33398c18.70163 1.52082 32.44118 17.06202 42.82617 27.94727 23.51478 28.0089 25.48165 80.41973 16.02344 114.24805-9.4582 33.82833-39.18138 78.19029-52.76953 85.23828-13.58816 7.04798-13.89926-5.459-12.96485-13.04492 0 0 0.64276-203.08659 1.47071-210.17188 0.41399-3.54263 2.41637-4.45153 5.41406-4.2168zm195.91601 13.02539 0.71289 80.19532-25.2539 17.53125-1.18164-94.14649s5.52541 7.93294 12.88672 7.51953c7.36131-0.4134 12.83593-11.09961 12.83593-11.09961zm-179.86328 20.09766c-2.26228 0.1673-3.39453 4.10938-3.39453 4.10938l-0.18359 154.73046s-0.89692 8.56543 3.86328 1.8418c4.76016-6.72363 28.77101-47.59496 27.7793-79.22265-0.99168-31.62777-5.61043-45.55574-8.04883-51.75586-2.43836-6.20017-12.46198-22.18279-16.83985-27.70313-1.23128-1.5526-2.29054-2.06547-3.17578-2zm0.54883 19.86328s11.23693 20.81506 14.82227 32.56641c3.58537 11.75131 1.95612 12.91688 2.81445 38.78125 0.85833 25.86436-17.40234 57.08594-17.40234 57.08594zm104.17969 11.89453c3.37051 0.0703 7.04362-0.0113 8.41015 6.62891 1.36657 6.64165 3.30214 18.51617 3.38086 28.61719 0.0786 10.10105-1.59604 25.86933-4.26953 30.04492-2.67345 4.17562-9.61139 12.55301-19.49414 13.55859-9.88274 1.00558-20.66275-2.17682-23.84961-10.63476-3.18682-8.45791-5.8769-17.3439-5.93359-26.83399-0.0567-9.49013 0.0258-17.9759 0.63867-23.33398 0.61467-5.35809 2.52726-11.02714 7.27734-11.45899 5.8325-0.53026 7.48617 2.79679 7.6211 4.93555 0.13493 2.1388 2.92517 32.8594 2.91016 37.58789-0.0151 4.72849 2.22392 9.08093 7.82031 8.99805 4.39789-0.065 8.29924-3.18437 8.89062-6.50586 0.59135-3.32149 1.09849-12.68885 1.2793-19.0332 0.18066-6.34436-1.37417-20.89692-1.1582-24.44922 0.21581-3.55227 3.10605-8.19136 6.47656-8.1211zm74.51367 64.03516 0.5625 30.84961s-8.15433-3.34165-13.4668-1.70508c-5.31246 1.63657-9.6582 10.14063-9.6582 10.14063l-0.41602-24.84571zm-51.87305 32.91797-0.22656 9.70898s-0.83223-3.18919-1.95898-3.75c-1.12676-0.56077-4.48828-0.87695-4.48828-0.87695z" fill="#1a1a1a" stop-color="#000000" style="paint-order:markers stroke fill"/>
  </g>
 </g>
</svg>
