<?xml version="1.0" encoding="UTF-8"?>
<!-- Created with Inkscape (http://www.inkscape.org/) -->
<svg id="svg5" width="30mm" height="41.012535mm" version="1.1" viewBox="0 0 30 41.012535" xmlns="http://www.w3.org/2000/svg">
 <g id="layer1" transform="translate(-141.72165,-73.82987)">
  <g id="g8260" transform="matrix(1.1970292,0,0,1.1970292,-27.923297,-14.546637)">
   <path id="path8237" d="m153.43369 107.45863c0.36641 0.85912 1.47252 0.78999 1.62558 0.11692l2.28381-11.818974s3.46826-0.577629 4.93361-1.470711c1.18287-0.720921 2.17645-1.802523 2.88041-2.995561 0.78944-1.337898 1.10105-2.923283 1.3788-4.451695 0.17872-0.983463 0.34727-2.008444 0.17733-2.993461-0.32857-1.904428-1.12111-3.778461-2.26234-5.338076-0.77814-1.063412-1.93486-1.799056-3.00242-2.57149-0.79516-0.575337-1.59895-1.182451-2.51866-1.525115-0.92788-0.345707-1.93996-0.439213-2.92834-0.4991-1.64073-0.09941-3.32715-0.147674-4.9256 0.23553-1.73303 0.415467-3.4069 1.184334-4.8756 2.193747-1.05304 0.723737-2.02758 1.626759-2.72118 2.699892-0.7783 1.204179-1.23738 2.620329-1.50826 4.028312-0.24523 1.274632-0.34019 2.620374-0.0852 3.89309 0.36508 1.822246 1.124 3.625903 2.25987 5.096841 0.83142 1.076681 2.00306 1.881303 3.19114 2.543854 0.86905 0.484637 2.80983 1.007909 2.80983 1.007909z" fill="#808080"/>
   <path id="path5660" d="m153.42063 107.44755c0.36641 0.85912 1.47252 0.78999 1.62558 0.11692l2.28381-11.818972s3.46826-0.577629 4.93361-1.470711c1.18287-0.720921 2.17645-1.802523 2.88041-2.995561 0.78944-1.337898 1.10105-2.923283 1.3788-4.451695 0.17872-0.983463 0.34727-2.008444 0.17733-2.993461-0.32857-1.904428-1.12111-3.778461-2.26234-5.338076-0.77814-1.063412-1.93486-1.799056-3.00242-2.57149-0.79516-0.575337-1.59895-1.182451-2.51866-1.525115-0.92788-0.345707-1.93996-0.439213-2.92834-0.4991-1.64073-0.09941-3.32715-0.147674-4.9256 0.23553-1.73303 0.415467-3.4069 1.184334-4.8756 2.193747-1.05304 0.723737-2.02758 1.626759-2.72118 2.699892-0.7783 1.204179-1.23738 2.620329-1.50826 4.028312-0.24523 1.274632-0.34019 2.620374-0.0852 3.89309 0.36508 1.822246 1.124 3.625903 2.25987 5.096841 0.83142 1.076681 2.00306 1.881303 3.19114 2.543854 0.86905 0.484637 2.80983 1.007909 2.80983 1.007909z" fill="#f2f2f2"/>
   <path id="path1151" transform="scale(.26458333)" d="m581.125 283.0918c-17.47915 0.14431-38.63299 14.75245-39.62109 33.84179-0.57494 11.10706 2.41509 36.21339 30.47461 39.54297 4.74198 23.35407 10.70898 42.5 10.70898 42.5l9.27539-41.7539s31.92167-3.19189 32.76367-32.72657c0.84201-29.53466-22.30951-40.46253-41.92187-41.37304-0.5554-0.0258-1.11585-0.0359-1.67969-0.0312zm0.57031 3.53125c17.79145-0.2416 39.65247 10.95373 39.23633 36.1914-0.3638 22.06385-16.63389 27.55362-33.69336 30.28907l-4.75 29.90039-6.1875-29.73243c-11.49823 0.16464-31.04418-5.98889-31.24609-30.96289-0.20155-24.93029 19.59339-35.45405 36.64062-35.68554zm-2.82197 6.47567c-3.2357 2.1e-4 -6.47136 0.7268-9.70703 3.59765l8.6289 36.63672c3.90773 2.6977 5.71472 0.56911 7.91406-0.6582l2.8711-38.82227c-3.23569-0.0287-6.47134-0.75412-9.70703-0.7539zm-1.30274 1.58593c0.11949 9e-5 0.23933 3e-3 0.36133 0.01 3.9041 0.20088 8.60352 0.45898 8.60352 0.45898s-8.95934 0.791-10.10352 1.6836c-1.14418 0.89259-3.31445 2.55078-3.31445 2.55078l1.16211 13.49023-2.89063-15.3164s2.47741-2.87959 6.18164-2.87696zm8.71875 42.64258c-3.51061 1.89802-6.81308 0.88155-10.14844 0.33399l0.89258 9.07617c3.47218 2.30183 6.4914 0.35969 9.57617-0.96875zm-8.97265 1.63867s2.43126 0.82227 3.46289 0.82227c1.03162 0 4.15625-0.74414 4.15625-0.74414s-2.77353 1.78711-3.75586 1.78711c-0.98234 0-3.15235-0.49024-3.15235-0.49024l-0.0391 3.19532z" fill="#333"/>
  </g>
 </g>
</svg>
